<svg width="22" height="28" viewBox="0 0 22 28" fill="none" xmlns="http://www.w3.org/2000/svg"><path d="M19.163 18.301c-.23.49-.499.978-.729 1.43 2.07-4.478 2.723-9.821-.076-13.622-.039-.038-.039-.038-.077 0l-.23-.452c-.038-.075-.077-.112-.115-.188a8.939 8.939 0 011.342 2.032c1.687 3.5 1.38 7.413-.115 10.838V18.3zm2.684-5.945v-.226c0-1.807-.345-3.387-.959-4.817A8.41 8.41 0 0019.7 4.98c-.69-.94-1.457-1.693-2.34-2.295.04 0 .077-.076.04-.076C15.098.013 11.071.126 8.196 1.631c0 0 0-.038-.039-.038a.5.5 0 01-.153.113c-.115.076-.23.113-.345.188-2.416 1.43-4.333 4.102-5.176 6.887-.346.79-.652 1.58-.882 2.37.46-3.574 2.07-6.848 4.946-8.504.038 0 .038-.038 0-.038-4.18 2.108-5.483 7.075-5.445 11.477-.038.866 0 1.731.192 2.597.307 2.22 1.265 4.628 2.722 6.51-2.99-3.65-3.719-9.332-2.53-13.472 0-.075-.077-.037-.077 0-1.994 5.983.345 15.843 7.707 17.348 5.713 1.166 9.279-2.333 10.966-6.849 1.15-2.333 1.726-4.892 1.764-7.714v-.15zm-1.726 6.246l-.345.79c.192-.489.345-.978.499-1.505.038-.075.077-.188.115-.263-.077.338-.154.677-.23.978h-.039zm-1.84 4.516a7.92 7.92 0 01-3.911 3.085c1.035-.527 1.956-1.317 2.722-2.22.077.113.269.15.422 0 .345-.376.69-.79.997-1.204-.077.113-.115.226-.192.339h-.038zm-2.684-3.048c-.153.3-.307.564-.46.865l-.345.339a2.992 2.992 0 01-.614.263 7.632 7.632 0 001.457-1.467h-.038zm-2.186 1.58c-.038.038-.076.075-.076.15-1.956.377-4.218-.225-5.867-1.392-1.457-1.053-2.224-3.048-2.684-5.005-.268-1.768-.153-3.612.23-5.418.23-.753.499-1.505.844-2.22a7.227 7.227 0 012.645-2.183c2.723-1.392 5.675.828 7.094 2.898 2.416 3.462 1.38 10.724-2.186 13.208v-.038zm-1.15 2.898c0-.076-.038-.113-.153-.076a.292.292 0 01-.154.075A6.025 6.025 0 0110 24.322c-.077-.038-.154-.038-.23-.075.46.075.958.112 1.38.075 0 .037.039.037.077.037.92-.037 1.725-.225 2.454-.564 0 .113.077.188.153.263a5.773 5.773 0 01-1.572.452v.037zm-2.262.94c-.039 0-.115-.037-.154-.037h-.038c-1.534-.264-2.99-1.393-4.218-2.747.039-.076.039-.15 0-.189.345.377.729.715 1.15 1.054.269.226.537.414.806.565.92.827 1.994 1.279 3.106 1.128.46.038.882.038 1.342 0-.69.264-1.342.34-2.033.226H10zm1.84.565c-.997.075-1.955 0-2.799-.226l-.038-.038-.46-.226c.805.264 1.61.414 2.377.302.345.037.652.037.997 0-.038.075-.077.112-.077.188zM8.043 21.5c.077.075.192.112.269.188 1.533.903 3.336 1.129 4.984.752-.46.301-.997.527-1.533.753-1.42.075-2.684-.678-3.758-1.694h.038zm-3.412-5.27c.115.414.23.828.383 1.204a12.268 12.268 0 002.76 4.667c.653.715 1.458 1.128 2.34 1.317-.46 0-.92-.076-1.38-.226a.552.552 0 00-.23-.075c-1.764-1.694-2.991-3.5-3.682-6.021-.076-.301-.115-.565-.191-.866zm-.345-4.703c.038-.264.076-.527.153-.79.192-.565.383-1.13.652-1.656-.038.075-.038.15-.077.225a11.462 11.462 0 00-.69 2.22h-.038zM2.982 10.21c-.115.263-.192.564-.307.828 0-.038 0-.076.039-.113.268-1.13.69-2.258 1.188-3.312v-.037c.039-.113.115-.189.154-.301.69-1.355 1.61-2.597 2.76-3.763.115-.151.269-.264.422-.377.038-.037.077-.037.115-.075-1.035.903-1.879 1.994-2.607 3.16-.767 1.205-1.38 2.56-1.726 3.99h-.038zm5.905-7.188c.192-.075.345-.15.537-.225a8.923 8.923 0 00-2.033 1.58l-.038.038c.46-.527.959-.979 1.534-1.355v-.038zm2.339-.677a6.562 6.562 0 011.917.075c.498.15.997.414 1.534.715.69.414 1.265 1.016 1.725 1.656-.882-.94-2.109-1.693-3.796-2.032a5.212 5.212 0 00-2.837.226c.46-.264.958-.452 1.457-.64zm-.384-.978c2.186-.49 4.563-.15 6.289 1.204-2.033-1.242-4.448-1.505-6.902-.903.192-.113.383-.188.613-.301zM9.31 3.85c1.073-.414 2.224-.564 3.374-.338a.283.283 0 00-.077.15c-1.073-.226-2.185-.15-3.297.188zM5.398 7.464c.153-.264.306-.527.46-.753-.192.452-.345.903-.499 1.355a11.42 11.42 0 00-.767 1.881c.192-.828.46-1.693.806-2.483zm.076-.715c-.115.188-.191.376-.306.564a11.17 11.17 0 00-.69 1.543c.114-.376.191-.715.306-1.054.192-.338.422-.715.69-1.016V6.75zm-.383.037c.613-.978 1.342-1.919 2.185-2.671a8.947 8.947 0 00-.881 1.129c-.499.526-.92 1.053-1.304 1.655 0-.037 0-.037.038-.075l-.038-.038zm13.037 6.962v.188c0 .038 0 .038.038.038a11.81 11.81 0 01-.307 2.032c-.077.263-.153.489-.23.715h-.077a13.59 13.59 0 00.576-2.973zm-.46-.753c-.039-2.258-.652-4.44-1.918-5.832-1.917-2.07-4.563-3.312-7.362-2.145-1.15.489-1.993 1.317-2.645 2.295.153-.414.306-.79.46-1.166.268-.377.537-.715.843-1.054a9.742 9.742 0 011.304-.865c3.796-1.167 6.825.526 8.512 3.461.69 1.694.92 3.462.844 5.269l-.038.037zm3.719 0c0 .715-.077 1.43-.192 2.107-.038-.037-.077-.037-.115 0 .153-.715.23-1.43.307-2.107zM2.062 11.753c-.269 1.43-.384 2.86-.307 4.253-.115-.64-.153-1.318-.192-1.957 0-1.393.269-2.822.729-4.215-.115.64-.192 1.28-.192 1.92h-.038z" fill="#080C22"/><path d="M20.35 14.5c.153-.715.23-1.43.307-2.107 0 .715-.077 1.43-.192 2.107-.038-.038-.077-.038-.115 0zm-1.879 3.236c-.23.49-.498.979-.728 1.43 2.07-4.478 2.722-9.821-.077-13.622-.038-.037-.038-.037-.077 0l-.23-.451c-.038-.076-.076-.113-.115-.189a8.935 8.935 0 011.342 2.032c1.687 3.5 1.38 7.414-.115 10.838v-.038zm.92.301c-.115.264-.23.527-.383.79.192-.489.345-.978.498-1.505.039-.075.077-.188.116-.263-.077.338-.154.677-.23.978zm-1.84 4.516a7.92 7.92 0 01-3.911 3.085c1.035-.526 1.955-1.317 2.722-2.22.077.113.269.15.422 0 .345-.376.69-.79.997-1.204-.077.113-.115.226-.192.339h-.038zm-2.684-3.048c-.153.3-.307.564-.46.865l-.345.339a2.999 2.999 0 01-.614.263 7.631 7.631 0 001.457-1.467h-.038zm-2.186 1.58c-.038.038-.076.075-.076.15-1.956.377-4.218-.225-5.867-1.392-1.457-1.053-2.224-3.048-2.684-5.004-.268-1.769-.153-3.613.23-5.419.23-.753.499-1.505.844-2.22a7.228 7.228 0 012.645-2.183c2.723-1.392 5.675.828 7.094 2.898 2.416 3.462 1.38 10.724-2.186 13.208v-.038zm-1.15 2.898c0-.076-.038-.113-.153-.076-.077.038-.115.076-.154.076a6.028 6.028 0 01-1.955-.226c-.077-.038-.154-.038-.23-.075.46.075.958.113 1.38.075 0 .037.038.037.077.037.92-.037 1.725-.225 2.454-.564 0 .113.077.188.153.264a5.77 5.77 0 01-1.572.451v.038zm-2.262.94c-.039 0-.115-.037-.154-.037h-.038c-1.534-.264-2.99-1.392-4.218-2.747.039-.075.039-.15 0-.188.345.376.729.715 1.15 1.053.27.226.537.414.806.565.92.828 1.994 1.28 3.106 1.129.46.037.882.037 1.342 0-.69.263-1.342.338-2.033.225h.039zm1.84.565c-.997.075-1.955 0-2.799-.226l-.038-.038-.46-.225c.805.263 1.61.414 2.377.3.345.038.652.038.997 0-.038.076-.077.114-.077.189zm-3.796-4.553c.077.075.192.113.269.188 1.533.903 3.336 1.129 4.984.752-.46.302-.997.527-1.533.753-1.42.075-2.684-.677-3.758-1.693h.038zm-3.412-5.268c.115.414.23.827.383 1.204a12.268 12.268 0 002.76 4.666c.653.715 1.458 1.129 2.34 1.317-.46 0-.92-.075-1.38-.226a.552.552 0 00-.23-.075c-1.764-1.694-2.991-3.5-3.681-6.021-.077-.301-.116-.564-.192-.866zm-.345-4.704c.038-.264.076-.527.153-.79.192-.565.384-1.13.652-1.656-.038.075-.038.15-.077.226a11.46 11.46 0 00-.69 2.22h-.038zM2.252 9.646c-.115.263-.192.564-.307.828 0-.038 0-.076.039-.113.268-1.13.69-2.258 1.188-3.312v-.037c.039-.113.115-.188.154-.301.69-1.355 1.61-2.597 2.76-3.763.115-.15.269-.264.422-.377.038-.037.077-.037.115-.075-1.035.903-1.879 1.995-2.607 3.161-.767 1.204-1.38 2.559-1.726 3.989h-.038zm5.905-7.187c.192-.076.345-.151.537-.226a8.923 8.923 0 00-2.033 1.58l-.038.038c.46-.527.959-.979 1.534-1.355V2.46zm2.339-.678a6.562 6.562 0 011.917.075c.498.151.997.414 1.534.715a6.516 6.516 0 011.725 1.656c-.882-.94-2.109-1.693-3.796-2.032a5.212 5.212 0 00-2.837.226c.46-.263.958-.49 1.457-.64zm-.384-.978c2.186-.49 4.563-.15 6.289 1.204C14.368.765 11.953.502 9.499 1.104c.192-.113.383-.188.613-.301zM8.58 3.286c1.073-.414 2.224-.564 3.374-.338a.283.283 0 00-.077.15c-1.073-.226-2.185-.15-3.297.188zM5.473 5.657c.268-.376.537-.715.843-1.054a9.742 9.742 0 011.304-.865c3.796-1.167 6.825.527 8.512 3.462.69 1.693.92 3.462.844 5.268-.038-2.258-.652-4.44-1.917-5.833-1.917-2.07-4.563-3.311-7.362-2.144-1.15.489-1.994 1.317-2.646 2.295.153-.414.307-.79.46-1.204l-.038.075zM4.668 6.9c.153-.264.306-.527.46-.753-.192.452-.345.903-.499 1.355a11.42 11.42 0 00-.767 1.881c.192-.827.46-1.693.806-2.483zm.076-.715c-.115.188-.191.376-.306.564a11.17 11.17 0 00-.69 1.543c.114-.376.191-.715.306-1.054.192-.338.422-.714.69-1.016v-.037zm-.383.037c.613-.978 1.342-1.919 2.185-2.671a8.948 8.948 0 00-.881 1.129c-.499.526-.92 1.053-1.304 1.655 0-.037 0-.037.038-.075l-.038-.038zm13.037 7.15c0 .038 0 .038.038.038a11.81 11.81 0 01-.307 2.032c-.077.225-.153.489-.23.715h-.076c.306-.979.498-1.995.575-2.973v.188zM1.332 11.226c-.269 1.43-.384 2.86-.307 4.252-.115-.64-.153-1.317-.192-1.956 0-1.393.269-2.823.729-4.215-.115.64-.192 1.28-.192 1.92h-.038zm18.826-4.44a8.41 8.41 0 00-1.188-2.333c-.69-.94-1.457-1.693-2.34-2.296.04 0 .077-.075.04-.112-2.302-2.597-6.328-2.484-9.203-.979 0 0 0-.037-.039-.037-.038.037-.076.075-.153.113-.115.075-.23.112-.345.188-2.416 1.43-4.333 4.1-5.176 6.886-.346.79-.652 1.543-.882 2.37.46-3.574 2.07-6.848 4.946-8.504.038 0 .038-.037 0-.037C1.638 4.152.335 9.119.373 13.522c-.038.865 0 1.73.192 2.596.307 2.22 1.265 4.629 2.722 6.51-2.99-3.65-3.719-9.332-2.53-13.471 0-.076-.077-.038-.077 0-1.994 5.983.345 15.842 7.707 17.347 5.713 1.166 9.279-2.333 10.966-6.849 1.15-2.333 1.726-4.892 1.764-7.714.038-1.957-.307-3.65-.959-5.155z" fill="#8D9DF5"/></svg>