<svg width="10" height="29" viewBox="0 0 10 29" fill="none" xmlns="http://www.w3.org/2000/svg"><path d="M3.164 7.82c.307-.565.575-1.13.882-1.732.153-.226.268-.489.383-.715.422-.715.92-1.43 1.38-2.107-.805 1.543-1.763 3.048-2.683 4.516l.038.037zM7.65.67c-.115.112-.192.263-.307.376 0-.188-.306-.188-.498-.038-.345.301-.652.715-.92 1.167 0 .037-.039.075-.039.075-.383.602-.69 1.28-1.035 1.769-1.074 1.655-1.955 3.386-2.837 5.117-.499.941-.92 1.92-1.304 2.935-.115.377.307.452.498.188.039-.075.115-.112.154-.188a.293.293 0 00.153-.075c-.076.113-.115.226-.192.301-.038.113.077.113.116.038.421-.565.843-1.167 1.265-1.731 0 .037-.039.075-.039.113-.268.376-.498.752-.805 1.091-.038.038.039.075.077.038.192-.226.345-.414.537-.64-.154.414-.269.79-.345 1.204 0-.038-.039-.038-.039 0l-.076.075c-.039.075 0 .113.076.075l.575-.677c-.115.226-.23.452-.383.64-.077.113.077.15.153.075.154-.226.307-.451.46-.715 0 .038-.038.076-.038.113-.23.602.499.677.805.339.077-.076.154-.188.23-.264-.076.188-.115.339-.191.527-.154.414.383.414.575.113.652-1.204 1.15-2.521 1.61-3.876-.076.979-.076 1.995-.076 3.01-.077 2.033-.192 4.027-.23 6.059-.039 3.424-.422 7.037 0 10.461.038.301.46.038.46-.15.038-.264.038-.49.038-.753.038.15.038.3.038.414 0 .075.039.075.077.113.077.226.422 0 .422-.188.115-.602.153-1.205.23-1.844.115-.038.268-.188.268-.301v-.15c0 .45.039.902.039 1.354 0 .263.383.037.421-.113.039-.564.039-1.129.039-1.693l.115 2.747c0 .376.613.075.613-.189.039-.564.077-1.09.115-1.655.115-.038.192-.15.23-.226a2.9 2.9 0 00.077-.527c.038.753.115 1.468.153 2.22.039.301.46.038.46-.15.576-8.015-.23-16.106.23-24.12 0-.151-.191-.076-.23.037-.114.64-.191 1.317-.268 1.957a73.492 73.492 0 00-.23-4.102c0-.038-.077 0-.077.037-.038.527-.115 1.092-.153 1.619-.038-.452-.115-.904-.192-1.393 0-.075-.038-.15-.076-.15C8.34.895 7.995.97 7.842 1.12c-.537.677-.959 1.43-1.38 2.183-.307.526-.576 1.016-.882 1.505-.077.075-.115.188-.192.263-.154.188-.269.414-.422.64C5.963 4.094 6.922 2.476 7.803.82 7.92.594 7.688.481 7.535.67h.115z" fill="#080C22"/><path d="M2.474 7.256c.306-.565.575-1.13.881-1.731.154-.226.269-.49.384-.715.422-.715.92-1.43 1.38-2.107-.805 1.542-1.764 3.048-2.684 4.553h.039zM9.03 2.59c0-.15-.191-.076-.23.037-.115.64-.192 1.317-.268 1.957a73.492 73.492 0 00-.23-4.102c0-.037-.077 0-.077.038-.038.527-.115 1.091-.153 1.618-.039-.451-.115-.903-.192-1.392 0-.075-.038-.15-.077-.15-.038-.265-.383-.19-.537-.039-.536.677-.958 1.43-1.38 2.182-.307.527-.575 1.016-.882 1.505-.077.076-.115.189-.192.264-.153.188-.268.414-.421.64A90.301 90.301 0 007.228.257C7.343.03 7.113-.082 6.96.069c-.115.112-.192.263-.307.376 0-.188-.307-.188-.499-.038-.345.301-.651.715-.92 1.167 0 .037-.038.075-.038.075-.384.602-.69 1.28-1.035 1.769-1.074 1.655-1.956 3.386-2.838 5.117-.498.94-.92 1.92-1.303 2.935-.115.377.306.452.498.188.038-.075.115-.112.153-.188a.293.293 0 00.154-.075c-.077.113-.115.226-.192.301-.038.113.077.113.115.038.422-.565.844-1.167 1.265-1.731 0 .037-.038.075-.038.113-.268.376-.498.752-.805 1.09-.038.039.038.076.077.039.191-.226.345-.414.536-.64a7.11 7.11 0 00-.345 1.204c0-.038-.038-.038-.038 0l-.077.075c-.038.075 0 .113.077.075l.575-.677c-.115.226-.23.452-.383.64-.077.113.076.15.153.075.153-.226.307-.451.46-.715 0 .038-.038.075-.038.113-.23.602.498.677.805.339.077-.075.153-.188.23-.264-.077.188-.115.339-.192.527-.153.414.384.414.575.113.652-1.204 1.15-2.521 1.61-3.876-.076.979-.076 1.995-.076 3.01-.076 2.033-.192 4.027-.23 6.059-.038 3.424-.422 7.037 0 10.46.038.302.46.039.46-.15.039-.263.039-.489.039-.752.038.15.038.3.038.414 0 .075.038.075.077.113.076.225.421 0 .421-.189.115-.602.154-1.204.23-1.843.116-.038.269-.189.269-.301v-.15c0 .45.038.902.038 1.354 0 .263.384.037.422-.113.038-.565.038-1.129.038-1.694.039.904.077 1.807.115 2.747 0 .377.614.076.614-.188.038-.564.077-1.09.115-1.655.115-.038.192-.15.23-.226.038-.188.077-.376.077-.527.038.753.115 1.468.153 2.22.038.301.46.038.46-.15.575-8.015-.23-16.106.23-24.12l.115.037z" fill="#8D9DF5"/></svg>