<svg width="17" height="29" viewBox="0 0 17 29" fill="none" xmlns="http://www.w3.org/2000/svg"><path d="M7.873 16.443a44.072 44.072 0 011.648-2.107 88.603 88.603 0 01-1.265 1.957c-.767 1.166-1.649 2.333-2.53 3.537a165.539 165.539 0 002.147-3.387zm4.83-1.957c.27-.413.538-.827.806-1.241-1.764 3.763-4.486 7.3-6.557 10.235-.076.113-.076.226-.038.301-.268.075-.537.113-.805.188 2.415-3.01 4.448-6.284 6.595-9.483zm.423-4.666c0 .113-.039.226-.039.34-.383.752-.805 1.429-1.112 1.956l-.038.037c.307-.602.575-1.241.844-1.843.115-.15.23-.34.345-.49zm-.345-1.843a9.38 9.38 0 00.268-2.296c.115.715.153 1.468.153 2.22-.306.64-.613 1.317-.958 1.957-.154.263-.345.49-.499.753.422-.828.806-1.656 1.074-2.597l-.039-.037zM1.66 28.41l-.038.037c-.039 0-.039.075 0 .075 4.563-.752 9.24-1.166 13.765-1.994.192-.038.383-.452.115-.452-.307 0-.652 0-.959.038.23-.15.422-.301.614-.451.077-.076.153-.302.077-.414.153-.076.268-.15.421-.226.154-.113.307-.527 0-.527-.306 0-.613 0-.92.038.383-.113.767-.264 1.112-.377.038 0 .038-.075 0-.075-1.035.15-2.109.339-3.144.564h-.384c.652-.15 1.266-.338 1.88-.564.344-.113.498-.828 0-.715-.077 0-.154.038-.23.038.037-.15-.04-.264-.27-.226-.344.038-.651.113-.996.188a26.617 26.617 0 012.492-.564c.115-.038.192-.226.039-.226-2.57.263-5.177.64-7.746 1.166 3.183-3.875 7.324-9.37 8.206-14.863.23-.79.421-1.58.46-2.409.191-2.897-1.457-5.795-4.717-5.832-1.495 0-3.642.564-4.87 1.43-1.648 1.166-2.76 2.634-3.565 4.44-.613 1.355-1.534 5.042-.882 6.849v.263c0 .226.115.301.269.263.038.038.076 0 .115-.037a.52.52 0 00.306-.377v-.037a.676.676 0 00.192-.264v.038c.192.263.575-.075.537-.3 0-.076-.039-.114-.039-.19 0-.037-.038-.074-.038-.074-.153-.527-.192-1.13-.192-1.807.039.678.154 1.355.307 1.957.039.075.115 0 .115-.037-.192-.979-.192-2.033-.038-3.124 0 .188.038.414.077.602.038.15.115.188.23.188.038.753.191 1.468.383 2.108 0 .037.077 0 .077-.038a11.72 11.72 0 01.076-2.258c0 .377.077.753.154 1.092 0 .037.038.037.038.037.038.527.192 1.016.384 1.43.038.113.191-.037.191-.113a3.785 3.785 0 01-.038-1.467c.115.489.307.903.575 1.166.038.038.153-.037.115-.075 0-.038-.038-.038-.038-.075 0-.038-.039 0-.039 0 .576-1.317.652-3.124 1.19-4.553.306-.828.69-1.807 1.226-2.597.153-.15.345-.3.537-.414 1.073-.828 2.109-.489 2.99.15.23.678.192 1.543.192 2.183-.115.94-.345 1.806-.498 2.296-.575 1.655-1.726 3.16-2.684 4.59-1.572 2.296-3.106 4.591-4.563 6.962-.844 1.392-2.032 2.973-2.837 4.553-.192.301-.384.564-.576.866-.076.113-.076.3.077.3-.038.076-.038.113-.077.189-.038.15-.076.338.077.451.038.038.077.038.115.038-.077.113-.077.263.077.263h.422c-.23.377-.192.866.345.866l-.039.038c0-.038 0-.038-.038-.038l-.115.038z" fill="#080C22"/><path d="M6.262 22.879c-.077.113-.077.226-.038.3-.269.076-.537.114-.806.189 2.416-3.01 4.448-6.284 6.596-9.483l.805-1.241c-1.764 3.763-4.486 7.3-6.557 10.235zm.92-7.037c.537-.715 1.074-1.43 1.649-2.107-.422.677-.844 1.317-1.265 1.957-.767 1.166-1.65 2.333-2.531 3.537a165.26 165.26 0 002.147-3.387zm5.253-6.623c0 .113-.038.226-.038.339-.383.752-.805 1.43-1.112 1.957l-.038.037c.306-.602.575-1.242.843-1.844.115-.15.23-.338.345-.489zm-.345-1.844a9.38 9.38 0 00.268-2.295c.116.715.154 1.468.154 2.22-.307.64-.614 1.317-.959 1.957-.153.263-.345.49-.498.752.46-.827.805-1.655 1.074-2.596l-.039-.038zm3.336-1.542C15.618 2.935 13.969.038 10.71 0 9.214 0 7.067.564 5.84 1.43 4.191 2.596 3.08 4.064 2.274 5.87c-.613 1.355-1.533 5.043-.882 6.849v.263c0 .226.115.301.269.264.038.037.076 0 .115-.038a.52.52 0 00.307-.376v-.038c.076-.075.153-.15.191-.263v.037c.192.264.575-.075.537-.3 0-.076-.038-.114-.038-.189 0-.038-.039-.075-.039-.075-.153-.527-.191-1.129-.191-1.806.038.677.153 1.354.306 1.956.039.076.115 0 .115-.037-.191-.979-.191-2.032-.038-3.124 0 .189.038.414.077.603.038.15.115.188.23.188.038.752.192 1.467.383 2.107 0 .038.077 0 .077-.038a11.72 11.72 0 01.077-2.257c0 .376.076.752.153 1.09 0 .038.038.038.038.038.039.527.192 1.016.384 1.43.038.113.192-.037.192-.113a3.785 3.785 0 01-.039-1.467c.115.49.307.903.575 1.166.039.038.154-.037.115-.075 0-.037-.038-.037-.038-.075h-.038c.575-1.317.652-3.123 1.188-4.553.307-.828.69-1.806 1.227-2.597.192-.15.345-.3.537-.414 1.074-.827 2.109-.489 2.99.15.23.678.193 1.544.193 2.183a13.486 13.486 0 01-.499 2.296c-.575 1.655-1.725 3.16-2.722 4.59-1.572 2.296-3.106 4.592-4.563 6.962C2.619 21.6 1.43 23.18.626 24.76c-.192.301-.384.565-.576.866-.076.113-.076.3.077.3-.038.076-.038.114-.077.189-.038.15-.076.339.077.452.038.037.077.037.115.037-.077.113-.077.264.077.264H.74c-.23.376-.192.865.345.865l-.039.038c0-.038 0-.038-.038-.038l-.038.038c-.039 0-.039.075 0 .075 4.562-.753 9.24-1.167 13.765-1.994.191-.038.383-.452.115-.452-.307 0-.652 0-.959.038.23-.15.422-.301.614-.452.076-.075.153-.301.076-.414.154-.075.269-.15.422-.226.154-.113.307-.526 0-.526-.306 0-.613 0-.92.037.383-.113.767-.263 1.112-.376.038 0 .038-.075 0-.075-1.035.15-2.109.338-3.144.564h-.384c.652-.15 1.266-.339 1.88-.564.344-.113.498-.828 0-.715-.078 0-.154.037-.23.037.037-.15-.04-.263-.27-.226-.344.038-.651.113-.996.189a26.592 26.592 0 012.492-.565c.115-.037.192-.226.038-.226-2.569.264-5.176.64-7.745 1.167 3.183-3.876 7.324-9.37 8.206-14.864.23-.79.421-1.58.46-2.408l-.077.038z" fill="#8D9DF5"/></svg>