<svg width="22" height="28" viewBox="0 0 22 28" fill="none" xmlns="http://www.w3.org/2000/svg"><path d="M15.989 2.53h-.46c.076-.076.153-.114.23-.189.192-.037.383-.075.575-.075-.115.075-.23.15-.345.263zm-.69 1.693l-2.53 2.145c.037-.076.114-.113.152-.15.882-.754 1.764-1.469 2.646-2.221-.076.075-.192.15-.268.263v-.037zm.805 6.058c-.038.038-.077.075-.038.113-1.38-.527-2.646-.677-3.911-.414.038-.038.076-.113.115-.15a6.305 6.305 0 013.834.451zm-1.457-6.924c.153 0 .268-.037.422-.037l-1.036 1.016c-.345.3-.69.564-1.073.865a37.983 37.983 0 011.649-1.844h.038zm-1.687-.489c.498-.113.958-.226 1.457-.339.153-.037.307-.037.46-.075.192-.038.345-.038.537-.075-.077.037-.115.113-.192.15h-.038c-.729.076-1.496.188-2.224.339zm5.636 14.487c.077-.188.115-.376.192-.564v.038a6.603 6.603 0 01-.422 1.994c-.92 1.618-1.994 3.048-3.374 4.215a9.116 9.116 0 01-.959.715c-.958.64-2.07 1.166-3.297 1.467-.269.075-.575.113-.844.15 3.95-.827 7.286-4.214 8.704-8.052v.037zm-1.227-4.402c.499.903.69 2.145.652 3.236a3.25 3.25 0 00-.077-.64v-.188c-.076-.94-.268-1.769-.613-2.484 0 .038.038.038.038.076zm2.684 2.483c.039.15.039.264.039.414-.077 1.016-.154 2.07-.345 3.124-.422 1.204-1.15 2.257-2.11 3.198-.038-.075-.153-.113-.23 0-.268.301-.498.602-.766.903-.077.038-.115.113-.192.15.575-.564 1.112-1.166 1.495-1.843a7.608 7.608 0 001.496-3.048c.575-2.333.307-4.553-1.036-6.21a7.174 7.174 0 011.611 3.388l.038-.076zM8.82 11.034a5.474 5.474 0 00-.575.414c.153-.151.268-.302.421-.49.039 0 .077-.037.154-.075.115-.075.191-.15.306-.226-.076.113-.191.226-.268.339l-.038.038zM7.323 2.003c-1.878.376-3.987 1.317-5.866 1.392-.077 0-.154.113-.154.188 0 .038.039.038.077.038 2.492.112 5.445-1.016 7.937-1.355 2.147-.339 4.793-.866 7.209-.94-2.147.375-4.41.488-6.442.865-2.99.564-6.097 1.204-9.01 2.07-.307.075-.537.677-.077.601C3.45 4.486 5.905 3.96 8.32 3.47c-1.418.376-2.875.828-4.333 1.204a57.08 57.08 0 01-2.453.527c-.307.075-.537.677-.077.602.46-.075.92-.188 1.38-.3 2.8-.603 5.598-1.205 8.474-1.694.997-.15 1.956-.301 2.953-.452-.652.602-1.266 1.242-1.841 1.806-.92.866-1.764 1.769-2.646 2.71-1.303 1.166-2.569 2.408-3.68 3.8-.269.339-.192 1.016.383.715.076-.037.153-.075.192-.15-.23.376.153.677.46.338.23-.225.46-.451.69-.715.038.113.115.151.23.076a4.01 4.01 0 01-.345.414s0 .037.038.037a9 9 0 001.074-1.016c.076-.037.115-.075.191-.113-.191.264-.421.49-.575.753-.076.113-.076.188-.076.263-.23.15-.46.301-.69.49-.077.037-.039.188.038.112.268-.15.537-.3.805-.413.077.037.192.075.307.037-.192.15-.384.339-.537.527-.038.075 0 .113.077.075 1.878-1.166 4.179-1.467 6.211-.564 1.15.527 1.917 1.467 2.3 2.559.154 1.655-.46 3.424-1.15 4.741-1.303 2.484-4.677 3.951-7.361 3.914-2.646-.038-5.1-1.957-4.793-4.704 0-.038-.039 0-.039 0-.92 3.386 1.803 5.418 4.793 5.682-.728.037-1.457 0-2.185-.113-.077-.038-.115-.075-.192-.113-1.649-1.054-2.8-2.822-3.03-4.704 0-.037-.076 0-.076.038.039 1.242.384 2.295.959 3.199-.805-.866-1.457-1.882-1.802-3.049h-.039c.039.866.192 1.619.384 2.296-.307-.414-.575-.828-.844-1.242 0-.037-.038 0-.038.038.077.527.192 1.016.345 1.467-.23-.451-.46-.903-.614-1.43 0-.037-.076 0-.076.038.076.866.268 1.656.575 2.333a6.87 6.87 0 01-.959-2.22c0-.075-.076 0-.076.038.038 1.317.383 2.408.882 3.273-.307-.376-.614-.79-.806-1.241-.038-.076-.115.037-.115.075 1.496 3.95 5.598 4.854 9.51 3.95 1.073-.112 2.108-.3 3.105-.639a12.1 12.1 0 002.723-1.317c.191-.113.345-.188.536-.3 3.375-1.958 4.793-5.231 4.947-8.957.153-3.085-1.15-5.908-4.256-6.66-.039 0-.077-.038-.116-.075-.92-.414-2.223-.565-3.412-.377.767-.677 1.419-1.693 1.955-2.333 1.42-1.768 3.106-3.311 4.487-5.08.038-.075 0-.113-.077-.075-.46.414-.959.828-1.457 1.204 0-.038.038-.038.038-.075 0 0 .039 0 .039-.038.345-.3.191-.865-.192-.64 0-.037-.039-.037-.039-.075a.283.283 0 00.077-.15c.115-.038.192-.038.307-.076.153-.037.307-.263.268-.413.039 0 .077-.038.154-.038.268-.075.498-.64.076-.715-2.147-.301-4.754.301-6.901.527-1.687.188-3.336.527-4.985.828l-.077.113z" fill="#080C22"/><path d="M19.095 18.37c-.422 1.205-1.15 2.258-2.109 3.2-.038-.076-.153-.114-.23 0-.268.3-.498.601-.767.902-.077.038-.115.113-.192.15.576-.564 1.112-1.166 1.496-1.843a7.608 7.608 0 001.495-3.048c.575-2.333.307-4.553-1.035-6.209a7.173 7.173 0 011.61 3.387c.039.15.039.263.039.414-.077 1.016-.154 2.07-.345 3.123l.038-.075zm-1.15-1.58c.076-.188.115-.376.191-.564v.037a6.603 6.603 0 01-.421 1.995c-.92 1.618-2.033 3.048-3.375 4.214-.306.264-.613.49-.958.715-.959.64-2.07 1.167-3.298 1.468-.268.075-.575.113-.843.15 3.95-.828 7.285-4.214 8.704-8.052v.037zm-1.227-4.402c.498.903.69 2.144.651 3.236 0-.226-.038-.452-.076-.64v-.188c-.077-.941-.269-1.769-.614-2.484 0 .038.039.038.039.075zm-1.304-2.56c-1.38-.526-2.646-.677-3.911-.413.038-.038.077-.113.115-.15a6.304 6.304 0 013.834.45c-.038.038-.076.076-.038.114zM12.27 5.653c.882-.753 1.764-1.468 2.646-2.22-.077.075-.192.15-.269.263l-2.53 2.145.153-.15v-.038zm1.725-2.822c.154 0 .269-.038.422-.038l-1.035 1.016c-.345.301-.69.564-1.074.865a38.038 38.038 0 011.649-1.843h.038zm-1.687-.49c.499-.113.959-.225 1.457-.338.154-.038.307-.076.46-.076.192-.037.345-.037.537-.075-.077.038-.115.113-.192.15h-.038c-.728.076-1.495.189-2.224.34zm2.76-.526c.193-.038.384-.076.576-.076-.115.076-.23.15-.345.264h-.46c.076-.076.153-.113.23-.188zm-6.9 8.692a5.486 5.486 0 00-.576.414c.153-.15.268-.301.422-.49.038 0 .076-.037.153-.075.115-.075.192-.15.307-.225-.077.113-.192.225-.269.338l-.038.038zm8.281-1.505c-.038 0-.076-.038-.115-.038-.92-.414-2.224-.564-3.412-.376.766-.677 1.418-1.693 1.955-2.333 1.419-1.769 3.106-3.312 4.486-5.08.039-.075 0-.113-.076-.075-.46.413-.959.827-1.457 1.204 0-.038.038-.038.038-.076 0 0 .038 0 .038-.037.345-.301.192-.866-.191-.64 0-.038-.039-.038-.039-.075a.283.283 0 00.077-.15c.115-.038.192-.038.307-.076.153-.038.306-.263.268-.414.038 0 .077-.037.153-.037.269-.076.499-.64.077-.715-2.147-.301-4.754.3-6.902.526-1.687.189-3.336.527-4.984.828-1.88.377-3.988 1.317-5.867 1.393-.076 0-.153.112-.115.188 0 .037.039.037.077.037 2.492.113 5.445-1.016 7.937-1.354 2.147-.339 4.793-.866 7.208-.941-2.147.376-4.409.49-6.441.865C6.48 2.19 3.374 2.83.46 3.695c-.308.075-.538.677-.078.602 2.454-.376 4.908-.903 7.324-1.392-1.419.376-2.876.828-4.333 1.204-.805.188-1.649.376-2.454.527-.307.075-.537.677-.076.602.46-.075.92-.188 1.38-.301 2.799-.602 5.598-1.204 8.474-1.694.997-.15 1.955-.3 2.952-.451-.652.602-1.265 1.242-1.84 1.806-.92.866-1.764 1.769-2.646 2.71-1.304 1.166-2.569 2.408-3.68 3.8-.27.339-.193 1.016.383.715.076-.038.153-.075.191-.15-.23.376.154.677.46.338.23-.226.46-.451.69-.715.039.113.116.15.23.075-.114.151-.23.264-.345.414 0 0 0 .038.039.038a9 9 0 001.073-1.016c.077-.038.115-.075.192-.113-.192.263-.422.49-.575.753-.077.113-.077.188-.077.263-.23.15-.46.301-.69.49-.077.037-.038.188.038.112.269-.15.537-.3.806-.414a.414.414 0 00.306.038c-.191.15-.383.339-.536.527-.039.075 0 .113.076.075 1.88-1.167 4.18-1.468 6.212-.565 1.15.527 1.917 1.468 2.3 2.56.154 1.655-.46 3.424-1.15 4.74-1.303 2.484-4.678 3.952-7.362 3.914-2.645-.038-5.1-1.957-4.793-4.704 0-.037-.038 0-.038 0-.92 3.387 1.802 5.42 4.793 5.683-.729.037-1.457 0-2.186-.113-.076-.038-.115-.076-.191-.113-1.649-1.054-2.8-2.823-3.03-4.704 0-.038-.076 0-.076.038.038 1.241.383 2.295.958 3.198-.805-.865-1.457-1.881-1.802-3.048h-.038a9.94 9.94 0 00.383 2.296 23.652 23.652 0 01-.843-1.242c0-.038-.038 0-.038.037.076.527.191 1.017.345 1.468-.23-.451-.46-.903-.614-1.43 0-.038-.077 0-.077.038.077.865.269 1.655.576 2.333a6.87 6.87 0 01-.959-2.22c0-.076-.077 0-.077.037.039 1.317.384 2.409.882 3.274-.307-.376-.613-.79-.805-1.242-.038-.075-.115.038-.115.076 1.495 3.95 5.598 4.854 9.51 3.95 1.073-.112 2.108-.3 3.105-.64.997-.338 1.917-.79 2.722-1.316.192-.113.345-.188.537-.301 3.374-1.957 4.793-5.23 4.946-8.956.154-3.086-1.15-5.908-4.256-6.66L16.45 9z" fill="#8D9DF5"/></svg>