<svg width="22" height="28" viewBox="0 0 22 28" fill="none" xmlns="http://www.w3.org/2000/svg"><path d="M3.085 17.679c.729-.038 1.534-.376 2.186-.564a77.987 77.987 0 015.138-1.167c-2.53.64-5.023 1.317-7.515 1.994.076-.075.115-.188.191-.263zm.384-.527c.613-.15 1.994-.489 2.262-.564 1.457-.414 2.914-.79 4.371-1.167.192-.037.384-.075.575-.15.345-.076.729-.15 1.074-.226v.113c-2.646.64-5.291 1.317-7.975 1.919-.116.038-.23.038-.307.075zm-2.454.075c-.039.038-.039.076-.077.151-.23.527.46.414.652.15.077-.075.115-.15.192-.225-.039.075 0 .15 0 .188-.115.3.268.414.421.15a.513.513 0 00.269-.225c.077-.113.115-.189.192-.301h.115c-.115.075-.23.188-.307.3-.077.114-.077.226.038.302l-.23.451c-.307.076-.652.188-.958.264-.039 0-.115.15-.039.113 3.106-.151 6.212-1.242 9.24-1.92.384-.075.768-.15 1.113-.225v.075c-.23 3.725-.422 7.488-.383 11.176 0 .451.651.038.69-.226 0-.113.038-.226.038-.338v.225c0 .264.383.075.422-.075.153-.64.306-1.28.383-1.92.039 0 .077-.037.077-.074v-.64c.23-1.806.23-3.688.23-5.532.077-1.016.115-2.032.192-3.048.038 0 .115 0 .153-.037-.23 3.311-.383 6.66-.498 9.934 0 .226.268.075.306-.075.345-1.957.575-3.914.806-5.87 0 2.031.038 4.026.153 5.945.038.339.537.038.537-.188.076-.527.115-1.091.153-1.618.038.828.077 1.655.153 2.52.039.264.384.038.422-.112.652-3.575.652-7.375.729-11.025 1.188-.264 2.377-.565 3.489-1.017.192-.075.307-.338.268-.489a25.17 25.17 0 001.572-.489c.269-.075.384-.602 0-.564-.345.075-.728.15-1.073.226.115-.151.153-.302-.038-.377-.997-.339-2.723.377-3.72.565-.153.037-.268.075-.422.075v-.188c.039 0 .077 0 .077-.038a65.27 65.27 0 012.646-.49c.153-.037.268-.225.23-.338.307-.15.498-.752 0-.677-.269.038-.575.113-.844.15.154-.112.154-.376-.076-.376-.652.038-1.342.15-1.994.264.076-2.522.115-5.043-.039-7.564 0-.038-.076 0-.076.038-.269 1.956-.499 3.988-.729 5.983.077-2.333.23-4.629.499-6.924 0-.075-.077-.038-.115.038a61.253 61.253 0 00-1.227 7.111 376.4 376.4 0 00.153-6.472c0-.075-.077-.037-.077 0a197.17 197.17 0 00-.958 8.316c-.077 0-.115.038-.192.038.23-2.785.537-5.644.153-8.354-.038-.226-.345-.113-.421.038-.499.94-.345 2.295-.384 3.349 0 .263-.038.527-.076.79 0-.715 0-1.392-.039-2.107.077-.64.154-1.28.307-1.92.038-.112-.153-.075-.192 0-.076.189-.153.415-.23.603l-.115-.903c0-.038-.077 0-.077.037l-.345 2.823c-.268 1.505-.383 3.085-.421 4.666-.039.451-.039.903-.077 1.392-.537.15-1.074.263-1.61.376-1.343.301-2.646.64-3.95 1.092-.268.075-.69.188-1.15.3 1.457-2.332 2.837-4.778 4.333-7.036.306-.452.613-.941.92-1.393.997-1.241 1.955-2.483 2.914-3.725.153-.226-.038-.451-.268-.339-.882.34-1.42 1.506-1.956 2.183-.805 1.054-1.534 2.183-2.262 3.311-.23.301-.499.64-.729.941 1.649-2.559 3.49-5.005 5.1-7.601 0-.038 0-.038-.038 0-.192.226-.384.49-.576.715.039-.075-.076-.113-.115-.038-.882 1.092-1.725 2.22-2.607 3.35 0-.038.038-.076.038-.114.92-1.128 1.803-2.295 2.34-3.574.153-.339-.192-.49-.46-.339.037-.339-.384-.376-.614-.15-.959.94-1.802 1.994-2.57 3.123.422-.715.806-1.43 1.228-2.145.076-.15-.115-.188-.192-.075C6.229 6.54 3.085 11.432.593 16.814c-.115.225-.038.338.077.376l.345.037z" fill="#080C22"/><path d="M2.396 17.076c.728-.038 1.534-.377 2.185-.565a77.986 77.986 0 015.138-1.166c-2.53.64-5.023 1.317-7.515 1.994.077-.075.115-.188.192-.263zm.383-.527c.614-.15 1.994-.49 2.263-.565 1.457-.414 2.914-.79 4.37-1.166.192-.038.384-.075.576-.15.345-.076.728-.151 1.073-.226v.113c-2.645.64-5.29 1.316-7.975 1.919-.115.037-.23.037-.307.075zm18.213-4.215c-.345.076-.728.15-1.073.226.115-.15.153-.301-.039-.376-.996-.339-2.722.376-3.719.564-.153.038-.268.075-.422.075v-.188c.039 0 .077 0 .077-.037a65.27 65.27 0 012.646-.49c.153-.037.268-.225.23-.338.306-.15.498-.753 0-.678-.269.038-.575.113-.844.151.154-.113.154-.376-.076-.376-.652.037-1.342.15-1.994.263.076-2.521.115-5.042-.039-7.563 0-.038-.076 0-.076.037-.269 1.957-.499 3.989-.729 5.983.077-2.333.23-4.628.499-6.924 0-.075-.077-.037-.115.038a61.252 61.252 0 00-1.227 7.112 376.4 376.4 0 00.153-6.472c0-.075-.077-.038-.077 0-.383 2.747-.69 5.531-.958 8.354-.077 0-.115.037-.192.037.23-2.784.537-5.644.153-8.354-.038-.225-.345-.112-.421.038-.499.94-.346 2.295-.384 3.35 0 .263-.038.526-.077.79 0-.716 0-1.393-.038-2.108.077-.64.153-1.28.307-1.919.038-.113-.154-.075-.192 0-.077.188-.153.414-.23.602l-.115-.903c0-.038-.077 0-.077.038l-.345 2.822c-.268 1.505-.383 3.085-.421 4.666-.039.451-.039.903-.077 1.392a24.9 24.9 0 01-1.61.377c-1.343.3-2.646.64-3.95 1.09-.268.076-.69.189-1.15.302 1.457-2.333 2.837-4.78 4.332-7.037.307-.452.614-.94.92-1.392.998-1.242 1.956-2.484 2.915-3.726.153-.225-.039-.451-.269-.338-.882.338-1.418 1.505-1.955 2.182-.805 1.054-1.534 2.183-2.262 3.312-.23.3-.499.64-.729.94 1.649-2.558 3.49-5.004 5.1-7.563 0-.038 0-.038-.039 0-.191.226-.383.489-.575.715.039-.075-.076-.113-.115-.038-.882 1.091-1.725 2.22-2.607 3.35 0-.038.038-.076.038-.114.92-1.129 1.802-2.295 2.34-3.575.153-.338-.193-.489-.46-.338.037-.339-.384-.376-.614-.15-.959.94-1.803 1.994-2.57 3.123.422-.715.806-1.43 1.228-2.145.076-.15-.115-.188-.192-.076-3.183 4.968-6.327 9.86-8.82 15.24-.114.226-.037.34.078.377-.039.037-.039.075-.077.15-.23.527.46.414.652.15.076-.075.115-.15.191-.225-.038.075 0 .15 0 .188-.115.301.269.414.422.15a.513.513 0 00.269-.225c.076-.113.115-.188.191-.301h.115a1.15 1.15 0 00-.306.3c-.077.114-.077.227.038.302l-.23.451c-.307.076-.652.189-.959.264-.038 0-.115.15-.038.113 3.106-.15 6.212-1.242 9.24-1.92.384-.075.768-.15 1.113-.225v.075c-.23 3.725-.422 7.488-.384 11.214 0 .451.652.037.69-.226 0-.113.039-.226.039-.339v.226c0 .264.383.075.421-.075.154-.64.307-1.28.384-1.92.038 0 .077-.037.077-.075v-.64c.23-1.806.23-3.687.23-5.53.076-1.017.115-2.033.191-3.049.039 0 .115 0 .154-.037a292.2 292.2 0 00-.499 9.934c0 .226.269.075.307-.075.345-1.957.575-3.914.805-5.87 0 2.031.039 4.026.154 5.945.038.338.537.037.537-.188.076-.527.114-1.092.153-1.618.038.827.077 1.655.153 2.52.039.264.384.038.422-.112.652-3.575.652-7.375.729-11.026 1.188-.263 2.377-.564 3.489-1.016.192-.075.306-.338.268-.489.537-.15 1.035-.3 1.572-.489.269-.075.384-.602 0-.564l.345-.076z" fill="#8D9DF5"/></svg>