<svg width="19" height="29" viewBox="0 0 19 29" fill="none" xmlns="http://www.w3.org/2000/svg"><path d="M8.825 2.489a93.787 93.787 0 00-3.221.376c-.039-.075-.039-.15-.077-.264l3.26-.112h.038zm4.41-.15h.574c.537 0 1.112 0 1.649-.039-1.15 0-2.262.076-3.413.189-.498.037-.996.037-1.495.075.882-.075 1.764-.15 2.684-.226zm-5.33 9.783a5.677 5.677 0 012.377-.188 8.044 8.044 0 00-1.88.451 9.757 9.757 0 00-1.111.188c0-.075-.038-.113-.038-.188.191-.113.421-.188.651-.263zm2.645.865c-1.074-.075-2.07.113-3.067.527-.039-.113-.039-.263-.077-.376.345-.113.69-.264 1.035-.377.69-.037 1.419.076 2.109.226zm3.681 3.876c-.844-1.43-2.032-2.37-3.643-2.822 1.61.339 2.915 1.317 3.643 2.822zm2.492 3.613c-.115.489-.23 1.015-.421 1.505-.69 1.881-2.148 3.687-3.95 4.628-1.15.602-2.339.866-3.527.978a8.747 8.747 0 001.495-.564c1.074-.339 2.032-.94 2.837-1.693.115-.075.23-.188.345-.264 1.572-1.128 2.684-2.784 3.221-4.553v-.038zM1.194 2.752h.346c0 .038-.038.075-.038.15.038.189.038.414.077.603a4.795 4.795 0 00-.422-.753h.038zm.614-.414C1.693 2.3 1.693 2.3 1.463 2.3c-.192 0-.345.226-.307.377-.038-.038-.077-.113-.115-.15h-.038V2.6c0 .038.038 0 .038 0 .077.565.192 1.167.268 1.731-.153-.602-.306-1.204-.46-1.843 0-.076-.153 0-.115.075.499 4.365 1.15 9.37 2.953 13.396.076.15.268.075.383-.038.038.076.038.113.077.188.115.302.575-.075.537-.3-.039-.189-.077-.414-.115-.603.23.076.498-.188.536-.451 0 .037.039.113.039.15.038.113.076.15.153.188a3.255 3.255 0 00-.537.678c-.038.037.039.075.039.037 0 0 0-.037.038-.037.46-.226.882-.376 1.342-.527-.307.113-.652.226-.997.376-.077.038-.115.15 0 .15 1.879-.488 3.413-.639 5.291.189 1.994.866 3.068 2.521 3.605 4.44-.077.903-.537 1.731-1.189 2.446-2.8 2.559-6.978 3.537-10.544 1.317-.039 0-.077.038-.039.038.077.075.115.188.192.263l-.345-.226c-.153-.075-.384.151-.307.302.345.526.882.903 1.496 1.204.191.15.421.263.613.376a7.687 7.687 0 01-1.879-.715l-.038.038c.23.225.46.414.69.602-.23-.15-.46-.301-.652-.452-.23-.188-.575.188-.46.414.46.978 1.879 1.392 3.413 1.505h.115c-.959.038-1.918 0-2.876-.188-.038 0-.077.038-.038.075a11.26 11.26 0 001.84.527c0 .038.038.038.077.076 5.214.978 10.582.15 12.845-5.193 2.109-4.968 1.112-12.268-5.637-12.493-.038 0-.076.037-.038.075a7.12 7.12 0 013.796 2.37 6.585 6.585 0 00-1.265-.978c-2.34-1.355-4.717-1.28-6.787-.15a168.672 168.672 0 01-.844-4.666c-.076-.414-.115-.904-.191-1.355 1.15-.113 2.3-.264 3.45-.339 2.723-.15 5.407-.15 8.13-.338.344-.038.69-.753.19-.753-.19 0-.383-.038-.536-.038.383-.075.805-.79.268-.828-.498-.037-.996-.075-1.533-.075h1.112c.46 0 .958-.903.345-.903C16.8 2.3 16.148 2.3 15.496 2.3h.23c.077 0 .269-.037.46-.075.499 0 .997-.037 1.496-.037.192 0 .422-.414.153-.414a67.85 67.85 0 00-3.91-.113 21.805 21.805 0 003.143-.452c.23-.037.499-.489.115-.527-2.454-.225-4.984.076-7.4.264-1.687.15-3.336.414-4.984.64l-.576.112v-.075c-.115-.414-.613-.113-.69.188-.268.038-.498.076-.767.113a2.866 2.866 0 00-.536.15c-.499 0-.652.076-.422.264z" fill="#080C22"/><path d="M15.573 21.417c-.69 1.881-2.147 3.687-3.949 4.628-1.15.602-2.339.865-3.527.978a8.746 8.746 0 001.495-.564c1.074-.339 2.032-.94 2.837-1.693.115-.076.23-.189.345-.264 1.573-1.129 2.685-2.784 3.221-4.553-.115.527-.23 1.016-.421 1.505v-.037zm-8.397-9.86a5.679 5.679 0 012.378-.188 8.044 8.044 0 00-1.88.452 9.734 9.734 0 00-1.111.188c0-.075-.038-.113-.038-.188.191-.113.421-.188.651-.263zm2.646.866c-1.074-.075-2.07.113-3.067.527-.039-.113-.039-.263-.077-.376.345-.113.69-.264 1.035-.377.69-.037 1.419.076 2.109.226zm3.681 3.876c-.844-1.43-2.032-2.37-3.643-2.822 1.61.376 2.915 1.317 3.643 2.822zM4.837 2.037l3.26-.113c-1.074.113-2.148.226-3.221.377-.039-.076-.039-.15-.077-.264h.038zm-4.41.15h.347c0 .038-.038.076-.038.151.038.188.038.414.076.602a4.795 4.795 0 00-.421-.752h.038zm12.079-.413h.575c.537 0 1.112 0 1.649-.038-1.15 0-2.262.076-3.413.188-.498.038-.997.038-1.495.076.882-.076 1.764-.15 2.684-.226zm-1.879 7.94c-.038 0-.077.037-.038.075a7.12 7.12 0 013.796 2.37 6.586 6.586 0 00-1.265-.978c-2.34-1.354-4.717-1.28-6.787-.15a168.693 168.693 0 01-.844-4.666c-.076-.414-.115-.903-.191-1.355 1.15-.113 2.3-.263 3.45-.339 2.723-.15 5.407-.15 8.13-.338.344-.038.69-.753.19-.753-.19 0-.383-.038-.536-.038.384-.075.805-.79.268-.827-.498-.038-.996-.076-1.533-.076h1.112c.46 0 .958-.903.345-.903-.652-.037-1.304-.037-1.956-.037h.23c.077 0 .269-.038.46-.076.499 0 .997-.037 1.496-.037.192 0 .422-.414.153-.414a67.843 67.843 0 00-3.91-.113A21.806 21.806 0 0016.34.607c.23-.037.499-.489.115-.526-2.454-.226-4.984.075-7.4.263-1.687.15-3.336.414-4.984.64l-.576.113V1.02c-.115-.414-.613-.113-.69.188-.268.038-.498.076-.767.113a2.866 2.866 0 00-.536.15c-.499 0-.652.076-.422.264C.965 1.7.965 1.7.735 1.7c-.192 0-.345.225-.307.376-.038-.038-.077-.113-.115-.15H.275V2c0 .037.038 0 .038 0 .077.564.192 1.166.268 1.73-.153-.6-.306-1.203-.46-1.842 0-.075-.153 0-.115.075.499 4.365 1.15 9.37 2.953 13.396.076.15.268.075.383-.037.038.075.038.112.077.188.115.3.575-.076.537-.301-.039-.188-.077-.414-.116-.602.23.075.499-.189.537-.452 0 .038.039.075.039.15.038.113.076.151.153.189a3.255 3.255 0 00-.537.677c-.038.038.039.075.039.038 0 0 0-.038.038-.038.46-.226.882-.376 1.342-.527-.307.113-.652.226-.997.377-.077.037-.115.15 0 .15 1.879-.49 3.45-.64 5.291.188 1.994.866 3.068 2.484 3.605 4.44-.077.904-.537 1.731-1.189 2.446-2.8 2.56-6.979 3.538-10.544 1.317-.039 0-.077.038-.039.038.077.075.115.188.192.264l-.345-.226c-.154-.076-.384.15-.307.3.345.528.882.941 1.495 1.205.192.15.422.263.614.376a7.686 7.686 0 01-1.879-.715l-.038.038c.23.226.46.414.69.602-.23-.15-.46-.301-.652-.452-.23-.188-.575.189-.46.414.46.979 1.879 1.393 3.413 1.505h.115c-.959.038-1.918 0-2.876-.188-.038 0-.077.038-.038.076.613.225 1.227.414 1.84.526 0 .038.038.038.077.076 5.214.978 10.582.15 12.845-5.193 2.109-4.967 1.112-12.267-5.637-12.493z" fill="#8D9DF5"/></svg>