<svg width="19" height="28" viewBox="0 0 19 28" fill="none" xmlns="http://www.w3.org/2000/svg"><path d="M6.618 24.157c.115-.49.268-.979.422-1.43.498-1.28.997-2.597 1.495-3.876.115-.264.23-.49.384-.715-.729 2.032-1.42 4.064-2.263 6.058l-.038-.037zm6.48-20.17c.153-.038.268-.038.422-.075-.307.64-.92 2.107-1.687 3.989.421-1.318.843-2.635 1.265-3.914zm.997-.15c-.268.564-.537 1.166-.805 1.73.192-.564.383-1.128.613-1.693.077 0 .154-.037.23-.037h-.038zm1.342-.264c-.498.94-.959 1.92-1.419 2.898-.038-.038-.115-.038-.191 0 .383-.941.805-1.882 1.15-2.823.153-.037.307-.075.46-.075zm.805-.188c.115-.038.23-.075.345-.075-.268.677-.613 1.354-.958 1.994.191-.64.421-1.28.613-1.919zm.805-.226c-.306.527-.575 1.091-.843 1.618.23-.527.422-1.016.575-1.543.077-.037.192-.037.268-.075zm-.153-.376c.153-.075.307-.15.498-.226.269-.075.537-.113.806-.188l-.576 1.242c.077-.301.116-.602 0-.79-.076-.113-.23-.076-.345 0-.115.037-.268.037-.421.075v-.038l.038-.075zm-.422 2.446l-1.035 2.483c-.575 1.092-1.15 2.183-1.649 3.274-.153.339-.306.715-.498 1.091.23-.602.421-1.241.652-1.843.805-1.656 1.61-3.35 2.453-5.005.077-.15.154-.264.23-.414-.038.15-.114.263-.153.414zm-8.32 21.675c1.227-2.522 2.185-5.156 3.182-7.752 1.15-2.333 2.148-4.742 3.144-7.15 1.112-2.672 2.493-5.456 3.451-8.24.269-.64.575-1.243.844-1.882.038-.038-.038-.038-.077 0 0-.15-.038-.264-.268-.226-.154 0-.307.038-.422.038.077 0 .115-.038.192-.038.115-.038.306-.263.23-.376.038-.113 0-.264-.154-.264h-.076c.076 0 .153-.037.268-.037.153-.038.345-.414.115-.414-3.22 0-6.365.414-9.547.94-2.608.452-5.483.565-8.014 1.43-.038 0-.077 0-.077.038-.307.113-.46.715 0 .677h.077c-.038.113-.038.226 0 .301 0 .113.038.189.153.15.499-.037.997-.074 1.496-.15h.728c-.767.189-1.495.377-2.224.565-.076.037-.115.15 0 .15 1.534-.188 3.068-.451 4.563-.715-1.572.414-3.144.828-4.678 1.092-.038 0-.115.113-.038.113.767 0 1.495-.076 2.262-.151-.307.113-.575.188-.805.301 0 0 .038-.038 0-.038l-.537.151c-.038 0-.115.113-.038.113.613.037 1.265 0 1.917-.113-.115.038-.192.075-.307.113 0 0 .039-.038 0-.038-.115 0-.191.038-.307.038-.076 0-.115.113 0 .113 1.994-.188 3.988-.678 5.982-1.054a108.22 108.22 0 013.72-.602c-1.343 3.424-3.03 6.736-4.41 10.122-.882 2.145-1.84 4.29-2.76 6.397-.653 1.43-1.65 2.936-1.88 4.516-.038.263.307.188.384.038.46-.79.843-1.58 1.265-2.409.115 0 .23-.037.307-.15.153-.264.345-.565.498-.866-.23.602-.345.941-.345.941a177.06 177.06 0 01-1.687 3.989c-.23.489.499.414.652.037.038-.112.115-.263.153-.376-.038.226-.076.452-.115.715-.076.452.499.264.652-.037a2.63 2.63 0 01.115-.302c.115.151.422.038.537-.15 0-.038.038-.038.038-.075.039.037.039.075.077.113 0 .112.077.188.192.188a1.066 1.066 0 00-.077.338c-.077.414.46.189.575-.037.154-.301.269-.602.422-.903.038-.038.077-.076.077-.113.153-.264.268-.49.383-.753.537-.79.959-1.656 1.38-2.559a138.595 138.595 0 00-1.687 4.215c-.191.489.499.376.652.038h-.153z" fill="#080C22"/><path d="M16.97 3.01c.076-.3.115-.602 0-.79-.077-.113-.23-.075-.345 0-.115.038-.269.038-.422.075v-.037c.153-.075.307-.15.498-.226.269-.075.537-.113.805-.188l-.575 1.242.039-.076zm-1.42 1.205c.23-.527.422-1.016.575-1.543.077-.038.192-.038.269-.076-.307.527-.576 1.092-.844 1.619zm.268.451L14.784 7.15c-.575 1.09-1.15 2.182-1.649 3.273-.153.34-.306.715-.498 1.054.23-.602.422-1.242.652-1.844.805-1.656 1.61-3.349 2.454-5.005.076-.15.153-.263.23-.413a1.81 1.81 0 00-.154.413v.038zm-2.607-1.392c.077 0 .153-.038.23-.038-.268.565-.537 1.167-.805 1.731.192-.564.383-1.129.613-1.693h-.038zm-7.247 20.32c.115-.49.269-.979.422-1.43.498-1.28.997-2.597 1.495-3.876.115-.263.23-.49.384-.715-.729 2.032-1.419 4.064-2.262 6.058l-.039-.037zm6.48-20.17c.154-.037.269-.037.422-.075-.307.64-.92 2.107-1.687 3.989.422-1.317.843-2.634 1.265-3.914zm2.34-.414c-.5.941-.96 1.92-1.42 2.898-.038-.038-.115-.038-.191 0 .383-.94.805-1.882 1.15-2.822a1.94 1.94 0 01.46-.076zm.804-.188c.115-.037.23-.075.345-.075-.268.677-.613 1.355-.958 1.994.192-.64.422-1.28.613-1.919zm2.454-1.505c0-.15-.038-.263-.268-.226-.153 0-.307.038-.422.038.077 0 .115-.038.192-.038.115-.037.307-.263.23-.376.038-.113 0-.263-.153-.263h-.077c.076 0 .153-.038.268-.038.154-.038.345-.414.115-.414-3.22 0-6.365.414-9.547.94-2.608.452-5.483.565-8.014 1.43-.038 0-.077 0-.077.038-.306.113-.46.715 0 .678h.077c-.038.113-.038.225 0 .3 0 .114.038.189.153.151.499-.037.997-.075 1.496-.15h.728c-.767.188-1.495.376-2.224.564-.076.038-.115.15 0 .15 1.534-.188 3.068-.45 4.563-.714-1.572.414-3.144.828-4.678 1.09-.038 0-.115.114-.038.114.767 0 1.495-.075 2.262-.15-.306.112-.575.187-.805.3 0 0 .038-.037 0-.037l-.537.15c-.038 0-.115.113-.038.113.613.038 1.265-.038 1.917-.113-.115.038-.192.075-.307.113 0 0 .039-.038 0-.038-.115 0-.191.038-.306.038-.077 0-.115.113 0 .113 1.993-.188 3.987-.677 5.981-1.054 1.227-.225 2.454-.414 3.72-.602-1.342 3.425-3.03 6.736-4.41 10.123-.882 2.145-1.84 4.29-2.76 6.397-.653 1.43-1.65 2.935-1.88 4.515-.038.264.307.188.384.038.46-.79.843-1.58 1.265-2.408.115 0 .23-.038.307-.15.153-.264.345-.565.498-.866-.23.602-.345.94-.345.94a177.113 177.113 0 01-1.687 3.99c-.23.488.499.413.652.037.038-.113.115-.264.153-.377-.038.226-.076.452-.115.715-.076.452.499.264.652-.037.039-.113.077-.226.115-.301.115.15.422.037.537-.15 0-.038.038-.038.038-.076.039.038.039.075.077.113 0 .113.077.188.192.188a1.08 1.08 0 00-.077.339c-.077.413.46.188.575-.038.154-.301.269-.602.422-.903.038-.038.077-.075.077-.113.153-.263.268-.49.383-.753.537-.79.959-1.655 1.38-2.558A138.595 138.595 0 007 26.303c-.191.49.499.376.652.038 1.227-2.521 2.186-5.155 3.183-7.752 1.15-2.333 2.147-4.741 3.144-7.15 1.112-2.671 2.492-5.456 3.45-8.24.27-.64.576-1.242.844-1.882.039-.038-.038-.038-.076 0h-.154z" fill="#8D9DF5"/></svg>