<svg width="20" height="29" viewBox="0 0 20 29" fill="none" xmlns="http://www.w3.org/2000/svg"><path d="M16.08 5.205c0 1.016-.537 2.183-1.151 3.274-.077.113-.153.188-.23.301-.69.79-1.572 1.543-2.339 2.107-1.534 1.204-3.566 1.769-5.483 1.242-.077-.037-.153-.037-.23-.075-1.074-.828-1.61-2.258-.997-4.29.844-2.747 3.604-4.14 6.25-4.515 1.687.15 4.371 1.58 3.067 3.574-.038.038.039.076.077.038 1.15-1.28.729-2.258-.307-2.973a.821.821 0 00-.153-.188c.767.414 1.265.94 1.495 1.543v-.038zm.383 4.252c-.039.038-.077.113-.115.151.69-1.091 1.15-2.258 1.342-3.35.038-.375.076-.714.076-1.015.115-1.091-.191-2.183-1.111-3.199-.039-.037-.116 0-.116.076a2.214 2.214 0 00-.46-.377c3.643 1.317 2.3 5.381.422 7.752l-.038-.038zm-3.221 2.183c-.077 0-.154 0-.192.038a10.498 10.498 0 002.684-3.5c.077-.113.154-.188.192-.301-.537 1.355-1.572 2.71-2.684 3.8v-.037zm-2.76 3.16c.306-.187.651-.338.958-.45.575-.114 1.112-.151 1.687-.189l.69.113c-1.074-.075-2.262.15-3.336.527zm-1.65-1.279c-.038.038-.115.076-.153.113-.192.038-.422.038-.613.076 0 0 0-.038.038-.038.422-.075.843-.15 1.265-.301-.115.075-.268.113-.383.188-.039 0-.077.038-.154.038h-.115l.115-.075c0-.038 0 0 0 0zm7.247 5.42c-.498 1.429-1.495 2.596-2.645 3.65-.039.037-.115.075-.154.15 0 0 0 .037-.038.037l-.077.076C11.21 24.17 8.871 25.11 6.61 25.11c-1.496-1.053-1.342-3.612-.844-5.268.498-1.655 2.262-3.537 4.294-4.779 1.112-.451 2.186-.715 3.413-.715 2.646-.037 3.298 2.597 2.607 4.629v-.038zm-.69-4.29c.192.075.345.15.499.225.383.226.69.527.92.903a4.914 4.914 0 01-.384 3.424c.269-.714.384-1.43.307-2.144-.192-1.355-.843-2.108-1.764-2.484.154.038.269.075.422.113v-.038zm1.074 4.966a1 1 0 01-.192.226c.652-1.053.997-2.258.805-3.65.384.94.269 2.107-.613 3.424zm1.879-3.913c.92 2.295-1.342 5.08-3.681 7 .345-.34.651-.678.958-1.017.422-.452.805-.903 1.189-1.392 1.303-1.694 1.879-3.613.767-5.494.345.263.575.602.728.94l.039-.037zm.958 2.145c.038.226.038.451.077.715a6.414 6.414 0 01-1.112 1.806 5.28 5.28 0 00.307-.677c.345-.64.575-1.242.69-1.806l.038-.038zm-3.106 4.365c-.115.15-.268.263-.383.414-.115.113-.268.188-.383.3-.039 0-.077 0-.154.038-.268.151-.575.34-.843.49.843-.602 1.687-1.28 2.415-2.032-.192.263-.422.527-.613.752l-.039.038zm-5.674 4.59c-1.84.64-3.796.866-5.867.377-1.61-.376-2.492-1.317-2.876-2.521.039.113.115.188.192.3.307.603.805 1.13 1.534 1.506 2.415 1.242 4.946 1.129 7.285.188-.077.038-.153.113-.268.15zm-7.9-2.746c.154.3.384.602.691.903.345.338.805.602 1.304.79-.69-.188-1.342-.49-1.88-1.016-.19-.339-.306-.715-.383-1.166v-.151c.077.226.154.452.307.64h-.038zm.921-4.591c.384-.49.805-.94 1.227-1.317-1.074 1.43-1.764 3.048-1.764 4.553a3.488 3.488 0 01-.191-1.129c.115-.715.383-1.43.728-2.107zm1.994-4.741c.115.037.23.037.307.075-.154.113-.307.263-.499.376-.345.264-.69.527-1.035.828.383-.451.767-.903 1.189-1.28h.038zm-1.15-3.086c.383.865 1.112 1.317 1.955 1.505a4.499 4.499 0 01-1.073-.226c-.422-.338-.69-.79-.882-1.279zm2.875 3.951c-.46.301-.92.602-1.342.903-.383.301-.805.678-1.227 1.13a8.81 8.81 0 01.69-.791c.69-.64 1.496-1.242 2.34-1.769h.268c-.23.15-.499.339-.729.527zm-3.029 5.682c-.306 1.468-.076 2.672.575 3.5 0 0-.038 0-.038-.038-.997-.828-1.265-2.295-.728-3.951.575-1.769 1.84-3.35 3.335-4.59v.037c-1.495 1.354-2.684 3.085-3.105 5.042h-.04zm1.112 3.688c-1.035-.94-1.342-2.484-.767-4.365.384-1.317 1.112-2.484 1.994-3.5-1.227 1.543-2.032 3.387-1.917 5.193.077 1.242.422 2.145.959 2.747-.077 0-.154-.038-.269-.038v-.037zm4.026 1.543h.499c-1.304.376-2.723.489-4.218.338-.997-.112-1.764-.414-2.339-.865.268.113.575.188.92.226.767.338 1.649.527 2.493.602.881.075 1.763-.038 2.645-.264v-.037zm-3.796-.189c.46 0 .92 0 1.419-.037.115.038.268.038.383.075a9.546 9.546 0 01-1.802-.038zM4.308 9.457c.038-.15.077-.3.115-.413.038 1.317.652 2.52 1.725 3.198.23.226.537.452.844.602-1.227-.263-2.262-1.016-2.607-2.559-.077-.263-.077-.527-.077-.828zm-1.956 0c0-.188.039-.376.077-.602-.153 1.355.154 2.747 1.227 4.064-.882-.752-1.419-1.919-1.304-3.462zm4.525-4.214c-.345.376-.652.753-.959 1.129-1.188 1.543-1.265 3.424-.536 4.816-.652-.79-.882-1.881-.69-2.935A8.387 8.387 0 015.88 6.297c.307-.377.614-.715.997-1.054zm-2.109-.15c.69-.64 1.495-1.205 2.3-1.694-.958.753-1.801 1.618-2.453 2.559-.422.564-.806 1.129-1.074 1.693.268-.903.69-1.806 1.265-2.559h-.038zM12.59.613a8.792 8.792 0 00-4.87 1.242c-.345.226-.69.49-1.035.753-1.84 1.129-3.412 2.634-4.37 4.177-.04.037.037.037.037.037a11.849 11.849 0 012.991-3.01l-.613.602c-.499.452-.92.866-1.266 1.28C1.97 7.5 1.125 9.72 1.777 12.015c.422 1.43 1.726 2.183 3.144 2.56-.805.752-1.457 1.73-1.917 2.37-.46.602-.805 1.317-1.073 2.032l-.23.451c0 .038.038.038.038 0 .038-.037.077-.075.077-.113a3.09 3.09 0 00-.154.565 7.259 7.259 0 00-.843 3.838c0 .15.191.038.23-.075.038 1.317.498 2.559 1.725 3.311 1.649.979 3.413 1.28 5.215 1.054-.69.263-1.419.489-2.109.602-.153.038-.23.301-.038.263 1.342-.188 2.684-.64 4.026-1.28 3.68-1.09 7.093-3.988 8.934-6.772.153-.226-.115-.34-.269-.15a23.374 23.374 0 01-2.3 2.483c.153-.15.306-.301.421-.452.46-.527.882-1.129 1.266-1.768.613-.64 1.112-1.317 1.457-2.108 0 .113.038.188.038.301.038.301.46.038.46-.15.23-2.409-.191-4.478-2.109-6.096-.805-.678-1.84-1.13-2.952-1.28.92-.79 1.764-1.655 2.492-2.596 1.112-1.43 2.684-4.59 1.112-6.247-1.61-1.73-3.68-2.333-5.828-2.22v.075z" fill="#080C22"/><path d="M17.573 19.769a5.28 5.28 0 00.306-.678c.346-.64.576-1.241.69-1.806.039.226.039.452.077.715a6.414 6.414 0 01-1.112 1.806l.039-.037zm-3.643 2.37c.345-.338.652-.677.959-1.016.421-.451.805-.903 1.188-1.392 1.304-1.693 1.88-3.612.767-5.494.345.264.575.602.729.94.92 2.296-1.342 5.08-3.681 7l.038-.038zm1.534-.489c-.115.15-.269.264-.383.414-.116.113-.269.188-.384.301-.038 0-.077 0-.153.038-.269.15-.575.338-.844.489.844-.602 1.687-1.28 2.416-2.032-.192.263-.422.527-.614.753l-.038.037zm-2.8.377c-.037.037-.114.075-.152.15 0 0 0 .038-.039.038l-.077.075c-1.955 1.317-4.294 2.258-6.556 2.258-1.496-1.054-1.342-3.613-.844-5.268.499-1.656 2.262-3.538 4.295-4.78 1.112-.451 2.185-.714 3.412-.714 2.646-.038 3.298 2.596 2.607 4.628-.498 1.43-1.495 2.596-2.645 3.65v-.038zM9.79 26.24c-1.84.64-3.796.866-5.866.376-1.61-.376-2.493-1.317-2.876-2.52.038.112.115.187.192.3.306.602.805 1.13 1.533 1.505 2.416 1.242 4.947 1.13 7.285.188-.076.038-.153.113-.268.151zm-7.9-2.746c.154.301.384.602.69.903.346.339.806.602 1.304.79-.69-.188-1.342-.489-1.879-1.016-.191-.338-.306-.715-.383-1.128 0-.038 0-.113-.038-.151.076.226.153.452.306.64v-.038zm.92-4.59c.384-.49.806-.904 1.228-1.318-1.074 1.43-1.764 3.048-1.764 4.516a3.488 3.488 0 01-.192-1.13c.115-.714.384-1.429.729-2.106v.037zm1.994-4.742c.116.037.23.037.307.075-.153.113-.307.264-.498.377-.345.263-.69.526-1.036.827.384-.451.767-.903 1.19-1.28h.037zm-1.15-3.086c.384.866 1.112 1.317 1.956 1.505a4.499 4.499 0 01-1.074-.225c-.422-.339-.69-.79-.882-1.28zm-.076-2.145l.115-.451c.038 1.317.651 2.521 1.725 3.198.23.226.537.452.844.602-1.227-.263-2.263-1.016-2.608-2.558-.076-.264-.076-.527-.076-.79zm-1.956 0c0-.188.038-.376.077-.602-.154 1.355.153 2.747 1.227 4.064-.882-.752-1.419-1.919-1.304-3.462zm2.416-4.365c.69-.64 1.495-1.204 2.3-1.693-.958.753-1.802 1.618-2.454 2.559-.422.564-.805 1.129-1.073 1.693.268-.94.69-1.806 1.265-2.559h-.038zm.613 6.096c-.652-.79-.882-1.881-.69-2.935A8.388 8.388 0 015.15 5.771c.306-.377.613-.715.996-1.054-.345.376-.651.752-.958 1.129-1.189 1.543-1.265 3.424-.537 4.816zm1.84 4.365c-.46.301-.92.603-1.341.904-.384.3-.806.677-1.227 1.128.268-.338.498-.602.69-.79.69-.64 1.495-1.242 2.339-1.768h.268c-.23.15-.498.338-.728.526zM3.463 20.71c-.306 1.468-.076 2.672.576 3.5 0 0-.039 0-.039-.038-.997-.827-1.265-2.295-.728-3.95.575-1.77 1.84-3.35 3.336-4.591v.037C5.11 17.022 3.923 18.753 3.5 20.71h-.039zm1.112 3.688c-1.035-.94-1.342-2.483-.766-4.365.383-1.317 1.112-2.483 1.993-3.5-1.227 1.543-2.032 3.387-1.917 5.194.077 1.241.422 2.144.959 2.746-.077 0-.154-.037-.269-.037v-.038zM8.6 25.94h.5c-1.304.376-2.722.49-4.218.339-.997-.113-1.764-.414-2.339-.866a3.3 3.3 0 00.92.226c.767.339 1.65.527 2.493.602.882.075 1.764-.038 2.645-.263v-.038zm-3.796-.188c.46 0 .92 0 1.42-.038.114.038.268.038.383.076a9.547 9.547 0 01-1.803-.038zm3.221-12.794c-.038.037-.115.075-.153.113-.192.037-.422.037-.614.075 0 0 0-.038.039-.038.422-.075.843-.15 1.265-.3-.115.075-.268.112-.383.187-.039 0-.077.038-.154.038H7.91l.115-.075c0-.038 0 0 0 0zm3.106-10.31c1.687.15 4.371 1.58 3.068 3.574-.039.038.038.075.076.038 1.15-1.28.729-2.258-.306-2.973a.821.821 0 00-.154-.188c.767.414 1.266.94 1.495 1.543 0 1.016-.536 2.182-1.15 3.273-.076.113-.153.189-.23.301-.69.79-1.572 1.543-2.339 2.108-1.534 1.204-3.566 1.768-5.483 1.242-.077-.038-.153-.038-.23-.076-1.074-.828-1.61-2.258-.997-4.29.844-2.747 3.604-4.139 6.25-4.515v-.038zm4.525 6.246c-.039.037-.077.113-.115.15.69-1.091 1.15-2.257 1.342-3.349.038-.376.076-.715.076-1.016.115-1.091-.191-2.182-1.112-3.198-.038-.038-.115 0-.115.075-.153-.15-.268-.263-.46-.376 3.643 1.317 2.3 5.38.422 7.751l-.038-.037zm-3.221 2.182c-.077 0-.154 0-.192.038a10.499 10.499 0 002.684-3.5c.077-.113.154-.188.192-.3-.537 1.354-1.572 2.709-2.684 3.8v-.038zm-.115 2.521c.23.038.46.038.69.113-1.074-.075-2.262.15-3.336.527.307-.188.652-.338.959-.451.575-.113 1.112-.15 1.687-.188zm3.91 2.07c.384.94.27 2.107-.613 3.424-.038.076-.115.15-.191.226.651-1.053.996-2.258.805-3.65zm-.344.79c-.192-1.354-.844-2.107-1.764-2.483.153.037.268.075.422.113.191.075.345.15.498.225.384.226.69.527.92.904.307 1.279.115 2.408-.383 3.424.268-.715.383-1.43.307-2.183zm1.073-4.101c-.805-.678-1.84-1.13-2.952-1.28.92-.79 1.764-1.655 2.492-2.596 1.112-1.43 2.684-4.591 1.112-6.247-1.61-1.73-3.68-2.333-5.828-2.22a8.792 8.792 0 00-4.87 1.242c-.345.226-.69.49-1.035.753-1.84 1.128-3.412 2.634-4.371 4.176-.038.038.038.038.038.038a11.849 11.849 0 012.991-3.01l-.613.602c-.499.451-.92.865-1.266 1.28C1.162 6.898.318 9.12.97 11.414c.422 1.43 1.726 2.183 3.144 2.559-.805.752-1.457 1.73-1.917 2.37-.46.602-.805 1.317-1.073 2.032l-.23.452c0 .038.038.038.038 0 .038-.038.076-.075.076-.113a3.09 3.09 0 00-.153.565 7.259 7.259 0 00-.843 3.838c0 .15.191.037.23-.075.038 1.317.498 2.558 1.725 3.31 1.649.98 3.413 1.28 5.215 1.055-.69.263-1.419.489-2.11.602-.152.037-.23.3-.037.263 1.342-.188 2.684-.64 4.026-1.28 3.68-1.09 7.093-3.988 8.934-6.773.153-.226-.116-.338-.269-.188a23.375 23.375 0 01-2.3 2.484c.153-.15.306-.301.421-.452.46-.527.882-1.129 1.266-1.768.613-.64 1.112-1.317 1.457-2.108 0 .113.038.188.038.301.038.301.46.038.46-.15.23-2.408-.192-4.478-2.109-6.096v.113z" fill="#8D9DF5"/></svg>