<svg width="20" height="28" viewBox="0 0 20 28" fill="none" xmlns="http://www.w3.org/2000/svg"><path d="M17.562 16.52c.039-.075.039-.15.077-.188-.038.264-.077.49-.115.753-.153.527-.345 1.016-.537 1.505.23-.677.422-1.355.575-2.07zm-.652-5.644c.116-.301.23-.564.307-.866v.49c-.076.225-.191.451-.268.677 0-.113-.039-.188-.039-.301zm-.038 2.935c0-.451-.038-.903-.077-1.317.039-.075.077-.113.115-.188 0 .489 0 1.016-.038 1.505zm-.153 7.112c-.384.753-.882 1.355-1.457 1.92.153-.189.268-.377.383-.565a14.39 14.39 0 001.227-1.882c-.038.188-.115.377-.153.565v-.038zm-.23.79a10.31 10.31 0 01-2.148 2.484c-.23.15-.498.3-.766.414l.23-.226a7.415 7.415 0 002.76-2.973c-.038.113-.038.188-.076.301zm.153-11.853a15.185 15.185 0 01-2.569 3.913c-.192.15-.383.264-.575.377.882-.828 1.572-1.844 2.07-2.898 1.42-2.521 1.726-5.268-.46-7.902 0 0-.038 0-.038.038 1.265 1.806 1.495 3.537 1.074 5.23v-.414c.076-.865 0-1.73-.23-2.559-.384-1.505-1.304-2.408-2.378-2.822.192.038.422.075.614.113.613.15 1.112.339 1.534.602 1.342 1.656 1.533 4.102.996 6.36l-.038-.038zm-3.412 3.876a7 7 0 01-1.803 1.166 4.11 4.11 0 00.844-.564c.115-.113.077-.301-.115-.188-.614.376-1.265.715-1.917.94-.192 0-.345 0-.537-.037.307-.076.652-.15.959-.301.038-.038.076-.075.076-.113 1.189-.301 2.3-1.016 3.336-1.957-.23.339-.498.64-.767.979-.038.037-.038.075-.038.075h-.039zm-2.454 2.182h-.039c.46-.188.882-.414 1.304-.677.153-.075.307-.113.46-.188-.575.376-1.15.677-1.764.865h.039zm-2.723.038c.154 0 .345-.038.499-.075.23 0 .46.037.69 0 .575-.038 1.15-.113 1.687-.301a6.255 6.255 0 01-2.876.338v.038zm-.958-.715c-.729-.226-1.342-.527-1.84-.94a3.806 3.806 0 01-.23-.415c.766.753 1.801 1.204 2.913 1.28.307.113.614.226.92.263h-.076a6.78 6.78 0 01-1.726-.226l.039.038zm-.499.339a3.425 3.425 0 01-.728-.565c.383.226.805.452 1.227.602-.192 0-.345-.037-.537-.037h.038zm2.684-.79c-.192.037-.422.037-.613.037-.345-.075-.69-.226-.997-.339h.038c.537.189 1.035.301 1.572.301zm4.448-11.14c.192.113.383.263.575.376a3.94 3.94 0 011.189 1.769c-.46-.94-1.036-1.656-1.726-2.145h-.038zm1.112 7c.422-.753.69-1.581.69-2.41 0 .565-.038 1.13-.192 1.657a5.373 5.373 0 01-.536.752h.038zm-2.838 2.294c.039-.037.077-.075.039-.15 1.649-1.091 2.76-2.86 3.029-4.741-.077 1.505-.805 2.822-1.802 3.913-.039 0-.077 0-.115.038a7.01 7.01 0 01-1.189.903l.038.037zm1.036-.112a10.664 10.664 0 002.07-2.07 2.58 2.58 0 01-.191.49c-.039 0-.077.037-.115.075-1.227 1.279-2.34 2.408-4.103 2.935-.46.15-.92.15-1.419.113.345-.076.69-.151 1.035-.264a5.41 5.41 0 001.304-.49c0 .076.077.151.23.076a12.45 12.45 0 001.112-.865h.077zm-7.554-6.21c1.38-2.596 5.637-4.853 8.167-2.295.652.678 1.304 1.844 1.304 2.785.038 1.166-.422 2.37-1.074 3.311-.882 1.28-2.3 2.597-3.91 2.898a2.28 2.28 0 01-.5.075c-1.993.188-4.064-.903-4.524-2.935-.268-1.28-.115-2.71.499-3.838h.038zm-.268-.677c.23-.263.422-.526.652-.752-.077.075-.115.15-.192.226a2.943 2.943 0 00-.422.677l-.69 1.016c.192-.376.383-.79.613-1.167h.039zm-.92.264c.536-1.054 1.303-1.806 2.147-2.559a14.014 14.014 0 014.563-1.656c.651-.113 1.265-.113 1.878.038.077.038.192.113.269.15a8.412 8.412 0 00-2.57.076h-.114s-.038.037 0 .037h.038c-.46.076-.882.189-1.304.339-1.648.339-3.22 1.317-4.37 2.822-.192.226-.346.49-.5.715l-.037.038zM2.378 7.263c0 .038-.038.038-.038.076-.69 1.543-1.189 3.65-.268 5.193.076.263.191.526.268.79a5.511 5.511 0 01-.652-.903 6.698 6.698 0 01-.422-2.37c0-2.56 1.38-4.93 3.375-6.586.268-.226.536-.414.805-.602a9.8 9.8 0 00-.575.64A9.747 9.747 0 002.3 7.339l.077-.076zm.537-.376c-.307.678-.537 1.58-.652 2.597a7.197 7.197 0 01.729-2.898 5.69 5.69 0 01.383-.64c-.191.377-.345.715-.46.941zM.998 10.2c-.115-1.393.345-2.785 1.15-4.064a9.87 9.87 0 00-1.15 3.913v.15zM7.21 2.936c1.112-.715 2.492-1.28 3.757-1.355-1.342.189-2.722.79-3.95 1.506l.154-.15h.039zm9.777 9.106c.077-.112.154-.225.192-.338 0 1.129-.077 2.295-.23 3.424.076-1.016.076-2.07.038-3.086zm-.498-7.6c.537.827.767 1.73.767 2.633-.154-1.09-.46-2.07-.92-2.86.038.076.114.151.153.226zM6.48 23.556c1.074.866 2.34 1.204 3.643 1.129-1.457.226-2.684-.263-3.643-1.129zm10.2-20.47C14.455-.338 8.666.189 5.522 2.485c-.039.037-.077.037-.116.075H5.37C2.57 4.328.27 7.263.806 10.613a6.573 6.573 0 00.959 2.596c.575 1.016 1.457 1.881 2.377 2.559 1.534 1.73 4.793 1.806 6.787.903 1.073-.49 2.109-1.129 2.99-1.92 1.228-.978 2.225-2.22 2.8-3.65 0-.037.038-.075.038-.112v-.038c0 .113 0 .188.038.301a10.831 10.831 0 01-2.339 3.199c-.191.188 0 .451.23.3a9.263 9.263 0 001.764-1.918 24.175 24.175 0 01-.153 4.402c-.23.941-.498 1.882-.844 2.785-1.111 1.806-2.492 3.311-4.179 4.327-2.262.715-4.87-.451-6.135-2.333-.192-.3-.345-.64-.498-.978-.039-.113-.23.037-.192.113.498 1.43 1.189 2.521 2.185 3.236a5.607 5.607 0 01-2.722-3.725c0-.076-.077 0-.077.037.077.903.346 1.731.767 2.37-.537-.714-.92-1.542-.958-2.257 0-.037-.077 0-.077 0a2.41 2.41 0 00-.077.903c-.076-.226-.115-.451-.191-.677 0-.075-.115 0-.115.037 0 .264 0 .565.038.828 0-.037-.038-.037-.038-.075s-.039 0-.039.038l.115.226c.039.338.154.677.269 1.015a6.606 6.606 0 01-.537-.865c0-.038-.077 0-.077.038.154.414.345.79.575 1.166a5.881 5.881 0 01-.882-1.28c-.038-.037-.076 0-.076.038.038.113.076.226.115.301-.039-.112-.115-.263-.154-.376-.038-.075-.115 0-.115.075.154 1.167.576 2.108 1.189 2.86 0 0-.038 0-.038-.037-.039-.038-.115.037-.077.075.192.15.422.339.613.49.806.714 1.803 1.166 2.876 1.467.077 0 .154.037.192.037 1.61.377 3.413.301 4.985-.15 0 .075.038.113.115.075.23-.113.421-.226.651-.339.882-.338 1.65-.865 2.301-1.467 1.342-1.054 2.262-2.333 2.99-3.989 1.42-2.747 1.995-6.058 1.688-8.918 0-.038-.077 0-.077.038 0 .865-.077 1.768-.23 2.709v-.264c.499-4.553-.307-9.633-2.799-12.869 0 0-.038 0-.038.038.306.564.537 1.129.767 1.693-.154 0-.346.188-.307.339l.077.376s0-.038-.039-.038a9.274 9.274 0 00-.652-1.204l.115-.037z" fill="#080C22"/><path d="M16.834 16.482c-.153.527-.345 1.016-.537 1.505.23-.677.422-1.355.576-2.07.038-.075.038-.15.076-.188-.038.264-.076.49-.115.753zm-.613-6.209c.115-.301.23-.564.306-.865v.489c-.076.226-.191.451-.268.677 0-.113-.038-.188-.038-.301zm-.039 2.935c0-.451-.038-.903-.076-1.317.038-.075.076-.113.115-.188 0 .49 0 1.016-.039 1.505zm-.153 7.112c-.383.753-.882 1.355-1.457 1.92.115-.189.268-.377.384-.565a14.4 14.4 0 001.226-1.882c-.038.188-.115.377-.153.565v-.038zm-.23.79a10.31 10.31 0 01-2.147 2.484 5.1 5.1 0 01-.767.414 1.01 1.01 0 01.23-.188 7.415 7.415 0 002.76-2.973c-.038.113-.038.188-.076.3v-.037zm.153-11.853a15.188 15.188 0 01-2.569 3.914 5 5 0 01-.575.376c.882-.828 1.572-1.844 2.07-2.898 1.42-2.52 1.726-5.268-.46-7.902 0 0-.038 0-.038.038 1.266 1.806 1.496 3.537 1.074 5.23v-.414a7.18 7.18 0 00-.23-2.559c-.384-1.505-1.304-2.408-2.377-2.822.191.038.421.075.613.113.614.15 1.112.339 1.534.602 1.342 1.656 1.534 4.102.997 6.36l-.039-.038zm-3.412 3.876a7.011 7.011 0 01-1.802 1.166c.306-.15.575-.338.843-.564.115-.113.077-.301-.115-.188-.613.376-1.265.715-1.917.94-.192 0-.345 0-.537-.037.307-.075.652-.15.959-.301.038-.038.076-.075.076-.113 1.19-.301 2.301-1.016 3.336-1.957-.23.339-.498.64-.766.979-.039.037-.039.075-.039.075h-.038zm-2.454 2.182h-.039c.46-.188.882-.414 1.304-.677.154-.075.307-.113.46-.188-.575.376-1.15.677-1.764.865h.039zm-2.723.038c.154 0 .346-.038.499-.075.23 0 .46.037.69 0 .575-.038 1.15-.113 1.687-.301a6.256 6.256 0 01-2.876.338v.038zm-.958-.715c-.729-.226-1.342-.527-1.84-.94a4.084 4.084 0 01-.23-.415c.766.753 1.802 1.205 2.913 1.28.307.113.614.226.92.263h-.076c-.575 0-1.15-.075-1.725-.226l.038.038zm-.499.339a3.426 3.426 0 01-.728-.565c.383.226.805.452 1.227.602-.192 0-.345-.037-.537-.037h.038zm2.684-.79c-.191.037-.421.037-.613.037-.345-.075-.69-.226-.997-.339h.038c.537.189 1.036.302 1.572.302zm4.448-11.139c.192.113.384.264.575.376a3.94 3.94 0 011.19 1.769c-.461-.94-1.036-1.656-1.726-2.145h-.039zm1.112 7c.422-.753.69-1.581.69-2.41 0 .565-.038 1.13-.191 1.657a5.38 5.38 0 01-.537.752h.038zm-2.837 2.295c.038-.038.076-.076.038-.15 1.649-1.092 2.76-2.86 3.03-4.742-.077 1.505-.806 2.822-1.803 3.913-.038 0-.076 0-.115.038-.345.339-.767.64-1.188.903l.038.038zm1.035-.113a10.664 10.664 0 002.07-2.07c-.038.15-.114.339-.191.49-.038 0-.077.037-.115.075-1.227 1.279-2.339 2.408-4.103 2.935-.46.15-.92.15-1.419.113.346-.076.69-.151 1.036-.264.46-.113.882-.263 1.303-.49 0 .076.077.152.23.076.384-.263.767-.564 1.112-.865h.077zM4.794 6.02c1.38-2.596 5.637-4.853 8.168-2.295.651.678 1.303 1.844 1.303 2.785.039 1.167-.421 2.37-1.073 3.311-.882 1.28-2.3 2.597-3.911 2.898a2.285 2.285 0 01-.499.075c-1.994.188-4.064-.903-4.524-2.935-.269-1.28-.115-2.71.498-3.838h.038zm-.268-.676c.23-.264.422-.527.652-.753-.077.075-.115.15-.192.226a2.943 2.943 0 00-.422.677l-.69 1.016c.192-.376.384-.79.614-1.167h.038zm-.92.263C4.143 4.553 4.91 3.8 5.753 3.048a14.014 14.014 0 014.563-1.656c.652-.112 1.265-.112 1.879.038.076.038.191.113.268.15a8.411 8.411 0 00-2.569.076H9.78s-.038.037 0 .037h.038c-.46.076-.881.189-1.303.34-1.649.338-3.221 1.316-4.371 2.821-.192.226-.345.49-.499.715l-.038.038zM1.689 6.66c0 .037-.039.037-.039.075-.69 1.543-1.188 3.65-.268 5.193.077.263.192.527.268.79a5.512 5.512 0 01-.65-.902 6.698 6.698 0 01-.422-2.37c0-2.56 1.38-4.93 3.374-6.586.268-.226.537-.414.805-.602-.192.188-.383.414-.575.64a9.747 9.747 0 00-2.569 3.838l.077-.075zm.536-.377c-.306.678-.536 1.58-.651 2.597a7.197 7.197 0 01.728-2.898 5.64 5.64 0 01.384-.64c-.192.377-.345.715-.46.941zM.308 9.596C.193 8.203.653 6.81 1.458 5.532a9.87 9.87 0 00-1.15 3.913v.15zM6.52 2.333c1.112-.715 2.492-1.28 3.758-1.355-1.342.189-2.723.79-3.95 1.506l.154-.15h.038zm9.777 9.107a1.48 1.48 0 00.192-.34c0 1.13-.076 2.296-.23 3.425a27.38 27.38 0 00.038-3.085zM15.8 3.838c.537.828.767 1.731.767 2.634-.153-1.09-.46-2.07-.92-2.86.038.076.115.151.153.226zM5.791 22.954c1.074.866 2.34 1.204 3.643 1.13-1.457.225-2.684-.264-3.643-1.13zM19.25 11.665c0-.037-.077 0-.077.038 0 .865-.076 1.769-.23 2.672v-.264c.499-4.553-.307-9.633-2.799-12.87 0 0-.038 0-.038.038.306.565.537 1.13.767 1.694-.154 0-.346.188-.307.339l.077.376s0-.038-.039-.038a9.274 9.274 0 00-.652-1.204C13.73-.978 7.94-.451 4.794 1.844c-.038.038-.076.038-.115.075h-.038C1.842 3.688-.459 6.623.078 9.972a6.573 6.573 0 00.959 2.596c.575 1.016 1.457 1.882 2.377 2.56 1.534 1.73 4.793 1.805 6.787.902 1.073-.489 2.109-1.129 2.99-1.919 1.228-.978 2.225-2.22 2.8-3.65 0-.037.038-.075.038-.113v-.037c0 .113 0 .188.038.3a10.833 10.833 0 01-2.338 3.2c-.192.187 0 .45.23.3a9.255 9.255 0 001.763-1.919 24.158 24.158 0 01-.153 4.403c-.23.94-.499 1.881-.844 2.784-1.112 1.807-2.492 3.312-4.179 4.328-2.262.715-4.87-.452-6.135-2.333-.192-.301-.345-.64-.498-.979-.039-.113-.23.038-.192.113.498 1.43 1.189 2.521 2.185 3.236a5.607 5.607 0 01-2.722-3.725c0-.075-.077 0-.077.038.077.903.345 1.73.767 2.37-.537-.715-.92-1.543-.958-2.257 0-.038-.077 0-.077 0-.077.3-.115.602-.077.903-.076-.226-.115-.452-.191-.678 0-.075-.115 0-.115.038 0 .263 0 .564.038.828 0-.038-.038-.038-.038-.075 0-.038-.039 0-.039.037l.115.226c.039.339.154.677.269 1.016a6.608 6.608 0 01-.537-.866c0-.037-.077 0-.077.038.154.414.345.79.575 1.167a5.882 5.882 0 01-.882-1.28c-.038-.037-.076 0-.076.038.038.113.076.226.115.3-.039-.112-.115-.262-.154-.375-.038-.076-.115 0-.115.075.154 1.166.575 2.107 1.189 2.86l-.038-.038c-.039-.038-.115.038-.077.075.192.15.422.339.613.49.806.714 1.803 1.166 2.876 1.467.077.038.154.038.192.038 1.61.376 3.412.3 4.984-.15 0 .075.039.112.116.075.23-.113.421-.226.651-.34.882-.338 1.65-.865 2.301-1.467 1.342-1.053 2.262-2.333 2.99-3.988 1.42-2.747 1.995-6.059 1.688-8.919h.115z" fill="#8D9DF5"/></svg>