<svg xmlns="http://www.w3.org/2000/svg" fill="none" viewBox="0 0 50 50"><path fill="#080C22" d="M4.8 16.83l-1.4-.43a23.17 23.17 0 0143.68 1.33.8.8 0 101.53-.49 24.77 24.77 0 00-46.74-1.32l-1.51-.47L0 24.41l4.8-7.58zm41.8 16.34a23.17 23.17 0 01-43.73-1.5.8.8 0 00-1.53.48 24.77 24.77 0 0046.79 1.5l1.51.46.36-8.96-4.79 7.58 1.4.44z"/><path fill="#080C22" d="M21.7 15.37a2.3 2.3 0 100 4.62 2.3 2.3 0 000-4.62zm0 3.46a1.15 1.15 0 110-2.3 1.15 1.15 0 010 2.3zm6.6-3.46a2.3 2.3 0 100 4.62 2.3 2.3 0 000-4.62zm0 3.46c-.63 0-1.15-.52-1.15-1.15a1.15 1.15 0 111.15 1.15z"/><path fill="#080C22" d="M35.34 18.03a3.21 3.21 0 00-2.73-2.61c-.38-1.41-1.48-2.61-3.68-2.61h-3.35v-1.27a1.92 1.92 0 10-1.15 0v1.24h-3.34c-1.56 0-3.2.71-3.7 2.6a3.21 3.21 0 00-.13 6.35v.03c.17 2.53 2.05 3.46 3.82 3.46h7.85c2.63 0 3.69-1.73 3.82-3.46a3.21 3.21 0 002.59-3.73zm-18.1 2.58a2.05 2.05 0 010-3.95v3.95zm7-10.87a.77.77 0 111.53 0 .77.77 0 01-1.53 0zm7.37 11.6c0 1.01-.35 2.7-2.68 2.7h-7.84c-1 0-2.7-.36-2.7-2.7v-4.68c0-2.34 1.69-2.69 2.69-2.69h7.85c2.34 0 2.68 1.69 2.68 2.7v4.68zm1.14-.77v-3.95a2.06 2.06 0 011.48 1.97c0 .92-.6 1.72-1.48 1.98z"/><path fill="#080C22" d="M28.3 21.55h-6.6a.58.58 0 000 1.16h6.6a.58.58 0 000-1.16zm9.54 4.75a2.24 2.24 0 00-4.42-.48l-1.54.3H18.13l-1.54-.3a2.24 2.24 0 10-2.76 2.64v4.31a2.24 2.24 0 00-1.66 2.15v1.02a.58.58 0 001.15 0v-1.02a1.08 1.08 0 012.17 0v1.02a.58.58 0 001.15 0v-1.02c0-1.01-.68-1.9-1.66-2.16v-4.3c.74-.2 1.32-.76 1.55-1.48l.96.19v7.12c0 1.04.22 2.07.65 3.03v.05a7.5 7.5 0 0013.67 0l.03-.07c.43-.94.66-1.97.66-3.01v-7.12l.97-.2c.23.73.81 1.29 1.54 1.48v4.31a2.24 2.24 0 00-1.66 2.16v1.02a.58.58 0 001.16 0v-1.02a1.08 1.08 0 012.16 0v1.02a.58.58 0 001.16 0v-1.02c0-1.01-.69-1.9-1.66-2.16v-4.3a2.24 2.24 0 001.67-2.16zm-23.43 1.1a1.08 1.08 0 110-2.17 1.08 1.08 0 010 2.17zM25 40.64a6.35 6.35 0 01-5.37-2.95h10.72A6.35 6.35 0 0125 40.64zm6.34-6.35c0 .77-.15 1.53-.42 2.25H19.07a6.34 6.34 0 01-.42-2.25v-7.02h12.7v7.02zm4.26-6.9l-.02-.02a1.08 1.08 0 111.08-1.09c.01.6-.46 1.1-1.06 1.1z"/><path fill="#080C22" d="M27.04 31.34a.58.58 0 00-.38-.15h-1.73l2.12-2.18a.58.58 0 00-.82-.8l-3.08 3.16a.58.58 0 00.42.98h1.77l-2.18 2.44a.58.58 0 00.85.77l3.08-3.4c.2-.24.2-.6-.05-.82z"/></svg>