<svg width="18" height="12" viewBox="0 0 18 12" fill="none" xmlns="http://www.w3.org/2000/svg"><path d="M8.84 2.799c.345-.038.69-.076 1.035-.151a78.55 78.55 0 00-2.914.527l1.726-.339c.038 0 .115 0 .153-.037zm-6.863.413v-.037c-.23.075-.154.037-.384.15-.038 0-.076.113 0 .113h.767c-.153.076-.307.15-.383.226.038-.038 0-.075-.039-.038-.038.038-.076.038-.076.076-.039.037-.039.075 0 .075h.613a7.312 7.312 0 00-.958.414c-.192.075-.46.602-.077.602.46-.038.92-.075 1.38-.15a.843.843 0 00-.191.112c-.154.076-.307.527 0 .527.268 0 .498-.038.766-.075-.153.15-.191.414.077.376h.038c-.191.15-.306.565.039.49 2.837-.716 5.828-1.205 8.704-1.882 1.649-.264 3.297-.527 4.946-.677.077 0 .192-.226.038-.226-.536 0-1.112.037-1.687.075.46-.113.882-.263 1.342-.414.192-.075.384-.527.077-.527h-.46c.153-.037.345-.037.498-.075.307-.038.499-.64.077-.602l-1.495.226c-.537.037-1.074.113-1.65.15a38.454 38.454 0 003.145-.677c.23-.075.575-.64.153-.64h-.076c-.384.038-.729.075-1.112.113.038-.15.038-.263-.192-.263C13.288.54 10.681 1.18 8.15 1.67c-1.956.338-4.41.64-6.135 1.618l-.038-.076zm5.903 6.02c-1.226.264-2.415.527-3.642.678 1.189-.34 2.492-.527 3.643-.678zm8.321-3.424c-2.722-.15-5.521.564-8.167 1.053-2.07.377-4.64.715-6.518 1.694v-.038c-.23.075-.154.038-.422.15-.038 0-.077.114 0 .114h.805c-.192.075-.307.15-.422.225.039-.037 0-.075-.038-.037-.038.037-.077.037-.077.075-.038.038-.038.075 0 .075h.652L.98 9.571c-.192.075-.499.64-.077.64.499-.038.997-.076 1.457-.151l-.23.113c-.153.113-.307.564 0 .527a23.684 23.684 0 003.22-.452c-.766.188-1.533.452-2.223.715-.23.113-.383.64 0 .565 4.678-1.13 9.624-1.844 14.187-3.312.23-.075.422-.564.077-.564h-.499c.192-.038.345-.038.537-.076.345-.037.537-.677.077-.64l-2.186.34c-1.955.3-3.95.526-5.905.827-1.917.301-3.834.79-5.751 1.092 1.649-.452 3.374-.753 4.946-1.092.038 0 .115-.037.153-.037 2.838-.377 5.944-.715 8.704-1.468.23-.075.614-.677.154-.677h-.077l-1.15.113c.038-.15.038-.264-.192-.301v.075z" fill="#080C22"/><path d="M7.996 2.233c.039 0 .115 0 .154-.037.345-.038.69-.076 1.035-.15-.959.15-1.956.338-2.914.526l1.725-.339zm8.36-1.129l-1.496.226c-.537.038-1.074.113-1.649.15a38.44 38.44 0 003.144-.677c.23-.075.575-.64.154-.64h-.077c-.383.038-.729.076-1.112.114.038-.151.038-.264-.192-.264C12.56-.1 9.952.54 7.421 1.03c-1.955.339-4.41.64-6.135 1.618V2.61c-.23.075-.153.037-.383.15-.038 0-.077.113 0 .113h.767c-.154.075-.307.15-.384.226.039-.038 0-.076-.038-.038s-.077.038-.077.075c-.038 0-.038.076 0 .076h.614a7.312 7.312 0 00-.959.414c-.192.075-.46.602-.077.602.46-.038.92-.076 1.38-.15a.841.841 0 00-.19.112c-.154.075-.308.527 0 .527.268 0 .498-.038.766-.075-.153.15-.192.413.077.376h.038c-.192.15-.307.564.038.489 2.838-.715 5.829-1.204 8.704-1.881 1.65-.264 3.298-.527 4.947-.678.076 0 .191-.226.038-.226-.537 0-1.112.038-1.687.076.46-.113.882-.264 1.342-.414.191-.075.383-.527.076-.527h-.46c.154-.038.345-.038.499-.075.307-.038.498-.64.076-.602l-.038-.076zM3.548 9.307c1.188-.339 2.492-.527 3.642-.678-1.227.264-2.415.527-3.642.678zm13.266-2.935l-2.185.338c-1.956.301-3.95.527-5.905.828-1.917.301-3.834.79-5.752 1.091 1.65-.451 3.375-.752 4.947-1.09.038 0 .115-.039.153-.039 2.838-.376 5.943-.714 8.704-1.467.23-.075.614-.677.153-.677h-.076l-1.15.112c.038-.15.038-.263-.192-.3-2.723-.151-5.522.564-8.167 1.053-2.071.376-4.64.715-6.519 1.693v-.037c-.23.075-.153.037-.422.15-.038 0-.076.113 0 .113h.806c-.192.075-.307.15-.422.226.038-.038 0-.075-.038-.038l-.077.076c-.039.037-.039.075 0 .075h.652L.288 8.93c-.191.076-.498.64-.076.64.498-.038.997-.075 1.457-.15l-.23.112c-.154.113-.307.565 0 .527a23.683 23.683 0 003.22-.451c-.766.188-1.533.451-2.223.715-.23.113-.384.64 0 .564 4.677-1.129 9.624-1.844 14.187-3.311.23-.076.421-.565.076-.565h-.498c.192-.037.345-.037.537-.075.345-.075.536-.677.076-.64v.076z" fill="#8D9DF5"/></svg>