<svg width="20" height="8" viewBox="0 0 20 8" fill="none" xmlns="http://www.w3.org/2000/svg"><path d="M2.033 8c4.235 0 8.544-.737 12.778-1.403 1.523 0 3.306-.035 4.198-.632.148-.105.223-.386.111-.456.186-.035.335-.035.52-.07.298-.035.558-.632.149-.632-.743 0-1.486.035-2.192.105.52-.105 1.003-.175 1.523-.28.446-.105.78-.702.52-.947.409-.421.52-1.158-.297-1.088-1.82.175-3.677.35-5.497.526.148-.035.26-.07.408-.07a89.016 89.016 0 005.238-.667c.26-.035.52-.561.148-.596-2.823-.07-5.869.596-8.655 1.017-1.151.176-2.377.351-3.603.527 2.08-.492 4.235-.948 6.352-1.263 1.672-.106 3.306-.246 4.94-.421.52-.07 1.04-1.123.298-1.123-1.375 0-2.749.14-4.16.35-1.56.106-3.158.246-4.718.422-1.597.175-3.195.42-4.792.666-.817.14-1.671.386-2.526.597a15.43 15.43 0 00-1.783.21c-.223.035-.52.492-.148.527.965.14 2.006.035 3.12-.106-.706.176-1.412.421-2.08.667-.372.14-.595.982 0 .842h.037c-.037 0-.037 0-.074.035-.446.175-.966 1.158-.149 1.228.557.07 1.114.035 1.709 0-.037.316.111.561.594.526.372-.035.78-.07 1.152-.105-.892.21-1.82.35-2.6.246l-.038.035a.65.65 0 00.186.07c-.186.105-.26.456.037.456 1.709-.14 3.455-.246 5.2-.35a156.28 156.28 0 01-5.683.63C2.033 7.51 1.773 8 2.108 8h-.075z" fill="#080C22"/><path d="M19.12 4.28c-.742 0-1.485.035-2.191.106.52-.106 1.003-.176 1.523-.281.446-.105.78-.702.52-.947.409-.421.52-1.158-.297-1.088-1.82.175-3.678.35-5.498.526.149-.035.26-.07.409-.07a88.992 88.992 0 005.237-.666c.26-.036.52-.562.149-.597-2.823-.07-5.869.597-8.655 1.018-1.152.175-2.377.35-3.603.526 2.08-.491 4.234-.947 6.352-1.263a112.17 112.17 0 004.94-.421c.52-.07 1.04-1.123.297-1.123-1.374 0-2.748.14-4.16.35-1.56.106-3.157.246-4.717.422-1.598.175-3.195.42-4.792.666-.817.14-1.672.386-2.526.597-.595.035-1.189.105-1.783.21-.223.036-.52.492-.149.527.966.14 2.006.035 3.12-.106-.705.176-1.411.421-2.08.667-.371.14-.594.982 0 .842h.037c-.037 0-.037 0-.074.035-.446.176-.966 1.158-.148 1.228.557.07 1.114.035 1.708 0-.037.316.112.562.595.526.371-.035.78-.07 1.151-.105-.891.21-1.82.351-2.6.246l-.037.035c.074.035.148.07.186.07-.186.105-.26.456.037.456 1.708-.14 3.454-.245 5.2-.35a156.3 156.3 0 01-5.683.63c-.223.036-.483.527-.149.527 4.235 0 8.544-.737 12.778-1.403 1.523 0 3.306-.035 4.198-.632.148-.105.223-.386.111-.456.186-.035.334-.035.52-.07.297-.035.558-.632.149-.632h-.074z" fill="#8D9DF5"/></svg>