<svg width="20" height="20" viewBox="0 0 20 20" fill="none" xmlns="http://www.w3.org/2000/svg"><path d="M19.52 9.798c-2.2.159-4.432.35-6.633.603 1.812-.222 3.624-.349 5.404-.603.356-.064.939-.857.388-1.048-.453-.159-1.003-.127-1.553-.064.13-.254.13-.508-.226-.54-1.327-.19-2.75-.063-4.142.16 0-.16-.033-.318-.033-.477 0-1.905.065-3.81.065-5.716 0-.064-.065-.032-.065 0-.064.857-.162 1.715-.226 2.572a110.442 110.442 0 00-.324-3.398c-.032-.317-.518-.032-.518.222v.127c-.064.032-.161.096-.161.16 0 .063-.033.095-.033.158 0-.413 0-.826-.032-1.207-.032-.508-.809-.095-.841.254v.477c-.162-.032-.453.158-.518.317-.13.318-.194.635-.227.985-.064-.604-.194-1.207-.323-1.81 0-.064-.097 0-.097.063v.54c-.13-.222-.518-.064-.583.19a6.303 6.303 0 00-.291 1.557v-.191c0-.159-.194-.127-.291 0 0-.35 0-.699-.033-1.016 0-.064-.097 0-.097.032C8.098 3.637 8.033 5.16 8 6.654l-.096-3.652c0-.159-.227 0-.227.095.033 2.064 0 4.129 0 6.161L5.64 9.64l-2.33.477c-.065 0-2.298.793-1.23.317 0 0 .032-.032 0-.032-.323.064-.615.127-.938.19-.13.033-.292.319-.065.319a27.945 27.945 0 003.624-.16c-.032 0-.064.032-.13.032-.517.127-1.132.255-1.617.445a2.787 2.787 0 00-1.003.413c-.453.063-.906.127-1.262.35-.13.063-.162.317.032.285.388-.095.777-.19 1.197-.286a4.451 4.451 0 00-.647.413c-.194.159-.615.826-.13.953.421.095.81.031 1.23-.032 0 .127.097.254.324.286 1.52.286 3.333 0 5.016-.286.032 1.969.097 3.906.29 5.875.033.222.26.127.39 0 .032.19.096.381.129.572.097.38.582.063.614-.19.033-.223.033-.445.065-.668.033-.222.033-.413.065-.635v-.127c0-.127.032-.222.032-.35.065.54.162 1.049.291 1.557.065.19.227.095.324 0 .032.127.065.254.097.413.13.444.68.031.647-.286 0-.064 0-.159-.032-.222.032.127.065.254.065.38.064.318.453.032.453-.19.032.127.064.286.13.413.129.35.679-.064.679-.286v-.159c.097-.031.226-.127.226-.222v-.762c0 .063 0 .159.033.254 0 .127.129.095.194.063.032.096.064.223.097.318.097.254.518-.032.518-.222 0-.953-.033-1.906-.033-2.858a53.095 53.095 0 000-3.208c1.65-.159 3.333-.35 4.919-.73.226-.064.582-.667.162-.635a137.29 137.29 0 00-5.08.476v-.127c2.038-.35 4.109-.635 6.18-.762.518-.032 1.035-1.08.388-1.016l-.032-.191z" fill="#080C22"/><path d="M18.938 9.288c-2.2.16-4.433.35-6.633.604 1.812-.223 3.624-.35 5.404-.604.355-.063.938-.857.388-1.048-.453-.158-1.003-.127-1.553-.063.13-.222.13-.508-.227-.54-1.327-.19-2.75-.064-4.142.159 0-.159-.032-.318-.032-.477 0-1.905.064-3.81.064-5.716 0-.063-.064-.032-.064 0-.065.858-.162 1.715-.227 2.572a110.445 110.445 0 00-.323-3.398C11.56.46 11.075.746 11.075 1v.127c-.065.032-.162.095-.162.159 0 .063-.032.095-.032.158 0-.412 0-.825-.033-1.206-.032-.509-.809-.096-.84.254v.476c-.163-.032-.454.159-.519.318-.13.317-.194.635-.226.984-.065-.603-.194-1.207-.324-1.81 0-.064-.097 0-.097.063v.54c-.13-.222-.518-.063-.582.19a6.303 6.303 0 00-.292 1.557v-.19c0-.16-.194-.128-.29 0 0-.35 0-.7-.033-1.017 0-.063-.097 0-.097.032-.033 1.492-.097 3.017-.13 4.51l-.097-3.653c0-.158-.226 0-.226.096.032 2.064 0 4.128 0 6.16l-2.039.382-2.33.476c-.064 0-2.297.794-1.23.317 0 0 .033-.031 0-.031-.323.063-.614.127-.938.19-.13.032-.291.318-.065.318a27.91 27.91 0 003.625-.159c-.033 0-.065.032-.13.032-.517.127-1.132.254-1.618.444a2.787 2.787 0 00-1.003.413c-.453.064-.906.127-1.262.35-.13.063-.162.317.033.285.388-.095.776-.19 1.197-.285a4.45 4.45 0 00-.647.412c-.195.16-.615.826-.13.953.42.095.81.032 1.23-.032 0 .127.097.254.323.286 1.521.286 3.333 0 5.016-.286.032 1.97.097 3.906.291 5.875.033.223.26.127.389 0 .032.19.097.382.13.572.096.381.582.063.614-.19.032-.223.032-.445.065-.667.032-.223.032-.413.064-.636v-.127c0-.127.033-.222.033-.349.064.54.162 1.048.291 1.556.065.19.226.095.324 0 .032.127.064.286.097.413.129.445.68.032.647-.286 0-.063 0-.159-.033-.222.033.127.065.254.065.381.065.318.453.032.453-.19.032.127.065.285.13.412.13.35.68-.063.68-.285v-.16c.096-.031.226-.126.226-.222v-.762c0 .096 0 .159.032.254 0 .127.13.096.194.064.033.095.065.222.097.317.097.254.518-.031.518-.222 0-.953-.032-1.905-.032-2.858a53.092 53.092 0 000-3.207c1.65-.16 3.333-.35 4.918-.73.227-.064.583-.668.162-.636a138.15 138.15 0 00-5.08.476v-.127c2.038-.35 4.11-.635 6.18-.762.518-.032 1.036-1.08.389-1.016l-.033-.19z" fill="#8D9DF5"/></svg>