<svg width="16" height="27" viewBox="0 0 16 27" fill="none" xmlns="http://www.w3.org/2000/svg"><path d="M1.572 7.193c-.039.678 0 1.393.038 2.032a3.348 3.348 0 01-.038-2.032zM3.91 3.995c.268-.339.613-.64.958-.903.384-.264.767-.527 1.15-.715.192-.113.384-.188.576-.264.422-.15.843-.263 1.265-.3-.652.15-1.265.413-1.84.677l-.576.338A9.45 9.45 0 003.872 4.07c.039-.038.039-.075.077-.113l-.038.038zm7.438-1.58c.154.075.269.15.384.225.23.188.421.452.613.677h-.076a5.094 5.094 0 00-.576-.376c-.958-.564-2.223-.677-3.335-.49a5.587 5.587 0 00-2.493.678c.729-.414 1.457-.715 2.11-.865a6.887 6.887 0 013.373.15zm.844 7.902c-.192.188-.422.338-.614.489-.076.037-.153.113-.191.15.076-.113.191-.226.268-.338a6.22 6.22 0 00.767-.64c-.077.113-.115.188-.192.3l-.038.038zm1.189-4.215c.038.188.038.376.076.564-.115.715-.383 1.355-.728 1.957.421-.79.69-1.656.69-2.521h-.038zm.575 2.785c-.077.225-.192.451-.269.677-.153.263-.345.527-.498.79.23-.414.46-.865.652-1.317.038-.075.115-.113.153-.188l-.038.038zm-3.835 2.295l-.038.038c-.537.376-1.074.715-1.61 1.053-.23.15-.46.339-.69.49.191-.189.383-.377.575-.527.805-.678 1.725-1.242 2.53-1.92-.23.301-.498.603-.767.866zm-.651 4.93c-.192.338-.346.677-.499 1.016.038-.151.077-.302.115-.415.077-.338.192-.64.307-.94.115.037.268 0 .345-.075v-.038c-.115.15-.192.301-.307.451h.039zm-2.033-2.409c-.498.414-.92.94-1.342 1.468.039-.075.039-.15.077-.188.46-.603 1.035-1.167 1.61-1.656l-.383.376h.038zm3.03-10.8c.575.189 1.073.49 1.533.941.039.075.039.15.077.226a4.377 4.377 0 00-1.572-1.167h-.039zm3.949 2.183c.191.978.076 2.07-.23 3.086-.039.075-.077.113-.115.188.345-1.016.498-2.107.345-3.236v-.038zM1.572 9.827c0-.037-.039-.037-.039-.075 0 0 .039 0 .039-.038v.15c0 .114.537.039.537-.074 0-.15-.039-.301-.039-.414.077.113.115.263.23.338.115.15.614 0 .499-.15.115-.038.153-.113.076-.226-.038-.037-.038-.075-.076-.113.153 0 .345-.075.307-.226v-.225c.076.188.23.3.421.3A.805.805 0 003.757 9c.039.076.039.151.077.226.077.188.614.113.537-.075-1.035-2.559.652-5.155 3.067-6.134 1.534-.414 3.221-.075 4.256 1.393.69.94.46 2.333.269 3.349-.23 1.317-1.112 2.182-2.109 3.01-1.457 1.129-2.876 2.107-3.834 3.612a7.693 7.693 0 00-1.572 2.973c-.23.414-.346.903-.384 1.392-.038.527-.077 1.807.537 2.07.268.113.498-.15.613-.376v-.04c.039.038.077.038.115.038.039.075.077.15.115.188.077.113.576-.075.499-.15-.038-.076-.115-.189-.153-.264.038.15.153.264.268.301.115.038.268 0 .383-.113.039-.037.077-.075.077-.113.038 0 .077-.037.115-.037l.115.113c.384.3.805.075 1.074-.264.038-.037.076-.113.076-.226h.154c.038.226.115.49.268.678.077.15.499.037.499-.113.076-1.957.306-3.274 1.38-4.892.92-1.392 2.186-2.484 3.068-3.914.153-.225.306-.489.46-.752.038-.038.115-.038.115-.075.153-.301.306-.602.421-.903 1.074-2.145 1.803-4.742.345-6.66-.038-.076-.115-.151-.153-.227l-.038-.037a5.802 5.802 0 00-.69-.678 6.06 6.06 0 00-2.493-1.166 5.953 5.953 0 00-2.032-.49C7.707.57 6.135 1.098 4.831 1.888c-.92.414-1.802.979-2.492 1.77C.959 5.236-.192 7.982.882 9.976c.076.151.575.038.498-.15h.192zM5.6 22.773c.152-.188.344-.338.574-.489-.076.076-.192.15-.268.226-.23.263-.652.828-.614 1.28-.038.15-.038.263-.038.413-.115-.451.038-1.016.345-1.43zm2.376 1.205c.077-.076.192-.226.269-.34 0 .076-.039.151-.077.227l-.038.037c-.422.49-.92.79-1.534.979a2.008 2.008 0 01-.422.075.621.621 0 01-.268-.15c-.192-.151-.23-.34-.269-.527.192.113.345.188.537.225.422.414 1.38-.037 1.84-.489l-.038-.037zm-1.342-.715c.077-.339.269-.602.575-.753a.554.554 0 01.537-.038.722.722 0 00-.268.076c-.345.188-.652.414-.805.752v-.037h-.039zm2.263.677v.038c-.346 1.016-1.38 1.73-2.454 1.806a1.633 1.633 0 01-.997-.226c1.073.376 2.722-.564 3.45-1.618zm-1.84 2.295c1.571-.338 2.836-2.182 2.568-3.763-.307-1.768-2.684-1.241-3.72-.64-.804.452-1.533 1.619-1.38 2.597-.153 1.317 1.036 2.145 2.531 1.806z" fill="#080C22"/><path d="M13.536 7.57c-.038.076-.077.114-.115.189.345-1.016.498-2.107.345-3.236.192.978.077 2.07-.23 3.085v-.037zm-.537 1.393c-.153.263-.345.527-.498.79.23-.414.46-.865.652-1.317.038-.075.115-.113.153-.188-.077.226-.192.452-.268.677l-.039.038zm-.306-3.462c.038.188.038.376.076.565-.115.714-.383 1.354-.728 1.956.421-.79.69-1.655.69-2.52h-.038zm-1.19 4.215c-.19.188-.42.338-.613.489-.076.037-.153.113-.191.15.076-.113.191-.226.268-.338a6.23 6.23 0 00.767-.64c-.077.113-.115.188-.192.301l-.038.038zm-2.031.865l-.039.038c-.537.376-1.073.715-1.61 1.053-.23.15-.46.339-.69.49.191-.189.383-.377.575-.527.805-.678 1.725-1.242 2.53-1.92-.23.302-.498.603-.766.866zm-.652 4.93c-.192.338-.345.677-.499 1.016.039-.151.077-.302.115-.414.077-.339.192-.64.307-.941.115.037.269 0 .345-.075v-.038c-.115.15-.191.301-.307.452h.039zm-3.26-1.13c.46-.601 1.036-1.166 1.611-1.655l-.383.376c-.46.452-.92.941-1.342 1.468.038-.075.038-.15.076-.188h.039zm5.445-12.078c-.958-.565-2.224-.678-3.335-.49a5.587 5.587 0 00-2.493.678c.729-.414 1.457-.715 2.11-.866a6.887 6.887 0 013.373.15c.154.076.269.151.384.227.23.188.421.451.613.677h-.076a5.005 5.005 0 00-.576-.376zm-1.188-.038c.575.188 1.073.49 1.534.94.038.076.038.151.076.226a4.377 4.377 0 00-1.572-1.166h-.038zm-5.1-.038A9.45 9.45 0 003.145 3.47c.038-.038.038-.075.077-.113.268-.338.613-.64.958-.903.384-.263.767-.527 1.15-.715.192-.113.384-.188.576-.263.421-.15.843-.264 1.265-.301-.652.15-1.265.414-1.84.677l-.576.339-.038.037zM.883 6.555c-.039.677 0 1.392.038 2.032a3.349 3.349 0 01-.038-2.032zM14.15 2.604c-.039-.076-.116-.15-.154-.226l-.038-.038a5.802 5.802 0 00-.69-.677A6.059 6.059 0 0010.775.496 5.953 5.953 0 008.743.007C7.248-.068 5.676.46 4.372 1.25c-.92.414-1.802.978-2.492 1.769C.5 4.598-.651 7.345.423 9.339c.076.15.575.038.498-.15 0-.038-.038-.038-.038-.075 0 0 .038 0 .038-.038v.15c0 .113.537.038.537-.075 0-.15-.038-.3-.038-.414.076.113.115.264.23.339.115.15.613 0 .498-.15.115-.038.153-.114.077-.226-.039-.038-.039-.076-.077-.113.153 0 .345-.076.307-.226v-.226c.077.188.23.301.422.301a.806.806 0 00.23-.075c.038.075.038.15.076.226.077.188.614.113.537-.076-1.035-2.558.652-5.155 3.068-6.133 1.533-.414 3.22-.075 4.256 1.392.69.94.46 2.333.268 3.35-.23 1.316-1.112 2.182-2.109 3.01-1.457 1.128-2.875 2.107-3.834 3.612a7.692 7.692 0 00-1.572 2.973c-.23.414-.345.903-.384 1.392-.038.527-.076 1.806.537 2.07.269.113.499-.15.614-.377v-.037c.038.037.076.037.115.037.038.076.076.15.115.188.076.113.575-.075.498-.15-.038-.075-.115-.188-.153-.263a.43.43 0 00.268.3c.115.038.269 0 .384-.112.038-.038.076-.076.076-.113.039 0 .077-.038.115-.038l.115.113c.384.301.806.075 1.074-.263a.317.317 0 00.077-.226H7.4c.038.226.115.49.269.677.076.15.498.038.498-.113.077-1.956.307-3.273 1.38-4.93.92-1.391 2.186-2.483 3.068-3.913.153-.225.306-.489.46-.752.038-.038.115-.038.115-.075.153-.302.307-.603.422-.904 1.073-2.144 1.802-4.74.345-6.66l.191.038zM8.207 23.411c-.345 1.016-1.38 1.731-2.454 1.807a1.634 1.634 0 01-.997-.226c1.073.376 2.722-.565 3.45-1.618v.037zM4.909 22.17c.153-.189.345-.34.575-.49-.076.076-.191.15-.268.226-.23.264-.652.828-.614 1.28-.038.15-.038.263-.038.413-.115-.451.038-1.015.345-1.43zm1.84-.226c-.383.188-.651.414-.805.752v-.037c.077-.339.269-.602.576-.753a.554.554 0 01.536-.037.722.722 0 00-.268.075H6.75zm.69 1.355c-.421.489-.92.79-1.533.978a2.008 2.008 0 01-.422.075.621.621 0 01-.268-.15c-.192-.15-.23-.34-.269-.527.192.113.346.188.537.226.422.413 1.38-.038 1.84-.49.077-.075.192-.225.27-.338-.04.075-.04.15-.078.226l-.038.037-.038-.037zm1.496-1.43c-.307-1.77-2.684-1.242-3.72-.64-.804.451-1.533 1.618-1.38 2.596-.153 1.317 1.036 2.145 2.531 1.806 1.572-.338 2.838-2.182 2.57-3.762z" fill="#8D9DF5"/></svg>