<?xml version="1.0" encoding="UTF-8" standalone="no"?>
<svg
   xmlns:dc="http://purl.org/dc/elements/1.1/"
   xmlns:cc="http://creativecommons.org/ns#"
   xmlns:rdf="http://www.w3.org/1999/02/22-rdf-syntax-ns#"
   xmlns:svg="http://www.w3.org/2000/svg"
   xmlns="http://www.w3.org/2000/svg"
   viewBox="0 0 2028 2004"
   height="2004"
   width="2028"
   xml:space="preserve"
   id="svg2"
   version="1.1"><metadata
     id="metadata8"><rdf:RDF><cc:Work
         rdf:about=""><dc:format>image/svg+xml</dc:format><dc:type
           rdf:resource="http://purl.org/dc/dcmitype/StillImage" /></cc:Work></rdf:RDF></metadata><defs
     id="defs6" /><g
     transform="matrix(1.3333333,0,0,-1.3333333,0,2004)"
     id="g10"><g
       transform="scale(0.1)"
       id="g12"><path
         id="path14"
         style="fill:#000000;fill-opacity:1;fill-rule:nonzero;stroke:none"
         d="m 35.8359,7640.19 c -21.5703,118.25 -31.94527,223.74 -31.94527,316.55 0,425.19 154.34737,822.62 413.69537,1133.33 256.207,306.95 619.934,528.08 1042.404,605.14 114.34,20.86 220.52,31.78 316.76,31.78 v -3.46 H 3077.2 l 2174.2,4783.77 c 200.74,445.5 724.6,643.8 1170.06,443.1 445.46,-200.8 643.84,-724.6 443.1,-1170.1 L 5020.76,9723.53 H 10187.1 L 8343.34,13780.3 c -200.74,445.5 -2.36,969.3 443.11,1170.1 445.46,200.7 969.31,2.4 1170.06,-443.1 L 12130.7,9723.53 h 1299.6 v 3.46 c 95.1,0 200.8,-10.84 315.3,-31.53 422.7,-76.41 786.7,-297.67 1043.3,-605.21 259.6,-311.01 414,-708.91 414,-1134.45 0,-91.95 -10.3,-197.12 -31.7,-315.62 L 14048.4,1467.8 C 13971.7,1044.17 13751,680.066 13443.3,423.305 13132.2,163.723 12734.4,9.80859 12307.5,9.80859 V 13.2734 H 2898.68 V 9.80859 C 2472.14,9.80859 2074.63,163.727 1763.51,423.309 1455.79,680.051 1234.94,1043 1157.77,1464.34 v 3.46 z M 4020.61,5683.26 c 0,367.08 297.57,664.65 664.64,664.65 367.08,0 664.66,-297.57 664.66,-664.65 v -1630.6 c 0,-367.08 -297.58,-664.66 -664.66,-664.66 -367.07,0 -664.64,297.58 -664.64,664.66 z m 5836.5,0 c 0,367.08 297.59,664.65 664.69,664.65 367,0 664.6,-297.57 664.6,-664.65 v -1630.6 c 0,-367.08 -297.6,-664.66 -664.6,-664.66 -367.1,0 -664.69,297.58 -664.69,664.66 z m -2857.99,0 c 0,367.08 297.57,664.65 664.65,664.65 367.07,0 664.65,-297.57 664.65,-664.65 v -1630.6 c 0,-367.08 -297.58,-664.66 -664.65,-664.66 -367.08,0 -664.65,297.58 -664.65,664.66 z M 1771.89,7956.74 h 0.17 l 0.49,-0.13 0.22,0.13 h -0.71 l -0.77,0.64 c -1.59,-0.31 -0.7,-0.41 0.6,-0.64 z m 4.35,-2.15 c -0.34,-5.77 -2.18,-0.85 -2.83,0.14 l -0.22,0.02 c -0.03,-0.31 0.1,-1.2 0.43,-3.01 l 1121.32,-6169.03 0.61,0.11 c 0.04,-0.24 1.12,-0.66 3.13,-2.29 v -0.56 l 0.27,0.33 c 0.82,-0.68 0.18,0.03 -0.27,0.78 v -0.55 l 0.27,-0.23 -0.27,-0.33 v -1.22 h 9408.82 v 1.27 l 0.3,0.28 c 2.2,1.79 2.3,-3.47 2.8,-0.94 l 1122.8,6172.38 c 0.3,1.67 0.4,2.6 0.5,3.04 l -0.3,-0.04 c -0.8,-1.54 -2.9,-7.23 -3.1,-0.15 h -0.2 v 3.46 H 1776.75 v -3.46 z m -4.69,2.84 -0.26,-0.05 z m 0.34,-0.69 0.22,-0.04 z m 0.88,0 c 1.72,0.92 3.82,1.61 -1.22,0.69 z m 11661.23,0.94 c -5.7,1.03 -2.9,0.22 -0.7,-0.84 1.3,0.39 2.6,0.51 0.7,0.84 z m -1.9,-3.05 v -0.01 c 0.1,-0.1 0.1,-0.12 0,0.01 z M 12307.5,1780.02 v 0.14 c -0.1,-0.09 -0.1,-0.15 0,-0.14 z m 0,0.14 v 2.05 c 1.2,0 0.2,-1.55 0,-2.05 z m -9408.82,0.92 c -0.35,0.56 -0.58,1.13 0,1.13 v -1.13" /></g></g></svg>