<?xml version="1.0" encoding="UTF-8" standalone="no"?>
<svg
   xmlns:dc="http://purl.org/dc/elements/1.1/"
   xmlns:cc="http://creativecommons.org/ns#"
   xmlns:rdf="http://www.w3.org/1999/02/22-rdf-syntax-ns#"
   xmlns:svg="http://www.w3.org/2000/svg"
   xmlns="http://www.w3.org/2000/svg"
   viewBox="0 0 2329.3333 2805.3333"
   height="2805.3333"
   width="2329.3333"
   xml:space="preserve"
   id="svg2"
   version="1.1"><metadata
     id="metadata8"><rdf:RDF><cc:Work
         rdf:about=""><dc:format>image/svg+xml</dc:format><dc:type
           rdf:resource="http://purl.org/dc/dcmitype/StillImage" /></cc:Work></rdf:RDF></metadata><defs
     id="defs6" /><g
     transform="matrix(1.3333333,0,0,-1.3333333,0,2805.3333)"
     id="g10"><g
       transform="scale(0.1)"
       id="g12"><g
         transform="scale(1.29069)"
         id="g14"><path
           id="path16"
           style="fill:#ed3237;fill-opacity:1;fill-rule:nonzero;stroke:none"
           d="m 1408.55,4475.14 c 301.56,682.41 485.54,1483.5 595.8,2274.87 119.22,855.66 150.66,1711.24 150.66,2401.02 0,908.17 266.62,1759.97 726.81,2480.67 452.38,708.4 1091.36,1285.7 1847.24,1661.1 v 968.8 c 0,562.7 228.29,1072.3 597.22,1441.2 368.93,368.9 878.53,597.2 1441.15,597.2 562.62,0 1072.22,-228.3 1441.15,-597.2 368.93,-368.9 597.22,-878.5 597.22,-1441.2 V 13292 c 755.36,-374.5 1393.2,-948.7 1844.3,-1652.2 457.5,-713.4 724,-1562.8 727.4,-2474.9 h 3.2 v -21.2 h -3.2 c 0.4,-677.23 32.9,-1525.56 154.7,-2398.38 116.9,-836.75 316.1,-1684.23 649.4,-2390.34 61.1,-129.14 123.9,-246.91 187,-353.82 63.7,-107.86 129.2,-205.16 194.1,-292.04 l 970.7,-1299.46 H 9486.22 C 9410.88,1786.08 9126.02,1227.02 8704.01,805.01 8208.37,309.367 7523.69,2.83581 6767.43,2.83581 6011.16,2.83581 5326.5,309.367 4830.85,805.01 4409.56,1226.3 4124.95,1784.17 4049.03,2406.48 H 6.25876 L 972.934,3705.94 c 59.886,80.5 122.126,172.83 185.236,278.52 44.4,74.35 90.38,157.9 137.67,251.81 z M 7823.95,2406.48 H 5710.92 c 54.23,-171.3 148.93,-324.56 272.88,-448.52 200.46,-200.46 477.5,-324.43 783.63,-324.43 306.13,0 583.17,123.97 783.63,324.43 123.96,123.96 218.65,277.22 272.89,448.52 z M 4028.68,4037.17 v 9.79 h 5477.5 v -12.97 h 1041.12 c -314.2,780.47 -508.8,1644.79 -626.64,2488.39 -131.9,944.59 -167.08,1874.95 -167.5,2621.32 h -3.19 v 21.2 h 3.19 c -2.2,584.38 -175.34,1132.3 -472.6,1595.9 -298.46,465.5 -721.01,843 -1220.29,1084.3 l -766.67,249.1 c -85.44,15.5 -164.72,26.9 -237.26,33.9 -76.42,7.4 -172.13,11.2 -288.09,11.2 -117.68,0 -213.71,-3.7 -289.1,-10.8 -73.62,-6.9 -152.87,-18 -237.46,-33.1 l -765.46,-248.7 c -503.2,-243.1 -927.42,-621.9 -1224.88,-1087.7 -294.83,-461.7 -465.64,-1013.47 -465.64,-1607.97 0,-734.62 -35.43,-1659.77 -169.78,-2623.96 -117.59,-843.97 -312.1,-1708.8 -626.52,-2489.9 z M 6479.23,14549.8 c -73.8,-73.8 -119.47,-175.7 -119.47,-288.2 V 13854 h 815.34 v 407.6 c 0,112.5 -45.67,214.4 -119.47,288.2 -73.8,73.8 -175.71,119.5 -288.2,119.5 -112.48,0 -214.4,-45.7 -288.2,-119.5" /></g></g></g></svg>