<svg width="15" height="16" viewBox="0 0 15 16" fill="none" xmlns="http://www.w3.org/2000/svg">
<path fill-rule="evenodd" clip-rule="evenodd" d="M10.8103 1.02523V14.3532H2.04013C1.47692 14.3532 1.02034 13.8941 1.02034 13.3279V1.02523H10.8103ZM11.6261 0C11.7388 0 11.8301 0.0918016 11.8301 0.205045V15.1733C11.8301 15.2866 11.7388 15.3784 11.6261 15.3784H2.04013C0.913703 15.3784 0.000555038 14.4604 0.000555038 13.3279V0.205045C0.000555038 0.0918018 0.0918692 0 0.204512 0H11.6261Z" fill="#3BC6E4"/>
<path d="M8.28068 3.35173C8.28068 3.67839 8.54926 3.94321 8.88057 3.94321C9.21189 3.94321 9.48047 3.67839 9.48047 3.35173C9.48047 3.02507 9.21189 2.76025 8.88057 2.76025C8.54926 2.76025 8.28068 3.02507 8.28068 3.35173Z" fill="#3BC6E4"/>
<path d="M7.49414 3.35173C7.49414 3.02507 7.25507 2.76025 6.96017 2.76025H2.90199C2.60708 2.76025 2.36801 3.02507 2.36801 3.35173V3.35173C2.36801 3.67839 2.60708 3.94321 2.90199 3.94321H6.96017C7.25507 3.94321 7.49414 3.67839 7.49414 3.35173V3.35173Z" fill="#3BC6E4"/>
<path d="M8.28068 5.57878C8.28068 5.90544 8.54926 6.17026 8.88057 6.17026C9.21189 6.17026 9.48047 5.90544 9.48047 5.57878C9.48047 5.25212 9.21189 4.9873 8.88057 4.9873C8.54926 4.9873 8.28068 5.25212 8.28068 5.57878Z" fill="#3BC6E4"/>
<path d="M3.08203 5.57573C3.08203 5.24738 3.34821 4.9812 3.67656 4.9812H6.89842C7.22677 4.9812 7.49294 5.24738 7.49294 5.57573V5.57573C7.49294 5.90408 7.22677 6.17026 6.89842 6.17026H3.67656C3.34821 6.17026 3.08203 5.90408 3.08203 5.57573V5.57573Z" fill="#3BC6E4"/>
<path d="M8.28068 8.21428C8.28068 8.54094 8.54926 8.80576 8.88057 8.80576C9.21189 8.80576 9.48047 8.54094 9.48047 8.21428C9.48047 7.88762 9.21189 7.6228 8.88057 7.6228C8.54926 7.6228 8.28068 7.88762 8.28068 8.21428Z" fill="#3BC6E4"/>
<path d="M2.63672 8.21123C2.63672 7.88288 2.9029 7.6167 3.23125 7.6167H6.89848C7.22683 7.6167 7.49301 7.88288 7.49301 8.21123V8.21123C7.49301 8.53958 7.22683 8.80576 6.89848 8.80576H3.23125C2.9029 8.80576 2.63672 8.53958 2.63672 8.21123V8.21123Z" fill="#3BC6E4"/>
<path fill-rule="evenodd" clip-rule="evenodd" d="M13.5574 11.2907V13.3014C13.5574 13.8749 13.0952 14.3398 12.525 14.3398L3.95525 14.3399C4.00646 14.2606 4.05296 14.1775 4.0947 14.0906C4.37166 13.514 4.36991 12.8794 4.36904 12.5638C4.369 12.5472 4.36895 12.5314 4.36895 12.5166V11.2907L13.5574 11.2907ZM12.525 15.3783C13.6654 15.3783 14.5898 14.4484 14.5898 13.3014V10.4599C14.5898 10.3452 14.4974 10.2522 14.3834 10.2522L3.54302 10.2522C3.42899 10.2522 3.33654 10.3452 3.33654 10.4599V12.5166C3.33654 13.1381 3.33654 14.0356 2.2995 14.299C2.19823 14.3247 2.08707 14.3443 1.96506 14.3571C1.85818 14.4638 1.84851 14.6285 1.83899 14.7903C1.82641 15.0045 1.81411 15.2137 1.57737 15.2774L2.71585 15.3783L12.525 15.3783Z" fill="#3BC6E4"/>
</svg>
