<svg width="11" height="8" viewBox="0 0 11 8" fill="none" xmlns="http://www.w3.org/2000/svg">
<path fill-rule="evenodd" clip-rule="evenodd" d="M9.89836 2.12117C10.2889 1.73064 10.2889 1.09748 9.89836 0.706956C9.50784 0.316431 8.87467 0.316431 8.48415 0.706956L4.24204 4.94907L2.12117 2.8282C1.73065 2.43768 1.09748 2.43768 0.706956 2.8282C0.316431 3.21872 0.316431 3.85189 0.706956 4.24241L3.50734 7.0428C3.51614 7.0523 3.52516 7.06168 3.5344 7.07092C3.74886 7.28537 4.03648 7.38206 4.31692 7.36098C4.5475 7.34387 4.77328 7.24716 4.9496 7.07084C4.95816 7.06228 4.96653 7.05361 4.97471 7.04482L9.89836 2.12117Z" fill="#3BC6E4"/>
</svg>
