<svg width="19" height="25" viewBox="0 0 19 25" fill="none" xmlns="http://www.w3.org/2000/svg">
<path fill-rule="evenodd" clip-rule="evenodd" d="M2 23H17V7H16.9993H16.9924H16.9855H16.9786H16.9717H16.9648H16.9578H16.9509H16.9439H16.937H16.93H16.923H16.916H16.909H16.902H16.895H16.8879H16.8809H16.8738H16.8668H16.8597H16.8526H16.8455H16.8384H16.8313H16.8242H16.817H16.8099H16.8028H16.7956H16.7884H16.7812H16.7741H16.7669H16.7597H16.7525H16.7452H16.738H16.7308H16.7235H16.7163H16.709H16.7017H16.6944H16.6872H16.6799H16.6726H16.6652H16.6579H16.6506H16.6433H16.6359H16.6286H16.6212H16.6138H16.6065H16.5991H16.5917H16.5843H16.5769H16.5695H16.5621H16.5546H16.5472H16.5398H16.5323H16.5249H16.5174H16.51H16.5025H16.495H16.4875H16.48H16.4725H16.465H16.4575H16.45H16.4425H16.4349H16.4274H16.4199H16.4123H16.4048H16.3972H16.3897H16.3821H16.3745H16.3669H16.3593H16.3518H16.3442H16.3366H16.3289H16.3213H16.3137H16.3061H16.2985H16.2908H16.2832H16.2756H16.2679H16.2603H16.2526H16.245H16.2373H16.2296H16.2219H16.2143H16.2066H16.1989H16.1912H16.1835H16.1758H16.1681H16.1604H16.1527H16.145H16.1373H16.1296H16.1218H16.1141H16.1064H16.0987H16.0909H16.0832H16.0754H16.0677H16.0599H16.0522H16.0444H16.0367H16.0289H16.0212H16.0134H16.0056H15.9979H15.9901H15.9823H15.9745H15.9668H15.959H15.9512H15.9434H15.9356H15.9278H15.92H15.9123H15.9045H15.8967H15.8889H15.8811H15.8733H15.8655H15.8577H15.8499H15.8421H15.8342H15.8264H15.8186H15.8108H15.803H15.7952H15.7874H15.7796H15.7718H15.7639H15.7561H15.7483H15.7405H15.7327H15.7249H15.717H15.7092H15.7014H15.6936H15.6858H15.678H15.6701H15.6623H15.6545H15.6467H15.6389H15.6311H15.6232H15.6154H15.6076H15.5998H15.592H15.5842H15.5764H15.5686H15.5608H15.553H15.5451H15.5373H15.5295H15.5217H15.5139H15.5061H15.4983H15.4905H15.4827H15.475H15.4672H15.4594H15.4516H15.4438H15.436H15.4282H15.4205H15.4127H15.4049H15.3971H15.3894H15.3816H15.3738H15.3661H15.3583H15.3506H15.3428H15.3351H15.3273H15.3196H15.3118H15.3041H15.2963H15.2886H15.2809H15.2732H15.2654H15.2577H15.25H15.2423H15.2346H15.2269H15.2192H15.2115H15.2038H15.1961H15.1884H15.1807H15.173H15.1654H15.1577H15.15H15.1424H15.1347H15.1271H15.1194H15.1118H15.1042H15.0965H15.0889H15.0813H15.0737H15.066H15.0584H15.0508H15.0432H15.0357H15.0281H15.0205H15.0129H15.0053H14.9978H14.9902H14.9827H14.9751H14.9676H14.96H14.9525H14.945H14.9375H14.93H14.9225H14.915H14.9075H14.9H14.8925H14.885H14.8776H14.8701H14.8627H14.8552H14.8478H14.8403H14.8329H14.8255H14.8181H14.8107H14.8033H14.7959H14.7885H14.7811H14.7738H14.7664H14.7591H14.7517H14.7444H14.7371H14.7297H14.7224H14.7151H14.7078H14.7005H14.6933H14.686H14.6787H14.6715H14.6642H14.657H14.6497H14.6425H14.6353H14.6281H14.6209H14.6137H14.6065H14.5994H14.5922H14.5851H14.5779H14.5708H14.5637H14.5566H14.5495H14.5424H14.5353H14.5282H14.5211H14.5141H14.507H14.5C13.5741 7 12.8989 6.5918 12.4885 6.0218C12.1148 5.5028 12 4.91002 12 4.5V2L2 2L2 23ZM14 2.82843V4.5C14 4.53181 14.0057 4.59561 14.0271 4.67059C14.0482 4.74418 14.078 4.80665 14.1115 4.8532C14.1424 4.89612 14.1761 4.92569 14.2178 4.94722C14.2588 4.96835 14.3428 5 14.5 5H14.507H14.5141H14.5211H14.5282H14.5353H14.5424H14.5495H14.5566H14.5637H14.5708H14.5779H14.5851H14.5922H14.5994H14.6065H14.6137H14.6209H14.6281H14.6353H14.6425H14.6497H14.657H14.6642H14.6715H14.6787H14.686H14.6933H14.7005H14.7078H14.7151H14.7224H14.7297H14.7371H14.7444H14.7517H14.7591H14.7664H14.7738H14.7811H14.7885H14.7959H14.8033H14.8107H14.8181H14.8255H14.8329H14.8403H14.8478H14.8552H14.8627H14.8701H14.8776H14.885H14.8925H14.9H14.9075H14.915H14.9225H14.93H14.9375H14.945H14.9525H14.96H14.9676H14.9751H14.9827H14.9902H14.9978H15.0053H15.0129H15.0205H15.0281H15.0357H15.0432H15.0508H15.0584H15.066H15.0737H15.0813H15.0889H15.0965H15.1042H15.1118H15.1194H15.1271H15.1347H15.1424H15.15H15.1577H15.1654H15.173H15.1807H15.1884H15.1961H15.2038H15.2115H15.2192H15.2269H15.2346H15.2423H15.25H15.2577H15.2654H15.2732H15.2809H15.2886H15.2963H15.3041H15.3118H15.3196H15.3273H15.3351H15.3428H15.3506H15.3583H15.3661H15.3738H15.3816H15.3894H15.3971H15.4049H15.4127H15.4205H15.4282H15.436H15.4438H15.4516H15.4594H15.4672H15.475H15.4827H15.4905H15.4983H15.5061H15.5139H15.5217H15.5295H15.5373H15.5451H15.553H15.5608H15.5686H15.5764H15.5842H15.592H15.5998H15.6076H15.6154H15.6232H15.6311H15.6389H15.6467H15.6545H15.6623H15.6701H15.678H15.6858H15.6936H15.7014H15.7092H15.717H15.7249H15.7327H15.7405H15.7483H15.7561H15.7639H15.7718H15.7796H15.7874H15.7952H15.803H15.8108H15.8186H15.8264H15.8342H15.8421H15.8499H15.8577H15.8655H15.8733H15.8811H15.8889H15.8967H15.9045H15.9123H15.92H15.9278H15.9356H15.9434H15.9512H15.959H15.9668H15.9745H15.9823H15.9901H15.9979H16.0056H16.0134H16.0212H16.0289H16.0367H16.0444H16.0522H16.0599H16.0677H16.0754H16.0832H16.0909H16.0987H16.1064H16.1141H16.1218H16.1296H16.1373H16.145H16.1527H16.1604H16.1681H16.1716L14 2.82843ZM2 0C0.895431 0 0 0.89543 0 2V23C0 24.1046 0.895431 25 2 25H17C18.1046 25 19 24.1046 19 23V5.82843C19 5.29799 18.7893 4.78929 18.4142 4.41421L14.5858 0.585786C14.2107 0.210714 13.702 0 13.1716 0H2ZM5 10C5 9.44771 5.44772 9 6 9H13C13.5523 9 14 9.44771 14 10C14 10.5523 13.5523 11 13 11H6C5.44772 11 5 10.5523 5 10ZM5 14C5 13.4477 5.44772 13 6 13H11C11.5523 13 12 13.4477 12 14C12 14.5523 11.5523 15 11 15H6C5.44772 15 5 14.5523 5 14ZM6 17C5.44772 17 5 17.4477 5 18C5 18.5523 5.44772 19 6 19H12C12.5523 19 13 18.5523 13 18C13 17.4477 12.5523 17 12 17H6Z" fill="#3BC6E4"/>
</svg>
