<svg width="15" height="15" viewBox="0 0 15 15" fill="none" xmlns="http://www.w3.org/2000/svg">
<path fill-rule="evenodd" clip-rule="evenodd" d="M7.5 15C11.6421 15 15 11.6421 15 7.5C15 3.35786 11.6421 0 7.5 0C3.35786 0 0 3.35786 0 7.5C0 11.6421 3.35786 15 7.5 15ZM8.5 4.5C8.5 3.94772 8.05229 3.5 7.5 3.5C6.94772 3.5 6.5 3.94772 6.5 4.5L6.5 7.5C6.5 8.05228 6.94772 8.5 7.5 8.5C8.05228 8.5 8.5 8.05229 8.5 7.5V4.5ZM8.5 10.5C8.5 9.94772 8.05229 9.5 7.5 9.5C6.94772 9.5 6.5 9.94771 6.5 10.5C6.5 11.0523 6.94772 11.5 7.5 11.5C8.05228 11.5 8.5 11.0523 8.5 10.5Z" fill="#FF4949"/>
</svg>
