<?xml version="1.0" encoding="UTF-8" standalone="no"?>
<svg
   xmlns:dc="http://purl.org/dc/elements/1.1/"
   xmlns:cc="http://creativecommons.org/ns#"
   xmlns:rdf="http://www.w3.org/1999/02/22-rdf-syntax-ns#"
   xmlns:svg="http://www.w3.org/2000/svg"
   xmlns="http://www.w3.org/2000/svg"
   viewBox="0 0 2246.6667 2232"
   height="2232"
   width="2246.6667"
   xml:space="preserve"
   id="svg2"
   version="1.1"><metadata
     id="metadata8"><rdf:RDF><cc:Work
         rdf:about=""><dc:format>image/svg+xml</dc:format><dc:type
           rdf:resource="http://purl.org/dc/dcmitype/StillImage" /></cc:Work></rdf:RDF></metadata><defs
     id="defs6" /><g
     transform="matrix(1.3333333,0,0,-1.3333333,0,2232)"
     id="g10"><g
       transform="scale(0.1)"
       id="g12"><g
         transform="scale(1.03324)"
         id="g14"><path
           id="path16"
           style="fill:#000000;fill-opacity:1;fill-rule:evenodd;stroke:none"
           d="M 962.548,16200.5 H 15341.4 c 529.2,0 958.6,-429.5 958.6,-958.6 V 958.892 C 16300,429.748 15870.6,0.298665 15341.4,0.298665 L 962.548,0.302445 C 433.408,0.302445 3.95447,429.748 3.95447,958.892 V 15241.9 c 0,529.1 429.44953,958.6 958.59353,958.6 z M 1967.57,11914.6 h 2349.09 v 2370.2 H 1967.57 Z m 10018.73,2370.2 v -2370.2 h 2350.1 v 2370.2 z M 14336.4,9997.45 H 11986.3 V 7873.21 c 0,-187.42 -51.4,-363.65 -139.6,-519.16 -93.8,-165.35 -229,-299.31 -387.3,-391.34 -159.4,-92.62 -341.5,-144.23 -527.9,-144.23 -172,0 -349.8,43.93 -519.3,140.05 l -3.8,3.75 -2225.62,1281.79 -2296.64,-1291.2 -7.49,-3.74 c -164.13,-90.65 -337.74,-132.04 -507.3,-132.04 -186.65,0 -370.37,53.16 -532.04,148.23 -162,95.23 -298.78,232.12 -391.14,399.42 -83.24,150.7 -131.51,322.37 -131.51,506.55 V 9997.45 H 1967.57 V 1915.98 H 14336.4 Z M 6233.84,14021.5 V 9344.7 l 1435.7,807.2 0.45,-0.8 c 162.14,91.5 338.77,137.3 515.06,137.3 180.52,0 361.41,-48 526.75,-144 l -0.94,-1.6 1358.34,-782.31 V 14021.5 H 6233.84" /></g></g></g></svg>