<svg width="7" height="8" viewBox="0 0 7 8" fill="none" xmlns="http://www.w3.org/2000/svg">
<path fill-rule="evenodd" clip-rule="evenodd" d="M4.5 1.53345C4.5 0.981163 4.05228 0.533447 3.5 0.533447C2.94772 0.533447 2.5 0.981162 2.5 1.53345V3.03345H1C0.447715 3.03345 0 3.48116 0 4.03345C0 4.58573 0.447715 5.03345 1 5.03345H2.5V6.53345C2.5 7.08573 2.94772 7.53345 3.5 7.53345C4.05228 7.53345 4.5 7.08573 4.5 6.53345V5.03345H6C6.55228 5.03345 7 4.58573 7 4.03345C7 3.48116 6.55228 3.03345 6 3.03345H4.5V1.53345Z" fill="#0CCE7D"/>
</svg>
