<?xml version="1.0" encoding="utf-8"?>
<!-- Generator: Adobe Illustrator 22.0.1, SVG Export Plug-In . SVG Version: 6.00 Build 0)  -->
<svg version="1.1" id="Слой_1" xmlns="http://www.w3.org/2000/svg" xmlns:xlink="http://www.w3.org/1999/xlink" x="0px" y="0px"
	 viewBox="0 0 17 18" style="enable-background:new 0 0 17 18;" xml:space="preserve">
<path style="fill:#3BC6E4;" d="M11.09,8.55c1.12-0.84,1.85-2.17,1.85-3.67c0-2.53-2.06-4.59-4.59-4.59c-2.52,0-4.58,2.06-4.58,4.59
	c0,1.5,0.73,2.83,1.85,3.67c-2.88,1.2-4.93,4.24-4.93,7.78c0,0.56,0.45,1,1,1s1-0.44,1-1c0-3.49,2.54-6.33,5.66-6.33
	c3.13,0,5.67,2.84,5.67,6.33c0,0.56,0.45,1,1,1c0.55,0,1-0.44,1-1C16.02,12.79,13.97,9.75,11.09,8.55z M8.35,2.29
	c1.43,0,2.59,1.16,2.59,2.59c0,1.42-1.16,2.58-2.59,2.58c-1.42,0-2.58-1.16-2.58-2.58C5.77,3.45,6.93,2.29,8.35,2.29z"/>
</svg>
