<svg width="15" height="16" viewBox="0 0 15 16" fill="none" xmlns="http://www.w3.org/2000/svg">
<path fill-rule="evenodd" clip-rule="evenodd" d="M7.84657 0.0439453C6.96535 0.0439453 6.25098 0.758319 6.25098 1.63954C6.25098 1.63958 6.25098 1.63961 6.25098 1.63965H3.31882H1.96826C1.41598 1.63965 0.968262 2.08736 0.968262 2.63965C0.968262 3.19193 1.41598 3.63965 1.96826 3.63965H2.37283L3.00704 15.0555C3.03648 15.5854 3.47477 16 4.00551 16H11.6871C12.2179 16 12.6561 15.5854 12.6856 15.0555L13.3198 3.63965H13.726C14.2782 3.63965 14.726 3.19193 14.726 2.63965C14.726 2.08736 14.2782 1.63965 13.726 1.63965H12.3738H9.44217C9.44217 1.63961 9.44217 1.63958 9.44217 1.63954C9.44217 0.758319 8.7278 0.0439453 7.84657 0.0439453ZM4.95149 14L4.37591 3.63965H11.3167L10.7411 14H4.95149Z" fill="#FF4949"/>
</svg>
