<svg width="14" height="15" viewBox="0 0 14 15" fill="none" xmlns="http://www.w3.org/2000/svg">
<path fill-rule="evenodd" clip-rule="evenodd" d="M11 4.53345V3.19871L12.5 4.69874V13.0334H12.4928H12.4722H12.4513H12.4303H12.409H12.3877H12.3661H12.3444H12.3225H12.3004H12.2782H12.2558H12.2332H12.2105H12.1876H12.1646H12.1414H12.118H12.0945H12.0708H12.0469H12.0229H11.9987H11.9744H11.95H11.9253H11.9006H11.8756H11.8506H11.8253H11.8H11.7745H11.7488H11.723H11.697H11.6709H11.6447H11.6183H11.5918H11.5652H11.5384H11.5114H11.4844H11.4572H11.4299H11.4024H11.3748H11.3471H11.3285V9.53345C11.3285 8.98116 10.8808 8.53345 10.3285 8.53345H3.67187C3.11959 8.53345 2.67188 8.98116 2.67188 9.53345V13.0334H2.65872H2.63096H2.60334H2.57584H2.54848H2.52125H2.49416H2.4672H2.44038H2.41369H2.38714H2.36073H2.33447H2.30834H2.28236H2.25652H2.23082H2.20527H2.17986H2.15461H2.1295H2.10454H2.07973H2.05507H2.03056H2.00621H1.98201H1.95797H1.93408H1.91035H1.88678H1.86337H1.84011H1.81702H1.79409H1.77133H1.74873H1.72629H1.70402H1.68192H1.65999H1.63822H1.61663H1.5952H1.57395H1.55287H1.53197H1.51124H1.5V2.03345H1.50285H1.52032H1.53792H1.55565H1.57349H1.59145H1.60953H1.62774H1.64605H1.66449H1.68304H1.70171H1.72049H1.73938H1.75839H1.77751H1.79674H1.81609H1.83554H1.8551H1.87477H1.89455H1.91443H1.93443H1.95452H1.97472H1.99503H2.01544H2.03595H2.05656H2.07728H2.09809H2.119H2.14002H2.16113H2.18233H2.20364H2.22503H2.24653H2.26811H2.2898H2.31157H2.33343H2.35539H2.37743H2.39957H2.42179H2.44411H2.46651H2.48899H2.51156H2.53422H2.55696H2.57978H2.60269H2.62568H2.64875H2.67189H2.69512H2.71843H2.74182H2.76528H2.78882H2.81243H2.83612H2.85989H2.88373H2.90764H2.93162H2.95567H2.9798H3V4.53345C3 5.08573 3.44772 5.53345 4 5.53345H10C10.5523 5.53345 11 5.08573 11 4.53345ZM4.17188 13.0334H4.19074H4.22382H4.25698H4.29022H4.32354H4.35693H4.3904H4.42394H4.45755H4.49124H4.52499H4.55882H4.59271H4.62667H4.6607H4.69479H4.72895H4.76317H4.79746H4.8318H4.86621H4.90068H4.9352H4.96978H5.00442H5.03912H5.07387H5.10867H5.14353H5.17843H5.21339H5.2484H5.28346H5.31856H5.35371H5.38891H5.42415H5.45943H5.49476H5.53013H5.56554H5.60099H5.63648H5.67201H5.70757H5.74317H5.7788H5.81447H5.85017H5.8859H5.92166H5.95745H5.99328H6.02912H6.065H6.1009H6.13683H6.17278H6.20875H6.24474H6.28076H6.3168H6.35285H6.38892H6.42501H6.46111H6.49723H6.53337H6.56951H6.60567H6.64184H6.67802H6.7142H6.7504H6.7866H6.82281H6.85902H6.89524H6.93146H6.96768H7.0039H7.04012H7.07634H7.11256H7.14878H7.18499H7.2212H7.2574H7.29359H7.32977H7.36595H7.40212H7.43827H7.47441H7.51054H7.54666H7.58276H7.61884H7.65491H7.69096H7.72699H7.763H7.79899H7.83496H7.8709H7.90682H7.94272H7.97859H8.01443H8.05025H8.08603H8.12179H8.15751H8.1932H8.22886H8.26449H8.30008H8.33563H8.37115H8.40663H8.44207H8.47747H8.51283H8.54815H8.58342H8.61865H8.65384H8.68898H8.72407H8.75912H8.79411H8.82906H8.86395H8.8988H8.93359H8.96832H9.00301H9.03763H9.0722H9.10671H9.14116H9.17555H9.20989H9.24415H9.27836H9.3125H9.34658H9.38059H9.41454H9.44842H9.48222H9.51596H9.54963H9.58323H9.61675H9.6502H9.68357H9.71687H9.75009H9.78324H9.8163H9.82848V10.0334H4.17188V13.0334ZM3.67188 14.5334H0.512203C0.229332 14.5334 0 14.3041 0 14.0213V1.04565C0 0.762779 0.229332 0.533447 0.512203 0.533447H4H10H10.2439C10.3823 0.533447 10.5129 0.590322 10.6061 0.683455L13.85 3.92735C13.9461 4.02344 14 4.15371 14 4.28955V14.0212C14 14.3041 13.7707 14.5334 13.4878 14.5334H10.3285H3.67188ZM4.5 4.03345V2.03345H4.50022H4.52717H4.55415H4.58115H4.60817H4.63521H4.66227H4.68935H4.71646H4.74358H4.77071H4.79787H4.82504H4.85223H4.87943H4.90665H4.93388H4.96112H4.98837H5.01563H5.04291H5.07019H5.09748H5.12478H5.15209H5.1794H5.20672H5.23405H5.26137H5.2887H5.31604H5.34337H5.37071H5.39805H5.42538H5.45272H5.48005H5.50738H5.5347H5.56203H5.58934H5.61665H5.64396H5.67125H5.69854H5.72582H5.75309H5.78035H5.8076H5.83484H5.86206H5.88927H5.91647H5.94365H5.97081H5.99796H6.02509H6.0522H6.0793H6.10637H6.13343H6.16046H6.18747H6.21446H6.24143H6.26837H6.29528H6.32217H6.34904H6.37587H6.40268H6.42946H6.45621H6.48293H6.50962H6.53628H6.5629H6.58949H6.61605H6.64257H6.66906H6.69551H6.72192H6.7483H6.77464H6.80093H6.82719H6.85341H6.87958H6.90571H6.9318H6.95785H6.98385H7.0098H7.03571H7.06157H7.08738H7.11315H7.13886H7.16453H7.19014H7.2157H7.24122H7.26667H7.29208H7.31742H7.34272H7.36795H7.39313H7.41826H7.44332H7.46832H7.49327H7.51815H7.54297H7.56773H7.59243H7.61706H7.64163H7.66613H7.69057H7.71494H7.73924H7.76348H7.78764H7.81174H7.83576H7.85971H7.88359H7.9074H7.93114H7.95479H7.97838H8.00189H8.02532H8.04867H8.07195H8.09514H8.11826H8.14129H8.16425H8.18712H8.20991H8.23262H8.25524H8.27777H8.30022H8.32259H8.34486H8.36705H8.38915H8.41116H8.43308H8.4549H8.47664H8.49828H8.51983H8.54128H8.56264H8.58391H8.60507H8.62614H8.64711H8.66799H8.68876H8.70943H8.73H8.75047H8.77084H8.7911H8.81126H8.83131H8.85126H8.8711H8.89084H8.91046H8.92998H8.94939H8.96868H8.98787H9.00694H9.0259H9.04475H9.06349H9.08211H9.10061H9.119H9.13727H9.15542H9.17345H9.19136H9.20916H9.22683H9.24438H9.26181H9.27911H9.29629H9.31335H9.33028H9.34708H9.36376H9.38031H9.39673H9.41302H9.42918H9.44521H9.46111H9.47687H9.49251H9.5V4.03345H4.5Z" fill="#3BC6E4"/>
</svg>
