<svg width="15" height="16" viewBox="0 0 15 16" fill="none" xmlns="http://www.w3.org/2000/svg">
<path fill-rule="evenodd" clip-rule="evenodd" d="M11 6.5C11 8.98528 8.98528 11 6.5 11C4.01472 11 2 8.98528 2 6.5C2 4.01472 4.01472 2 6.5 2C8.98528 2 11 4.01472 11 6.5ZM9.72846 12.1428C8.77728 12.6882 7.67505 13 6.5 13C2.91015 13 0 10.0899 0 6.5C0 2.91015 2.91015 0 6.5 0C10.0899 0 13 2.91015 13 6.5C13 8.18959 12.3553 9.72861 11.2986 10.8845L14.6567 14.2426C15.0472 14.6332 15.0472 15.2663 14.6567 15.6569C14.2662 16.0474 13.633 16.0474 13.2425 15.6569L9.72846 12.1428Z" fill="#DDDDDD"/>
</svg>
