<svg width="21" height="16" viewBox="0 0 21 16" fill="none" xmlns="http://www.w3.org/2000/svg">
<path fill-rule="evenodd" clip-rule="evenodd" d="M6.9562 6.18975C8.11317 6.18975 9.05107 5.25184 9.05107 4.09487C9.05107 2.93791 8.11317 2 6.9562 2C5.79923 2 4.86133 2.93791 4.86133 4.09487C4.86133 5.25184 5.79923 6.18975 6.9562 6.18975ZM11.0511 4.09487C11.0511 5.39262 10.4474 6.54936 9.50552 7.2996C12.121 8.41495 13.9123 11.1942 13.9123 14.332C13.9123 14.8843 13.4646 15.332 12.9123 15.332C12.36 15.332 11.9123 14.8843 11.9123 14.332C11.9123 11.1741 9.60581 8.78027 6.95616 8.78027C4.3065 8.78027 2 11.1741 2 14.332C2 14.8843 1.55228 15.332 1 15.332C0.447715 15.332 0 14.8843 0 14.332C0 11.1941 1.79134 8.41491 4.40686 7.29958C3.465 6.54934 2.86133 5.3926 2.86133 4.09487C2.86133 1.83334 4.69467 0 6.9562 0C9.21774 0 11.0511 1.83334 11.0511 4.09487ZM15.4751 4.2115C15.8431 4.2115 16.1414 3.91319 16.1414 3.5452C16.1414 3.17722 15.8431 2.87891 15.4751 2.87891C15.1071 2.87891 14.8088 3.17722 14.8088 3.5452C14.8088 3.91319 15.1071 4.2115 15.4751 4.2115ZM18.1414 3.5452C18.1414 4.25318 17.8655 4.8967 17.4153 5.37411C19.176 6.19618 20.3534 8.10072 20.3534 10.2114C20.3534 10.7637 19.9057 11.2114 19.3534 11.2114C18.8011 11.2114 18.3534 10.7637 18.3534 10.2114C18.3534 8.31575 16.9772 6.94531 15.4751 6.94531C14.6782 6.94531 13.9168 7.33105 13.3774 7.9763C12.9072 7.49558 12.3742 7.08427 11.791 6.75946C12.2626 6.17001 12.8553 5.69143 13.5349 5.37412C13.0847 4.89672 12.8088 4.25319 12.8088 3.5452C12.8088 2.07265 14.0026 0.878906 15.4751 0.878906C16.9477 0.878906 18.1414 2.07265 18.1414 3.5452Z" fill="#3BC6E4"/>
</svg>
