<svg xmlns="http://www.w3.org/2000/svg" fill="none" viewBox="0 0 620 270"><path fill="#F5FAFF" d="M.5 0H0v10h10v-.5H.5V0zm0 20H0v10h10v-.5H.5V20zm0 20H0v10h10v-.5H.5V40zm20-40H20v10h10v-.5h-9.5V0zm0 20H20v10h10v-.5h-9.5V20zm0 20H20v10h10v-.5h-9.5V40zm20-40H40v10h10v-.5h-9.5V0zm0 20H40v10h10v-.5h-9.5V20zm0 20H40v10h10v-.5h-9.5V40zm20-40H60v10h10v-.5h-9.5V0zm0 20H60v10h10v-.5h-9.5V20zm0 20H60v10h10v-.5h-9.5V40zm20-40H80v10h10v-.5h-9.5V0zm0 20H80v10h10v-.5h-9.5V20zm0 20H80v10h10v-.5h-9.5V40zm20-40h-.5v10h10v-.5h-9.5V0zm0 20h-.5v10h10v-.5h-9.5V20zm0 20h-.5v10h10v-.5h-9.5V40zM.5 10H0v10h10v-.5H.5V10zm0 20H0v10h10v-.5H.5V30zm0 20H0v10h10v-.5H.5V50zm20-40H20v10h10v-.5h-9.5V10zm0 20H20v10h10v-.5h-9.5V30zm0 20H20v10h10v-.5h-9.5V50zm20-40H40v10h10v-.5h-9.5V10zm0 20H40v10h10v-.5h-9.5V30zm0 20H40v10h10v-.5h-9.5V50zm20-40H60v10h10v-.5h-9.5V10zm0 20H60v10h10v-.5h-9.5V30zm0 20H60v10h10v-.5h-9.5V50zm20-40H80v10h10v-.5h-9.5V10zm0 20H80v10h10v-.5h-9.5V30zm0 20H80v10h10v-.5h-9.5V50zm20-40h-.5v10h10v-.5h-9.5V10zm0 20h-.5v10h10v-.5h-9.5V30zm0 20h-.5v10h10v-.5h-9.5V50zm-90-50H10v10h10v-.5h-9.5V0zm0 20H10v10h10v-.5h-9.5V20zm0 20H10v10h10v-.5h-9.5V40zm20-40H30v10h10v-.5h-9.5V0zm0 20H30v10h10v-.5h-9.5V20zm0 20H30v10h10v-.5h-9.5V40zm20-40H50v10h10v-.5h-9.5V0zm0 20H50v10h10v-.5h-9.5V20zm0 20H50v10h10v-.5h-9.5V40zm20-40H70v10h10v-.5h-9.5V0zm0 20H70v10h10v-.5h-9.5V20zm0 20H70v10h10v-.5h-9.5V40zm20-40H90v10h10v-.5h-9.5V0zm0 20H90v10h10v-.5h-9.5V20zm0 20H90v10h10v-.5h-9.5V40zm20-40h-.5v10h10v-.5h-9.5V0zm0 20h-.5v10h10v-.5h-9.5V20zm0 20h-.5v10h10v-.5h-9.5V40zm-100-30H10v10h10v-.5h-9.5V10zm0 20H10v10h10v-.5h-9.5V30zm0 20H10v10h10v-.5h-9.5V50zm20-40H30v10h10v-.5h-9.5V10zm0 20H30v10h10v-.5h-9.5V30zm0 20H30v10h10v-.5h-9.5V50zm20-40H50v10h10v-.5h-9.5V10zm0 20H50v10h10v-.5h-9.5V30zm0 20H50v10h10v-.5h-9.5V50zm20-40H70v10h10v-.5h-9.5V10zm0 20H70v10h10v-.5h-9.5V30zm0 20H70v10h10v-.5h-9.5V50zm20-40H90v10h10v-.5h-9.5V10zm0 20H90v10h10v-.5h-9.5V30zm0 20H90v10h10v-.5h-9.5V50zm20-40h-.5v10h10v-.5h-9.5V10zm0 20h-.5v10h10v-.5h-9.5V30zm0 20h-.5v10h10v-.5h-9.5V50zM.5 60H0v10h10v-.5H.5V60zm0 20H0v10h10v-.5H.5V80zm0 20H0v10h10v-.5H.5V100zm20-40H20v10h10v-.5h-9.5V60zm0 20H20v10h10v-.5h-9.5V80zm0 20H20v10h10v-.5h-9.5V100zm20-40H40v10h10v-.5h-9.5V60zm0 20H40v10h10v-.5h-9.5V80zm0 20H40v10h10v-.5h-9.5V100zm20-40H60v10h10v-.5h-9.5V60zm0 20H60v10h10v-.5h-9.5V80zm0 20H60v10h10v-.5h-9.5V100zm20-40H80v10h10v-.5h-9.5V60zm0 20H80v10h10v-.5h-9.5V80zm0 20H80v10h10v-.5h-9.5V100zm20-40h-.5v10h10v-.5h-9.5V60zm0 20h-.5v10h10v-.5h-9.5V80zm0 20h-.5v10h10v-.5h-9.5V100zM.5 70H0v10h10v-.5H.5V70zm0 20H0v10h10v-.5H.5V90zm0 20H0v10h10v-.5H.5V110zm20-40H20v10h10v-.5h-9.5V70zm0 20H20v10h10v-.5h-9.5V90zm0 20H20v10h10v-.5h-9.5V110zm20-40H40v10h10v-.5h-9.5V70zm0 20H40v10h10v-.5h-9.5V90zm0 20H40v10h10v-.5h-9.5V110zm20-40H60v10h10v-.5h-9.5V70zm0 20H60v10h10v-.5h-9.5V90zm0 20H60v10h10v-.5h-9.5V110zm20-40H80v10h10v-.5h-9.5V70zm0 20H80v10h10v-.5h-9.5V90zm0 20H80v10h10v-.5h-9.5V110zm20-40h-.5v10h10v-.5h-9.5V70zm0 20h-.5v10h10v-.5h-9.5V90zm0 20h-.5v10h10v-.5h-9.5V110zm-90-50H10v10h10v-.5h-9.5V60zm0 20H10v10h10v-.5h-9.5V80zm0 20H10v10h10v-.5h-9.5V100zm20-40H30v10h10v-.5h-9.5V60zm0 20H30v10h10v-.5h-9.5V80zm0 20H30v10h10v-.5h-9.5V100zm20-40H50v10h10v-.5h-9.5V60zm0 20H50v10h10v-.5h-9.5V80zm0 20H50v10h10v-.5h-9.5V100zm20-40H70v10h10v-.5h-9.5V60zm0 20H70v10h10v-.5h-9.5V80zm0 20H70v10h10v-.5h-9.5V100zm20-40H90v10h10v-.5h-9.5V60zm0 20H90v10h10v-.5h-9.5V80zm0 20H90v10h10v-.5h-9.5V100zm20-40h-.5v10h10v-.5h-9.5V60zm0 20h-.5v10h10v-.5h-9.5V80zm0 20h-.5v10h10v-.5h-9.5V100zm-100-30H10v10h10v-.5h-9.5V70zm0 20H10v10h10v-.5h-9.5V90zm0 20H10v10h10v-.5h-9.5V110zm20-40H30v10h10v-.5h-9.5V70zm0 20H30v10h10v-.5h-9.5V90zm0 20H30v10h10v-.5h-9.5V110zm20-40H50v10h10v-.5h-9.5V70zm0 20H50v10h10v-.5h-9.5V90zm0 20H50v10h10v-.5h-9.5V110zm20-40H70v10h10v-.5h-9.5V70zm0 20H70v10h10v-.5h-9.5V90zm0 20H70v10h10v-.5h-9.5V110zm20-40H90v10h10v-.5h-9.5V70zm0 20H90v10h10v-.5h-9.5V90zm0 20H90v10h10v-.5h-9.5V110zm20-40h-.5v10h10v-.5h-9.5V70zm0 20h-.5v10h10v-.5h-9.5V90zm0 20h-.5v10h10v-.5h-9.5V110zM.5 120H0v10h10v-.5H.5V120zm0 20H0v10h10v-.5H.5V140zm0 20H0v10h10v-.5H.5V160zm20-40H20v10h10v-.5h-9.5V120zm0 20H20v10h10v-.5h-9.5V140zm0 20H20v10h10v-.5h-9.5V160zm20-40H40v10h10v-.5h-9.5V120zm0 20H40v10h10v-.5h-9.5V140zm0 20H40v10h10v-.5h-9.5V160zm20-40H60v10h10v-.5h-9.5V120zm0 20H60v10h10v-.5h-9.5V140zm0 20H60v10h10v-.5h-9.5V160zm20-40H80v10h10v-.5h-9.5V120zm0 20H80v10h10v-.5h-9.5V140zm0 20H80v10h10v-.5h-9.5V160zm20-40h-.5v10h10v-.5h-9.5V120zm0 20h-.5v10h10v-.5h-9.5V140zm0 20h-.5v10h10v-.5h-9.5V160zM.5 130H0v10h10v-.5H.5V130zm0 20H0v10h10v-.5H.5V150zm0 20H0v10h10v-.5H.5V170zm20-40H20v10h10v-.5h-9.5V130zm0 20H20v10h10v-.5h-9.5V150zm0 20H20v10h10v-.5h-9.5V170zm20-40H40v10h10v-.5h-9.5V130zm0 20H40v10h10v-.5h-9.5V150zm0 20H40v10h10v-.5h-9.5V170zm20-40H60v10h10v-.5h-9.5V130zm0 20H60v10h10v-.5h-9.5V150zm0 20H60v10h10v-.5h-9.5V170zm20-40H80v10h10v-.5h-9.5V130zm0 20H80v10h10v-.5h-9.5V150zm0 20H80v10h10v-.5h-9.5V170zm20-40h-.5v10h10v-.5h-9.5V130zm0 20h-.5v10h10v-.5h-9.5V150zm0 20h-.5v10h10v-.5h-9.5V170zm-90-50H10v10h10v-.5h-9.5V120zm0 20H10v10h10v-.5h-9.5V140zm0 20H10v10h10v-.5h-9.5V160zm20-40H30v10h10v-.5h-9.5V120zm0 20H30v10h10v-.5h-9.5V140zm0 20H30v10h10v-.5h-9.5V160zm20-40H50v10h10v-.5h-9.5V120zm0 20H50v10h10v-.5h-9.5V140zm0 20H50v10h10v-.5h-9.5V160zm20-40H70v10h10v-.5h-9.5V120zm0 20H70v10h10v-.5h-9.5V140zm0 20H70v10h10v-.5h-9.5V160zm20-40H90v10h10v-.5h-9.5V120zm0 20H90v10h10v-.5h-9.5V140zm0 20H90v10h10v-.5h-9.5V160zm20-40h-.5v10h10v-.5h-9.5V120zm0 20h-.5v10h10v-.5h-9.5V140zm0 20h-.5v10h10v-.5h-9.5V160zm-100-30H10v10h10v-.5h-9.5V130zm0 20H10v10h10v-.5h-9.5V150zm0 20H10v10h10v-.5h-9.5V170zm20-40H30v10h10v-.5h-9.5V130zm0 20H30v10h10v-.5h-9.5V150zm0 20H30v10h10v-.5h-9.5V170zm20-40H50v10h10v-.5h-9.5V130zm0 20H50v10h10v-.5h-9.5V150zm0 20H50v10h10v-.5h-9.5V170zm20-40H70v10h10v-.5h-9.5V130zm0 20H70v10h10v-.5h-9.5V150zm0 20H70v10h10v-.5h-9.5V170zm20-40H90v10h10v-.5h-9.5V130zm0 20H90v10h10v-.5h-9.5V150zm0 20H90v10h10v-.5h-9.5V170zm20-40h-.5v10h10v-.5h-9.5V130zm0 20h-.5v10h10v-.5h-9.5V150zm0 20h-.5v10h10v-.5h-9.5V170zM.5 180H0v10h10v-.5H.5V180zm0 20H0v10h10v-.5H.5V200zm0 20H0v10h10v-.5H.5V220zm20-40H20v10h10v-.5h-9.5V180zm0 20H20v10h10v-.5h-9.5V200zm0 20H20v10h10v-.5h-9.5V220zm20-40H40v10h10v-.5h-9.5V180zm0 20H40v10h10v-.5h-9.5V200zm0 20H40v10h10v-.5h-9.5V220zm20-40H60v10h10v-.5h-9.5V180zm0 20H60v10h10v-.5h-9.5V200zm0 20H60v10h10v-.5h-9.5V220zm20-40H80v10h10v-.5h-9.5V180zm0 20H80v10h10v-.5h-9.5V200zm0 20H80v10h10v-.5h-9.5V220zm20-40h-.5v10h10v-.5h-9.5V180zm0 20h-.5v10h10v-.5h-9.5V200zm0 20h-.5v10h10v-.5h-9.5V220zM.5 190H0v10h10v-.5H.5V190zm0 20H0v10h10v-.5H.5V210zm0 20H0v10h10v-.5H.5V230zm20-40H20v10h10v-.5h-9.5V190zm0 20H20v10h10v-.5h-9.5V210zm0 20H20v10h10v-.5h-9.5V230zm20-40H40v10h10v-.5h-9.5V190zm0 20H40v10h10v-.5h-9.5V210zm0 20H40v10h10v-.5h-9.5V230zm20-40H60v10h10v-.5h-9.5V190zm0 20H60v10h10v-.5h-9.5V210zm0 20H60v10h10v-.5h-9.5V230zm20-40H80v10h10v-.5h-9.5V190zm0 20H80v10h10v-.5h-9.5V210zm0 20H80v10h10v-.5h-9.5V230zm20-40h-.5v10h10v-.5h-9.5V190zm0 20h-.5v10h10v-.5h-9.5V210zm0 20h-.5v10h10v-.5h-9.5V230zm-90-50H10v10h10v-.5h-9.5V180zm0 20H10v10h10v-.5h-9.5V200zm0 20H10v10h10v-.5h-9.5V220zm20-40H30v10h10v-.5h-9.5V180zm0 20H30v10h10v-.5h-9.5V200zm0 20H30v10h10v-.5h-9.5V220zm20-40H50v10h10v-.5h-9.5V180zm0 20H50v10h10v-.5h-9.5V200zm0 20H50v10h10v-.5h-9.5V220zm20-40H70v10h10v-.5h-9.5V180zm0 20H70v10h10v-.5h-9.5V200zm0 20H70v10h10v-.5h-9.5V220zm20-40H90v10h10v-.5h-9.5V180zm0 20H90v10h10v-.5h-9.5V200zm0 20H90v10h10v-.5h-9.5V220zm20-40h-.5v10h10v-.5h-9.5V180zm0 20h-.5v10h10v-.5h-9.5V200zm0 20h-.5v10h10v-.5h-9.5V220zm-100-30H10v10h10v-.5h-9.5V190zm0 20H10v10h10v-.5h-9.5V210zm0 20H10v10h10v-.5h-9.5V230zm20-40H30v10h10v-.5h-9.5V190zm0 20H30v10h10v-.5h-9.5V210zm0 20H30v10h10v-.5h-9.5V230zm20-40H50v10h10v-.5h-9.5V190zm0 20H50v10h10v-.5h-9.5V210zm0 20H50v10h10v-.5h-9.5V230zm20-40H70v10h10v-.5h-9.5V190zm0 20H70v10h10v-.5h-9.5V210zm0 20H70v10h10v-.5h-9.5V230zm20-40H90v10h10v-.5h-9.5V190zm0 20H90v10h10v-.5h-9.5V210zm0 20H90v10h10v-.5h-9.5V230zm20-40h-.5v10h10v-.5h-9.5V190zm0 20h-.5v10h10v-.5h-9.5V210zm0 20h-.5v10h10v-.5h-9.5V230zm10-230h-.5v10h10v-.5h-9.5V0zm0 20h-.5v10h10v-.5h-9.5V20zm0 20h-.5v10h10v-.5h-9.5V40zm20-40h-.5v10h10v-.5h-9.5V0zm0 20h-.5v10h10v-.5h-9.5V20zm0 20h-.5v10h10v-.5h-9.5V40zm20-40h-.5v10h10v-.5h-9.5V0zm0 20h-.5v10h10v-.5h-9.5V20zm0 20h-.5v10h10v-.5h-9.5V40zm20-40h-.5v10h10v-.5h-9.5V0zm0 20h-.5v10h10v-.5h-9.5V20zm0 20h-.5v10h10v-.5h-9.5V40zm20-40h-.5v10h10v-.5h-9.5V0zm0 20h-.5v10h10v-.5h-9.5V20zm0 20h-.5v10h10v-.5h-9.5V40zm20-40h-.5v10h10v-.5h-9.5V0zm0 20h-.5v10h10v-.5h-9.5V20zm0 20h-.5v10h10v-.5h-9.5V40zm-100-30h-.5v10h10v-.5h-9.5V10zm0 20h-.5v10h10v-.5h-9.5V30zm0 20h-.5v10h10v-.5h-9.5V50zm20-40h-.5v10h10v-.5h-9.5V10zm0 20h-.5v10h10v-.5h-9.5V30zm0 20h-.5v10h10v-.5h-9.5V50zm20-40h-.5v10h10v-.5h-9.5V10zm0 20h-.5v10h10v-.5h-9.5V30zm0 20h-.5v10h10v-.5h-9.5V50zm20-40h-.5v10h10v-.5h-9.5V10zm0 20h-.5v10h10v-.5h-9.5V30zm0 20h-.5v10h10v-.5h-9.5V50zm20-40h-.5v10h10v-.5h-9.5V10zm0 20h-.5v10h10v-.5h-9.5V30zm0 20h-.5v10h10v-.5h-9.5V50zm20-40h-.5v10h10v-.5h-9.5V10zm0 20h-.5v10h10v-.5h-9.5V30zm0 20h-.5v10h10v-.5h-9.5V50zm-90-50h-.5v10h10v-.5h-9.5V0zm0 20h-.5v10h10v-.5h-9.5V20zm0 20h-.5v10h10v-.5h-9.5V40zm20-40h-.5v10h10v-.5h-9.5V0zm0 20h-.5v10h10v-.5h-9.5V20zm0 20h-.5v10h10v-.5h-9.5V40zm20-40h-.5v10h10v-.5h-9.5V0zm0 20h-.5v10h10v-.5h-9.5V20zm0 20h-.5v10h10v-.5h-9.5V40zm20-40h-.5v10h10v-.5h-9.5V0zm0 20h-.5v10h10v-.5h-9.5V20zm0 20h-.5v10h10v-.5h-9.5V40zm20-40h-.5v10h10v-.5h-9.5V0zm0 20h-.5v10h10v-.5h-9.5V20zm0 20h-.5v10h10v-.5h-9.5V40zm20-40h-.5v10h10v-.5h-9.5V0zm0 20h-.5v10h10v-.5h-9.5V20zm0 20h-.5v10h10v-.5h-9.5V40zm-100-30h-.5v10h10v-.5h-9.5V10zm0 20h-.5v10h10v-.5h-9.5V30zm0 20h-.5v10h10v-.5h-9.5V50zm20-40h-.5v10h10v-.5h-9.5V10zm0 20h-.5v10h10v-.5h-9.5V30zm0 20h-.5v10h10v-.5h-9.5V50zm20-40h-.5v10h10v-.5h-9.5V10zm0 20h-.5v10h10v-.5h-9.5V30zm0 20h-.5v10h10v-.5h-9.5V50zm20-40h-.5v10h10v-.5h-9.5V10zm0 20h-.5v10h10v-.5h-9.5V30zm0 20h-.5v10h10v-.5h-9.5V50zm20-40h-.5v10h10v-.5h-9.5V10zm0 20h-.5v10h10v-.5h-9.5V30zm0 20h-.5v10h10v-.5h-9.5V50zm20-40h-.5v10h10v-.5h-9.5V10zm0 20h-.5v10h10v-.5h-9.5V30zm0 20h-.5v10h10v-.5h-9.5V50zm-110 10h-.5v10h10v-.5h-9.5V60zm0 20h-.5v10h10v-.5h-9.5V80zm0 20h-.5v10h10v-.5h-9.5V100zm20-40h-.5v10h10v-.5h-9.5V60zm0 20h-.5v10h10v-.5h-9.5V80zm0 20h-.5v10h10v-.5h-9.5V100zm20-40h-.5v10h10v-.5h-9.5V60zm0 20h-.5v10h10v-.5h-9.5V80zm0 20h-.5v10h10v-.5h-9.5V100zm20-40h-.5v10h10v-.5h-9.5V60zm0 20h-.5v10h10v-.5h-9.5V80zm0 20h-.5v10h10v-.5h-9.5V100zm20-40h-.5v10h10v-.5h-9.5V60zm0 20h-.5v10h10v-.5h-9.5V80zm0 20h-.5v10h10v-.5h-9.5V100zm20-40h-.5v10h10v-.5h-9.5V60zm0 20h-.5v10h10v-.5h-9.5V80zm0 20h-.5v10h10v-.5h-9.5V100zm-100-30h-.5v10h10v-.5h-9.5V70zm0 20h-.5v10h10v-.5h-9.5V90zm0 20h-.5v10h10v-.5h-9.5V110zm20-40h-.5v10h10v-.5h-9.5V70zm0 20h-.5v10h10v-.5h-9.5V90zm0 20h-.5v10h10v-.5h-9.5V110zm20-40h-.5v10h10v-.5h-9.5V70zm0 20h-.5v10h10v-.5h-9.5V90zm0 20h-.5v10h10v-.5h-9.5V110zm20-40h-.5v10h10v-.5h-9.5V70zm0 20h-.5v10h10v-.5h-9.5V90zm0 20h-.5v10h10v-.5h-9.5V110zm20-40h-.5v10h10v-.5h-9.5V70zm0 20h-.5v10h10v-.5h-9.5V90zm0 20h-.5v10h10v-.5h-9.5V110zm20-40h-.5v10h10v-.5h-9.5V70zm0 20h-.5v10h10v-.5h-9.5V90zm0 20h-.5v10h10v-.5h-9.5V110zm-90-50h-.5v10h10v-.5h-9.5V60zm0 20h-.5v10h10v-.5h-9.5V80zm0 20h-.5v10h10v-.5h-9.5V100zm20-40h-.5v10h10v-.5h-9.5V60zm0 20h-.5v10h10v-.5h-9.5V80zm0 20h-.5v10h10v-.5h-9.5V100zm20-40h-.5v10h10v-.5h-9.5V60zm0 20h-.5v10h10v-.5h-9.5V80zm0 20h-.5v10h10v-.5h-9.5V100zm20-40h-.5v10h10v-.5h-9.5V60zm0 20h-.5v10h10v-.5h-9.5V80zm0 20h-.5v10h10v-.5h-9.5V100zm20-40h-.5v10h10v-.5h-9.5V60zm0 20h-.5v10h10v-.5h-9.5V80zm0 20h-.5v10h10v-.5h-9.5V100zm20-40h-.5v10h10v-.5h-9.5V60zm0 20h-.5v10h10v-.5h-9.5V80zm0 20h-.5v10h10v-.5h-9.5V100zm-100-30h-.5v10h10v-.5h-9.5V70zm0 20h-.5v10h10v-.5h-9.5V90zm0 20h-.5v10h10v-.5h-9.5V110zm20-40h-.5v10h10v-.5h-9.5V70zm0 20h-.5v10h10v-.5h-9.5V90zm0 20h-.5v10h10v-.5h-9.5V110zm20-40h-.5v10h10v-.5h-9.5V70zm0 20h-.5v10h10v-.5h-9.5V90zm0 20h-.5v10h10v-.5h-9.5V110zm20-40h-.5v10h10v-.5h-9.5V70zm0 20h-.5v10h10v-.5h-9.5V90zm0 20h-.5v10h10v-.5h-9.5V110zm20-40h-.5v10h10v-.5h-9.5V70zm0 20h-.5v10h10v-.5h-9.5V90zm0 20h-.5v10h10v-.5h-9.5V110zm20-40h-.5v10h10v-.5h-9.5V70zm0 20h-.5v10h10v-.5h-9.5V90zm0 20h-.5v10h10v-.5h-9.5V110zm-110 10h-.5v10h10v-.5h-9.5V120zm0 20h-.5v10h10v-.5h-9.5V140zm0 20h-.5v10h10v-.5h-9.5V160zm20-40h-.5v10h10v-.5h-9.5V120zm0 20h-.5v10h10v-.5h-9.5V140zm0 20h-.5v10h10v-.5h-9.5V160zm20-40h-.5v10h10v-.5h-9.5V120zm0 20h-.5v10h10v-.5h-9.5V140zm0 20h-.5v10h10v-.5h-9.5V160zm20-40h-.5v10h10v-.5h-9.5V120zm0 20h-.5v10h10v-.5h-9.5V140zm0 20h-.5v10h10v-.5h-9.5V160zm20-40h-.5v10h10v-.5h-9.5V120zm0 20h-.5v10h10v-.5h-9.5V140zm0 20h-.5v10h10v-.5h-9.5V160zm20-40h-.5v10h10v-.5h-9.5V120zm0 20h-.5v10h10v-.5h-9.5V140zm0 20h-.5v10h10v-.5h-9.5V160zm-100-30h-.5v10h10v-.5h-9.5V130zm0 20h-.5v10h10v-.5h-9.5V150zm0 20h-.5v10h10v-.5h-9.5V170zm20-40h-.5v10h10v-.5h-9.5V130zm0 20h-.5v10h10v-.5h-9.5V150zm0 20h-.5v10h10v-.5h-9.5V170zm20-40h-.5v10h10v-.5h-9.5V130zm0 20h-.5v10h10v-.5h-9.5V150zm0 20h-.5v10h10v-.5h-9.5V170zm20-40h-.5v10h10v-.5h-9.5V130zm0 20h-.5v10h10v-.5h-9.5V150zm0 20h-.5v10h10v-.5h-9.5V170zm20-40h-.5v10h10v-.5h-9.5V130zm0 20h-.5v10h10v-.5h-9.5V150zm0 20h-.5v10h10v-.5h-9.5V170zm20-40h-.5v10h10v-.5h-9.5V130zm0 20h-.5v10h10v-.5h-9.5V150zm0 20h-.5v10h10v-.5h-9.5V170zm-90-50h-.5v10h10v-.5h-9.5V120zm0 20h-.5v10h10v-.5h-9.5V140zm0 20h-.5v10h10v-.5h-9.5V160zm20-40h-.5v10h10v-.5h-9.5V120zm0 20h-.5v10h10v-.5h-9.5V140zm0 20h-.5v10h10v-.5h-9.5V160zm20-40h-.5v10h10v-.5h-9.5V120zm0 20h-.5v10h10v-.5h-9.5V140zm0 20h-.5v10h10v-.5h-9.5V160zm20-40h-.5v10h10v-.5h-9.5V120zm0 20h-.5v10h10v-.5h-9.5V140zm0 20h-.5v10h10v-.5h-9.5V160zm20-40h-.5v10h10v-.5h-9.5V120zm0 20h-.5v10h10v-.5h-9.5V140zm0 20h-.5v10h10v-.5h-9.5V160zm20-40h-.5v10h10v-.5h-9.5V120zm0 20h-.5v10h10v-.5h-9.5V140zm0 20h-.5v10h10v-.5h-9.5V160zm-100-30h-.5v10h10v-.5h-9.5V130zm0 20h-.5v10h10v-.5h-9.5V150zm0 20h-.5v10h10v-.5h-9.5V170zm20-40h-.5v10h10v-.5h-9.5V130zm0 20h-.5v10h10v-.5h-9.5V150zm0 20h-.5v10h10v-.5h-9.5V170zm20-40h-.5v10h10v-.5h-9.5V130zm0 20h-.5v10h10v-.5h-9.5V150zm0 20h-.5v10h10v-.5h-9.5V170zm20-40h-.5v10h10v-.5h-9.5V130zm0 20h-.5v10h10v-.5h-9.5V150zm0 20h-.5v10h10v-.5h-9.5V170zm20-40h-.5v10h10v-.5h-9.5V130zm0 20h-.5v10h10v-.5h-9.5V150zm0 20h-.5v10h10v-.5h-9.5V170zm20-40h-.5v10h10v-.5h-9.5V130zm0 20h-.5v10h10v-.5h-9.5V150zm0 20h-.5v10h10v-.5h-9.5V170zm-110 10h-.5v10h10v-.5h-9.5V180zm0 20h-.5v10h10v-.5h-9.5V200zm0 20h-.5v10h10v-.5h-9.5V220zm20-40h-.5v10h10v-.5h-9.5V180zm0 20h-.5v10h10v-.5h-9.5V200zm0 20h-.5v10h10v-.5h-9.5V220zm20-40h-.5v10h10v-.5h-9.5V180zm0 20h-.5v10h10v-.5h-9.5V200zm0 20h-.5v10h10v-.5h-9.5V220zm20-40h-.5v10h10v-.5h-9.5V180zm0 20h-.5v10h10v-.5h-9.5V200zm0 20h-.5v10h10v-.5h-9.5V220zm20-40h-.5v10h10v-.5h-9.5V180zm0 20h-.5v10h10v-.5h-9.5V200zm0 20h-.5v10h10v-.5h-9.5V220zm20-40h-.5v10h10v-.5h-9.5V180zm0 20h-.5v10h10v-.5h-9.5V200zm0 20h-.5v10h10v-.5h-9.5V220zm-100-30h-.5v10h10v-.5h-9.5V190zm0 20h-.5v10h10v-.5h-9.5V210zm0 20h-.5v10h10v-.5h-9.5V230zm20-40h-.5v10h10v-.5h-9.5V190zm0 20h-.5v10h10v-.5h-9.5V210zm0 20h-.5v10h10v-.5h-9.5V230zm20-40h-.5v10h10v-.5h-9.5V190zm0 20h-.5v10h10v-.5h-9.5V210zm0 20h-.5v10h10v-.5h-9.5V230zm20-40h-.5v10h10v-.5h-9.5V190zm0 20h-.5v10h10v-.5h-9.5V210zm0 20h-.5v10h10v-.5h-9.5V230zm20-40h-.5v10h10v-.5h-9.5V190zm0 20h-.5v10h10v-.5h-9.5V210zm0 20h-.5v10h10v-.5h-9.5V230zm20-40h-.5v10h10v-.5h-9.5V190zm0 20h-.5v10h10v-.5h-9.5V210zm0 20h-.5v10h10v-.5h-9.5V230zm-90-50h-.5v10h10v-.5h-9.5V180zm0 20h-.5v10h10v-.5h-9.5V200zm0 20h-.5v10h10v-.5h-9.5V220zm20-40h-.5v10h10v-.5h-9.5V180zm0 20h-.5v10h10v-.5h-9.5V200zm0 20h-.5v10h10v-.5h-9.5V220zm20-40h-.5v10h10v-.5h-9.5V180zm0 20h-.5v10h10v-.5h-9.5V200zm0 20h-.5v10h10v-.5h-9.5V220zm20-40h-.5v10h10v-.5h-9.5V180zm0 20h-.5v10h10v-.5h-9.5V200zm0 20h-.5v10h10v-.5h-9.5V220zm20-40h-.5v10h10v-.5h-9.5V180zm0 20h-.5v10h10v-.5h-9.5V200zm0 20h-.5v10h10v-.5h-9.5V220zm20-40h-.5v10h10v-.5h-9.5V180zm0 20h-.5v10h10v-.5h-9.5V200zm0 20h-.5v10h10v-.5h-9.5V220zm-100-30h-.5v10h10v-.5h-9.5V190zm0 20h-.5v10h10v-.5h-9.5V210zm0 20h-.5v10h10v-.5h-9.5V230zm20-40h-.5v10h10v-.5h-9.5V190zm0 20h-.5v10h10v-.5h-9.5V210zm0 20h-.5v10h10v-.5h-9.5V230zm20-40h-.5v10h10v-.5h-9.5V190zm0 20h-.5v10h10v-.5h-9.5V210zm0 20h-.5v10h10v-.5h-9.5V230zm20-40h-.5v10h10v-.5h-9.5V190zm0 20h-.5v10h10v-.5h-9.5V210zm0 20h-.5v10h10v-.5h-9.5V230zm20-40h-.5v10h10v-.5h-9.5V190zm0 20h-.5v10h10v-.5h-9.5V210zm0 20h-.5v10h10v-.5h-9.5V230zm20-40h-.5v10h10v-.5h-9.5V190zm0 20h-.5v10h10v-.5h-9.5V210zm0 20h-.5v10h10v-.5h-9.5V230zm10-230h-.5v10h10v-.5h-9.5V0zm0 20h-.5v10h10v-.5h-9.5V20zm0 20h-.5v10h10v-.5h-9.5V40zm20-40h-.5v10h10v-.5h-9.5V0zm0 20h-.5v10h10v-.5h-9.5V20zm0 20h-.5v10h10v-.5h-9.5V40zm20-40h-.5v10h10v-.5h-9.5V0zm0 20h-.5v10h10v-.5h-9.5V20zm0 20h-.5v10h10v-.5h-9.5V40zm20-40h-.5v10h10v-.5h-9.5V0zm0 20h-.5v10h10v-.5h-9.5V20zm0 20h-.5v10h10v-.5h-9.5V40zm-60-30h-.5v10h10v-.5h-9.5V10zm0 20h-.5v10h10v-.5h-9.5V30zm0 20h-.5v10h10v-.5h-9.5V50zm20-40h-.5v10h10v-.5h-9.5V10zm0 20h-.5v10h10v-.5h-9.5V30zm0 20h-.5v10h10v-.5h-9.5V50zm20-40h-.5v10h10v-.5h-9.5V10zm0 20h-.5v10h10v-.5h-9.5V30zm0 20h-.5v10h10v-.5h-9.5V50zm20-40h-.5v10h10v-.5h-9.5V10zm0 20h-.5v10h10v-.5h-9.5V30zm0 20h-.5v10h10v-.5h-9.5V50zm-50-50h-.5v10h10v-.5h-9.5V0zm0 20h-.5v10h10v-.5h-9.5V20zm0 20h-.5v10h10v-.5h-9.5V40zm20-40h-.5v10h10v-.5h-9.5V0zm0 20h-.5v10h10v-.5h-9.5V20zm0 20h-.5v10h10v-.5h-9.5V40zm20-40h-.5v10h10v-.5h-9.5V0zm0 20h-.5v10h10v-.5h-9.5V20zm0 20h-.5v10h10v-.5h-9.5V40zm-40-30h-.5v10h10v-.5h-9.5V10zm0 20h-.5v10h10v-.5h-9.5V30zm0 20h-.5v10h10v-.5h-9.5V50zm20-40h-.5v10h10v-.5h-9.5V10zm0 20h-.5v10h10v-.5h-9.5V30zm0 20h-.5v10h10v-.5h-9.5V50zm20-40h-.5v10h10v-.5h-9.5V10zm0 20h-.5v10h10v-.5h-9.5V30zm0 20h-.5v10h10v-.5h-9.5V50zm-50 10h-.5v10h10v-.5h-9.5V60zm0 20h-.5v10h10v-.5h-9.5V80zm0 20h-.5v10h10v-.5h-9.5V100zm20-40h-.5v10h10v-.5h-9.5V60zm0 20h-.5v10h10v-.5h-9.5V80zm0 20h-.5v10h10v-.5h-9.5V100zm20-40h-.5v10h10v-.5h-9.5V60zm0 20h-.5v10h10v-.5h-9.5V80zm0 20h-.5v10h10v-.5h-9.5V100zm20-40h-.5v10h10v-.5h-9.5V60zm0 20h-.5v10h10v-.5h-9.5V80zm0 20h-.5v10h10v-.5h-9.5V100zm-60-30h-.5v10h10v-.5h-9.5V70zm0 20h-.5v10h10v-.5h-9.5V90zm0 20h-.5v10h10v-.5h-9.5V110zm20-40h-.5v10h10v-.5h-9.5V70zm0 20h-.5v10h10v-.5h-9.5V90zm0 20h-.5v10h10v-.5h-9.5V110zm20-40h-.5v10h10v-.5h-9.5V70zm0 20h-.5v10h10v-.5h-9.5V90zm0 20h-.5v10h10v-.5h-9.5V110zm20-40h-.5v10h10v-.5h-9.5V70zm0 20h-.5v10h10v-.5h-9.5V90zm0 20h-.5v10h10v-.5h-9.5V110zm-50-50h-.5v10h10v-.5h-9.5V60zm0 20h-.5v10h10v-.5h-9.5V80zm0 20h-.5v10h10v-.5h-9.5V100zm20-40h-.5v10h10v-.5h-9.5V60zm0 20h-.5v10h10v-.5h-9.5V80zm0 20h-.5v10h10v-.5h-9.5V100zm20-40h-.5v10h10v-.5h-9.5V60zm0 20h-.5v10h10v-.5h-9.5V80zm0 20h-.5v10h10v-.5h-9.5V100zm-40-30h-.5v10h10v-.5h-9.5V70zm0 20h-.5v10h10v-.5h-9.5V90zm0 20h-.5v10h10v-.5h-9.5V110zm20-40h-.5v10h10v-.5h-9.5V70zm0 20h-.5v10h10v-.5h-9.5V90zm0 20h-.5v10h10v-.5h-9.5V110zm20-40h-.5v10h10v-.5h-9.5V70zm0 20h-.5v10h10v-.5h-9.5V90zm0 20h-.5v10h10v-.5h-9.5V110zm-50 10h-.5v10h10v-.5h-9.5V120zm0 20h-.5v10h10v-.5h-9.5V140zm0 20h-.5v10h10v-.5h-9.5V160zm20-40h-.5v10h10v-.5h-9.5V120zm0 20h-.5v10h10v-.5h-9.5V140zm0 20h-.5v10h10v-.5h-9.5V160zm20-40h-.5v10h10v-.5h-9.5V120zm0 20h-.5v10h10v-.5h-9.5V140zm0 20h-.5v10h10v-.5h-9.5V160zm20-40h-.5v10h10v-.5h-9.5V120zm0 20h-.5v10h10v-.5h-9.5V140zm0 20h-.5v10h10v-.5h-9.5V160zm-60-30h-.5v10h10v-.5h-9.5V130zm0 20h-.5v10h10v-.5h-9.5V150zm0 20h-.5v10h10v-.5h-9.5V170zm20-40h-.5v10h10v-.5h-9.5V130zm0 20h-.5v10h10v-.5h-9.5V150zm0 20h-.5v10h10v-.5h-9.5V170zm20-40h-.5v10h10v-.5h-9.5V130zm0 20h-.5v10h10v-.5h-9.5V150zm0 20h-.5v10h10v-.5h-9.5V170zm20-40h-.5v10h10v-.5h-9.5V130zm0 20h-.5v10h10v-.5h-9.5V150zm0 20h-.5v10h10v-.5h-9.5V170zm-50-50h-.5v10h10v-.5h-9.5V120zm0 20h-.5v10h10v-.5h-9.5V140zm0 20h-.5v10h10v-.5h-9.5V160zm20-40h-.5v10h10v-.5h-9.5V120zm0 20h-.5v10h10v-.5h-9.5V140zm0 20h-.5v10h10v-.5h-9.5V160zm20-40h-.5v10h10v-.5h-9.5V120zm0 20h-.5v10h10v-.5h-9.5V140zm0 20h-.5v10h10v-.5h-9.5V160zm-40-30h-.5v10h10v-.5h-9.5V130zm0 20h-.5v10h10v-.5h-9.5V150zm0 20h-.5v10h10v-.5h-9.5V170zm20-40h-.5v10h10v-.5h-9.5V130zm0 20h-.5v10h10v-.5h-9.5V150zm0 20h-.5v10h10v-.5h-9.5V170zm20-40h-.5v10h10v-.5h-9.5V130zm0 20h-.5v10h10v-.5h-9.5V150zm0 20h-.5v10h10v-.5h-9.5V170zm-50 10h-.5v10h10v-.5h-9.5V180zm0 20h-.5v10h10v-.5h-9.5V200zm0 20h-.5v10h10v-.5h-9.5V220zm20-40h-.5v10h10v-.5h-9.5V180zm0 20h-.5v10h10v-.5h-9.5V200zm0 20h-.5v10h10v-.5h-9.5V220zm20-40h-.5v10h10v-.5h-9.5V180zm0 20h-.5v10h10v-.5h-9.5V200zm0 20h-.5v10h10v-.5h-9.5V220zm20-40h-.5v10h10v-.5h-9.5V180zm0 20h-.5v10h10v-.5h-9.5V200zm0 20h-.5v10h10v-.5h-9.5V220zm-60-30h-.5v10h10v-.5h-9.5V190zm0 20h-.5v10h10v-.5h-9.5V210zm0 20h-.5v10h10v-.5h-9.5V230zm20-40h-.5v10h10v-.5h-9.5V190zm0 20h-.5v10h10v-.5h-9.5V210zm0 20h-.5v10h10v-.5h-9.5V230zm20-40h-.5v10h10v-.5h-9.5V190zm0 20h-.5v10h10v-.5h-9.5V210zm0 20h-.5v10h10v-.5h-9.5V230zm20-40h-.5v10h10v-.5h-9.5V190zm0 20h-.5v10h10v-.5h-9.5V210zm0 20h-.5v10h10v-.5h-9.5V230zm-50-50h-.5v10h10v-.5h-9.5V180zm0 20h-.5v10h10v-.5h-9.5V200zm0 20h-.5v10h10v-.5h-9.5V220zm20-40h-.5v10h10v-.5h-9.5V180zm0 20h-.5v10h10v-.5h-9.5V200zm0 20h-.5v10h10v-.5h-9.5V220zm20-40h-.5v10h10v-.5h-9.5V180zm0 20h-.5v10h10v-.5h-9.5V200zm0 20h-.5v10h10v-.5h-9.5V220zm-40-30h-.5v10h10v-.5h-9.5V190zm0 20h-.5v10h10v-.5h-9.5V210zm0 20h-.5v10h10v-.5h-9.5V230zm20-40h-.5v10h10v-.5h-9.5V190zm0 20h-.5v10h10v-.5h-9.5V210zm0 20h-.5v10h10v-.5h-9.5V230zm20-40h-.5v10h10v-.5h-9.5V190zm0 20h-.5v10h10v-.5h-9.5V210zm0 20h-.5v10h10v-.5h-9.5V230zM.5 240H0v10h10v-.5H.5V240zm0 20H0v10h10v-.5H.5V260zm20-20H20v10h10v-.5h-9.5V240zm0 20H20v10h10v-.5h-9.5V260zm20-20H40v10h10v-.5h-9.5V240zm0 20H40v10h10v-.5h-9.5V260zm20-20H60v10h10v-.5h-9.5V240zm0 20H60v10h10v-.5h-9.5V260zm20-20H80v10h10v-.5h-9.5V240zm0 20H80v10h10v-.5h-9.5V260zm20-20h-.5v10h10v-.5h-9.5V240zm0 20h-.5v10h10v-.5h-9.5V260zM.5 250H0v10h10v-.5H.5V250zm20 0H20v10h10v-.5h-9.5V250zm20 0H40v10h10v-.5h-9.5V250zm20 0H60v10h10v-.5h-9.5V250zm20 0H80v10h10v-.5h-9.5V250zm20 0h-.5v10h10v-.5h-9.5V250zm-90-10H10v10h10v-.5h-9.5V240zm0 20H10v10h10v-.5h-9.5V260zm20-20H30v10h10v-.5h-9.5V240zm0 20H30v10h10v-.5h-9.5V260zm20-20H50v10h10v-.5h-9.5V240zm0 20H50v10h10v-.5h-9.5V260zm20-20H70v10h10v-.5h-9.5V240zm0 20H70v10h10v-.5h-9.5V260zm20-20H90v10h10v-.5h-9.5V240zm0 20H90v10h10v-.5h-9.5V260zm20-20h-.5v10h10v-.5h-9.5V240zm0 20h-.5v10h10v-.5h-9.5V260zm-100-10H10v10h10v-.5h-9.5V250zm20 0H30v10h10v-.5h-9.5V250zm20 0H50v10h10v-.5h-9.5V250zm20 0H70v10h10v-.5h-9.5V250zm20 0H90v10h10v-.5h-9.5V250zm20 0h-.5v10h10v-.5h-9.5V250zm10-10h-.5v10h10v-.5h-9.5V240zm0 20h-.5v10h10v-.5h-9.5V260zm20-20h-.5v10h10v-.5h-9.5V240zm0 20h-.5v10h10v-.5h-9.5V260zm20-20h-.5v10h10v-.5h-9.5V240zm0 20h-.5v10h10v-.5h-9.5V260zm20-20h-.5v10h10v-.5h-9.5V240zm0 20h-.5v10h10v-.5h-9.5V260zm20-20h-.5v10h10v-.5h-9.5V240zm0 20h-.5v10h10v-.5h-9.5V260zm20-20h-.5v10h10v-.5h-9.5V240zm0 20h-.5v10h10v-.5h-9.5V260zm-100-10h-.5v10h10v-.5h-9.5V250zm20 0h-.5v10h10v-.5h-9.5V250zm20 0h-.5v10h10v-.5h-9.5V250zm20 0h-.5v10h10v-.5h-9.5V250zm20 0h-.5v10h10v-.5h-9.5V250zm20 0h-.5v10h10v-.5h-9.5V250zm-90-10h-.5v10h10v-.5h-9.5V240zm0 20h-.5v10h10v-.5h-9.5V260zm20-20h-.5v10h10v-.5h-9.5V240zm0 20h-.5v10h10v-.5h-9.5V260zm20-20h-.5v10h10v-.5h-9.5V240zm0 20h-.5v10h10v-.5h-9.5V260zm20-20h-.5v10h10v-.5h-9.5V240zm0 20h-.5v10h10v-.5h-9.5V260zm20-20h-.5v10h10v-.5h-9.5V240zm0 20h-.5v10h10v-.5h-9.5V260zm20-20h-.5v10h10v-.5h-9.5V240zm0 20h-.5v10h10v-.5h-9.5V260zm-100-10h-.5v10h10v-.5h-9.5V250zm20 0h-.5v10h10v-.5h-9.5V250zm20 0h-.5v10h10v-.5h-9.5V250zm20 0h-.5v10h10v-.5h-9.5V250zm20 0h-.5v10h10v-.5h-9.5V250zm20 0h-.5v10h10v-.5h-9.5V250zm10-10h-.5v10h10v-.5h-9.5V240zm0 20h-.5v10h10v-.5h-9.5V260zm20-20h-.5v10h10v-.5h-9.5V240zm0 20h-.5v10h10v-.5h-9.5V260zm20-20h-.5v10h10v-.5h-9.5V240zm0 20h-.5v10h10v-.5h-9.5V260zm20-20h-.5v10h10v-.5h-9.5V240zm0 20h-.5v10h10v-.5h-9.5V260zm-60-10h-.5v10h10v-.5h-9.5V250zm20 0h-.5v10h10v-.5h-9.5V250zm20 0h-.5v10h10v-.5h-9.5V250zm20 0h-.5v10h10v-.5h-9.5V250zm-50-10h-.5v10h10v-.5h-9.5V240zm0 20h-.5v10h10v-.5h-9.5V260zm20-20h-.5v10h10v-.5h-9.5V240zm0 20h-.5v10h10v-.5h-9.5V260zm20-20h-.5v10h10v-.5h-9.5V240zm0 20h-.5v10h10v-.5h-9.5V260zm-40-10h-.5v10h10v-.5h-9.5V250zm20 0h-.5v10h10v-.5h-9.5V250zm20 0h-.5v10h10v-.5h-9.5V250zm20-250h-.5v10h10v-.5h-9.5V0zm0 20h-.5v10h10v-.5h-9.5V20zm0 20h-.5v10h10v-.5h-9.5V40zm20-40h-.5v10h10v-.5h-9.5V0zm0 20h-.5v10h10v-.5h-9.5V20zm0 20h-.5v10h10v-.5h-9.5V40zm20-40h-.5v10h10v-.5h-9.5V0zm0 20h-.5v10h10v-.5h-9.5V20zm0 20h-.5v10h10v-.5h-9.5V40zm20-40h-.5v10h10v-.5h-9.5V0zm0 20h-.5v10h10v-.5h-9.5V20zm0 20h-.5v10h10v-.5h-9.5V40zm20-40h-.5v10h10v-.5h-9.5V0zm0 20h-.5v10h10v-.5h-9.5V20zm0 20h-.5v10h10v-.5h-9.5V40zm20-40h-.5v10h10v-.5h-9.5V0zm0 20h-.5v10h10v-.5h-9.5V20zm0 20h-.5v10h10v-.5h-9.5V40zm-100-30h-.5v10h10v-.5h-9.5V10zm0 20h-.5v10h10v-.5h-9.5V30zm0 20h-.5v10h10v-.5h-9.5V50zm20-40h-.5v10h10v-.5h-9.5V10zm0 20h-.5v10h10v-.5h-9.5V30zm0 20h-.5v10h10v-.5h-9.5V50zm20-40h-.5v10h10v-.5h-9.5V10zm0 20h-.5v10h10v-.5h-9.5V30zm0 20h-.5v10h10v-.5h-9.5V50zm20-40h-.5v10h10v-.5h-9.5V10zm0 20h-.5v10h10v-.5h-9.5V30zm0 20h-.5v10h10v-.5h-9.5V50zm20-40h-.5v10h10v-.5h-9.5V10zm0 20h-.5v10h10v-.5h-9.5V30zm0 20h-.5v10h10v-.5h-9.5V50zm20-40h-.5v10h10v-.5h-9.5V10zm0 20h-.5v10h10v-.5h-9.5V30zm0 20h-.5v10h10v-.5h-9.5V50zm-90-50h-.5v10h10v-.5h-9.5V0zm0 20h-.5v10h10v-.5h-9.5V20zm0 20h-.5v10h10v-.5h-9.5V40zm20-40h-.5v10h10v-.5h-9.5V0zm0 20h-.5v10h10v-.5h-9.5V20zm0 20h-.5v10h10v-.5h-9.5V40zm20-40h-.5v10h10v-.5h-9.5V0zm0 20h-.5v10h10v-.5h-9.5V20zm0 20h-.5v10h10v-.5h-9.5V40zm20-40h-.5v10h10v-.5h-9.5V0zm0 20h-.5v10h10v-.5h-9.5V20zm0 20h-.5v10h10v-.5h-9.5V40zm20-40h-.5v10h10v-.5h-9.5V0zm0 20h-.5v10h10v-.5h-9.5V20zm0 20h-.5v10h10v-.5h-9.5V40zm20-40h-.5v10h10v-.5h-9.5V0zm0 20h-.5v10h10v-.5h-9.5V20zm0 20h-.5v10h10v-.5h-9.5V40zm-100-30h-.5v10h10v-.5h-9.5V10zm0 20h-.5v10h10v-.5h-9.5V30zm0 20h-.5v10h10v-.5h-9.5V50zm20-40h-.5v10h10v-.5h-9.5V10zm0 20h-.5v10h10v-.5h-9.5V30zm0 20h-.5v10h10v-.5h-9.5V50zm20-40h-.5v10h10v-.5h-9.5V10zm0 20h-.5v10h10v-.5h-9.5V30zm0 20h-.5v10h10v-.5h-9.5V50zm20-40h-.5v10h10v-.5h-9.5V10zm0 20h-.5v10h10v-.5h-9.5V30zm0 20h-.5v10h10v-.5h-9.5V50zm20-40h-.5v10h10v-.5h-9.5V10zm0 20h-.5v10h10v-.5h-9.5V30zm0 20h-.5v10h10v-.5h-9.5V50zm20-40h-.5v10h10v-.5h-9.5V10zm0 20h-.5v10h10v-.5h-9.5V30zm0 20h-.5v10h10v-.5h-9.5V50zm-110 10h-.5v10h10v-.5h-9.5V60zm0 20h-.5v10h10v-.5h-9.5V80zm0 20h-.5v10h10v-.5h-9.5V100zm20-40h-.5v10h10v-.5h-9.5V60zm0 20h-.5v10h10v-.5h-9.5V80zm0 20h-.5v10h10v-.5h-9.5V100zm20-40h-.5v10h10v-.5h-9.5V60zm0 20h-.5v10h10v-.5h-9.5V80zm0 20h-.5v10h10v-.5h-9.5V100zm20-40h-.5v10h10v-.5h-9.5V60zm0 20h-.5v10h10v-.5h-9.5V80zm0 20h-.5v10h10v-.5h-9.5V100zm20-40h-.5v10h10v-.5h-9.5V60zm0 20h-.5v10h10v-.5h-9.5V80zm0 20h-.5v10h10v-.5h-9.5V100zm20-40h-.5v10h10v-.5h-9.5V60zm0 20h-.5v10h10v-.5h-9.5V80zm0 20h-.5v10h10v-.5h-9.5V100zm-100-30h-.5v10h10v-.5h-9.5V70zm0 20h-.5v10h10v-.5h-9.5V90zm0 20h-.5v10h10v-.5h-9.5V110zm20-40h-.5v10h10v-.5h-9.5V70zm0 20h-.5v10h10v-.5h-9.5V90zm0 20h-.5v10h10v-.5h-9.5V110zm20-40h-.5v10h10v-.5h-9.5V70zm0 20h-.5v10h10v-.5h-9.5V90zm0 20h-.5v10h10v-.5h-9.5V110zm20-40h-.5v10h10v-.5h-9.5V70zm0 20h-.5v10h10v-.5h-9.5V90zm0 20h-.5v10h10v-.5h-9.5V110zm20-40h-.5v10h10v-.5h-9.5V70zm0 20h-.5v10h10v-.5h-9.5V90zm0 20h-.5v10h10v-.5h-9.5V110zm20-40h-.5v10h10v-.5h-9.5V70zm0 20h-.5v10h10v-.5h-9.5V90zm0 20h-.5v10h10v-.5h-9.5V110zm-90-50h-.5v10h10v-.5h-9.5V60zm0 20h-.5v10h10v-.5h-9.5V80zm0 20h-.5v10h10v-.5h-9.5V100zm20-40h-.5v10h10v-.5h-9.5V60zm0 20h-.5v10h10v-.5h-9.5V80zm0 20h-.5v10h10v-.5h-9.5V100zm20-40h-.5v10h10v-.5h-9.5V60zm0 20h-.5v10h10v-.5h-9.5V80zm0 20h-.5v10h10v-.5h-9.5V100zm20-40h-.5v10h10v-.5h-9.5V60zm0 20h-.5v10h10v-.5h-9.5V80zm0 20h-.5v10h10v-.5h-9.5V100zm20-40h-.5v10h10v-.5h-9.5V60zm0 20h-.5v10h10v-.5h-9.5V80zm0 20h-.5v10h10v-.5h-9.5V100zm20-40h-.5v10h10v-.5h-9.5V60zm0 20h-.5v10h10v-.5h-9.5V80zm0 20h-.5v10h10v-.5h-9.5V100zm-100-30h-.5v10h10v-.5h-9.5V70zm0 20h-.5v10h10v-.5h-9.5V90zm0 20h-.5v10h10v-.5h-9.5V110zm20-40h-.5v10h10v-.5h-9.5V70zm0 20h-.5v10h10v-.5h-9.5V90zm0 20h-.5v10h10v-.5h-9.5V110zm20-40h-.5v10h10v-.5h-9.5V70zm0 20h-.5v10h10v-.5h-9.5V90zm0 20h-.5v10h10v-.5h-9.5V110zm20-40h-.5v10h10v-.5h-9.5V70zm0 20h-.5v10h10v-.5h-9.5V90zm0 20h-.5v10h10v-.5h-9.5V110zm20-40h-.5v10h10v-.5h-9.5V70zm0 20h-.5v10h10v-.5h-9.5V90zm0 20h-.5v10h10v-.5h-9.5V110zm20-40h-.5v10h10v-.5h-9.5V70zm0 20h-.5v10h10v-.5h-9.5V90zm0 20h-.5v10h10v-.5h-9.5V110zm-110 10h-.5v10h10v-.5h-9.5V120zm0 20h-.5v10h10v-.5h-9.5V140zm0 20h-.5v10h10v-.5h-9.5V160zm20-40h-.5v10h10v-.5h-9.5V120zm0 20h-.5v10h10v-.5h-9.5V140zm0 20h-.5v10h10v-.5h-9.5V160zm20-40h-.5v10h10v-.5h-9.5V120zm0 20h-.5v10h10v-.5h-9.5V140zm0 20h-.5v10h10v-.5h-9.5V160zm20-40h-.5v10h10v-.5h-9.5V120zm0 20h-.5v10h10v-.5h-9.5V140zm0 20h-.5v10h10v-.5h-9.5V160zm20-40h-.5v10h10v-.5h-9.5V120zm0 20h-.5v10h10v-.5h-9.5V140zm0 20h-.5v10h10v-.5h-9.5V160zm20-40h-.5v10h10v-.5h-9.5V120zm0 20h-.5v10h10v-.5h-9.5V140zm0 20h-.5v10h10v-.5h-9.5V160zm-100-30h-.5v10h10v-.5h-9.5V130zm0 20h-.5v10h10v-.5h-9.5V150zm0 20h-.5v10h10v-.5h-9.5V170zm20-40h-.5v10h10v-.5h-9.5V130zm0 20h-.5v10h10v-.5h-9.5V150zm0 20h-.5v10h10v-.5h-9.5V170zm20-40h-.5v10h10v-.5h-9.5V130zm0 20h-.5v10h10v-.5h-9.5V150zm0 20h-.5v10h10v-.5h-9.5V170zm20-40h-.5v10h10v-.5h-9.5V130zm0 20h-.5v10h10v-.5h-9.5V150zm0 20h-.5v10h10v-.5h-9.5V170zm20-40h-.5v10h10v-.5h-9.5V130zm0 20h-.5v10h10v-.5h-9.5V150zm0 20h-.5v10h10v-.5h-9.5V170zm20-40h-.5v10h10v-.5h-9.5V130zm0 20h-.5v10h10v-.5h-9.5V150zm0 20h-.5v10h10v-.5h-9.5V170zm-90-50h-.5v10h10v-.5h-9.5V120zm0 20h-.5v10h10v-.5h-9.5V140zm0 20h-.5v10h10v-.5h-9.5V160zm20-40h-.5v10h10v-.5h-9.5V120zm0 20h-.5v10h10v-.5h-9.5V140zm0 20h-.5v10h10v-.5h-9.5V160zm20-40h-.5v10h10v-.5h-9.5V120zm0 20h-.5v10h10v-.5h-9.5V140zm0 20h-.5v10h10v-.5h-9.5V160zm20-40h-.5v10h10v-.5h-9.5V120zm0 20h-.5v10h10v-.5h-9.5V140zm0 20h-.5v10h10v-.5h-9.5V160zm20-40h-.5v10h10v-.5h-9.5V120zm0 20h-.5v10h10v-.5h-9.5V140zm0 20h-.5v10h10v-.5h-9.5V160zm20-40h-.5v10h10v-.5h-9.5V120zm0 20h-.5v10h10v-.5h-9.5V140zm0 20h-.5v10h10v-.5h-9.5V160zm-100-30h-.5v10h10v-.5h-9.5V130zm0 20h-.5v10h10v-.5h-9.5V150zm0 20h-.5v10h10v-.5h-9.5V170zm20-40h-.5v10h10v-.5h-9.5V130zm0 20h-.5v10h10v-.5h-9.5V150zm0 20h-.5v10h10v-.5h-9.5V170zm20-40h-.5v10h10v-.5h-9.5V130zm0 20h-.5v10h10v-.5h-9.5V150zm0 20h-.5v10h10v-.5h-9.5V170zm20-40h-.5v10h10v-.5h-9.5V130zm0 20h-.5v10h10v-.5h-9.5V150zm0 20h-.5v10h10v-.5h-9.5V170zm20-40h-.5v10h10v-.5h-9.5V130zm0 20h-.5v10h10v-.5h-9.5V150zm0 20h-.5v10h10v-.5h-9.5V170zm20-40h-.5v10h10v-.5h-9.5V130zm0 20h-.5v10h10v-.5h-9.5V150zm0 20h-.5v10h10v-.5h-9.5V170zm-110 10h-.5v10h10v-.5h-9.5V180zm0 20h-.5v10h10v-.5h-9.5V200zm0 20h-.5v10h10v-.5h-9.5V220zm20-40h-.5v10h10v-.5h-9.5V180zm0 20h-.5v10h10v-.5h-9.5V200zm0 20h-.5v10h10v-.5h-9.5V220zm20-40h-.5v10h10v-.5h-9.5V180zm0 20h-.5v10h10v-.5h-9.5V200zm0 20h-.5v10h10v-.5h-9.5V220zm20-40h-.5v10h10v-.5h-9.5V180zm0 20h-.5v10h10v-.5h-9.5V200zm0 20h-.5v10h10v-.5h-9.5V220zm20-40h-.5v10h10v-.5h-9.5V180zm0 20h-.5v10h10v-.5h-9.5V200zm0 20h-.5v10h10v-.5h-9.5V220zm20-40h-.5v10h10v-.5h-9.5V180zm0 20h-.5v10h10v-.5h-9.5V200zm0 20h-.5v10h10v-.5h-9.5V220zm-100-30h-.5v10h10v-.5h-9.5V190zm0 20h-.5v10h10v-.5h-9.5V210zm0 20h-.5v10h10v-.5h-9.5V230zm20-40h-.5v10h10v-.5h-9.5V190zm0 20h-.5v10h10v-.5h-9.5V210zm0 20h-.5v10h10v-.5h-9.5V230zm20-40h-.5v10h10v-.5h-9.5V190zm0 20h-.5v10h10v-.5h-9.5V210zm0 20h-.5v10h10v-.5h-9.5V230zm20-40h-.5v10h10v-.5h-9.5V190zm0 20h-.5v10h10v-.5h-9.5V210zm0 20h-.5v10h10v-.5h-9.5V230zm20-40h-.5v10h10v-.5h-9.5V190zm0 20h-.5v10h10v-.5h-9.5V210zm0 20h-.5v10h10v-.5h-9.5V230zm20-40h-.5v10h10v-.5h-9.5V190zm0 20h-.5v10h10v-.5h-9.5V210zm0 20h-.5v10h10v-.5h-9.5V230zm-90-50h-.5v10h10v-.5h-9.5V180zm0 20h-.5v10h10v-.5h-9.5V200zm0 20h-.5v10h10v-.5h-9.5V220zm20-40h-.5v10h10v-.5h-9.5V180zm0 20h-.5v10h10v-.5h-9.5V200zm0 20h-.5v10h10v-.5h-9.5V220zm20-40h-.5v10h10v-.5h-9.5V180zm0 20h-.5v10h10v-.5h-9.5V200zm0 20h-.5v10h10v-.5h-9.5V220zm20-40h-.5v10h10v-.5h-9.5V180zm0 20h-.5v10h10v-.5h-9.5V200zm0 20h-.5v10h10v-.5h-9.5V220zm20-40h-.5v10h10v-.5h-9.5V180zm0 20h-.5v10h10v-.5h-9.5V200zm0 20h-.5v10h10v-.5h-9.5V220zm20-40h-.5v10h10v-.5h-9.5V180zm0 20h-.5v10h10v-.5h-9.5V200zm0 20h-.5v10h10v-.5h-9.5V220zm-100-30h-.5v10h10v-.5h-9.5V190zm0 20h-.5v10h10v-.5h-9.5V210zm0 20h-.5v10h10v-.5h-9.5V230zm20-40h-.5v10h10v-.5h-9.5V190zm0 20h-.5v10h10v-.5h-9.5V210zm0 20h-.5v10h10v-.5h-9.5V230zm20-40h-.5v10h10v-.5h-9.5V190zm0 20h-.5v10h10v-.5h-9.5V210zm0 20h-.5v10h10v-.5h-9.5V230zm20-40h-.5v10h10v-.5h-9.5V190zm0 20h-.5v10h10v-.5h-9.5V210zm0 20h-.5v10h10v-.5h-9.5V230zm20-40h-.5v10h10v-.5h-9.5V190zm0 20h-.5v10h10v-.5h-9.5V210zm0 20h-.5v10h10v-.5h-9.5V230zm20-40h-.5v10h10v-.5h-9.5V190zm0 20h-.5v10h10v-.5h-9.5V210zm0 20h-.5v10h10v-.5h-9.5V230zm10-230h-.5v10h10v-.5h-9.5V0zm0 20h-.5v10h10v-.5h-9.5V20zm0 20h-.5v10h10v-.5h-9.5V40zm20-40h-.5v10h10v-.5h-9.5V0zm0 20h-.5v10h10v-.5h-9.5V20zm0 20h-.5v10h10v-.5h-9.5V40zm20-40h-.5v10h10v-.5h-9.5V0zm0 20h-.5v10h10v-.5h-9.5V20zm0 20h-.5v10h10v-.5h-9.5V40zm20-40h-.5v10h10v-.5h-9.5V0zm0 20h-.5v10h10v-.5h-9.5V20zm0 20h-.5v10h10v-.5h-9.5V40zm20-40h-.5v10h10v-.5h-9.5V0zm0 20h-.5v10h10v-.5h-9.5V20zm0 20h-.5v10h10v-.5h-9.5V40zm20-40h-.5v10h10v-.5h-9.5V0zm0 20h-.5v10h10v-.5h-9.5V20zm0 20h-.5v10h10v-.5h-9.5V40zm-100-30h-.5v10h10v-.5h-9.5V10zm0 20h-.5v10h10v-.5h-9.5V30zm0 20h-.5v10h10v-.5h-9.5V50zm20-40h-.5v10h10v-.5h-9.5V10zm0 20h-.5v10h10v-.5h-9.5V30zm0 20h-.5v10h10v-.5h-9.5V50zm20-40h-.5v10h10v-.5h-9.5V10zm0 20h-.5v10h10v-.5h-9.5V30zm0 20h-.5v10h10v-.5h-9.5V50zm20-40h-.5v10h10v-.5h-9.5V10zm0 20h-.5v10h10v-.5h-9.5V30zm0 20h-.5v10h10v-.5h-9.5V50zm20-40h-.5v10h10v-.5h-9.5V10zm0 20h-.5v10h10v-.5h-9.5V30zm0 20h-.5v10h10v-.5h-9.5V50zm20-40h-.5v10h10v-.5h-9.5V10zm0 20h-.5v10h10v-.5h-9.5V30zm0 20h-.5v10h10v-.5h-9.5V50zm-90-50h-.5v10h10v-.5h-9.5V0zm0 20h-.5v10h10v-.5h-9.5V20zm0 20h-.5v10h10v-.5h-9.5V40zm20-40h-.5v10h10v-.5h-9.5V0zm0 20h-.5v10h10v-.5h-9.5V20zm0 20h-.5v10h10v-.5h-9.5V40zm20-40h-.5v10h10v-.5h-9.5V0zm0 20h-.5v10h10v-.5h-9.5V20zm0 20h-.5v10h10v-.5h-9.5V40zm20-40h-.5v10h10v-.5h-9.5V0zm0 20h-.5v10h10v-.5h-9.5V20zm0 20h-.5v10h10v-.5h-9.5V40zm20-40h-.5v10h10v-.5h-9.5V0zm0 20h-.5v10h10v-.5h-9.5V20zm0 20h-.5v10h10v-.5h-9.5V40zm20-40h-.5v10h10v-.5h-9.5V0zm0 20h-.5v10h10v-.5h-9.5V20zm0 20h-.5v10h10v-.5h-9.5V40zm-100-30h-.5v10h10v-.5h-9.5V10zm0 20h-.5v10h10v-.5h-9.5V30zm0 20h-.5v10h10v-.5h-9.5V50zm20-40h-.5v10h10v-.5h-9.5V10zm0 20h-.5v10h10v-.5h-9.5V30zm0 20h-.5v10h10v-.5h-9.5V50zm20-40h-.5v10h10v-.5h-9.5V10zm0 20h-.5v10h10v-.5h-9.5V30zm0 20h-.5v10h10v-.5h-9.5V50zm20-40h-.5v10h10v-.5h-9.5V10zm0 20h-.5v10h10v-.5h-9.5V30zm0 20h-.5v10h10v-.5h-9.5V50zm20-40h-.5v10h10v-.5h-9.5V10zm0 20h-.5v10h10v-.5h-9.5V30zm0 20h-.5v10h10v-.5h-9.5V50zm20-40h-.5v10h10v-.5h-9.5V10zm0 20h-.5v10h10v-.5h-9.5V30zm0 20h-.5v10h10v-.5h-9.5V50zm-110 10h-.5v10h10v-.5h-9.5V60zm0 20h-.5v10h10v-.5h-9.5V80zm0 20h-.5v10h10v-.5h-9.5V100zm20-40h-.5v10h10v-.5h-9.5V60zm0 20h-.5v10h10v-.5h-9.5V80zm0 20h-.5v10h10v-.5h-9.5V100zm20-40h-.5v10h10v-.5h-9.5V60zm0 20h-.5v10h10v-.5h-9.5V80zm0 20h-.5v10h10v-.5h-9.5V100zm20-40h-.5v10h10v-.5h-9.5V60zm0 20h-.5v10h10v-.5h-9.5V80zm0 20h-.5v10h10v-.5h-9.5V100zm20-40h-.5v10h10v-.5h-9.5V60zm0 20h-.5v10h10v-.5h-9.5V80zm0 20h-.5v10h10v-.5h-9.5V100zm20-40h-.5v10h10v-.5h-9.5V60zm0 20h-.5v10h10v-.5h-9.5V80zm0 20h-.5v10h10v-.5h-9.5V100zm-100-30h-.5v10h10v-.5h-9.5V70zm0 20h-.5v10h10v-.5h-9.5V90zm0 20h-.5v10h10v-.5h-9.5V110zm20-40h-.5v10h10v-.5h-9.5V70zm0 20h-.5v10h10v-.5h-9.5V90zm0 20h-.5v10h10v-.5h-9.5V110zm20-40h-.5v10h10v-.5h-9.5V70zm0 20h-.5v10h10v-.5h-9.5V90zm0 20h-.5v10h10v-.5h-9.5V110zm20-40h-.5v10h10v-.5h-9.5V70zm0 20h-.5v10h10v-.5h-9.5V90zm0 20h-.5v10h10v-.5h-9.5V110zm20-40h-.5v10h10v-.5h-9.5V70zm0 20h-.5v10h10v-.5h-9.5V90zm0 20h-.5v10h10v-.5h-9.5V110zm20-40h-.5v10h10v-.5h-9.5V70zm0 20h-.5v10h10v-.5h-9.5V90zm0 20h-.5v10h10v-.5h-9.5V110zm-90-50h-.5v10h10v-.5h-9.5V60zm0 20h-.5v10h10v-.5h-9.5V80zm0 20h-.5v10h10v-.5h-9.5V100zm20-40h-.5v10h10v-.5h-9.5V60zm0 20h-.5v10h10v-.5h-9.5V80zm0 20h-.5v10h10v-.5h-9.5V100zm20-40h-.5v10h10v-.5h-9.5V60zm0 20h-.5v10h10v-.5h-9.5V80zm0 20h-.5v10h10v-.5h-9.5V100zm20-40h-.5v10h10v-.5h-9.5V60zm0 20h-.5v10h10v-.5h-9.5V80zm0 20h-.5v10h10v-.5h-9.5V100zm20-40h-.5v10h10v-.5h-9.5V60zm0 20h-.5v10h10v-.5h-9.5V80zm0 20h-.5v10h10v-.5h-9.5V100zm20-40h-.5v10h10v-.5h-9.5V60zm0 20h-.5v10h10v-.5h-9.5V80zm0 20h-.5v10h10v-.5h-9.5V100zm-100-30h-.5v10h10v-.5h-9.5V70zm0 20h-.5v10h10v-.5h-9.5V90zm0 20h-.5v10h10v-.5h-9.5V110zm20-40h-.5v10h10v-.5h-9.5V70zm0 20h-.5v10h10v-.5h-9.5V90zm0 20h-.5v10h10v-.5h-9.5V110zm20-40h-.5v10h10v-.5h-9.5V70zm0 20h-.5v10h10v-.5h-9.5V90zm0 20h-.5v10h10v-.5h-9.5V110zm20-40h-.5v10h10v-.5h-9.5V70zm0 20h-.5v10h10v-.5h-9.5V90zm0 20h-.5v10h10v-.5h-9.5V110zm20-40h-.5v10h10v-.5h-9.5V70zm0 20h-.5v10h10v-.5h-9.5V90zm0 20h-.5v10h10v-.5h-9.5V110zm20-40h-.5v10h10v-.5h-9.5V70zm0 20h-.5v10h10v-.5h-9.5V90zm0 20h-.5v10h10v-.5h-9.5V110zm-110 10h-.5v10h10v-.5h-9.5V120zm0 20h-.5v10h10v-.5h-9.5V140zm0 20h-.5v10h10v-.5h-9.5V160zm20-40h-.5v10h10v-.5h-9.5V120zm0 20h-.5v10h10v-.5h-9.5V140zm0 20h-.5v10h10v-.5h-9.5V160zm20-40h-.5v10h10v-.5h-9.5V120zm0 20h-.5v10h10v-.5h-9.5V140zm0 20h-.5v10h10v-.5h-9.5V160zm20-40h-.5v10h10v-.5h-9.5V120zm0 20h-.5v10h10v-.5h-9.5V140zm0 20h-.5v10h10v-.5h-9.5V160zm20-40h-.5v10h10v-.5h-9.5V120zm0 20h-.5v10h10v-.5h-9.5V140zm0 20h-.5v10h10v-.5h-9.5V160zm20-40h-.5v10h10v-.5h-9.5V120zm0 20h-.5v10h10v-.5h-9.5V140zm0 20h-.5v10h10v-.5h-9.5V160zm-100-30h-.5v10h10v-.5h-9.5V130zm0 20h-.5v10h10v-.5h-9.5V150zm0 20h-.5v10h10v-.5h-9.5V170zm20-40h-.5v10h10v-.5h-9.5V130zm0 20h-.5v10h10v-.5h-9.5V150zm0 20h-.5v10h10v-.5h-9.5V170zm20-40h-.5v10h10v-.5h-9.5V130zm0 20h-.5v10h10v-.5h-9.5V150zm0 20h-.5v10h10v-.5h-9.5V170zm20-40h-.5v10h10v-.5h-9.5V130zm0 20h-.5v10h10v-.5h-9.5V150zm0 20h-.5v10h10v-.5h-9.5V170zm20-40h-.5v10h10v-.5h-9.5V130zm0 20h-.5v10h10v-.5h-9.5V150zm0 20h-.5v10h10v-.5h-9.5V170zm20-40h-.5v10h10v-.5h-9.5V130zm0 20h-.5v10h10v-.5h-9.5V150zm0 20h-.5v10h10v-.5h-9.5V170zm-90-50h-.5v10h10v-.5h-9.5V120zm0 20h-.5v10h10v-.5h-9.5V140zm0 20h-.5v10h10v-.5h-9.5V160zm20-40h-.5v10h10v-.5h-9.5V120zm0 20h-.5v10h10v-.5h-9.5V140zm0 20h-.5v10h10v-.5h-9.5V160zm20-40h-.5v10h10v-.5h-9.5V120zm0 20h-.5v10h10v-.5h-9.5V140zm0 20h-.5v10h10v-.5h-9.5V160zm20-40h-.5v10h10v-.5h-9.5V120zm0 20h-.5v10h10v-.5h-9.5V140zm0 20h-.5v10h10v-.5h-9.5V160zm20-40h-.5v10h10v-.5h-9.5V120zm0 20h-.5v10h10v-.5h-9.5V140zm0 20h-.5v10h10v-.5h-9.5V160zm20-40h-.5v10h10v-.5h-9.5V120zm0 20h-.5v10h10v-.5h-9.5V140zm0 20h-.5v10h10v-.5h-9.5V160zm-100-30h-.5v10h10v-.5h-9.5V130zm0 20h-.5v10h10v-.5h-9.5V150zm0 20h-.5v10h10v-.5h-9.5V170zm20-40h-.5v10h10v-.5h-9.5V130zm0 20h-.5v10h10v-.5h-9.5V150zm0 20h-.5v10h10v-.5h-9.5V170zm20-40h-.5v10h10v-.5h-9.5V130zm0 20h-.5v10h10v-.5h-9.5V150zm0 20h-.5v10h10v-.5h-9.5V170zm20-40h-.5v10h10v-.5h-9.5V130zm0 20h-.5v10h10v-.5h-9.5V150zm0 20h-.5v10h10v-.5h-9.5V170zm20-40h-.5v10h10v-.5h-9.5V130zm0 20h-.5v10h10v-.5h-9.5V150zm0 20h-.5v10h10v-.5h-9.5V170zm20-40h-.5v10h10v-.5h-9.5V130zm0 20h-.5v10h10v-.5h-9.5V150zm0 20h-.5v10h10v-.5h-9.5V170zm-110 10h-.5v10h10v-.5h-9.5V180zm0 20h-.5v10h10v-.5h-9.5V200zm0 20h-.5v10h10v-.5h-9.5V220zm20-40h-.5v10h10v-.5h-9.5V180zm0 20h-.5v10h10v-.5h-9.5V200zm0 20h-.5v10h10v-.5h-9.5V220zm20-40h-.5v10h10v-.5h-9.5V180zm0 20h-.5v10h10v-.5h-9.5V200zm0 20h-.5v10h10v-.5h-9.5V220zm20-40h-.5v10h10v-.5h-9.5V180zm0 20h-.5v10h10v-.5h-9.5V200zm0 20h-.5v10h10v-.5h-9.5V220zm20-40h-.5v10h10v-.5h-9.5V180zm0 20h-.5v10h10v-.5h-9.5V200zm0 20h-.5v10h10v-.5h-9.5V220zm20-40h-.5v10h10v-.5h-9.5V180zm0 20h-.5v10h10v-.5h-9.5V200zm0 20h-.5v10h10v-.5h-9.5V220zm-100-30h-.5v10h10v-.5h-9.5V190zm0 20h-.5v10h10v-.5h-9.5V210zm0 20h-.5v10h10v-.5h-9.5V230zm20-40h-.5v10h10v-.5h-9.5V190zm0 20h-.5v10h10v-.5h-9.5V210zm0 20h-.5v10h10v-.5h-9.5V230zm20-40h-.5v10h10v-.5h-9.5V190zm0 20h-.5v10h10v-.5h-9.5V210zm0 20h-.5v10h10v-.5h-9.5V230zm20-40h-.5v10h10v-.5h-9.5V190zm0 20h-.5v10h10v-.5h-9.5V210zm0 20h-.5v10h10v-.5h-9.5V230zm20-40h-.5v10h10v-.5h-9.5V190zm0 20h-.5v10h10v-.5h-9.5V210zm0 20h-.5v10h10v-.5h-9.5V230zm20-40h-.5v10h10v-.5h-9.5V190zm0 20h-.5v10h10v-.5h-9.5V210zm0 20h-.5v10h10v-.5h-9.5V230zm-90-50h-.5v10h10v-.5h-9.5V180zm0 20h-.5v10h10v-.5h-9.5V200zm0 20h-.5v10h10v-.5h-9.5V220zm20-40h-.5v10h10v-.5h-9.5V180zm0 20h-.5v10h10v-.5h-9.5V200zm0 20h-.5v10h10v-.5h-9.5V220zm20-40h-.5v10h10v-.5h-9.5V180zm0 20h-.5v10h10v-.5h-9.5V200zm0 20h-.5v10h10v-.5h-9.5V220zm20-40h-.5v10h10v-.5h-9.5V180zm0 20h-.5v10h10v-.5h-9.5V200zm0 20h-.5v10h10v-.5h-9.5V220zm20-40h-.5v10h10v-.5h-9.5V180zm0 20h-.5v10h10v-.5h-9.5V200zm0 20h-.5v10h10v-.5h-9.5V220zm20-40h-.5v10h10v-.5h-9.5V180zm0 20h-.5v10h10v-.5h-9.5V200zm0 20h-.5v10h10v-.5h-9.5V220zm-100-30h-.5v10h10v-.5h-9.5V190zm0 20h-.5v10h10v-.5h-9.5V210zm0 20h-.5v10h10v-.5h-9.5V230zm20-40h-.5v10h10v-.5h-9.5V190zm0 20h-.5v10h10v-.5h-9.5V210zm0 20h-.5v10h10v-.5h-9.5V230zm20-40h-.5v10h10v-.5h-9.5V190zm0 20h-.5v10h10v-.5h-9.5V210zm0 20h-.5v10h10v-.5h-9.5V230zm20-40h-.5v10h10v-.5h-9.5V190zm0 20h-.5v10h10v-.5h-9.5V210zm0 20h-.5v10h10v-.5h-9.5V230zm20-40h-.5v10h10v-.5h-9.5V190zm0 20h-.5v10h10v-.5h-9.5V210zm0 20h-.5v10h10v-.5h-9.5V230zm20-40h-.5v10h10v-.5h-9.5V190zm0 20h-.5v10h10v-.5h-9.5V210zm0 20h-.5v10h10v-.5h-9.5V230zm10-230h-.5v10h10v-.5h-9.5V0zm0 20h-.5v10h10v-.5h-9.5V20zm0 20h-.5v10h10v-.5h-9.5V40zm20-40h-.5v10h10v-.5h-9.5V0zm0 20h-.5v10h10v-.5h-9.5V20zm0 20h-.5v10h10v-.5h-9.5V40zm20-40h-.5v10h10v-.5h-9.5V0zm0 20h-.5v10h10v-.5h-9.5V20zm0 20h-.5v10h10v-.5h-9.5V40zm20-40h-.5v10h10v-.5h-9.5V0zm0 20h-.5v10h10v-.5h-9.5V20zm0 20h-.5v10h10v-.5h-9.5V40zm-60-30h-.5v10h10v-.5h-9.5V10zm0 20h-.5v10h10v-.5h-9.5V30zm0 20h-.5v10h10v-.5h-9.5V50zm20-40h-.5v10h10v-.5h-9.5V10zm0 20h-.5v10h10v-.5h-9.5V30zm0 20h-.5v10h10v-.5h-9.5V50zm20-40h-.5v10h10v-.5h-9.5V10zm0 20h-.5v10h10v-.5h-9.5V30zm0 20h-.5v10h10v-.5h-9.5V50zm20-40h-.5v10h10v-.5h-9.5V10zm0 20h-.5v10h10v-.5h-9.5V30zm0 20h-.5v10h10v-.5h-9.5V50zm-50-50h-.5v10h10v-.5h-9.5V0zm0 20h-.5v10h10v-.5h-9.5V20zm0 20h-.5v10h10v-.5h-9.5V40zm20-40h-.5v10h10v-.5h-9.5V0zm0 20h-.5v10h10v-.5h-9.5V20zm0 20h-.5v10h10v-.5h-9.5V40zm20-40h-.5v10h10v-.5h-9.5V0zm0 20h-.5v10h10v-.5h-9.5V20zm0 20h-.5v10h10v-.5h-9.5V40zm-40-30h-.5v10h10v-.5h-9.5V10zm0 20h-.5v10h10v-.5h-9.5V30zm0 20h-.5v10h10v-.5h-9.5V50zm20-40h-.5v10h10v-.5h-9.5V10zm0 20h-.5v10h10v-.5h-9.5V30zm0 20h-.5v10h10v-.5h-9.5V50zm20-40h-.5v10h10v-.5h-9.5V10zm0 20h-.5v10h10v-.5h-9.5V30zm0 20h-.5v10h10v-.5h-9.5V50zm-50 10h-.5v10h10v-.5h-9.5V60zm0 20h-.5v10h10v-.5h-9.5V80zm0 20h-.5v10h10v-.5h-9.5V100zm20-40h-.5v10h10v-.5h-9.5V60zm0 20h-.5v10h10v-.5h-9.5V80zm0 20h-.5v10h10v-.5h-9.5V100zm20-40h-.5v10h10v-.5h-9.5V60zm0 20h-.5v10h10v-.5h-9.5V80zm0 20h-.5v10h10v-.5h-9.5V100zm20-40h-.5v10h10v-.5h-9.5V60zm0 20h-.5v10h10v-.5h-9.5V80zm0 20h-.5v10h10v-.5h-9.5V100zm-60-30h-.5v10h10v-.5h-9.5V70zm0 20h-.5v10h10v-.5h-9.5V90zm0 20h-.5v10h10v-.5h-9.5V110zm20-40h-.5v10h10v-.5h-9.5V70zm0 20h-.5v10h10v-.5h-9.5V90zm0 20h-.5v10h10v-.5h-9.5V110zm20-40h-.5v10h10v-.5h-9.5V70zm0 20h-.5v10h10v-.5h-9.5V90zm0 20h-.5v10h10v-.5h-9.5V110zm20-40h-.5v10h10v-.5h-9.5V70zm0 20h-.5v10h10v-.5h-9.5V90zm0 20h-.5v10h10v-.5h-9.5V110zm-50-50h-.5v10h10v-.5h-9.5V60zm0 20h-.5v10h10v-.5h-9.5V80zm0 20h-.5v10h10v-.5h-9.5V100zm20-40h-.5v10h10v-.5h-9.5V60zm0 20h-.5v10h10v-.5h-9.5V80zm0 20h-.5v10h10v-.5h-9.5V100zm20-40h-.5v10h10v-.5h-9.5V60zm0 20h-.5v10h10v-.5h-9.5V80zm0 20h-.5v10h10v-.5h-9.5V100zm-40-30h-.5v10h10v-.5h-9.5V70zm0 20h-.5v10h10v-.5h-9.5V90zm0 20h-.5v10h10v-.5h-9.5V110zm20-40h-.5v10h10v-.5h-9.5V70zm0 20h-.5v10h10v-.5h-9.5V90zm0 20h-.5v10h10v-.5h-9.5V110zm20-40h-.5v10h10v-.5h-9.5V70zm0 20h-.5v10h10v-.5h-9.5V90zm0 20h-.5v10h10v-.5h-9.5V110zm-50 10h-.5v10h10v-.5h-9.5V120zm0 20h-.5v10h10v-.5h-9.5V140zm0 20h-.5v10h10v-.5h-9.5V160zm20-40h-.5v10h10v-.5h-9.5V120zm0 20h-.5v10h10v-.5h-9.5V140zm0 20h-.5v10h10v-.5h-9.5V160zm20-40h-.5v10h10v-.5h-9.5V120zm0 20h-.5v10h10v-.5h-9.5V140zm0 20h-.5v10h10v-.5h-9.5V160zm20-40h-.5v10h10v-.5h-9.5V120zm0 20h-.5v10h10v-.5h-9.5V140zm0 20h-.5v10h10v-.5h-9.5V160zm-60-30h-.5v10h10v-.5h-9.5V130zm0 20h-.5v10h10v-.5h-9.5V150zm0 20h-.5v10h10v-.5h-9.5V170zm20-40h-.5v10h10v-.5h-9.5V130zm0 20h-.5v10h10v-.5h-9.5V150zm0 20h-.5v10h10v-.5h-9.5V170zm20-40h-.5v10h10v-.5h-9.5V130zm0 20h-.5v10h10v-.5h-9.5V150zm0 20h-.5v10h10v-.5h-9.5V170zm20-40h-.5v10h10v-.5h-9.5V130zm0 20h-.5v10h10v-.5h-9.5V150zm0 20h-.5v10h10v-.5h-9.5V170zm-50-50h-.5v10h10v-.5h-9.5V120zm0 20h-.5v10h10v-.5h-9.5V140zm0 20h-.5v10h10v-.5h-9.5V160zm20-40h-.5v10h10v-.5h-9.5V120zm0 20h-.5v10h10v-.5h-9.5V140zm0 20h-.5v10h10v-.5h-9.5V160zm20-40h-.5v10h10v-.5h-9.5V120zm0 20h-.5v10h10v-.5h-9.5V140zm0 20h-.5v10h10v-.5h-9.5V160zm-40-30h-.5v10h10v-.5h-9.5V130zm0 20h-.5v10h10v-.5h-9.5V150zm0 20h-.5v10h10v-.5h-9.5V170zm20-40h-.5v10h10v-.5h-9.5V130zm0 20h-.5v10h10v-.5h-9.5V150zm0 20h-.5v10h10v-.5h-9.5V170zm20-40h-.5v10h10v-.5h-9.5V130zm0 20h-.5v10h10v-.5h-9.5V150zm0 20h-.5v10h10v-.5h-9.5V170zm-50 10h-.5v10h10v-.5h-9.5V180zm0 20h-.5v10h10v-.5h-9.5V200zm0 20h-.5v10h10v-.5h-9.5V220zm20-40h-.5v10h10v-.5h-9.5V180zm0 20h-.5v10h10v-.5h-9.5V200zm0 20h-.5v10h10v-.5h-9.5V220zm20-40h-.5v10h10v-.5h-9.5V180zm0 20h-.5v10h10v-.5h-9.5V200zm0 20h-.5v10h10v-.5h-9.5V220zm20-40h-.5v10h10v-.5h-9.5V180zm0 20h-.5v10h10v-.5h-9.5V200zm0 20h-.5v10h10v-.5h-9.5V220zm-60-30h-.5v10h10v-.5h-9.5V190zm0 20h-.5v10h10v-.5h-9.5V210zm0 20h-.5v10h10v-.5h-9.5V230zm20-40h-.5v10h10v-.5h-9.5V190zm0 20h-.5v10h10v-.5h-9.5V210zm0 20h-.5v10h10v-.5h-9.5V230zm20-40h-.5v10h10v-.5h-9.5V190zm0 20h-.5v10h10v-.5h-9.5V210zm0 20h-.5v10h10v-.5h-9.5V230zm20-40h-.5v10h10v-.5h-9.5V190zm0 20h-.5v10h10v-.5h-9.5V210zm0 20h-.5v10h10v-.5h-9.5V230zm-50-50h-.5v10h10v-.5h-9.5V180zm0 20h-.5v10h10v-.5h-9.5V200zm0 20h-.5v10h10v-.5h-9.5V220zm20-40h-.5v10h10v-.5h-9.5V180zm0 20h-.5v10h10v-.5h-9.5V200zm0 20h-.5v10h10v-.5h-9.5V220zm20-40h-.5v10h10v-.5h-9.5V180zm0 20h-.5v10h10v-.5h-9.5V200zm0 20h-.5v10h10v-.5h-9.5V220zm-40-30h-.5v10h10v-.5h-9.5V190zm0 20h-.5v10h10v-.5h-9.5V210zm0 20h-.5v10h10v-.5h-9.5V230zm20-40h-.5v10h10v-.5h-9.5V190zm0 20h-.5v10h10v-.5h-9.5V210zm0 20h-.5v10h10v-.5h-9.5V230zm20-40h-.5v10h10v-.5h-9.5V190zm0 20h-.5v10h10v-.5h-9.5V210zm0 20h-.5v10h10v-.5h-9.5V230zm-290 10h-.5v10h10v-.5h-9.5V240zm0 20h-.5v10h10v-.5h-9.5V260zm20-20h-.5v10h10v-.5h-9.5V240zm0 20h-.5v10h10v-.5h-9.5V260zm20-20h-.5v10h10v-.5h-9.5V240zm0 20h-.5v10h10v-.5h-9.5V260zm20-20h-.5v10h10v-.5h-9.5V240zm0 20h-.5v10h10v-.5h-9.5V260zm20-20h-.5v10h10v-.5h-9.5V240zm0 20h-.5v10h10v-.5h-9.5V260zm20-20h-.5v10h10v-.5h-9.5V240zm0 20h-.5v10h10v-.5h-9.5V260zm-100-10h-.5v10h10v-.5h-9.5V250zm20 0h-.5v10h10v-.5h-9.5V250zm20 0h-.5v10h10v-.5h-9.5V250zm20 0h-.5v10h10v-.5h-9.5V250zm20 0h-.5v10h10v-.5h-9.5V250zm20 0h-.5v10h10v-.5h-9.5V250zm-90-10h-.5v10h10v-.5h-9.5V240zm0 20h-.5v10h10v-.5h-9.5V260zm20-20h-.5v10h10v-.5h-9.5V240zm0 20h-.5v10h10v-.5h-9.5V260zm20-20h-.5v10h10v-.5h-9.5V240zm0 20h-.5v10h10v-.5h-9.5V260zm20-20h-.5v10h10v-.5h-9.5V240zm0 20h-.5v10h10v-.5h-9.5V260zm20-20h-.5v10h10v-.5h-9.5V240zm0 20h-.5v10h10v-.5h-9.5V260zm20-20h-.5v10h10v-.5h-9.5V240zm0 20h-.5v10h10v-.5h-9.5V260zm-100-10h-.5v10h10v-.5h-9.5V250zm20 0h-.5v10h10v-.5h-9.5V250zm20 0h-.5v10h10v-.5h-9.5V250zm20 0h-.5v10h10v-.5h-9.5V250zm20 0h-.5v10h10v-.5h-9.5V250zm20 0h-.5v10h10v-.5h-9.5V250zm10-10h-.5v10h10v-.5h-9.5V240zm0 20h-.5v10h10v-.5h-9.5V260zm20-20h-.5v10h10v-.5h-9.5V240zm0 20h-.5v10h10v-.5h-9.5V260zm20-20h-.5v10h10v-.5h-9.5V240zm0 20h-.5v10h10v-.5h-9.5V260zm20-20h-.5v10h10v-.5h-9.5V240zm0 20h-.5v10h10v-.5h-9.5V260zm20-20h-.5v10h10v-.5h-9.5V240zm0 20h-.5v10h10v-.5h-9.5V260zm20-20h-.5v10h10v-.5h-9.5V240zm0 20h-.5v10h10v-.5h-9.5V260zm-100-10h-.5v10h10v-.5h-9.5V250zm20 0h-.5v10h10v-.5h-9.5V250zm20 0h-.5v10h10v-.5h-9.5V250zm20 0h-.5v10h10v-.5h-9.5V250zm20 0h-.5v10h10v-.5h-9.5V250zm20 0h-.5v10h10v-.5h-9.5V250zm-90-10h-.5v10h10v-.5h-9.5V240zm0 20h-.5v10h10v-.5h-9.5V260zm20-20h-.5v10h10v-.5h-9.5V240zm0 20h-.5v10h10v-.5h-9.5V260zm20-20h-.5v10h10v-.5h-9.5V240zm0 20h-.5v10h10v-.5h-9.5V260zm20-20h-.5v10h10v-.5h-9.5V240zm0 20h-.5v10h10v-.5h-9.5V260zm20-20h-.5v10h10v-.5h-9.5V240zm0 20h-.5v10h10v-.5h-9.5V260zm20-20h-.5v10h10v-.5h-9.5V240zm0 20h-.5v10h10v-.5h-9.5V260zm-100-10h-.5v10h10v-.5h-9.5V250zm20 0h-.5v10h10v-.5h-9.5V250zm20 0h-.5v10h10v-.5h-9.5V250zm20 0h-.5v10h10v-.5h-9.5V250zm20 0h-.5v10h10v-.5h-9.5V250zm20 0h-.5v10h10v-.5h-9.5V250zm10-10h-.5v10h10v-.5h-9.5V240zm0 20h-.5v10h10v-.5h-9.5V260zm20-20h-.5v10h10v-.5h-9.5V240zm0 20h-.5v10h10v-.5h-9.5V260zm20-20h-.5v10h10v-.5h-9.5V240zm0 20h-.5v10h10v-.5h-9.5V260zm20-20h-.5v10h10v-.5h-9.5V240zm0 20h-.5v10h10v-.5h-9.5V260zm-60-10h-.5v10h10v-.5h-9.5V250zm20 0h-.5v10h10v-.5h-9.5V250zm20 0h-.5v10h10v-.5h-9.5V250zm20 0h-.5v10h10v-.5h-9.5V250zm-50-10h-.5v10h10v-.5h-9.5V240zm0 20h-.5v10h10v-.5h-9.5V260zm20-20h-.5v10h10v-.5h-9.5V240zm0 20h-.5v10h10v-.5h-9.5V260zm20-20h-.5v10h10v-.5h-9.5V240zm0 20h-.5v10h10v-.5h-9.5V260zm-40-10h-.5v10h10v-.5h-9.5V250zm20 0h-.5v10h10v-.5h-9.5V250zm20 0h-.5v10h10v-.5h-9.5V250z"/><path fill="#F2F4FF" d="M107.6 23.6l1.5-3.3c.1-.2 0-.5-.2-.6a.5.5 0 00-.6.2l-1.4 3-2.1-1.8a.5.5 0 00-.7 0v.7l2.3 2-1.3 2.9a.5.5 0 00.5.7c.2 0 .3-.2.4-.3l1.2-2.7 2.5 2.3c.1 0 .3.1.4 0h.3V26l-2.8-2.4zm5 .1c0-.3 0-.5-.3-.6-.3 0-.5 0-.6.4-.3 1.1 0 2.4.7 3.4 0 .2.3.3.5.2h.1c.3-.2.3-.5.2-.7-.6-.8-.8-1.8-.6-2.7zm1.3-2.7c0 .2.2.4.5.3l2.7-.2c.3-.1.4-.3.4-.6 0-.2-.2-.4-.5-.4l-2.7.3c-.3 0-.4.3-.4.5zm3.6.9l-3.2.6c-.3 0-.5.3-.4.5 0 .3.3.4.5.4l3.3-.6c.2 0 .4-.3.4-.5 0-.3-.3-.5-.6-.4zm4.1-14.3c.1-.3 0-.5-.3-.6-.2 0-.5 0-.6.3a28.5 28.5 0 005 25.5.5.5 0 00.7 0c.3 0 .3-.4.1-.6a27.5 27.5 0 01-4.9-24.6z"/><path fill="#F2F4FF" d="M122.5 13.4c-.3.6-.2 1.3.2 2 .3.4.8.7 1.3.7a2 2 0 001.7-1l.3 1.1c0 .3.3.4.5.4.3-.1.5-.4.4-.6l-1-3.7-.2-.4a.5.5 0 00-.8-.2c-1 .1-2 .6-2.4 1.7zm.9.4c.2-.7 1-1 1.5-1.2.2.5.3 1 .2 1.5-.1.6-.5 1-1 1-.3 0-.5-.2-.6-.3-.2-.3-.3-.7-.1-1zm8.1-1c-.1-.3-.4-.4-.6-.3l-.6.2-.3-1.3c0-.3-.3-.4-.6-.3-.3 0-.4.3-.3.5l.3 1.4-.9.3a.5.5 0 00.2 1h.1l.8-.4.3 1a.5.5 0 00.5.3c.3 0 .4-.3.4-.6l-.3-1 .7-.2c.2-.1.4-.4.3-.6zm3.6-.2c-.2 0-.5.2-.5.5 0 .2.2.4.5.5a2 2 0 001.6-.8c.4-.4.5-1 .4-1.6-.1-.5-.6-1-1.2-1.2.1-.5.1-1-.1-1.6a2 2 0 00-1.3-1 2 2 0 00-1.6.2c-.9.6-1.2 1.9-1 3.5.4 1.6 1.2 3.2 2.2 4.5.1.2.3.2.5.2l.2-.1c.2-.2.2-.5 0-.7-.9-1.2-1.6-2.6-1.9-4.1 0-.5-.3-2 .5-2.5.3-.1.6-.2.9 0 .3 0 .5.2.7.5v.8l-.2.3-.6.4c-.2.2-.2.4 0 .6 0 .2.3.3.5.2.2 0 .4-.2.5-.3h.4c.3 0 .5.3.6.5 0 .3 0 .6-.2.8a1 1 0 01-.9.4zm5.3.2c.3-.1.5-.3.5-.6l-.2-1.2.7-.3c.2 0 .4-.3.3-.6a.5.5 0 00-.7-.2l-.4.1-.2-1.3c0-.2-.2-.4-.5-.4s-.4.3-.4.5l.2 1.6-.8.3c-.2.1-.4.4-.3.6.1.3.3.4.6.3l.6-.2.1 1c0 .2.3.4.6.4zm4.3-3.5L146 15c0 .2.3.4.5.4.3 0 .5-.3.5-.5v-4l.1-.5.1.2c.2.2.5.3.7.1.3-.2.4-.6.1-1-.2-.4-.7-.6-1.2-.4-.6.4-.6 1.2-.6 1.5v.2l-.5-1.9c0-.4-.2-1.3-1-1.6-.5-.2-1 0-1.3.5-.2.4-.2.8.2 1.1.2.2.5.1.6 0 .2-.2.2-.5 0-.7h.2c.2 0 .3.5.4.9zm5.3 6.6c-.1-.3-.4-.5-.6-.4l-25.8 4.2c-.2 0-.4.3-.4.5 0 .3.3.4.6.4l25.7-4.2c.3 0 .5-.3.4-.5zm-12.2 6.6l-1.8.4v-1.2c0-.5-.4-.9-.9-1.1-.3-.2-.7-.2-1-.1-.6.2-1 .9-1 1.6 0 .5.3 1 .5 1.4l2.2 4.3c0 .2.3.3.5.3h.1c.2-.2.3-.5.2-.7l-2.1-4.3c-.2-.4-.4-.7-.4-1 0-.4.1-.6.3-.7h.3c.2.1.4.3.4.5.1.5 0 1-.2 1.5a.5.5 0 00.6.6l1.6-.4-.9 2.1c0 .3 0 .5.3.6.2.1.5 0 .6-.2l1.2-3v-.5a.5.5 0 00-.5-.2zm2.6-2l-.7.1c0-.4-.1-.8-.4-1-.5-.6-1.4-.7-2-.3-.2.1-.3.4-.1.6.1.3.4.3.6.2.3-.2.6-.2.8 0 .2.3.2.6 0 .9v.5c0 .2.3.3.5.2l1.5-.3c.2-.1.4-.4.3-.6 0-.3-.3-.4-.5-.4z"/><path fill="#F2F4FF" d="M148.5 3.8c-.3.2-.3.5-.1.7 4.2 5.3 5.5 13 3.3 19.4-.2 0-.3.2-.3.4l-.1.8c0 .2 0 .4.3.5h.2c.2 0 .3-.2.4-.3 2.8-7 1.6-15.5-3-21.4a.5.5 0 00-.7 0zm193.7 186.4l3-2c.2-.2.2-.5 0-.7a.5.5 0 00-.6-.1l-2.7 1.9-.9-2.6c0-.3-.3-.4-.6-.3-.2 0-.4.3-.3.6l1 2.8-2.6 1.9a.5.5 0 000 .8h.5l2.4-1.7 1 3.2.4.3h.3c.2-.1.4-.4.3-.6l-1.2-3.5zm4.3 2.6a.5.5 0 10-.7-.6 4 4 0 00-1.1 3.3c0 .2.1.4.3.4h.2c.2 0 .4-.2.4-.5 0-.9.2-1.9.9-2.6zm2.5-1.8c-.1.3 0 .6.2.7l2.5 1.1c.2.1.5 0 .6-.2.1-.3 0-.5-.2-.7l-2.5-1a.5.5 0 00-.6.2zm2.6 2.7l-3-1c-.3-.2-.6 0-.7.2 0 .2 0 .5.3.6l3.1 1.1c.3.1.5 0 .6-.3.1-.2 0-.5-.3-.6zm10.8-10.3c.2-.1.2-.4 0-.6a.5.5 0 00-.7 0 28.5 28.5 0 00-8.4 24.5.5.5 0 101-.1 27.5 27.5 0 018-23.8z"/><path fill="#F2F4FF" d="M360.2 189c-.5.3-.8 1-.8 1.7 0 .5.3 1 .7 1.3.6.4 1.4.3 2 0l-.3 1.1c0 .3 0 .5.3.6.3 0 .5-.1.6-.4l1-3.7v-.4c0-.3 0-.5-.3-.6h-.3c-.8-.3-2-.4-3 .3zm.6.6c.5-.4 1.3-.3 1.9-.1-.1.5-.3 1-.6 1.3-.4.4-1 .7-1.4.4-.3-.1-.3-.4-.3-.6 0-.4.1-.7.4-1zm7.5 3.3c0-.3-.1-.5-.4-.6l-.6-.1.4-1.3c0-.2-.1-.5-.4-.6-.2 0-.5.1-.5.4l-.4 1.3-1-.1c-.2 0-.5 0-.5.3s0 .5.3.6l.9.1-.3 1c0 .2 0 .5.3.5.3.1.6 0 .6-.3l.3-1 .7.2c.3 0 .5-.2.6-.4zm3.2 1.7a.5.5 0 00-.7.1c-.1.2 0 .5.2.7a2 2 0 001.8.1c.5-.2 1-.6 1.1-1.1.2-.6 0-1.2-.5-1.7.5-.4.7-.9.8-1.4a2 2 0 00-.6-1.5 2 2 0 00-1.5-.6c-1 0-2 1-2.5 2.5-.6 1.6-.7 3.3-.5 5l.3.3h.2c.3 0 .5-.2.5-.5-.3-1.5-.1-3 .4-4.5.1-.5.7-1.9 1.7-1.9.2 0 .5.1.7.4.3.2.4.5.3.7 0 .3-.1.6-.4.8l-.3.2h-.7c-.2 0-.4.3-.4.5s.2.4.4.4h.7l.2.2c.3.2.4.5.3.8 0 .2-.3.4-.6.5a1 1 0 01-.9 0zm4.5 2.8c.3 0 .6 0 .7-.3l.4-1.1h.8c.2.1.5 0 .5-.3s-.1-.5-.4-.5l-.5-.1.6-1.2c0-.3 0-.6-.3-.7a.5.5 0 00-.6.3l-.6 1.5-.9-.2c-.2 0-.5.2-.5.4a.5.5 0 00.4.6h.6l-.4 1c-.1.2 0 .5.3.6zm5.5-.9l-1.8 5.6c-.1.2 0 .4.2.5.3.1.5 0 .6-.1l2.1-3.5.3-.3v.2c0 .2.2.4.5.4.4 0 .7-.4.7-.8 0-.5-.4-1-1-1-.7 0-1 .7-1.3 1v.1l.6-1.8c.1-.4.4-1.2-.1-1.9a1 1 0 00-1.4-.2c-.4.2-.6.6-.4 1 0 .3.3.4.6.3.2-.1.3-.3.3-.5h.1c.2.2 0 .6 0 1zm1.2 8.3c0-.2 0-.5-.3-.6l-24.4-9.3c-.2-.1-.5 0-.6.3-.1.2 0 .5.3.6L382 205c.2 0 .5 0 .6-.3zm-13.8-.4l-1.8-.5c.3-.3.5-.6.6-1 .2-.5 0-1-.2-1.4-.2-.4-.5-.6-.9-.6-.6-.1-1.2.2-1.5.8-.3.5-.3 1-.3 1.5l-.4 4.9c0 .2.1.4.3.4h.2c.2 0 .5-.1.5-.4l.3-4.8c0-.4 0-.8.2-1.1.1-.3.4-.4.6-.4 0 0 .2 0 .2.2.1.2.2.4.1.6-.1.5-.5.8-1 1.2v.5c0 .1 0 .3.3.3l1.6.5-1.8 1.4c-.2.1-.3.4 0 .6 0 .2.4.3.6.1l2.5-2c.2 0 .2-.3.2-.4 0-.2-.2-.4-.3-.4zm3.1-.4l-.6-.2c.3-.3.3-.8.3-1.1-.2-.8-1-1.3-1.7-1.3-.2 0-.4.3-.4.5 0 .3.2.5.5.5s.6.2.6.5c.1.2 0 .6-.4.6-.1.1-.3.3-.3.5s.2.4.3.4l1.5.5c.3 0 .6 0 .6-.3.1-.3 0-.5-.3-.6z"/><path fill="#F2F4FF" d="M387.4 193.7c-.2 0-.4.3-.4.5 1 6.7-1.7 14-6.8 18.4-.2 0-.4 0-.5.2l-.5.6a.5.5 0 00.2.8l.5-.1c6-4.6 9.2-12.6 8-20 0-.3-.2-.5-.5-.4zM17.5 11.7c-.3 0-.4.3-.4.5l4.5 33.5.2.3s0 .2.2.2l.3.1.2-.1 34.3-4.7a.4.4 0 10-.1-.8l-33.6 4.6.4-.6c.1-.2 0-.4-.1-.5a.4.4 0 00-.6 0l-.4.8-2.6-19h1.1c.2 0 .4-.2.4-.4s-.2-.4-.5-.4h-1.1l-1.8-13.1c0-.2-.2-.4-.4-.4z"/><path fill="#F2F4FF" d="M24.4 24.6l-1.2.3c-.3 0-.4.3-.3.5a.4.4 0 00.5.3l1.2-.3c.2-.1.4-.3.3-.5 0-.3-.3-.4-.5-.3zm3.2-.8l-.6.2a.4.4 0 00.2.8h.1l.6-.3c.2 0 .3-.3.3-.5-.1-.2-.4-.3-.6-.2zm3.8-.4h-.7c-.2.1-.3.3-.3.5 0 .3.2.4.4.4l.7-.1c.2 0 .4-.2.3-.5 0-.2-.2-.3-.4-.3zm3.6.3h.1c.2 0 .4-.2.4-.4s-.3-.4-.5-.4h-.5c-.2.1-.3.3-.3.5s.2.4.4.4h.5zm3.7-.9c-.1-.2-.3-.2-.4-.2-.3 0-.4.2-.4.5 0 .2.3.4.5.5h.3c.2 0 .3 0 .4-.2.2-.1.2-.4 0-.6a.4.4 0 00-.4 0zm1.1 2.7a.4.4 0 00-.8.1l.2 1.4a.4.4 0 00.8 0l-.2-1.5zm.5 6.1c.2 0 .4-.3.3-.5l-.3-1a.4.4 0 00-.8.2l.3 1c0 .2.3.4.5.3zm.7 2.1c0-.3-.1-.4-.4-.4-.2 0-.3.2-.3.5v.6c0 .2.3.4.5.3.2 0 .4-.2.4-.4l-.1-.6zm-.2 4.5c0 .2.2.4.4.3.3 0 .4-.2.4-.4l-.2-1c0-.2-.3-.3-.5-.3s-.4.3-.3.5l.2 1zm.4 3.1c.1.2.3.2.4.2h.2c.2-.1.3-.4.2-.6l-.3-.4a.4.4 0 00-.5-.2c-.2.1-.3.4-.2.6l.2.4zm-16.4 1.2h.2l.3-.1.5-.9c.1-.2 0-.4-.1-.5a.4.4 0 00-.6.1l-.5.9c-.1.2 0 .4.2.5zm4.9-6.8h.6l.5-.8v-.6a.4.4 0 00-.6.1l-.6.7v.6zM28.1 37L27 39a.4.4 0 00.4.5c.1 0 .3 0 .3-.2l1.2-1.9c.1-.2 0-.4-.1-.6a.4.4 0 00-.6.2zm3.9-4.7l.3.1.3-.1.8-1.1a.4.4 0 10-.6-.5l-.9 1c-.1.2 0 .5.1.6zm2.8-3.9h.6l.7-1c.1-.2 0-.4-.1-.5a.4.4 0 00-.6 0l-.7 1c-.1.1 0 .4.1.5zm2.6-4.2l-.3.2c-.2.1-.2.4-.1.6a.4.4 0 00.6 0l.3-.1a.4.4 0 10-.5-.7zm2.2-5c0 .3.3.4.5.3l2.6-.7-1.8 3.1c-.1.1-.1.3 0 .4 0 .2.2.2.4.2l4.2-.5a.4.4 0 000-.8l-3.5.4 2-3.3v-.4a.4.4 0 00-.5-.2l-3.6 1c-.3.1-.4.3-.3.5zM14 28.4l1-.1c.4 0 .7-.1 1-.3.7-.4 1.2-1.3.8-2-.4-.6-1-.9-1.8-.7-.3 0-.6.2-.9.4l-.5-3c0-.3-.2-.4-.4-.4-.3 0-.4.2-.4.4l.9 5.3c0 .2.2.4.4.4zm1.2-2.3c.3-.1.7 0 .8.2.2.3 0 .8-.4 1-.3.2-.8.2-1.2.2l-.1-1c.3-.1.6-.4 1-.4zm27.9 19.5c0-.2 0-.5-.2-.7a.4.4 0 00-.6-.1h-.9c-.5.2-.8.7-1 1.1-.3.4-.5 1-.5 1.6 0 .7.4 1.3.9 1.6.3.1.6.2.9.1l.4-.1c.5-.2.9-.6 1-1l.9-.1c.2-.2.2-.4 0-.6a.4.4 0 00-.5-.1h-.1c0-.6 0-1.2-.3-1.7zm-.6 1.9c0 .4-.4.7-.7.8-.1.1-.4.2-.6 0-.3-.1-.5-.5-.5-.8 0-.4.2-.9.4-1.2.1-.3.3-.7.6-.8h.4v.2l.2.3v.8l.2.7zm11.3-21.3a.4.4 0 00-.6 0l-1.4 2.1-.4-.3-.2-.1c-1-.6-1.8-1.2-2-2.1 0-.2-.2-.4-.4-.3-.3 0-.4.2-.4.4.2 1.3 1.3 2 2.3 2.6l.3.2.4.3a43 43 0 00-2.2 4.3.4.4 0 00.4.5c.1 0 .2 0 .3-.2.6-1.4 1.4-2.8 2.2-4.1 1.3 1 2.5 2.4 3.3 3.9a.4.4 0 00.6.2c.2-.2.2-.4.1-.6-.9-1.6-2.1-3-3.6-4.2l1.4-2-.1-.6zm142.5 29.6a.4.4 0 10-.6.5l.6.8.3.2.3-.1c.2-.1.2-.4 0-.6l-.6-.8zm-2.4-2a.4.4 0 00-.6 0v.6l.9.6.2.1.3-.1c.2-.2.1-.4 0-.6l-.8-.6zm-2.4-1.9a.4.4 0 10-.5.6l.7.5a.4.4 0 00.5 0c.2-.3.1-.5 0-.7l-.7-.4zm-3.3-1.6l.8.5h.2l.4-.1c0-.2 0-.5-.2-.6l-.8-.5a.4.4 0 10-.4.7zm-1.8-1.6l.3.1.3-.1c.2-.2.2-.4 0-.6l-.6-.6a.4.4 0 00-.6 0c-.2.2-.2.4 0 .6l.6.6z"/><path fill="#F2F4FF" d="M200.4 50.6l-.1-32.7v-.2l-.2-.1a.4.4 0 00-.6.1l-24.4 41v.3h-.1c0 .3.2.4.4.4l24.6.6.3-.1.1-.3V51l.1-.3v-.2zm-2.5 7.5l1.1 1-8.5-.1v-7.4l9.1-.3v7.3l-1.2-1a.4.4 0 00-.5 0c-.2.1-.2.4 0 .5zm-14.4-12l1 1 .3.2c.1 0 .2 0 .3-.2.2-.1.2-.4 0-.5l-1.1-1.1h-.1l15.6-26.2.1 31.2-9.4.3c-.2 0-.4.2-.4.4v.2l-.1 7.6-13.7-.4 7.5-12.5zM550.6 105c.2-.2.3-.5.1-.7a.4.4 0 00-.6 0l-.9.6-.2.4.1.2c.2.2.5.3.7.1l.8-.7zm2.4-2.8c.1-.2 0-.5-.1-.6a.4.4 0 00-.7 0l-.7 1v.2l.1.3c.2.2.5.2.6 0l.7-.9zm2-2.6c.2-.2.2-.4 0-.6a.5.5 0 00-.6.1l-.6.7a.4.4 0 00.1.6c.2.2.5.1.7 0l.5-.8zm1.8-3.6l-.5.9v.2l.1.4c.2.1.5 0 .6-.2l.6-.8c.1-.2 0-.5-.2-.6a.5.5 0 00-.6.1zm1.8-2l-.1.4.1.3c.2.2.5.2.7 0l.7-.7v-.6a.5.5 0 00-.7 0l-.7.7z"/><path fill="#F2F4FF" d="M556.5 109.4l36.5-.1.2-.1.2-.2c.2-.2 0-.5-.1-.6l-45.8-26.8h-.3l-.1-.1c-.3 0-.5.2-.5.4l-.6 27v.1l.1.3.4.1h9.5l.2.1h.3v-.1zm-8.4-2.7l-1.2 1.2.2-9.4h8.3l.4 10h-8.3l1.2-1.3c.2-.1.2-.4 0-.6a.4.4 0 00-.6 0zm13.4-15.9l-1.1 1.2-.2.3s0 .2.2.3c.1.2.4.2.6 0l1.2-1.2.1-.1 29.2 17-34.9.2-.3-10.3c0-.3-.2-.4-.4-.5h-.3l-8.4-.1.3-15 14 8.2zM30.3 101c-.8 0-1.5-.6-1.9-1.4-.3-.7-.5-1.6-.4-2.7.2-3.2 2.1-6.3 5-8 .1 0 .2-.3 0-.5a.5.5 0 00-.5-.2 11 11 0 00-5.4 8.7 6 6 0 00.5 3 3.6 3.6 0 002.5 2c.3 0 .5 0 .6-.3 0-.3-.2-.5-.4-.5zm7-7.8l1-.8-.7 3.5c0 .3.1.5.3.5.3 0 .6 0 .6-.3l.9-4.7a.4.4 0 00-.8-.5l-1.9 1.6c-.2.2-.2.5 0 .7.1.1.4.2.6 0z"/><path fill="#F2F4FF" d="M31 97.6c0 .2.2.4.4.4l11 .9c.2 0 .4-.2.4-.5 0-.2-.2-.4-.4-.4l-10.9-.8c-.2 0-.4.1-.5.4zm5 7.9l-3.3-.6.7-.6c.6-.5 1.1-.9 1.4-1.6.4-.6.3-1.6-.3-2.2-.4-.3-1-.4-1.4-.2-.5.2-.8.5-.8 1 0 .2.1.4.4.4.2 0 .4-.1.5-.3 0-.2.1-.2.2-.3h.5c.3.4.3.9.1 1.3-.2.4-.6.8-1 1.1l-.2.1c-.5.4-1 .8-1.3 1.4a.5.5 0 00.3.6l4 .8c.3 0 .6-.1.6-.4 0-.2-.1-.4-.3-.5zm12.2-2.7l-5.3-2c-.2-.1-.4 0-.5.2l-3.3 5.3-.7-4.9c0-.2-.2-.4-.5-.4-.2 0-.4.3-.4.5l.8 6.2c0 .1.2.3.4.3s.4 0 .5-.2l3.7-6 4.4 1.7.1.3c.2.2.4.2.6 0l.4-.2.1-.4c0-.1-.1-.3-.3-.3z"/><path fill="#F2F4FF" d="M45 107.4l.4-.3a1.8 1.8 0 00-.5-2.8c-.5-.3-1.2-.3-1.6 0-.3 0-.3.4-.2.6.1.2.4.3.6.1h.8c.3.2.5.4.5.7 0 .3 0 .5-.2.8-.3.2-.6.3-.8.2-.3 0-.5.2-.5.4s0 .4.3.5c.2 0 .5.3.6.6.2.3.2.6.1.8a1 1 0 01-.7.6 1 1 0 01-.8 0 .5.5 0 00-.5.7l.5.2a2 2 0 002.3-1.1c.2-.5.2-1 0-1.6l-.3-.4zm6.1-14.2c-.2 0-.3.3-.2.6a14 14 0 01-2.4 15.3c-.2.2-.2.4 0 .6l.2.1.4-.1a15 15 0 002.6-16.3.5.5 0 00-.6-.2zM99.8 80c-.2 0-.4 0-.4-.2-1.6-3-2.6-6.4-2.9-9.8a.4.4 0 11.9 0c.2 2.8 1 5.7 2.2 8.3a51 51 0 001.4-12.7c0-.2.1-.3.3-.4l.5.1c1 1.2 3 1 4.9.8l10.3-1.6c.2 0 .4 0 .5.2l-.1.6c-.5.4-1.2.8-1.9 1a.4.4 0 01-.5-.6l-8.2 1.2c-1.8.3-3.6.4-5-.4a53 53 0 01-1.6 13.2c0 .1-.2.3-.4.3z"/><path fill="#F2F4FF" d="M110.3 70.4v.7c-.8.6-1.5 1.4-2 2.2l1.3 1.3c.4.4 1 1 1.1 1.7 0 .5-.1 1-.5 1.4l-.8.2a1 1 0 01-.3 0 .4.4 0 01-.3-.6c.1-.2.4-.3.6-.3h.2c.2-.1.2-.4.2-.5 0-.5-.4-.8-.8-1.2l-1.3-1.3c-.9 1.3-1.5 2.8-1.8 4.4 0 .2-.2.3-.4.3h-.1a.4.4 0 01-.4-.5c.4-1.7 1.1-3.3 2-4.8l-2.4-2.4a.4.4 0 010-.6c.1-.2.4-.2.6 0l2.4 2.3c.6-.9 1.3-1.6 2-2.3.2-.2.5-.1.7 0zM90 159.5a.6.6 0 00.6.5c.3 0 .5-.3.5-.6l.2-.2c0-.2 0-.5-.2-.6L89.9 136c0-.3-.2-.5-.5-.5s-.5.2-.6.5l-18.6 14.7c-.2 0-.4.2-.5.4v.1c-.2.2-.2.5 0 .7l.2.2.6-.1 19.5 7.4zm-18.5-8.3l17.4-13.8 1 20.7-18.4-7zM93 129.7c.1-.2 0-.6-.2-.7-1-.7-2.6-1-3.7-.2-.6.4-1 1.3-.8 2.2a1.7 1.7 0 002.6 1.2l-.2 1c0 .2 0 .4.3.5h.1c.3.1.6 0 .7-.4l.6-3.3c.2 0 .4 0 .6-.3zm-2.1 1c-.3.4-.7.7-1 .6-.3-.1-.4-.4-.5-.6 0-.4.1-.8.4-1 .4-.3 1-.4 1.5-.2 0 .4-.2.9-.4 1.2zm-28.4 24.2h.3a6 6 0 003.3 0 3 3 0 001.5-1.4 2 2 0 000-1.6 2 2 0 00-1.3-1.1c-.6-.2-1.2-.1-1.8.1l1.2-3.1c0-.3 0-.6-.4-.7a.6.6 0 00-.7.3l-2.4 6.8c-.1.3 0 .6.3.7zm2.2-2.8a1.7 1.7 0 011.5-.2l.4.4v.7a2 2 0 01-1 1h-2.1a4 4 0 011.2-1.9zm27.2 13.5c.4.2 1 .3 1.5.2.3 0 .5-.3.4-.6 0-.3-.3-.5-.6-.5-.6.1-1.2-.2-1.7-.7-.4-.5-.6-1.2-.4-1.8.2-.5.7-1 1.4-1.1.7-.2 1.4 0 1.8.4a.6.6 0 10.8-.8 3 3 0 00-2.8-.7 3 3 0 00-2.3 1.9c-.3.9 0 2 .7 2.8.3.4.7.7 1.2 1zM242 12c-.3 0-.5 0-.5.3l-2.4 10a.4.4 0 00.3.5c.2 0 .4-.1.5-.3l2.3-10c0-.2 0-.4-.3-.5zm6.7 10.5c0-.3-.2-.5-.4-.5l-4.9-.3 6.2-4.7.1-.4c0-.1-.1-.3-.3-.3l-4.9-1.4a.4.4 0 00-.2.8l4.2 1.1-6.4 5c-.1 0-.2.2-.1.4l.3.2 6 .4c.2 0 .3-.1.4-.3zm2.5 1.3l1.5-9c0-.2 0-.4-.3-.5-.2 0-.4.1-.4.4l-1.5 9c0 .2 0 .3.3.4.2 0 .4-.1.4-.3zm4.3-4.8c-.2-.1-.4 0-.5.2 0 .2.1.4.3.5l2.8.6c.2 0 .5 0 .5-.3 0-.2 0-.4-.3-.5l-2.8-.6zm2.5 2.2l-2.5-.5c-.2 0-.4 0-.5.3 0 .2.1.4.3.4l2.5.6c.2 0 .4-.1.4-.3 0-.3 0-.5-.3-.5zm38.4-.2c.2 0 .4 0 .4-.3 0-.2 0-.4-.3-.4l-30-7c-.2 0-.4.1-.5.3L262.1 25l-.7-9.2c0-.2-.2-.3-.4-.3s-.4.2-.4.4l1 11c0 .2 0 .4.2.4.3 0 .4 0 .5-.2l4.4-12.9 29.7 6.8z"/><path fill="#F2F4FF" d="M270.4 21a.4.4 0 00-.8-.2 3 3 0 00-2.6-.1c-1 .4-1.6 1.6-1.3 2.6.2.5.6 1 1.3 1.2a2.5 2.5 0 002.1-.2l.2-.2v.1c0 .2.2.4.4.4s.4-.1.4-.3l.2-1.6a4 4 0 00.1-1.8zm-1.7 2.6c-.4.3-1 .3-1.5.2-.2-.1-.6-.3-.7-.8-.2-.6.2-1.3.8-1.6a2 2 0 011.3-.1c.3 0 .6.2.8.3h.2l-.1 1c-.2.4-.4.8-.8 1zm4.9-4.9c-.5-.4-1.2-.4-1.7 0-.4.3-.6 1-.5 1.5.1.2.3.3.5.2.3 0 .4-.3.3-.5 0-.2 0-.5.2-.6.2-.2.5-.2.7 0 .3.2.3.8 0 1.1-.2.5-.7.8-1 1.1a.4.4 0 000 .7h2.4c.2 0 .4 0 .4-.3 0-.2-.1-.4-.4-.4h-1.1l.5-.7c.3-.6.3-1.6-.3-2.1zm7.7 6.8c0-.2 0-.4-.3-.4l-2.1-.2.4-2c0-.3 0-.5-.3-.5-.2 0-.4 0-.5.3l-.4 2h-1.5c-.2-.1-.4 0-.4.3 0 .2 0 .3.3.4l1.4.1-.3 1.6c0 .2.1.4.3.5.2 0 .4-.1.5-.3l.3-1.7 2.2.3c.2 0 .4-.1.4-.4zm3.7 3.8c0 .2.1.4.3.5a.4.4 0 00.5 0c1 0 2 0 2.9-.5.6-.3 1-1 1.1-1.8 0-.6 0-1-.5-1.5-.3-.3-.8-.5-1.3-.4-.5 0-1 .2-1.4.5l.5-3.3c0-.2 0-.4-.3-.5-.2 0-.4.1-.4.4l-1 5.3-.1 1c-.2 0-.3.2-.3.3zm1.8-2.3c.3-.4.8-.6 1.2-.7a1 1 0 011 1.1c0 .5-.3 1-.7 1.3-.7.4-1.5.4-2.2.3l.1-.8c.1-.5.3-.9.6-1.2zm4.5-.7l.3.2h2.7c.2 0 .4-.2.4-.4s-.2-.4-.4-.4h-1.8l.4-.7c.2-.6 0-1.5-.7-1.8-.4-.2-.9 0-1.2.2a1 1 0 00-.3 1c.1.2.3.3.5.3.2-.1.3-.3.3-.5V24c.1 0 .3-.1.4 0 .2 0 .3.5.2.8a3 3 0 01-.7 1v.5zm-144 88.9h1c.3 0 .6-.3.5-.6 0-.4-.4-.6-.7-.5-.6 0-1.2-.8-1.5-1.6-1.7-5.3.7-11.6 5.7-14.3.3-.1.4-.5.2-.8a.6.6 0 00-.9-.3c-5.4 3-8.1 10-6.2 15.8.3 1 1 2 2 2.3z"/><path fill="#F2F4FF" d="M150.2 110.8h.1c.3.1.7 0 .8-.3.7-1.2 1.6-2.2 2.7-3.1l1 3a.7.7 0 00.7.5c.4-.1.6-.4.5-.8l-1.1-3.5c.4-.4.9-.6 1.4-.9.3-.1.4-.5.3-.8a.6.6 0 00-.9-.3l-1.3.7-1-2.3a.7.7 0 00-.8-.3c-.3.1-.5.5-.3.8l1 2.6c-1.3 1-2.5 2.3-3.3 3.8-.2.3 0 .7.3.9zm10.8 0l.6-1.6.8.1c.4 0 .7-.2.7-.5 0-.4-.2-.7-.6-.7h-.4l.6-1.9c.1-.3 0-.7-.4-.8a.6.6 0 00-.8.4l-.7 2a8 8 0 01-.8-.3.6.6 0 00-.8.3c-.2.3 0 .7.3.8l.7.3h.2l-.5 1.5c-.2.3 0 .7.3.8.4.1.7 0 .9-.4zm9.2 2.9c.8-1.5 1-3.3 1.1-5.1 0-.3-.2-.6-.5-.7-.3 0-.6.1-.7.4-.2.7-.7 1.3-1.2 1.5-.5.2-1.2 0-1.4-.4v-.7l.4-.2c.3 0 .6-.3.6-.7 0-.3-.3-.6-.7-.6-.6 0-1.1.4-1.4 1a2 2 0 000 1.8c.5 1 1.9 1.4 3 1l.4-.3c-.1.9-.3 1.7-.7 2.4-.6 1-1.8 2.2-3.2 2.1-.2-.3-.3-.6-.2-1a.6.6 0 00-1.2-.3c-.2.8 0 1.7.6 2.3a.7.7 0 00.4.3c2 .2 3.9-1.3 4.7-2.8zm-.2 8.5l.4.3h.5c3.6-1.8 6.2-4.8 7.2-8.2 1.2-3.8.2-8-2.3-10.7a.7.7 0 00-.9 0c-.3.2-.3.6 0 .9 2.2 2.4 3 6 2 9.4-1 3.1-3.3 5.8-6.6 7.4-.3.2-.4.6-.2.9zm160.2-94.7a10.5 10.5 0 0111.7-7.4c3.7.7 6.6 3.5 8 7.8a8 8 0 01-1.3 8l.8 1c2.3 3.5 2 7.8-.6 11.1a10.3 10.3 0 01-11.4 3.5 10 10 0 01-6.4-11 12 12 0 011.8-4 10 10 0 01-2.5-9zm7.4 23.3c.9.3 1.7.4 2.6.4l.2-1.7c0-.2.1-.4.3-.4.3 0 .4.2.4.4l-.2 1.8a9.6 9.6 0 007.3-3.8 8.4 8.4 0 00-.2-11.1l-1.9 1.5a11 11 0 01-9 1.4 9.6 9.6 0 01-3.8-2.2 9 9 0 00-1.6 3.6 9.2 9.2 0 006 10zm10-15a10 10 0 00-8.5-2.4c-2 .4-4 1.5-5.3 3.1A8.8 8.8 0 00340 39a10.4 10.4 0 007.4-3.1zm-14.3.2a10.2 10.2 0 017.6-3.5c2.6 0 5.2 1 7.1 2.8 1.8-2 2.2-4.4 1.2-7.2-.8-2.3-2.8-6.4-7.5-7.2a9.7 9.7 0 00-10.7 6.8 9 9 0 002.3 8.3z"/><path fill="#F2F4FF" d="M341 45.8c.2 0 .3.2.3.4l-.1 1.6c0 .2-.2.4-.4.3a.4.4 0 01-.4-.4l.2-1.5c0-.2.1-.4.3-.4zm-.2-.8a.4.4 0 01-.4-.4l.2-1.3c0-.2.1-.3.3-.3.3 0 .4.2.4.4l-.1 1.3c0 .2-.2.3-.4.3zm.1-4.7c.2 0 .4.2.4.4l-.2 1c0 .2-.2.3-.4.3a.4.4 0 01-.3-.4l.1-1c0-.2.2-.3.4-.3zm0-3.7c.2 0 .4.1.4.3v1.5c0 .2-.2.3-.4.3a.4.4 0 01-.4-.3v-1.5c0-.2.2-.3.4-.3zm-.2-1.2a.4.4 0 01-.3-.4l.2-.7a.4.4 0 01.4-.3c.2 0 .3.2.3.4l-.1.7c0 .2-.3.4-.5.3zm.2-5c.2 0 .4.2.4.4v.8c0 .3-.2.4-.4.4a.4.4 0 01-.4-.4v-.8c0-.2.2-.4.4-.4zm-.2-1.1v-1c0-.1.2-.3.4-.3.3 0 .4.2.4.4v1c0 .2-.2.3-.4.3a.4.4 0 01-.4-.4zm.5-2.7a.4.4 0 01-.4-.4v-.4c0-.2.2-.4.4-.4s.4.2.4.4v.4c0 .2-.2.4-.4.4zm.4-3.1v.9c0 .2-.2.3-.4.3a.4.4 0 01-.4-.3v-.9c0-.2.2-.4.4-.4s.4.2.4.4zm-.3-1.1a.4.4 0 01-.3-.4l.1-.7a.4.4 0 01.5-.3c.2 0 .3.2.3.4l-.2.8c0 .2-.2.3-.4.2zm140.9 183.4a13.7 13.7 0 0113.2 12.1c.4 4.9-2.1 9.4-7 12.7a10 10 0 01-10.5 1 11.9 11.9 0 01-15 4.3 13.3 13.3 0 01-8.2-13c.3-6 5.5-11.3 11.5-11.7a12 12 0 015.6.9 13 13 0 0110.4-6.3zm-26.6 17c0 1.2 0 2.3.3 3.4l2.3-.4c.2 0 .4.2.5.4 0 .3-.1.6-.4.6l-2.2.4c1 3.4 3.5 6.3 7 7.8a11 11 0 0014-4 14.2 14.2 0 01-7.3-12.8c0-1.8.6-3.6 1.5-5.3a11 11 0 00-5-.8c-5.6.4-10.4 5.3-10.7 10.8zm22 7.5c1.9-3.4 2-7.8.3-11.4a12.3 12.3 0 00-5.8-5.6 11.5 11.5 0 00-1 8.7 13.4 13.4 0 006.5 8.3zm-5-17.8a13.3 13.3 0 017 8.3c.9 3.3.4 7-1.2 10a9.2 9.2 0 009.4-1c2.7-1.8 7.1-5.7 6.6-11.8-.5-6-6.2-11.3-12.1-11.2a12 12 0 00-9.7 5.7z"/><path fill="#F2F4FF" d="M462.9 225.4c0 .3-.1.5-.4.6l-2 .3a.5.5 0 01-.6-.4c0-.3.2-.5.4-.5l2-.4c.3 0 .5.1.6.4zm1-.6c0-.2.1-.5.4-.5l1.6-.3c.3 0 .5.2.6.4 0 .3-.2.6-.4.6l-1.7.3a.5.5 0 01-.5-.5zm5.9-1.4v.1c0 .3 0 .5-.4.5l-1.3.2a.5.5 0 01-.5-.4c0-.3.2-.5.4-.6l1.3-.1c.3 0 .5.1.5.3zm4.7-1.2c0 .3 0 .5-.3.6l-1.8.5c-.3 0-.5-.1-.6-.4 0-.2 0-.5.3-.6l1.8-.4c.3-.1.5 0 .6.3zm1.3-.6c0-.3.2-.5.5-.5h1c.2 0 .4 0 .4.3s-.1.6-.4.6h-1a.5.5 0 01-.5-.4zm6.4-1.5c0 .3-.1.6-.4.6l-1 .3c-.3 0-.6 0-.6-.3s0-.6.3-.6l1-.3c.3 0 .6 0 .7.3zm1.3-.5l1.2-.3c.3 0 .5 0 .6.3 0 .3-.1.6-.4.6l-1.2.3c-.3 0-.5 0-.6-.4 0-.2.1-.5.4-.5zm3.5-.4c0-.2.2-.5.4-.6l.5-.1c.3 0 .6 0 .6.3.1.3 0 .6-.3.6l-.5.2c-.3 0-.6-.1-.6-.4zm4-.5l-1 .3c-.3 0-.5-.1-.6-.4 0-.3 0-.5.3-.6l1.1-.3c.3 0 .5.1.6.4 0 .2 0 .5-.3.6zm1.3-.7c0-.3.2-.6.4-.6h1c.2 0 .4.1.5.3v.1c0 .3-.2.5-.5.5h-1a.5.5 0 01-.4-.4zM255.5 66.7a.5.5 0 10-.3-1l-23.9 7.8c-.2 0-.3.3-.3.5l2 13-6.8-10.9a.5.5 0 00-.7-.1c-.2.1-.3.4-.1.6l8 12.9c.1.2.3.2.5.2.3-.1.4-.3.4-.5l-2.3-15 23.5-7.5z"/><path fill="#F2F4FF" d="M236.3 75.2c-.1 0-.3 0-.4.2L235 77c-.1.2 0 .5.2.6.2.2.5 0 .6-.1l.5-.8 1.4 3.2c0 .2.3.3.5.2.3-.1.4-.4.3-.6l-1.8-4c0-.2-.2-.3-.4-.3zm6.9 5.4a.5.5 0 00-.6-.2l-7 3c-.3 0-.4.3-.3.5a.5.5 0 00.6.3l7.1-3c.2 0 .3-.4.2-.6zm-5.8 5.4c-.2.1-.4.4-.3.6l1.7 4.5a.5.5 0 00.9-.3l-1.7-4.5c0-.2-.4-.4-.6-.3zm8.2.8l-3 1.8.3-1c.2-1 0-2.1-.6-2.8-.5-.6-1.5-1-2.3-.7-.4.2-.8.7-.8 1.2s0 1 .4 1.2c.2.2.5.1.7 0 .1-.3 0-.6-.1-.7l-.1-.4c0-.2.1-.3.3-.4.4-.2.9 0 1.2.4.4.5.5 1.2.3 2-.1.8-.6 1.6-1 2.3l.1.5a.5.5 0 00.6.1l4.5-2.7c.2-.1.2-.4.1-.6a.5.5 0 00-.6-.2zm4.4-9.4l-1.4 1.3-1-2a.5.5 0 00-.6-.2c-.2.1-.3.4-.2.6l1 2.3-1.3 1.2a.5.5 0 00.4.7h.2l1.1-1 .8 1.6c0 .2.3.3.6.2.2 0 .4-.4.2-.6l-.8-1.9 1.7-1.5c.2-.2.2-.5 0-.7a.5.5 0 00-.6 0zm5-8.7c-.2 0-.4.2-.4.4l-.5 3c0 .3.1.6.4.6.2 0 .5-.1.5-.4l.2-1.3 1.4 3.6c.1.2.4.3.6.3.3-.1.4-.4.3-.6l-2-5.3c0-.2-.3-.3-.5-.3zm9.4 3.6l-10.9 5.5c-.2.1-.3.4-.2.6a.5.5 0 00.6.2l10.9-5.5a.5.5 0 10-.4-.8zm-3.2 8.4l-1 .3-1.3-3a.5.5 0 00-.7-.3c-.2 0-.3.3-.2.5-.2 0-.3.1-.4.3l-2.2 4.5v.6h.6l3.7-1.4 1 2.3c.1.2.4.4.6.3.3-.1.4-.4.3-.6l-1-2.3h.5l.5-.4c.2-.2.3-.4.1-.6a.5.5 0 00-.5-.2zm-4.4 1.7l1.5-3.3 1 2.3-2.5 1zm7.8-6c-.4-.6-1.2-1-2-1a2 2 0 00-1.4 1c-.4.9.2 2 1 2.4l.6.3c-.3.6-.5 1.4-.3 2 .3 1 1.3 1.8 2.3 1.8l.4-.1c.4-.2.8-.4 1-.7.4-.5.5-1 .4-1.5-.1-.7-.7-1.3-1.5-1.7 0-1 0-1.8-.5-2.5zm-2.5.3c.1-.2.4-.3.6-.3.4 0 .9.2 1.1.5.3.5.4 1 .4 1.7l-.1-.1a.5.5 0 00-.6-.1l-.8-.4c-.4-.2-.8-.8-.6-1.3zm3.4 4.8c-.2.2-.5.4-.8.4-.5 0-1.1-.4-1.3-1a2 2 0 01.3-1.5l.4.1c0 .3.2.6.4.6s.4 0 .5-.2c.3.2.6.5.7.9 0 .2 0 .5-.2.7zm55 9c.3 0 .5-.3.5-.5l.2-13.2.1-.5h.5l20.2-1.8c.3 0 .5-.2.5-.5s-.3-.5-.5-.5h-1.3l-.2.1-18.8 1.6c-.3 0-.8 0-1.1.4-.4.4-.4.9-.4 1.2l-.2 10.5c-1-2.4-1.8-4.9-2.5-7.4 0-.3-.3-.4-.6-.3-.3 0-.5.3-.4.6a87 87 0 003.5 10c0 .2.2.3.5.3z"/><path fill="#F2F4FF" d="M331.3 85c-.3-.7-.9-1.1-1.6-1.3-1.1-.2-2.1.4-2.7 1.3l-.7-4.3c.3-.1.4-.5.3-.7a1 1 0 00-.9-.6c-.1 0-.3 0-.4.2l-.1.4a87.8 87.8 0 001.7 9.7.5.5 0 001 0c1.2-.2 2.7-.8 3.4-2a3 3 0 000-2.6zm-1 2.2c-.5 1-1.6 1.3-2.6 1.4l-.2-.8v-1.5c.3-.9 1.1-1.7 2-1.6.5.1.8.6.9.8a2 2 0 010 1.7zm3.7-3c0 .2.2.3.5.3 1 0 2-.4 2.9-1 .2-.3.2-.6 0-.8a.5.5 0 00-.7 0 5 5 0 01-1.7.7l.2-.6.4-1.2c0-1-.8-2-1.9-2.2-1-.2-2.1.7-2.3 1.7 0 .3.1.6.4.6.3 0 .6-.1.6-.4.1-.5.7-1 1.2-.9.5 0 1 .6 1 1.1l-.4.9c-.2.5-.4 1-.2 1.8zm73.8-24.5l.5 1.8a.5.5 0 00.6.3c.3 0 .5-.3.4-.6l-.5-1.8v-.3c0-.2 0-.4-.2-.5l-1.3-4.4c.1-.3 0-.6-.2-.7a.5.5 0 00-.8.3v.2l-3 6.4c-.2.3 0 .6.2.7h.2c.2.1.4 0 .5-.2l.6-1.2h3zm-.3-1.1h-2.2l1.3-3 .9 3zm6.9-1.1c.3 0 .6-.2.6-.5s-.2-.6-.5-.6l-2.1-.2c-.3 0-.6.2-.6.5 0 .2.2.5.4.5l2.2.3zm-2.2 1.5h.1l2.4-.2a.5.5 0 10-.1-1l-2.4.1c-.3 0-.5.3-.5.6 0 .2.3.5.5.5zm9.8-9h.2l.5-.1a21 21 0 012-2.4l2.4 2.4.4.2c.1 0 .3 0 .4-.2.2-.2.2-.5 0-.7l-2.5-2.5 3-2.3c.3-.2.3-.5.2-.7a.5.5 0 00-.8-.2c-1.1.7-2.1 1.6-3.1 2.5l-1.4-1.5a.5.5 0 00-.8 0c-.2.2-.2.5 0 .8l1.4 1.4c-.7.8-1.5 1.6-2.1 2.5-.2.3-.1.6.1.8zm7.2 1.5h.2c.2.1.5 0 .5-.2l.6-1.3c.1-.2 0-.5-.3-.7a.5.5 0 00-.7.3l-.5 1.2c-.1.3 0 .6.2.7zm5.6-.5c.3 0 .6-.3.6-.6l-.2-5.8c0-.3-.2-.5-.5-.5s-.6.2-.5.5v5.9c0 .2.3.4.6.5zm5.2-3.1h-.5v-1.1c0-.3-.2-.5-.5-.6-.3 0-.5.3-.5.5l-.1 1.2h-.6c-.3 0-.6.3-.6.5 0 .3.3.5.5.6h.6v.5c0 .3.2.5.5.6.3 0 .6-.3.6-.5V49h.7c.3 0 .5-.3.5-.6s-.2-.5-.5-.5zm5-.6l1.5-1.5a.5.5 0 10-.7-.8l-1.4 1.4-1.6-1.8a.5.5 0 00-.7 0c-.3.1-.3.4-.1.7l1.7 2c-.6.8-1 1.7-1.4 2.6a.5.5 0 00.4.7c.2 0 .5-.1.5-.3l1.2-2.2L446 50l.3.2.4-.1c.2-.2.3-.6 0-.8l-1.5-2zm2.8-2.5c0 .3.3.5.6.4.3 0 .5-.3.4-.6l.2-.1h.2c.2 0 .3.5.2.7 0 .5-.4.8-.7 1.2v.6a.5.5 0 00.5.3l2.3-.1c.3 0 .5-.3.5-.6s-.3-.5-.6-.5h-1.2l.3-.6c.1-.7-.1-1.6-.9-2-.4-.2-1-.2-1.3.2-.4.2-.6.7-.5 1zm5.2 7.9c.3 0 .5-.1.6-.4l.6-1.7a.5.5 0 00-1-.3l-.6 1.7a.5.5 0 00.5.7zm5.2-.8c.3 0 .6-.2.6-.5l.3-5.5c0-.3-.3-.5-.5-.5-.3 0-.6.2-.6.5l-.3 5.4c0 .3.2.6.5.6zm-34.1 7.7l-2.1 3.8c-.1.2 0 .5.1.6l.3.1h.4l.4-.4c.1-.1.2-.3.1-.5l3.8-6.6c.1-.3 0-.6-.2-.8a.5.5 0 00-.8.2l-1.5 2.7a6 6 0 01-2.3-2.8.5.5 0 00-.7-.3c-.3.1-.4.4-.3.7a7 7 0 002.8 3.3zm2.9 2.9c-.1.2 0 .6.2.7h.2c.2.1.4 0 .5-.2l.7-1c.2-.3.1-.6-.1-.8a.5.5 0 00-.8.2l-.7 1zm5.3-3.1c.2.3.5.2.7 0l.2-.2-.3 4.1c0 .3.2.6.4.6.3 0 .6-.2.6-.5l.5-5.6c0-.2 0-.4-.3-.5h-.6l-1.2 1.4c-.3.2-.2.5 0 .7zm6.3 1.9v-1.7c0-.3-.2-.5-.5-.5s-.6.2-.6.5v1.7h-1.3c-.3 0-.5.3-.5.6s.3.5.5.5h1.4v1.2c0 .2.2.5.5.5s.5-.3.5-.6v-1.2h.7c.3 0 .6-.3.6-.6s-.3-.5-.6-.5h-.7zm7.5-2l-1 1.9-2.8-2.2a.5.5 0 00-.7.1c-.2.3-.1.6.1.8l3 2.2-.7 1.4c-.2 0-.3.2-.3.4l-.2.7a.5.5 0 00.5.6c.2 0 .4 0 .5-.3l1.3-2.6.1-.2 1.2-2.3c0-.3 0-.6-.3-.7a.5.5 0 00-.7.2zm1.9.2a.5.5 0 00.4.9l1.7-.1c.3 0 .6-.3.5-.6 0-.3-.2-.5-.5-.5h-.6l.2-.3c.2-.7 0-1.4-.4-1.8-.3-.3-.8-.4-1.2-.3-.4 0-.7.3-.8.6a.5.5 0 101 .4h.3c.1.2.2.5 0 .8 0 .3-.3.6-.6 1zm4 6.4l1-2a.5.5 0 10-1-.5l-1 2a.5.5 0 001 .5zm5 0c.2 0 .5-.3.5-.5l.3-4.7c0-.3-.2-.5-.5-.5s-.6.2-.6.5l-.2 4.6c0 .3.1.5.4.5zM420.7 75c0 .2.2.3.4.4l3.8.2c.3 0 .6-.3.6-.5 0-.3-.2-.6-.5-.6l-2.9-.1 1.3-1.9h1.4c.3.1.5-.1.6-.4 0-.3-.3-.6-.6-.6h-.7l1-1.4a.5.5 0 00-.3-.8l-3.4-.7a.5.5 0 10-.2 1l2.6.5-1 1.3h-1.7a.5.5 0 000 1h1l-1.4 2.1v.6zm6.5 2c.3 0 .5-.2.6-.4l.6-1.7c.1-.3 0-.6-.3-.7a.5.5 0 00-.7.3l-.6 1.7c0 .3 0 .6.4.7zm4.5-.6a.5.5 0 00.5.6c.2 0 .3 0 .5-.2l.3-.5c.2-.3.2-.6 0-.8h-.1l.5-4c0-.2.2-.9-.3-1.3-.4-.4-1-.3-1.2 0-.3.2-.4.7-.2 1 .1.2.4.3.7.2l-.7 5zm3.7-1.5h1.2v.5c-.1.3.1.6.4.6.3 0 .6-.2.6-.5V75h1.5c.3 0 .5-.3.5-.6s-.3-.5-.5-.5h-1.3v-1.4c.1-.3-.1-.6-.4-.6-.3 0-.5.2-.6.5l-.1 1.5h-1.3a.5.5 0 000 1v.1zm11 1.5c0-.3-.3-.6-.6-.5l-3.2.2 2-1.8h1.5c.3.1.5-.1.5-.4 0-.3-.2-.6-.5-.6h-.2l.5-.4c.2-.2.7-.7.6-1.3 0-.3-.3-1-1.6-1l-3.6.1c-.2 0-.5.3-.5.6s.3.5.6.5h4.1l-.3.3-1.4 1.1h-2c-.4 0-.6.1-.6.4 0 .3.2.6.4.6h1l-2.5 2.1c-.1.2-.2.4-.1.7a.5.5 0 00.5.3l4.9-.4c.3 0 .5-.2.5-.5zm2.7-6.2c-.2-.7-.7-1.2-1.4-1.3-.3 0-.6.1-.6.4 0 .3.1.6.4.6.3 0 .5.3.6.6.1.2 0 .6-.2.8a.5.5 0 00.3.9h.2l1.9-.4c.2 0 .4-.3.4-.6s-.4-.5-.6-.4l-.9.1v-.7zm1 5.8a.5.5 0 00-.7.3l-.8 2a.5.5 0 00.4.7c.2 0 .5 0 .6-.3l.8-2c.1-.2 0-.5-.3-.6zm4.4 2.8c.3 0 .5-.2.5-.5l.2-4.7c0-.3-.2-.6-.5-.6s-.5.2-.5.5l-.2 4.8c0 .3.2.5.5.5zm-36.5 0h.2c.3 0 .5-.3.4-.6a60 60 0 012.2-35.9c0-.3 0-.6-.3-.7a.5.5 0 00-.7.3 61.2 61.2 0 00-2.2 36.5c0 .3.3.4.5.4zm43-34.6c-.3 0-.5.3-.5.6 2 12.3.8 24.9-3.8 36.5a.5.5 0 00.5.7c.2 0 .4 0 .5-.3 4.6-11.8 6-24.6 3.9-37.1 0-.3-.3-.5-.6-.4zM28.9 222l1 1.5a.5.5 0 00.7.2c.3-.2.4-.5.2-.7l-1-1.6v-.3c0-.2-.2-.4-.4-.4l-2.5-3.8c0-.3-.2-.6-.5-.7-.3 0-.5.2-.6.5v.2l-1 7a.5.5 0 00.6.7c.2 0 .4-.2.4-.5l.2-1.3 2.9-.9zm-.6-1l-2.1.7.5-3.2 1.6 2.5zm6.3-3.1c.3 0 .5-.3.4-.6 0-.3-.3-.5-.6-.4l-2.1.4c-.3 0-.5.3-.4.6 0 .3.3.5.6.4l2.1-.4zM33 220l2.2-1a.5.5 0 10-.4-.9l-2.1.9c-.3 0-.5.4-.3.7 0 .2.3.3.6.3zm6.6-11.5h.3c.2 0 .3-.1.4-.3.3-1 .7-2 1.2-2.9l3.1 1.7h.3c.2 0 .3 0 .4-.2.2-.3 0-.6-.2-.7l-3-1.7 2-3c.3-.3.2-.6 0-.8a.5.5 0 00-.7 0c-.9 1-1.6 2.2-2.3 3.3l-1.8-1a.5.5 0 00-.7.2c-.2.3 0 .6.2.8l1.8 1c-.5 1-1 2-1.3 3-.1.2 0 .5.3.6zm7.4-.5h.3l.4-.5.1-1.4c0-.3-.1-.6-.4-.6-.3 0-.6.2-.6.5l-.2 1.3c0 .3.2.6.5.6zm5.2-2.2c.3-.1.5-.4.4-.7l-1.8-5.6a.5.5 0 10-1 .4l1.8 5.5c0 .3.3.4.6.4zm4.2-4.5l-.6.2-.3-1.1c0-.3-.3-.5-.6-.4-.3 0-.5.4-.4.6l.3 1.2-.6.2c-.3 0-.5.3-.4.6.1.3.4.4.6.4l.6-.2.2.5c0 .3.3.5.6.4.3 0 .5-.4.4-.6l-.1-.6.6-.2c.3 0 .5-.4.4-.7-.1-.2-.4-.4-.7-.3zm4.6-2.1l1-1.8a.5.5 0 10-1-.6l-1 1.8-2-1.3a.5.5 0 10-.5.9l2.2 1.4c-.3 1-.6 2-.7 3a.5.5 0 101.1 0c0-.8.3-1.6.5-2.4l1.9 1.3h.4c.1 0 .3 0 .3-.2.2-.2.1-.5-.1-.7l-2.1-1.4zm1.9-3.2c.1.3.4.4.7.3.2-.2.3-.5.2-.8v-.1h.3c.2 0 .4.3.5.6 0 .4-.2.9-.4 1.3l.1.6.5.2h.1l2.2-.8c.3-.1.4-.5.3-.7a.5.5 0 00-.7-.4l-1.1.5v-.8c0-.7-.5-1.5-1.3-1.6-.5-.1-1 .1-1.3.5-.3.4-.3.9-.1 1.2zm7.3 6c.2 0 .4-.2.4-.4l.1-1.8a.5.5 0 00-1 0l-.1 1.7a.5.5 0 00.6.6zm4.7-2.2c.3 0 .5-.3.4-.6l-1.3-5.4c-.1-.2-.4-.4-.7-.3-.3 0-.4.3-.4.6l1.4 5.3c0 .3.3.5.6.4zm-30.4 17.3l-1 4.2a.5.5 0 001 .4l.3-.4v-.5l1.7-7.4c0-.3-.2-.6-.4-.7-.3 0-.6.1-.7.4l-.6 3a6 6 0 01-3.1-2 .5.5 0 00-.8 0c-.2.1-.2.4 0 .7a7 7 0 003.6 2.3zm3.6 1.9c0 .3.1.6.4.7h.3l.4-.4.3-1.2c0-.3 0-.6-.4-.7-.2 0-.5.1-.6.4L48 219zm4.2-4.4c.2.1.6 0 .7-.2l.1-.3.9 4c0 .3.3.5.6.4.3 0 .5-.3.4-.6l-1.1-5.5c0-.2-.3-.4-.5-.4s-.4 0-.5.3l-.9 1.6c0 .2 0 .6.3.7zm6.6-.1l-.5-1.6c-.1-.3-.4-.4-.7-.3-.3 0-.4.4-.3.6l.5 1.6-1.3.5c-.2 0-.4.4-.3.6a.5.5 0 00.7.4l1.2-.4.3 1a.5.5 0 00.7.4c.3 0 .4-.4.4-.6l-.4-1.2.7-.2c.2-.1.4-.4.3-.7a.5.5 0 00-.7-.3l-.6.2zm6.6-4.1l-.4 2-3.3-1.1a.5.5 0 00-.7.3c-.1.3 0 .6.3.7l3.5 1.2-.2 1.6-.2.4v.7a.5.5 0 00.6.5c.3 0 .4-.2.5-.4l.4-2.9s.1-.2 0-.2l.5-2.6c0-.3-.1-.5-.4-.6-.3 0-.6.1-.6.4zm1.9-.4v.6c.2.2.4.2.6.2l1.6-.6c.3-.1.4-.4.3-.7a.5.5 0 00-.7-.3l-.5.2v-.4c0-.7-.3-1.4-.8-1.6-.4-.2-.9-.2-1.3 0a1 1 0 00-.5.9c0 .3.1.6.4.6.3 0 .6-.2.6-.5h.1s.1-.1.2 0c.2 0 .3.3.3.6l-.3 1zm5.6 5l.3-2.2a.5.5 0 10-1-.2L72 215a.5.5 0 001 .1zm4.7-1.5c.3 0 .5-.3.4-.6l-1-4.5c-.1-.3-.4-.5-.7-.4-.3 0-.4.4-.4.6l1.1 4.5c0 .3.4.5.6.4zm-32 19.5h.5l3.7-.9c.3 0 .5-.3.4-.6 0-.3-.3-.5-.6-.4l-2.8.7.7-2.1 1.4-.4c.2 0 .4-.3.3-.6 0-.3-.3-.5-.6-.4l-.7.2.6-1.6a.5.5 0 00-.6-.7l-3.4.3a.5.5 0 100 1l2.7-.2-.5 1.5-1.7.5c-.3 0-.5.3-.4.6 0 .3.3.5.6.4l1.1-.3-.8 2.4.1.5zm6.8-.2c.3 0 .5-.3.5-.5v-1.8c.1-.3-.1-.5-.4-.6-.3 0-.6.3-.6.5v1.8c0 .3.2.6.5.6zm4.2-1.8a.5.5 0 00.6.4c.2 0 .3-.2.4-.3l.2-.6c.1-.3 0-.6-.3-.7l-.7-4c0-.2-.1-.9-.7-1.2-.5-.2-1 0-1.2.4-.2.3-.2.7.1 1 .2.2.6.2.8 0l.8 5zm3.1-2.5l1.1-.4.1.6c0 .2.4.4.6.4.3 0 .5-.4.5-.7l-.2-.6 1.4-.4c.3-.1.4-.4.3-.7 0-.3-.4-.4-.7-.4l-1.2.4-.3-1.4c0-.3-.3-.4-.6-.4s-.5.3-.4.6l.3 1.6-1.2.3c-.3.1-.5.4-.4.7.1.3.4.4.6.4h.1zm10.9-1.8a.5.5 0 00-.7-.3l-3 1.1 1.5-2.3 1.3-.3c.3-.1.5-.4.4-.7 0-.3-.4-.4-.6-.4l-.3.1.4-.5c.1-.3.5-.9.2-1.5-.1-.2-.6-.8-1.8-.4l-3.4 1.1c-.3.1-.4.4-.3.7 0 .3.4.4.7.3l3.3-1 .3-.2h.3l-.2.4-1 1.5-2 .5c-.3 0-.5.4-.4.6 0 .3.3.5.6.4l1-.2-1.8 2.7v.7c.2.1.4.2.6.1l4.6-1.7c.3-.1.4-.4.3-.7zm.8-6.7c-.3-.6-1-1-1.7-.9-.3 0-.5.3-.5.6s.3.5.6.5.6 0 .8.3v1.5c.2.1.4.2.6.1h.1l1.7-.9a.5.5 0 10-.5-1l-.8.5c0-.3-.1-.5-.3-.8zm2.7 5.3c-.3 0-.6.2-.6.5l-.2 2a.5.5 0 00.6.6c.2 0 .4-.2.4-.4l.3-2.1c0-.3-.2-.6-.5-.6zm4.9 1.4c.4-.1.5-.4.5-.7l-1.2-4.6c-.1-.3-.4-.4-.7-.4-.3.1-.4.4-.4.7l1.2 4.6c.1.3.4.4.7.4zm-34.8 10.6h.2c.3-.2.3-.6.2-.8a60 60 0 01-8.4-35c0-.2-.2-.5-.5-.5s-.5.2-.6.5c-.8 12.3 2.2 25 8.6 35.5.1.2.3.3.5.3zm31-45.7c-.3.2-.4.5-.3.7 5.6 11.2 8 23.7 7 36a.5.5 0 00.7.7c.2 0 .4-.3.4-.5 1-12.6-1.5-25.3-7.1-36.6a.5.5 0 00-.7-.3zm425-151.8h.2c.2 0 .3 0 .4-.2l5.2-11.3c0-.2 0-.5-.3-.6a.5.5 0 00-.6.2l-1.6 3.6-4.8-3.7a.5.5 0 00-.7 0c-.2.3-.1.6 0 .8l5 3.8-3 6.8c-.2.2 0 .5.2.6zm9-15.2c-.3-.4-.9-.6-1.4-.5-.5 0-.9.3-1 .6-.2.3-.2.6 0 .7.3.2.6 0 .7-.1.1-.2.3-.2.4-.3.2 0 .5.1.7.3.3.3.4.8.2 1.4-.1.6-.5 1-.9 1.6v.5c0 .2.2.3.4.3l3 .1h.1c.3 0 .5-.2.5-.4 0-.3-.2-.5-.5-.5l-2.2-.1.6-1.3c.2-.9 0-1.8-.6-2.3zm4.4 6.9l-2.6-.2c-.3 0-.5.2-.6.5 0 .3.2.5.5.5l2.6.2c.3 0 .5-.2.5-.5s-.2-.5-.4-.5zm-3.2 2.4c0 .2.3.4.5.4l3.1-.2c.3 0 .5-.3.4-.5 0-.3-.2-.5-.5-.5l-3 .2c-.3 0-.5.3-.5.6zm11.9-12l-1.7 8-3.7-4.4a.5.5 0 00-.7 0c-.2.1-.2.4 0 .6l4.2 5.2.4.1h.1c.2 0 .3-.2.4-.3l1.9-8.6c5 .8 10 .8 15 0a.5.5 0 00-.2-1c-5 .8-10.1.8-15.1 0-.3 0-.5.1-.6.4z"/><path fill="#F2F4FF" d="M528.3 32.8h.2c.2 0 .4 0 .5-.2l3.7-7a.5.5 0 10-.9-.5l-1.4 2.7-3.5-2.2a.5.5 0 00-.6.1c-.2.3-.1.6.1.7l3.5 2.3-1.8 3.4c-.1.3 0 .5.2.7zm11.2 2.7c0-.3-.2-.5-.5-.5l-21-.1c-.3 0-.5.2-.5.5 0 .2.2.5.5.5h21c.3 0 .5-.2.5-.4zm-16 3.1a.5.5 0 00-.7.2l-1.1 2-2.3-2a.5.5 0 00-.7 0c-.2.2-.2.5 0 .7l2.5 2.2-1.4 2.6a.5.5 0 00.4.7c.2 0 .3 0 .4-.2l1.4-2.5.8.7a.5.5 0 00.7 0v-.7l-1-.8 1.2-2.2c0-.3 0-.5-.2-.7zm2.9 2.8c0 .3.3.5.5.5l1.6-.1v1.4c0 .3.3.5.5.5.3 0 .5-.2.5-.5v-1.5h1.1a.5.5 0 000-1h-1.2V39c0-.2-.3-.4-.6-.4-.2 0-.4.2-.4.5v1.7l-1.5.1c-.3 0-.5.2-.5.5zm12.6 2.1c0-.3-.2-.5-.5-.5l-2.6.2.8-1c.6-1 .8-2.4 0-3.3-.6-.6-1.5-.8-2.3-.6-.8.3-1.4 1-1.5 1.8 0 .3.2.6.5.6.2 0 .5-.2.5-.5 0-.4.4-.8.8-1 .4 0 1 0 1.2.4.5.5.4 1.5 0 2-.4.8-1.2 1.3-2 1.8a.5.5 0 00.3.9l4.4-.3c.3 0 .5-.3.5-.5zM135 182.8l.3.1h.5l9-8.5c.3-.2.3-.5 0-.7a.5.5 0 00-.6 0l-2.8 2.6-3-5.2a.5.5 0 00-.7-.2c-.2.2-.3.5-.2.7l3.1 5.4-5.5 5.1c-.2.2-.2.5 0 .7zm14.3-10.6c-.2-.5-.6-.9-1.1-1-.5-.1-1 0-1.3.2-.2.1-.2.4 0 .7 0 .2.4.2.6 0h.4c.3.1.5.3.5.5.2.4 0 1-.3 1.4-.3.5-.9.8-1.4 1.2-.2 0-.2.2-.2.4s0 .3.2.4l2.8 1.3c.3.1.6 0 .7-.2 0-.2 0-.5-.3-.6l-2-1 1-1c.6-.7.7-1.6.4-2.3zm1.4 8.1l-2.4-1.2a.5.5 0 00-.6.2c-.2.3 0 .6.2.7l2.3 1.1a.5.5 0 00.5-.8zm-3.8.9a.5.5 0 00.3.6l2.9 1c.2.1.5 0 .6-.3 0-.3 0-.5-.3-.6l-3-1c-.2 0-.4 0-.5.3zm15.6-6.4l-4.8 6.7-1.7-5.5c0-.3-.3-.4-.6-.3-.2 0-.4.3-.3.6l2 6.4.3.3c.3 0 .4 0 .6-.2l5-7.1a54 54 0 0013.8 5.8c.2 0 .5-.1.5-.4.1-.2 0-.5-.3-.6a51.1 51.1 0 01-13.9-5.9.5.5 0 00-.6.2z"/><path fill="#F2F4FF" d="M163.7 187c0 .1 0 .2.2.2h.4l6.2-5.1a.5.5 0 10-.6-.8l-2.4 2-2.3-3.4a.5.5 0 00-.7-.1c-.2.1-.3.4-.1.7l2.3 3.4-3 2.5c-.2.2-.2.5 0 .7zm9.3 6.9c0-.3 0-.6-.3-.7l-19.3-8.1c-.3-.2-.6 0-.7.2 0 .3 0 .6.3.7l19.3 8.1c.3.1.6 0 .7-.2zm-16-3.3a.5.5 0 00-.7 0l-1.8 1.4-1.4-2.9a.5.5 0 00-.6-.2c-.3.1-.4.4-.3.7l1.5 3-2.3 1.8a.5.5 0 000 .8h.6l2.1-1.7.5 1 .3.2h.4c.2-.2.3-.5.2-.7l-.6-1.2 2-1.5c.2-.2.2-.5 0-.7zm1.6 3.7c0 .3 0 .5.3.6l1.5.5-.5 1.4c-.1.3 0 .5.2.6.3.1.6 0 .7-.3l.5-1.3 1.1.3c.3.1.6 0 .6-.3.1-.2 0-.5-.3-.6l-1-.4.5-1.5c.1-.3 0-.6-.3-.7-.2 0-.5 0-.6.3l-.6 1.6-1.4-.5c-.3 0-.6 0-.7.3zm10.9 6.7c0-.2 0-.5-.3-.5l-2.6-.9c.5-.1.9-.3 1.2-.6 1-.6 1.6-1.9 1.2-3-.3-.8-1-1.4-1.8-1.4-.9-.1-1.7.3-2 1a.5.5 0 10.8.5c.2-.4.6-.6 1-.6.5 0 1 .4 1 .8.3.7-.2 1.5-.7 2-.7.4-1.7.6-2.5.8a.5.5 0 000 .9l4 1.4c.3 0 .6 0 .7-.3zM465 155.4c.4 0 .6-.3.6-.6s-.2-.6-.6-.6c-2.8-.2-4.4-3.4-4.8-4.4-1.8-4-2-8.6-.4-12.8.3-.5.6-1.2 1.1-1.5l.8.1s.2.2.1.3c0 .3.3.6.6.6.4 0 .6-.3.7-.6 0-.5-.3-1-.8-1.3a2 2 0 00-1.9-.2c-1 .4-1.4 1.4-1.7 2.2a18 18 0 00.4 13.7c.6 1.5 2.5 4.8 5.8 5h.2z"/><path fill="#F2F4FF" d="M471 137.8c-.4 0-.7.2-.8.5l-.6 4.3c-2-.9-3.8-2-5.5-3.1a.6.6 0 00-.9.1c-.2.3 0 .6.2.8 1.9 1.4 3.9 2.5 6 3.4l-.8 5.4c0 .6-.3 1.8.4 2.5.2.2.4.3.6.2.2 0 .3-.1.4-.3l.5-1c.2-.3 0-.6-.2-.8h-.6v-.4l.9-5.2.4.1c.2 0 .4-.2.4-.4.1-.3 0-.6-.3-.7l-.4-.2.7-4.5c0-.3-.2-.6-.5-.7zm4.2 6.2c.1.2.3.3.6.3l.2-.2c.9-.7 1.8-1.2 2.7-1.6a90.7 90.7 0 00.6 3.4c-.2.4-.1.7 0 1 .3.2.5.3.7.2h.3c.2-.2.6-.5.4-1.3a88 88 0 01-.8-3.7l1-.2a.6.6 0 00-.3-1.2l-1 .2a84 84 0 01-.6-4.5c0-.3-.4-.5-.7-.5-.4 0-.6.3-.5.7.1 1.5.4 3.1.7 4.7a8 8 0 00-3.2 1.9c-.3.2-.3.6-.1.8zm12.4-7a.6.6 0 101-.8c-.3-.4-.8-.7-1.4-.7-.7 0-1.4.2-2 .8-.7.8-1 2-1 2.8-.3 1-.5 2.2-.3 3.4.2 1.4 1 2.6 2.2 3h.5c1-.5 1.4-1.6 1.2-3.3a55 55 0 002.5 4.8.6.6 0 101-.7 38 38 0 01-4.2-9.6c.2 0 .4 0 .5.2zm-1 5c0 .8 0 1.8-.4 2.2-.6-.4-1-1.2-1.1-1.9-.2-1 0-2 .2-3 .1-.6.3-1.4.6-2l.7 4.7zm6.3-6.6c-.4 0-.6.3-.6.7l.2 2.6-1.2 1c-.2.1-.3.5 0 .8l.5.2c.1 0 .2 0 .3-.2l.5-.3v.3c0 .4.3.6.7.6.3 0 .5-.3.5-.7v-1a12 12 0 011.6-.9c.3-.1.5-.5.4-.8a.6.6 0 00-.8-.3l-1.3.6-.2-2c0-.3-.3-.6-.6-.6zm7.1 4.2c-.9.5-1.9.6-2.7.3a.6.6 0 00-.8.4c-.1.3 0 .6.4.8a4 4 0 002 .1c.6 0 1.2-.3 1.7-.6 1.2-.7 2-1.8 2.2-3.1.1-1-.2-2-.7-2.5-.8-.8-2-1-2.8-.3-.5.4-.7 1-.8 1.4l-.3 1-1.2-5.3c0-.3-.4-.5-.7-.4-.4 0-.6.4-.5.7l1.7 7.5a.6.6 0 001.1 0l1-3.1c.1-.4.3-.7.5-.9.2-.2.8-.1 1 .2.4.3.5 1 .5 1.5-.2 1-.7 1.8-1.6 2.3z"/><path fill="#F2F4FF" d="M502.7 129a.6.6 0 00-.9.2c-.1.3 0 .7.2.8 2.1 1.5 3.5 4 3.6 6.5.1 2.5-.9 5-2.7 6.6l-.4-.2a.6.6 0 00-.5 1.1l.8.4h.3l.3-.1a9.8 9.8 0 003.4-7.8c-.1-3-1.7-5.8-4.1-7.5zm-137.8-4h.2c.3 0 .5-.1.6-.4l.8-1.8 5 .3.5 1.7a.7.7 0 00.8.4c.3 0 .5-.5.4-.8l-.5-1.5a.6.6 0 00-.3-1l-2.1-6.9a.6.6 0 00-.9-.4h-.1a.6.6 0 00-.8.3l-4 9.2c0 .3 0 .7.4.9zm4.4-8.8l1.7 5.5-4-.1 2.3-5.4zm5.7 3.7l2.6-.2c.3 0 .6-.4.5-.8 0-.3-.3-.6-.7-.5l-2.5.2c-.4 0-.6.4-.6.7 0 .3.3.6.7.6zm-.4 1.4c0 .4.3.7.6.7h3c.4 0 .7-.3.7-.7 0-.3-.3-.6-.6-.6h-3c-.4 0-.7.3-.7.6zm10.8-3.9c.4 0 .7-.3.7-.7l-.4-6.6c0-.3-.3-.6-.7-.6-.4 0-.6.3-.6.7l.4 6.6c0 .4.3.6.6.6zm-3.4 2.3l7.9.5c.3 0 .6-.3.7-.6 0-.4-.3-.7-.6-.7l-7.9-.5c-.4 0-.7.3-.7.6 0 .4.3.7.6.7zm5 3.6c-.4-.6-1.1-1-2-1.1-.7 0-1.5.2-2 .8l-.2.4v.8a.6.6 0 101.4-.1v-.4c.1-.2.4-.2.8-.2s.7.2.9.5c.4.6.2 1.5-.2 2a7 7 0 01-2 1.8c-.3.2-.4.5-.4.7.1.3.4.5.7.5l5.7-.3c.3 0 .6-.3.6-.6 0-.4-.3-.7-.7-.7l-3.5.2.6-.8c.7-1 1-2.4.3-3.5zm6.6-.3c0 .4.3.7.7.7.2 0 .4-.2.6-.4a4 4 0 004-1.5c.6-.7.7-1.8.4-2.7-.3-.8-.8-1.4-1.5-1.7-1.1-.3-2.3.1-3 1l-.2-4.5c0-.3-.3-.6-.6-.6-.4 0-.7.3-.7.7l.3 8.5v.5zm1.7-3.2c.4-.7 1.3-1.4 2-1.1.5.1.7.6.8.8.1.5 0 1.2-.2 1.6-.5.6-1.1.9-1.8 1a.6.6 0 00-.6-.4h-.3l-.3.2c0-.7.1-1.4.4-2zm5.7 1.9c.3 0 .6-.4.5-.7 0-.8 0-1.5.2-2.1.2-.5.6-1 1.1-1 .7 0 1.1.7 1.2 1.3.1.8-.2 1.7-.5 2.5v.6l.6.2h.8c.4 0 .6-.3.6-.7 0-.3-.2-.5-.5-.6.2-.7.4-1.4.3-2.1-.2-1.3-1.1-2.5-2.4-2.5-.7 0-1.3.3-1.7.7l-.3-3.4c0-.4-.3-.6-.7-.6-.3 0-.6.4-.6.7l.6 7c0 .4.4.7.7.7zm-125 39.7a19 19 0 001.8-10l9-.3c.3 0 .4-.2.4-.4 0-.3-.1-.4-.4-.4l-9 .3c-.6-4.4-2.5-8.7-5.6-11.7l9.3-9v-.5a.4.4 0 00-.5 0l-9.4 9a17.7 17.7 0 00-12.8-4.6v-7.4c0-.2-.3-.4-.5-.4s-.4.2-.4.4l.1 5.2h-.3l-.6.2c-.2 0-.3.2-.2.4 0 .2.2.3.4.3l.7-.2v1.5a19.7 19.7 0 00-11.6 5.3L231 123.6a.4.4 0 00-.6 0v.5l15.3 15.6c-3 3-5 7-5.3 11.4l-.2-1.6c0-.2-.2-.4-.4-.4s-.3.2-.3.4l.2 2.6-11 .4c-.1 0-.3.2-.3.4s.2.3.4.3l11.5-.4v2.2a20 20 0 0015.5 16.7l2.7.2.2 8.7c0 .2.1.4.3.4.3 0 .4-.2.4-.4l-.1-8.7c6.8-.2 13.6-4.3 16.6-10.5zm-.7-.4c-2.9 6-9.4 10-16 10.1l-.2-19 18-.7c.2 3.3-.3 6.7-1.8 9.6zm1.7-10.3l-17.8.6 12-11.5.2 3.8c0 .2.2.4.4.4s.4-.2.3-.4l-.1-3.8a19 19 0 015 10.9zm-6-11.8l-12 11.5-.2-15.8c4-.2 8.4.9 12.2 4.3zm-19.7-2.3c2-1 4.3-1.7 6.8-2l.2 16.8h-.2l-.1-.4-11-11.3c1.2-1.2 2.7-2.2 4.3-3zm-5 3.6l11 11.2-16.1.6a18 18 0 015.2-11.8zM256 171a18.8 18.8 0 01-14.9-18.1l16.7-.6-1.2 1.6a.4.4 0 00.3.6s.2 0 .3-.2l1.1-1.5.3 18.4c-.9 0-1.7 0-2.6-.2z"/><path fill="#F2F4FF" d="M239.4 145v1.3c0 .2.2.3.4.3s.4-.1.4-.3V145c0-.2-.2-.4-.4-.4s-.4.2-.4.4zm0-5c-.3 0-.4.1-.4.3v1c0 .3.1.4.4.4.2 0 .3-.1.3-.4v-1c0-.2-.1-.4-.3-.4zm-.4-5.4c-.3 0-.4.2-.4.4l.2 1.9c0 .2.2.3.4.3s.4-.2.3-.4l-.1-1.8c0-.2-.2-.4-.5-.4zm2.6-2.4c-.2 0-.4.1-.4.3 0 .3 0 .5.3.5l1.4.2c.3 0 .4-.2.4-.4s0-.4-.3-.4l-1.4-.2zm4.8.2c-.3 0-.4.2-.4.4s.2.4.4.4l1.3-.2c.2 0 .3-.2.3-.5 0-.2-.2-.3-.4-.3l-1.2.2zm3.7.1l.6.2h.2c.1 0 .3-.1.3-.3 0-.2 0-.4-.2-.5l-.7-.2c-.2 0-.4 0-.4.3-.1.2 0 .4.2.5zm4.3-.9a.4.4 0 00-.5.2c-.1.2 0 .4.1.5l.4.2h.2c.2 0 .3 0 .4-.2 0-.2 0-.4-.2-.5l-.4-.2zm-18.2 10.8a.4.4 0 00-.5.1l-1.5 2.8-1.5-1a.4.4 0 00-.5 0v.6l1.7 1-1 2a.4.4 0 00.3.5c.2 0 .3 0 .4-.2l1-1.8 1.6 1 .2.1c.1 0 .3 0 .3-.2v-.5l-1.8-1.1 1.5-2.8c0-.2 0-.4-.2-.5zm13.1-13.4h.2c.1 0 .3 0 .3-.2l1.4-4.3c0-.2 0-.4-.2-.5-.2 0-.4 0-.5.2l-.9 2.7-3-1.5c-.2 0-.4 0-.5.2-.1.2 0 .5.2.5l3 1.5-.2 1c0 .2 0 .4.2.4zm22.3 16.2v1.5c0 .2.1.3.4.3.2 0 .3-.1.3-.3v-1.5c0-.2-.1-.4-.3-.4-.3 0-.4.2-.4.4zm.4 3.1c-.3 0-.4.3-.4.5l.2 1c0 .2.2.3.4.3.3 0 .4-.2.4-.5l-.2-1c0-.2-.3-.3-.5-.3zm6.9-3.7a.7.7 0 01-.5-.2.4.4 0 00-.6 0c-.1 0-.2.3 0 .5a1.5 1.5 0 001.1.5c.4 0 .8-.1 1-.3.3-.3.5-.7.5-1.1 0-.5-.2-.9-.5-1.1a2 2 0 00-1-.5l-.5-.3a1 1 0 01-.3-1c.2-.4.6-.6 1-.5.2 0 .4-.1.5-.3 0-.2-.1-.4-.3-.5-.7-.2-1.5.2-1.9.9-.3.7 0 1.5.5 2l.8.4c.3 0 .5.2.7.3l.2.6c0 .2 0 .4-.2.5-.1.1-.3.2-.5.1zm2.1-4.6c-.3 0-.4.2-.4.4l.6 3.5c0 .2.2.3.4.3.3 0 .4-.3.4-.5l-.6-3.4c0-.3-.2-.4-.5-.4zm4 3.3c.2 0 .4 0 .5-.3l.2-1.6c-.1-.5-.5-1.2-1.2-1.3-.5-.2-1 .1-1.4.5v-.4c-.1-.2-.3-.3-.6-.3-.2 0-.3.3-.2.5l.4 2.1.2.8a.4.4 0 00.4.3c.3 0 .4-.2.3-.5l-.1-.7v-.9c0-.4.5-.8.9-.7.2 0 .4.4.5.7 0 .4 0 .9-.2 1.3 0 .2.1.4.3.5zm1.7.2a.4.4 0 00.5-.2l.7-1.6 1.4 1.4.3.1h.3v-.6l-1.6-1.7.4-1c0-.2 0-.5-.2-.5-.2-.1-.4 0-.5.2l-.3.7-.8-.8a.4.4 0 00-.6 0v.5l1 1-.8 2c0 .2 0 .5.2.5zm-25.9 14a2.2 2.2 0 002 1c.7 0 1.3-.2 1.7-.6l.3.3 1 .3c.4 0 .7-.1 1-.3a2 2 0 001.3-1.6c0-.7-.3-1.4-.9-2a2 2 0 00-2-.3l-.1.1-.2.1c-.6.4-1 1-1 1.8 0 .3 0 .6.2.9h-.1c-.3.4-.8.6-1.3.6s-1-.3-1.2-.7c-.2-.4-.2-1 0-1.4.3-.5.8-.8 1.2-.8.2 0 .4-.2.4-.4 0-.3-.2-.4-.4-.4-.7 0-1.4.5-1.8 1.2-.4.7-.4 1.5 0 2.2zm4.5-2.3c.3.1.6 0 .7-.2.3 0 .5.1.8.3.3.3.6.8.5 1.2 0 .4-.3.8-.8 1-.4.2-.9.2-1.2 0-.4-.2-.6-.7-.6-1.2s.2-.9.6-1.1z"/><path fill="#F2F4FF" d="M269.2 156.5l.3.2c.3.1.5.4.5.6l-.2.1c0-.2-.2-.3-.4-.2-.2 0-.4.2-.3.5 0 .3.4.5.7.5a1 1 0 001-.8c0-.6-.5-1.2-1-1.4l-.3-.2-.7-.4a.9.9 0 010-1c.2-.4.7-.4 1-.2.2 0 .4 0 .6-.2 0-.2 0-.4-.2-.5-.6-.4-1.5-.3-2 .3s-.5 1.6 0 2.1c.3.3.7.5 1 .6zm2 .7c.1 0 .2 0 .3-.2l1-1.2 1.1 1.2.3.1a.4.4 0 00.3-.6l-1.2-1.3 1-1.2v-.6a.4.4 0 00-.6 0l-1 1.2-.7-.7a.4.4 0 00-.5 0c-.2.1-.2.3 0 .5l.8.8-1 1.3c-.2.2-.2.4 0 .6h.2zM242 171l.2-.2 1.4-1.2c.1-.1.2-.4 0-.5a.4.4 0 00-.5 0l-1.4 1.2c-.2 0-.2.3 0 .5l.2.1zm6-7.4l-1.3 1.2v.5l.3.2s.2 0 .3-.2l1.2-1.2v-.5a.4.4 0 00-.6 0zm3.3-4.2l-.8.9a.4.4 0 00.3.6h.3l.8-.9v-.6a.4.4 0 00-.6 0zm3.2-3.8l-1.2 1.7c-.1.1 0 .4.1.5h.5l1.3-1.7-.1-.6a.4.4 0 00-.6.1zm15.1-28.6c.4 0 1-.1 1.4-1a70.2 70.2 0 00.3 3.1h.4c.4-.2.6-.8.5-1.3l-.4-.2a68.6 68.6 0 010-5.2c0-.2-.2-.4-.4-.4s-.4.2-.4.4v.1c-.8 0-1.6.2-2.1.7-.7.7-1 1.8-.7 2.7.2.6.7 1.2 1.4 1.2zm-.2-3.2a1.8 1.8 0 011.6-.5v.2a6 6 0 01-.6 2c-.2.3-.4.8-.8.8-.3 0-.5-.3-.6-.7a2 2 0 01.4-1.8zm290.4 101.6c-.2 0-.4.4-.3.7l4.9 13c0 .2.3.3.5.3s.4-.2.5-.4l5.7-24.5 34.2.3c.3 0 .6-.2.6-.5s-.3-.5-.6-.5l-34.6-.3c-.2 0-.4.2-.5.4l-5.4 23.2-4.3-11.4a.5.5 0 00-.7-.3z"/><path fill="#F2F4FF" d="M578.2 220a.5.5 0 00-.7.3l-1.3 2.3-1.6-2.4a.5.5 0 00-.7-.2c-.3.2-.3.5-.2.7l1.9 2.9-1.7 3a.5.5 0 00.9.5l1.4-2.6 1.7 2.6a.5.5 0 00.8.2c.2-.2.3-.5.1-.7l-2-3 1.6-2.8c.1-.3 0-.6-.2-.7zm2.1-3.1h-.5l-.2.4v1.2c0 .3.1.6.4.6.3 0 .5-.2.6-.5v-.4c.3.2.6.7.6 1.1 0 .7-.4 1.3-1 1.5a.5.5 0 00.1 1l2.4.3h.1c.3 0 .5-.2.5-.4 0-.3-.2-.6-.4-.6l-1.2-.1c.4-.5.6-1.1.6-1.8-.1-1-1-2-2-2.3zm6 7.3l4.8-.6c.3 0 .5-.3.5-.6s-.3-.5-.6-.4l-4.8.5c-.3 0-.5.3-.5.6s.3.5.5.5zm9.1 2.5l-.4 1.3c0 .3.1.5.4.6h.1c.2 0 .4 0 .5-.3l3.6-9c0-.3 0-.6-.3-.7a.5.5 0 00-.7.3l-1 2.5-3-2.5a.5.5 0 00-.8 0c-.2.3-.1.6 0 .8l3.3 2.6h.1l-1.5 4c-.2.1-.3.2-.3.4zm7-9.7a.5.5 0 00-.7-.1l-1 .5c-.3.1-.4.5-.2.7.1.3.4.4.7.2l.6-.3c.4 1 .4 2.1 0 3l.1.6a.5.5 0 00.6.2c.6-.3 1.3-.4 2-.3.3 0 .6-.2.6-.5 0-.2-.1-.5-.4-.5-.6-.1-1.1 0-1.6 0 .2-1.2 0-2.4-.7-3.5zM569 233.8c0 .2.2.4.5.4l38-2.3a.5.5 0 100-1l-38 2.3c-.3 0-.6.3-.5.6zm18.3 3.7a.5.5 0 00-.5-.3l-5.5.4c-.3 0-.5.2-.5.5s.3.5.5.5l4.5-.3-4.1 5.4c-.2.2-.2.4 0 .6l.4.2h.1l4.7-1.4c.3 0 .5-.3.4-.6-.1-.3-.4-.4-.7-.4l-3.2 1 3.9-5v-.6zm1.3 2.3c0 .2.2.4.5.4l1.2-.2.2 1.9c0 .3.2.5.5.5s.5-.3.5-.6l-.2-2 2.2-.3a.5.5 0 00-.1-1l-2.2.3-.1-.9c0-.3-.3-.5-.6-.4-.3 0-.5.2-.4.5v1l-1.1.2c-.3 0-.5.3-.4.6zm11.6-4.8a.5.5 0 00-.7.3l-1 2.6-2.5-2a.5.5 0 00-.7.7l2.7 2.3-1.4 3.2a.5.5 0 101 .4l1.2-3 1.7 1.4.3.2.4-.2c.2-.3.2-.6 0-.8l-2-1.5 1.3-2.9c0-.2 0-.5-.3-.6zm-49.8-66.6a3.8 3.8 0 00-3-1.3 4 4 0 00-1 .1c0-2.8.7-5.5 2.6-7.4.2-.2.2-.6 0-.8a.6.6 0 00-.9 0c-2.3 2.2-2.9 5.5-3 8.9a3 3 0 00-.4.5l-.1.3c0 .4.2.8.5 1v1c.2 2.2 1 3.6 2.2 4h.4c.6.1 1.3-.1 1.9-.6 1.7-1.3 2.1-4 .8-5.7zm-1.6 4.8c-.3.2-.7.4-1 .4-1.2-.1-1.4-2.4-1.4-2.9v-.7c.3-.2.4-.5.3-.8 0-.2-.2-.3-.4-.4v-.3l1.1-.2c.8 0 1.6.3 2 .9 1 1.1.7 3-.6 4zm12.6-3c.3 0 .6-.2.7-.5 0-.3-.1-.6-.5-.7l-2.1-.4.6-3.4c0-.3-.1-.7-.5-.7-.3 0-.6.1-.7.5l-.6 3.5h-3.6a.6.6 0 100 1.2h3.3l-.4 2.3c0 .3.1.6.4.7.4.1.7-.1.8-.4l.4-2.5 2.2.4zm9.4 2.8l.2-.2-.1 3.7c0 .2.1.4.3.5h.6l1.1-.6c.3-.2.4-.6.3-.9a.6.6 0 00-.8-.2l-.3.2a26.9 26.9 0 01.9-6.8c0-.3-.2-.6-.5-.7h-.3c-.3-.5-.9-1-1.4-1-1-.2-1.9.1-2.8.9a6.8 6.8 0 00-2.4 5.2c0 .2.1.4.3.5 1.4 1 3.5.7 5-.6zm-4-.2c.1-1.5.8-3 2-4 .3-.3 1-.8 1.7-.7.3.1.5.3.6.6 0 0 .1.2 0 .4-.1.3 0 .6.3.8-.4 1-.8 1.7-1.4 2.2-.8.8-2.1 1.2-3.2.7zm17.8 1.2c0-.4-.2-.7-.5-.7a38 38 0 01-6.9-1.1c-.3-.1-.6 0-.7.4a.6.6 0 00.4.7c2.3.6 4.7 1 7 1.2.4 0 .7-.3.7-.6zm5.4 11.9c2-.5 3.8-2 4.5-3.9.3-1 .4-2.2.4-3.2l.3-6.4c0-.4-.3-.6-.6-.7-.3 0-.6.3-.7.6a7.2 7.2 0 01-1.4 3.6c-.2.3-.5.5-.7.5l-.4-.8-1.1-4.3c0-.4-.4-.5-.8-.5-.3.1-.5.4-.4.8l1.2 4.3c0 .4.3 1.3 1.1 1.6.7.2 1.5-.1 2-1 .2 0 .3-.2.4-.4v2.7c-.1 1-.2 2-.5 2.8-.5 1.5-2 2.7-3.6 3.1a7 7 0 01-5-.8.6.6 0 00-.9.2c-.1.3 0 .6.3.8a9 9 0 002 .9 7 7 0 003.8 0zm-350.5 24.3c.6-1 1.6-1.7 2.5-1.8.3 0 .6-.3.6-.7 0-.3-.3-.5-.7-.5-1.3 0-2.6 1-3.4 2.4-.7 1.4-1 3-1 4-.2 3.2.4 6.5 1.7 9.5a6 6 0 002.1 3c.5.2 1 .4 1.6.4.9 0 1.7-.3 2.2-1.1.2-.3 0-.7-.2-.9a.6.6 0 00-.8.2c-.4.7-1.5.7-2.2.3-.8-.5-1.3-1.5-1.7-2.4a20.3 20.3 0 01-1.5-8.9 7 7 0 01.8-3.5z"/><path fill="#F2F4FF" d="M246.4 222.8c-.4 0-.6.2-.7.6 0 .3.3.6.6.6h.2c1.3 0 2.6-1 3.2-2.4a8 8 0 00.4-4c-.3-2.5-.9-4.8-1.8-7a.6.6 0 00-.7-.4c-.3.1-.5.4-.4.7a5 5 0 01-.5 3.4c-.1.3-.5.8-1 .9-.5 0-1-.6-1-1.2-.1-.7.1-1.5.4-2.1 0-.4 0-.7-.4-.8a.6.6 0 00-.7.3c-.3.8-.6 1.8-.5 2.8.1 1.1 1 2.2 2.2 2.2.8 0 1.5-.6 2-1.4l.5-1.1c.3 1.2.6 2.5.7 3.8a7 7 0 01-.3 3.4c-.4 1-1.3 1.8-2.2 1.7zm9.8-9.4a.6.6 0 00-.8-.1c-.7.4-1.6.6-2.4.4l.3-1.2.2-.5c.3-1.2.3-2.1-.2-2.9a2 2 0 00-1.7-.8c-.6 0-1 .4-1.2.9-.2.3 0 .6.3.8.3.1.6 0 .7-.3l.3-.2c.2 0 .5.1.6.3.3.4.3 1 0 1.8l-.1.5c-.2.7-.4 1.4-.4 2.1 0 .3.2.5.4.5l1.4.3c.9 0 1.7-.2 2.5-.7.2-.2.3-.6.1-.9zm1.1 2.5c0 .2.3.5.6.5h.1l1.6-.4v2.8c0 .4.3.6.6.6.4 0 .6-.3.6-.6v-3l2.4-.4c.3 0 .5-.4.5-.7 0-.4-.4-.6-.7-.5l-2.3.4v-2.4c0-.3-.3-.6-.6-.6s-.6.3-.6.6v2.6l-1.7.4c-.3 0-.5.3-.5.7zM274 220c.4-3.2.1-6.6-.7-9.8-.1-.3-.4-.5-.7-.4-.4 0-.5.4-.5.7.3.9 0 1.8-.6 2.3-.6.5-1.6.4-2.1 0-.2-.3-.4-.7-.3-1.1 0-.4.1-.7.4-.9.3-.2.3-.6.1-.8a.6.6 0 00-.8-.2c-.5.4-.8 1-1 1.8 0 .7.3 1.5.8 2a2.7 2.7 0 004-.4c.4 2.2.5 4.5.2 6.7-.2 1-.5 2.4-1.3 3.1a2 2 0 01-1.7.4l-.7-.6a.6.6 0 00-.7-.4c-.3.1-.5.5-.4.8.3.6.8 1.1 1.5 1.3l.8.1a3 3 0 002-.6c1.1-1 1.5-2.7 1.6-4zm2-8.9c0 .2.3.3.5.3l2.2.2c.3 0 .6-.3.6-.6s-.2-.6-.5-.6l-1.5-.1c.2-.8.1-1.6-.3-2.4-.5-1-1.5-1.8-2.5-1.9-.3 0-.6.2-.6.5 0 .4.2.7.5.7.6 0 1.2.5 1.6 1.3.3.7.3 1.5 0 2v.6zm4.2 14.3h.6a14.7 14.7 0 00.7-21.7.6.6 0 00-.8 0c-.2.2-.2.6 0 .8a13.6 13.6 0 01-.4 19.6c-.2-.3-.4-.7-.3-1 0-.4-.2-.7-.5-.7-.3-.1-.6.1-.7.4-.2 1 .4 2.2 1.4 2.6zm7.4-4.7h.1l1.9-.6c.3-.1.5-.5.4-.8a.6.6 0 00-.8-.4l-1.8.6c-.3 0-.5.4-.4.8 0 .2.3.4.6.4zM164.7 234c.3 0 .5 0 .5-.3 0-.2 0-.4-.3-.5-1-.2-1.6.7-2 1.6-1.3 4-1.2 8.4.4 12.2.4.9 1 2.2 2.2 3h.2c.1 0 .2 0 .3-.2.1-.2 0-.4-.1-.5-1-.7-1.6-1.8-1.9-2.6a16.4 16.4 0 01-.3-11.6c.2-.5.6-1.2 1-1zm2 3.6c0-.3-.3-.4-.5-.4s-.4.3-.3.5c.3 1.7 1 3.4 2 5a16 16 0 00-1 3.9c0 .2.2.4.4.4s.4-.1.4-.3c.1-1.1.4-2.2.7-3.3.5.7 1 1.3 1.7 1.8.3.3.5.6.5.8 0 .2 0 .4.3.5.3 0 .4-.2.5-.3.1-.8-.5-1.3-.8-1.6-.7-.6-1.4-1.3-2-2.1a18 18 0 012-3.8c.1-.2 0-.5-.1-.6a.4.4 0 00-.6.1c-.7 1.1-1.3 2.3-1.8 3.5-.7-1.3-1.2-2.7-1.5-4.1zm5.4-4.7a.4.4 0 00-.5-.2c-.2.1-.3.4-.2.6l1.2 1.8c1.1 1.8 2.3 3.6 2.8 5.6.7 2.4.3 5.3-1.6 6.8v-1c-.1-.2-.3-.3-.5-.3s-.4.2-.4.4l.2 1.7a.4.4 0 00.4.3h.2c2.6-1.6 3.2-5.3 2.5-8.1-.6-2.1-1.8-4-3-5.8l-1-1.8zm4.5.1a2 2 0 00-.6-1.2 1 1 0 00-1-.3c-.2 0-.4.3-.5.5-.1.2 0 .5.2.6.2 0 .4 0 .5-.3h.3c.2.2.3.6.3.9.2 1.2.2 2.5 0 3.8l.2.3.3.1c1.3-.2 2.5-1 3.1-2.1.2-.2 0-.5-.1-.6a.4.4 0 00-.5.2c-.5.8-1.2 1.4-2 1.6 0-1.1 0-2.3-.2-3.5z"/></svg>