<svg width="31" height="24" viewBox="0 0 31 24" fill="none" xmlns="http://www.w3.org/2000/svg">
<path d="M20.1611 21.6105L18.1845 20.4479C18.1845 20.4479 17.5586 20.1402 17.5586 19.3195C17.5586 18.4989 18.9092 14.9427 18.9092 14.9427L21.3799 13.575L22.1706 13.5066L24.3118 14.7376" fill="#3BC6E4"/>
<path fill-rule="evenodd" clip-rule="evenodd" d="M22.7012 13.5066L24.9872 14.6931L24.6597 15.2471L22.553 14.1537L21.9137 14.2036L19.5511 15.3844C19.5468 15.3948 19.5423 15.4059 19.5374 15.4176C19.4998 15.5085 19.4459 15.6394 19.3813 15.7989C19.252 16.1181 19.0798 16.5511 18.9078 17.0073C18.7355 17.4641 18.5646 17.9408 18.4372 18.3484C18.3048 18.7721 18.2344 19.0765 18.2344 19.2134C18.2344 19.501 18.353 19.6893 18.4681 19.8084C18.5271 19.8696 18.5861 19.9131 18.629 19.9406C18.6503 19.9542 18.667 19.9635 18.6769 19.9688C18.6814 19.9712 18.6844 19.9727 18.6858 19.9733L18.6943 19.9771L20.7325 21.0595L20.3993 21.6105L18.3796 20.5379C18.3786 20.5374 18.3775 20.5369 18.3764 20.5364C18.3682 20.5324 18.3576 20.5271 18.3449 20.5204C18.3198 20.5071 18.2863 20.4882 18.2474 20.4633C18.1699 20.4136 18.0684 20.3384 17.9669 20.2333C17.7609 20.0199 17.5586 19.6857 17.5586 19.2134C17.5586 18.9702 17.6613 18.5779 17.7887 18.1704C17.9211 17.7468 18.0966 17.2577 18.2706 16.7962C18.4449 16.334 18.6191 15.8962 18.7495 15.5742C18.8148 15.4131 18.8692 15.2807 18.9073 15.1886C18.9264 15.1425 18.9414 15.1065 18.9517 15.0819L18.9634 15.0538L18.9674 15.0442C18.9675 15.0441 18.9675 15.044 19.2819 15.1601L18.9674 15.0442L19.0131 14.9355L21.7186 13.5833L22.7012 13.5066ZM18.6863 19.9736C18.6869 19.9739 18.6868 19.9738 18.6863 19.9736V19.9736Z" fill="#262626"/>
<path d="M23.6975 14.1819C25.2743 14.1819 26.0459 15.8364 25.4756 17.8962C24.9052 19.9559 23.1272 21.6105 21.5504 21.6105C19.9736 21.6105 19.2019 19.9559 19.7723 17.8962C20.3426 15.8364 22.1207 14.1819 23.6975 14.1819Z" fill="white"/>
<path fill-rule="evenodd" clip-rule="evenodd" d="M21.2478 15.8509C20.5775 16.4815 20.0238 17.3568 19.7557 18.3245C19.4854 19.2999 19.5446 20.1402 19.8191 20.7178C20.0859 21.2792 20.5602 21.6105 21.2115 21.6105C21.8878 21.6105 22.6491 21.2515 23.3238 20.6168C23.9941 19.9862 24.5478 19.1108 24.8159 18.1432C25.0862 17.1677 25.027 16.3274 24.7525 15.7499C24.4857 15.1885 24.0115 14.8572 23.3601 14.8572C22.6838 14.8572 21.9225 15.2162 21.2478 15.8509ZM20.7892 15.3577C21.5413 14.6502 22.4585 14.1819 23.3601 14.1819C24.2865 14.1819 24.9872 14.6779 25.3583 15.4587C25.7217 16.2233 25.7631 17.2402 25.4627 18.3245C25.1601 19.4166 24.5388 20.3984 23.7824 21.11C23.0303 21.8175 22.1131 22.2858 21.2115 22.2858C20.2851 22.2858 19.5844 21.7898 19.2133 21.009C18.8499 20.2443 18.8085 19.2275 19.1089 18.1432C19.4115 17.0511 20.0328 16.0693 20.7892 15.3577Z" fill="#262626"/>
<path d="M22.9228 16.2092C23.5966 16.1707 23.8324 17.0577 23.4619 18.1761C23.0913 19.2946 22.2828 20.2202 21.6427 20.2587C21.0026 20.2973 20.7331 19.4103 21.1037 18.2918C21.4742 17.1734 22.2828 16.2478 22.9228 16.2092Z" fill="white"/>
<path fill-rule="evenodd" clip-rule="evenodd" d="M23.4795 16.9047C23.439 16.8756 23.3779 16.8519 23.2781 16.8566C23.0793 16.8668 22.7918 17.0047 22.488 17.2967C22.1934 17.5799 21.9245 17.9702 21.7559 18.3975C21.5876 18.8241 21.582 19.1661 21.6519 19.3733C21.6858 19.474 21.7335 19.5325 21.7774 19.5646C21.8183 19.5944 21.8751 19.6158 21.9624 19.6114C22.1612 19.6013 22.4489 19.4635 22.7528 19.1713C23.0474 18.8881 23.3163 18.4978 23.4849 18.0705C23.655 17.6394 23.667 17.2968 23.6004 17.0909C23.5684 16.9919 23.5225 16.9357 23.4795 16.9047ZM24.2441 16.8985C24.3713 17.292 24.3158 17.7917 24.1152 18.3003C23.913 18.8126 23.5921 19.2809 23.2295 19.6295C22.8763 19.969 22.4393 20.2362 21.9978 20.2585C21.7648 20.2703 21.5478 20.2107 21.3697 20.0806C21.1945 19.9527 21.0778 19.7722 21.0107 19.5732C20.8784 19.181 20.9233 18.6806 21.1257 18.1677C21.3278 17.6554 21.6488 17.1871 22.0114 16.8385C22.3646 16.4989 22.8015 16.2318 23.2431 16.2095L23.244 16.2094C23.4809 16.198 23.7019 16.2553 23.8836 16.3861C24.0628 16.5151 24.1792 16.6978 24.2441 16.8985Z" fill="#262626"/>
<path d="M1.35059 14.2125V9.6425C12.0123 6.99324 17.4955 5.60238 17.6309 5.50303C17.8001 5.37057 17.834 5.30434 18.2063 3.68167C18.3078 3.15181 18.4771 2.42327 18.5786 2.02588L29.7142 7.25817V11.8613C29.1727 12.1593 27.4465 13.1528 25.4495 14.2787V14.2456L25.4157 14.2125L25.3818 14.1462C25.0434 13.8151 24.468 13.2852 23.5203 13.2852C22.9449 13.2852 22.3356 13.4839 21.6587 13.8813C19.6956 15.1066 19.1202 16.6962 18.8155 17.524C18.7479 17.6896 18.6802 17.9214 18.6125 17.9877C16.0401 19.4116 13.8739 20.6038 13.2985 20.935L1.35059 14.2125Z" fill="#3BC6E4"/>
<path d="M19.153 2.30079L29.7126 7.39118V11.701C29.0696 12.0743 27.5804 12.9567 25.8543 13.9408C25.482 13.6015 24.839 13.0245 23.8236 13.0245C23.1806 13.0245 22.5037 13.2621 21.7591 13.7033C19.6945 15.0268 19.0853 16.7236 18.7807 17.6059C18.7469 17.7077 18.6792 17.8774 18.6454 17.9452C16.3101 19.2687 14.347 20.3886 13.5686 20.7959L2.02748 14.1105V9.90244C17.8669 5.86406 18.0361 5.76225 18.1377 5.69438H18.1715L18.2054 5.66045C18.4761 5.45683 18.51 5.28715 18.8823 3.59036C18.95 3.21706 19.0515 2.70802 19.153 2.30079ZM18.7469 1.35059C18.5777 1.35059 17.9346 4.98173 17.7992 5.08354C17.5962 5.21928 1.35059 9.35946 1.35059 9.35946V14.5177L13.6025 21.6103C13.6025 21.6103 16.0393 20.2529 19.1192 18.4882C19.5253 18.2507 19.5592 15.943 22.1652 14.2802C22.8421 13.8729 23.3836 13.7033 23.8575 13.7033C24.7374 13.7033 25.2451 14.2462 25.5497 14.5517C25.6174 14.6535 25.7189 14.7213 25.8205 14.7213H25.8543C28.325 13.33 30.3895 12.1083 30.3895 12.1083V6.95001L18.7469 1.35059Z" fill="#262626"/>
<path d="M14.1816 20.2596L18.8347 17.6343C18.8347 17.6343 19.5377 14.9106 21.9479 13.5323C24.3581 11.9571 25.9314 13.762 25.9314 13.762L29.6806 11.6946L29.7141 7.42847L14.2151 16.0263L14.1816 20.2596Z" fill="white"/>
<path d="M2.02637 9.33071C4.31688 8.0175 17.6895 0.241907 17.9589 0.0691164C18.06 0.0345582 18.1274 0 18.161 0L29.7147 6.84252L13.6137 16.2078L2.02637 9.33071Z" fill="#3BC6E4"/>
<path d="M18.0986 0.693205L29.0389 6.86603L13.574 15.4156L2.6337 9.24273C5.90903 7.4272 17.8285 0.825244 18.0986 0.693205ZM18.1324 0C17.9973 0 17.8623 0.0330097 17.761 0.132039C17.4571 0.297088 1.51942 9.11069 1.51942 9.11069C1.45188 9.1437 1.38435 9.20972 1.35059 9.27574L13.574 16.2078L30.3895 6.86603L18.2675 0C18.2337 0 18.1999 0 18.1324 0Z" fill="#262626"/>
<path d="M18.2334 4.72729L25.662 9.45457L18.2334 4.72729Z" fill="#3BC6E4"/>
<path fill-rule="evenodd" clip-rule="evenodd" d="M25.3043 9.45457L17.5586 5.28019L17.9168 4.72729L25.6625 8.90167L25.3043 9.45457Z" fill="#262626"/>
<path d="M18.234 4.72729L6.07812 11.4805L18.234 4.72729Z" fill="#3BC6E4"/>
<path fill-rule="evenodd" clip-rule="evenodd" d="M6.07812 11.568L17.9013 4.72729L18.234 5.31515L6.41083 12.1559L6.07812 11.568Z" fill="#262626"/>
<path fill-rule="evenodd" clip-rule="evenodd" d="M2.44421 20.2145L4.78537 16.2078L5.4026 16.5204L2.96577 20.6908L0.765973 21.8567L0.702255 23.6363L0 23.6145L0.0768113 21.4692L2.44421 20.2145Z" fill="#262626"/>
<path d="M7.42844 17.5583L2.70117 20.2596L7.42844 17.5583Z" fill="#3BC6E4"/>
<path fill-rule="evenodd" clip-rule="evenodd" d="M2.70117 20.3573L7.12615 17.5583L7.42844 18.136L3.00346 20.935L2.70117 20.3573Z" fill="#262626"/>
<path d="M10.1297 18.9092L2.70117 20.2598L10.1297 18.9092Z" fill="#3BC6E4"/>
<path fill-rule="evenodd" clip-rule="evenodd" d="M2.70117 20.3L10.0046 18.9092L10.1297 19.5443L2.82629 20.9352L2.70117 20.3Z" fill="#262626"/>
<path fill-rule="evenodd" clip-rule="evenodd" d="M13.5068 20.935V16.2078H14.1822V20.935H13.5068Z" fill="#262626"/>
<path fill-rule="evenodd" clip-rule="evenodd" d="M17.5586 4.72727V0H18.2339V4.72727H17.5586Z" fill="#262626"/>
</svg>
