<svg xmlns="http://www.w3.org/2000/svg" width="15.332" height="24.033" viewBox="0 0 15.332 24.033"><g transform="translate(-904 -1863)"><path d="M-1126.334,95.033h0c0-.008-.026-.044-.1-.161l-.008-.014c-1.945-3.154-3.318-5.647-4.128-7.184-2.276-4.322-3.431-7.353-3.431-9.006A7.675,7.675,0,0,1-1126.334,71a7.675,7.675,0,0,1,7.666,7.666c0,4.165-7.589,16.268-7.665,16.365ZM-1126.5,74a4.505,4.505,0,0,0-4.5,4.5,4.505,4.505,0,0,0,4.5,4.5,4.505,4.505,0,0,0,4.5-4.5A4.505,4.505,0,0,0-1126.5,74Z" transform="translate(2038 1792)" fill="#21bfaf"/></g></svg>