<?xml version="1.0" encoding="UTF-8" standalone="no"?>
<svg
   xmlns:dc="http://purl.org/dc/elements/1.1/"
   xmlns:cc="http://creativecommons.org/ns#"
   xmlns:rdf="http://www.w3.org/1999/02/22-rdf-syntax-ns#"
   xmlns:svg="http://www.w3.org/2000/svg"
   xmlns="http://www.w3.org/2000/svg"
   viewBox="0 0 30.666668 20"
   height="20"
   width="30.666668"
   xml:space="preserve"
   id="svg2"
   version="1.1"><metadata
     id="metadata8"><rdf:RDF><cc:Work
         rdf:about=""><dc:format>image/svg+xml</dc:format><dc:type
           rdf:resource="http://purl.org/dc/dcmitype/StillImage" /></cc:Work></rdf:RDF></metadata><defs
     id="defs6" /><g
     transform="matrix(1.3333333,0,0,-1.3333333,0,20)"
     id="g10"><g
       transform="scale(0.1)"
       id="g12"><path
         id="path14"
         style="fill:#000000;fill-opacity:1;fill-rule:nonzero;stroke:none"
         d="M 47.1367,122.016 H 224.914 L 182.059,48.5195 H 73.5703 L 42.3711,116.156 22.4648,137.48 2.10156,137.484 v 7.473 L 25.7227,144.949 Z M 82.8242,105.813 H 172.379 V 98.3125 H 82.8242 Z m 0,-30.0044 h 89.5548 v -7.5 H 82.8242 Z M 94.6133,90.8125 H 160.609 V 83.3086 H 94.6133 Z M 172.004,22.5469 c 0,2.4414 -0.992,4.6562 -2.586,6.2461 -1.594,1.5937 -3.805,2.5859 -6.246,2.5859 -2.442,0 -4.656,-0.9922 -6.25,-2.5859 -1.59,-1.5899 -2.586,-3.8047 -2.586,-6.2461 0,-2.4414 0.996,-4.6563 2.586,-6.2461 1.594,-1.5938 3.808,-2.586 6.25,-2.586 2.441,0 4.652,0.9922 6.246,2.586 1.594,1.5898 2.586,3.8047 2.586,6.2461 z m 2.715,11.5469 c 2.953,-2.9532 4.785,-7.0391 4.785,-11.5469 0,-4.5078 -1.832,-8.5938 -4.785,-11.5508 -2.953,-2.94922 -7.043,-4.78126 -11.547,-4.78126 -4.508,0 -8.598,1.83204 -11.551,4.78126 -2.953,2.957 -4.785,7.043 -4.785,11.5508 0,4.5078 1.832,8.5937 4.785,11.5469 2.953,2.957 7.043,4.7851 11.551,4.7851 4.504,0 8.594,-1.8281 11.547,-4.7851 z M 106.656,22.5469 c 0,2.4414 -0.992,4.6562 -2.586,6.2461 -1.593,1.5937 -3.804,2.5859 -6.2458,2.5859 -2.4414,0 -4.6562,-0.9922 -6.25,-2.5859 -1.5898,-1.5899 -2.582,-3.8047 -2.582,-6.2461 0,-2.4414 0.9922,-4.6563 2.582,-6.2461 1.5938,-1.5938 3.8086,-2.586 6.25,-2.586 2.4418,0 4.6528,0.9922 6.2458,2.586 1.594,1.5898 2.586,3.8047 2.586,6.2461 z m 2.715,11.5469 c 2.953,-2.9532 4.785,-7.0391 4.785,-11.5469 0,-4.5078 -1.832,-8.5938 -4.785,-11.5508 -2.953,-2.94922 -7.039,-4.78126 -11.5468,-4.78126 -4.5078,0 -8.5937,1.83204 -11.5508,4.78126 -2.9531,2.957 -4.7812,7.043 -4.7812,11.5508 0,4.5078 1.8281,8.5937 4.7812,11.5469 2.9571,2.957 7.043,4.7851 11.5508,4.7851 4.5078,0 8.5938,-1.8281 11.5468,-4.7851 z M 211.883,114.516 H 51.3711 L 78.3555,56.0195 H 177.77 l 34.113,58.4965" /></g></g></svg>