<?xml version="1.0" encoding="UTF-8" standalone="no"?>
<svg
   xmlns:dc="http://purl.org/dc/elements/1.1/"
   xmlns:cc="http://creativecommons.org/ns#"
   xmlns:rdf="http://www.w3.org/1999/02/22-rdf-syntax-ns#"
   xmlns:svg="http://www.w3.org/2000/svg"
   xmlns="http://www.w3.org/2000/svg"
   viewBox="0 0 98.666664 50.666668"
   height="50.666668"
   width="98.666664"
   xml:space="preserve"
   id="svg2"
   version="1.1"><metadata
     id="metadata8"><rdf:RDF><cc:Work
         rdf:about=""><dc:format>image/svg+xml</dc:format><dc:type
           rdf:resource="http://purl.org/dc/dcmitype/StillImage" /></cc:Work></rdf:RDF></metadata><defs
     id="defs6" /><g
     transform="matrix(1.3333333,0,0,-1.3333333,0,50.666667)"
     id="g10"><g
       transform="scale(0.1)"
       id="g12"><path
         id="path14"
         style="fill:#f2a03d;fill-opacity:1;fill-rule:nonzero;stroke:none"
         d="M 35.9063,212.273 V 347.59 H 336.957 V 332.586 H 50.9063 V 212.273 h -15" /><path
         id="path16"
         style="fill:#151515;fill-opacity:1;fill-rule:evenodd;stroke:none"
         d="m 652.074,58.5273 c 0,9.4688 -3.445,17.9961 -9.019,24.129 -5.399,5.9375 -12.821,9.6171 -20.977,9.6171 -8.156,0 -15.578,-3.6796 -20.98,-9.6171 -5.571,-6.1329 -9.02,-14.6602 -9.02,-24.129 0,-9.4726 3.449,-18 9.02,-24.1289 5.402,-5.9414 12.824,-9.6211 20.98,-9.6211 8.156,0 15.578,3.6797 20.977,9.6211 5.574,6.1289 9.019,14.6563 9.019,24.1289 z M 719.578,201.164 H 616.641 v 68.879 H 460.297 V 62.2773 h 116.914 c 0.836,11.8243 5.578,22.4922 12.82,30.4571 8.164,8.9806 19.492,14.5426 32.047,14.5426 12.555,0 23.883,-5.562 32.055,-14.5426 7.234,-7.9649 11.976,-18.6328 12.812,-30.4571 h 52.633 z m -87.937,68.879 v -53.879 h 87.937 v 0.566 l -27.305,22.016 -42.933,31.297 z M 578.289,47.2734 H 445.297 V 285.043 h 208.93 l 47.179,-34.395 33.18,-26.742 V 47.2734 h -68.719 c -1.929,-8.8164 -6.066,-16.7148 -11.734,-22.957 -8.172,-8.9805 -19.5,-14.53906 -32.055,-14.53906 -12.555,0 -23.883,5.55856 -32.047,14.53906 -5.676,6.2422 -9.812,14.1406 -11.742,22.957 z m -406.203,3.75 c 0,9.3243 -3.785,17.7657 -9.891,23.8672 -6.097,6.1016 -14.539,9.8828 -23.859,9.8828 -9.332,0 -17.781,-3.7734 -23.879,-9.8711 -6.09,-6.1132 -9.871,-14.5546 -9.871,-23.8789 0,-9.3281 3.773,-17.7734 9.871,-23.875 6.098,-6.0976 14.547,-9.8711 23.879,-9.8711 9.32,0 17.762,3.7813 23.859,9.8829 6.118,6.0898 9.891,14.5351 9.891,23.8632 z m 0.723,34.4727 c 6.277,-6.2813 10.859,-14.2734 12.968,-23.2188 H 404.578 V 362.273 H 22.0859 V 62.2773 h 68.8086 c 2.1133,8.9493 6.7032,16.9532 12.9685,23.2188 h 0.028 c 8.824,8.8203 21.007,14.2812 34.445,14.2812 13.461,0 25.652,-5.4609 34.473,-14.2812 z M 186.945,47.2773 C 186.035,35.332 180.789,24.5703 172.809,16.582 V 16.5547 C 163.988,7.73438 151.797,2.27344 138.336,2.27344 c -13.438,0 -25.621,5.46094 -34.445,14.28126 l -0.028,0.0273 C 95.875,24.5781 90.6406,35.332 89.7266,47.2773 H 7.08594 V 377.277 H 419.586 V 47.2773 h -7.508 -225.133" /></g></g></svg>