<?xml version="1.0" encoding="utf-8"?>
<!-- Generator: Adobe Illustrator 22.0.1, SVG Export Plug-In . SVG Version: 6.00 Build 0)  -->
<svg version="1.1" id="Слой_1" xmlns="http://www.w3.org/2000/svg" xmlns:xlink="http://www.w3.org/1999/xlink" x="0px" y="0px"
	 viewBox="0 0 26 22" style="enable-background:new 0 0 26 22;" xml:space="preserve">
<path style="fill:#FFFFFF;stroke:#262626;" d="M12.6,11.733L7.788,8.993V4.321l4.927-2.611l4.767,2.607v4.674L12.6,11.733z"/>
<path style="fill:#3BC6E4;" d="M8.277,8.774V4.637l0.596-0.645l4.236,2.581v4.964L8.277,8.774z"/>
<path style="fill:none;stroke:#262626;" d="M12.635,6.275v5.264"/>
<path style="fill:#3BC6E4;stroke:#262626;" d="M12.6,6.465L8.301,4.017l4.413-2.495l4.26,2.486L12.6,6.465z"/>
<path style="fill:#FFFFFF;stroke:#262626;" d="M5.311,16.107L0.5,13.366V8.695l4.927-2.611l4.767,2.607v4.674L5.311,16.107z"/>
<path style="fill:#3BC6E4;" d="M0.989,13.148V9.011l0.596-0.645l4.236,2.581v4.964L0.989,13.148z"/>
<path style="fill:none;stroke:#262626;" d="M5.347,10.649v5.264"/>
<path style="fill:#3BC6E4;stroke:#262626;" d="M5.311,10.839L1.013,8.39l4.413-2.495l4.261,2.486L5.311,10.839z"/>
<path style="fill:#FFFFFF;stroke:#262626;" d="M19.888,16.107l-4.811-2.741V8.695l4.927-2.611L24.77,8.69v4.674L19.888,16.107z"/>
<path style="fill:#3BC6E4;" d="M15.565,13.148V9.011l0.596-0.645l4.236,2.581v4.964L15.565,13.148z"/>
<path style="fill:none;stroke:#262626;" d="M19.923,10.649v5.264"/>
<path style="fill:#3BC6E4;stroke:#262626;" d="M19.888,10.839L15.589,8.39l4.414-2.495l4.26,2.486L19.888,10.839z"/>
<path style="fill:#FFFFFF;stroke:#262626;" d="M12.6,20.481L7.788,17.74v-4.672l4.927-2.611l4.767,2.606v4.674L12.6,20.481z"/>
<path style="fill:#3BC6E4;" d="M8.277,17.522v-4.137l0.596-0.645l4.236,2.581v4.964L8.277,17.522z"/>
<path style="fill:none;stroke:#262626;" d="M12.635,15.023v5.264"/>
<path style="fill:#3BC6E4;stroke:#262626;" d="M12.6,15.213l-4.298-2.448l4.413-2.495l4.26,2.486L12.6,15.213z"/>
</svg>
