<?xml version="1.0" encoding="utf-8"?>
<!-- Generator: Adobe Illustrator 22.0.1, SVG Export Plug-In . SVG Version: 6.00 Build 0)  -->
<svg version="1.1" id="Слой_1" xmlns="http://www.w3.org/2000/svg" xmlns:xlink="http://www.w3.org/1999/xlink" x="0px" y="0px"
	 viewBox="0 0 15 15" style="enable-background:new 0 0 15 15;" xml:space="preserve">
<circle style="fill:#FF4949;" cx="7.5" cy="7.5" r="7.5"/>
<path style="fill:#FFFFFF;" d="M7.5,3.5L7.5,3.5c-0.552,0-1,0.448-1,1v3c0,0.552,0.448,1,1,1l0,0c0.552,0,1-0.448,1-1v-3
	C8.5,3.948,8.052,3.5,7.5,3.5z"/>
<path style="fill:#FFFFFF;" d="M7.5,9.5L7.5,9.5c-0.552,0-1,0.448-1,1l0,0c0,0.552,0.448,1,1,1l0,0c0.552,0,1-0.448,1-1l0,0
	C8.5,9.948,8.052,9.5,7.5,9.5z"/>
</svg>
