<?xml version="1.0" encoding="utf-8"?>
<!-- Generator: Adobe Illustrator 22.0.1, SVG Export Plug-In . SVG Version: 6.00 Build 0)  -->
<svg version="1.1" id="Слой_1" xmlns="http://www.w3.org/2000/svg" xmlns:xlink="http://www.w3.org/1999/xlink" x="0px" y="0px"
	 viewBox="0 0 16 20" style="enable-background:new 0 0 16 20;" xml:space="preserve">
<path style="fill:none;stroke:#FFFFFF;stroke-width:2;" d="M2.175,15.075c0.916-1.939,1.08-4.56,1.08-6.307
	c0-1.872,1.107-3.493,2.705-4.236l1.062-0.345C7.31,4.132,7.607,4.103,7.913,4.103c0.305,0,0.603,0.03,0.891,0.086l1.062,0.345
	c1.592,0.74,2.697,2.353,2.704,4.217v0.016l0,0.01c0.001,1.746,0.166,4.363,1.08,6.299c0.19,0.402,0.386,0.719,0.569,0.964h-3.29
	H4.896h-3.29C1.789,15.794,1.985,15.478,2.175,15.075z M2.175,15.075l-0.904-0.427L2.175,15.075z"/>
<path style="fill:none;stroke:#FFFFFF;stroke-width:2;" d="M9.412,2.5V4h-3V2.5c0-0.828,0.672-1.5,1.5-1.5S9.412,1.672,9.412,2.5z"
	/>
<path style="fill:none;stroke:#FFFFFF;stroke-width:2;" d="M10.271,16.629v-0.601H5.553v0.601c0,1.303,1.056,2.359,2.359,2.359
	C9.215,18.988,10.271,17.932,10.271,16.629z"/>
</svg>
