<?xml version="1.0" encoding="utf-8"?>
<!-- Generator: Adobe Illustrator 22.0.1, SVG Export Plug-In . SVG Version: 6.00 Build 0)  -->
<svg version="1.1" id="Слой_1" xmlns="http://www.w3.org/2000/svg" xmlns:xlink="http://www.w3.org/1999/xlink" x="0px" y="0px"
	 viewBox="0 0 15 17" style="enable-background:new 0 0 15 17;" xml:space="preserve">
<path style="fill:#ECFAFD;" d="M11.829,1.016c0-0.113-0.091-0.205-0.204-0.205H0.204C0.091,0.811,0,0.903,0,1.016v13.123
	c0,1.133,0.913,2.05,2.04,2.05h9.586c0.113,0,0.204-0.092,0.204-0.205V1.016z"/>
<path style="fill:#3BC6E4;" d="M11.63,0.81H0.2C0.09,0.81,0,0.9,0,1.02v13.12c0,1.13,0.91,2.05,2.04,2.05h9.59
	c0.11,0,0.2-0.09,0.2-0.21V1.02C11.83,0.9,11.74,0.81,11.63,0.81z M10.81,15.16H2.04c-0.56,0-1.02-0.46-1.02-1.02V1.84h9.79V15.16z"
	/>
<path style="fill:#3BC6E4;" d="M8.281,4.163c0,0.327,0.269,0.591,0.6,0.591c0.331,0,0.6-0.265,0.6-0.591
	c0-0.327-0.269-0.591-0.6-0.591C8.549,3.571,8.281,3.836,8.281,4.163z"/>
<path style="fill:#3BC6E4;" d="M7.493,4.163c0-0.327-0.239-0.591-0.534-0.591H2.901c-0.295,0-0.534,0.265-0.534,0.591
	c0,0.327,0.239,0.591,0.534,0.591h4.058C7.254,4.754,7.493,4.489,7.493,4.163z"/>
<path style="fill:#3BC6E4;" d="M8.281,6.39c0,0.327,0.269,0.591,0.6,0.591c0.331,0,0.6-0.265,0.6-0.591
	c0-0.327-0.269-0.591-0.6-0.591C8.549,5.798,8.281,6.063,8.281,6.39z"/>
<path style="fill:#3BC6E4;" d="M3.082,6.387c0-0.328,0.266-0.595,0.595-0.595h3.222c0.328,0,0.595,0.266,0.595,0.595
	S7.227,6.981,6.898,6.981H3.677C3.348,6.981,3.082,6.715,3.082,6.387z"/>
<path style="fill:#3BC6E4;" d="M8.281,9.025c0,0.327,0.269,0.591,0.6,0.591c0.331,0,0.6-0.265,0.6-0.591s-0.269-0.591-0.6-0.591
	C8.549,8.434,8.281,8.698,8.281,9.025z"/>
<path style="fill:#3BC6E4;" d="M2.637,9.022c0-0.328,0.266-0.595,0.595-0.595h3.667c0.328,0,0.595,0.266,0.595,0.595
	S7.227,9.617,6.898,9.617H3.231C2.903,9.617,2.637,9.35,2.637,9.022z"/>
<path style="fill:#ECFAFD;" d="M14.59,11.271v2.841c0,1.147-0.924,2.077-2.065,2.077H2.716l-1.138-0.101
	c0.416-0.112,0.139-0.672,0.388-0.92c1.371-0.144,1.371-1.158,1.371-1.84v-2.057c0-0.115,0.092-0.208,0.206-0.208h10.84
	C14.497,11.063,14.59,11.156,14.59,11.271z"/>
<path style="fill:#3BC6E4;" d="M13.557,12.101v2.011c0,0.574-0.462,1.038-1.032,1.038l-8.57,0c0.051-0.079,0.098-0.162,0.139-0.249
	c0.277-0.577,0.275-1.211,0.274-1.527c0-0.017,0-0.032,0-0.047v-1.226L13.557,12.101z M12.525,16.189c1.14,0,2.065-0.93,2.065-2.077
	v-2.841c0-0.115-0.092-0.208-0.206-0.208H3.543c-0.114,0-0.206,0.093-0.206,0.208v2.057c0,0.622,0,1.519-1.037,1.782
	c-0.101,0.026-0.212,0.045-0.334,0.058c-0.107,0.107-0.117,0.271-0.126,0.433c-0.013,0.214-0.025,0.423-0.262,0.487l1.138,0.101
	H12.525z"/>
</svg>
