<?xml version="1.0" encoding="utf-8"?>
<!-- Generator: Adobe Illustrator 22.0.1, SVG Export Plug-In . SVG Version: 6.00 Build 0)  -->
<svg version="1.1" id="Слой_1" xmlns="http://www.w3.org/2000/svg" xmlns:xlink="http://www.w3.org/1999/xlink" x="0px" y="0px"
	 viewBox="0 0 38 25" style="enable-background:new 0 0 38 25;" xml:space="preserve">
<path style="fill:#3BC6E4;" d="M17.004,0.677c0.358,0.067,2.58,1.138,2.58,1.138L14.89,8.779c0,0-1.183-0.77-1.971-1.239
	c-0.788-0.67-1.003-1.808-0.466-3.281C13.241,2.184,15.284,0.61,17.004,0.677z"/>
<path style="fill:#262626;" d="M16.865,1.345C16.9,1.345,16.9,1.345,16.865,1.345c0.251,0.067,0.966,0.402,1.682,0.737l-3.866,5.76
	c-0.394-0.234-0.895-0.569-1.324-0.804c-0.573-0.502-0.644-1.406-0.215-2.545C13.786,2.751,15.469,1.345,16.865,1.345z
	 M16.865,0.675c-1.718,0-3.651,1.574-4.402,3.583c-0.537,1.473-0.358,2.612,0.465,3.282c0.788,0.469,1.969,1.239,1.969,1.239
	l4.689-6.965c0,0-2.219-1.105-2.577-1.139C16.972,0.675,16.936,0.675,16.865,0.675z"/>
<path style="fill:#FFFFFF;" d="M18.3,1.351c1.569,0,2.353,1.793,1.765,4.052c-0.588,2.259-2.353,4.052-3.922,4.052
	s-2.353-1.793-1.765-4.052C14.966,3.143,16.731,1.351,18.3,1.351z"/>
<path style="fill:#262626;" d="M18.3,2.011c0.392,0,0.719,0.165,0.948,0.462c0.392,0.528,0.458,1.42,0.196,2.41
	c-0.523,1.75-2.027,3.236-3.301,3.236c-0.392,0-0.719-0.165-0.948-0.462c-0.392-0.528-0.458-1.42-0.196-2.41
	C15.489,3.497,17.025,2.011,18.3,2.011z M18.3,1.351c-1.569,0-3.334,1.651-3.922,3.698c-0.588,2.047,0.196,3.731,1.765,3.731
	s3.334-1.684,3.922-3.731C20.653,3.034,19.869,1.351,18.3,1.351z"/>
<path style="fill:#FFFFFF;" d="M17.526,3.378c0.659-0.037,0.889,0.825,0.56,1.95c-0.329,1.125-1.185,2.062-1.844,2.1
	c-0.659,0.037-0.889-0.825-0.56-1.95C16.011,4.353,16.867,3.415,17.526,3.378z"/>
<path style="fill:#262626;" d="M17.568,4.127c0.033,0.113,0.066,0.413-0.099,0.938c-0.296,0.9-0.922,1.538-1.219,1.613
	c-0.033-0.113-0.066-0.413,0.099-0.938C16.613,4.802,17.272,4.164,17.568,4.127z M17.568,3.376h-0.033
	c-0.659,0.038-1.482,0.975-1.844,2.101c-0.329,1.088-0.132,1.951,0.494,1.951h0.033c0.659-0.038,1.482-0.975,1.844-2.101
	C18.425,4.239,18.194,3.376,17.568,3.376z"/>
<path style="fill:#FFFFFF;" d="M2.701,20.935c0,0,3.993-7.084,4.607-8.214c0.887-1.929,1.536-2.228,1.536-2.228l16.313-9.046
	c0.205-0.133,0.478-0.133,0.648,0.033c0.307,0.233,7.406,3.691,10.238,5.321c0.648,0.399,1.775,1.131,1.775,1.131v0.865
	l-16.381,8.913c0,0-0.785,0.366-4.334,0.931C16.181,18.807,2.701,20.935,2.701,20.935z"/>
<path style="fill:#262626;" d="M25.014,2.049c0.167,0.1,0.67,0.366,2.211,1.164c2.379,1.23,5.997,3.092,7.806,4.156
	c0.436,0.266,1.039,0.665,1.407,0.931v0.133l-15.646,8.678c-0.134,0.066-1.039,0.366-4.054,0.898
	c-0.737,0.133-9.381,1.529-12.798,2.061c1.139-2.061,3.417-6.185,3.853-7.016c0.67-1.496,1.173-1.895,1.206-1.929L25.014,2.049z
	 M25.014,1.351c-0.101,0-0.201,0.033-0.302,0.1L8.698,10.494c0,0-0.637,0.299-1.508,2.228c-0.57,1.13-4.489,8.213-4.489,8.213
	s13.234-2.128,14.138-2.294c3.484-0.598,4.255-0.931,4.255-0.931l16.048-8.911V7.934c0,0-1.072-0.765-1.742-1.131
	c-2.781-1.629-9.75-5.121-10.051-5.32C25.282,1.384,25.149,1.351,25.014,1.351z"/>
<path style="fill:#3BC6E4;" d="M2.701,20.26c0,0,3.92-7.084,4.523-8.214c0.871-1.929,1.508-2.228,1.508-2.228l16.015-9.046
	c0.201-0.133,0.469-0.133,0.636,0.033c0.369,0.266,11.425,6.851,11.425,6.851s0.335,0.166,0.335,0.299c0,0.033,0,0.2,0,0.2
	l-16.048,8.88c0,0-0.771,0.366-4.255,0.931c-0.871,0.166-12.966,2.095-14.071,2.261C2.735,20.26,2.701,20.26,2.701,20.26z"/>
<path style="fill:#262626;" d="M25.014,0.722c0.771,0.516,8.61,5.332,11.023,6.811l-15.244,8.771
	c-0.134,0.069-1.039,0.378-4.054,0.929c-0.737,0.138-9.347,1.582-12.798,2.133c1.139-2.133,3.417-6.398,3.853-7.258
	C8.464,10.56,8.966,10.147,9,10.113L25.014,0.722z M25.014,0c-0.101,0-0.201,0.034-0.302,0.103L8.698,9.459
	c0,0-0.637,0.31-1.508,2.305c-0.57,1.17-4.489,8.496-4.489,8.496s0.034,0,0.067,0c1.106-0.172,13.2-2.201,14.071-2.339
	c3.484-0.619,4.255-0.963,4.255-0.963l16.048-9.218c0,0,0-0.172,0-0.206c0-0.103-0.335-0.31-0.335-0.31S25.752,0.413,25.35,0.138
	C25.282,0.034,25.149,0,25.014,0z"/>
<path style="fill:#262626;" d="M9.013,9.583l-0.334,0.582L20.4,16.898l0.334-0.582L9.013,9.583z"/>
<path style="fill:#262626;" d="M1.351,24.312H0.676v-2.582l14.52-8.223l0.338,0.612L1.351,22.137V24.312z"/>
<path style="fill:#3BC6E4;" d="M3.377,20.26l-2.701-2.431l0.206-0.27L3.377,20.26z"/>
<path style="fill:#262626;" d="M3.622,20.26L0,17.989l0.502-0.431l0.359,0.259L4.052,19.8L3.622,20.26z"/>
<path style="fill:#3BC6E4;" d="M1.494,16.209c0.478-0.029,0.683,0.411,0.41,0.968c-0.273,0.557-0.853,1.026-1.365,1.056
	c-0.512,0.029-0.683-0.411-0.41-0.968S1.016,16.209,1.494,16.209z"/>
<path style="fill:#262626;" d="M1.27,16.883c0,0.029-0.035,0.059-0.035,0.088c-0.14,0.264-0.351,0.47-0.527,0.587
	c0-0.029,0.035-0.059,0.035-0.088C0.884,17.177,1.095,16.971,1.27,16.883z M1.516,16.208C1.481,16.208,1.481,16.208,1.516,16.208
	c-0.527,0.029-1.159,0.499-1.405,1.057c-0.246,0.558-0.07,0.969,0.386,0.969h0.035c0.492-0.029,1.124-0.499,1.405-1.057
	C2.148,16.619,1.973,16.208,1.516,16.208z"/>
<path style="fill:#3BC6E4;" d="M17.559,5.403l11.481,7.429L17.559,5.403z"/>
<path style="fill:#262626;" d="M17.704,5.257l-0.343,0.577l11.735,6.976l0.343-0.577L17.704,5.257z"/>
<path style="fill:#3BC6E4;" d="M13.507,10.13l12.831-7.429L13.507,10.13z"/>
<path style="fill:#262626;" d="M25.967,2.383L13.044,9.719l0.331,0.583l12.923-7.336L25.967,2.383z"/>
<path style="fill:#3BC6E4;" d="M18.909,13.506L31.74,6.078L18.909,13.506z"/>
<path style="fill:#262626;" d="M31.534,5.871l-12.919,7.342l0.331,0.583l12.919-7.342L31.534,5.871z"/>
<path style="fill:#3BC6E4;" d="M31.41,9.457c0.323,0.067,2.356,1.172,2.356,1.172l-4.292,6.93c0,0-1.065-0.77-1.775-1.239
	c-0.71-0.67-0.904-1.841-0.42-3.281C27.99,10.997,29.829,9.39,31.41,9.457z"/>
<path style="fill:#262626;" d="M31.272,10.124c0.227,0.067,0.874,0.402,1.554,0.77l-3.53,5.726c-0.356-0.234-0.81-0.569-1.198-0.804
	c-0.518-0.502-0.583-1.406-0.194-2.545C28.488,11.531,30.01,10.124,31.272,10.124z M31.272,9.455c-1.554,0-3.303,1.574-3.983,3.583
	c-0.486,1.474-0.324,2.612,0.421,3.282c0.712,0.435,1.781,1.239,1.781,1.239l4.274-6.932c0,0-2.04-1.105-2.364-1.172
	C31.337,9.455,31.305,9.455,31.272,9.455z"/>
<path style="fill:#FFFFFF;" d="M32.938,10.13c1.743,0,2.615,1.793,1.961,4.052c-0.654,2.259-2.615,4.052-4.358,4.052
	c-1.743,0-2.615-1.793-1.961-4.052C29.234,11.923,31.195,10.13,32.938,10.13z"/>
<path style="fill:#262626;" d="M32.938,10.847c0.436,0,0.799,0.179,1.053,0.502c0.436,0.574,0.508,1.542,0.218,2.618
	c-0.581,1.901-2.252,3.514-3.668,3.514c-0.436,0-0.799-0.179-1.053-0.502c-0.436-0.574-0.508-1.542-0.218-2.618
	C29.851,12.461,31.522,10.847,32.938,10.847z M32.938,10.13c-1.743,0-3.704,1.829-4.358,4.052s0.218,4.052,1.961,4.052
	c1.743,0,3.704-1.793,4.358-4.052C35.553,11.923,34.682,10.13,32.938,10.13z"/>
<path style="fill:#FFFFFF;" d="M32.375,12.157c0.652-0.037,0.912,0.825,0.554,1.95c-0.358,1.125-1.173,2.062-1.824,2.1
	c-0.652,0.038-0.912-0.825-0.554-1.95C30.91,13.132,31.724,12.195,32.375,12.157z"/>
<path style="fill:#262626;" d="M32.392,12.906c0.033,0.113,0.066,0.413-0.099,0.938c-0.296,0.9-0.889,1.538-1.219,1.576
	c-0.033-0.113-0.066-0.413,0.099-0.938C31.469,13.582,32.095,12.944,32.392,12.906z M32.425,12.156h-0.033
	c-0.659,0.037-1.482,0.976-1.845,2.101c-0.329,1.088-0.132,1.951,0.494,1.951h0.033c0.659-0.038,1.482-0.975,1.845-2.101
	C33.281,13.019,33.05,12.156,32.425,12.156z"/>
</svg>
