<?xml version="1.0" encoding="utf-8"?>
<!-- Generator: Adobe Illustrator 22.0.1, SVG Export Plug-In . SVG Version: 6.00 Build 0)  -->
<svg version="1.1" id="Слой_1" xmlns="http://www.w3.org/2000/svg" xmlns:xlink="http://www.w3.org/1999/xlink" x="0px" y="0px"
	 viewBox="0 0 24 22" style="enable-background:new 0 0 24 22;" xml:space="preserve">
<path style="fill:#3BC6E4;" d="M22,0H2C0.9,0,0,0.9,0,2v18c0,1.1,0.9,2,2,2h20c1.1,0,2-0.9,2-2V2C24,0.9,23.1,0,22,0z M22,20H2V7
	c0.17-0.67,0.8-2,2-2h16c1,0,2,0.8,2,2V20z"/>
<circle style="fill:#3BC6E4;" cx="7" cy="10" r="2"/>
<circle style="fill:#3BC6E4;" cx="12" cy="10" r="1"/>
<circle style="fill:#3BC6E4;" cx="17" cy="10" r="1"/>
<circle style="fill:#3BC6E4;" cx="12" cy="15" r="1"/>
<circle style="fill:#3BC6E4;" cx="7" cy="15" r="1"/>
<circle style="fill:#3BC6E4;" cx="17" cy="15" r="1"/>
</svg>
