<svg width="22" height="26" viewBox="0 0 22 26" fill="none" xmlns="http://www.w3.org/2000/svg">
<path fill-rule="evenodd" clip-rule="evenodd" d="M9.54506 1.06174L10.7121 1.80638C11.2163 2.12692 11.9077 2.08748 12.6117 1.69297L14.2417 0.785581C14.5491 0.611897 14.8304 0.6505 14.9874 0.851195C15.0556 0.938265 15.3377 1.1047 15.4559 1.23407L16.1712 1.77825C17.384 2.7043 18.1863 3.27074 18.1863 3.37737L17.6128 4.90822C17.9711 5.02903 18.0599 5.5493 17.8094 6.07942L16.8834 8.03473C16.495 8.79957 16.3736 9.63064 16.5314 10.4437L16.9405 12.0365C16.981 12.285 16.9512 12.5373 16.8532 12.7758C16.7551 13.0143 16.5911 13.2333 16.3728 13.4173L14.7967 14.6526C14.0556 15.2725 13.5238 16.0257 13.2491 16.8447L12.5451 18.8394C12.3548 19.3794 11.8791 19.7986 11.4732 19.7813L9.98587 19.7172C9.34528 19.6901 8.60638 20.0353 7.96578 20.6665L6.47848 22.1311C6.07573 22.5256 5.82781 22.6384 5.37999 22.6002L4.53522 22.8295C3.98677 22.3902 3.20309 21.8126 2.68609 21.4089L1.61216 20.5652C1.47474 20.4558 1.28754 20.3577 1.18633 20.2747C1.01559 20.1345 0.941509 19.8608 1.0112 19.5249L1.4203 17.5474C1.59472 16.6942 1.46787 15.9348 1.0683 15.4663L0.142274 14.3814C-0.108255 14.088 -0.0194586 13.4839 0.342065 13.0228L1.67084 11.3264C2.25046 10.5833 2.59699 9.74453 2.68246 8.87798L2.84102 6.96706C2.88225 6.45173 3.26914 5.90191 3.71311 5.73178L5.33997 5.11042C6.04399 4.84166 6.73849 4.23262 7.23955 3.43867L8.40659 1.59927C8.72372 1.09874 9.23111 0.862016 9.54506 1.06174Z" fill="#3BC6E4"/>
<path fill-rule="evenodd" clip-rule="evenodd" d="M10.7121 1.80638L9.54506 1.06174C9.23111 0.862016 8.72372 1.09874 8.40659 1.59927L7.23955 3.43867C6.73849 4.23262 6.04399 4.84166 5.33997 5.11042L3.71311 5.73178C3.26914 5.90191 2.88225 6.45173 2.84102 6.96706L2.68246 8.87798C2.59699 9.74453 2.25046 10.5833 1.67084 11.3264L0.342065 13.0228C-0.0194586 13.4839 -0.108255 14.088 0.142274 14.3814L1.0683 15.4663C1.46787 15.9348 1.59472 16.6942 1.4203 17.5474L1.0112 19.5249C0.941509 19.8608 1.01559 20.1345 1.18633 20.2747C1.23486 20.3145 1.30318 20.3578 1.3763 20.4041C1.45564 20.4544 1.54065 20.5083 1.61216 20.5652L2.68609 21.4089C2.89999 21.5759 3.15953 21.7727 3.42917 21.9772C3.81128 22.2669 4.21368 22.572 4.53522 22.8295L5.37999 22.6002C5.82781 22.6384 6.07573 22.5256 6.47848 22.1311L7.96578 20.6665C8.60638 20.0353 9.34528 19.6901 9.98587 19.7172L11.4732 19.7813C11.8791 19.7986 12.3548 19.3794 12.5451 18.8394L13.2491 16.8447C13.5238 16.0257 14.0556 15.2725 14.7967 14.6526L16.3728 13.4173C16.5911 13.2333 16.7551 13.0143 16.8532 12.7758C16.9512 12.5373 16.981 12.285 16.9405 12.0365L16.5314 10.4437C16.3736 9.63064 16.495 8.79957 16.8834 8.03473L17.8094 6.07942C18.0531 5.56363 17.9757 5.05718 17.6412 4.91889C17.632 4.91504 17.6225 4.91148 17.6128 4.90822L18.1863 3.37737C18.1863 3.29847 17.7471 2.96783 17.0272 2.42602C16.7742 2.2356 16.4866 2.01908 16.1712 1.77825L15.4559 1.23407C15.3947 1.16708 15.2896 1.09015 15.1929 1.01945C15.1029 0.953615 15.0203 0.893179 14.9874 0.851195C14.8304 0.6505 14.5491 0.611897 14.2417 0.785581L12.6117 1.69297C11.9077 2.08748 11.2163 2.12692 10.7121 1.80638ZM15.5643 2.57305C15.5641 2.57287 15.5645 2.57323 15.5643 2.57305L14.7785 1.97522L14.7322 1.92448C14.7291 1.92191 14.7249 1.91846 14.7194 1.91408C14.6934 1.89343 14.6607 1.86914 14.6123 1.83375L14.6007 1.82521C14.5796 1.80979 14.554 1.79112 14.5273 1.77113L13.1005 2.56534C13.1 2.56562 13.0995 2.5659 13.099 2.56618C12.2001 3.06941 11.0951 3.2348 10.1756 2.6503L10.1742 2.6494L9.28696 2.08327C9.27509 2.09878 9.26313 2.11583 9.25132 2.13447L8.08523 3.97237C8.08499 3.97274 8.08476 3.97311 8.08453 3.97348C7.49571 4.90604 6.64587 5.68223 5.69677 6.0446C5.69672 6.04462 5.69682 6.04458 5.69677 6.0446L4.07116 6.66549C4.07246 6.665 4.07198 6.6653 4.06994 6.66661C4.05926 6.67341 4.00598 6.70737 3.94324 6.79632C3.87084 6.89898 3.84182 6.997 3.83783 7.04681L3.8376 7.04976L3.67839 8.9684L3.67763 8.97612C3.57206 10.0466 3.14543 11.0618 2.45936 11.9414L2.45809 11.9431L1.12931 13.6395C1.09156 13.6876 1.06099 13.7396 1.03899 13.7898C1.02741 13.8162 1.01898 13.8403 1.01298 13.8612L1.8289 14.8171C2.50311 15.6076 2.60862 16.7274 2.40003 17.7477L2.39957 17.75L2.01193 19.6237C2.07711 19.6663 2.15627 19.7204 2.2319 19.7804C2.2329 19.7812 2.2339 19.782 2.2349 19.7828L3.30153 20.6207C3.30195 20.6211 3.30238 20.6214 3.30282 20.6218C3.48964 20.7676 3.73868 20.9566 4.00472 21.1585C4.25308 21.3469 4.51626 21.5466 4.7575 21.733L5.28873 21.5888L5.46496 21.6039C5.51617 21.6082 5.54386 21.6074 5.5558 21.6066C5.57506 21.5955 5.6394 21.5531 5.77788 21.4175C5.77816 21.4173 5.77844 21.417 5.77872 21.4167L7.26391 19.9542C8.02275 19.2065 9.01615 18.6752 10.0282 18.7181L11.4183 18.778C11.4218 18.7751 11.4256 18.772 11.4296 18.7684C11.4948 18.7111 11.5638 18.6154 11.6019 18.507L12.3037 16.5188C12.6446 15.5078 13.2918 14.6077 14.1551 13.8856L14.1673 13.8754L15.7395 12.6432C15.8412 12.5547 15.8988 12.4672 15.9283 12.3955C15.953 12.3355 15.961 12.28 15.9571 12.2277L15.5554 10.6635L15.5497 10.6342C15.3488 9.59913 15.5051 8.54719 15.9852 7.59496L16.8755 5.71496L16.3136 5.5255L17.0099 3.66702C16.8389 3.5357 16.6484 3.39238 16.429 3.22735C16.1821 3.04157 15.8979 2.82773 15.5643 2.57305Z" fill="#262626"/>
<path fill-rule="evenodd" clip-rule="evenodd" d="M4.7394 22.9218L1.32422 20.2882L1.93488 19.4963L5.35006 22.1299L4.7394 22.9218Z" fill="#262626"/>
<path fill-rule="evenodd" clip-rule="evenodd" d="M17.5841 4.21969L14.1689 1.58608L14.7796 0.794189L18.1948 3.4278L17.5841 4.21969Z" fill="#262626"/>
<path fill-rule="evenodd" clip-rule="evenodd" d="M12.9455 3.67648L14.1125 4.42113C14.6167 4.74167 15.3081 4.70223 16.0121 4.30772L17.6421 3.40033C18.0829 3.15129 18.4698 3.3387 18.5142 3.81458L18.6696 5.57752C18.7394 6.33696 19.1072 6.88436 19.6812 7.07669L21.0132 7.52296C21.3715 7.64378 21.4603 8.16404 21.2098 8.69417L20.2838 10.6495C19.8954 11.4143 19.774 12.2454 19.9317 13.0585L20.3409 14.6513C20.3814 14.8997 20.3516 15.152 20.2536 15.3905C20.1555 15.629 19.9915 15.848 19.7732 16.0321L18.1971 17.2674C17.456 17.8873 16.9242 18.6405 16.6495 19.4594L15.9455 21.4541C15.7552 21.9941 15.2795 22.4133 14.8736 22.396L13.3863 22.3319C12.7457 22.3048 12.0068 22.65 11.3662 23.2812L9.87887 24.7458C9.47612 25.1403 9.00043 25.1699 8.80699 24.8075L8.10294 23.476C7.80167 22.8991 7.23718 22.6303 6.55536 22.7363L4.98243 22.9829C4.55431 23.0519 4.30059 22.6747 4.41159 22.1396L4.82069 20.1621C4.99511 19.309 4.86827 18.5496 4.46869 18.0811L3.54266 16.9962C3.29214 16.7028 3.38093 16.0987 3.74246 15.6376L5.07123 13.9412C5.65085 13.198 5.99738 12.3593 6.08285 11.4927L6.24141 9.58181C6.28264 9.06648 6.66953 8.51666 7.11351 8.34653L8.74036 7.72517C9.44438 7.4564 10.1389 6.84737 10.6399 6.05342L11.807 4.21402C12.1241 3.71348 12.6315 3.47676 12.9455 3.67648Z" fill="#F7F7F7"/>
<path fill-rule="evenodd" clip-rule="evenodd" d="M14.1125 4.42113L12.9455 3.67648C12.6315 3.47676 12.1241 3.71348 11.807 4.21402L10.6399 6.05342C10.1389 6.84737 9.44438 7.4564 8.74036 7.72517L7.11351 8.34653C6.66953 8.51666 6.28264 9.06648 6.24141 9.58181L6.08285 11.4927C5.99738 12.3593 5.65085 13.198 5.07123 13.9412L3.74246 15.6376C3.38093 16.0987 3.29214 16.7028 3.54266 16.9962L4.46869 18.0811C4.86827 18.5496 4.99511 19.309 4.82069 20.1621L4.41159 22.1396C4.30059 22.6747 4.55431 23.0519 4.98243 22.9829L6.55536 22.7363C7.23718 22.6303 7.80167 22.8991 8.10294 23.476L8.80699 24.8075C9.00043 25.1699 9.47612 25.1403 9.87887 24.7458L11.3662 23.2812C12.0068 22.65 12.7457 22.3048 13.3863 22.3319L14.8736 22.396C15.2795 22.4133 15.7552 21.9941 15.9455 21.4541L16.6495 19.4594C16.9242 18.6405 17.456 17.8873 18.1971 17.2674L19.7732 16.0321C19.9915 15.848 20.1555 15.629 20.2536 15.3905C20.3516 15.152 20.3814 14.8997 20.3409 14.6513L19.9317 13.0585C19.774 12.2454 19.8954 11.4143 20.2838 10.6495L21.2098 8.69417C21.4603 8.16404 21.3715 7.64378 21.0132 7.52296L19.6812 7.07669C19.1072 6.88436 18.7394 6.33696 18.6696 5.57752L18.5142 3.81458C18.4698 3.3387 18.0829 3.15129 17.6421 3.40033L16.0121 4.30772C15.3081 4.70223 14.6167 4.74167 14.1125 4.42113ZM19.3856 10.2097L20.2755 8.33046L19.3635 8.02488C18.3051 7.67025 17.768 6.69498 17.6738 5.66901L17.6734 5.66533L17.5778 4.5806L16.5009 5.18008C16.5005 5.18033 16.5 5.18058 16.4996 5.18083C15.6006 5.68413 14.4955 5.84958 13.576 5.26504L13.5746 5.26414L12.6873 4.69802C12.6755 4.71352 12.6635 4.73058 12.6517 4.74921L11.4856 6.58712C11.4854 6.5874 11.4853 6.58768 11.4851 6.58797C10.8963 7.52064 10.0464 8.29694 9.09716 8.65935C9.09711 8.65937 9.09721 8.65933 9.09716 8.65935L7.47155 9.28023C7.47285 9.27974 7.47237 9.28005 7.47033 9.28135C7.45965 9.28816 7.40637 9.32212 7.34363 9.41107C7.27123 9.51372 7.24221 9.61174 7.23822 9.66156L7.23799 9.6645L7.07878 11.5831L7.07802 11.5909C6.97245 12.6613 6.54582 13.6766 5.85975 14.5562L5.85848 14.5578L4.5297 16.2542C4.49195 16.3024 4.46138 16.3543 4.43938 16.4045C4.4278 16.431 4.41937 16.455 4.41337 16.4759L5.22929 17.4319C5.9035 18.2223 6.00901 19.3422 5.80043 20.3624L5.79996 20.3647L5.48398 21.8921L6.40171 21.7482C7.46946 21.5822 8.47134 22.0238 8.98795 23.0105C8.98843 23.0114 8.9889 23.0123 8.98937 23.0132L9.40843 23.8056L10.6643 22.5689C11.4231 21.8213 12.4165 21.29 13.4286 21.3328L14.8187 21.3928C14.8222 21.3899 14.826 21.3867 14.83 21.3832C14.8952 21.3259 14.9642 21.2301 15.0023 21.1218L15.7041 19.1335C16.045 18.1225 16.6922 17.2224 17.5555 16.5003L17.5677 16.4901L19.1398 15.2579C19.2416 15.1695 19.2992 15.082 19.3287 15.0103C19.3534 14.9502 19.3614 14.8948 19.3575 14.8425L18.9558 13.2783L18.9501 13.249C18.7492 12.2139 18.9055 11.1619 19.3856 10.2097Z" fill="#262626"/>
<path fill-rule="evenodd" clip-rule="evenodd" d="M7.83203 17.9011L8.50751 17.583V16.3576C8.50751 15.9483 8.45042 15.5118 8.41553 15.1469L8.43458 15.1395L8.74536 15.7485L9.56353 17.0874L10.2898 16.7447V13.2902L9.61428 13.6058V14.8263C9.61428 15.2357 9.67137 15.6918 9.70308 16.0419L9.68404 16.0518L9.37643 15.4378L8.55826 14.1039L7.83203 14.4442V17.9011ZM11.0287 16.397L13.0393 15.4526V14.7968L11.7359 15.4107V14.6143L12.8046 14.1113V13.4554L11.7359 13.9584V13.2631L12.9917 12.6738V12.0204L11.0287 12.9426V16.397ZM13.9399 15.031L14.8151 14.6192L15.1101 12.9105C15.1608 12.6195 15.1989 12.3237 15.2369 12.0475L15.256 12.0377C15.2908 12.2818 15.3321 12.5382 15.3828 12.7823L15.6904 14.2075L16.5815 13.7883L17.1365 10.0725L16.461 10.3906L16.2422 12.1067C16.201 12.4815 16.1566 12.8711 16.1154 13.2582L16.0964 13.268C16.0361 12.9278 15.9726 12.585 15.9092 12.262L15.5731 10.8073L14.9705 11.0884L14.6344 12.8612C14.571 13.2508 14.5075 13.6502 14.4473 14.0423L14.4283 14.0521C14.387 13.7069 14.3426 13.3642 14.3014 13.019L14.0826 11.5051L13.3564 11.8478L13.9399 15.031Z" fill="#3BC6E4"/>
</svg>
