<svg width="22" height="25" viewBox="0 0 22 25" fill="none" xmlns="http://www.w3.org/2000/svg">
<path d="M7.74444 23.6363C6.85319 23.1573 4.248 21.7201 2.43122 20.8304C0.134536 19.1536 -0.551041 15.9712 0.443045 11.8992C1.91704 5.91082 6.78463 0.880608 11.3437 0.675293C11.995 0.743731 15.6629 2.14672 18.2338 3.17329L7.74444 23.6363Z" fill="#3BC6E4"/>
<path d="M11.1723 1.33699C11.7306 1.40316 14.5881 2.49497 17.3141 3.58678L7.59227 22.743C6.5741 22.1806 4.40638 20.9895 2.82986 20.1955C0.760684 18.6405 0.136645 15.729 1.08913 11.9242C2.46858 6.29975 6.96823 1.56859 11.1723 1.33699ZM11.2051 0.675293C6.70547 0.873803 1.87738 5.83656 0.432242 11.7588C-0.585926 15.9606 0.235177 19.1368 2.46858 20.7579C4.60345 21.8167 7.88786 23.6363 7.88786 23.6363L18.2338 3.25593C18.2338 3.25593 12.0919 0.741463 11.2051 0.675293Z" fill="#262626"/>
<path d="M10.3675 24.3115C8.80132 24.3115 7.4092 23.7134 6.43472 22.5503C4.86859 20.7559 4.34654 17.8981 5.0078 14.708C6.1911 8.89269 10.8199 3.84169 15.3791 3.4097C15.5879 3.37646 15.7619 3.37646 15.9707 3.37646C17.5369 3.37646 18.929 3.97461 19.9035 5.13767C21.4696 6.9321 21.9917 9.7899 21.3304 12.98C20.1471 18.7953 15.5183 23.8463 10.9591 24.2783C10.7503 24.3115 10.5763 24.3115 10.3675 24.3115Z" fill="white"/>
<path d="M15.8278 2.70117V3.36509C17.2324 3.36509 18.4697 3.92941 19.3727 5.02487C20.8107 6.75104 21.2788 9.50629 20.6769 12.5935C19.5733 18.2699 15.2259 23.1829 11.0122 23.6144C10.845 23.6476 10.6443 23.6476 10.4771 23.6476C9.07253 23.6476 7.83518 23.0833 6.93224 21.9879C5.49424 20.2617 5.02605 17.5064 5.62801 14.4192C6.73159 8.74279 11.0456 3.82983 15.2927 3.39828C15.4599 3.36509 15.6606 3.36509 15.8278 3.36509V2.70117ZM15.8278 2.70117C15.6272 2.70117 15.4265 2.70117 15.2258 2.73437C10.7446 3.16591 6.12964 8.34444 4.99261 14.2865C3.88903 19.9629 6.33029 24.3116 10.4771 24.3116C10.6777 24.3116 10.8784 24.3116 11.079 24.2784C15.5937 23.8468 20.1753 18.6683 21.3457 12.7263C22.4493 7.04981 20.0081 2.70117 15.8278 2.70117Z" fill="#262626"/>
<path d="M11.1373 18.9092C10.6583 18.9092 10.282 18.7024 10.0083 18.3579C9.39252 17.5654 9.28989 16.1183 9.70042 14.4644C10.4189 11.6046 12.4715 9.08939 14.2505 8.81375C14.3531 8.81375 14.4557 8.7793 14.5242 8.7793C15.0031 8.7793 15.3794 8.98603 15.6531 9.33058C16.2689 10.1231 16.3716 11.5702 15.961 13.224C15.2426 16.0838 13.1899 18.5991 11.411 18.8747C11.3083 18.9092 11.2057 18.9092 11.1373 18.9092Z" fill="white"/>
<path d="M14.8649 9.42451C15.2057 9.42451 15.5124 9.55355 15.7169 9.8439C16.2622 10.4891 16.3303 11.7795 15.9555 13.2313C15.2738 15.7476 13.3313 18.0381 11.6954 18.2962C11.6273 18.2962 11.525 18.3285 11.4569 18.3285C11.1161 18.3285 10.8093 18.1994 10.6048 17.9091C10.0596 17.2639 9.9914 15.9734 10.3663 14.5217C11.0479 12.0054 12.9905 9.71486 14.6263 9.45677C14.6945 9.42451 14.7967 9.42451 14.8649 9.42451ZM14.8649 8.7793C14.7626 8.7793 14.6604 8.7793 14.5241 8.81156C12.6156 9.06964 10.4685 11.5537 9.71876 14.3281C9.00307 16.9413 9.78692 18.9092 11.4909 18.9092C11.5932 18.9092 11.6954 18.9092 11.8317 18.8769C13.7402 18.6188 15.8873 16.1347 16.6371 13.3603C17.3187 10.7472 16.5348 8.7793 14.8649 8.7793Z" fill="#262626"/>
</svg>
