<svg width="26" height="22" viewBox="0 0 26 22" fill="none" xmlns="http://www.w3.org/2000/svg">
<path d="M12.5996 11.7332L7.78809 8.99266V4.32114L12.7148 1.71018L17.4814 4.31671V8.99068L12.5996 11.7332Z" fill="white" stroke="#262626"/>
<path d="M8.27734 8.77396V4.63727L8.87302 3.99194L13.109 6.57324V11.5373L8.27734 8.77396Z" fill="#3BC6E4"/>
<path d="M12.6348 6.2749V11.5387" stroke="#262626"/>
<path d="M12.5996 6.46492L8.30113 4.01662L12.7146 1.52118L16.9751 4.00682L12.5996 6.46492Z" fill="#3BC6E4" stroke="#262626"/>
<path d="M5.31147 16.107L0.5 13.3664V8.69492L5.42667 6.08396L10.1933 8.69049V13.3645L5.31147 16.107Z" fill="white" stroke="#262626"/>
<path d="M0.989258 13.1477V9.01105L1.58493 8.36572L5.8209 10.947V15.911L0.989258 13.1477Z" fill="#3BC6E4"/>
<path d="M5.34668 10.6487V15.9125" stroke="#262626"/>
<path d="M5.31147 10.8387L1.01305 8.3904L5.42648 5.89496L9.68703 8.3806L5.31147 10.8387Z" fill="#3BC6E4" stroke="#262626"/>
<path d="M19.8876 16.107L15.0762 13.3664V8.69492L20.0028 6.08396L24.7695 8.69049V13.3645L19.8876 16.107Z" fill="white" stroke="#262626"/>
<path d="M15.5654 13.1477V9.01105L16.1611 8.36572L20.3971 10.947V15.911L15.5654 13.1477Z" fill="#3BC6E4"/>
<path d="M19.9229 10.6487V15.9125" stroke="#262626"/>
<path d="M19.8876 10.8387L15.5892 8.3904L20.0027 5.89496L24.2632 8.3806L19.8876 10.8387Z" fill="#3BC6E4" stroke="#262626"/>
<path d="M12.5996 20.481L7.78809 17.7405V13.0689L12.7148 10.458L17.4814 13.0645V17.7385L12.5996 20.481Z" fill="white" stroke="#262626"/>
<path d="M8.27734 17.5218V13.3851L8.87302 12.7397L13.109 15.321V20.2851L8.27734 17.5218Z" fill="#3BC6E4"/>
<path d="M12.6348 15.0227V20.2865" stroke="#262626"/>
<path d="M12.5996 15.2127L8.30113 12.7644L12.7146 10.269L16.9751 12.7546L12.5996 15.2127Z" fill="#3BC6E4" stroke="#262626"/>
</svg>
