<svg width="38" height="25" viewBox="0 0 38 25" fill="none" xmlns="http://www.w3.org/2000/svg">
<path d="M17.0045 0.677352C17.3628 0.74431 19.5848 1.81563 19.5848 1.81563L14.89 8.77919C14.89 8.77919 13.7073 8.00918 12.9189 7.54048C12.1304 6.8709 11.9154 5.73263 12.453 4.25957C13.2414 2.18389 15.2842 0.610395 17.0045 0.677352Z" fill="#3BC6E4"/>
<path d="M16.8646 1.34504C16.9004 1.34504 16.9004 1.34504 16.8646 1.34504C17.1151 1.41201 17.831 1.74688 18.5468 2.08175L14.6813 7.84155C14.2875 7.60714 13.7865 7.27227 13.3569 7.03786C12.7843 6.53555 12.7127 5.63139 13.1422 4.49283C13.7865 2.7515 15.4687 1.34504 16.8646 1.34504ZM16.8646 0.675293C15.1466 0.675293 13.2138 2.24919 12.4621 4.25842C11.9252 5.73186 12.1042 6.87042 12.9274 7.54016C13.7149 8.00898 14.896 8.77919 14.896 8.77919L19.5848 1.81386C19.5848 1.81386 17.3657 0.70878 17.0078 0.675293C16.972 0.675293 16.9362 0.675293 16.8646 0.675293Z" fill="#262626"/>
<path d="M18.3002 1.35059C19.8691 1.35059 20.6535 3.14348 20.0652 5.40253C19.4769 7.66158 17.7119 9.45448 16.143 9.45448C14.5741 9.45448 13.7896 7.66158 14.378 5.40253C14.9663 3.14348 16.7313 1.35059 18.3002 1.35059Z" fill="white"/>
<path d="M18.3002 2.0109C18.6924 2.0109 19.0193 2.17598 19.2481 2.47313C19.6403 3.00138 19.7057 3.89281 19.4442 4.88328C18.9212 6.63313 17.4177 8.11884 16.143 8.11884C15.7507 8.11884 15.4239 7.95376 15.1951 7.65662C14.8029 7.12836 14.7375 6.23693 14.999 5.24646C15.4893 3.49662 17.0255 2.0109 18.3002 2.0109ZM18.3002 1.35059C16.7313 1.35059 14.9663 3.00138 14.378 5.04836C13.7896 7.09535 14.5741 8.77916 16.143 8.77916C17.7119 8.77916 19.4769 7.09535 20.0652 5.04836C20.6535 3.0344 19.8691 1.35059 18.3002 1.35059Z" fill="#262626"/>
<path d="M17.5259 3.37764C18.1845 3.34015 18.415 4.20256 18.0857 5.32745C17.7564 6.45233 16.9003 7.38974 16.2418 7.42724C15.5832 7.46473 15.3527 6.60232 15.682 5.47743C16.0113 4.35254 16.8674 3.41514 17.5259 3.37764Z" fill="white"/>
<path d="M17.5682 4.12683C17.6012 4.23938 17.6341 4.53952 17.4694 5.06478C17.173 5.96521 16.5472 6.60302 16.2507 6.67805C16.2178 6.5655 16.1848 6.26535 16.3495 5.7401C16.613 4.80215 17.2718 4.16434 17.5682 4.12683ZM17.5682 3.37646H17.5353C16.8765 3.41398 16.0531 4.35193 15.6908 5.47748C15.3614 6.5655 15.559 7.42841 16.1848 7.42841H16.2178C16.8765 7.39089 17.7 6.45294 18.0623 5.3274C18.4246 4.23938 18.1941 3.37646 17.5682 3.37646Z" fill="#262626"/>
<path d="M2.70117 20.935C2.70117 20.935 6.69405 13.8513 7.30834 12.7206C8.19565 10.7917 8.84407 10.4924 8.84407 10.4924L25.1569 1.44655C25.3616 1.31352 25.6346 1.31352 25.8053 1.4798C26.1124 1.7126 33.2109 5.1713 36.0434 6.80088C36.6919 7.19996 37.8181 7.93161 37.8181 7.93161V8.79629L21.437 17.7091C21.437 17.7091 20.6521 18.0749 17.1028 18.6403C16.1814 18.8066 2.70117 20.935 2.70117 20.935Z" fill="white"/>
<path d="M25.0145 2.04884C25.182 2.14859 25.6845 2.41459 27.2257 3.2126C29.6045 4.44286 33.2228 6.30488 35.032 7.36889C35.4676 7.63489 36.0706 8.03389 36.4392 8.29989V8.4329L20.793 17.1112C20.659 17.1777 19.7544 17.477 16.7391 18.009C16.002 18.142 7.35815 19.5385 3.9408 20.0705C5.07992 18.009 7.35815 13.8859 7.7937 13.0547C8.46377 11.5584 8.96632 11.1594 8.99982 11.1262L25.0145 2.04884ZM25.0145 1.35059C24.914 1.35059 24.8135 1.38384 24.7129 1.45034L8.69829 10.4944C8.69829 10.4944 8.06173 10.7937 7.19064 12.7222C6.62108 13.8527 2.70117 20.935 2.70117 20.935C2.70117 20.935 15.935 18.807 16.8396 18.6407C20.324 18.0422 21.0946 17.7097 21.0946 17.7097L37.1427 8.79865V7.93414C37.1427 7.93414 36.0706 7.16938 35.4006 6.80363C32.6198 5.17437 25.651 1.68309 25.3495 1.48359C25.2825 1.38384 25.1485 1.35059 25.0145 1.35059Z" fill="#262626"/>
<path d="M2.70117 20.2597C2.70117 20.2597 6.62108 13.176 7.22414 12.0453C8.09523 10.1164 8.73179 9.81709 8.73179 9.81709L24.7465 0.771253C24.9475 0.638226 25.2155 0.638226 25.383 0.80451C25.7516 1.07056 36.8077 7.6554 36.8077 7.6554C36.8077 7.6554 37.1427 7.82168 37.1427 7.95471C37.1427 7.98797 37.1427 8.15425 37.1427 8.15425L21.0946 17.0338C21.0946 17.0338 20.324 17.3996 16.8396 17.965C15.9685 18.1313 3.87379 20.0602 2.76818 20.2265C2.73468 20.2597 2.70117 20.2597 2.70117 20.2597Z" fill="#3BC6E4"/>
<path d="M25.0145 0.722334C25.7851 1.23829 33.6249 6.05384 36.0371 7.53291L20.793 16.3041C20.659 16.3729 19.7544 16.6825 16.7391 17.2328C16.002 17.3704 7.39166 18.8151 3.9408 19.3654C5.07992 17.2328 7.35815 12.9676 7.7937 12.1077C8.46377 10.5598 8.96632 10.1471 8.99982 10.1127L25.0145 0.722334ZM25.0145 0C24.914 0 24.8135 0.0343968 24.7129 0.103191L8.69829 9.45913C8.69829 9.45913 8.06173 9.7687 7.19064 11.7637C6.62108 12.9332 2.70117 20.2597 2.70117 20.2597C2.70117 20.2597 2.73468 20.2597 2.76818 20.2597C3.87379 20.0878 15.9685 18.0583 16.8396 17.9208C20.324 17.3016 21.0946 16.9576 21.0946 16.9576L37.1427 7.73929C37.1427 7.73929 37.1427 7.56731 37.1427 7.53291C37.1427 7.42972 36.8077 7.22334 36.8077 7.22334C36.8077 7.22334 25.7516 0.412762 25.3495 0.137587C25.2825 0.0343968 25.1485 0 25.0145 0Z" fill="#262626"/>
<path d="M9.01287 9.58334L8.67871 10.165L20.4 16.8983L20.7341 16.3166L9.01287 9.58334Z" fill="#262626"/>
<path d="M1.35111 24.3118H0.675781V21.7294L15.1953 13.5066L15.5329 14.1182L1.35111 22.1372V24.3118Z" fill="#262626"/>
<path d="M3.37708 20.2596L0.675781 17.8285L0.881315 17.5583L3.37708 20.2596Z" fill="#3BC6E4"/>
<path d="M3.62165 20.2596L0 17.9894L0.502011 17.5583L0.860591 17.817L4.05195 19.7999L3.62165 20.2596Z" fill="#262626"/>
<path d="M1.49419 16.2091C1.97195 16.1798 2.1767 16.6197 1.90369 17.1768C1.63069 17.7339 1.05055 18.203 0.538665 18.2324C0.026779 18.2617 -0.14385 17.8218 0.129156 17.2647C0.402162 16.7076 1.01643 16.2091 1.49419 16.2091Z" fill="#3BC6E4"/>
<path d="M1.27025 16.8831C1.27025 16.9125 1.23513 16.9418 1.23513 16.9712C1.09465 17.2354 0.883937 17.441 0.708342 17.5584C0.708342 17.5291 0.743461 17.4997 0.743461 17.4703C0.883937 17.1767 1.09465 16.9712 1.27025 16.8831ZM1.51608 16.2078C1.48096 16.2078 1.48096 16.2078 1.51608 16.2078C0.989294 16.2371 0.357152 16.7069 0.111319 17.2648C-0.134513 17.8227 0.0410815 18.2337 0.497628 18.2337H0.532747C1.02441 18.2044 1.65655 17.7346 1.93751 17.1767C2.14822 16.6188 1.97263 16.2078 1.51608 16.2078Z" fill="#262626"/>
<path d="M17.5586 5.40259L29.0391 12.8312L17.5586 5.40259Z" fill="#3BC6E4"/>
<path d="M17.7041 5.25731L17.3613 5.83398L29.0966 12.8101L29.4394 12.2335L17.7041 5.25731Z" fill="#262626"/>
<path d="M13.5068 10.1297L26.338 2.70117L13.5068 10.1297Z" fill="#3BC6E4"/>
<path d="M25.9673 2.38285L13.0439 9.71899L13.3751 10.3024L26.2985 2.9663L25.9673 2.38285Z" fill="#262626"/>
<path d="M18.9092 13.5065L31.7403 6.07788L18.9092 13.5065Z" fill="#3BC6E4"/>
<path d="M31.5341 5.87105L18.6152 13.2131L18.9467 13.7964L31.8656 6.45429L31.5341 5.87105Z" fill="#262626"/>
<path d="M31.4103 9.45661C31.733 9.52357 33.7659 10.6284 33.7659 10.6284L29.4742 17.5585C29.4742 17.5585 28.4093 16.7885 27.6994 16.3198C26.9894 15.6502 26.7958 14.4784 27.2799 13.0388C27.9898 10.9966 29.8291 9.38965 31.4103 9.45661Z" fill="#3BC6E4"/>
<path d="M31.2725 10.1243C31.4992 10.1913 32.1468 10.5262 32.8268 10.8945L29.2972 16.6208C28.9409 16.3864 28.4876 16.0516 28.099 15.8172C27.5809 15.3148 27.5161 14.4107 27.9047 13.2721C28.4876 11.5308 30.0096 10.1243 31.2725 10.1243ZM31.2725 9.45459C29.7181 9.45459 27.9695 11.0285 27.2894 13.0377C26.8037 14.5112 26.9656 15.6497 27.7104 16.3195C28.4228 16.7548 29.4915 17.5585 29.4915 17.5585L33.7659 10.6266C33.7659 10.6266 31.7258 9.52156 31.402 9.45459C31.3373 9.45459 31.3049 9.45459 31.2725 9.45459Z" fill="#262626"/>
<path d="M32.9384 10.1299C34.6816 10.1299 35.5532 11.9228 34.8995 14.1818C34.2458 16.4409 32.2847 18.2338 30.5414 18.2338C28.7982 18.2338 27.9266 16.4409 28.5803 14.1818C29.234 11.9228 31.1951 10.1299 32.9384 10.1299Z" fill="white"/>
<path d="M32.9384 10.847C33.3742 10.847 33.7373 11.0263 33.9916 11.3491C34.4274 11.9228 34.5 12.8909 34.2095 13.9667C33.6284 15.8672 31.9578 17.4808 30.5414 17.4808C30.1056 17.4808 29.7425 17.3015 29.4882 16.9788C29.0524 16.405 28.9798 15.4369 29.2703 14.3611C29.8514 12.4606 31.522 10.847 32.9384 10.847ZM32.9384 10.1299C31.1951 10.1299 29.234 11.9586 28.5803 14.1818C27.9266 16.405 28.7982 18.2338 30.5414 18.2338C32.2847 18.2338 34.2458 16.4409 34.8995 14.1818C35.5532 11.9228 34.6816 10.1299 32.9384 10.1299Z" fill="#262626"/>
<path d="M32.3755 12.1572C33.0271 12.1197 33.2877 12.9821 32.9293 14.107C32.571 15.2319 31.7566 16.1693 31.1051 16.2068C30.4535 16.2443 30.1929 15.3819 30.5513 14.257C30.9096 13.1321 31.724 12.1947 32.3755 12.1572Z" fill="white"/>
<path d="M32.3918 12.9064C32.4247 13.0189 32.4576 13.3191 32.2929 13.8443C31.9965 14.7448 31.4036 15.3826 31.0742 15.4201C31.0413 15.3075 31.0083 15.0074 31.173 14.4821C31.4695 13.5817 32.0953 12.9439 32.3918 12.9064ZM32.4247 12.156H32.3918C31.733 12.1935 30.9095 13.1315 30.5472 14.257C30.2178 15.345 30.4155 16.208 31.0413 16.208H31.0742C31.733 16.1704 32.5564 15.2325 32.9188 14.1069C33.2811 13.0189 33.0505 12.156 32.4247 12.156Z" fill="#262626"/>
</svg>
