<?xml version="1.0" encoding="utf-8"?>
<!-- Generator: Adobe Illustrator 22.0.1, SVG Export Plug-In . SVG Version: 6.00 Build 0)  -->
<svg version="1.1" id="Слой_1" xmlns="http://www.w3.org/2000/svg" xmlns:xlink="http://www.w3.org/1999/xlink" x="0px" y="0px"
	 viewBox="0 0 15 16" style="enable-background:new 0 0 15 16;" xml:space="preserve">
<path style="fill:#FF4949;" d="M13.73,1.64H9.44c0-0.88-0.71-1.6-1.59-1.6s-1.6,0.72-1.6,1.6H1.97c-0.55,0-1,0.45-1,1s0.45,1,1,1
	h0.4l0.64,11.42c0.03,0.53,0.47,0.94,1,0.94h7.68c0.53,0,0.97-0.41,1-0.94l0.63-11.42h0.41c0.55,0,1-0.45,1-1S14.28,1.64,13.73,1.64
	z M10.74,14H4.95L4.38,3.64h6.94L10.74,14z"/>
</svg>
