<?xml version="1.0" encoding="utf-8"?>
<!-- Generator: Adobe Illustrator 22.0.1, SVG Export Plug-In . SVG Version: 6.00 Build 0)  -->
<svg version="1.1" id="Слой_1" xmlns="http://www.w3.org/2000/svg" xmlns:xlink="http://www.w3.org/1999/xlink" x="0px" y="0px"
	 viewBox="0 0 19 25" style="enable-background:new 0 0 19 25;" xml:space="preserve">
<path style="fill:#3BC6E4;" d="M18.41,4.41l-3.82-3.82C14.21,0.21,13.7,0,13.17,0H2C0.9,0,0,0.9,0,2v21c0,1.1,0.9,2,2,2h15
	c1.1,0,2-0.9,2-2V5.83C19,5.29,18.79,4.79,18.41,4.41z M14,2.83L16.17,5H14.5C14.17,5,14,4.83,14,4.5V2.83z M17,23H2V2h10v2.5
	C12,5.71,12.88,7,14.5,7H17V23z"/>
<path style="fill:#3BC6E4;" d="M6,9h7c0.552,0,1,0.448,1,1l0,0c0,0.552-0.448,1-1,1H6c-0.552,0-1-0.448-1-1l0,0C5,9.448,5.448,9,6,9
	z"/>
<path style="fill:#3BC6E4;" d="M6,13h5c0.552,0,1,0.448,1,1l0,0c0,0.552-0.448,1-1,1H6c-0.552,0-1-0.448-1-1l0,0
	C5,13.448,5.448,13,6,13z"/>
<path style="fill:#3BC6E4;" d="M6,17h6c0.552,0,1,0.448,1,1l0,0c0,0.552-0.448,1-1,1H6c-0.552,0-1-0.448-1-1l0,0
	C5,17.448,5.448,17,6,17z"/>
</svg>
