<?xml version="1.0" encoding="utf-8"?>
<!-- Generator: Adobe Illustrator 22.0.1, SVG Export Plug-In . SVG Version: 6.00 Build 0)  -->
<svg version="1.1" id="Слой_1" xmlns="http://www.w3.org/2000/svg" xmlns:xlink="http://www.w3.org/1999/xlink" x="0px" y="0px"
	 viewBox="0 0 19 16" style="enable-background:new 0 0 19 16;" xml:space="preserve">
<path style="fill:#FFFFFF;" d="M1,0h17c0.6,0,1,0.4,1,1s-0.4,1-1,1H1C0.4,2,0,1.6,0,1S0.4,0,1,0z"/>
<path style="fill:#FFFFFF;" d="M1,7h17c0.6,0,1,0.4,1,1c0,0.6-0.4,1-1,1H1C0.4,9,0,8.6,0,8C0,7.4,0.4,7,1,7z"/>
<path style="fill:#FFFFFF;" d="M1,14h17c0.6,0,1,0.4,1,1s-0.4,1-1,1H1c-0.6,0-1-0.4-1-1S0.4,14,1,14z"/>
</svg>
