<?xml version="1.0" encoding="utf-8"?>
<!-- Generator: Adobe Illustrator 22.0.1, SVG Export Plug-In . SVG Version: 6.00 Build 0)  -->
<svg version="1.1" id="Слой_1" xmlns="http://www.w3.org/2000/svg" xmlns:xlink="http://www.w3.org/1999/xlink" x="0px" y="0px"
	 viewBox="0 0 15 15" style="enable-background:new 0 0 15 15;" xml:space="preserve">
<circle style="fill:#3BC6E4;" cx="7.5" cy="7.5" r="7.5"/>
<path style="fill:#FFFFFF;" d="M7.5,11.5L7.5,11.5c-0.552,0-1-0.448-1-1v-3c0-0.552,0.448-1,1-1l0,0c0.552,0,1,0.448,1,1v3
	C8.5,11.052,8.052,11.5,7.5,11.5z"/>
<path style="fill:#FFFFFF;" d="M7.5,5.5L7.5,5.5c-0.552,0-1-0.448-1-1l0,0c0-0.552,0.448-1,1-1l0,0c0.552,0,1,0.448,1,1l0,0
	C8.5,5.052,8.052,5.5,7.5,5.5z"/>
</svg>
