<?xml version="1.0" encoding="utf-8"?>
<!-- Generator: Adobe Illustrator 22.0.1, SVG Export Plug-In . SVG Version: 6.00 Build 0)  -->
<svg version="1.1" id="Слой_1" xmlns="http://www.w3.org/2000/svg" xmlns:xlink="http://www.w3.org/1999/xlink" x="0px" y="0px"
	 viewBox="0 0 20 20" style="enable-background:new 0 0 20 20;" xml:space="preserve">
<circle style="fill:none;stroke:#FF4949;stroke-width:2;" cx="10" cy="10" r="9"/>
<path style="fill:#FF4949;" d="M10,14L10,14c-0.552,0-1-0.448-1-1v-3c0-0.552,0.448-1,1-1l0,0c0.552,0,1,0.448,1,1v3
	C11,13.552,10.552,14,10,14z"/>
<path style="fill:#FF4949;" d="M10,8L10,8C9.448,8,9,7.552,9,7l0,0c0-0.552,0.448-1,1-1l0,0c0.552,0,1,0.448,1,1l0,0
	C11,7.552,10.552,8,10,8z"/>
</svg>
