<?xml version="1.0" encoding="utf-8"?>
<!-- Generator: Adobe Illustrator 22.0.1, SVG Export Plug-In . SVG Version: 6.00 Build 0)  -->
<svg version="1.1" id="Слой_1" xmlns="http://www.w3.org/2000/svg" xmlns:xlink="http://www.w3.org/1999/xlink" x="0px" y="0px"
	 viewBox="0 0 22 26" style="enable-background:new 0 0 22 26;" xml:space="preserve">
<path style="fill:#3BC6E4;" d="M9.545,1.062l1.167,0.745c0.504,0.321,1.196,0.281,1.9-0.113l1.63-0.907
	c0.307-0.174,0.589-0.135,0.746,0.066c0.068,0.087,0.35,0.254,0.469,0.383l0.715,0.544c1.213,0.926,2.015,1.492,2.015,1.599
	l-0.573,1.531c0.358,0.121,0.447,0.641,0.197,1.171l-0.926,1.955c-0.388,0.765-0.51,1.596-0.352,2.409l0.409,1.593
	c0.041,0.248,0.011,0.501-0.087,0.739c-0.098,0.239-0.262,0.458-0.48,0.642l-1.576,1.235c-0.741,0.62-1.273,1.373-1.548,2.192
	l-0.704,1.995c-0.19,0.54-0.666,0.959-1.072,0.942l-1.487-0.064c-0.641-0.027-1.379,0.318-2.02,0.949l-1.487,1.465
	C6.076,22.526,5.828,22.638,5.38,22.6l-0.845,0.229c-0.548-0.439-1.332-1.017-1.849-1.421l-1.074-0.844
	c-0.137-0.109-0.325-0.208-0.426-0.291c-0.171-0.14-0.245-0.414-0.175-0.75l0.409-1.978c0.174-0.853,0.048-1.613-0.352-2.081
	l-0.926-1.085c-0.251-0.293-0.162-0.898,0.2-1.359l1.329-1.696c0.58-0.743,0.926-1.582,1.012-2.448l0.159-1.911
	c0.041-0.515,0.428-1.065,0.872-1.235L5.34,5.11c0.704-0.269,1.399-0.878,1.9-1.672l1.167-1.839
	C8.724,1.099,9.231,0.862,9.545,1.062z"/>
<path style="fill:#262626;" d="M17.64,4.92c-0.01,0-0.02-0.01-0.03-0.01l0.58-1.53c0-0.08-0.44-0.41-1.16-0.95
	c-0.26-0.19-0.54-0.41-0.86-0.65l-0.71-0.55c-0.07-0.06-0.17-0.14-0.27-0.21c-0.09-0.07-0.17-0.13-0.2-0.17
	c-0.16-0.2-0.44-0.24-0.75-0.06l-1.63,0.9c-0.7,0.4-1.39,0.44-1.9,0.12L9.55,1.06C9.23,0.86,8.72,1.1,8.41,1.6L7.24,3.44
	c-0.5,0.79-1.2,1.4-1.9,1.67L3.71,5.73C3.27,5.9,2.88,6.45,2.84,6.97L2.68,8.88c-0.08,0.86-0.43,1.7-1.01,2.45l-1.33,1.69
	c-0.36,0.46-0.45,1.07-0.2,1.36l0.93,1.09c0.4,0.46,0.52,1.22,0.35,2.08l-0.41,1.97c-0.07,0.34,0.01,0.61,0.18,0.75
	c0.04,0.04,0.11,0.09,0.19,0.13c0.08,0.05,0.16,0.11,0.23,0.17l1.08,0.84c0.21,0.17,0.47,0.36,0.74,0.57
	c0.38,0.29,0.78,0.59,1.11,0.85l0.84-0.23c0.45,0.04,0.7-0.07,1.1-0.47l1.49-1.46c0.64-0.63,1.38-0.98,2.02-0.95l1.48,0.06
	c0.41,0.02,0.88-0.4,1.08-0.94l0.7-2c0.27-0.81,0.81-1.57,1.55-2.19l1.57-1.23c0.22-0.19,0.39-0.41,0.48-0.64
	c0.1-0.24,0.13-0.5,0.09-0.74l-0.41-1.6c-0.16-0.81-0.03-1.64,0.35-2.41l0.93-1.95C18.05,5.56,17.98,5.06,17.64,4.92z M16.88,5.71
	l-0.89,1.88c-0.48,0.96-0.64,2.01-0.44,3.04l0.01,0.03l0.4,1.57c0,0.05-0.01,0.11-0.03,0.17c-0.03,0.07-0.09,0.15-0.19,0.24
	l-1.57,1.24l-0.01,0.01c-0.87,0.72-1.52,1.62-1.86,2.63l-0.7,1.99c-0.04,0.11-0.11,0.2-0.17,0.26l-0.01,0.01l-1.39-0.06
	c-1.01-0.04-2.01,0.49-2.77,1.23l-1.48,1.47c-0.14,0.13-0.2,0.18-0.22,0.19c-0.02,0-0.04,0-0.1-0.01l-0.17-0.01l-0.53,0.14
	C4.52,21.55,4.25,21.35,4,21.16c-0.26-0.2-0.51-0.39-0.7-0.54l-1.07-0.84c-0.07-0.06-0.15-0.11-0.22-0.16l0.39-1.87
	c0.21-1.02,0.1-2.14-0.57-2.93l-0.82-0.96c0.01-0.02,0.02-0.04,0.03-0.07c0.02-0.05,0.05-0.1,0.09-0.15l1.33-1.7
	c0.69-0.88,1.11-1.89,1.22-2.96V8.97l0.16-1.92C3.84,7,3.87,6.9,3.94,6.8c0.07-0.09,0.12-0.13,0.13-0.13L5.7,6.04
	c0.95-0.36,1.8-1.13,2.38-2.07c0,0,0,0,0.01,0l1.16-1.84C9.26,2.12,9.28,2.1,9.29,2.08l0.88,0.57h0.01c0.41,0.26,0.86,0.37,1.3,0.37
	c0.56,0,1.12-0.17,1.62-0.45l1.43-0.8c0.02,0.02,0.05,0.04,0.07,0.06h0.01c0.05,0.04,0.08,0.06,0.11,0.08
	c0,0.01,0.01,0.01,0.01,0.01l0.05,0.06l0.78,0.59c0.34,0.26,0.62,0.47,0.87,0.66c0.22,0.16,0.41,0.31,0.58,0.44l-0.7,1.86
	L16.88,5.71z"/>
<path style="fill:#262626;" d="M4.739,22.922l-3.415-2.634l0.611-0.792L5.35,22.13L4.739,22.922z"/>
<path style="fill:#262626;" d="M17.584,4.22l-3.415-2.634l0.611-0.792l3.415,2.634L17.584,4.22z"/>
<path style="fill:#F7F7F7;" d="M12.946,3.676l1.167,0.745c0.504,0.321,1.196,0.281,1.9-0.113l1.63-0.907
	c0.441-0.249,0.828-0.062,0.872,0.414l0.155,1.763c0.07,0.759,0.438,1.307,1.012,1.499l1.332,0.446
	c0.358,0.121,0.447,0.641,0.197,1.171l-0.926,1.955c-0.388,0.765-0.51,1.596-0.352,2.409l0.409,1.593
	c0.04,0.248,0.011,0.501-0.087,0.739c-0.098,0.238-0.262,0.457-0.48,0.642l-1.576,1.235c-0.741,0.62-1.273,1.373-1.548,2.192
	l-0.704,1.995c-0.19,0.54-0.666,0.959-1.072,0.942l-1.487-0.064c-0.641-0.027-1.38,0.318-2.02,0.949l-1.487,1.465
	C9.476,25.14,9,25.17,8.807,24.807l-0.704-1.332c-0.301-0.577-0.866-0.846-1.548-0.74l-1.573,0.247
	c-0.428,0.069-0.682-0.308-0.571-0.843l0.409-1.978c0.174-0.853,0.048-1.612-0.352-2.081l-0.926-1.085
	c-0.251-0.293-0.162-0.898,0.2-1.359l1.329-1.696c0.58-0.743,0.926-1.582,1.012-2.449l0.159-1.911
	C6.283,9.066,6.67,8.517,7.114,8.347L8.74,7.725c0.704-0.269,1.399-0.878,1.9-1.672l1.167-1.839
	C12.124,3.713,12.632,3.477,12.946,3.676z"/>
<path style="fill:#262626;" d="M21.21,8.69c0.25-0.53,0.16-1.05-0.2-1.17l-1.33-0.44c-0.57-0.2-0.94-0.74-1.01-1.5l-0.16-1.77
	c-0.04-0.47-0.43-0.66-0.87-0.41l-1.63,0.91c-0.7,0.39-1.39,0.43-1.9,0.11l-1.16-0.74c-0.32-0.2-0.83,0.03-1.14,0.53l-1.17,1.84
	c-0.5,0.8-1.2,1.41-1.9,1.68L7.11,8.35C6.67,8.52,6.28,9.07,6.24,9.58l-0.16,1.91C6,12.36,5.65,13.2,5.07,13.94l-1.33,1.7
	C3.38,16.1,3.29,16.7,3.54,17l0.93,1.08c0.4,0.47,0.53,1.23,0.35,2.08l-0.41,1.98c-0.11,0.53,0.14,0.91,0.57,0.84l1.58-0.24
	c0.68-0.11,1.24,0.16,1.54,0.74l0.71,1.33c0.19,0.36,0.67,0.33,1.07-0.06l1.49-1.47c0.64-0.63,1.38-0.98,2.02-0.95l1.48,0.07
	c0.41,0.01,0.89-0.41,1.08-0.95l0.7-1.99c0.27-0.82,0.81-1.57,1.55-2.19l1.57-1.24c0.22-0.18,0.39-0.4,0.48-0.64
	c0.1-0.24,0.13-0.49,0.09-0.74l-0.41-1.59c-0.16-0.81-0.03-1.65,0.35-2.41L21.21,8.69z M19.39,10.21c-0.48,0.95-0.64,2-0.44,3.04
	l0.01,0.03l0.4,1.56c0,0.05-0.01,0.11-0.03,0.17c-0.03,0.07-0.09,0.16-0.19,0.25l-1.57,1.23l-0.01,0.01
	c-0.87,0.72-1.51,1.62-1.86,2.63L15,21.12c-0.04,0.11-0.1,0.21-0.17,0.26c0,0.01-0.01,0.01-0.01,0.01l-1.39-0.06
	c-1.01-0.04-2.01,0.49-2.77,1.24l-1.25,1.24l-0.42-0.8c-0.52-0.99-1.52-1.43-2.59-1.26l-0.92,0.14l0.32-1.53
	c0.21-1.02,0.1-2.14-0.57-2.93l-0.82-0.95c0.01-0.03,0.02-0.05,0.03-0.08c0.02-0.05,0.05-0.1,0.09-0.15l1.33-1.69
	c0.69-0.88,1.11-1.9,1.22-2.97v-0.01l0.16-1.92c0-0.05,0.03-0.15,0.1-0.25c0.07-0.09,0.12-0.12,0.13-0.13L9.1,8.66
	c0.95-0.36,1.8-1.14,2.39-2.07l1.16-1.84c0.01-0.02,0.03-0.04,0.04-0.05l0.88,0.56l0.01,0.01c0.41,0.26,0.85,0.37,1.29,0.37
	c0.56,0,1.13-0.18,1.63-0.46l1.08-0.6l0.09,1.09c0.1,1.02,0.64,2,1.69,2.35l0.92,0.31L19.39,10.21z"/>
<path style="fill:#3BC6E4;" d="M7.832,17.901l0.675-0.318v-1.225c0-0.409-0.057-0.846-0.092-1.211l0.019-0.007l0.311,0.609
	l0.818,1.339l0.726-0.343V13.29l-0.676,0.316v1.22c0,0.409,0.057,0.866,0.089,1.216l-0.019,0.01l-0.308-0.614l-0.818-1.334
	l-0.726,0.34V17.901z M11.029,16.397l2.011-0.944v-0.656l-1.303,0.614v-0.796l1.069-0.503v-0.656l-1.069,0.503v-0.695l1.256-0.589
	V12.02l-1.963,0.922V16.397z M13.94,15.031l0.875-0.412l0.295-1.709c0.051-0.291,0.089-0.587,0.127-0.863l0.019-0.01
	c0.035,0.244,0.076,0.501,0.127,0.745l0.308,1.425l0.891-0.419l0.555-3.716l-0.675,0.318l-0.219,1.716
	c-0.041,0.375-0.086,0.764-0.127,1.151l-0.019,0.01c-0.06-0.34-0.124-0.683-0.187-1.006l-0.336-1.455l-0.603,0.281l-0.336,1.773
	c-0.063,0.39-0.127,0.789-0.187,1.181l-0.019,0.01c-0.041-0.345-0.086-0.688-0.127-1.033l-0.219-1.514l-0.726,0.343L13.94,15.031z"
	/>
</svg>
