<?xml version="1.0" encoding="utf-8"?>
<!-- Generator: Adobe Illustrator 22.0.1, SVG Export Plug-In . SVG Version: 6.00 Build 0)  -->
<svg version="1.1" id="Слой_1" xmlns="http://www.w3.org/2000/svg" xmlns:xlink="http://www.w3.org/1999/xlink" x="0px" y="0px"
	 viewBox="0 0 15 25" style="enable-background:new 0 0 15 25;" xml:space="preserve">
<path style="fill:#3BC6E4;" d="M6.275,0.45C2.813,1.94,0,6.685,0,11.027c0,5.387,5.615,10.884,5.854,11.116
	c0.225,0.217,0.617,0.046,0.841-0.364c0.239-0.435,6.852-12.025,6.852-17.416c-1.248-2.403-1.782-2.758-3.03-3.661
	C9.4-0.105,7.909-0.252,6.275,0.45z M6.275,12.289c-1.74,0.749-2.709-0.3-2.709-2.485c0-2.185,1.469-3.886,3.209-4.635
	c1.74-0.749,2.66-0.388,2.66,1.797C9.433,9.152,8.014,11.541,6.275,12.289z"/>
<path style="fill:#262626;" d="M9.27,4.11C8.8,3.83,8.28,3.78,7.81,3.83C7.34,3.89,6.86,4.04,6.38,4.25
	C4.35,5.12,2.57,7.14,2.57,9.8c0,1.19,0.25,2.34,1,3.07c0.86,0.82,2.02,0.8,3.1,0.34c1.12-0.48,2.05-1.45,2.7-2.53
	c0.65-1.1,1.06-2.42,1.06-3.71C10.43,5.85,10.22,4.68,9.27,4.11z M6.27,12.29c-1.74,0.75-2.7-0.3-2.7-2.49
	c0-2.18,1.46-3.88,3.2-4.63s2.66-0.39,2.66,1.8C9.43,9.15,8.01,11.54,6.27,12.29z M9.27,4.11C8.8,3.83,8.28,3.78,7.81,3.83
	C7.34,3.89,6.86,4.04,6.38,4.25C4.35,5.12,2.57,7.14,2.57,9.8c0,1.19,0.25,2.34,1,3.07c0.86,0.82,2.02,0.8,3.1,0.34
	c1.12-0.48,2.05-1.45,2.7-2.53c0.65-1.1,1.06-2.42,1.06-3.71C10.43,5.85,10.22,4.68,9.27,4.11z M6.27,12.29
	c-1.74,0.75-2.7-0.3-2.7-2.49c0-2.18,1.46-3.88,3.2-4.63s2.66-0.39,2.66,1.8C9.43,9.15,8.01,11.54,6.27,12.29z M9.27,4.11
	C8.8,3.83,8.28,3.78,7.81,3.83C7.34,3.89,6.86,4.04,6.38,4.25C4.35,5.12,2.57,7.14,2.57,9.8c0,1.19,0.25,2.34,1,3.07
	c0.86,0.82,2.02,0.8,3.1,0.34c1.12-0.48,2.05-1.45,2.7-2.53c0.65-1.1,1.06-2.42,1.06-3.71C10.43,5.85,10.22,4.68,9.27,4.11z
	 M6.27,12.29c-1.74,0.75-2.7-0.3-2.7-2.49c0-2.18,1.46-3.88,3.2-4.63s2.66-0.39,2.66,1.8C9.43,9.15,8.01,11.54,6.27,12.29z
	 M10.59,0.76c-0.02-0.02-0.05-0.04-0.07-0.06C9.4-0.11,7.91-0.25,6.27,0.45C2.81,1.94,0,6.68,0,11.03c0,5.38,5.62,10.88,5.85,11.11
	c0.23,0.22,0.62,0.05,0.85-0.36c0-0.02,0.02-0.05,0.05-0.1c0.68-1.21,6.8-12.13,6.8-17.32C12.32,2.01,11.79,1.62,10.59,0.76z
	 M9.3,14.51c-1.35,2.92-2.73,5.44-3.26,6.39c-0.55-0.59-1.47-1.64-2.38-2.95C2.26,15.92,1,13.41,1,11.03c0-1.97,0.64-4.07,1.7-5.85
	c1.06-1.79,2.49-3.17,3.97-3.81c1.37-0.59,2.48-0.42,3.26,0.14l0.03,0.03c0.63,0.45,0.97,0.7,1.32,1.09
	C11.62,3.02,12,3.57,12.54,4.6c-0.04,1.16-0.4,2.67-0.98,4.38C10.95,10.78,10.14,12.71,9.3,14.51z M9.27,4.11
	C8.8,3.83,8.28,3.78,7.81,3.83C7.34,3.89,6.86,4.04,6.38,4.25C4.35,5.12,2.57,7.14,2.57,9.8c0,1.19,0.25,2.34,1,3.07
	c0.86,0.82,2.02,0.8,3.1,0.34c1.12-0.48,2.05-1.45,2.7-2.53c0.65-1.1,1.06-2.42,1.06-3.71C10.43,5.85,10.22,4.68,9.27,4.11z
	 M6.27,12.29c-1.74,0.75-2.7-0.3-2.7-2.49c0-2.18,1.46-3.88,3.2-4.63s2.66-0.39,2.66,1.8C9.43,9.15,8.01,11.54,6.27,12.29z
	 M9.27,4.11C8.8,3.83,8.28,3.78,7.81,3.83C7.34,3.89,6.86,4.04,6.38,4.25C4.35,5.12,2.57,7.14,2.57,9.8c0,1.19,0.25,2.34,1,3.07
	c0.86,0.82,2.02,0.8,3.1,0.34c1.12-0.48,2.05-1.45,2.7-2.53c0.65-1.1,1.06-2.42,1.06-3.71C10.43,5.85,10.22,4.68,9.27,4.11z
	 M6.27,12.29c-1.74,0.75-2.7-0.3-2.7-2.49c0-2.18,1.46-3.88,3.2-4.63s2.66-0.39,2.66,1.8C9.43,9.15,8.01,11.54,6.27,12.29z"/>
<path style="fill:#FFFFFF;" d="M8.057,2.589c-3.462,1.49-6.275,6.235-6.275,10.578c0,5.387,5.615,10.884,5.854,11.116
	c0.225,0.218,0.617,0.046,0.841-0.364c0.239-0.435,5.854-10.763,5.854-16.154C14.331,3.423,11.519,1.102,8.057,2.589z M8.057,14.428
	c-1.74,0.749-3.159-0.421-3.159-2.606s1.419-4.57,3.159-5.319c1.74-0.749,3.159,0.417,3.159,2.602
	C11.215,11.291,9.797,13.68,8.057,14.428z"/>
<path style="fill:#262626;" d="M10.92,5.93c-0.9-0.75-2.1-0.84-3.26-0.35C6.54,6.07,5.61,7.03,4.97,8.11
	c-0.65,1.1-1.07,2.41-1.07,3.71c0,1.29,0.42,2.46,1.29,3.18c0.91,0.75,2.11,0.84,3.26,0.35c1.12-0.48,2.05-1.45,2.7-2.53
	c0.65-1.1,1.07-2.42,1.07-3.71C12.22,7.82,11.8,6.65,10.92,5.93z M8.06,14.43c-1.74,0.75-3.16-0.42-3.16-2.61
	c0-2.18,1.42-4.57,3.16-5.32s3.16,0.42,3.16,2.61C11.22,11.29,9.8,13.68,8.06,14.43z M10.92,5.93c-0.9-0.75-2.1-0.84-3.26-0.35
	C6.54,6.07,5.61,7.03,4.97,8.11c-0.65,1.1-1.07,2.41-1.07,3.71c0,1.29,0.42,2.46,1.29,3.18c0.91,0.75,2.11,0.84,3.26,0.35
	c1.12-0.48,2.05-1.45,2.7-2.53c0.65-1.1,1.07-2.42,1.07-3.71C12.22,7.82,11.8,6.65,10.92,5.93z M8.06,14.43
	c-1.74,0.75-3.16-0.42-3.16-2.61c0-2.18,1.42-4.57,3.16-5.32s3.16,0.42,3.16,2.61C11.22,11.29,9.8,13.68,8.06,14.43z M10.92,5.93
	c-0.9-0.75-2.1-0.84-3.26-0.35C6.54,6.07,5.61,7.03,4.97,8.11c-0.65,1.1-1.07,2.41-1.07,3.71c0,1.29,0.42,2.46,1.29,3.18
	c0.91,0.75,2.11,0.84,3.26,0.35c1.12-0.48,2.05-1.45,2.7-2.53c0.65-1.1,1.07-2.42,1.07-3.71C12.22,7.82,11.8,6.65,10.92,5.93z
	 M8.06,14.43c-1.74,0.75-3.16-0.42-3.16-2.61c0-2.18,1.42-4.57,3.16-5.32s3.16,0.42,3.16,2.61C11.22,11.29,9.8,13.68,8.06,14.43z
	 M10.92,5.93c-0.9-0.75-2.1-0.84-3.26-0.35C6.54,6.07,5.61,7.03,4.97,8.11c-0.65,1.1-1.07,2.41-1.07,3.71
	c0,1.29,0.42,2.46,1.29,3.18c0.91,0.75,2.11,0.84,3.26,0.35c1.12-0.48,2.05-1.45,2.7-2.53c0.65-1.1,1.07-2.42,1.07-3.71
	C12.22,7.82,11.8,6.65,10.92,5.93z M8.06,14.43c-1.74,0.75-3.16-0.42-3.16-2.61c0-2.18,1.42-4.57,3.16-5.32s3.16,0.42,3.16,2.61
	C11.22,11.29,9.8,13.68,8.06,14.43z M10.92,5.93c-0.9-0.75-2.1-0.84-3.26-0.35C6.54,6.07,5.61,7.03,4.97,8.11
	c-0.65,1.1-1.07,2.41-1.07,3.71c0,1.29,0.42,2.46,1.29,3.18c0.91,0.75,2.11,0.84,3.26,0.35c1.12-0.48,2.05-1.45,2.7-2.53
	c0.65-1.1,1.07-2.42,1.07-3.71C12.22,7.82,11.8,6.65,10.92,5.93z M8.06,14.43c-1.74,0.75-3.16-0.42-3.16-2.61
	c0-2.18,1.42-4.57,3.16-5.32s3.16,0.42,3.16,2.61C11.22,11.29,9.8,13.68,8.06,14.43z M8.06,2.59C4.6,4.08,1.78,8.82,1.78,13.17
	c0,5.38,5.62,10.88,5.86,11.11c0.22,0.22,0.61,0.05,0.84-0.36c0.24-0.44,5.85-10.76,5.85-16.15C14.33,3.42,11.52,1.1,8.06,2.59z
	 M10.58,17.3c-1.14,2.62-2.29,4.84-2.76,5.74c-0.56-0.6-1.47-1.64-2.38-2.95c-1.4-2.03-2.66-4.54-2.66-6.92
	c0-1.97,0.64-4.07,1.7-5.85c1.06-1.79,2.49-3.17,3.97-3.81c1.45-0.62,2.61-0.41,3.41,0.25c0.83,0.69,1.47,2.03,1.47,4.01
	c0,1.2-0.32,2.74-0.84,4.44C11.98,13.89,11.28,15.67,10.58,17.3z M7.66,5.58C6.54,6.07,5.61,7.03,4.97,8.11
	c-0.65,1.1-1.07,2.41-1.07,3.71c0,1.29,0.42,2.46,1.29,3.18c0.91,0.75,2.11,0.84,3.26,0.35c1.12-0.48,2.05-1.45,2.7-2.53
	c0.65-1.1,1.07-2.42,1.07-3.71c0-1.29-0.42-2.46-1.3-3.18C10.02,5.18,8.82,5.09,7.66,5.58z M8.06,14.43
	c-1.74,0.75-3.16-0.42-3.16-2.61c0-2.18,1.42-4.57,3.16-5.32s3.16,0.42,3.16,2.61C11.22,11.29,9.8,13.68,8.06,14.43z M10.92,5.93
	c-0.9-0.75-2.1-0.84-3.26-0.35C6.54,6.07,5.61,7.03,4.97,8.11c-0.65,1.1-1.07,2.41-1.07,3.71c0,1.29,0.42,2.46,1.29,3.18
	c0.91,0.75,2.11,0.84,3.26,0.35c1.12-0.48,2.05-1.45,2.7-2.53c0.65-1.1,1.07-2.42,1.07-3.71C12.22,7.82,11.8,6.65,10.92,5.93z
	 M8.06,14.43c-1.74,0.75-3.16-0.42-3.16-2.61c0-2.18,1.42-4.57,3.16-5.32s3.16,0.42,3.16,2.61C11.22,11.29,9.8,13.68,8.06,14.43z
	 M10.92,5.93c-0.9-0.75-2.1-0.84-3.26-0.35C6.54,6.07,5.61,7.03,4.97,8.11c-0.65,1.1-1.07,2.41-1.07,3.71
	c0,1.29,0.42,2.46,1.29,3.18c0.91,0.75,2.11,0.84,3.26,0.35c1.12-0.48,2.05-1.45,2.7-2.53c0.65-1.1,1.07-2.42,1.07-3.71
	C12.22,7.82,11.8,6.65,10.92,5.93z M8.06,14.43c-1.74,0.75-3.16-0.42-3.16-2.61c0-2.18,1.42-4.57,3.16-5.32s3.16,0.42,3.16,2.61
	C11.22,11.29,9.8,13.68,8.06,14.43z M10.92,5.93c-0.9-0.75-2.1-0.84-3.26-0.35C6.54,6.07,5.61,7.03,4.97,8.11
	c-0.65,1.1-1.07,2.41-1.07,3.71c0,1.29,0.42,2.46,1.29,3.18c0.91,0.75,2.11,0.84,3.26,0.35c1.12-0.48,2.05-1.45,2.7-2.53
	c0.65-1.1,1.07-2.42,1.07-3.71C12.22,7.82,11.8,6.65,10.92,5.93z M8.06,14.43c-1.74,0.75-3.16-0.42-3.16-2.61
	c0-2.18,1.42-4.57,3.16-5.32s3.16,0.42,3.16,2.61C11.22,11.29,9.8,13.68,8.06,14.43z"/>
</svg>
