<?xml version="1.0" encoding="utf-8"?>
<!-- Generator: Adobe Illustrator 22.0.1, SVG Export Plug-In . SVG Version: 6.00 Build 0)  -->
<svg version="1.1" id="Слой_1" xmlns="http://www.w3.org/2000/svg" xmlns:xlink="http://www.w3.org/1999/xlink" x="0px" y="0px"
	 viewBox="0 0 7 8" style="enable-background:new 0 0 7 8;" xml:space="preserve">
<path style="fill:#0CCE7D;" d="M1,3.033h5c0.552,0,1,0.448,1,1l0,0c0,0.552-0.448,1-1,1H1c-0.552,0-1-0.448-1-1l0,0
	C0,3.481,0.448,3.033,1,3.033z"/>
<path style="fill:#0CCE7D;" d="M4.5,1.533v5c0,0.552-0.448,1-1,1l0,0c-0.552,0-1-0.448-1-1v-5c0-0.552,0.448-1,1-1l0,0
	C4.052,0.533,4.5,0.981,4.5,1.533z"/>
</svg>
