<?xml version="1.0" encoding="utf-8"?>
<!-- Generator: Adobe Illustrator 22.0.1, SVG Export Plug-In . SVG Version: 6.00 Build 0)  -->
<svg version="1.1" id="Слой_1" xmlns="http://www.w3.org/2000/svg" xmlns:xlink="http://www.w3.org/1999/xlink" x="0px" y="0px"
	 viewBox="0 0 16 17" style="enable-background:new 0 0 16 17;" xml:space="preserve">
<path style="fill:#DDDDDD;" d="M14.66,14.24l-3.37-3.36C12.35,9.72,13,8.19,13,6.5C13,2.92,10.08,0,6.5,0S0,2.92,0,6.5
	S2.92,13,6.5,13c1.17,0,2.27-0.31,3.22-0.87l3.52,3.53c0.2,0.19,0.45,0.29,0.71,0.29s0.51-0.1,0.71-0.29
	C15.05,15.27,15.05,14.63,14.66,14.24z M2,6.5C2,4.02,4.02,2,6.5,2S11,4.02,11,6.5S8.98,11,6.5,11S2,8.98,2,6.5z"/>
</svg>
