<?xml version="1.0" encoding="utf-8"?>
<!-- Generator: Adobe Illustrator 22.0.1, SVG Export Plug-In . SVG Version: 6.00 Build 0)  -->
<svg version="1.1" id="Слой_1" xmlns="http://www.w3.org/2000/svg" xmlns:xlink="http://www.w3.org/1999/xlink" x="0px" y="0px"
	 viewBox="0 0 11 8" style="enable-background:new 0 0 11 8;" xml:space="preserve">
<path style="fill:#0CCE7D;" d="M10.19,1.41c0,0.26-0.09,0.52-0.29,0.71L4.95,7.07C4.66,7.36,4.22,7.44,3.86,7.29
	C3.75,7.24,3.64,7.17,3.54,7.07H3.53C3.52,7.05,3.5,7.04,3.49,7.02L0.71,4.24c-0.39-0.39-0.39-1.02,0-1.41
	c0.19-0.2,0.45-0.29,0.71-0.29c0.25,0,0.5,0.09,0.7,0.29l2.12,2.12l4.24-4.24c0.39-0.39,1.03-0.39,1.42,0
	C10.1,0.91,10.19,1.16,10.19,1.41z"/>
</svg>
