<?xml version="1.0" encoding="utf-8"?>
<!-- Generator: Adobe Illustrator 22.0.1, SVG Export Plug-In . SVG Version: 6.00 Build 0)  -->
<svg version="1.1" id="Слой_1" xmlns="http://www.w3.org/2000/svg" xmlns:xlink="http://www.w3.org/1999/xlink" x="0px" y="0px"
	 viewBox="0 0 31 24" style="enable-background:new 0 0 31 24;" xml:space="preserve">
<path style="fill:#3BC6E4;" d="M20.161,21.61l-1.977-1.163c0,0-0.626-0.308-0.626-1.128c0-0.821,1.351-4.377,1.351-4.377
	l2.471-1.368l0.791-0.068l2.141,1.231"/>
<path style="fill:#262626;" d="M22.701,13.507l2.286,1.186l-0.327,0.554l-2.107-1.093l-0.639,0.05l-2.363,1.181
	c-0.004,0.01-0.009,0.021-0.014,0.033c-0.038,0.091-0.091,0.222-0.156,0.381c-0.129,0.319-0.302,0.752-0.473,1.208
	c-0.172,0.457-0.343,0.934-0.471,1.341c-0.132,0.424-0.203,0.728-0.203,0.865c0,0.288,0.119,0.476,0.234,0.595
	c0.059,0.061,0.118,0.105,0.161,0.132c0.021,0.014,0.038,0.023,0.048,0.028c0.004,0.002,0.007,0.004,0.009,0.005l0.008,0.004
	l2.038,1.082l-0.333,0.551l-2.02-1.073c-0.001-0.001-0.002-0.001-0.003-0.002c-0.008-0.004-0.019-0.009-0.031-0.016
	c-0.025-0.013-0.059-0.032-0.097-0.057c-0.077-0.05-0.179-0.125-0.281-0.23c-0.206-0.213-0.408-0.548-0.408-1.02
	c0-0.243,0.103-0.635,0.23-1.043c0.132-0.424,0.308-0.913,0.482-1.374c0.174-0.462,0.349-0.9,0.479-1.222
	c0.065-0.161,0.12-0.293,0.158-0.386c0.019-0.046,0.034-0.082,0.044-0.107l0.012-0.028l0.004-0.01c0,0,0,0,0.315,0.116l-0.315-0.116
	l0.046-0.109l2.705-1.352L22.701,13.507z M18.686,19.974C18.687,19.974,18.687,19.974,18.686,19.974L18.686,19.974z"/>
<path style="fill:#FFFFFF;" d="M23.698,14.182c1.577,0,2.348,1.655,1.778,3.714c-0.57,2.06-2.348,3.714-3.925,3.714
	s-2.348-1.655-1.778-3.714C20.343,15.836,22.121,14.182,23.698,14.182z"/>
<path style="fill:#262626;" d="M21.248,15.851c-0.67,0.631-1.224,1.506-1.492,2.474c-0.27,0.975-0.211,1.816,0.063,2.393
	c0.267,0.561,0.741,0.893,1.392,0.893c0.676,0,1.438-0.359,2.112-0.994c0.67-0.631,1.224-1.506,1.492-2.474
	c0.27-0.976,0.211-1.816-0.063-2.393c-0.267-0.561-0.741-0.893-1.392-0.893C22.684,14.857,21.923,15.216,21.248,15.851z
	 M20.789,15.358c0.752-0.708,1.669-1.176,2.571-1.176c0.926,0,1.627,0.496,1.998,1.277c0.363,0.765,0.405,1.781,0.104,2.866
	c-0.303,1.092-0.924,2.074-1.68,2.786c-0.752,0.707-1.669,1.176-2.571,1.176c-0.926,0-1.627-0.496-1.998-1.277
	c-0.363-0.765-0.405-1.781-0.104-2.866C19.412,17.051,20.033,16.069,20.789,15.358z"/>
<path style="fill:#FFFFFF;" d="M22.923,16.209c0.674-0.038,0.91,0.848,0.539,1.967c-0.371,1.118-1.179,2.044-1.819,2.083
	c-0.64,0.039-0.91-0.848-0.539-1.967C21.474,17.173,22.283,16.248,22.923,16.209z"/>
<path style="fill:#262626;" d="M23.479,16.905c-0.041-0.029-0.102-0.053-0.201-0.048c-0.199,0.01-0.486,0.148-0.79,0.44
	c-0.295,0.283-0.564,0.674-0.732,1.101c-0.168,0.427-0.174,0.769-0.104,0.976c0.034,0.101,0.082,0.159,0.125,0.191
	c0.041,0.03,0.098,0.051,0.185,0.047c0.199-0.01,0.486-0.148,0.79-0.44c0.295-0.283,0.563-0.674,0.732-1.101
	c0.17-0.431,0.182-0.774,0.116-0.98C23.568,16.992,23.522,16.936,23.479,16.905z M24.244,16.898
	c0.127,0.393,0.072,0.893-0.129,1.402c-0.202,0.512-0.523,0.981-0.886,1.329c-0.353,0.34-0.79,0.607-1.232,0.629
	c-0.233,0.012-0.45-0.048-0.628-0.178c-0.175-0.128-0.292-0.308-0.359-0.507c-0.132-0.392-0.087-0.893,0.115-1.406
	c0.202-0.512,0.523-0.981,0.886-1.329c0.353-0.34,0.79-0.607,1.232-0.629l0.001,0c0.237-0.011,0.458,0.046,0.64,0.177
	C24.063,16.515,24.179,16.698,24.244,16.898z"/>
<path style="fill:#3BC6E4;" d="M1.351,14.212v-4.57c10.662-2.649,16.145-4.04,16.28-4.139c0.169-0.132,0.203-0.199,0.575-1.821
	c0.101-0.53,0.271-1.258,0.372-1.656l11.136,5.232v4.603c-0.541,0.298-2.268,1.291-4.265,2.417v-0.033l-0.034-0.033l-0.034-0.066
	c-0.338-0.331-0.914-0.861-1.861-0.861c-0.575,0-1.185,0.199-1.862,0.596c-1.963,1.225-2.539,2.815-2.843,3.643
	c-0.068,0.166-0.135,0.397-0.203,0.464c-2.572,1.424-4.739,2.616-5.314,2.947L1.351,14.212z"/>
<path style="fill:#262626;" d="M19.153,2.301l10.56,5.09v4.31c-0.643,0.373-2.132,1.256-3.858,2.24
	c-0.372-0.339-1.015-0.916-2.031-0.916c-0.643,0-1.32,0.238-2.065,0.679c-2.065,1.323-2.674,3.02-2.978,3.903
	c-0.034,0.102-0.102,0.271-0.135,0.339c-2.335,1.323-4.298,2.443-5.077,2.851L2.027,14.11V9.902
	c15.839-4.038,16.009-4.14,16.11-4.208h0.034l0.034-0.034c0.271-0.204,0.305-0.373,0.677-2.07
	C18.95,3.217,19.052,2.708,19.153,2.301z M18.747,1.351c-0.169,0-0.812,3.631-0.948,3.733C17.596,5.219,1.351,9.359,1.351,9.359
	v5.158l12.252,7.093c0,0,2.437-1.357,5.517-3.122c0.406-0.237,0.44-2.545,3.046-4.208c0.677-0.407,1.218-0.577,1.692-0.577
	c0.88,0,1.388,0.543,1.692,0.848c0.068,0.102,0.169,0.17,0.271,0.17h0.034c2.471-1.391,4.535-2.613,4.535-2.613V6.95L18.747,1.351z"
	/>
<path style="fill:#FFFFFF;" d="M14.182,20.26l4.653-2.625c0,0,0.703-2.724,3.113-4.102c2.41-1.575,3.983,0.23,3.983,0.23
	l3.749-2.067l0.034-4.266l-15.499,8.598L14.182,20.26z"/>
<path style="fill:#3BC6E4;" d="M2.026,9.331C4.317,8.017,17.69,0.242,17.959,0.069C18.06,0.035,18.127,0,18.161,0l11.554,6.843
	l-16.101,9.365L2.026,9.331z"/>
<path style="fill:#262626;" d="M18.099,0.693l10.94,6.173l-15.465,8.55L2.634,9.243C5.909,7.427,17.829,0.825,18.099,0.693z
	 M18.132,0c-0.135,0-0.27,0.033-0.371,0.132C17.457,0.297,1.519,9.111,1.519,9.111C1.452,9.144,1.384,9.21,1.351,9.276l12.223,6.932
	l16.815-9.342L18.267,0C18.234,0,18.2,0,18.132,0z"/>
<path style="fill:#3BC6E4;" d="M18.233,4.727l7.429,4.727L18.233,4.727z"/>
<path style="fill:#262626;" d="M25.304,9.455L17.559,5.28l0.358-0.553l7.746,4.174L25.304,9.455z"/>
<path style="fill:#3BC6E4;" d="M18.234,4.727L6.078,11.48L18.234,4.727z"/>
<path style="fill:#262626;" d="M6.078,11.568l11.823-6.841l0.333,0.588L6.411,12.156L6.078,11.568z"/>
<path style="fill:#262626;" d="M2.444,20.214l2.341-4.007l0.617,0.313l-2.437,4.17l-2.2,1.166l-0.064,1.78L0,23.614l0.077-2.145
	L2.444,20.214z"/>
<path style="fill:#3BC6E4;" d="M7.428,17.558L2.701,20.26L7.428,17.558z"/>
<path style="fill:#262626;" d="M2.701,20.357l4.425-2.799l0.302,0.578l-4.425,2.799L2.701,20.357z"/>
<path style="fill:#3BC6E4;" d="M10.13,18.909L2.701,20.26L10.13,18.909z"/>
<path style="fill:#262626;" d="M2.701,20.3l7.303-1.391l0.125,0.635l-7.303,1.391L2.701,20.3z"/>
<path style="fill:#262626;" d="M13.507,20.935v-4.727h0.675v4.727H13.507z"/>
<path style="fill:#262626;" d="M17.559,4.727V0h0.675v4.727H17.559z"/>
</svg>
