<?xml version="1.0" encoding="utf-8"?>
<!-- Generator: Adobe Illustrator 22.0.1, SVG Export Plug-In . SVG Version: 6.00 Build 0)  -->
<svg version="1.1" id="Слой_1" xmlns="http://www.w3.org/2000/svg" xmlns:xlink="http://www.w3.org/1999/xlink" x="0px" y="0px"
	 viewBox="0 0 29 30" style="enable-background:new 0 0 29 30;" xml:space="preserve">
<path style="fill:#3BC6E4;" d="M12.388,28.984l-1.322-0.778c0,0-0.655-0.121-0.655-0.67s0.983-3.208,0.983-3.208l1.809-0.718
	l0.529-0.046l1.432,0.823"/>
<path style="fill:#FFFFFF;" d="M14.753,24.016c1.054,0,1.57,1.106,1.189,2.484c-0.381,1.377-1.57,2.484-2.625,2.484
	c-1.054,0-1.57-1.106-1.189-2.484C12.51,25.123,13.699,24.016,14.753,24.016z"/>
<path style="fill:none;stroke:#262626;stroke-width:0.7;" d="M11.76,25.119l1.266-1.443l1.66,0.66l-2.389,4.451
	c-0.472-0.289-1.146-0.752-1.564-1.039c-0.017-0.012-0.034-0.023-0.05-0.034c-0.032-0.323-0.028-0.7,0.005-0.944L11.76,25.119z"/>
<path style="fill:#F7F7F7;stroke:#262626;stroke-width:0.7;" d="M13.049,25.058c0.463-0.435,0.995-0.691,1.479-0.691
	c0.475,0,0.826,0.245,1.02,0.654c0.197,0.415,0.234,1.004,0.049,1.673c-0.184,0.666-0.565,1.267-1.026,1.701
	c-0.463,0.435-0.995,0.691-1.479,0.691c-0.475,0-0.826-0.245-1.02-0.654c-0.197-0.415-0.234-1.004-0.049-1.673
	C12.207,26.093,12.588,25.491,13.049,25.058z"/>
<path style="fill:#FFFFFF;" d="M14.234,25.372c0.451-0.026,0.608,0.567,0.361,1.315c-0.248,0.748-0.788,1.367-1.217,1.393
	c-0.428,0.026-0.608-0.567-0.36-1.315C13.266,26.017,13.806,25.398,14.234,25.372z"/>
<path style="fill:#262626;" d="M14.606,25.837c-0.027-0.019-0.068-0.035-0.135-0.032c-0.133,0.007-0.325,0.099-0.528,0.294
	c-0.197,0.189-0.377,0.45-0.49,0.736c-0.113,0.285-0.116,0.514-0.07,0.653c0.023,0.067,0.055,0.106,0.084,0.128
	c0.027,0.02,0.065,0.034,0.124,0.031c0.133-0.007,0.325-0.099,0.529-0.294c0.197-0.189,0.377-0.45,0.49-0.736
	c0.114-0.288,0.122-0.517,0.077-0.655C14.666,25.895,14.635,25.858,14.606,25.837z M15.118,25.833
	c0.085,0.263,0.048,0.597-0.086,0.937c-0.135,0.343-0.35,0.656-0.592,0.889c-0.236,0.227-0.528,0.406-0.824,0.421
	c-0.156,0.008-0.301-0.032-0.42-0.119c-0.117-0.086-0.195-0.206-0.24-0.339c-0.089-0.262-0.058-0.597,0.077-0.94
	c0.135-0.343,0.35-0.656,0.592-0.889c0.236-0.227,0.528-0.406,0.824-0.421h0.001c0.158-0.008,0.306,0.031,0.428,0.118
	C14.997,25.577,15.074,25.699,15.118,25.833z"/>
<path style="fill:#3BC6E4;" d="M22.946,23.27l-1.322-0.777c0,0-0.655-0.121-0.655-0.67c0-0.549,0.983-3.208,0.983-3.208l1.809-0.718
	l0.529-0.046l1.432,0.823"/>
<path style="fill:#FFFFFF;" d="M25.31,18.303c1.054,0,1.57,1.106,1.189,2.484c-0.381,1.377-1.57,2.484-2.625,2.484
	c-1.054,0-1.57-1.106-1.189-2.484C23.066,19.409,24.255,18.303,25.31,18.303z"/>
<path style="fill:none;stroke:#262626;stroke-width:0.7;" d="M22.317,19.405l1.266-1.443l1.66,0.66l-2.389,4.451
	c-0.472-0.289-1.146-0.752-1.564-1.039c-0.017-0.012-0.034-0.023-0.05-0.034c-0.032-0.323-0.029-0.7,0.005-0.944L22.317,19.405z"/>
<path style="fill:#F7F7F7;stroke:#262626;stroke-width:0.7;" d="M23.605,19.344c0.463-0.435,0.995-0.691,1.479-0.691
	c0.475,0,0.826,0.245,1.02,0.654c0.197,0.415,0.234,1.004,0.049,1.673c-0.185,0.666-0.565,1.267-1.026,1.701
	c-0.463,0.435-0.995,0.691-1.479,0.691c-0.475,0-0.826-0.245-1.02-0.654c-0.197-0.415-0.234-1.004-0.049-1.673
	C22.764,20.379,23.144,19.778,23.605,19.344z"/>
<path style="fill:#FFFFFF;" d="M24.793,19.658c0.451-0.026,0.608,0.567,0.36,1.315c-0.248,0.748-0.788,1.367-1.217,1.393
	c-0.428,0.026-0.608-0.567-0.36-1.315C23.824,20.303,24.365,19.684,24.793,19.658z"/>
<path style="fill:#262626;" d="M25.165,20.124c-0.027-0.02-0.068-0.035-0.135-0.032c-0.133,0.007-0.325,0.099-0.528,0.294
	c-0.197,0.189-0.377,0.45-0.49,0.736c-0.113,0.285-0.116,0.514-0.07,0.653c0.023,0.067,0.055,0.106,0.084,0.128
	c0.027,0.02,0.065,0.034,0.124,0.031c0.133-0.007,0.325-0.099,0.529-0.294c0.197-0.189,0.377-0.45,0.49-0.736
	c0.114-0.288,0.122-0.517,0.077-0.655C25.225,20.182,25.194,20.144,25.165,20.124z M25.676,20.119
	c0.085,0.263,0.048,0.597-0.086,0.937c-0.135,0.343-0.35,0.656-0.592,0.889c-0.236,0.227-0.528,0.406-0.824,0.421
	c-0.156,0.008-0.301-0.032-0.42-0.119c-0.117-0.086-0.195-0.206-0.24-0.339c-0.088-0.262-0.058-0.597,0.077-0.94
	c0.135-0.343,0.35-0.656,0.592-0.889c0.236-0.227,0.528-0.406,0.824-0.421h0c0.159-0.008,0.306,0.031,0.428,0.118
	C25.555,19.863,25.633,19.985,25.676,20.119z"/>
<path style="fill:#3BC6E4;stroke:#262626;" d="M13.229,16.046c-0.015,0.014-0.04,0.036-0.079,0.063c0,0,0,0-0.002,0.001
	c-0.008,0.005-0.044,0.028-0.122,0.074c-0.081,0.048-0.191,0.112-0.323,0.189c-0.264,0.153-0.615,0.354-0.998,0.572
	c-0.486,0.277-1.024,0.582-1.502,0.853V7.151c0.017-0.064,0.052-0.161,0.108-0.259c0.07-0.121,0.149-0.201,0.224-0.238
	c0.187-0.093,1.74-0.969,3.658-2.051c2.067-1.165,4.558-2.57,6.222-3.494l-0.189,11.011l-2.123,1.227
	c-0.2-0.196-0.527-0.446-0.959-0.554c-0.765-0.191-2.409,0.159-3.746,2.802l-0.017,0.033l-0.012,0.035
	C13.336,15.769,13.271,15.938,13.229,16.046z"/>
<path style="fill:#3BC6E4;" d="M20.608,1.601l-0.699,0.342c-1.692,1.691-5.442,5.517-6.188,6.504
	c-0.933,1.233-1.173,2.978-0.812,3.82c0.361,0.842,3.46,3.67,3.881,3.941c0.421,0.271,0.933,0.181,2.256,0
	c1.324-0.181,2.497-1.504,3.159-2.407c0.529-0.722,5.597-7.949,5.477-8.571L21.398,2.11L20.608,1.601z"/>
<path style="fill:#FFFFFF;stroke:#262626;" d="M20.894,20.594c-0.015,0.014-0.04,0.036-0.079,0.063c0,0,0,0-0.002,0.001
	c-0.008,0.005-0.044,0.028-0.122,0.074c-0.081,0.048-0.191,0.112-0.323,0.189c-0.264,0.153-0.615,0.354-0.998,0.572
	c-0.486,0.277-1.023,0.582-1.502,0.853V11.698c0.017-0.064,0.052-0.161,0.108-0.259c0.07-0.121,0.149-0.201,0.224-0.238
	c0.169-0.085,1.471-0.826,3.151-1.783c2.166-1.233,4.959-2.824,6.763-3.827v10.893l-2.35,1.407c-0.2-0.195-0.526-0.443-0.956-0.551
	c-0.765-0.191-2.409,0.159-3.746,2.802l-0.017,0.033l-0.012,0.035C21.001,20.316,20.936,20.485,20.894,20.594z"/>
<path style="fill:#3BC6E4;" d="M8.534,23.593l-0.167,4.248l-0.722,0.167l-5.664-3.554l-1.388-1.166v-3.804l0.265-1.104l3.11-1.999
	c0.213-1.333,0.661-4.042,0.75-4.22c0.089-0.178,0.796-0.759,1.138-1.027l4.637-2.527l7.83,4.609l-0.361,0.75l-5.47,2.749
	c-0.111,0.583-0.333,1.788-0.333,1.944c0,0.156-0.629,2.212-0.944,3.221L8.534,23.593z"/>
<path style="fill:none;stroke:#262626;" d="M3.06,21.534c-0.015,0.014-0.04,0.036-0.078,0.063c0,0-0.002,0.001-0.007,0.005
	l-0.022,0.014c-0.019,0.012-0.044,0.028-0.074,0.047c-0.061,0.039-0.143,0.089-0.241,0.149c-0.196,0.12-0.457,0.277-0.749,0.452
	c-0.351,0.21-0.747,0.443-1.133,0.668v-4.006c0.009-0.054,0.036-0.16,0.096-0.277c0.066-0.129,0.161-0.247,0.287-0.326
	c0.426-0.269,1.404-0.833,2.196-1.252l0.044-0.023l0.038-0.031c0.071-0.058,0.174-0.153,0.273-0.263
	c0.09-0.101,0.216-0.258,0.284-0.44C4,16.236,4.021,16.121,4.033,16.049c0.017-0.097,0.037-0.223,0.058-0.369
	c0.043-0.293,0.096-0.676,0.15-1.092c0.109-0.826,0.228-1.785,0.305-2.422c0.001-0.005,0.004-0.016,0.009-0.032
	c0.008-0.022,0.019-0.049,0.034-0.076c0.031-0.056,0.068-0.097,0.106-0.122c0.117-0.074,1.094-0.625,2.29-1.298
	c0.994-0.56,2.14-1.205,3.068-1.733v8.707l-2.118,1.224c-0.2-0.196-0.527-0.446-0.959-0.554c-0.765-0.191-2.409,0.159-3.746,2.802
	l-0.017,0.033l-0.012,0.035C3.168,21.256,3.103,21.426,3.06,21.534z"/>
<path style="fill:#3BC6E4;" d="M10.125,9.409l-4.497,2.597c-0.114,0.224-0.342,0.685-0.342,0.741c0,0.056,0.06,0.549,0.09,0.789
	l-0.599,2.896c-0.518,0.71-1.593,2.17-1.748,2.325c-0.155,0.155-1.015,2.027-1.788,3.026v1.378l-0.165,0.48l7.961-3.627l2.034-2.005
	l-0.18-8.12L10.125,9.409z"/>
<path style="fill:none;stroke:#262626;" d="M0.509,23.379l7.951,4.702"/>
<path style="fill:none;stroke:#262626;" d="M3.582,16.369l8.187,4.824"/>
<path style="fill:none;stroke:#262626;" d="M4.636,11.852l8.322,4.989"/>
<path style="fill:none;stroke:#262626;" d="M10.31,8.955l7.797,4.694"/>
<path style="fill:none;stroke:#262626;" d="M10.555,6.831l7.797,4.694"/>
<path style="fill:none;stroke:#262626;" d="M20.467,0.967l7.834,4.631"/>
<path style="fill:#FFFFFF;stroke:#262626;" d="M10.854,26.244c-0.015,0.014-0.041,0.036-0.079,0.063
	c-0.125,0.09-1.047,0.733-1.998,1.321v-3.991c0.009-0.054,0.036-0.16,0.096-0.277c0.066-0.129,0.161-0.247,0.287-0.326l-0.267-0.423
	l0.267,0.423c0.155-0.098,0.33-0.217,0.521-0.348c0.416-0.284,0.909-0.62,1.445-0.904l0.044-0.023l0.039-0.031
	c0.071-0.058,0.174-0.153,0.273-0.263c0.09-0.101,0.216-0.258,0.284-0.44c0.029-0.077,0.049-0.192,0.062-0.265
	c0.017-0.097,0.037-0.223,0.058-0.369c0.043-0.292,0.096-0.676,0.151-1.092c0.109-0.826,0.228-1.785,0.305-2.422
	c0.001-0.005,0.004-0.016,0.009-0.032c0.008-0.023,0.019-0.049,0.034-0.076c0.031-0.056,0.068-0.097,0.106-0.122
	c0.207-0.132,3.413-1.942,5.358-3.014v8.689l-2.119,1.224c-0.2-0.196-0.527-0.446-0.959-0.554c-0.765-0.191-2.409,0.159-3.746,2.802
	l-0.017,0.033l-0.012,0.035C10.961,25.967,10.896,26.136,10.854,26.244z"/>
<path style="fill:#3BC6E4;" d="M10.828,18.085l4.968,3.161L10.828,18.085z"/>
<path style="fill:#3BC6E4;" d="M10.829,18.085L2.7,22.601L10.829,18.085z"/>
<path style="fill:#3BC6E4;" d="M3.604,26.665l-3.161,1.806L3.604,26.665z"/>
</svg>
