<?xml version="1.0" encoding="utf-8"?>
<!-- Generator: Adobe Illustrator 22.0.1, SVG Export Plug-In . SVG Version: 6.00 Build 0)  -->
<svg version="1.1" id="Слой_1" xmlns="http://www.w3.org/2000/svg" xmlns:xlink="http://www.w3.org/1999/xlink" x="0px" y="0px"
	 viewBox="0 0 22 25" style="enable-background:new 0 0 22 25;" xml:space="preserve">
<path style="fill:#3BC6E4;" d="M7.744,23.636c-0.891-0.479-3.496-1.916-5.313-2.806c-2.297-1.677-2.982-4.859-1.988-8.931
	C1.917,5.911,6.785,0.881,11.344,0.675c0.651,0.068,4.319,1.471,6.89,2.498L7.744,23.636z"/>
<path style="fill:#262626;" d="M11.172,1.337c0.558,0.066,3.416,1.158,6.142,2.25L7.592,22.743
	c-1.018-0.562-3.186-1.753-4.762-2.548c-2.069-1.555-2.693-4.466-1.741-8.271C2.469,6.3,6.968,1.569,11.172,1.337z M11.205,0.675
	c-4.5,0.199-9.328,5.161-10.773,11.084c-1.018,4.202-0.197,7.378,2.036,8.999c2.135,1.059,5.419,2.878,5.419,2.878l10.346-20.38
	C18.234,3.256,12.092,0.741,11.205,0.675z"/>
<path style="fill:#FFFFFF;" d="M10.368,24.311c-1.566,0-2.958-0.598-3.933-1.761c-1.566-1.794-2.088-4.652-1.427-7.842
	C6.191,8.893,10.82,3.842,15.379,3.41c0.209-0.033,0.383-0.033,0.592-0.033c1.566,0,2.958,0.598,3.933,1.761
	c1.566,1.794,2.088,4.652,1.427,7.842c-1.183,5.815-5.812,10.866-10.371,11.298C10.75,24.311,10.576,24.311,10.368,24.311z"/>
<path style="fill:#262626;" d="M15.828,2.701v0.664c1.405,0,2.642,0.564,3.545,1.66c1.438,1.726,1.906,4.481,1.304,7.569
	c-1.104,5.676-5.451,10.589-9.665,11.021c-0.167,0.033-0.368,0.033-0.535,0.033c-1.405,0-2.642-0.564-3.545-1.66
	c-1.438-1.726-1.906-4.482-1.304-7.569C6.732,8.743,11.046,3.83,15.293,3.398c0.167-0.033,0.368-0.033,0.535-0.033V2.701z
	 M15.828,2.701c-0.201,0-0.401,0-0.602,0.033C10.745,3.166,6.13,8.344,4.993,14.286c-1.104,5.676,1.338,10.025,5.484,10.025
	c0.201,0,0.401,0,0.602-0.033c4.515-0.432,9.096-5.61,10.267-11.552C22.449,7.05,20.008,2.701,15.828,2.701z"/>
<path style="fill:#FFFFFF;" d="M11.137,18.909c-0.479,0-0.855-0.207-1.129-0.551c-0.616-0.793-0.718-2.24-0.308-3.893
	c0.718-2.86,2.771-5.375,4.55-5.651c0.103,0,0.205-0.034,0.274-0.034c0.479,0,0.855,0.207,1.129,0.551
	c0.616,0.793,0.718,2.24,0.308,3.893c-0.718,2.86-2.771,5.375-4.55,5.651C11.308,18.909,11.206,18.909,11.137,18.909z"/>
<path style="fill:#262626;" d="M14.865,9.424c0.341,0,0.648,0.129,0.852,0.419c0.545,0.645,0.613,1.936,0.239,3.387
	c-0.682,2.516-2.624,4.807-4.26,5.065c-0.068,0-0.17,0.032-0.239,0.032c-0.341,0-0.648-0.129-0.852-0.419
	c-0.545-0.645-0.613-1.936-0.239-3.387c0.682-2.516,2.624-4.807,4.26-5.065C14.694,9.424,14.797,9.424,14.865,9.424z M14.865,8.779
	c-0.102,0-0.204,0-0.341,0.032c-1.909,0.258-4.056,2.742-4.805,5.517c-0.716,2.613,0.068,4.581,1.772,4.581
	c0.102,0,0.205,0,0.341-0.032c1.908-0.258,4.056-2.742,4.805-5.517C17.319,10.747,16.535,8.779,14.865,8.779z"/>
</svg>
