<?xml version="1.0" standalone="no"?>
<!DOCTYPE svg PUBLIC "-//W3C//DTD SVG 20010904//EN"
 "http://www.w3.org/TR/2001/REC-SVG-20010904/DTD/svg10.dtd">
<svg version="1.0" xmlns="http://www.w3.org/2000/svg"
 width="400.000000pt" height="400.000000pt" viewBox="0 0 400.000000 400.000000"
 preserveAspectRatio="xMidYMid meet">
<metadata>
Created by potrace 1.11, written by Peter Selinger 2001-2013
</metadata>
<g transform="translate(0.000000,400.000000) scale(0.100000,-0.100000)"
fill="#000000" stroke="none">
<path d="M827 3984 c-399 -72 -711 -371 -803 -769 -18 -76 -19 -144 -19 -1220
l0 -1140 22 -88 c96 -374 383 -656 758 -743 76 -18 144 -19 1215 -19 1071 0
1139 1 1215 19 375 87 662 369 758 743 l22 88 0 1145 0 1145 -22 88 c-101 396
-409 682 -808 752 -125 22 -2217 21 -2338 -1z m1971 -307 l52 -33 -26 -34
c-51 -69 -57 -88 -44 -135 11 -40 10 -48 -24 -123 -20 -44 -36 -89 -36 -101 0
-26 118 -148 208 -214 34 -25 90 -55 124 -66 126 -42 236 -140 299 -264 l39
-79 0 -139 c0 -76 5 -150 10 -165 6 -14 28 -47 51 -72 111 -127 167 -368 124
-537 -8 -33 -35 -101 -60 -152 -36 -74 -61 -107 -129 -177 -67 -67 -87 -94
-96 -128 -37 -152 -83 -239 -175 -333 -93 -94 -231 -154 -353 -155 -55 0 -88
-14 -192 -83 -127 -84 -138 -95 -149 -133 -27 -97 -135 -213 -224 -239 -76
-23 -179 -30 -218 -16 -19 7 -110 17 -204 22 -194 10 -252 24 -349 81 -149 88
-242 220 -278 395 -10 53 -23 104 -28 114 -6 9 -42 29 -82 44 -140 53 -224
113 -294 212 -49 68 -84 153 -84 205 0 60 -20 105 -84 192 -78 103 -106 173
-106 260 0 45 -8 83 -27 132 -24 61 -27 83 -27 194 -1 153 12 197 89 295 92
117 132 183 161 258 75 203 192 330 374 407 107 45 343 37 459 -15 65 -30 88
-31 121 -4 14 11 63 46 110 78 47 33 115 90 151 129 71 76 133 113 231 138 80
21 176 14 245 -16 29 -12 59 -20 68 -16 8 3 27 27 43 53 36 64 95 123 121 123
39 0 78 28 110 80 17 27 34 50 39 50 4 0 31 -15 60 -33z"/>
<path d="M2723 3638 c-29 -32 -35 -78 -10 -78 21 0 48 35 50 65 3 36 -14 41
-40 13z"/>
<path d="M2594 3531 c-28 -12 -66 -59 -113 -139 -46 -78 -53 -105 -29 -110 11
-2 33 20 67 70 97 139 96 138 151 138 28 0 50 3 50 8 0 24 -90 48 -126 33z"/>
<path d="M2090 3300 c-37 -12 -66 -31 -89 -57 -86 -98 -107 -117 -188 -171
-127 -83 -173 -145 -198 -264 -3 -15 -25 -50 -50 -78 -59 -66 -85 -119 -95
-193 -7 -44 -19 -74 -47 -114 -75 -109 -83 -125 -83 -181 0 -84 92 -338 127
-349 7 -3 34 25 61 62 54 74 128 205 115 205 -5 0 -30 -18 -57 -40 -26 -22
-50 -40 -52 -40 -13 0 28 54 93 124 40 44 85 105 100 135 15 31 27 57 28 59 1
1 29 -16 62 -38 33 -21 95 -54 139 -73 l79 -33 6 -64 c6 -70 23 -113 42 -108
7 2 23 26 37 53 34 69 40 167 12 221 -27 53 -91 111 -182 165 l-75 44 -102 0
c-57 0 -103 1 -103 2 0 6 78 35 116 43 63 14 140 -11 286 -91 136 -75 186 -94
221 -83 33 10 57 35 57 60 0 33 -79 132 -193 240 -134 127 -163 146 -238 153
-63 6 -77 21 -31 34 82 24 183 -29 345 -181 109 -103 164 -142 197 -142 6 0
22 11 35 25 47 46 29 104 -91 286 -90 136 -147 203 -194 227 -48 23 -40 36 14
21 48 -13 102 -63 168 -152 140 -193 162 -214 213 -201 86 22 59 134 -75 312
-133 178 -260 234 -410 182z"/>
<path d="M2627 3154 c-14 -15 -6 -58 20 -105 32 -59 48 -63 39 -10 -13 85 -39
135 -59 115z"/>
<path d="M1175 3039 c-76 -11 -135 -33 -206 -75 -57 -34 -86 -60 -77 -69 2 -3
36 6 74 19 76 27 186 45 169 29 -5 -6 -32 -16 -60 -22 -27 -7 -79 -26 -115
-43 -116 -56 -226 -192 -218 -271 l3 -31 68 61 c66 59 163 120 173 110 3 -3
-33 -37 -80 -76 -51 -43 -110 -105 -148 -156 -34 -47 -66 -85 -70 -85 -3 0
-10 9 -13 20 -3 11 -10 20 -15 20 -24 0 -74 -60 -107 -128 -37 -74 -38 -79
-38 -186 0 -115 17 -200 38 -193 7 2 14 31 17 68 l5 64 18 -67 c11 -37 34 -91
52 -120 38 -59 31 -73 -16 -33 -39 32 -50 24 -57 -43 -7 -78 20 -142 90 -218
33 -35 64 -61 69 -58 5 3 9 21 9 39 0 43 27 112 46 119 17 7 17 8 -1 -44 -19
-54 -19 -91 0 -116 21 -28 19 -43 -6 -37 -41 11 -49 -34 -24 -132 24 -90 68
-178 114 -224 67 -67 215 -131 304 -131 l39 0 -47 53 c-50 55 -117 148 -111
155 2 2 33 -26 68 -62 35 -36 69 -66 74 -66 10 0 68 172 105 315 10 39 19 97
19 130 0 43 7 76 25 113 14 30 25 61 25 69 0 8 -27 79 -60 157 -123 296 -128
392 -25 553 25 39 49 89 52 110 8 53 63 169 107 226 21 27 36 51 33 53 -2 2
-23 -3 -47 -11 -84 -29 -78 -9 11 35 32 17 66 41 75 55 16 24 16 27 -2 46 -54
60 -214 97 -339 78z"/>
<path d="M2804 2996 c-10 -26 12 -66 36 -66 26 0 25 9 -5 50 -21 28 -25 30
-31 16z"/>
<path d="M2983 2874 c-5 -15 3 -29 66 -113 23 -31 16 -27 -58 28 -101 75 -135
93 -164 89 -21 -3 -22 -9 -29 -143 -24 -488 -31 -602 -44 -705 -19 -151 -41
-223 -113 -363 l-59 -116 28 -90 c47 -152 193 -425 276 -519 l39 -44 62 42
c109 73 203 235 203 353 0 66 -27 46 -74 -57 -38 -82 -111 -184 -123 -172 -3
2 9 23 26 46 45 62 62 140 30 140 -18 0 -7 17 57 90 68 77 97 125 121 195 12
38 13 36 7 -42 -7 -96 -2 -101 63 -54 113 82 195 260 195 421 0 138 -43 243
-149 361 l-55 63 4 -70 c3 -48 16 -97 42 -163 48 -122 43 -148 -12 -49 -56
102 -68 106 -144 44 -44 -34 -61 -28 -29 12 12 15 33 51 48 81 34 71 30 163
-12 239 -34 62 -54 82 -125 122 l-55 31 50 -7 c68 -9 100 -27 161 -90 28 -30
56 -54 62 -54 5 0 15 14 21 31 46 132 -55 347 -203 434 -64 37 -106 48 -113
29z"/>
<path d="M2633 2648 c-12 -13 -30 -47 -41 -76 -11 -29 -41 -77 -65 -106 -25
-28 -59 -77 -77 -107 -17 -30 -63 -85 -100 -124 -100 -102 -139 -204 -140
-365 0 -60 -13 -91 -30 -74 -9 9 -19 55 -35 157 l-6 39 -42 -7 c-92 -15 -140
-38 -174 -83 -46 -60 -77 -168 -70 -242 9 -105 75 -208 161 -252 89 -45 216
-4 336 108 136 128 252 311 290 457 20 81 40 358 40 569 0 138 -6 150 -47 106z"/>
<path d="M1763 2213 c-40 -44 -173 -241 -199 -295 -9 -20 -14 -43 -11 -51 6
-17 105 -87 121 -87 6 0 -10 20 -34 45 l-43 44 111 185 c62 102 112 188 112
191 0 15 -27 0 -57 -32z"/>
<path d="M1512 1807 c-21 -10 -142 -177 -142 -197 0 -5 25 -21 55 -36 31 -14
65 -39 77 -55 12 -16 30 -29 40 -29 15 0 18 8 18 48 0 35 8 58 30 91 27 39 54
110 46 118 -4 4 -76 -96 -98 -136 -18 -33 -48 -42 -48 -15 0 9 13 42 30 73 16
31 34 68 39 83 18 48 -5 74 -47 55z"/>
<path d="M2464 1478 c-15 -18 -43 -67 -61 -108 -59 -130 -67 -142 -115 -196
-46 -50 -59 -74 -38 -74 35 0 144 -57 269 -140 171 -114 182 -120 213 -120 27
0 68 26 68 43 0 7 -32 62 -71 122 -112 174 -209 383 -209 450 0 29 -10 55 -20
55 -5 0 -21 -15 -36 -32z"/>
<path d="M1486 1408 c-25 -38 -76 -187 -102 -297 l-26 -103 24 -25 c13 -14 46
-37 73 -50 l50 -24 -59 6 c-33 4 -65 9 -73 12 -9 4 -13 -5 -13 -33 0 -60 19
-223 30 -266 12 -43 91 -130 159 -172 70 -45 241 -71 241 -37 0 5 -24 23 -52
39 -56 31 -93 67 -124 117 -17 27 -14 26 28 -12 25 -23 64 -51 86 -62 47 -24
162 -45 176 -31 16 16 -11 306 -39 410 -32 119 -96 251 -173 358 -67 94 -158
192 -178 192 -7 0 -20 -10 -28 -22z"/>
<path d="M1920 1106 c0 -9 6 -29 14 -44 45 -88 80 -254 92 -442 9 -137 20
-156 29 -48 16 186 -50 480 -119 537 -14 11 -16 11 -16 -3z"/>
</g>
</svg>
