<?xml version="1.0" encoding="UTF-8" standalone="no"?>
<svg
   xmlns:dc="http://purl.org/dc/elements/1.1/"
   xmlns:cc="http://creativecommons.org/ns#"
   xmlns:rdf="http://www.w3.org/1999/02/22-rdf-syntax-ns#"
   xmlns:svg="http://www.w3.org/2000/svg"
   xmlns="http://www.w3.org/2000/svg"
   viewBox="0 0 20 17.500267"
   height="17.500267"
   width="20"
   xml:space="preserve"
   id="svg2"
   version="1.1"><metadata
     id="metadata8"><rdf:RDF><cc:Work
         rdf:about=""><dc:format>image/svg+xml</dc:format><dc:type
           rdf:resource="http://purl.org/dc/dcmitype/StillImage" /></cc:Work></rdf:RDF></metadata><defs
     id="defs6"><clipPath
       id="clipPath18"
       clipPathUnits="userSpaceOnUse"><path
         id="path16"
         d="M 0,13.125 H 15 V 0 H 0 Z" /></clipPath></defs><g
     transform="matrix(1.3333333,0,0,-1.3333333,0,17.500267)"
     id="g10"><g
       id="g12"><g
         clip-path="url(#clipPath18)"
         id="g14"><g
           transform="translate(7.499,10.4946)"
           id="g20"><path
             id="path22"
             style="fill:#29ba00;fill-opacity:1;fill-rule:nonzero;stroke:none"
             d="M 0,0 C 0.276,0.328 0.546,0.641 0.807,0.96 1.143,1.372 1.508,1.745 1.961,2.031 3.239,2.84 4.907,2.818 6.087,1.953 6.898,1.358 7.351,0.546 7.472,-0.449 7.596,-1.477 7.315,-2.417 6.821,-3.305 6.315,-4.217 5.653,-5.013 4.951,-5.776 3.905,-6.911 2.774,-7.958 1.642,-9.002 1.154,-9.453 0.663,-9.899 0.172,-10.347 c -0.053,-0.049 -0.107,-0.096 -0.165,-0.148 -0.024,0.017 -0.046,0.029 -0.065,0.046 -1.479,1.347 -2.969,2.681 -4.367,4.114 -0.763,0.782 -1.492,1.596 -2.092,2.517 -0.433,0.666 -0.788,1.369 -0.916,2.161 -0.23,1.432 0.125,2.677 1.311,3.572 1.099,0.829 2.325,0.901 3.591,0.404 C -1.827,2.043 -1.283,1.557 -0.816,0.971 -0.556,0.645 -0.28,0.332 0,0" /></g></g></g></g></svg>