<svg width="173" height="57" viewBox="0 0 173 57" fill="none" xmlns="http://www.w3.org/2000/svg">
<path d="M8.8672 16.731V19H0.9128V16.731L2.8688 16.079V3.69104L0.9128 2.90864V0.743999L8.8672 0.613599V2.90864L6.9112 3.69104V16.079L8.8672 16.731ZM18.256 16.731V19H10.6928V16.731L12.6488 16.079V3.69104L10.6928 2.90864V0.743999L16.952 0.613599L23.9936 12.6626V3.69104L22.0898 2.90864V0.743999L29.5226 0.613599V2.90864L27.5666 3.69104V19H23.2112L16.2218 7.18576V16.079L18.256 16.731ZM37.481 19L32.2129 3.63888L30.4394 2.90864V0.743999L38.5242 0.613599V2.90864L36.5943 3.66496L38.9937 11.2021L39.8282 14.4099L40.6628 11.3325L43.2447 3.69104L41.2626 2.90864V0.743999L49.0606 0.613599V2.90864L47.1567 3.69104L41.6538 19H37.481ZM56.6894 3.69104V8.0464H61.9575V10.9152H56.6894V15.9486H61.3055L61.9054 13.784H64.3047V19H50.691V16.731L52.647 16.079V3.69104L50.691 2.90864V0.743999L56.6894 0.613599H63.9918V5.64704H61.5663L60.9143 3.69104H56.6894ZM69.8325 13.3406L70.2237 15.5314C70.9191 15.8965 71.7711 16.079 72.7795 16.079C73.6662 16.079 74.4138 15.8965 75.0224 15.5314C75.6309 15.1489 75.9352 14.6273 75.9352 13.9666C75.9352 13.4971 75.7178 13.0885 75.2832 12.7408C74.8485 12.3931 74.3008 12.1236 73.6401 11.9323C72.9968 11.7411 72.2927 11.489 71.5277 11.176C70.7626 10.8457 70.0498 10.4979 69.3891 10.1328C68.7458 9.75029 68.2068 9.19392 67.7721 8.46368C67.3375 7.71605 67.1201 6.83803 67.1201 5.8296C67.1201 4.07355 67.7287 2.71739 68.9457 1.76112C70.1802 0.787466 71.7798 0.30064 73.7445 0.30064C74.6138 0.30064 75.5266 0.387573 76.4829 0.56144C77.4391 0.735306 78.1781 0.909173 78.6997 1.08304L79.4821 1.34384L79.3517 6.0904H76.9523L76.3003 3.8736C75.5179 3.6128 74.7529 3.4824 74.0053 3.4824C73.1185 3.4824 72.4318 3.65627 71.9449 4.004C71.4755 4.35173 71.2408 4.79509 71.2408 5.33408C71.2408 5.80352 71.4581 6.21211 71.8928 6.55984C72.3274 6.90757 72.8664 7.18576 73.5097 7.3944C74.1704 7.58565 74.8746 7.83776 75.6222 8.15072C76.3872 8.46368 77.0914 8.80272 77.7347 9.16784C78.3954 9.53296 78.9431 10.0719 79.3777 10.7848C79.8124 11.4977 80.0297 12.3322 80.0297 13.2885C80.0297 15.1836 79.369 16.6702 78.0477 17.7482C76.7437 18.8087 75.0572 19.339 72.9881 19.339C72.1188 19.339 71.1973 19.2521 70.2237 19.0782C69.25 18.9218 68.4937 18.7566 67.9547 18.5827L67.1723 18.348V13.3406H69.8325ZM84.9984 19V16.731L87.1369 16.079V3.69104H84.6593L84.0073 6.16864H81.608V0.691839L96.7344 0.613599V6.16864H94.3089L93.6569 3.69104H91.1793V16.079L93.344 16.731V19H84.9984ZM105.383 16.731V19H97.95V16.731L99.906 16.079V3.69104L97.95 2.90864V0.743999L104.679 0.613599L108.591 9.29824L112.685 0.743999L118.944 0.613599V2.90864L117.067 3.69104V16.079L119.023 16.731V19H111.251V16.731L113.285 16.079V6.19472C112.972 7.01189 112.607 7.86384 112.19 8.75056C111.79 9.61989 111.329 10.5762 110.807 11.6194C110.303 12.6452 109.912 13.4537 109.634 14.0448L106.817 14.1752L103.818 7.99424L103.375 6.63808V16.079L105.383 16.731ZM127.289 3.69104V8.0464H132.557V10.9152H127.289V15.9486H131.905L132.505 13.784H134.904V19H121.29V16.731L123.246 16.079V3.69104L121.29 2.90864V0.743999L127.289 0.613599H134.591V5.64704H132.166L131.514 3.69104H127.289ZM144.683 16.731V19H137.12V16.731L139.076 16.079V3.69104L137.12 2.90864V0.743999L143.379 0.613599L150.42 12.6626V3.69104L148.517 2.90864V0.743999L155.949 0.613599V2.90864L153.993 3.69104V19H149.638L142.649 7.18576V16.079L144.683 16.731ZM160.335 19V16.731L162.474 16.079V3.69104H159.996L159.344 6.16864H156.945V0.691839L172.071 0.613599V6.16864H169.646L168.994 3.69104H166.516V16.079L168.681 16.731V19H160.335ZM1.0432 50V48.4352L3.26 47.9136V33.8304L1.0432 33.3088V31.8744L5.9984 31.744H8.7368C10.6667 31.744 12.1446 32.2221 13.1704 33.1784C14.2136 34.1347 14.7352 35.4387 14.7352 37.0904C14.7352 39.0899 14.118 40.6112 12.8835 41.6544C11.6665 42.6976 9.93648 43.2192 7.6936 43.2192H5.9984V47.9136L8.2152 48.4352V50H1.0432ZM5.9984 33.8304V41.1328H7.6936C10.5624 41.1328 11.9968 39.9157 11.9968 37.4816C11.9968 36.4036 11.7012 35.5256 11.1101 34.8475C10.5189 34.1694 9.68437 33.8304 8.6064 33.8304H5.9984ZM20.7295 36.1776L20.9642 38.0814C22.2509 36.6383 23.5636 35.9168 24.9023 35.9168C25.6152 35.9168 26.302 36.0211 26.9626 36.2298L27.2495 36.308L27.1191 40.0896H25.4239L25.0327 38.1336C23.5375 38.1336 22.2769 38.8117 21.2511 40.1678V47.9136L23.8591 48.5656V50H16.4263V48.5656L18.6431 47.9136V38.264L16.4263 37.7424V36.308L20.7295 36.1776ZM28.5495 43.2974C28.5495 42.1847 28.7059 41.1763 29.0189 40.2722C29.3492 39.3507 29.81 38.5683 30.4011 37.925C30.9923 37.2817 31.6877 36.7861 32.4875 36.4384C33.3047 36.0907 34.2001 35.9168 35.1738 35.9168C37.1211 35.9168 38.6337 36.534 39.7117 37.7685C40.7897 39.0029 41.3287 40.7155 41.3287 42.9062C41.3287 43.9842 41.1722 44.9753 40.8592 45.8794C40.5463 46.7661 40.1029 47.5398 39.5291 48.2005C38.9728 48.8438 38.286 49.348 37.4688 49.7131C36.669 50.0782 35.7736 50.2608 34.7826 50.2608C32.8005 50.2608 31.2618 49.6697 30.1664 48.4874C29.0884 47.3051 28.5495 45.5751 28.5495 43.2974ZM35.0695 38.0032C32.5484 38.0032 31.2879 39.6984 31.2879 43.0888C31.2879 46.4792 32.5049 48.1744 34.9391 48.1744C36.2083 48.1744 37.1298 47.7397 37.7035 46.8704C38.2947 46.0011 38.5903 44.6971 38.5903 42.9584C38.5903 39.6549 37.4167 38.0032 35.0695 38.0032ZM47.4656 36.1776L47.6742 37.6381C48.8913 36.4906 50.2127 35.9168 51.6384 35.9168C53.4814 35.9168 54.8723 36.5253 55.8112 37.7424C56.7675 38.9421 57.2456 40.6547 57.2456 42.8802C57.2456 43.9581 57.0978 44.9492 56.8022 45.8533C56.5241 46.7574 56.0894 47.5398 55.4982 48.2005C54.9071 48.8438 54.1682 49.348 53.2814 49.7131C52.4121 50.0782 51.3863 50.2608 50.204 50.2608C49.4738 50.2608 48.6914 50.1391 47.8568 49.8957V54.0424L50.5952 54.564V55.9984H43.1624V54.564L45.2488 54.0424V38.264L43.032 37.7424V36.308L47.4656 36.1776ZM47.8568 39.8288V47.6528C48.3958 48.0005 49.3086 48.1744 50.5952 48.1744C53.2032 48.1744 54.5072 46.4357 54.5072 42.9584C54.5072 41.4284 54.229 40.22 53.6726 39.3333C53.1163 38.4466 52.2643 38.0032 51.1168 38.0032C50.4561 38.0032 49.8302 38.1597 49.239 38.4726C48.6653 38.7682 48.2045 39.2203 47.8568 39.8288ZM71.2045 43.4278L62.2069 43.48C62.2069 44.9057 62.546 46.0445 63.224 46.8965C63.9195 47.7484 64.841 48.1744 65.9885 48.1744C66.371 48.1744 66.7535 48.1396 67.136 48.0701C67.5185 48.0005 67.875 47.9136 68.2053 47.8093C68.553 47.705 68.866 47.5919 69.1442 47.4702C69.4224 47.3311 69.6571 47.2007 69.8484 47.079L70.37 46.74L71.2828 48.0962C70.6916 48.5656 70.1439 48.9394 69.6397 49.2176C69.1529 49.4784 68.5704 49.7218 67.8924 49.9478C67.2317 50.1565 66.5101 50.2608 65.7277 50.2608C63.6761 50.2608 62.12 49.6436 61.0594 48.4091C59.9988 47.1573 59.4685 45.4534 59.4685 43.2974C59.4685 42.2195 59.625 41.2284 59.938 40.3243C60.2509 39.4202 60.6856 38.6465 61.242 38.0032C61.8157 37.3425 62.4938 36.8296 63.2762 36.4645C64.0586 36.0994 64.9192 35.9168 65.8581 35.9168C69.5093 35.9168 71.3349 37.9597 71.3349 42.0456L71.2045 43.4278ZM62.3112 41.524H68.5704C68.5704 40.4634 68.3444 39.6028 67.8924 38.9421C67.4403 38.2814 66.7101 37.951 65.7016 37.951C64.7106 37.951 63.9195 38.2901 63.3284 38.9682C62.7372 39.6289 62.3982 40.4808 62.3112 41.524ZM77.6012 36.1776L77.836 38.0814C79.1226 36.6383 80.4353 35.9168 81.774 35.9168C82.4869 35.9168 83.1737 36.0211 83.8344 36.2298L84.1212 36.308L83.9908 40.0896H82.2956L81.9044 38.1336C80.4092 38.1336 79.1487 38.8117 78.1228 40.1678V47.9136L80.7308 48.5656V50H73.298V48.5656L75.5148 47.9136V38.264L73.298 37.7424V36.308L77.6012 36.1776ZM90.1156 32.5003V36.308H93.8972V38.264H90.1156V46.6357C90.1156 47.6963 90.5502 48.2266 91.4196 48.2266C91.9759 48.2266 92.654 48.0092 93.4538 47.5746L94.158 48.9568C92.9757 49.8261 91.7586 50.2608 90.5068 50.2608C89.62 50.2608 88.8985 49.9739 88.3421 49.4002C87.7858 48.809 87.5076 47.8354 87.5076 46.4792V38.264H84.8996V36.5688L87.5076 36.308V33.0219L90.1156 32.5003ZM101.057 36.1776V37.7424L99.2313 38.0032L102.361 47.1312L105.23 38.1336L103.404 37.7424V36.308L109.585 36.1776V37.7424L107.89 38.0032L104.187 48.3309C103.317 50.6085 102.674 52.1212 102.257 52.8688C100.953 55.1117 99.2487 56.2418 97.1449 56.2592L95.4758 56.1288L95.7105 54.3032H97.0145C97.8665 54.3032 98.6054 53.9468 99.2313 53.2339C99.8747 52.5211 100.518 51.4605 101.161 50.0522L96.4929 38.1336L94.9281 37.7424V36.308L101.057 36.1776ZM124.206 48.4352V50H116.773V48.4352L118.99 47.9136V33.8304L116.773 33.3088V31.8744L124.206 31.744V33.3088L121.728 33.8304V39.568H130.465V33.8304L127.988 33.3088V31.8744L135.42 31.744V33.3088L133.204 33.8304V47.9136L135.42 48.4352V50H127.988V48.4352L130.465 47.9136V41.6544H121.728V47.9136L124.206 48.4352ZM150.545 36.1776V47.9136L152.762 48.4352V49.8696L148.458 50L148.198 48.1744C147.467 48.8177 146.641 49.3306 145.72 49.7131C144.798 50.0782 144.016 50.2608 143.373 50.2608C141.982 50.2608 140.939 49.8522 140.243 49.035C139.548 48.2179 139.2 47.0703 139.2 45.5925V38.264L136.983 37.7424V36.308L141.808 36.1776V45.3317C141.808 46.2532 141.991 46.9399 142.356 47.392C142.721 47.8267 143.277 48.044 144.025 48.044C144.772 48.044 145.459 47.8701 146.085 47.5224C146.711 47.1747 147.172 46.8356 147.467 46.5053L147.937 45.9837V38.264L145.72 37.7424V36.308L150.545 36.1776ZM158.118 29.9184V37.4294C159.387 36.421 160.691 35.9168 162.03 35.9168C163.873 35.9168 165.247 36.5166 166.151 37.7163C167.055 38.916 167.507 40.6199 167.507 42.828C167.507 43.906 167.35 44.9057 167.038 45.8272C166.725 46.7313 166.264 47.5137 165.655 48.1744C165.047 48.8351 164.299 49.348 163.412 49.7131C162.526 50.0782 161.5 50.2608 160.335 50.2608C159.448 50.2434 158.648 50.1999 157.936 50.1304C157.24 50.0782 156.623 49.9652 156.084 49.7914L155.51 49.6088V32.0048L153.424 31.4832V30.0488L158.118 29.9184ZM158.118 47.9136C158.535 48.0875 159.44 48.1744 160.83 48.1744C161.526 48.1744 162.117 48.044 162.604 47.7832C163.108 47.5224 163.517 47.166 163.83 46.7139C164.16 46.2445 164.395 45.6968 164.534 45.0709C164.69 44.4276 164.769 43.7321 164.769 42.9845C164.769 41.4197 164.499 40.2026 163.96 39.3333C163.438 38.4466 162.621 38.0032 161.509 38.0032C160.639 38.0032 159.935 38.1771 159.396 38.5248C158.874 38.8551 158.448 39.2463 158.118 39.6984V47.9136Z" fill="white"/>
</svg>
