<svg width="400" height="259.199" xmlns="http://www.w3.org/2000/svg" display="block"><g fill-rule="evenodd"><path d="M9.906 94.917c0 2.475.023 3.51.052 2.301.028-1.209.028-3.234 0-4.5s-.052-.276-.052 2.199" fill="gray"/><path d="M61.417.171c-2.555.307-5.373.806-6.667 1.178-1.131.325-3.636 1.17-4.25 1.432-1.116.477-2.085.907-2.333 1.036-4.461 2.316-8.641 5.829-13.413 11.273-.64.73-1.652 1.817-2.25 2.417-.598.6-1.237 1.279-1.421 1.51-.633.799-1.916 2.785-1.916 2.967 0 .101-.069.183-.154.183-.084 0-.203.225-.263.5s-.179.5-.263.5c-.085 0-.154.079-.154.175 0 .097-.154.528-.342.959-.534 1.221-.606 1.399-.877 2.199-1.177 3.471-2.136 10.756-1.88 14.28.297 4.105.381 4.9.527 5.031.167.151 2.095.633 3.479.871.464.08 1.443.258 2.177.394 4.579.855 8.451 1.507 11.416 1.922.688.096 1.363.218 1.5.271.138.052.888.204 1.667.337 1.346.229 2.439.429 5.375.983 3.476.657 4.189.782 6.125 1.075 1.146.174 2.796.439 3.667.589 2.292.397 4.819.73 6.916.914 1.009.088 2.546.237 3.417.331 2.005.218 6.644.22 8.122.004.62-.09 1.84-.238 2.711-.328 1.785-.184 3.623-.515 5.042-.908.527-.146 1.384-.375 1.904-.508 2.02-.516 6.788-2.859 7.027-3.453.03-.076.131-.138.223-.138.093 0 .34-.132.55-.292.211-.16.55-.404.755-.542.539-.361 6.393-4.597 10.062-7.281 1.731-1.266 3.784-2.864 4.563-3.552a73.19 73.19 0 0 1 1.937-1.663c.744-.591 3.566-3.451 4.354-4.412 1.428-1.743 3.119-3.85 3.223-4.017.192-.307 1.26-1.031 1.694-1.149.229-.062.566-.18.75-.262a9.503 9.503 0 0 1 1-.334c2.114-.59 4.199-1.124 5.081-1.301 1.081-.217.917-.556-1.741-3.587-.945-1.077-3.687-3.622-6.674-6.194-.733-.632-1.371-1.193-1.416-1.248-.145-.171-2.054-1.574-2.764-2.03-.838-.539-2.84-1.549-3.403-1.717-.229-.069-.942-.368-1.583-.665-1.857-.86-2.282-1.038-3.167-1.325a16.034 16.034 0 0 1-1.167-.422c-.183-.083-1.083-.391-2-.683a61.788 61.788 0 0 1-2-.665c-.592-.238-2.632-.826-2.863-.826-.124 0-.355-.072-.514-.16-.159-.088-.664-.243-1.123-.345a273.15 273.15 0 0 1-1.916-.433 54.865 54.865 0 0 0-2-.416c-.505-.092-1.067-.234-1.25-.315-.184-.081-.859-.234-1.5-.339-.642-.106-1.805-.301-2.584-.435a110.114 110.114 0 0 0-6.5-.899A40.46 40.46 0 0 1 81.75.312C80.525.087 63.117-.034 61.417.171m51.666 17.713c2.776.48 3.499.631 3.79.79.159.088.421.161.583.164.162.002.594.142.961.31l.666.305-.75.193c-.412.107-1.115.305-1.56.44-.446.136-.916.247-1.044.247a1.34 1.34 0 0 0-.523.158c-.159.087-.852.317-1.539.512-.688.195-1.4.419-1.584.499a5.47 5.47 0 0 1-.911.259c-.318.063-.693.175-.833.248-.141.074-1.205.437-2.366.807-4.898 1.563-7.473 2.854-7.473 3.745 0 .613.763.668 5.084.369 2.016-.14 3.854-.204 4.083-.143l.416.112-.5.122-1.5.369c-.55.135-1.412.359-1.916.499-.505.139-1.255.339-1.667.443-.413.105-.872.255-1.021.335-.149.079-.544.195-.877.257-.333.063-.643.174-.688.247-.045.073-.382.184-.747.246-.366.061-.708.18-.759.264-.052.084-.208.152-.347.152-1.336 0-4.438 2.214-4.363 3.113.096 1.157.79 1.419 4.616 1.743 1.156.098 2.625.226 3.263.286l1.16.108-1.493 1.18c-.822.648-2.132 1.658-2.911 2.243-.779.585-1.501 1.142-1.604 1.237a5.98 5.98 0 0 1-.562.424 6.151 6.151 0 0 0-.562.419c-.104.093-.525.43-.935.75-.411.319-.884.716-1.052.882-.303.3-2.37 1.687-3.07 2.059-.203.108-.578.312-.833.453-.256.141-.84.413-1.298.606-.459.192-.984.413-1.167.492-2.855 1.221-9.399 2.073-16 2.083-3.612.005-4.679-.04-8.217-.348l-1.051-.091.444-.583c.245-.32.642-.795.884-1.054.242-.26 1.49-1.614 2.773-3.01 2.387-2.595 6.154-6.426 7.766-7.897a245.76 245.76 0 0 0 2.068-1.917c1.388-1.304 3.953-3.506 5.916-5.079.779-.625 1.567-1.26 1.75-1.412.184-.153 1.046-.763 1.917-1.357s1.621-1.122 1.667-1.174c.045-.052.758-.497 1.583-.989s1.538-.937 1.583-.989c.046-.052.346-.234.667-.405.321-.171 1.108-.595 1.75-.941a25.677 25.677 0 0 1 2.083-1.001 69.067 69.067 0 0 0 1.442-.601c.289-.126.668-.23.842-.23.174 0 .388-.069.475-.154.173-.168 1.386-.444 3.075-.7.596-.09 1.271-.229 1.5-.309.679-.235 7.229-.078 8.916.214m-2.125 8.898c-.16.041-.423.041-.583 0-.16-.042-.029-.077.292-.077.32 0 .452.035.291.077m9.204 7.926c-.798 1.229-2.586 3.799-3.104 4.459-2.172 2.771-4.324 4.983-6.058 6.224a41.49 41.49 0 0 0-1.295.952c-.471.393-3.422 1.803-4.365 2.085-.918.275-1.547 1.072-.846 1.072.211 0 3.563 2.72 4.348 3.529 1.003 1.034 2.73 2.991 2.896 3.283.085.149.245.346.355.438.569.473 3.574 6.274 3.574 6.9 0 .101.075.183.166.183.092 0 .167.117.167.259 0 .247.496 1.497.839 2.114.089.159.161.37.161.468 0 .097.155.53.345.96.328.743.675 1.546.984 2.283.219.519.391.989.407 1.111a.52.52 0 0 0 .139.236c.069.069.125.256.125.417 0 .16.056.316.125.347.069.03.304.58.524 1.222.219.642.456 1.242.526 1.333.071.092.181.448.245.792.065.344.184.625.265.625.082 0 .149.169.149.375.001.206.111.584.244.84.134.256.292.726.351 1.044.06.318.175.619.257.669.081.051.147.263.147.472 0 .343.15.97.94 3.933.309 1.158.7 2.72.897 3.584.084.366.201.854.261 1.083.06.229.139.642.175.917.064.48.663 3.245.74 3.416.044.096.049.129.209 1.25.231 1.624.63 4.01.789 4.721.089.397.208 1.409.265 2.25.057.841.171 1.615.253 1.721.195.248.192 4.975-.003 5.353-.082.159-.198 1.039-.258 1.955-.061.917-.182 2.004-.271 2.417-.089.412-.321 1.65-.515 2.75-.538 3.036-.687 3.732-1.481 6.917-.246.986-1.152 3.6-1.439 4.149-.124.239-.227.493-.227.566-.004.435-1.099 2.358-1.767 3.1-.946 1.052-3.786 2.975-6.28 4.253-.882.451-.88 1.017.003.874.343-.056.649-.178.68-.272.032-.094.16-.17.285-.17.496 0 4.446-2.232 5.395-3.047 1.405-1.209 3.478-4.553 3.79-6.117.056-.277.158-.503.228-.503s.177-.336.239-.746c.061-.41.176-.786.254-.834.079-.049.196-.404.261-.789.065-.386.181-.817.258-.958.265-.488.887-3.625 1.208-6.09.107-.825.247-1.58.311-1.678.064-.098.169-1.242.233-2.541.064-1.3.177-2.364.25-2.364.073 0 .159-.994.191-2.208.053-2.024.104-2.327.606-3.625 1.036-2.68 2.002-5.853 2.589-8.5.112-.505.249-1.029.304-1.167.056-.138.188-.812.295-1.5.106-.687.257-1.625.334-2.083.077-.459.146-1.26.153-1.782.007-.522.076-.988.154-1.037.295-.182.413-18.744.129-20.181-.073-.367-.197-1.417-.275-2.334-.079-.916-.223-2.041-.321-2.5a37.004 37.004 0 0 1-.342-2c-.255-1.806-.507-3.134-.663-3.5-.078-.183-.228-.821-.333-1.416a20.145 20.145 0 0 0-.536-2.167c-.555-1.745-1.647-4.873-1.901-5.442-.128-.289-.233-.645-.233-.792 0-.146-.069-.266-.154-.266-.084 0-.206-.241-.271-.536-.065-.295-.18-.651-.256-.792a48.89 48.89 0 0 1-.742-1.589 100.389 100.389 0 0 1-1.249-2.833c-.632-1.476-2.713-5.583-2.829-5.583-.062 0-.203-.3-.313-.667-.308-1.028-.66-.88-1.691.708M18.583 37.167c-.056.091-.267.167-.468.167-1.117.003-4.058 1.948-6.047 3.999-1.598 1.649-2.909 3.433-3.919 5.334-.22.412-.437.787-.482.833-.161.16-.834 1.622-.834 1.81 0 .104-.075.19-.166.19-.092 0-.167.082-.167.183 0 .101-.106.42-.237.708l-.729 1.618c-.271.601-.546 1.332-.61 1.623-.064.292-.186.574-.27.626-.085.052-.154.21-.154.352 0 .141-.104.493-.231.781-.127.289-.36.976-.518 1.526-.158.55-.392 1.321-.519 1.714-.128.393-.232.849-.232 1.014 0 .165-.055.355-.122.422-.25.249-.95 3.907-1.232 6.433-.21 1.883-.086 10.694.175 12.417.097.641.254 2.029.348 3.083.355 3.957 1.561 11.942 2.329 15.417.101.458.26 1.32.354 1.916.093.596.238 1.234.321 1.417.082.183.224 2.171.315 4.417.197 4.868.48 8.381.706 8.75.056.091.157.801.224 1.576.068.776.185 1.526.261 1.667.076.141.212.744.302 1.34.2 1.318.558 2.761.727 2.931.069.068.125.253.125.41 0 .329.766 2.743 1.374 4.33.955 2.494 2.63 4.574 4.677 5.808 2.345 1.414 4.948 2.711 5.331 2.657.715-.103.471-.54-.594-1.063-1.344-.662-4.679-2.881-5.548-3.691-.967-.903-2.485-3.558-2.838-4.966a4.95 4.95 0 0 0-.343-.905c-.123-.235-.224-.554-.224-.709-.001-.156-.066-.323-.146-.372-.08-.049-.194-.394-.253-.767-.06-.373-.179-.806-.264-.962-.177-.323-1.331-6.513-1.451-7.784-.044-.459-.12-.946-.17-1.084-.097-.266-.108-.361-.291-2.416-.066-.734-.185-1.484-.265-1.667-.214-.491-.44-5.671-.297-6.833.068-.55.198-1.375.291-1.834.092-.458.285-1.508.428-2.333.262-1.519.576-3.279.934-5.25.109-.596.333-1.946.499-3 .381-2.423.725-4.139 2.061-10.292.135-.618.341-1.575.459-2.125.117-.55.263-1.075.322-1.166.06-.092.163-.542.23-1 .066-.459.178-.909.247-1 .07-.092.18-.561.245-1.042s.186-.917.269-.968c.083-.051.151-.23.151-.398 0-.167.123-.706.274-1.198.572-1.868 1.25-3.904 1.381-4.15.074-.14.188-.496.253-.79.065-.293.187-.577.271-.629.085-.052.154-.207.154-.344 0-.217.17-.657.833-2.148l.554-1.25c1.97-4.442 5.807-10.479 7.233-11.382.377-.238.566-.756.392-1.072-.089-.163-.436-1.121-.77-2.129-.334-1.009-.713-2.07-.841-2.359-.129-.289-.234-.599-.234-.689 0-.09-.112-.379-.249-.642-.137-.262-.25-.6-.25-.75-.001-.15-.113-.487-.25-.75-.137-.262-.25-.593-.25-.735a.763.763 0 0 0-.134-.417c-.073-.087-.274-.608-.447-1.158-.423-1.346-1.521-2.031-2.004-1.25m367.644 34.91c-.196.187-1.358 1.073-2.583 1.969-1.225.896-3.202 2.349-4.394 3.229-1.192.88-2.336 1.678-2.542 1.773-.353.162-.181.365 2.861 3.354 5.942 5.838 7.746 9.305 7.555 14.515-.177 4.825-2.22 6.961-6.428 6.717-4.331-.251-5.673-2.71-5.69-10.426L375 90.667h-11.54l.084 4.291c.266 13.772 5.766 19.876 17.915 19.888 11.493.011 17.653-6.077 18.157-17.945.315-7.416-2.106-13.955-7.173-19.376-2.556-2.734-3.443-3.633-4.61-4.673l-1.25-1.114-.356.339m-55.285 40.638l-1.642 1.202 1.621.048c1.934.057 1.772.177 1.712-1.272l-.05-1.18-1.641 1.202M40.708 128.282c.161.041.423.041.584 0 .16-.042.029-.077-.292-.077s-.452.035-.292.077m52.667 0c.16.041.423.041.583 0 .161-.042.029-.077-.291-.077-.321 0-.452.035-.292.077m-55.747.172c.3.037.75.036 1-.002s.005-.068-.545-.067c-.55.001-.755.032-.455.069m58.414-.001c.252.038.664.038.916 0s.046-.07-.458-.07-.71.032-.458.07m30.074 4.868c-.054.451-.17.957-.259 1.125-.089.167-.404.979-.7 1.804-.297.825-1.166 2.8-1.931 4.389-.766 1.59-1.393 2.99-1.393 3.111 0 .122-.056.247-.125.278-.068.03-.307.43-.531.889-.826 1.694-6.04 10.144-7.075 11.466-1.492 1.905-4.202 4.49-5.999 5.724-2.063 1.415-3.129 2.01-5.02 2.798-.366.153-.781.34-.922.415-.14.076-.515.193-.833.261-.318.068-.673.201-.789.294-.302.244-4.625.363-5.622.155-1.16-.241-2.272-.533-2.667-.699-.183-.078-.858-.288-1.5-.468-2.415-.678-2.368-.662-1.917-.669.23-.004.792.068 1.25.16 3.701.743 9.024 1.018 10.886.563 3.179-.777 4.333-1.483 8.622-5.276 3.767-3.331 6.242-6.793 6.242-8.729 0-.216.065-.433.145-.482.123-.076.366-1.242.437-2.097.012-.137.068-.437.125-.666.212-.85.893-4.878 1.064-6.292.091-.751.066-.875-.175-.875-.264 0-1.262.94-1.262 1.188 0 .109-.281.462-1.967 2.479-1.795 2.145-3.981 3.682-6.033 4.241a7.468 7.468 0 0 0-.75.252c-4.082 1.705-9.392 1.522-12.5-.432-6.597-4.145-12.33-7.061-13.884-7.061-.165 0-.371-.071-.458-.157-.533-.525-6.32-.535-6.992-.012-.091.072-.415.183-.719.248a4.83 4.83 0 0 0-1 .352c-.246.128-.52.234-.61.234-.089.001-1.08.458-2.202 1.017l-2.04 1.016-.964-.575c-.864-.515-1.873-1.014-3.74-1.851-.335-.15-.713-.272-.842-.272a.645.645 0 0 1-.391-.156c-.534-.527-5.817-.546-6.883-.026-.151.074-.688.265-1.192.425-2.105.667-6.736 3.048-9.25 4.756-.367.249-1.229.776-1.917 1.171-.687.395-1.287.766-1.333.825-.162.207-2.096 1.13-2.96 1.412-1.325.434-5.314.226-7.707-.402-4.6-1.206-6.821-2.7-9.666-6.5a66.613 66.613 0 0 0-.875-1.137c-.252-.32-.459-.689-.459-.82 0-.138-.123-.216-.291-.184-.382.072-.457 1.051-.206 2.672.459 2.959.867 5.25 1.317 7.38.628 2.972 3.619 6.836 8.264 10.674.55.454 1.037.868 1.083.918.304.334 2.594 1.705 3.191 1.911.399.137.876.32 1.059.405 1.359.636 6.507.794 9.667.297 2.333-.367 5.828-1.049 6.916-1.35a94.696 94.696 0 0 1 1.667-.443c.413-.105.9-.257 1.083-.34.331-.148 1.139-.358 2.584-.672.412-.09.865-.226 1.006-.303.141-.076.666-.194 1.167-.262.5-.067.985-.17 1.077-.229.161-.102.905-.252 3.916-.786 4.702-.835 6.107-.78 12.75.498 1.757.338 3.273.68 3.584.808.137.056.587.179 1 .272.412.093 1.2.29 1.75.439.55.149 1.337.345 1.75.436.412.091.862.212 1 .269.137.056.7.204 1.25.327.55.124 1.45.33 2 .459l1 .234-1-.086c-3.108-.268-8.241.145-9.667.778-.183.082-.821.231-1.417.333-3.934.67-4.653.728-9 .731-5.084.003-5.767-.083-10.416-1.315-3.155-.836-7.287-.837-10.084-.002-.504.15-1.216.348-1.583.44-.367.091-.796.235-.953.319-.158.085-.817.203-1.464.263s-1.216.174-1.265.252c-.115.186-6.188.185-6.303-.001-.049-.078-.476-.189-.949-.245-.827-.098-1.806-.393-2.925-.882-.288-.127-.567-.23-.62-.23-.572 0-3.619-1.867-5.447-3.338-.509-.41-1.889-1.495-3.068-2.412-3.489-2.714-4.387-3.562-6.002-5.667-1.489-1.939-4.087-6.003-4.087-6.391 0-.106-.075-.192-.167-.192-.092 0-.168-.094-.169-.208-.001-.115-.219-.638-.485-1.162-.266-.524-.534-1.181-.595-1.458-.061-.278-.18-.505-.264-.505-.085 0-.154-.12-.154-.267 0-.146-.105-.503-.234-.791-.694-1.56-1.86-5.665-2.137-7.524-.027-.182-.17-.355-.319-.383-.34-.066-.436.311-.739 2.881-.401 3.4-1.243 8.631-1.825 11.334-.06.275-.375 1.812-.7 3.416-.594 2.921-.844 4.093-1.29 6.041a253.64 253.64 0 0 0-.421 1.876c-.1.458-.244.948-.32 1.089-.077.14-.195.515-.263.833-.068.318-.183.653-.256.745-.143.18-.42 1.404-.677 3a44.32 44.32 0 0 1-.321 1.75c-.087.412-.242 1.5-.344 2.416-.103.917-.249 2.192-.326 2.834-.194 1.61-.186 11.588.009 12.916.392 2.662 1.348 6.816 1.668 7.25.068.092.179.427.247.745s.186.693.262.833c.076.141.363.759.638 1.375.274.616 1.128 2.153 1.896 3.417.768 1.263 1.588 2.64 1.822 3.06.792 1.421.88 1.57.982 1.654.056.046.386.608.732 1.25.347.641 1.22 2.152 1.94 3.358.72 1.205 1.31 2.274 1.31 2.375 0 .101.073.183.163.183.09 0 .211.188.268.417.058.229.172.417.253.417a.15.15 0 0 1 .149.151c0 .402 1.096 2.015 1.368 2.015.254 0 .299-.15.299-1.004 0-1.218.488-5.18.666-5.412.071-.092.18-.408.243-.702s.296-.912.519-1.374c.223-.462.405-.896.406-.965 0-.069.251-.614.557-1.209.305-.596.648-1.364.761-1.706.113-.343.256-.654.318-.693.062-.038.088 2.117.059 4.79-.069 6.07.218 9.667 1.026 12.859.139.55.341 1.375.449 1.833.109.458.265.905.347.992.082.087.149.28.149.43 0 2.544 6.754 9.84 14.083 15.212.984.721.953.698 1.934 1.493 1.106.898 2.027.484.997-.447-.482-.437-1.779-3.142-2.163-4.513-.842-3.005-1.054-4.593-1.125-8.417l-.066-3.583 1.128 2.25c.621 1.237 1.166 2.287 1.212 2.333.088.088.482.81 1.048 1.917.187.366.433.779.546.916.113.138.413.625.665 1.084.416.754 1.79 2.92 2.114 3.333a268.9 268.9 0 0 1 2.235 3.333c1.874 2.823 3.859 5.55 5.274 7.25 1.716 2.061 5.22 5.644 6.243 6.384.278.202 1.142.872 1.92 1.49 2.478 1.967 6.506 4.538 9.069 5.787 1.358.662 2.597 1.271 2.753 1.352 2.318 1.204 2.098.262-1.565-6.692-.414-.787-.892-1.799-1.063-2.25a15.149 15.149 0 0 0-.524-1.237c-.117-.229-.214-.512-.214-.628-.001-.115-.07-.34-.154-.5-.234-.442-.847-2.443-.847-2.761a1.43 1.43 0 0 0-.159-.572c-.303-.556-.576-2.468-.564-3.956.024-2.905 1.141-10.873 1.39-9.917.012.046.131 1.059.265 2.25.734 6.537 1.057 8.945 1.23 9.167.071.092.183.542.249 1 .066.458.179.908.252 1 .072.092.187.427.255.745.068.317.179.692.245.833 2.195 4.627 3.388 6.213 5.883 7.82.57.367 1.117.737 1.215.821.754.651 6.004 3.198 6.592 3.198.488 0 .553-.425.163-1.057-.192-.312-.35-.688-.35-.838 0-.15-.069-.272-.153-.272-.084 0-.203-.225-.263-.5-.061-.275-.173-.5-.25-.5-.077 0-.19-.225-.25-.5-.061-.275-.179-.5-.264-.5-.084 0-.153-.113-.153-.251 0-.197-1.549-3.326-2.506-5.061a17.635 17.635 0 0 1-.5-1.105 76.652 76.652 0 0 0-.589-1.358c-.131-.289-.238-.641-.238-.782 0-.141-.07-.299-.154-.352-.085-.052-.204-.324-.266-.604a4.64 4.64 0 0 0-.345-.957c-.128-.245-.234-.611-.234-.812-.001-.201-.072-.409-.158-.462-.087-.053-.208-.433-.269-.843-.062-.411-.17-.746-.241-.746-.071 0-.161-.221-.201-.492-.04-.27-.011-.453.064-.406a.33.33 0 0 1 .137.258c0 .399 2.701 4.611 3.363 5.245 3.064 2.932 7.513 5.034 5.465 2.583-.743-.889-.747-.894-1.179-1.697-.22-.407-.449-.779-.511-.826-.061-.047-.165-.31-.231-.584-.066-.274-.2-.599-.298-.724-.224-.283-.356-4.141-.159-4.656.135-.353.214-.284 1.049.917a74.81 74.81 0 0 0 1.827 2.493 94.431 94.431 0 0 1 1.993 2.709c1.177 1.667 1.245 1.7 2.65 1.278.429-.129 1.231-.361 1.781-.515.55-.155 1.236-.386 1.525-.515.289-.129.609-.235.711-.235.102 0 .315-.072.475-.161a16.14 16.14 0 0 1 1.122-.507c4.896-2.038 9.356-5.377 11.677-8.741.544-.789 1.308-1.864 1.697-2.388.388-.524.707-1.022.708-1.107.001-.084.107-.271.235-.416.209-.236.526-.789 1.538-2.68.172-.321.35-.621.397-.667.189-.185 3.018-6.038 3.746-7.75a210.13 210.13 0 0 1 1.016-2.358c.13-.289.236-.573.236-.632 0-.059.215-.573.478-1.142s.519-1.147.57-1.284c.054-.145.098-.061.106.198.007.247-.052.489-.132.538-.079.049-.198.634-.264 1.298-.065.665-.169 1.286-.23 1.379-.061.094-.2.733-.309 1.42-.11.688-.313 1.925-.453 2.75s-.275 1.65-.301 1.833c-.086.601.577.481 1.546-.279 1.631-1.28 5.519-5.097 6.53-6.411.201-.262.936-1.039 1.633-1.726 1.61-1.589 3.367-3.59 4.464-5.084.471-.641.927-1.251 1.013-1.354.295-.353 2.913-4.954 3.308-5.812.126-.275.298-.628.382-.785.084-.156.198-.606.252-1 .055-.393.172-.866.26-1.05.33-.689-.078-10.503-.474-11.415-.06-.138-.202-.888-.317-1.667a73.212 73.212 0 0 0-.972-5.25c-.251-1.099-.914-4.403-.92-4.583-.004-.113 1.033 1.339 1.929 2.699.404.614.735 1.214.736 1.333 0 .12.116.439.258.71.141.271.301.817.355 1.213.054.396.163.76.242.809.079.049.144.614.144 1.257 0 2.173.981 1.028 2.897-3.382l.566-1.306c.139-.321.307-.698.373-.839.067-.14.178-.513.247-.828.069-.314.182-.687.251-.828.692-1.415.692-6.273 0-7.678-.07-.141-.18-.572-.245-.958-.065-.385-.187-.743-.271-.795-.083-.051-.152-.207-.152-.345 0-.137-.187-.66-.416-1.16a67.266 67.266 0 0 1-.844-1.948 59.299 59.299 0 0 0-.667-1.563c-.132-.289-.239-.682-.239-.875 0-.192-.057-.35-.125-.351-.069-.001-.264-.47-.433-1.042a31.635 31.635 0 0 0-.542-1.668c-.128-.346-.234-.777-.234-.959 0-.181-.066-.33-.147-.33-.082 0-.199-.335-.26-.746-.062-.41-.174-.784-.25-.831-.076-.047-.188-.422-.25-.833-.061-.412-.178-.79-.259-.84-.081-.05-.198-.427-.26-.839-.062-.411-.172-.785-.245-.83-.073-.045-.186-.401-.25-.79s-.174-.782-.245-.874c-.071-.092-.182-.485-.246-.874s-.179-.746-.254-.793c-.076-.046-.191-.403-.255-.792s-.173-.783-.242-.874c-.07-.092-.177-.467-.239-.834-.061-.366-.372-1.754-.691-3.083a818.836 818.836 0 0 1-1.324-5.583c-.15-.642-.342-1.43-.426-1.75-.185-.702-.442-2.003-.709-3.584-.317-1.871-.982-2.306-1.165-.762m160.968 11.535c-.047.125-.067 16.09-.043 35.477l.042 35.25 5.625.044 5.625.044v-28.838l1.625.003c4.844.009 6.95.864 8.209 3.332.812 1.591.867 2.288 1 12.665.126 9.896.182 10.74.814 12.375l.177.459h11.546l-.082-.459c-.045-.252-.245-1.058-.445-1.791-.49-1.805-.666-5.457-.672-13.942-.008-11.525-1.436-15.753-6.061-17.948l-.973-.462.973-.601c4.729-2.926 6.2-7.342 6.005-18.035-.21-11.516-3.282-15.921-12.116-17.374-2.25-.37-21.116-.547-21.249-.199m78.791 35.352l.042 35.542 8 .048c8.179.049 12.657-.114 14.587-.53 5.047-1.089 8.769-4.297 10.483-9.035 1.062-2.936 1.025-1.904.975-26.573l-.045-22.41-.463-1.644c-1.257-4.466-3.53-7.363-7.095-9.044-3.577-1.685-5.501-1.887-18.068-1.892l-8.458-.003.042 35.541m-36.208.126v35.501l14.708-.042 14.708-.043.044-5.208.044-5.209h-18.338v-60.5h-11.166v35.501m-54.917-26.398c-.917.675-2.665 1.959-3.886 2.854a200.684 200.684 0 0 0-3.024 2.252c-.442.343-.869.625-.947.625-.079 0-.121 8.912-.095 19.875.05 20.623.024 21.585-.648 23.382-1.458 3.896-7.581 4.361-9.56.726-1.01-1.856-.975-1.242-1.078-19.13l-.095-16.398-.75.57c-2.254 1.714-9.434 6.94-9.925 7.225l-.574.333v12.333c.001 14.817.077 15.66 1.74 19.187 2.281 4.836 5.954 7.593 11.092 8.324 11.245 1.6 18.474-2.587 20.723-12.001.52-2.179.572-45.018.057-47.426-.319-1.493-1.006-3.635-1.23-3.838-.074-.066-.883.432-1.8 1.107m30.374 1.417c3.156.549 3.874 2.493 3.872 10.48-.002 9.097-.977 10.457-7.621 10.629l-3.042.079v-21.374h2.862c1.573 0 3.341.083 3.929.186m79.637-.007c1.903.346 2.919 1.283 3.627 3.349l.362 1.055v40.833l-.362 1.056c-.615 1.794-1.497 2.765-3.055 3.361-.401.154-1.763.245-4.375.294l-3.791.071v-50.198h3.302c1.817 0 3.748.08 4.292.179M10.78 159.417c.078.091.662.991 1.297 2 .636 1.008 1.428 2.208 1.76 2.666.331.459.653.946.715 1.084.141.314.501.889.625 1 .051.045.385.57.741 1.166s.708 1.109.782 1.139a.233.233 0 0 1 .133.196c0 .077.612 1.139 1.36 2.361 1.451 2.37 1.986 3.26 2.623 4.363.22.38.447.729.504.775.057.046.197.271.311.5.113.229.432.791.708 1.25.81 1.347 1.828 3.509 1.828 3.883 0 .191.068.389.152.441.084.052.205.412.269.802.064.389.174.782.246.874.071.091.183.579.25 1.083.066.504.168.992.227 1.083.17.267.458 1.685 1.413 6.94.331 1.82.621 3.013.785 3.227.07.092.181.449.245.794.064.344.177.663.25.709.074.045.184.381.246.747s.174.703.25.75c.076.047.188.384.25.75s.174.703.25.75c.076.047.188.384.25.75s.181.707.265.759c.083.052.152.209.152.351 0 .141.107.493.239.781.801 1.755.935 2.553.594 3.542-.688 2.001-.925 11.878-.403 16.817l.088.833-.605-.666c-1.777-1.961-2.609-2.945-3.047-3.603-.524-.787-1.628-3.528-1.805-4.481-.059-.321-.164-.658-.233-.75-.068-.091-.179-.579-.245-1.083s-.179-.992-.251-1.083c-.072-.092-.21-.692-.307-1.334-.098-.641-.299-1.841-.449-2.666-.298-1.649-.623-3.734-1-6.417-.868-6.181-1.131-9.088-1.03-11.398l.072-1.649-1.934.094c-2.45.118-3.374.466-4.224 1.59-.776 1.026-2.127 3.682-2.127 4.182 0 .102-.072.316-.16.475-.178.322-.492 1.624-.623 2.582-.119.871-.278.889-.625.074a99.349 99.349 0 0 0-.635-1.45c-.184-.412-.396-.9-.471-1.083-.435-1.075-.852-2.037-.992-2.29-.088-.159-.161-.373-.161-.475 0-.102-.11-.421-.245-.71s-.55-1.463-.922-2.609c-.373-1.145-.74-2.198-.817-2.338-.077-.141-.196-.516-.264-.834-.068-.318-.181-.653-.252-.744-.07-.092-.178-.43-.24-.75a5.715 5.715 0 0 0-.255-.917c-.163-.38-.44-1.412-.739-2.75-.113-.504-.253-1.029-.312-1.167-.554-1.294-.694-7.558-.24-10.75.322-2.266 1.051-5.892 1.324-6.583.093-.236.162-.49.633-2.333.105-.413.255-.9.333-1.084.079-.183.303-.858.5-1.5.197-.641.426-1.297.51-1.456a1.51 1.51 0 0 0 .154-.583c0-.162.481.493 1.069 1.456.587.962 1.132 1.825 1.21 1.917m221.061 26.041c-.85.619-1.706 1.238-1.902 1.375-.196.137-.857.625-1.47 1.083-.613.459-1.513 1.12-2 1.469-3.935 2.822-3.498 2.119-3.897 6.271-.344 3.581-.404 3.566-.747-.198-.114-1.26-.253-2.291-.308-2.291-.166.001-1.043.577-2.059 1.352-.528.402-1.353 1.015-1.833 1.361-.481.347-1.575 1.153-2.431 1.791-.855.639-1.676 1.229-1.823 1.311-.243.136-.195.825.516 7.376.432 3.974.832 7.695.89 8.269l.104 1.043 7.518-.043 7.518-.044L231.685 200c.972-8.571 1.753-15.602 1.735-15.626-.018-.023-.728.464-1.579 1.084m-23.342 16.973c0 .084-.569.565-1.265 1.069-.695.504-1.818 1.329-2.495 1.833-.677.505-1.696 1.255-2.263 1.667-.568.412-1.488 1.089-2.046 1.504-.557.414-1.176.864-1.374 1a385.39 385.39 0 0 0-3.715 2.712c-1.845 1.356-3.468 2.51-3.606 2.563-.142.054-.231.251-.202.451l.05.353 7.792.044c4.285.023 7.794.023 7.798 0 .184-1.299 1.434-13.232 1.39-13.28-.034-.038-.063 0-.064.084M43.145 216.868c.287.615.522 1.157.522 1.204 0 .091.524 1.252 1.672 3.705 1.163 2.486 1.24 2.638 1.369 2.695.069.031.125.129.125.218 0 .183.406 1.112 1.336 3.06 1.912 4.003 2.664 5.632 2.664 5.767 0 .082.075.15.167.15.092 0 .167.088.167.197 0 .109.141.502.314.875.173.373.416.94.539 1.261.35.907 2.476 5.052 2.742 5.346.131.145.238.326.238.403 0 .077-1.442-1.354-3.205-3.179-1.763-1.826-4.168-4.252-5.344-5.391-2.354-2.279-2.62-2.701-3.588-5.679-1.024-3.151-1.325-7.055-.831-10.78.229-1.728.239-1.727 1.113.148" fill="#fff"/><path d="M377.833 36.675c-9.349 1.592-13.864 7.786-13.904 19.075-.024 6.696 1.358 10.906 5.305 16.167 1.118 1.49 6.48 7.023 6.951 7.172.452.144.543.082 7.304-4.96 1.14-.85 2.284-1.676 2.542-1.835.623-.384.591-.661-.141-1.22-1.073-.818-4.62-4.441-5.834-5.959-6.108-7.636-5.122-17.258 1.777-17.339 4.292-.05 6 2.414 6 8.655v2.073l5.792-.044 5.792-.043-.018-3.334c-.051-9.895-4.269-16.04-12.422-18.097-1.584-.4-7.45-.599-9.144-.311M186.5 75.667V114h10.666l.042-25.996.042-25.995 1.381 8.204c.76 4.512 1.457 8.832 1.55 9.599.167 1.388.817 5.315 3.99 24.118.914 5.415 1.662 9.896 1.662 9.958 0 .062 2.615.112 5.812.112h5.811l.417-2.625c.229-1.444 2.058-13.304 4.064-26.356l3.646-23.731.043 26.356.042 26.356h11.499V37.333h-16.994l-.083.375c-.171.771-2.412 15.752-2.513 16.792-.093.972-5.353 35.562-5.456 35.882-.048.151-3.252-19.183-3.474-20.965-.239-1.916-.245-1.952-2.741-17.077-1.323-8.018-2.406-14.674-2.406-14.792 0-.172-1.677-.215-8.5-.215h-8.5v38.334m70.333-38.173c0 .132-1.663 10.438-3.914 24.256a104.99 104.99 0 0 0-.579 4.02c-.158 1.398-.485 3.47-2.339 14.813-.36 2.2-.879 5.388-1.154 7.084-1.04 6.415-2.556 15.747-3.262 20.083-.403 2.475-.785 4.894-.847 5.375l-.114.875h11.35l.092-.458c.051-.252.511-3.271 1.021-6.709.511-3.437.96-6.343.999-6.458.085-.253 14.414-.31 14.414-.057 0 .084.415 2.878.922 6.209.507 3.331.967 6.375 1.023 6.765l.1.708h12.288l.001-.708c.001-.39-.149-1.646-.332-2.792-.706-4.408-4.386-27.156-5.163-31.917-1.219-7.466-3.123-19.505-3.519-22.25-.192-1.329-.943-6.075-1.668-10.547s-1.319-8.203-1.319-8.292c0-.101-3.324-.161-9-.161-5.677 0-9 .06-9 .161M294.5 75.667V114h10.832l.042-27.125.043-27.125.697 2.583c.799 2.965 3.751 13.731 5.643 20.584.708 2.566 1.363 5.041 1.454 5.5.163.814 1.951 7.447 5.257 19.5l1.646 6 4.538.044 4.538.044 1.738-1.275 1.739-1.276V37.333h-10.834v22.445c0 12.344-.03 22.413-.067 22.375-.037-.038-.115-.368-.172-.734-.058-.365-.822-3.29-1.699-6.5-.877-3.209-1.992-7.298-2.479-9.086-1.872-6.877-2.955-10.824-3.499-12.75-.669-2.369-.926-3.351-1.028-3.916-.127-.707-.368-1.687-.8-3.25a903.39 903.39 0 0 1-1.361-5.042l-.946-3.542H294.5v38.334m49-32.417v5.917h2.167c2.565 0 2.428-.218 1.597 2.532a400.1 400.1 0 0 0-1.426 4.884c-.47 1.65-.894 3.134-.942 3.296-.082.276.089.293 2.545.25l2.632-.046 1.474-3.416a881.7 881.7 0 0 1 2.63-6.033l1.156-2.616V37.333H343.5v5.917m-74.677 32.667c.457 3.025.877 5.987.934 6.583.057.596.285 2.273.506 3.726.222 1.453.404 2.785.404 2.958 0 .304-.214.316-5.514.316h-5.513l.096-.458c.177-.843.936-6.113 1.026-7.125.049-.55.649-4.675 1.332-9.167.684-4.492 1.618-10.642 2.076-13.667.458-3.025.881-5.8.94-6.166.106-.654.602 2.419 3.713 23M28.917 86.838c-.367.066-1.584.171-2.704.233s-2.208.151-2.417.197c-.208.047-1.242.19-2.296.32-3.252.399-10.12 1.426-11.125 1.663L10 89.34v10.993h.949l.111 2.209c.061 1.214.185 2.62.276 3.125.09.504.235 1.404.322 2 .266 1.825.953 4.637 1.198 4.908.079.087.144.301.144.475s.105.553.233.841l.79 1.776c.305.687.613 1.275.683 1.305.07.031.127.143.127.25 0 .201 1.519 2.645 1.881 3.027.111.118.353.425.536.682 2.837 3.98 7.232 6.563 12.333 7.247 3.811.511 12.008.253 16.167-.508 4.629-.848 8.325-3.8 10.851-8.67.357-.687.687-1.288.732-1.333.318-.318 3.12-6.624 3.407-7.667.063-.229.175-.567.248-.75.578-1.44.845-2.214.845-2.452 0-.153.069-.321.152-.372.084-.052.205-.413.269-.802.065-.389.173-.782.242-.874.069-.092.179-.391.244-.666.224-.932.152-.917 4.502-.917 4.604 0 4.106-.178 4.683 1.666.158.504.347 1.067.419 1.25.073.184.296.849.498 1.479.201.629.468 1.342.594 1.583.126.241.229.533.23.649 0 .116.072.341.159.5.087.159.268.552.402.873.134.32.513 1.171.842 1.89.329.718.598 1.342.598 1.385 0 .149 2.115 4.303 2.642 5.19.288.486.524.921.524.968 0 1.026 5.182 5.9 6.273 5.9.051 0 .33.105.619.234 2.539 1.129 5.904 1.547 13.525 1.681 4.392.077 6.369-.158 9.417-1.122 6.217-1.967 11.308-8.156 13.401-16.293.13-.504.32-1.235.424-1.624.177-.668.32-1.529.672-4.043.084-.596.157-1.796.163-2.666.015-2.149.076-2.334.776-2.334h.564l-.003-4.458c-.004-6.32-.076-6.58-1.914-6.871-.642-.101-1.842-.294-2.667-.429a176.97 176.97 0 0 0-7-.989c-1.1-.132-2.15-.272-2.333-.31-.183-.039-1.083-.118-2-.177a76.076 76.076 0 0 1-3.083-.27c-2.436-.279-11.999.02-14 .437-.229.048-1.279.196-2.334.33-4.242.538-7.578 1.303-9.75 2.234-1.176.505-3.095 1.447-3.621 1.779L75.34 92H59.12l-.768-.469a24.449 24.449 0 0 0-1.935-1.012 49.69 49.69 0 0 1-1.456-.697c-.16-.085-.385-.156-.5-.156-.116-.001-.412-.106-.658-.235a4.493 4.493 0 0 0-1-.342 4.868 4.868 0 0 1-.886-.26c-.872-.395-6.399-1.289-10.25-1.657-.963-.092-2.5-.242-3.417-.333-1.871-.187-8.309-.188-9.333-.001m13.397 5.495c.79.091 2.336.242 3.436.335 4.788.406 7.317 1.024 8.75 2.14 3.302 2.57 4.174 6.041 2.966 11.804-.119.565-.272 1.084-.341 1.152-.069.069-.125.26-.125.425 0 .164-.101.621-.224 1.014-.123.392-.397 1.276-.607 1.964-.211.687-.448 1.321-.526 1.408a.67.67 0 0 0-.143.391c0 .503-1.364 3.281-2.435 4.958-2.057 3.223-5.289 5.028-10.43 5.825-3.557.551-11.121.038-13.385-.908a28.003 28.003 0 0 0-1.167-.427c-3.143-1.087-7.75-4.588-7.75-5.89a.248.248 0 0 0-.151-.218c-.214-.079-1.629-3.018-1.77-3.675-.064-.301-.175-.623-.246-.714-.07-.092-.179-.505-.24-.917-.061-.413-.181-.9-.265-1.083-.645-1.401-.657-9.11-.017-11.048.706-2.136 3.533-5.202 4.798-5.202.05 0 .327-.11.616-.244 2.296-1.068 13.813-1.72 19.256-1.09m62.353.225c9.622.91 12.589 2.96 12.937 8.942.124 2.118-.6 6.591-1.271 7.854-.079.15-.196.562-.26.917s-.173.721-.242.812c-.069.092-.181.43-.248.75-.067.321-.177.659-.246.75-.068.092-.178.39-.243.663-.066.273-.5 1.285-.965 2.25-2.156 4.468-4.261 6.232-9.212 7.717-.813.244-1.11.304-2.834.573-3.186.499-10.977-.063-13.166-.949a33.393 33.393 0 0 0-1.167-.421c-1.129-.386-3.917-1.757-3.917-1.925 0-.074-.133-.177-.296-.229-.947-.301-3.754-3.667-4.665-5.595-1.231-2.606-2.039-6.976-2.039-11.031 0-5.707 1.922-8.916 6.167-10.296 1.671-.543 2.237-.673 3.651-.839.771-.091 1.444-.208 1.496-.26.201-.201 13.802.06 16.52.317m154.75 51.465c-7.865.455-12.87 4.571-14.701 12.089l-.44 1.805-.066 9.125c-.036 5.018-.005 9.124.07 9.124.222-.002 3.7-2.501 10.428-7.495l.792-.588.004-3.166c.012-8.355 1.136-10.47 5.577-10.493 3.22-.016 5.027 1.482 5.522 4.578.127.797.243.815 1.067.162a43.49 43.49 0 0 1 1.387-1.042c2.728-1.953 7.286-5.336 7.367-5.467.183-.296-1.339-2.7-2.495-3.942-3.236-3.477-8.132-5.06-14.512-4.69m-75.685 1.519c.056.389.401 3.37.765 6.625.364 3.254 2.051 18.167 3.749 33.139 1.698 14.973 3.087 27.507 3.087 27.854 0 2.099-.192 2.144 4.008-.944a385.39 385.39 0 0 1 3.715-2.712c.198-.136.817-.586 1.374-1 .558-.415 1.478-1.092 2.046-1.504.567-.412 1.586-1.162 2.263-1.667 1.047-.779 3.746-2.75 3.766-2.75.004 0 .048-.45.097-1 .082-.902.328-3.221 1.846-17.369.248-2.312.484-4.171.523-4.132.039.039.531 4.287 1.092 9.439.561 5.155 1.095 9.393 1.187 9.423.092.03.917-.505 1.833-1.189.917-.684 2.06-1.528 2.539-1.874.48-.347 1.441-1.059 2.135-1.581.694-.523 1.397-.993 1.562-1.045.2-.064.279-.22.238-.467-.148-.889-4.231-42.047-4.304-43.386-.101-1.847-.246-3.509-.36-4.11l-.086-.459h-10.942l-.102.792c-.056.435-.511 4.992-1.011 10.125l-2.497 25.626c-.874 8.961-1.588 16.529-1.588 16.819 0 1.593-.4-1.286-.67-4.819-.218-2.851-.342-4.031-3.162-30.126-1.561-14.436-1.851-17.089-1.939-17.708l-.101-.709h-11.166l.103.709m43.935-.37c0 .186-.185 2.079-.411 4.208-.757 7.139-.917 8.769-1.013 10.324-.091 1.46-.563 6.244-1.494 15.129l-1.088 10.395c-.373 3.563-.646 6.509-.608 6.547.038.039.623-.341 1.3-.842.677-.502 1.628-1.199 2.114-1.548.487-.349 1.438-1.047 2.115-1.552a310.8 310.8 0 0 1 2.783-2.041c.853-.619 1.677-1.219 1.829-1.334.27-.202 1.102-6.696 1.403-10.958.055-.779.769-7.362 1.585-14.63.817-7.267 1.485-13.398 1.485-13.625v-.412h-5c-4.914 0-5 .006-5 .339" fill="#d6a354"/></g></svg>