<svg width="400" height="329.384" xmlns="http://www.w3.org/2000/svg" display="block"><g fill-rule="evenodd"><path d="M193.246.161c-7.407.685-14.767 3.897-19.65 8.575-10.628 10.181-13.098 14.568-13.891 24.676-.226 2.869-.032 8.568.303 8.902.162.162 6.793 1.465 8.357 1.642 2.449.277 9.704 1.515 16.114 2.75 25.411 4.894 32.677 3.924 46.327-6.183 2.411-1.785 4.703-3.446 5.094-3.691 2.796-1.748 8.389-6.968 11.189-10.444 2.609-3.238 2.997-3.458 7.887-4.48 1.108-.231 2.111-.505 2.229-.609.641-.562-8.55-9.316-12.286-11.702-6.236-3.983-21.156-8.062-34.137-9.333-2.06-.202-15.606-.281-17.536-.103m49.408 16.642c1.108.264 2.473.622 3.033.796l1.019.316-1.256.38c-.69.21-3.282.986-5.758 1.725-7.804 2.33-10.545 3.467-10.545 4.372 0 .637.833.76 3.359.494 2.1-.222 7.605-.288 6.357-.077-.326.055-1.986.462-3.688.904-12.136 3.15-14.003 5.849-4.444 6.423l2.65.159-2.295 1.746c-1.262.96-3.713 2.838-5.446 4.172-6.622 5.098-10.833 6.171-23.507 5.991-7.7-.11-7.388.087-4.718-2.978 10.197-11.711 23.158-21.874 30.686-24.062 4.053-1.178 10.452-1.337 14.553-.361m4.344 15.728c-3.341 5.786-8.796 10.767-13.408 12.245-1.133.363-1.12.448.24 1.485 5.189 3.957 7.388 7.394 11.87 18.552 4.685 11.664 7.976 27.563 7.225 34.906-1.487 14.525-3.918 20.142-10.024 23.16-1.743.861-2.23 1.292-1.46 1.292 1.048 0 4.868-2.219 6.312-3.666 3.305-3.314 5.544-11.071 6.158-21.334.138-2.317.3-3.027 1.448-6.379 1.19-3.475 2.02-7.002 2.708-11.512.479-3.134.564-15.455.138-19.916-1-10.492-2.576-15.656-8.581-28.117-1.39-2.885-1.376-2.881-2.626-.716m-93.799 1.996c-6.029 1.554-11.662 10.26-14.576 22.53-1.608 6.771-.895 18.58 2.026 33.557.377 1.931.652 4.317.728 6.305.612 16.118 3.74 23.718 10.993 26.704 2.199.905 2.754.553.658-.419-2.2-1.02-4.601-2.733-5.34-3.81-1.555-2.267-3.115-6.173-3.493-8.744a55.997 55.997 0 0 0-.476-2.593c-.964-4.639-1.814-12.673-1.521-14.383.108-.626.57-3.271 1.028-5.878.457-2.606.897-5.219.977-5.805 1.989-14.572 7.278-29.131 13.054-35.939 1.287-1.517 1.346-.957-.709-6.716-1.86-5.212-1.848-5.195-3.349-4.809m99.201 89.864c-1.725 5.755-8.637 17.982-12.441 22.005-5.924 6.266-12.222 8.348-18.903 6.25-4.679-1.468-7.274-1.521-13.499-.271-7.279 1.461-11.423 1.45-17.572-.045-3.986-.97-7.732-1.048-10.601-.223-7.327 2.108-13.013 1.525-17.969-1.842-8.966-6.092-13.551-11.83-16.589-20.763-.718-2.111-.824-2.539-1.124-4.539-.335-2.235-.53-1.648-1.267 3.816-.934 6.921-2.519 14.542-4.737 22.779-1.58 5.866-1.926 17.783-.659 22.74 1.283 5.024 1.882 6.232 9.257 18.65 1.451 2.443 2.702 4.442 2.78 4.443.078.001.206-1.057.285-2.353.161-2.64.709-4.523 2.337-8.036l1.027-2.217.009 6.008c.021 14.154 2.84 19.384 15.227 28.247 2.42 1.731 2.418 1.73 2.418 1.221 0-.196-.095-.356-.212-.356-.398 0-2.141-3.906-2.644-5.924-.478-1.919-.978-9.479-.627-9.479.073 0 .695 1.04 1.382 2.311 8.913 16.487 17.004 25.389 28.269 31.103 4.102 2.081 4.053 2.136 1.91-2.139-2.906-5.799-4.614-10.908-4.622-13.824-.004-1.259 1.184-10.668 1.327-10.516.029.031.225 1.709.436 3.729.718 6.891.861 7.839 1.474 9.784 1.763 5.59 3.987 8.036 10.089 11.095 3.981 1.996 3.92 2.094 1.568-2.514-3.561-6.978-3.637-7.16-5.023-11.908-.729-2.496-.638-2.457.727.31 1.336 2.708 2.803 4.265 5.563 5.907 2.213 1.317 2.401 1.275 1.32-.297-1.393-2.025-1.867-3.656-1.788-6.157l.069-2.177 1.303 1.901a423.588 423.588 0 0 0 2.726 3.913l1.421 2.012.937-.139c5.757-.857 13.744-5.761 16.936-10.4 2.447-3.556 6.823-12.023 8.679-16.791.494-1.271.921-2.284.948-2.252.027.033-.261 1.712-.64 3.732-.936 4.994-1.057 6.266-.57 5.993.99-.554 4.959-4.303 7.472-7.06a849.272 849.272 0 0 1 3.558-3.884c1.963-2.108 5.522-8.002 6.066-10.046.434-1.631.424-6.659-.021-10.003-.465-3.494-1.949-11.325-2.381-12.559-.091-.261.501.521 1.316 1.737 1.578 2.353 2.369 4.391 2.369 6.104 0 1.648.398 1.257 1.895-1.858 3.182-6.626 3.233-9.411.301-16.41-1.078-2.574-2.552-6.97-4.17-12.441-.812-2.743-2.661-10.252-3.587-14.56-.893-4.16-1.013-4.283-1.755-1.807m-99.319 6c.001 3.37 1.883 10.533 3.34 12.714 1.636 2.451 7.19 7.226 9.921 8.53l1.786.853 3.554-.023c4.094-.026 6.052-.375 12.662-2.252 12.094-3.435 15.208-3.472 27.166-.321 15.596 4.11 18.611 3.82 25.694-2.476 4.981-4.428 5.718-5.817 6.86-12.937.271-1.695.55-3.427.619-3.851.184-1.132-.145-.952-1.41.77-3.663 4.989-7.415 6.826-14.008 6.858-3.286.016-4.112-.273-8.056-2.827-9.216-5.965-14.284-6.834-20.854-3.576l-2.132 1.058-2.607-1.303c-5.981-2.992-9.917-2.215-19.431 3.837-4.259 2.709-4.586 2.827-7.82 2.813-6.652-.027-10.447-1.94-13.998-7.053-1.013-1.46-1.287-1.633-1.286-.814m-4.287 20.559a226.414 226.414 0 0 1 3.058 4.846 340.954 340.954 0 0 0 2.65 4.275c2.467 3.901 3.627 6.088 4.069 7.673.679 2.436 1.759 6.995 2.326 9.824.481 2.395 2.924 10.092 3.634 11.447.263.502.264.882.002 2.266-.389 2.059-.821 8.617-.675 10.242.06.661.167 2.322.239 3.69l.13 2.488-1.13-1.281c-2.541-2.881-3.661-4.666-3.957-6.306a125.08 125.08 0 0 0-.721-3.313c-1.281-5.626-2.708-16.161-2.651-19.575l.038-2.277-1.422.077c-2.395.129-2.869.287-3.733 1.243-1.045 1.158-1.918 2.982-2.568 5.366a128.148 128.148 0 0 1-.628 2.251c-.155.499-3.177-6.158-3.483-7.675-.055-.275-.434-1.46-.842-2.633-3.511-10.104-3.475-16.259.16-27.2l.856-2.578 1.446 2.223 3.202 4.927m31.565 58.274c2.241 5.133 4.366 9.575 6.018 12.577l1.108 2.014-5.134-5.095c-5.969-5.924-6.666-7.017-7.489-11.743-.279-1.603-.176-6.938.156-8.094.155-.539 2.975 4.921 5.341 10.341m214.309 60.828c-1.173.187-2.826.439-3.673.559-.847.119-2.606.388-3.91.596-1.303.209-3.116.474-4.028.591-.912.116-2.672.38-3.91.586-1.238.206-2.998.475-3.91.598-.912.123-2.725.385-4.028.583-1.304.198-2.397.362-2.429.364-.033.003-.06 12.274-.06 27.27v27.265l10.249-.073 10.249-.073 1.855-.657c4.402-1.557 6.946-4.312 8.365-9.059.626-2.095.8-40.85.197-43.839-.985-4.877-1.41-5.28-4.967-4.711m-7.455 3.704c2.506 1.264 2.583 1.93 2.583 22.334 0 23.614.237 22.867-7.263 22.867h-3.623v-45.734h3.623c3.285 0 3.721.049 4.68.533m-43.137 3.89c-.456.045-1.736.235-2.844.423-1.108.189-2.84.476-3.85.639l-1.837.296v49.432h27.014v-9.479h-16.824v-20.734c0-19.604-.023-20.733-.415-20.697-.228.021-.788.075-1.244.12m-19.668 2.96a481.94 481.94 0 0 1-6.077.937l-1.931.288-.094 3.456c-.165 6.051-1.228 7.223-6.824 7.524l-2.847.153v-9.707l-1.126.185c-.619.101-2.094.35-3.278.551-1.184.202-2.429.367-2.767.367-.337 0-1.154.125-1.816.278l-1.203.278v43.52h10.19v-26.373l2.748.164c6.57.393 6.972 1.234 7.211 15.072.106 6.16.258 9.664.444 10.248l.283.889h5.346c4.994 0 5.335-.027 5.186-.415-.755-1.953-.905-3.773-1.073-12.974-.186-10.149-.257-10.774-1.537-13.466-.812-1.708-1.881-2.923-3.483-3.959l-1.371-.886.746-.309c3.298-1.366 5.36-5.936 5.578-12.363l.127-3.732-.565.031c-.31.017-1.151.126-1.867.243m-37.797 5.672c-.521.113-1.747.314-2.725.448-.977.134-2.737.38-3.91.545l-2.132.302-.129 13.974c-.14 15.327-.13 15.22-1.599 16.785-2.389 2.544-6.97 1.576-8.265-1.748-.373-.956-.423-2.389-.5-14.293-.078-12.215-.115-13.218-.478-13.079-.41.157-3.918.707-6.811 1.067-.917.115-1.961.282-2.319.372l-.652.163.075 13.302c.066 11.778.122 13.464.487 14.723 2.003 6.924 6.881 10.308 14.859 10.308s12.848-3.379 14.861-10.308c.442-1.523.798-32.855.372-32.793-.102.015-.612.12-1.134.232m-41.232 6.18c-3.423.614-5.315.907-5.853.907-.717 0-.55-1.042-1.755 10.952-.494 4.916-.927 8.909-.962 8.875-.035-.035-.491-4.313-1.014-9.506-1.089-10.818-.812-9.68-2.289-9.399-.638.122-2.12.347-3.293.5a70.763 70.763 0 0 0-3.317.508c-1.105.216-2.268.379-6.369.897-2.073.261-1.847-.421-2.617 7.896-.922 9.973-.864 9.932-1.764 1.228-.957-9.253-.724-8.357-2.108-8.126-1.874.312-5.797.899-6.929 1.036-.586.071-1.206.216-1.377.323-.267.166 2.158 24.124 2.936 28.998l.141.889h14.116l.13-.889c.072-.488.856-7.736 1.744-16.106.888-8.369 1.68-15.141 1.76-15.047.081.093.863 6.941 1.74 15.217.876 8.276 1.652 15.448 1.725 15.936l.131.889h13.642l.141-.889c.146-.919 3.929-34.766 3.929-35.15 0-.255-.842-.234-2.488.061m-70.063 10.504c-.146.146-7.809 1.293-9.127 1.367-.153.008.074.451.505.983 5.129 6.328 3.688 14.771-2.442 14.309-3.665-.277-4.756-2.07-4.768-7.832l-.005-3.021h-9.953v2.226c0 12.467 4.771 18.136 15.284 18.16 6.795.016 11.196-2.304 13.548-7.143 2.258-4.644 2.38-12.386.274-17.449l-.714-1.718h-1.242c-.683 0-1.295.053-1.36.118m-52.923 7.98c-1.365.247-4.984.815-7.227 1.136-4.178.598-6.411 1.055-6.32 1.293.054.14.991 3.587 2.083 7.659l1.986 7.405 5.391.001h5.391v-8.886c0-4.888-.027-8.872-.06-8.854-.032.018-.592.129-1.244.246M98.697 314.5c-3.647.669-5.131.903-5.73.906a5.8 5.8 0 0 0-1.202.146l-.533.143v12.741h9.242v-7.109c0-5.547-.065-7.102-.296-7.076-.163.018-.83.13-1.481.249m-17.654 2.719c-1.108.164-2.844.404-3.858.535-1.014.13-1.928.289-2.031.352-.104.064-.634.143-1.178.175-.545.032-.99.069-.99.083 0 .014.32 2.147.711 4.74.391 2.593.711 4.854.711 5.023 0 .245 1.111.309 5.336.309h5.336l-.123-.533c-.068-.293-.493-2.867-.945-5.719-.452-2.853-.852-5.204-.888-5.225-.037-.021-.974.096-2.081.26m-22.631 3.386a96.25 96.25 0 0 1-2.962.453c-1.946.271-5.211.797-5.215.84 0 .012-.213 1.248-.472 2.747-.259 1.498-.471 2.965-.472 3.258l-.002.533h9.457l.131-.77c.154-.909 1.076-7.081 1.076-7.203 0-.107-.363-.074-1.541.142m-17.417 2.632l-2.962.414c-.912.127-2.378.368-3.258.535l-1.6.304v3.946h9.716v-2.725c0-2.041-.074-2.716-.296-2.69-.163.019-.883.116-1.6.216m-15.758 2.362c-.652.097-2.091.296-3.199.444-1.108.147-2.441.37-2.962.495-.521.125-1.401.23-1.955.234-1.043.005-1.129.119-.858 1.131.142.531.161.533 5.077.533h4.934l.153-1.126c.084-.619.205-1.312.268-1.54.063-.228.027-.4-.08-.381-.106.018-.726.113-1.378.21m-17.417 2.6c-.529.169-.497.192.296.213.489.013.889-.083.889-.213 0-.271-.338-.271-1.185 0" fill="#fff"/><path d="M162.441 80.241c-5.264.546-8.053.903-12.145 1.554l-4.798.763v5.048c0 4.815.021 5.048.453 5.048.396 0 .473.236.6 1.837 1.238 15.539 7.911 23.46 20.155 23.924 16.378.62 20.605-2.543 26.651-19.94a163.08 163.08 0 0 1 1.077-3.037c.149-.371.57-.414 4.002-.414h3.836l1.239 3.863c2.27 7.078 6.342 14.428 9.138 16.496 4.509 3.335 18.089 4.249 24.782 1.668C244.664 114.262 250 104.809 250 94.784c0-1.119.129-1.691.528-2.336.684-1.106.831-8.963.18-9.614-.575-.575-7.484-1.701-14.641-2.387-10.395-.996-21.735.402-27.932 3.442l-2.41 1.182h-14.823l-2.027-1.042c-5.323-2.736-18.45-4.617-26.434-3.788m14.573 5.092c11.955.905 14.633 4.387 11.758 15.291-2.836 10.757-6.809 13.927-17.445 13.917-12.972-.012-19.449-6.258-19.428-18.733.016-9.588 5.672-11.947 25.115-10.475m53.199-.125c13.365.598 16.883 4.439 13.765 15.029-3.251 11.039-6.628 14.027-16.253 14.377-13.565.493-20.457-5.692-20.602-18.485-.047-4.173.402-5.718 2.243-7.705 2.961-3.199 7.069-3.833 20.847-3.216m-69.755 178.19c-6.801 1.476-10.458 6.942-10.458 15.63 0 8.367 2.157 12.173 12.279 21.668l3.63 3.405 2.057-.271c5.356-.704 9.228-1.324 9.409-1.505.575-.575-3.343-5.001-10.343-11.685-5.276-5.038-6.744-7.835-6.567-12.511.155-4.074 1.474-5.609 4.819-5.609 3.495 0 4.687 1.506 4.822 6.094l.085 2.903h9.97l-.134-3.259c-.474-11.494-8.165-17.334-19.569-14.86m107.183.088c-8.203 2.21-10.532 6.616-10.532 19.921v7.123l.533-.124c.663-.155 3.309-.551 5.519-.827.917-.115 1.93-.263 2.251-.329.321-.066.877-.183 1.235-.259l.652-.137.007-4.913c.014-9.542.874-11.429 5.206-11.429 4.228 0 5.19 1.966 5.206 10.637l.007 4.121 1.363-.145c.749-.08 2.429-.315 3.732-.521 1.303-.207 2.956-.45 3.673-.54l1.303-.164.067-4.739c.141-10.084-2.561-15.128-9.29-17.341-2.626-.863-8.324-1.037-10.932-.334m-134.94 5.116v5.095h1.896c1.043 0 1.893.08 1.89.177-.004.098-.581 2.128-1.282 4.511l-1.275 4.333 2.247-.068 2.248-.067 2.115-4.833 2.114-4.832v-9.411h-9.953v5.095M0 296.087v32.349h2.547c1.401 0 3.384-.16 4.405-.355 1.022-.196 1.901-.356 1.955-.356.054 0 .107-9.677.117-21.505l.02-21.504 3.483 20.853 3.484 20.853 1.295-.024c.713-.013 2.416-.207 3.784-.431 1.369-.224 3.163-.498 3.988-.607.825-.11 1.549-.249 1.608-.309.06-.059 1.518-9.389 3.24-20.733l3.131-20.625.06 20.264.061 20.264.554-.139c.536-.134 4.197-.688 7.186-1.087.804-.108 1.577-.267 1.718-.353.18-.112.255-8.808.255-29.528v-29.37H28.498l-.12.77c-.065.424-1.599 10.576-3.407 22.562-1.809 11.985-3.321 21.582-3.361 21.327-.04-.256-1.695-10.382-3.68-22.503l-3.607-22.037-7.162-.063L0 263.737v32.35m59.479-32.216c0 .069-2.019 12.732-4.485 28.139-2.467 15.408-4.52 28.334-4.562 28.725-.096.894-.573.918 7.797-.39 1.893-.296 1.839-.234 2.092-2.395l.16-1.362h12.17l.229.77c.126.423.337.752.468.729 1.066-.183 5.569-.846 7.081-1.043 2.174-.283 2.742-.523 2.606-1.105-.053-.23-1.91-11.774-4.125-25.655-2.216-13.88-4.09-25.53-4.166-25.888l-.137-.652h-7.564c-4.16 0-7.564.057-7.564.127m31.753 25.697v25.823l.652-.099c.358-.055 1.505-.218 2.547-.363 1.043-.145 2.828-.43 3.968-.635l2.072-.371.06-15.668.061-15.668 4.005 14.927c4.541 16.927 3.972 15.403 5.627 15.08.698-.136 2.442-.419 3.876-.629 6.281-.919 8.687-1.298 9.182-1.446.391-.117.415-1.44.415-23.45v-23.325h-9.239l-.061 18.875-.061 18.875-4.924-18.342a19952.506 19952.506 0 0 1-5.063-18.875l-.139-.533H91.232v25.824m110.44-25.054c.007.424.838 8.128 1.847 17.121l1.834 16.351 1.293-.051a26.394 26.394 0 0 0 2.714-.284 186.61 186.61 0 0 1 3.342-.507c1.056-.149 2.048-.351 2.205-.448.246-.152-2.706-30.153-3.191-32.419-.113-.532-.121-.533-5.085-.533h-4.972l.013.77m20.025.233c-.388 2.914-2.997 31.283-2.888 31.393.071.07 1.12-.038 2.331-.241 1.21-.203 3.054-.492 4.097-.643 1.879-.273 4.328-.652 7.641-1.184.945-.152 1.76-.346 1.813-.432.052-.086-.566-6.821-1.373-14.967l-1.468-14.81-5.009-.064-5.01-.064-.134 1.012m20.238-.825c-.004.098-.684 6.682-1.509 14.633-.826 7.95-1.461 14.5-1.411 14.556.05.056 1.182-.072 2.516-.284 1.335-.213 3.31-.522 4.39-.689 1.65-.254 1.98-.379 2.065-.782.146-.696 2.963-26.446 2.963-27.079l-.001-.533h-4.503c-2.476 0-4.505.08-4.51.178m54.51 10.251c0 9.846.025 10.449.415 10.335.228-.066.948-.184 1.6-.261a69.442 69.442 0 0 0 2.488-.354 300.91 300.91 0 0 1 3.08-.484c.978-.148 1.964-.322 2.192-.386.378-.106.415-.549.415-4.958v-4.842l3.258.001c5.101.001 6.154.969 6.399 5.879l.122 2.445.976-.145c2.85-.421 6.141-.93 7.61-1.175l1.659-.277.07-1.717c.278-6.841-2.781-11.831-8.425-13.74l-1.835-.621-10.012-.079-10.012-.078v10.457m39.1-2.938v7.491l.889-.171a52.139 52.139 0 0 1 2.31-.362c2.623-.353 6.395-.948 6.694-1.056.228-.083.297-1.652.297-6.75v-6.643h-10.19v7.491m33.175-2.53v4.962l.889-.117a160.78 160.78 0 0 0 2.903-.438c1.108-.176 2.867-.443 3.91-.592 1.042-.149 2.855-.417 4.028-.595 1.173-.178 2.879-.434 3.792-.569 1.748-.259 5.663-.846 8.057-1.208 5.99-.906 5.702-.695 3.666-2.675-3.41-3.316-5.326-3.719-17.707-3.725l-9.538-.004v4.961M68.923 291.647c1.219 8.178 2.272 15.163 2.34 15.521l.123.652h-9.597l.12-.652c.067-.358 1.119-7.343 2.338-15.521 1.22-8.178 2.272-14.87 2.338-14.869.067 0 1.119 6.691 2.338 14.869" fill="#d6a354"/><path d="M250.664 82.749c.156.156.295.716.308 1.244l.024.96.187-.787c.235-.993.056-1.702-.429-1.702-.291 0-.312.064-.09.285m.284 7.906c0 .595-.111 1.289-.245 1.541-.193.36-.168.458.118.458.29 0 .364-.313.364-1.54 0-.847-.053-1.541-.119-1.541-.065 0-.118.487-.118 1.082m145.261 178.931l-1.304.306 1.276-.104c1.181-.097 1.672-.246 1.43-.433-.055-.042-.686.062-1.402.231m-4.147.56c-.522.105-2.121.364-3.555.576-3.37.498-5.422.804-8.057 1.2-1.173.177-2.879.431-3.791.564-7.218 1.057-8.034 1.195-7.898 1.33.053.053 1.158-.063 2.457-.257 1.298-.195 3.107-.454 4.019-.577.912-.123 2.672-.392 3.91-.598a127.55 127.55 0 0 1 3.91-.586c.912-.117 2.725-.382 4.028-.59 1.304-.208 3.116-.484 4.029-.612a78.114 78.114 0 0 0 2.725-.433l1.066-.198-.948-.005a11.476 11.476 0 0 0-1.895.186m-47.986 7.269l-1.54.297 1.499-.091c1.339-.081 1.966-.244 1.68-.436-.054-.037-.792.067-1.639.23m-4.029.558c-.586.106-1.846.317-2.799.47-.954.153-1.674.338-1.601.411.128.128 1.8-.116 5.23-.763.912-.172 1.339-.312.948-.311-.391 0-1.191.088-1.778.193M325 280.209c-.912.169-2.618.449-3.791.622s-1.922.358-1.664.41c.257.052 1.164-.021 2.014-.162.85-.141 2.372-.382 3.382-.535 1.01-.154 1.836-.371 1.836-.483 0-.112-.026-.193-.059-.181a66.5 66.5 0 0 1-1.718.329m-8.175 1.308c-.829.265.497.265 1.54 0l.711-.181-.83-.005c-.456-.002-1.096.081-1.421.186m-11.967 1.792l-1.422.319 1.396-.094c.768-.052 1.509-.207 1.647-.345.298-.298.216-.292-1.621.12m-3.48.463c-.068.068-1.072.238-2.231.379-1.16.141-2.269.359-2.465.484-.253.163-.152.19.356.097a72.109 72.109 0 0 1 2.607-.377c1.042-.135 2.269-.338 2.725-.451l.829-.206-.849-.024c-.467-.014-.904.031-.972.098m-16.544 2.489c-1.262.293-5.72.944-6.457.944-.359-.001-.652.089-.652.199 0 .109.986.056 2.192-.119 1.206-.175 2.992-.427 3.969-.56.978-.134 2.204-.334 2.725-.447l.948-.205-.948-.002a9.331 9.331 0 0 0-1.777.19m-18.957 2.873a49.82 49.82 0 0 1-2.725.438c-4.022.532-5.474.78-5.806.991-.248.157-.143.18.347.075.386-.083 1.452-.244 2.369-.359 3.634-.452 6.574-.946 6.955-1.168.471-.275.293-.272-1.14.023m-21.09 3.173c-1.316.253-1.403.297-.593.306.522.006 1.588-.134 2.37-.31 1.872-.421.422-.418-1.777.004m-4.503.711c-1.128.217-1.318.3-.711.311.457.008 1.47-.129 2.252-.306 1.793-.404.56-.409-1.541-.005m-6.99.947c-.782.169-2.374.443-3.538.61-1.165.166-1.974.349-1.799.407.664.222 6.877-.827 6.877-1.16 0-.121-.027-.208-.059-.192-.033.015-.699.166-1.481.335m-8.768 1.357c-2.95.475-4.838.886-3.554.774 1.851-.162 4.892-.59 5.805-.817l.83-.207-.83.01c-.456.006-1.469.114-2.251.24m-11.137 1.74l-1.422.319 1.396-.099c.768-.054 1.509-.211 1.647-.349.293-.293.244-.289-1.621.129m-3.464.438c-.058.058-1.089.232-2.29.386-1.202.154-2.185.384-2.185.512 0 .127.187.159.415.071.228-.088 1.268-.263 2.31-.388 1.043-.125 2.269-.32 2.725-.433l.83-.206-.849-.024c-.467-.014-.897.023-.956.082m-34.57 5.245c-2.49.407-4.71.733-7.396 1.086-1.135.149-2.008.363-1.938.475.069.112.211.151.316.087.104-.065 1.03-.221 2.057-.348a136.81 136.81 0 0 0 4.236-.614c1.304-.211 2.983-.443 3.733-.514.749-.072 1.362-.224 1.362-.339 0-.115-.08-.198-.178-.185-.097.013-1.084.172-2.192.352m-53.436 8.061l-1.421.319 1.396-.099c.768-.054 1.509-.211 1.647-.349.293-.293.244-.289-1.622.129m-4.028.571c-.521.104-1.908.329-3.081.5-1.173.172-1.921.354-1.663.406.257.052 1.217-.031 2.132-.186 3.375-.569 4.963-.907 4.271-.908-.391 0-1.138.084-1.659.188m-8.175 1.301c-1.415.41-.496.42 1.303.014 1.128-.255 1.25-.321.592-.322-.456-.001-1.309.138-1.895.308m-11.375 1.658c-1.12.26-1.187.304-.474.311.456.005 1.256-.132 1.778-.304 1.207-.398.401-.402-1.304-.007m-3.91.593c-.391.099-1.137.195-1.658.212-.522.018-1.106.132-1.299.254-.443.28 1.926.06 3.905-.362 1.061-.226 1.211-.301.593-.294-.457.005-1.15.09-1.541.19m-11.747 1.664c-.202.113-1.215.316-2.249.451-1.034.134-3 .42-4.369.634-1.368.215-2.616.395-2.774.4-.157.006-.24.084-.184.174.055.089.663.064 1.352-.056.688-.12 1.891-.306 2.673-.413l3.554-.488c1.947-.268 2.747-.528 2.471-.804-.058-.058-.271-.012-.474.102m-24.983 3.817c-5.363.93-5.327.922-3.673.792 1.982-.155 5.678-.734 5.862-.918.183-.183-.696-.133-2.189.126m-7.464 1.213c0 .226.887.19 1.659-.066.462-.153.344-.187-.533-.154-.619.023-1.126.122-1.126.22m-8.294 1.167c-.456.102-1.789.344-2.962.539-1.253.209-1.595.31-.829.245 2.202-.186 4.514-.521 4.67-.677.261-.261-.028-.296-.879-.107m-7.82 1.21c-.586.139-.906.29-.711.335.196.046 1.049-.068 1.896-.254 1.135-.248 1.322-.336.711-.335-.456.001-1.309.115-1.896.254m-9.36 1.376c-.782.109-1.902.306-2.488.438l-1.066.24 1.303-.121c2.302-.213 4.007-.478 4.178-.648.189-.189.041-.182-1.927.091m-5.485.839c-.15.062-.95.2-1.778.307-1.353.175-1.397.197-.438.215.586.011 1.706-.125 2.488-.301.908-.205 1.165-.323.711-.327-.391-.003-.834.045-.983.106m-12.287 1.861c-1.132.238-1.253.302-.593.311.456.007 1.256-.128 1.777-.3 1.197-.394.661-.399-1.184-.011" fill="#e7c898"/></g></svg>