<?xml version="1.0" encoding="UTF-8" standalone="no"?>
<svg
   xmlns:dc="http://purl.org/dc/elements/1.1/"
   xmlns:cc="http://creativecommons.org/ns#"
   xmlns:rdf="http://www.w3.org/1999/02/22-rdf-syntax-ns#"
   xmlns:svg="http://www.w3.org/2000/svg"
   xmlns="http://www.w3.org/2000/svg"
   viewBox="0 0 817.33331 701.33331"
   height="701.33331"
   width="817.33331"
   xml:space="preserve"
   id="svg2"
   version="1.1"><metadata
     id="metadata8"><rdf:RDF><cc:Work
         rdf:about=""><dc:format>image/svg+xml</dc:format><dc:type
           rdf:resource="http://purl.org/dc/dcmitype/StillImage" /></cc:Work></rdf:RDF></metadata><defs
     id="defs6" /><g
     transform="matrix(1.3333333,0,0,-1.3333333,0,701.33333)"
     id="g10"><g
       transform="scale(0.1)"
       id="g12"><path
         id="path14"
         style="fill:#f2cb05;fill-opacity:1;fill-rule:evenodd;stroke:none"
         d="m 2895.6,4000.52 -793.66,458.23 270.47,34.65 c 176.5,17.8 256.6,150.13 256.32,265.85 -0.36,139.21 -99.94,249.48 -236.97,262.55 -872.46,97.8 -926.52,117.77 -1092.81,73.33 -1.18,-0.31 -149.27,-40.81 -149.24,-40.79 -86.47,-23.57 -289.319,126.56 -347.745,152.73 -14.152,6.36 -78.711,49.99 -162.731,49.99 -129.906,0 -190.832,-99.64 -197.683,-111.56 C 201.055,4719.51 285.395,4867.18 47.1914,4454.58 -45.7539,4293.54 15.3047,4147.05 126.621,4083.66 v 0.01 c 0,0 22.93,-13.23 23,-13.28 146.699,-94.66 267.688,-125.65 308.512,-225.28 l 47.965,-152.91 c 21.34,-67.61 90.941,-165.19 208.644,-232.99 1241.898,-715.79 1163.298,-687.16 1260.238,-687.16 124.16,0 231.94,87.54 257.2,209.29 l 56.18,-32.43 c 165.5,-95.57 372.71,12.96 392.19,199.68 221.95,-20.82 369.06,229.8 238.7,413.42 154.03,112.11 139.86,344.31 -23.65,438.51 z m 992.94,-2280.75 c 49.62,0 89.85,40.22 89.85,89.85 v 487.97 c 0.03,177.8 -174.78,305.54 -344.86,248.97 v 64.99 c 0,189.38 -195.88,317.08 -369.06,239.83 -93.74,203.74 -383.35,203.83 -477.15,0.03 -172.75,77.1 -368.28,-50.39 -368.15,-239.72 v -916.46 l -165.22,216.91 c -202.93,281.79 -596.85,36.2 -467.28,-247.47 416.9,-954.068 335.97,-837.514 592.85,-1091.932 35.87,-35.527 41.41,-123.418 42.09,-203.933 -0.01,-3.289 -0.58,-125.067 -0.46,-128.305 4.43,-109.609 72.65,-237.60547 250.33,-237.60547 886.04,0 838.01,-0.32422 845.72,0.57031 103.7,11.70316 214.5,85.40626 214.5,257.50816 -0.14,305.894 -18.31,253.168 149.24,435.465 46.6,50.753 97.59,159.312 97.47,297.191 l -0.29,396.771 c -0.04,49.6 -40.26,89.78 -89.85,89.78 -49.64,0 -89.89,-40.26 -89.86,-89.92 l 0.29,-396.787 c 0.1,-95.602 -31.95,-151.821 -52.25,-177.817 L 3638.6,698.324 c -33.07,-35.941 -86.78,-130.972 -86.69,-242.144 0.11,-219.938 13.05,-264.774 -50.33,-273.575 h -830.11 c -86.05,0 -70.75,50.266 -70.14,186.997 -1.01,115.375 -9.29,245.589 -95.37,330.839 -225.85,223.692 -146.06,101.235 -554.94,1036.939 -20.81,47.73 -1.46,87.38 34.79,108.44 49.12,28.52 90.46,3.44 124.4,-41.53 l 327.33,-429.72 c 23.36,-30.68 63.66,-43 100.22,-30.69 36.53,12.33 61.13,46.6 61.13,85.13 v 1182.78 c -0.04,45.48 36.72,82.51 81.9,82.54 45.46,0.04 82.54,-36.91 82.57,-82.42 V 1582.76 c 0,-49.63 40.24,-89.85 89.85,-89.85 49.63,0 89.85,40.22 89.85,89.85 0,519.99 0.08,1134.24 0.08,1159.31 0,45.64 37.13,82.75 82.75,82.75 45.63,0 82.74,-37.12 82.74,-82.75 0,-108.02 0,-1048.19 0,-1159.31 0,-49.63 40.23,-89.85 89.85,-89.85 49.63,0 89.86,40.22 89.86,89.85 v 1028.82 c 0,45.64 37.12,82.75 82.74,82.75 45.62,0 82.74,-37.12 82.74,-82.75 l -0.01,-288.83 v -25.16 -714.86 c 0,-49.63 40.23,-89.85 89.85,-89.85 49.63,0 89.86,40.22 89.86,89.85 v 714.86 c 0,45.55 37.06,82.59 82.63,82.59 45.53,0 82.56,-37.04 82.56,-82.59 v -487.97 c -0.03,-49.64 40.18,-89.85 89.83,-89.85 z M 6094.2,4415.35 c -1.06,2.2 -2.21,4.35 -3.46,6.45 -30.47,51.63 -124.03,207.05 -408.2,699.3 -75.3,130.38 -214.79,167.19 -355.4,93.74 -1.12,-0.58 -2.22,-1.19 -3.32,-1.82 l -14.12,-8.17 c -1.64,-0.85 -3.2,-1.69 -4.4,-2.4 l -127.25,-73.59 c -42.96,-24.84 -57.66,-79.79 -32.81,-122.74 24.87,-42.96 79.83,-57.64 122.76,-32.82 156.93,90.75 212.16,138.9 258.91,57.94 246.81,-427.51 163.15,-284.22 392.14,-672.12 48.48,-83.24 24.59,-95.96 -114.94,-174.48 -313.57,-176.56 -294.15,-212.44 -354.97,-440.49 -55.07,-181.39 -165.34,-268.22 -582.58,-852.07 -34.09,-48.24 -85.36,-36.92 -110.25,-22.64 -49.06,28.17 -48.22,75.8 -26.25,128.5 l 208.47,498.34 c 33.08,79.08 -53.5,155.36 -127.82,112.49 -1110.9,-641.38 -1040.43,-612.19 -1086.91,-599.82 -70,18.51 -83.38,113.97 -19.75,150.81 l 891.33,514.58 c 42.97,24.82 57.7,79.77 32.88,122.73 -24.8,42.99 -79.78,57.72 -122.73,32.89 -1196.06,-690.54 -513.3,-296.2 -1004.03,-579.6 -39.53,-22.79 -90.21,-9.23 -113.04,30.3 -22.86,39.61 -9.33,90.18 30.29,113.04 166.21,95.96 903.08,521.4 1003.96,579.66 42.97,24.81 57.7,79.76 32.89,122.73 -24.83,42.99 -79.78,57.71 -122.74,32.89 l -891,-514.43 c -39.54,-22.76 -90.21,-9.18 -113.03,30.32 -22.85,39.57 -9.33,90.13 30.31,113.02 467.74,270.06 276.23,159.49 891,514.4 42.97,24.82 57.7,79.76 32.88,122.74 -24.81,42.98 -79.74,57.71 -122.73,32.88 L 3541.02,4070.4 c -39.38,-22.65 -89.92,-9.1 -112.66,30.31 -22.76,39.44 -9.21,90.05 30.25,112.83 1536.1,886.94 -407.5,-236.75 1129.39,652.05 82.72,47.85 147.47,48.2 180.15,43.66 l 15.98,-3.57 c 48.46,-10.83 96.47,19.69 107.26,68.11 10.82,48.42 -19.68,96.45 -68.1,107.26 -4.58,1.02 -20.36,4.66 -24.95,5.37 -55.16,8.56 -167.56,11.48 -300.32,-65.28 -484.37,-280.12 -644.8,-372.26 -1129.26,-651.98 -125.26,-72.31 -168.35,-233.03 -96.05,-358.3 14.43,-24.98 32.37,-46.69 52.84,-64.86 l -56.26,-32.49 c -163.24,-94.22 -177.8,-327.22 -23.27,-439.43 -130.04,-183.31 16.07,-434.06 238.66,-413.34 19.78,-189.42 228.23,-293.52 391.68,-198.95 L 4670,3320 4564.79,3068.47 c -143.53,-318.84 268.54,-532.97 447.97,-280.92 514.19,697.53 566.35,744.05 610,910.11 l -0.03,0.01 c 1.14,4.29 6.85,26.01 39.19,149.23 12.85,48.88 86.17,97.6 155.59,138.44 0,0 158.55,91.52 158.56,91.53 162.52,94.13 167.57,236.56 118.13,338.48 z M 2720.32,3704.3 1832.41,4216.95 c -42.96,24.82 -97.93,10.1 -122.73,-32.88 -24.81,-42.97 -10.09,-97.93 32.88,-122.74 1101.45,-635.93 1030.58,-585.47 1042.51,-629.97 18.99,-70.97 -57.59,-129.91 -121.29,-93.09 -75.28,43.47 -854.15,493.15 -1003.98,579.66 -42.97,24.83 -97.93,10.09 -122.73,-32.88 -24.81,-42.97 -10.09,-97.93 32.88,-122.73 l 891,-514.42 c 0.01,0 0.01,-0.01 0.03,-0.01 72.99,-42.24 42.7,-154.41 -41.58,-154.41 -29.42,0 -16.21,-3.34 -313.1,168.07 0,0 0,0 -0.01,0.01 -0.02,0.01 -0.06,0.03 -0.09,0.05 l -619.02,357.41 c -42.97,24.82 -97.93,10.09 -122.73,-32.88 -24.8,-42.97 -10.09,-97.93 32.88,-122.73 0.09,-0.05 619.16,-357.5 619.25,-357.56 39.12,-22.66 53.02,-72.97 30.08,-112.71 -22.23,-38.49 -72.43,-53.55 -112.85,-30.23 -1215.236,701.62 228.61,-130.61 -1129.38,652.05 -137.196,79.05 -129.739,155.17 -176.535,289.15 -4.411,12.57 -46.555,124.77 -165.395,193.26 -338.094,194.84 -150.691,86.93 -246.437,142.2 -48.782,27.76 -41.168,76.9 -13.223,125.31 238.66,413.31 154.367,265.77 394.137,690.48 74.109,107.42 349.414,-242.82 600.033,-174.37 373.09,101.99 193.32,58.57 1177.24,-38.04 58.84,-5.41 74.65,-55.44 74.72,-84.15 0.15,-56.98 -42.15,-79.79 -98.16,-87 L 1815,4603.17 c -85.06,-10.89 -107.78,-124.06 -33.51,-166.94 1117.58,-645.23 1050.67,-596.15 1062.95,-641.37 18.22,-67.26 -53.09,-131.5 -124.12,-90.56" /></g></g></svg>