<svg xmlns="http://www.w3.org/2000/svg" width="233.184" height="38" viewBox="0 0 233.184 38"><g transform="translate(0 0.001)"><path d="M39.179,23.079V.388H56.885V23.079H51.775V4.7H44.3V23.079Z" fill="#ffa030"/><path d="M71.468,23.531a10.537,10.537,0,0,1-4.19-.822,9.029,9.029,0,0,1-3.251-2.348,10.646,10.646,0,0,1-2.1-3.729,15.124,15.124,0,0,1-.749-4.975A15.052,15.052,0,0,1,61.924,6.7a10.122,10.122,0,0,1,2.1-3.612,8.957,8.957,0,0,1,3.251-2.3,11.594,11.594,0,0,1,8.388,0,8.975,8.975,0,0,1,3.251,2.275,10.537,10.537,0,0,1,2.1,3.675,14.907,14.907,0,0,1,.749,4.921,15.125,15.125,0,0,1-.749,4.975,10.835,10.835,0,0,1-2.1,3.729,9.029,9.029,0,0,1-3.251,2.348,10.555,10.555,0,0,1-4.2.822Zm0-4.424a4.244,4.244,0,0,0,3.693-1.95,9.616,9.616,0,0,0,1.354-5.418,9.084,9.084,0,0,0-1.354-5.418,4.515,4.515,0,0,0-7.377,0,9.084,9.084,0,0,0-1.354,5.318,9.616,9.616,0,0,0,1.354,5.418A4.235,4.235,0,0,0,71.468,19.106Z" fill="#ffa030"/><path d="M85.255,23.531a13.371,13.371,0,0,1-1.5-.054,4.948,4.948,0,0,1-1.147-.28l.9-4.6.47.108a4.153,4.153,0,0,0,.506,0,1.986,1.986,0,0,0,.795-.163,1.571,1.571,0,0,0,.731-.731,8.335,8.335,0,0,0,.713-1.634,24.047,24.047,0,0,0,.749-2.9q.7-3.169,1.291-6.375c.388-2.14.786-4.3,1.183-6.5H103.17v22.7H98.023V4.731H93.906q-.406,2.411-.831,4.632c-.28,1.481-.56,2.98-.84,4.515a35.268,35.268,0,0,1-1.2,4.731,10.637,10.637,0,0,1-1.472,2.98,4.587,4.587,0,0,1-1.887,1.526,6.014,6.014,0,0,1-2.42.415Z" fill="#ffa030"/><path d="M108.5,23.106V.424h5.084v8a38.989,38.989,0,0,1-.244,4.244c-.163,1.49-.307,2.835-.424,4.036h.144l2.221-4.966L121.238.424h5.418V23.106h-5.047V15.07a39.22,39.22,0,0,1,.226-4.172c.153-1.445.28-2.79.4-4.036H122.1l-2.23,4.939-5.95,11.3Z" fill="#ffa030"/><path d="M132.019,23.106V.424h17.716V23.106h-5.12V4.731h-7.476V23.106Z" fill="#ffa030"/><path d="M154.71,23.531a13.49,13.49,0,0,1-1.5-.072,5.066,5.066,0,0,1-1.147-.28l.9-4.6.47.108a4.288,4.288,0,0,0,.506,0,2.059,2.059,0,0,0,.8-.163,1.652,1.652,0,0,0,.731-.731,8.92,8.92,0,0,0,.713-1.634,25.879,25.879,0,0,0,.749-2.9q.686-3.169,1.282-6.375T159.4.388h13.228V23.106h-5.156V4.731h-4.135q-.424,2.411-.84,4.632c-.28,1.481-.551,2.98-.831,4.515a36.7,36.7,0,0,1-1.2,4.731,10.628,10.628,0,0,1-1.481,2.98,4.623,4.623,0,0,1-1.878,1.5,6.059,6.059,0,0,1-2.4.442Z" fill="#ffa030"/><path d="M175.071,23.106l7.1-22.682h6.158l7.1,22.682h-5.418l-1.391-5.418h-6.926L180.3,23.106ZM183.3,11.63l-.56,2.086h4.84l-.524-2.086c-.325-1.138-.632-2.348-.9-3.612s-.6-2.51-.9-3.693H185.1c-.28,1.21-.569,2.447-.858,3.711S183.6,10.492,183.3,11.63Z" fill="#ffa030"/><path d="M207.008,23.531a11.088,11.088,0,0,1-4.063-.749,9.553,9.553,0,0,1-3.4-2.212,10.384,10.384,0,0,1-2.284-3.612,13.887,13.887,0,0,1-.831-5.029,13.725,13.725,0,0,1,.9-5.029,11.323,11.323,0,0,1,2.33-3.738A9.824,9.824,0,0,1,203.08.8a10.709,10.709,0,0,1,4.108-.8,8.443,8.443,0,0,1,3.928.9A10.772,10.772,0,0,1,214,2.962L211.288,6.23a8.461,8.461,0,0,0-1.806-1.3,4.515,4.515,0,0,0-2.176-.506,4.786,4.786,0,0,0-2.176.506,5.1,5.1,0,0,0-1.806,1.445,7.143,7.143,0,0,0-1.183,2.293,10.022,10.022,0,0,0-.433,3.061,8.722,8.722,0,0,0,1.49,5.418,4.813,4.813,0,0,0,4.009,1.932,5.029,5.029,0,0,0,2.483-.6,7.72,7.72,0,0,0,1.932-1.517l2.709,3.205A9.246,9.246,0,0,1,207.008,23.531Z" fill="#ffa030"/><path d="M221.8,23.106V4.731h-6.23V.424h17.616V4.731h-6.23V23.106Z" fill="#ffa030"/><path d="M42.14,31a6.706,6.706,0,0,1,1.219.072v.758H40.867a.641.641,0,0,0-.488.153.74.74,0,0,0-.144.533v5.3h-.993v-5.49a1.345,1.345,0,0,1,.361-.966,1.228,1.228,0,0,1,.9-.379Z" fill="#00bfaf"/><path d="M61.8,31.2a1.246,1.246,0,0,1,.686.65,3.323,3.323,0,0,1,.208,1.309,3.422,3.422,0,0,1-.208,1.327,1.21,1.21,0,0,1-.65.65,3.35,3.35,0,0,1-1.264.19,14.022,14.022,0,0,1-1.49-.09v2.709h-.993V31.088c.352,0,.686-.063,1-.072H60.5a3.711,3.711,0,0,1,1.3.181Zm-.6,3.115a.668.668,0,0,0,.379-.388,2.1,2.1,0,0,0,.117-.8,2.013,2.013,0,0,0-.117-.795.686.686,0,0,0-.379-.4,2.041,2.041,0,0,0-.758-.108H59.079v2.609h1.354A2.185,2.185,0,0,0,61.192,34.312Z" fill="#00bfaf"/><path d="M82.447,31.088l-1.806,5.129a4.271,4.271,0,0,1-.7,1.327,1.3,1.3,0,0,1-1.047.442,3.477,3.477,0,0,1-.587,0,3.233,3.233,0,0,1-.533-.108l.108-.722h.686a1.463,1.463,0,0,0,.506-.072.632.632,0,0,0,.28-.253,4.939,4.939,0,0,0,.28-.6l.108-.28h-.361a.813.813,0,0,1-.451-.117.731.731,0,0,1-.262-.379l-1.544-4.352H78.14l1.318,3.847a.226.226,0,0,0,.208.153h.379l1.4-4.018Z" fill="#00bfaf"/><path d="M102.158,37.923h-.984V31.892h-3v6.032h-.984V31.088h4.966Z" fill="#00bfaf"/><path d="M122.619,37.923h-.984V31.892h-3v6.032h-.984V31.088h4.966Z" fill="#00bfaf"/><path d="M19.576,8.361l-3.567,3.576,9.2,9.2L11.7,34.637l3.35,3.35L32.127,20.912Z" fill="#00bfaf"/><path d="M20.424,3.35,17.075,0,0,17.075,12.551,29.625l3.576-3.567-9.2-9.2Z" fill="#ffa030"/></g></svg>