<svg width="15" height="25" viewBox="0 0 15 25" fill="none" xmlns="http://www.w3.org/2000/svg">
<path fill-rule="evenodd" clip-rule="evenodd" d="M6.27459 0.449647C2.81287 1.93987 0 6.685 0 11.0273C0 16.4142 5.61503 21.9116 5.85389 22.1434C6.07849 22.3608 6.47069 22.1897 6.6953 21.7797C6.93416 21.3448 13.5474 9.75459 13.5474 4.36414C12.2996 1.96081 11.7658 1.60599 10.5171 0.702872C9.39961 -0.105334 7.90946 -0.252453 6.27459 0.449647ZM6.27459 12.2894C4.53482 13.0381 3.56511 11.9895 3.56511 9.80407C3.56511 7.61865 5.03394 5.91809 6.77372 5.16942C8.51349 4.42074 9.43328 4.78123 9.43328 6.96664C9.43328 9.15206 8.01437 11.5407 6.27459 12.2894Z" fill="#3BC6E4"/>
<path fill-rule="evenodd" clip-rule="evenodd" d="M5.79896 21.328C5.79889 21.3279 5.79993 21.3266 5.8023 21.3243C5.80022 21.327 5.79904 21.3281 5.79896 21.328ZM6.0404 20.9014C5.48806 20.3112 4.56753 19.2646 3.66032 17.9504C2.25884 15.9203 1 13.4089 1 11.0273C1 9.06081 1.64116 6.96317 2.69926 5.17905C3.76186 3.38735 5.18728 2.00655 6.66968 1.36829C8.04022 0.779857 9.14723 0.946267 9.93106 1.51316L9.96438 1.53726C10.5858 1.98667 10.9313 2.23647 11.2847 2.6347C11.6243 3.01739 11.9963 3.5693 12.5427 4.60132C12.498 5.756 12.1373 7.27335 11.5627 8.97899C10.955 10.7829 10.1371 12.7144 9.30391 14.5092C7.94738 17.4313 6.57181 19.9457 6.0404 20.9014ZM13.5474 4.36414C13.5474 9.54799 7.43139 20.4654 6.75012 21.6815C6.72297 21.73 6.70445 21.763 6.6953 21.7797C6.47069 22.1897 6.07849 22.3608 5.85389 22.1434C5.61503 21.9116 0 16.4142 0 11.0273C0 6.685 2.81287 1.93987 6.27459 0.449647C7.90946 -0.252453 9.39961 -0.105334 10.5171 0.702872C10.5423 0.721141 10.5673 0.739186 10.592 0.757027C11.7877 1.62118 12.3249 2.00943 13.5474 4.36414ZM3.57472 12.8682C2.81743 12.1408 2.56511 10.9866 2.56511 9.80407C2.56511 7.13686 4.35374 5.12214 6.37844 4.25086C6.85933 4.04391 7.34421 3.88606 7.81111 3.83337C8.28413 3.77999 8.80295 3.82846 9.27219 4.11132C10.2193 4.68228 10.4333 5.84651 10.4333 6.96664C10.4333 8.26444 10.0162 9.5823 9.36626 10.6772C8.72091 11.7644 7.78818 12.7267 6.66988 13.2079C5.58617 13.6743 4.42982 13.6895 3.57472 12.8682ZM3.56511 9.80407C3.56511 11.9895 4.53482 13.0381 6.27459 12.2894C8.01437 11.5407 9.43328 9.15206 9.43328 6.96664C9.43328 4.78123 8.51349 4.42074 6.77372 5.16942C5.03394 5.91809 3.56511 7.61865 3.56511 9.80407Z" fill="#262626"/>
<path fill-rule="evenodd" clip-rule="evenodd" d="M8.05682 2.58881C4.59509 4.07903 1.78223 8.82416 1.78223 13.1665C1.78223 18.5534 7.39725 24.0508 7.63612 24.2825C7.86072 24.5 8.25292 24.3289 8.47752 23.9189C8.71639 23.4839 14.3314 13.1558 14.3314 7.76532C14.3314 3.42301 11.5185 1.10215 8.05682 2.58881ZM8.05682 14.4285C6.31704 15.1772 4.89813 14.0078 4.89813 11.8224C4.89813 9.637 6.31704 7.25197 8.05682 6.5033C9.7966 5.75462 11.2155 6.92039 11.2155 9.1058C11.2155 11.2912 9.7966 13.6799 8.05682 14.4285Z" fill="white"/>
<path fill-rule="evenodd" clip-rule="evenodd" d="M7.81752 23.0351C8.29066 22.1449 9.44342 19.919 10.5764 17.303C11.2846 15.6678 11.9786 13.8948 12.4941 12.2097C13.0141 10.5098 13.3314 8.96519 13.3314 7.76532C13.3314 5.79117 12.6933 4.45345 11.8559 3.76257C11.0563 3.10291 9.89869 2.88628 8.4519 3.50745C6.96951 4.14571 5.54409 5.52651 4.48149 7.31821C3.42339 9.10233 2.78223 11.2 2.78223 13.1665C2.78223 15.5481 4.04107 18.0594 5.44255 20.0896C6.34697 21.3997 7.26462 22.4439 7.81752 23.0351ZM7.58119 23.4672C7.58112 23.4671 7.58216 23.4658 7.58452 23.4635C7.58245 23.4661 7.58126 23.4673 7.58119 23.4672ZM8.05682 2.58881C4.59509 4.07903 1.78223 8.82416 1.78223 13.1665C1.78223 18.5534 7.39725 24.0508 7.63612 24.2825C7.86072 24.5 8.25292 24.3289 8.47752 23.9189C8.71639 23.4839 14.3314 13.1558 14.3314 7.76532C14.3314 3.42301 11.5185 1.10215 8.05682 2.58881ZM5.18878 14.9972C4.31837 14.2793 3.89813 13.1128 3.89813 11.8224C3.89813 10.5245 4.31523 9.20745 4.96537 8.11327C5.61091 7.02681 6.54365 6.06579 7.66154 5.58474C8.81537 5.08821 10.0157 5.18436 10.9241 5.93221C11.7952 6.6493 12.2155 7.81537 12.2155 9.1058C12.2155 10.4036 11.7985 11.7215 11.1485 12.8164C10.5031 13.9036 9.57041 14.8659 8.4521 15.3471C7.29733 15.844 6.0968 15.7461 5.18878 14.9972ZM4.89813 11.8224C4.89813 14.0078 6.31704 15.1772 8.05682 14.4285C9.7966 13.6799 11.2155 11.2912 11.2155 9.1058C11.2155 6.92039 9.7966 5.75462 8.05682 6.5033C6.31704 7.25197 4.89813 9.637 4.89813 11.8224Z" fill="#262626"/>
</svg>
