<svg width="29" height="30" viewBox="0 0 29 30" fill="none" xmlns="http://www.w3.org/2000/svg">
<path d="M12.3889 28.9842L11.0672 28.2067C11.0672 28.2067 10.4121 28.0854 10.4121 27.5366C10.4121 26.9878 11.3946 24.329 11.3946 24.329L13.204 23.6107L13.7327 23.5649L15.1646 24.3881" fill="#3BC6E4"/>
<path d="M14.754 24.0164C15.8085 24.0164 16.3245 25.1228 15.9431 26.5002C15.5617 27.8776 14.3726 28.984 13.3182 28.984C12.2638 28.984 11.7478 27.8776 12.1292 26.5002C12.5106 25.1228 13.6996 24.0164 14.754 24.0164Z" fill="white"/>
<path d="M13.026 23.6762L14.6858 24.3359L12.2969 28.7868C11.8248 28.4981 11.1504 28.0347 10.7326 27.7476C10.7154 27.7358 10.6988 27.7244 10.6825 27.7132C10.6509 27.3907 10.6541 27.0135 10.6878 26.7692L11.7606 25.1188L13.026 23.6762Z" stroke="#262626" stroke-width="0.7"/>
<path d="M13.0498 25.0576C13.5126 24.6221 14.0445 24.3664 14.5291 24.3664C15.004 24.3664 15.3549 24.6114 15.5492 25.0204C15.7463 25.4351 15.7833 26.0241 15.5979 26.6931C15.4133 27.3593 15.0328 27.9606 14.5717 28.3944C14.1089 28.8298 13.577 29.0856 13.0924 29.0856C12.6175 29.0856 12.2666 28.8406 12.0722 28.4316C11.8752 28.0169 11.8382 27.4279 12.0236 26.7588C12.2082 26.0927 12.5887 25.4913 13.0498 25.0576Z" fill="#F7F7F7" stroke="#262626" stroke-width="0.7"/>
<path d="M14.2352 25.3721C14.6858 25.3464 14.8435 25.9395 14.5956 26.6875C14.3478 27.4354 13.8072 28.0544 13.3791 28.0801C12.9511 28.1059 12.7709 27.5128 13.0187 26.7648C13.2665 26.0169 13.8072 25.3979 14.2352 25.3721Z" fill="white"/>
<path fill-rule="evenodd" clip-rule="evenodd" d="M14.6075 25.8373C14.5804 25.8178 14.5395 25.8019 14.4727 25.8051C14.3398 25.8119 14.1475 25.9041 13.9444 26.0994C13.7474 26.2888 13.5676 26.5497 13.4549 26.8355C13.3423 27.1208 13.3385 27.3495 13.3853 27.488C13.408 27.5554 13.4398 27.5945 13.4692 27.6159C13.4966 27.6359 13.5346 27.6502 13.5929 27.6473C13.7259 27.6405 13.9182 27.5483 14.1215 27.3529C14.3185 27.1635 14.4983 26.9026 14.6111 26.6168C14.7248 26.3286 14.7328 26.0994 14.6883 25.9617C14.6669 25.8955 14.6362 25.8579 14.6075 25.8373ZM15.1187 25.8331C15.2038 26.0962 15.1667 26.4304 15.0325 26.7705C14.8973 27.1131 14.6827 27.4262 14.4402 27.6593C14.204 27.8864 13.9118 28.065 13.6166 28.08C13.4608 28.0879 13.3157 28.048 13.1965 27.961C13.0794 27.8755 13.0014 27.7548 12.9565 27.6217C12.868 27.3595 12.8981 27.0248 13.0334 26.6818C13.1686 26.3392 13.3832 26.0261 13.6257 25.793C13.8619 25.5659 14.1541 25.3873 14.4493 25.3723L14.4499 25.3723C14.6084 25.3647 14.7562 25.4029 14.8776 25.4904C14.9975 25.5767 15.0753 25.6989 15.1187 25.8331Z" fill="#262626"/>
<path d="M22.9456 23.2705L21.6238 22.4931C21.6238 22.4931 20.9688 22.3717 20.9688 21.823C20.9688 21.2742 21.9513 18.6154 21.9513 18.6154L23.7606 17.8971L24.2893 17.8513L25.7213 18.6745" fill="#3BC6E4"/>
<path d="M25.3107 18.303C26.3651 18.303 26.8811 19.4094 26.4997 20.7868C26.1183 22.1642 24.9293 23.2706 23.8748 23.2706C22.8204 23.2706 22.3044 22.1642 22.6858 20.7868C23.0672 19.4094 24.2562 18.303 25.3107 18.303Z" fill="white"/>
<path d="M23.5827 17.9626L25.2424 18.6223L22.8535 23.0731C22.3814 22.7845 21.7071 22.3211 21.2892 22.034C21.2721 22.0222 21.2554 22.0107 21.2392 21.9996C21.2075 21.6771 21.2107 21.2998 21.2444 21.0556L22.3172 19.4052L23.5827 17.9626Z" stroke="#262626" stroke-width="0.7"/>
<path d="M23.6064 19.3442C24.0693 18.9087 24.6011 18.653 25.0858 18.653C25.5606 18.653 25.9115 18.898 26.1059 19.307C26.303 19.7217 26.3399 20.3107 26.1545 20.9798C25.97 21.6459 25.5894 22.2473 25.1284 22.681C24.6655 23.1164 24.1337 23.3722 23.649 23.3722C23.1742 23.3722 22.8233 23.1272 22.6289 22.7182C22.4318 22.3035 22.3948 21.7145 22.5802 21.0454C22.7648 20.3793 23.1453 19.7779 23.6064 19.3442Z" fill="#F7F7F7" stroke="#262626" stroke-width="0.7"/>
<path d="M24.7918 19.6585C25.2424 19.6327 25.4001 20.2259 25.1523 20.9738C24.9045 21.7218 24.3638 22.3407 23.9358 22.3665C23.5077 22.3923 23.3275 21.7991 23.5753 21.0512C23.8231 20.3033 24.3638 19.6843 24.7918 19.6585Z" fill="white"/>
<path fill-rule="evenodd" clip-rule="evenodd" d="M25.1641 20.1236C25.137 20.1041 25.0961 20.0883 25.0294 20.0914C24.8964 20.0983 24.7042 20.1905 24.5011 20.3857C24.304 20.5751 24.1243 20.8361 24.0115 21.1219C23.8989 21.4071 23.8952 21.6358 23.9419 21.7744C23.9646 21.8417 23.9965 21.8809 24.0258 21.9023C24.0532 21.9223 24.0912 21.9366 24.1495 21.9336C24.2825 21.9269 24.4749 21.8347 24.6782 21.6393C24.8752 21.4499 25.055 21.1889 25.1677 20.9032C25.2814 20.6149 25.2894 20.3858 25.2449 20.2481C25.2235 20.1819 25.1928 20.1443 25.1641 20.1236ZM25.6754 20.1195C25.7604 20.3826 25.7233 20.7168 25.5892 21.0569C25.454 21.3994 25.2394 21.7126 24.9969 21.9457C24.7607 22.1728 24.4685 22.3514 24.1732 22.3664C24.0174 22.3742 23.8723 22.3344 23.7532 22.2474C23.6361 22.1618 23.558 22.0412 23.5131 21.9081C23.4247 21.6458 23.4547 21.3112 23.59 20.9682C23.7252 20.6256 23.9398 20.3124 24.1823 20.0793C24.4185 19.8523 24.7107 19.6736 25.006 19.6587L25.0066 19.6587C25.165 19.651 25.3128 19.6893 25.4343 19.7768C25.5542 19.8631 25.632 19.9853 25.6754 20.1195Z" fill="#262626"/>
<path d="M11.7068 16.9451C11.2207 17.2222 10.6833 17.5271 10.2051 17.7977V7.15102C10.2221 7.08743 10.2569 6.98971 10.313 6.89245C10.383 6.77107 10.462 6.69172 10.5372 6.65413C10.724 6.56072 12.2769 5.68509 14.1953 4.60338C16.2622 3.43791 18.7533 2.03322 20.4173 1.10988L20.2286 12.1213L18.1052 13.3482C17.9055 13.1524 17.5779 12.9025 17.1461 12.7946C16.3815 12.6034 14.737 12.9534 13.4 15.597L13.3834 15.6297L13.3718 15.6645C13.3371 15.7686 13.2721 15.9382 13.2295 16.0463C13.2143 16.0606 13.1891 16.0821 13.151 16.1093C13.1511 16.1092 13.1505 16.1096 13.1491 16.1105C13.1409 16.1156 13.1052 16.138 13.0276 16.1841C12.9466 16.2322 12.8369 16.2963 12.7046 16.3729C12.4402 16.526 12.0898 16.7267 11.7068 16.9451Z" stroke="#262626"/>
<path d="M20.6092 1.60107L19.9101 1.94348C18.2183 3.63456 14.4684 7.46081 13.7224 8.44752C12.7898 9.68092 12.5491 11.4257 12.9101 12.268C13.2711 13.1104 16.3697 15.9381 16.7908 16.2089C17.212 16.4796 17.7234 16.3894 19.047 16.2089C20.3707 16.0284 21.5439 14.7047 22.2057 13.8023C22.7352 13.0803 22.6269 11.6564 22.5065 11.0346L21.3986 2.10992L20.6092 1.60107Z" fill="#3BC6E4"/>
<path d="M19.3709 21.4925C18.8848 21.7696 18.3474 22.0744 17.8691 22.3451V11.6984C17.8862 11.6348 17.921 11.5371 17.9771 11.4398C18.0471 11.3184 18.1261 11.2391 18.2012 11.2015C18.3703 11.1169 19.6725 10.3753 21.3526 9.41841C23.5182 8.18502 26.3116 6.59405 28.1156 5.59178V16.485L25.7661 17.8925C25.5661 17.6971 25.2397 17.4493 24.8102 17.342C24.0455 17.1508 22.401 17.5008 21.0641 20.1443L21.0475 20.1771L21.0359 20.2119C21.0012 20.316 20.9362 20.4856 20.8936 20.5937C20.8783 20.608 20.8532 20.6295 20.8151 20.6567C20.8152 20.6566 20.8146 20.6569 20.8132 20.6578C20.805 20.663 20.7692 20.6854 20.6916 20.7315C20.6106 20.7796 20.501 20.8436 20.3687 20.9203C20.1043 21.0734 19.7539 21.2741 19.3709 21.4925Z" fill="white" stroke="#262626"/>
<path d="M8.53633 23.593L8.36972 27.841L7.64788 28.0076L1.98395 24.4537L0.595703 23.2876V19.4839L0.861188 18.38L3.97079 16.381C4.18365 15.0483 4.63157 12.3385 4.72042 12.1608C4.80927 11.9831 5.51636 11.4019 5.8588 11.1335L10.4955 8.60693L18.325 13.2158L17.9641 13.9654L12.4945 16.7141C12.3834 17.2972 12.1613 18.5022 12.1613 18.6576C12.1613 18.8131 11.532 20.8695 11.2173 21.8783L8.53633 23.593Z" fill="#3BC6E4"/>
<path d="M6.98755 10.6375C7.98181 10.0775 9.12728 9.43225 10.0553 8.90461V17.6118L7.93683 18.8358C7.73715 18.64 7.40953 18.3901 6.97775 18.2822C6.21307 18.091 4.5686 18.4409 3.23161 21.0845L3.21505 21.1173L3.20345 21.1521C3.16874 21.2562 3.10372 21.4257 3.06116 21.5339C3.0459 21.5482 3.02075 21.5696 2.9827 21.5968C2.98312 21.5965 2.98112 21.5979 2.97561 21.6016L2.95356 21.6161C2.93479 21.6283 2.91005 21.644 2.87934 21.6633C2.81802 21.7019 2.73647 21.7523 2.63814 21.8125C2.44167 21.9328 2.18163 22.0898 1.88933 22.2643C1.53843 22.4738 1.14255 22.7076 0.755859 22.9323V18.9265C0.764658 18.8722 0.7918 18.766 0.851838 18.6494C0.918294 18.5203 1.01239 18.4027 1.1385 18.3231C1.56413 18.0542 2.5422 17.4904 3.33404 17.0706L3.37798 17.0473L3.41647 17.0158C3.48786 16.9574 3.59091 16.8629 3.68906 16.7528C3.77921 16.6517 3.90458 16.4945 3.97258 16.3132C4.00146 16.2361 4.02154 16.1212 4.03418 16.0486C4.0511 15.9514 4.07083 15.8253 4.09241 15.6794C4.13567 15.3869 4.18808 15.0031 4.24286 14.5876C4.35172 13.7618 4.47096 12.8025 4.5482 12.1656C4.54928 12.1608 4.552 12.1498 4.5575 12.1338C4.56522 12.1113 4.57641 12.0847 4.59128 12.0577C4.62217 12.0015 4.65919 11.9603 4.69756 11.9359C4.81433 11.8616 5.79154 11.3112 6.98755 10.6375Z" stroke="#262626"/>
<path d="M10.126 9.40942L5.62928 12.0069C5.51512 12.2305 5.28681 12.6915 5.28681 12.7474C5.28681 12.8034 5.34672 13.2967 5.37668 13.5363L4.77752 16.4323C4.2594 17.1427 3.18439 18.6022 3.0293 18.7573C2.87421 18.9124 2.01437 20.7843 1.24096 21.7836V23.1614L1.07617 23.6418L9.0373 20.015L11.0718 18.01L10.8919 9.89042L10.126 9.40942Z" fill="#3BC6E4"/>
<path d="M0.509766 23.3789L8.46061 28.0809" stroke="#262626"/>
<path d="M3.58203 16.3689L11.7687 21.1925" stroke="#262626"/>
<path d="M4.63672 11.8516L12.9588 16.8405" stroke="#262626"/>
<path d="M10.3105 8.95532L18.1073 13.6493" stroke="#262626"/>
<path d="M10.5547 6.83105L18.3515 11.5251" stroke="#262626"/>
<path d="M20.4688 0.967041L28.3033 5.59779" stroke="#262626"/>
<path d="M12.4899 16.6463C12.697 16.5144 15.9029 14.704 17.8476 13.6326V22.3221L15.7291 23.5462C15.5295 23.3504 15.2018 23.1005 14.7701 22.9925C14.0054 22.8014 12.3609 23.1513 11.0239 25.7949L11.0074 25.8277L10.9958 25.8625C10.961 25.9666 10.896 26.1361 10.8535 26.2443C10.8382 26.2586 10.813 26.28 10.7749 26.3072C10.6496 26.3968 9.72818 27.0404 8.77734 27.6277V23.6368C8.78614 23.5826 8.81328 23.4764 8.87332 23.3598C8.93978 23.2307 9.03387 23.1131 9.15999 23.0334L8.89299 22.6107L9.15999 23.0334C9.31537 22.9353 9.49025 22.816 9.68134 22.6855C10.0974 22.4016 10.5904 22.0651 11.1263 21.781L11.1703 21.7577L11.2088 21.7262C11.2802 21.6678 11.3832 21.5733 11.4814 21.4632C11.5715 21.3621 11.6969 21.2049 11.7649 21.0236C11.7938 20.9465 11.8138 20.8316 11.8265 20.759C11.8434 20.6618 11.8631 20.5357 11.8847 20.3898C11.928 20.0973 11.9804 19.7135 12.0352 19.298C12.144 18.4721 12.2633 17.5128 12.3405 16.876C12.3416 16.8712 12.3443 16.8602 12.3498 16.8442C12.3575 16.8216 12.3687 16.7951 12.3836 16.7681C12.4145 16.7119 12.4515 16.6707 12.4899 16.6463Z" fill="white" stroke="#262626"/>
<path d="M10.8301 18.0852L15.7977 21.2464Z" fill="#3BC6E4"/>
<path d="M10.83 18.0852L2.70117 22.6012Z" fill="#3BC6E4"/>
<path d="M3.60458 26.6655L0.443359 28.4719Z" fill="#3BC6E4"/>
</svg>
