<svg version="1.0" xmlns="http://www.w3.org/2000/svg" width="709.333" height="709.333" viewBox="0 0 532 532"><path d="M512.7 23.6c-.1.1-3.8.4-8.2.8-4.4.3-9.3.8-11 1.1-4.9.8-8.8 1.4-13 2-12.9 1.9-48.3 12.3-60.4 17.7-13.6 6.1-28.2 13.3-37 18.3-9 5-34.8 21.8-36.1 23.4-.3.3-2.3 1.9-4.5 3.5-3.4 2.5-11.6 9.3-23.9 19.6-3.8 3.2-29.8 29.1-35.1 35-20.5 22.6-43.9 54.4-60.2 81.5-10.5 17.5-26 47.7-30.4 59.4-.7 1.7-1.3 2.1-2 1.4-.6-.6-20.3-33.2-43.8-72.4l-42.7-71.4-52.3-.3-52.2-.2 5.8 8.2c3.2 4.6 6.1 8.7 6.6 9.3.5.5 5.7 8 11.7 16.5 6 8.5 11.7 16.6 12.7 18 1 1.4 8.5 11.9 16.6 23.5C61.5 230 69 240.6 70 242c1 1.4 3.9 5.4 6.4 9 2.5 3.6 5.8 8.3 7.4 10.5 1.5 2.2 7.1 10.1 12.3 17.5 26 36.8 42.8 60.6 43.6 61.5 2.6 3.2 4.3 6.7 3.7 7.8-.4.7-27.7 37.1-60.6 81L23 509l53.6-.2 53.5-.3 6.5-12c3.5-6.6 7.8-14.7 9.5-18 1.6-3.3 3.4-6.7 3.9-7.5.8-1.3 4.6-8.5 21.7-41 10.1-19 12.8-24 13.3-24 .3 0 2.9 4.6 5.8 10.3 2.8 5.6 8.2 16 12 23.2 3.7 7.1 11.3 21.5 16.7 32 5.4 10.4 12 23 14.6 28l4.7 9 53.6.3c29.5.1 53.6 0 53.6-.3 0-.2-7.2-10.5-16.1-22.7-8.8-12.3-16.8-23.4-17.7-24.6-.9-1.3-2.8-3.9-4.2-5.8-8.7-11.7-79.6-109.8-81-112-1.1-1.8-.8-2.7 2.9-8 2.3-3.2 5.8-8.4 7.9-11.4 2-3 4-6 4.5-6.5.4-.6 4.5-6.2 9-12.5s10.9-15.1 14.2-19.6c3.3-4.5 6.9-9.4 8-10.9 1.1-1.5 2.5-3.2 3-3.9.6-.6 2.2-2.7 3.5-4.6 1.3-1.9 2.7-3.7 3-4 .3-.3 2.5-3.2 5-6.5s5-6.6 5.7-7.5c14.7-18.6 24-30.3 26.6-33.5 8.4-10.2 28.2-34.1 29.2-35.1.5-.6 2.9-3.3 5.2-6.1 2.4-2.7 5.3-6.1 6.5-7.5 2.6-2.8 14.4-16 17.1-19.2 15-17.3 53.2-55.4 72.7-72.6 17-15 44.9-36 47.8-36 .6 0 1.2-.4 1.4-.9.2-.4 3.7-2.5 7.8-4.5 4.1-2.1 8.4-4.2 9.5-4.8 1.1-.7 4.5-1.9 7.5-2.9l5.5-1.8-8.8.2c-4.8.1-8.9.2-9 .3z"/></svg>