<svg version="1" xmlns="http://www.w3.org/2000/svg" width="1466.667" height="1466.667" viewBox="0 0 1100 1100"><path d="M536.7.6c-.1.1-4.2.5-9.2.8-13.4.9-21 2-35.2 5.1-20.1 4.3-44.4 16.4-56.8 28.2-.8.7-1.6 1.3-2 1.3-1.3 0-27.1 26.6-44 45.4-4.2 4.6-14.1 22.2-13.7 24.3.2.7-.1 1.3-.5 1.3-.8 0-3.5 7.7-3.3 9 .1.3-.6 2.2-1.5 4.2-.8 2.1-1.3 3.8-1 3.8.3 0 .2.8-.4 1.7-.5 1-1.2 3.8-1.5 6.3-.3 2.5-.8 5.6-1.1 7-2.3 11.5-2.5 52.4-.2 54.6.3.3 17.9 3.9 24.7 5.1 4.6.7 6.5 1.1 6.5 1.3 0 .1 1.1.3 2.5.5s4.1.6 6 .9c1.9.3 5.3.8 7.5 1.1 2.2.4 4.7.8 5.5 1.1 1.7.6 10.3 1.7 13.8 1.8 1.2.1 2.2.3 2.2.6s1.5.7 3.3.8c3.6.3 3.9.3 19.2 3.2 6.1 1.2 12.1 2.3 13.5 2.6 1.4.2 7 1.3 12.5 2.4 5.5 1 11.4 2.1 13 2.4 1.7.3 4.1.7 5.5 1 1.4.3 4.1.7 6 1 1.9.3 4.4.7 5.5 1 1.1.2 4.3.7 7 1 2.8.4 6.4 1 8 1.2 1.7.3 5 .8 7.5 1 2.5.3 6.1.7 8 .9 17.9 2.1 59 2.4 59 .5 0-.3 1.7-.5 3.8-.5 2 .1 4.2-.1 4.7-.4.6-.3 1.9-.6 3-.7 1.8-.1 6.1-1 9-1.8.6-.1 2.6-.6 4.5-1 9.7-2.1 25-9 36.5-16.4 7.1-4.6 23-15.8 25.2-17.7.6-.5 5.5-4.2 10.9-8 9.9-7.1 29.1-21.5 32.6-24.4 10.8-9 23.6-22 30.9-31.6 6-7.7 15.1-16.5 17.1-16.5 1 0 1.8-.5 1.8-1 0-.6.6-1 1.3-.9.6.1 3.7-.5 6.8-1.5 3.1-.9 6.5-1.8 7.5-2 5.3-1.1 12-3 12.7-3.6 1-.9-3.6-6.2-16.3-19-16.1-16.2-31-28.5-42.5-35.1-8.4-4.9-28.8-13.7-29.1-12.7 0 .2-.7-.2-1.5-.8-1.1-.9-13.6-5.5-15.9-5.9-.3 0-2.1-.6-4-1.2-6.4-2-14.5-4.3-16.5-4.7-1.1-.3-5.6-1.4-10.1-2.5-4.4-1.1-9.1-2.3-10.5-2.5-1.3-.2-2.5-.5-2.6-.7-.2-.1-1.1-.2-2-.3-1-.1-4.3-.7-7.3-1.4-7.4-1.5-12.9-2.4-16.5-2.8-1.6-.1-3-.3-3-.4 0-.5-17.7-2.9-25.5-3.6-2.5-.2-6.3-.6-8.5-.8-9.8-1.3-61.7-2.9-62.8-2zM734 74.3c1.4.4 4.1.9 6 1.2 10.3 1.5 26 6.1 26 7.7 0 .5-.4.7-.9.4-.5-.3-2.4-.1-4.2.5-6.1 1.9-6.4 2-6.9 2.1-.3 0-1.6.5-3 1-1.4.6-3.4 1.1-4.5 1.3-1.1.1-2.7.5-3.5.8-.8.3-9.5 3.1-19.3 6.2s-19.1 6.1-20.5 6.7c-1.5.6-3.2 1.2-3.9 1.4-.7.1-2.7.9-4.4 1.8-1.8.9-3.7 1.6-4.3 1.6-.6.1-2.4 1.2-4.1 2.5-2 1.7-2.6 2.8-1.9 3.5 1.3 1.3 3.8 1.4 16.4.4 9.4-.7 19.4-.8 28.8-.5 1.7 0 3.2.6 3.2 1.2 0 .5-.4.8-.8.5-.5-.3-2.4-.1-4.3.4s-4.7 1.2-6.4 1.5c-1.6.3-5.5 1.2-8.5 2-3 .9-6.4 1.7-7.5 1.9-3.9.6-11 2.8-12.1 3.7-.7.5-1.6.9-2 .8-.5-.1-1.6 0-2.4.4-.8.3-4.2 1.5-7.5 2.7-11.9 4.3-19.9 10-18 13 1.1 1.7 7.2 3.9 13.2 4.6 3.1.3 6.4.8 7.2.9.9.2 6.1.4 11.6.4l10 .1-2.7 2.3c-1.4 1.2-8.2 6.5-15 11.7-6.7 5.2-12.4 9.8-12.6 10.2-.2.4-1 .8-1.8.8s-1.4.4-1.4.8-1.2 1.5-2.7 2.4c-1.6.9-4 2.9-5.5 4.3-1.6 1.4-2.8 2.3-2.8 2 0-.4-.7.1-1.6.9-2.3 2.3-9.3 7-13.9 9.4-4.3 2.1-17.4 6.8-21.5 7.6-1.4.3-3.8.8-5.5 1.1-1.6.3-4.2.7-5.7.8-1.5.1-2.8.4-2.8.7 0 .3-1.5.6-3.2.7-5.6.1-13.9 1.1-14.5 1.7-.3.3-1.4.1-2.4-.5-1.1-.5-1.9-.6-1.9-.1s-10.5.8-23.2.7c-12.8-.1-23.3-.3-23.3-.4 0-.2-3.2-.4-7.2-.6-8.8-.3-9.8-.9-7-3.8 1.2-1.3 5.4-5.8 9.2-10.2 3.9-4.3 10-11 13.7-14.9 3.7-3.9 6.8-7.4 6.8-7.9 0-.4.3-.7.8-.7.4 0 6.6-5.8 13.7-12.8 7.2-7 16.6-15.9 21-19.6 4.4-3.8 8.5-7.4 9-8 1.3-1.5 22.2-17.8 25.7-20.1.8-.6 4.9-3.2 8.9-5.9 10.3-6.8 10.9-7.1 20.3-12.1 7.4-3.9 28.6-12.1 28.6-11 0 .2 1.5-.1 3.3-.6 1.7-.5 5.5-1.2 8.2-1.5 2.8-.4 5.1-.8 5.3-.9.6-.5 29.7.2 32.2.8zm34.7 71.9c-1 1.8-2.5 4.4-3.5 5.8-.9 1.4-2.8 4.3-4 6.3-1.3 2-2.8 3.7-3.3 3.7s-.9.5-.9 1.1c0 3.3-20.9 25.8-28.5 30.8-2.2 1.4-4.2 2.8-4.5 3.2-1.1 1.3-13.7 7.7-17.5 8.9-2.2.7-4.3 1.6-4.8 1.9-.4.4 1.2 2.1 3.5 3.8 8.6 6.2 29.8 28.3 29.8 31 0 .7.4 1.3.8 1.3 1.2 0 12.2 21.8 16.6 33 2.1 5.2 4.3 10.6 4.9 12 .5 1.4 1.1 2.9 1.3 3.5.1.5 1.9 5 3.9 10 4.4 10.6 14.5 40.5 13.8 40.5-.3 0 0 .7.7 1.5s1 1.5.7 1.5c-.4 0 0 1.8.8 4s1.4 4.2 1.4 4.5c.1.6.6 3 3.1 13.5 1.8 8 2.6 11.7 3.5 16.5.2 1.1 1.1 5.8 2 10.5.8 4.7 1.8 10.1 2 12 .3 1.9.8 5.3 1.2 7.5.9 6.2 1.2 8.6 1.8 14 .3 2.7.7 6.6 1 8.5.6 3.8.6 11.5 0 17-.5 5.4-1.5 13.2-2 17-1.3 9-1.5 10.7-1.9 14-.3 2-.7 4.7-1 6-.3 1.4-.8 3.6-1 5-.2 1.4-.9 4.3-1.4 6.5-.6 2.2-1.4 5.6-1.7 7.5-.3 1.9-1 4.6-1.5 6-.5 1.4-1.1 3.4-1.3 4.5-.1 1.1-.5 2.4-.8 3-.8 1.4-2.3 6.8-2.1 7.7.1.5-.3.8-.8.8-.6 0-1 .5-1 1 0 2.6-6.7 14.4-10.4 18.4-3.8 4-15.7 12.4-19.8 13.9-1 .4-1.8 1.1-1.8 1.6 0 1.4 14.4-6.2 19.8-10.4 4.7-3.6 10.1-10.2 10.2-12.3 0-.6.4-1.2.8-1.2.8 0 2.2-2.9 5.3-10.5.7-1.7 1.3-3.2 1.4-3.5.1-.3.5-1.2.8-2 2.5-6.1 10-38.7 9.6-41.8-.1-.4 0-.9.1-1.2.2-.3.4-1.9.5-3.5.1-1.7.6-5.9.9-9.5.7-6.3 1-10.3 1.9-24.1.3-3.6 1-7.6 1.6-8.8.7-1.1.8-2.1.4-2.1s-.3-.4.2-.8c1-.7 11-30.9 12-36.2.5-2.7 1.8-9 2.1-10.3.1-.4.2-.8.3-1 .3-.2 1.3-9.4 1.4-12 .1-.9.4-1.7.7-1.7.3 0 .6-1.9.7-4.3.4-9.9 1-18.5 1.5-19.3.7-1.3.1-51.4-.7-59.9-.3-3.9-.7-9-.8-11.5-.2-2.5-.5-5-.8-5.5-.3-.6-.5-2.5-.4-4.3 0-1.7-.3-3.2-.8-3.2-.4 0-.6-.4-.2-1 .9-1.5-3.3-24.2-7-37-1.9-6.5-5-16.1-7-21.2-2-5.1-3.7-10-4-10.8-.4-1.8-6.7-16.2-12.1-28-5.5-12.1-12.1-24.4-13.1-24.7-.5-.2-1.7 1.1-2.6 2.9zm-435 13.4c-2.7.8-7.1 2.7-9.8 4.2-4.9 2.6-17.7 13-17.8 14.4-.1.4-1.3 2-2.7 3.5-5.6 6-18 27.2-21.9 37.3-3.7 9.8-9.5 26.6-9.5 27.7 0 .6-.5 2.4-1.1 4-.7 1.5-1.3 3.5-1.4 4.3-.2.8-1 4.9-2 9-1.9 8.8-2.2 10.7-3.1 20.8-.3 4.3-.8 8-1.1 8.4-.2.5.1.8.8.8.8 0 .8.4.1 1.3-.6.7-.7 1.8-.3 2.6.4.7.5 3 .1 5.2s-.3 3.9.2 3.9.5.8.1 1.7c-.8 1.6-.9 3.9-.3 5.3.2.5 1 16 1.2 22.7.1 2.4.4 4.3.7 4.3.3 0 .6 2.1.7 4.8.1 4.2.6 8.6 2 18.7.3 1.6.7 4.6.9 6.5.5 5 1.4 10.6 2.6 17.5.6 3.3 1.3 7.3 1.5 9 .2 1.6.6 4.1.9 5.5.2 1.4.7 4.1 1.1 6 .7 4.4 1.2 6.5 1.4 6.5.1 0 .3 1.3.5 3 .2 1.6.6 4.1 1 5.5.8 3.1 1.4 10 2.1 26 .5 12.4 1.2 22.5 1.4 22.5.1 0 .3 1.6.5 3.5 1.3 11.4 4.5 29.3 6.4 35.9.6 1.8 1 3.6.9 4-.1.3.2 1.3.5 2.1s1.7 4.6 3.1 8.5c3.4 9.8 5.7 14.9 6.8 15.6.5.3.9 1 .7 1.4-.6 2 8.7 12.1 14.7 15.8 6.3 3.9 17.4 9.6 17.4 8.8 0-.3-4.1-3.1-9.1-6.1-8.9-5.4-17.9-13.3-17.9-15.6 0-.7-.4-1.4-.8-1.6-2-.8-10.2-21.3-12.3-30.8-.4-1.9-1.4-6.5-2.2-10.1-.9-3.6-1.8-7.9-2.1-9.5-.3-1.6-.7-4.3-1-5.9-1.9-10.1-2.7-16.3-2.9-22.2-.1-2.4-.4-4.3-.7-4.3-.3 0-.6-1.7-.8-3.8-.7-13.9-1-17.1-1.4-17.8-.7-1.5 1.3-19.9 2.2-19.9.1 0 .4-1.6 1.4-9.5.3-1.9.5-3.5.6-3.5.2 0 .7-2.4 1.4-7 .4-2.3.9-5.2 1.2-6.5.3-1.4.9-5 1.4-8 .6-3 1.2-6.6 1.5-8 .3-1.4.9-4.8 1.5-7.5.5-2.8 1.2-6.1 1.4-7.5.3-1.3.8-4.2 1.1-6.3.4-2.2 1-4.9 1.4-6.1.5-1.1.9-2.4.9-2.9.1-1.7 1.8-10.5 2.2-11 .1-.1.3-1.1.4-2.2.2-1.1 1.3-6.3 2.5-11.5 1.3-5.2 2.4-10 2.5-10.5 1.5-6.4 9.8-34.9 11.1-38 1.4-3.4 2.7-6.6 3-7.8.2-.4.4-1 .5-1.5.1-.4.2-1 .1-1.5 0-.4.4-.7.9-.7.6 0 1-.6 1-1.3 0-1.4 9.5-21 12-24.7.9-1.4 3.7-5.6 6.1-9.5 2.4-3.8 7.2-10.4 10.6-14.6l6.2-7.7-2.8-7.8c-1.6-4.4-4.3-12.2-6.1-17.4-6.8-19.5-7.5-21.4-8.5-21.6-.5-.1-3.2.4-5.8 1.2z"/><path d="M380.8 369.5c-.1.2-4.1.6-8.8 1-10.1.8-15.3 1.3-20 2-1.9.2-5.7.7-8.5 1-2.7.3-6.3.8-8 1.1-1.6.3-4.3.7-6 .9-1.6.2-4.1.6-5.5.8-1.4.3-4.5.8-7 1.2-5.2.8-7.9 1.2-13.6 2.1l-4.1.6.1 22.2c.1 21.9.1 22.1 2.3 22.4 2.3.3 3.8 2.8 2.2 3.7-.5.4-.6 1.2-.2 1.8.4.7.8 3.9.9 7.2.1 3.3.5 8 .9 10.5.3 2.5.8 5.8 1 7.5 1 7.6 5.4 23.7 8.2 30.2.9 2.1 1.6 4.1 1.5 4.5-.1.5.3.8.8.8s.9.4.7.8c-.1.5 1.5 3.7 3.6 7.2 2 3.4 3.7 6.7 3.7 7.1 0 .5.5.9 1.1.9.5 0 .8.4.5.9-.4.5-.3 1.1.2 1.3.4.1 2.5 2.5 4.7 5.3 5.3 6.5 6 7.2 13 12.6 8.2 6.4 14 9.4 23.7 12.3 9.2 2.8 18.3 4.2 27.1 4.1 3.2 0 5.7.4 5.7 1 0 .7.3.7.8 0 .4-.6 5.2-1 10.7-1.1 50.8-.5 66.8-8.4 84.5-41.9 2.3-4.4 4.6-8.6 5.2-9.3.6-.6.8-1.2.5-1.2-.3 0 .7-2.6 2.2-5.8 1.6-3.1 4.1-8.6 5.5-12.2 1.5-3.6 3.1-7.4 3.6-8.5.9-2.2 3.9-11.3 4.3-13.2.2-.7.6-1.6 1-1.9.4-.4.7-1.7.7-2.9 0-1.1.5-2.6 1.2-3.3.7-.7.9-1.2.5-1.2s-.1-1.3.7-2.8l1.4-2.8 18.2.1h18.2l1.4 3.4c.8 1.8 1.6 4.3 1.8 5.5 1.2 5.7 11.6 32.9 12.8 33.4.4.2.8 1 .8 1.8s2.9 7.2 6.4 14.2c7.5 15.1 9.8 19.2 10.9 19.2.4 0 .7.6.7 1.3 0 2.5 16.2 18 19 18.2.3.1 2 .9 3.9 1.9 9.9 5.3 24.9 7.6 51.9 8 4.7 0 8.2.5 8.2 1.1 0 .7.3.7.8 0 .4-.6 4.5-1 9.2-1.1 10.1-.1 16.4-.8 24.5-2.9 6.6-1.7 20.3-8.1 25-11.7 4.1-3.2 14.7-13.8 16.5-16.7.8-1.3 2-2.9 2.5-3.5 4-4.5 10.9-18.1 14.5-28.6 1.2-3.6 2.5-7.2 2.7-8 .3-.8.7-2.2.8-3 .1-.8.7-4 1.3-7 2.3-11.3 2.9-16.3 3.6-30 .3-5.9.5-6.5 2.7-7l2.4-.6.1-21.8c0-11.9-.3-21.9-.8-22.2-.4-.3-2.7-.7-5-1-2.4-.2-5-.7-5.8-1-.8-.3-3.5-.8-6-1-2.5-.3-5.8-.7-7.5-1-1.6-.4-4.1-.8-5.5-.9-7.6-1-12.7-1.8-14.5-2.1-1.1-.2-4.4-.6-7.5-.9-3.1-.3-6.5-.7-7.7-.9-9.8-1.9-49.9-2.6-65.8-1.2-12.5 1.2-15 1.4-15 1.6 0 .1-1.8.3-4 .6-8.7 1-11 1.3-11 1.4 0 .1-1.2.3-2.8.5-1.5.2-5.3.9-8.5 1.6-3.1.7-6.4 1.3-7.2 1.4-.9 0-2.1.4-2.8.9-.6.4-1.6.4-2.2.1-.5-.3-1-.2-1 .3s-2 1.5-4.4 2.1c-2.4.6-8.9 3.4-14.5 6.2-5.6 2.8-10.9 4.8-11.7 4.5-.8-.3-1.4 0-1.4.6s-.5.7-1.2.1c-1.6-1.1-15.9-1-17.7.1-.7.5-1.6.5-2 0-.7-1.1-18.1-1.1-19.9-.1-.6.5-1.2.5-1.2 0 0-.4-1.3-.8-3-.8-1.6 0-3 .4-3 .8 0 .5-.5.5-1.2.1-.6-.4-4.6-.8-8.7-.9-6.6-.2-8.4-.6-14.1-3.8-12.3-6.7-31.7-12.5-43.2-13-2.1-.1-3.8-.5-3.8-.8 0-.3-.6-.6-1.2-.6-.7 0-4-.3-7.3-.7-3.3-.4-8-1-10.5-1.2-2.5-.2-6.3-.7-8.5-1-4.5-.6-44.1-1.4-44.7-.9zm51.2 20.9c12.2.7 18.4 1.2 26.5 2.1 4.8.5 6.2.8 11.5 2 1.4.3 3.4.7 4.5 1 1.1.2 3 .6 4.2.9 9.5 2.1 20.7 14.2 23.6 25.6 2.3 8.9.9 28.2-2.6 37-.3.8-1.1 3.5-1.7 6-1.4 5.6-7.1 22.3-7.9 23-.3.3-1.8 3-3.3 6.1-4.9 10.4-14.4 20-25 25.5-4.1 2.1-14 5.4-17.2 5.6-1.5.1-2.6.5-2.6.8 0 1.3-35.4 1.8-44.5.6-16.3-2.2-32.6-8.7-42.7-16.8-4.1-3.3-10.9-9.8-10.2-9.8.3 0-.4-.9-1.4-2-1-1.1-2.5-3.3-3.3-4.8-.8-1.5-1.7-2.9-2-3.2-1.4-1.3-7.1-18.5-8.3-25.5-2-11.1-2.9-36.5-1.3-36.5.5 0 .6-.4.3-.9-.8-1.3 3-13.2 5.1-15.9 6.1-7.9 10-11.4 15.9-14.2 3.6-1.7 7.4-3.2 8.7-3.4 1.2-.3 2.2-.5 2.2-.6 0-.1.9-.3 2-.6 5.2-1 9.7-1.6 17.5-2.1 4.7-.3 8.6-.6 8.7-.7.5-.4 31.8.2 43.3.8zm254 0c7.4.4 15.1.9 17 1.1 12.3 1.3 14.8 1.6 17 2.1 1.4.3 3.6.7 5 1 1.4.3 3.4.8 4.5 1.1 1.1.4 2.6.8 3.3.9 7.7 1.4 20.7 14.8 22.8 23.6 2 8.3 2.2 22 .5 28.5-.1.2-.2.6-.2 1-.9 5.2-8.1 28.6-9.1 29.7-.4.6-.8 1.7-.8 2.5 0 4.5-11.5 23.1-17.5 28.4-5.1 4.5-6.6 5.7-7.4 5.7-.5 0-1.1.4-1.3.8-.5 1.2-10.8 5.7-16.3 7.1-2.7.7-5.7 1.5-6.5 1.8-1.4.5-7.6 1.2-15 1.6-1.9.2-4.1.6-4.8 1-.6.5-1.2.4-1.2-.1 0-1-8.1-.9-9.8.2-.7.4-1.2.4-1.2-.1 0-.4-2.1-.9-4.8-1-16.2-.5-34.6-6.1-47.2-14.2-14.4-9.4-23.2-22.4-28-41.5-3.2-12.7-3.5-15.4-3.5-31.6 0-16 1.4-22 6.6-29.5 4.4-6.3 11.2-12.9 12.3-11.8.3.4.6.2.6-.4 0-.6 2.6-1.9 5.8-2.9 3.1-.9 6.2-2 6.7-2.4.6-.3 1.7-.6 2.5-.5.8.1 2.5-.2 3.8-.7 1.3-.4 5.9-1 10.4-1.3 4.5-.3 8.3-.6 8.4-.8.5-.5 33.6 0 47.4.7zm107.3 175.2c.4.5-1.9 8.6-4 13.4-.3.8-.7 2.1-.9 2.8-.4 2.2-16.5 34.5-18.6 37.4-1.1 1.6-1.6 2.8-1.3 2.8.3 0-.3 1.3-1.4 2.9-1.2 1.6-2.1 3.4-2.1 3.9 0 .6-.3 1.2-.8 1.4-.4.1-2.7 3.7-5.1 7.8-10.9 18.8-17.2 27.7-25.3 35.8-11.5 11.6-23.8 20.4-36.8 26.2-2.5 1.2-5.2 2.5-6.1 2.9-4.6 2.5-16.1 4.3-24.1 3.7-7.7-.5-13.3-1.2-13.3-1.6 0-.1-.7-.3-1.5-.5-1.6-.3-10.5-3.2-13-4.2-.8-.3-2.4-.8-3.5-.9-1.1-.2-4.1-.9-6.7-1.5-7.1-1.6-25.6-1.3-30.9.6-.8.2-2.5.7-3.9.9-1.4.3-6.8 1.4-12 2.6-5.2 1.2-10.8 2.3-12.5 2.5-1.6.2-5.9.6-9.5 1-8 .9-28 1.3-28 .5 0-.3-2.1-.5-4.8-.6-6.4 0-14-1.2-22.7-3.6-2.2-.6-4.4-1.1-5-1.3-.5-.1-1.7-.5-2.5-.8-8.5-3.4-27.1-3.7-38-.7-4.1 1.2-8.2 2.3-9 2.5-.8.2-1.6.4-1.7.5-.2.2-.7.4-1.3.5-.5.1-1.1.3-1.2.5-1.2.9-20.4 3.4-23.8 3.1-.8-.1-2.4-.1-3.5-.1-1.1.1-2.4.1-3 .1-4.5.1-15.1-1.5-18.1-2.7-2-.8-3.8-1.3-4.1-1-1.7 1.7-32.4-17.6-42.9-26.9-.6-.6-2.6-2.1-4.5-3.5-18.4-13.7-32.9-33.2-45.2-61-2.4-5.4-7.4-19.1-8.2-22.7-2.6-10.6-4-15.3-4.5-15.3-.4 0-.8 1.9-.8 4.2-.1 2.4-.4 5.4-.7 6.8-.6 3.2-1.7 10.7-2 14.5-.2 1.6-.4 3.1-.5 3.2-.1.2-.4 1.2-.5 2.3-.1 1.1-.4 2.1-.5 2.2-.1.2-.3 1.4-.5 2.8-.5 4.4-1.5 10.2-4.1 23.5-2.9 14.8-3.2 16.6-3.8 19.7-1.2 6.3-4.8 22.5-5.3 23.8-.3.8-.6 1.8-.5 2.2.1.4-1.1 4.6-2.7 9.5-1.6 4.8-3.2 10.6-3.5 12.8-.6 4-1.1 7.2-2.1 13-.3 1.6-.8 5.7-1.1 9-.4 3.3-.8 6.2-.9 6.5-.8 1.4-1.9 18.8-1.9 30 0 12.2.9 27.5 1.9 30.2.2.7.6 2.6.8 4.3.4 2.4 2.8 12.9 4.1 18 .5 1.9 1.8 5 2.7 6.7.5 1 .9 2.5.9 3.3 0 .8.4 2.3.9 3.3.5.9 2.6 5.1 4.6 9.2 2.1 4.1 5 9.3 6.4 11.5 1.4 2.2 2.6 4.2 2.6 4.5 0 .3 1.2 2.3 2.6 4.5 1.4 2.2 5.4 8.9 8.9 15 3.5 6 6.7 11.2 7 11.5.3.3 1.4 2.1 2.3 4 1 1.9 2.6 4.8 3.7 6.5 1 1.6 3.4 5.6 5.2 8.7 1.8 3.1 3.4 5.5 3.7 5.3.2-.3.5-4.2.7-8.7.3-11.1 1.1-16 3.4-21.2 1-2.4 1.6-4.7 1.3-5-.4-.3-.1-.6.5-.6.7 0 1.2-.9 1.2-2s.4-2 1-2c.5 0 .9-.3.8-.8-.3-1.2 9.5-20.2 10.5-20.2.4 0 .6.4.3.8-1.2 2-1.9 12.2-1.9 29.7 0 21.1.8 34 2.8 44 .2 1.1.7 3.8 1.1 6 .3 2.2 1.1 4.6 1.6 5.2.6.7.7 1.3.3 1.3-.4 0-.2.6.4 1.3.6.8.8 1.7.4 2-.3.4-.1 1.2.4 1.9.6.7 1.8 3.6 2.7 6.4.9 2.7 3.1 7.3 4.9 10.1 5.5 8.5 12.8 16.5 29.4 31.9 3.9 3.6 21.1 17.2 31.3 24.6 4.4 3.2 4.5 3.3 2.8.6-3.4-5.3-5.5-9.4-7.7-15.3-2.6-6.7-2.5-6.4-4.7-16-1.6-7.1-2.6-33.9-1.4-40 .5-2.8.8-2.6 4.4 5 2.2 4.4 4.4 8.3 5 8.7.6.4.7.8.3.8-.5 0 .1 1.3 1.2 2.9 1.2 1.6 2.1 3.2 2.1 3.5 0 .3 2.5 4.6 5.5 9.6s5.5 9.5 5.5 10c0 .6.4 1 .9 1s1.4 1.3 2.1 3c.7 1.6 1.7 3 2.3 3 .6 0 .8.3.4.6-.3.3.9 2.7 2.7 5.3 1.7 2.5 6.1 8.9 9.6 14.1 3.6 5.2 6.7 9.7 7 10 .3.3 3.9 5 8 10.5s12.7 15.1 19 21.5c10.8 10.7 13.7 13.3 21.6 19.2 1.6 1.3 3.7 2.9 4.5 3.6 6.1 5.4 39.1 24.1 44.9 25.4.8.2 1.8.7 2.1 1.2.4.5 1.2.7 1.8.5.7-.3-2.3-7.2-7.4-17.3-7.4-14.7-13.2-27.7-14-31.1-.1-.5-.5-1.7-.8-2.5-.9-2.4-2-7.4-1.9-8.3.1-.4-.3-.7-1-.7-.6 0-.9-.3-.6-.6.3-.3 0-2.9-.6-5.9-1.7-6.9-1.1-28.2.9-38.6.3-1.3.7-4 1-5.9.3-1.9.6-4.4.9-5.5.2-1.1.7-4.3 1-7 .8-5.3 2.6-9.9 2.4-6 0 1.1.2 3.8.5 6s.9 6.9 1.3 10.5c.3 3.6.7 7.2.9 8 .1.8.6 4.2.9 7.5.4 3.3.9 7.1 1.1 8.5.2 1.4.6 4.5.9 7 .3 2.5.8 5.6 1.1 7 .4 1.4.8 3.6 1.1 4.9.3 1.4.7 2.8 1 3.3.3.5.8 2 1 3.5.3 1.4 1.5 4.7 2.6 7.2 1.2 2.5 2.2 4.8 2.2 5.1.2 1.5 8.3 14.5 10.1 16.1 5.9 5.5 8.1 7.2 13.3 10.7 3.1 2.1 8 4.9 10.7 6.2 2.8 1.4 5.2 2.7 5.5 3 .7.8 12.9 6 14 6 .9 0-.6-3.4-10.6-23l-8-16c-1.4-3-3.1-6.3-3.6-7.4-.5-1-1.1-2.6-1.3-3.5-.3-.9-1.6-4.8-2.9-8.6-1.4-3.9-3.5-10.4-4.6-14.5-1.2-4.1-2.6-8.5-3.1-9.8-.5-1.2-.5-2.2-.1-2.2.8 0 4.3 6.1 10.6 18.5 3.3 6.4 16.4 20.5 19.1 20.5.9 0 1.8.7 2.1 1.5.4.8 1.3 1.5 2.1 1.5s2.8.9 4.5 2.1c3.9 2.8 4.3 2 1.2-2.2-3.9-5.2-8.1-14-8.7-18-.2-2-.7-4.2-1.1-4.7-.3-.6-.3-1.3.1-1.5.5-.3.8-4.1.8-8.6v-8.1l2 2.3c1.2 1.2 4.2 5.3 6.9 9 9.2 13.3 12.1 17.2 12.8 17.5.5.2.8 1 .8 1.8s.4 1.4.8 1.4c.5 0 1.5 1.2 2.2 2.6 1.7 3.1 3.6 2.9 19-2.3 38.3-13 60.8-33.3 80.5-72.8 2.2-4.4 4.2-8.2 4.5-8.5.5-.4 3.1-5.7 3.5-7 .1-.3 2-4.3 4.2-9s5-10.8 6.2-13.5c1.2-2.8 2.6-5.9 3.1-7 1.8-4 4.7-11.1 6-14.5 1.5-3.9 3.6-6.7 2.6-3.5-.3 1.1-.8 4-1.1 6.6-.3 2.5-1 6-1.5 7.8-.5 1.9-.7 3.7-.5 4.2.3.4.1 1-.5 1.4-.6.4-.8 1-.6 1.4.3.4.1 2.6-.5 4.9-.5 2.3-1.2 5.8-1.5 7.8-.3 2-.8 4.6-1 5.8-.2 1.1-.7 3.9-1.1 6.1-.6 3.8-.5 3.9 1.3 2.5 1-.8 3-2.4 4.4-3.5 7.2-5.7 38.1-37.8 47.8-49.8 6.3-7.7 22.9-34 22.1-34.9-.1-.2.4-1.4 1.1-2.8 1.5-2.8 1.6-3 2.6-8 1.2-5.8.7-38.5-.6-38.5-.1 0-.3-1.8-.5-4-.1-2.2-.4-4-.5-4-.1 0-.3-1.6-.5-3.5-.1-1.9-.3-3.5-.4-3.5-.3 0-1-4.5-1.5-9.3-.2-1.8-.6-3.5-1-3.9-.3-.3-.6-1.6-.6-2.7 0-1.2-1.8-9.7-4-19s-4-17.1-4-17.4c0-.5 9.7 13.6 13.7 20.1 1.8 2.8 3 5.3 2.8 5.6-.3.2 0 1 .5 1.7.6.6 1.2 2 1.5 3 .2 1.1.8 3.7 1.3 6 .5 2.2.8 5.2.6 6.7-.1 1.5 0 2.7.2 2.7 1.1 0 11.5-23 14.4-31.9 3.9-11.5 4.2-18.5 1.5-33.2-.7-3.5-3.4-11.6-5-14.7-.9-1.8-1.8-3.8-1.9-4.5-.1-.7-.9-2.6-1.8-4.4-.8-1.7-3.9-10.5-6.8-19.5-2.8-9-5.5-17-5.8-17.8-.3-.8-.6-1.8-.7-2.3-.2-.4-.4-1-.5-1.5-.1-.4-.3-1.2-.4-1.7-.1-.6-.8-3-1.6-5.5-.7-2.5-1.5-5-1.6-5.5-.2-.6-1-3.3-1.8-6-2.7-9.2-6.6-23-7.1-25-.2-1.1-1.8-7.6-3.5-14.5-1.6-6.9-3.3-14.1-3.6-16-.3-1.9-1-5.2-1.5-7.3-.6-2.1-1.2-5-1.5-6.5-1.3-7.8-1.7-9.2-2.7-9.2-.6 0-.8.3-.4.6zM301.9 673.7c.6.7 1.1 1.7 1.1 2.2 0 .5.6 1.6 1.3 2.3 1.2 1.2 6.2 8.9 25 38.6 3.7 5.9 7 11.4 7.4 12.2.4.8 1 1.7 1.3 2 .4.3 2.9 4.2 5.6 8.8 2.7 4.6 6.2 10.4 7.7 13 1.5 2.6 3 5.4 3.4 6.2.3.8 1.3 2.3 2 3.2.8.9 1.2 2.2.8 2.7-.3.6-.2 1.1.3 1.1s1.2 1 1.5 2.2c.3 1.3 1.5 5.9 2.7 10.3 1.2 4.4 2.3 8.7 2.5 9.5 5.9 26.8 7.2 33.3 8 38 .2 1.4.9 3.8 1.5 5.5.7 1.6 1.3 3.7 1.5 4.5.2.8 1.5 4.7 2.8 8.7 1.4 3.9 2.3 7.4 1.9 7.7-.3.3.1.6.8.6.7 0 1 .3.7.7-.4.3-.2 1.2.4 2 .6.7.9 1.3.6 1.3-.3 0 .6 2.6 2 5.7 2.6 5.9 3.2 11.1 2 17.3-.8 4-2 15.4-2.1 18.7 0 1.3-.4 2.3-.9 2.3-.4 0-.5.5-.1 1.2.4.6.6 3.9.4 7.2-.5 11.8-.1 25 1.5 43.5.2 2.4 0 4-.4 3.5-.5-.5-3.9-4.5-7.7-8.9-3.7-4.4-7.1-8.2-7.5-8.5-3.9-3-13.6-29.4-13.2-36.3 0-.9-.3-1.7-.6-1.7-.4 0-.8-1.5-1-3.3-.4-4-.9-7.2-1.1-7.2-.2 0-2-10.2-2.5-14.5-.1-.8-.5-3.8-.9-6.5-.4-2.8-1-6.6-1.2-8.5-.3-1.9-.7-4.6-1-6-.2-1.4-.6-5-1-8-.3-3-.7-6.6-.9-8-.9-5.3-1.9-19.8-1.8-26.6l.1-7.1-7.2.3c-8.6.4-11.5 1.3-15.1 5.1-4.1 4.4-10.5 17.9-12.1 25.8-.2 1.1-.7 3.6-1.1 5.5-.4 1.9-.8 3.8-.9 4.2-.1.5-.2 1.2-.3 1.8-.3 2.5-1.8.5-3.6-4.5-1-3-2.2-5.5-2.7-5.5-.4 0-.8-1.1-.8-2.5s-.5-2.5-1.2-2.5c-.6 0-.8-.3-.5-.7.4-.3.3-1.1-.2-1.7-.5-.6-2.1-4.3-3.6-8.1-1.5-3.9-3.3-8.4-4-10-2.1-4.9-7.6-21.8-7.8-23.7-.1-1-.4-1.8-.7-1.8-.4 0-.7-.6-.8-1.3-.1-.6-1.7-7.5-3.7-15.2-2.9-11.6-3.5-16.1-3.7-26-.3-17.2 2-35.7 6.8-52.5.8-3 1.7-6.5 2-7.8.5-2.3 3-10.5 4.1-13.2.4-.8.7-1.7.8-2 .4-1.6 2.8-8.6 3.2-9.3.3-.5 2.5 2.2 4.8 6 2.4 3.7 4.9 7.3 5.4 8zm137.4 244c1.9 4.3 6.5 13.9 10 21.3 3.6 7.4 7.6 16.1 9.1 19.2 11.1 24.4 25.2 54 28 58.8 1.4 2.5 3.1 5.6 3.8 7 .7 1.4 2 3.6 3 4.9 5.6 7.5-1 1.6-23.7-21.3-26.8-26.9-28.5-29.1-33-42.4-2.9-8.6-3.6-12.3-3.8-19.9-.1-2.9-.6-5.3-1-5.3-.5 0-.5-.6 0-1.3 1-1.6 1-3.8.1-5.8-.4-.9-.4-1.9-.1-2.3.4-.3.8-2.4 1-4.6.2-2.2.5-5.9.7-8.3.2-2.3.5-5 .5-6 .2-3.5 1.9-1.5 5.4 6zM334.6 568.8c-.3.5.1.9.9.9s1.2-.4.9-.9c-.3-.4-.7-.8-.9-.8-.2 0-.6.4-.9.8z"/><path d="M496.5 598.1c-10.7 1.4-19.9 4.6-34.1 12-8.9 4.6-27.4 15.6-28.4 16.9-.9 1.2-13.8 8.1-16.2 8.6-7.9 1.9-11 2.2-16.8 1.8-7.4-.6-7.6-.6-18.5-2.9-4.4-.9-8.2-2-8.5-2.3-.3-.4-1.4-.9-2.5-1-7.8-1.4-23.3-14.2-32-26.5-4-5.6-6.1-7.2-5.1-4 .2 1 .7 3.8 1 6.3.3 2.5.8 5.6 1.1 7 .3 1.4.8 4.1 1.1 6 1.5 9.9 2.1 13.5 2.4 13.5.1 0 .3.9.5 2s.6 2.9.8 4c2.5 12.8 13.5 26.5 36.8 46 8.1 6.7 18.2 12.1 24.8 13.1 3.8.7 6.2 1.1 7.1 1.4 3.3 1.1 29-1 37-3 1.9-.5 5.1-1.2 7-1.5 1.9-.3 6.9-1.5 11-2.6s8.3-2.2 9.3-2.4c.9-.2 2.1-.6 2.5-.9.8-.5 22.8-6.2 27.2-7 1.4-.3 3.6-.8 5-1.1 1.4-.3 3.6-.7 5-.9 2.4-.4 10.1-1.7 18-3.2 5-.9 21.5-.5 21.5.6 0 .1 1.8.3 4 .4 2.2.2 6.7.9 10 1.6 3.3.7 6.8 1.3 7.8 1.2.9 0 1.7.2 1.7.6 0 .4 1.6.8 3.6.9 2 .1 4.4.5 5.3.9.9.4 2.5.9 3.5 1.1 1 .2 5.5 1.3 10 2.4 4.5 1.2 8.9 2.2 9.9 2.4.9.2 2.1.6 2.5.9.5.3 1.9.7 3.3 1 1.3.3 3.3.7 4.4 1 7.3 1.7 11.4 2.6 14.5 3.1 1.9.3 4.2.8 5 1 .8.2 3.1.7 5 1 1.9.3 4.9.8 6.7 1.1 1.7.3 5.7.7 8.8.8 3 .2 5.7.5 6 .7.4.4 7.9.2 15-.5 5.3-.4 11.8-2.7 18.5-6.3 3.6-1.9 6.7-3.8 7-4.2.3-.3 2.8-2.4 5.5-4.6 10.3-8.2 19.9-17.4 25.6-24.5 7.1-8.8 10.7-18.4 13.5-36 .3-1.9.8-4.9 1-6.5 2.3-13.3 3-18.5 2.3-18.5-.3 0-1.4 1.2-2.4 2.6-8 12.3-26.3 27.8-35.2 29.9-1 .3-5 1.3-8.9 2.4-14 3.8-28 4.6-36.5 2.1-5.6-1.7-10.9-4.5-20.9-10.9-8.4-5.4-21.9-13.4-23-13.6-.3-.1-4.2-2-8.8-4.3-4.5-2.2-8.6-4.1-9-4.1-.4-.1-3.5-1-6.9-2.1-13.5-4.4-24.9-4.2-38.3.5-6.2 2.2-20.4 8.8-20.8 9.7-.7 1.5-3.2.8-7.9-2.1-14-8.6-27.7-12.4-38.8-11z"/></svg>