<svg width="30" height="30" viewBox="0 0 30 30" fill="none" xmlns="http://www.w3.org/2000/svg">
<g clip-path="url(#clip0)">
<path d="M29.2296 8.22971L27.3649 6.36509L29.2296 4.50046C29.5728 4.15716 29.5728 3.6007 29.2296 3.2574L26.7434 0.771329C26.4005 0.428322 25.8436 0.428146 25.5004 0.771329L23.6357 2.63595L21.7711 0.771329C20.743 -0.256814 19.0701 -0.256755 18.042 0.771329L17.3147 1.49865C16.3405 1.03231 15.1291 1.19818 14.3128 2.01439L13.0697 3.25746C12.7267 3.60035 12.7264 4.15728 13.0697 4.50052L17.4205 8.85122L8.85174 17.4201L4.50099 13.0693C4.15798 12.7263 3.60111 12.7261 3.25793 13.0693L2.01492 14.3123C1.20463 15.1226 1.03348 16.3331 1.50029 17.3131L0.771857 18.0415C-0.256286 19.0697 -0.256286 20.7426 0.771857 21.7707L2.63648 23.6353L0.771857 25.5C0.428556 25.8432 0.428556 26.3997 0.771857 26.743L3.25793 29.2291C3.60093 29.5722 4.15781 29.5723 4.50099 29.2291L6.36562 27.3645L8.2303 29.2292C9.25838 30.2572 10.9313 30.2572 11.9594 29.2292L12.6868 28.5019C13.661 28.9682 14.8724 28.8023 15.6886 27.9861L16.9317 26.7431C17.2747 26.4001 17.275 25.8433 16.9317 25.5L12.581 21.1493L21.1497 12.5805L25.5005 16.9313C25.8434 17.2743 26.4004 17.2745 26.7435 16.9313L27.9866 15.6882C28.7969 14.878 28.9681 13.6674 28.5012 12.6875L29.2297 11.959C30.2577 10.9307 30.2577 9.25786 29.2296 8.22971ZM26.122 2.63595L27.365 3.87902L26.122 5.12214L24.8789 3.87908L26.122 2.63595ZM3.87949 27.3645L2.63642 26.1214L3.87949 24.8783L5.12255 26.1214L3.87949 27.3645ZM10.7163 27.986C10.3737 28.3288 9.81602 28.3287 9.4733 27.986L2.01492 20.5276C1.67221 20.185 1.67221 19.6273 2.01492 19.2846L2.63642 18.6631L11.3379 27.3645L10.7163 27.986ZM15.0671 26.1215L14.4455 26.743C14.1019 27.0866 13.546 27.0866 13.2024 26.743L3.25798 16.7985C2.91445 16.455 2.91445 15.899 3.25798 15.5554L3.87949 14.9339C4.26638 15.3209 14.8722 25.9266 15.0671 26.1215ZM11.3379 19.9061L10.0948 18.6631L18.6635 10.0943L19.9066 11.3373L11.3379 19.9061ZM26.7434 14.445L26.1219 15.0665L19.2852 8.22983L19.2851 8.22977L19.285 8.22971L14.9344 3.87914L15.5559 3.25757C15.8994 2.9141 16.4554 2.91392 16.799 3.25757L26.7435 13.2021C27.087 13.5455 27.087 14.1015 26.7434 14.445ZM27.9865 10.7158L27.365 11.3373L18.6635 2.63595L19.2851 2.01445C19.6279 1.67174 20.1853 1.67174 20.5282 2.01445L27.9865 9.47278C28.3293 9.81549 28.3293 10.3732 27.9865 10.7158Z" fill="#5C86B6"/>
</g>
<defs>
<clipPath id="clip0">
<rect width="30" height="30" fill="white"/>
</clipPath>
</defs>
</svg>
