<svg width="30" height="30" viewBox="0 0 30 30" fill="none" xmlns="http://www.w3.org/2000/svg">
<g clip-path="url(#clip0)">
<path d="M13.3728 0C11.2152 0 9.45976 1.75541 9.45976 3.91306C9.45976 6.07071 11.2152 7.82612 13.3728 7.82612C15.5305 7.82612 17.2859 6.07071 17.2859 3.91306C17.2859 1.75541 15.5305 0 13.3728 0ZM13.3728 5.86956C12.294 5.86956 11.4163 4.99188 11.4163 3.91306C11.4163 2.83423 12.294 1.95656 13.3728 1.95656C14.4517 1.95656 15.3293 2.83423 15.3293 3.91306C15.3293 4.99188 14.4517 5.86956 13.3728 5.86956Z" fill="#5C86B6"/>
<path d="M22.8294 18.2676H19.8881V15.3262C19.8881 14.5751 19.6107 13.8893 19.1449 13.3697C19.163 13.3495 19.1807 13.3289 19.1982 13.3081C19.8962 13.953 20.8282 14.3479 21.8511 14.3479C24.0087 14.3479 25.7641 12.5925 25.7641 10.4349C25.7641 8.27723 24.0087 6.52183 21.8511 6.52183C20.2762 6.52183 18.9165 7.45757 18.2965 8.80176C17.8953 8.59557 17.4411 8.48489 16.9598 8.48489H13.7392L10.4456 6.83108C9.41059 6.31458 8.16911 6.4528 7.27632 7.18241C4.22031 9.52129 2.28596 13.2655 2.28596 17.2827V27.0652C2.28596 28.6835 3.6025 30.0001 5.22074 30.0001C6.83898 30.0001 8.14901 28.6835 8.14901 27.0653V17.2827C8.14901 15.7377 8.69821 14.2127 9.66249 13.0025L11.7342 14.0384C12.1393 14.241 12.5932 14.3481 13.0468 14.3481H14.1933C14.0847 14.6543 14.025 14.9834 14.025 15.3263V19.2394C14.025 20.3397 14.3904 21.3561 15.0059 22.1742H15.0032C14.463 22.1742 14.025 22.6122 14.025 23.1525V29.022C14.025 29.5623 14.4629 30.0003 15.0032 30.0003H22.8293C23.0995 30.0003 23.3443 29.8907 23.5213 29.7135C23.9044 29.8972 24.3333 30.0003 24.7858 30.0003C26.404 30.0003 27.7141 28.6838 27.7141 27.0655V23.1525C27.7141 20.4553 25.5264 18.2676 22.8294 18.2676ZM21.8511 8.47838C22.93 8.47838 23.8076 9.35606 23.8076 10.4349C23.8076 11.5137 22.93 12.3914 21.8511 12.3914C20.7723 12.3914 19.8946 11.5137 19.8946 10.4349C19.8946 9.35606 20.7723 8.47838 21.8511 8.47838ZM13.0468 12.3979C12.8953 12.3979 12.744 12.3558 12.6092 12.2883L9.86651 10.917C9.487 10.7273 9.02839 10.8038 8.73102 11.1065C7.12187 12.7451 6.19896 14.9962 6.19896 17.2827V27.0652C6.19896 27.6046 5.76009 28.0435 5.22068 28.0435C4.68127 28.0435 4.2359 27.6046 4.2359 27.0652V17.2827C4.2359 13.9165 5.85595 10.7271 8.47761 8.72682C8.4881 8.71879 8.49847 8.71053 8.50872 8.7021C8.80638 8.45524 9.22368 8.40807 9.57126 8.58145L13.0706 10.3316C13.2065 10.3996 13.3563 10.4349 13.5082 10.4349H16.9598C17.4992 10.4349 17.9381 10.8738 17.9381 11.4132C17.9381 11.9526 17.4992 12.398 16.9598 12.398H13.0468V12.3979ZM21.8511 28.0501H15.9751V24.1305C16.5983 24.1305 21.2468 24.1305 21.8511 24.1305C21.8511 24.58 21.8511 27.6283 21.8511 28.0501ZM25.7641 27.0653C25.7641 27.6047 25.3253 28.0436 24.7859 28.0436C24.2464 28.0436 23.8011 27.6047 23.8011 27.0653V23.1522C23.8011 22.612 23.3696 22.1805 22.8294 22.1805H18.9163C17.2981 22.1805 15.975 20.8575 15.975 19.2392V15.3262C15.975 14.7868 16.4204 14.3479 16.9598 14.3479C17.4992 14.3479 17.9381 14.7868 17.9381 15.3262V19.2392C17.9381 19.7795 18.3761 20.2175 18.9164 20.2175H22.8294C24.4477 20.2175 25.7642 21.534 25.7642 23.1523V27.0653H25.7641Z" fill="#5C86B6"/>
</g>
<defs>
<clipPath id="clip0">
<rect width="30" height="30" fill="white"/>
</clipPath>
</defs>
</svg>
