<svg width="30" height="30" viewBox="0 0 30 30" fill="none" xmlns="http://www.w3.org/2000/svg">
<path d="M5.84427 30H20.6351L21.4016 29.2332C23.2752 27.3596 24.7369 23.8156 24.66 21.3327C24.5943 19.2117 23.9372 17.1572 22.76 15.3914C22.7067 15.2818 21.2622 13.4617 21.156 10.5469H28.1811V3.51562H22.8715C22.8951 3.26935 22.9076 3.0217 22.9076 2.77428V0H3.5717V0.878906C3.5717 3.10318 3.93082 5.08942 4.63921 6.78268C5.0972 7.8772 5.32952 9.03374 5.32952 10.2205C5.32952 13.2687 3.75733 15.3111 3.71933 15.3914C2.54219 17.1572 1.88507 19.2117 1.81939 21.3327C1.74225 23.8154 3.20389 27.3596 5.07775 29.2332L5.84427 30ZM5.40345 16.0307C6.32996 16.1952 7.22489 16.4909 8.07038 16.9137C9.66706 17.712 11.4546 18.1339 13.2397 18.1339C15.0247 18.1339 16.8123 17.7118 18.409 16.9137C19.2545 16.4909 20.1492 16.1952 21.0759 16.0307C21.5888 16.8338 22.2221 17.7326 22.6309 19.3968C20.8997 19.4215 19.1714 19.8404 17.6228 20.6147C14.8782 21.9871 11.6011 21.9871 8.85659 20.6147C7.30797 19.8404 5.57968 19.4215 3.84842 19.3968C4.25446 17.7431 4.90334 16.8134 5.40345 16.0307ZM13.2397 23.4073C13.5693 23.4073 13.8986 23.3929 14.2273 23.3643C14.1074 23.6204 13.6697 24.394 13.2397 25.6483C12.8096 24.3945 12.3729 23.6222 12.252 23.3643C12.5805 23.3929 12.9101 23.4073 13.2397 23.4073ZM20.1588 27.9904L19.9068 28.2422H14.3683C14.8805 25.5295 15.905 24.0553 16.3914 22.9667C17.0865 22.7699 17.7635 22.5098 18.409 22.1871C19.7628 21.5101 21.2785 21.1523 22.7921 21.1523H22.8916C22.896 21.2306 22.9005 21.3089 22.9031 21.3872C22.9649 23.381 21.6824 26.4665 20.1588 27.9904ZM26.4233 8.78906H24.6655V7.03125H22.9076V8.78906H21.1498V7.03125H19.392V8.78906H17.6342V7.03125H15.8764V8.78906H14.1186V7.03125H12.3608V8.78906H10.603V5.27344H26.4233V8.78906ZM21.1498 1.75781V2.77428C21.1498 3.02193 21.134 3.26981 21.1034 3.51562H8.84514V10.5469H19.3975C19.438 11.8732 19.7255 13.1923 20.2311 14.4083C19.3291 14.613 18.4557 14.9249 17.6228 15.3415C14.8782 16.7136 11.6011 16.7136 8.85659 15.3415C8.02368 14.9249 7.15027 14.613 6.24825 14.4083C6.79528 13.0925 7.08733 11.6563 7.08733 10.2205C7.08733 8.79959 6.80924 7.41486 6.26107 6.10405C5.73555 4.84818 5.43022 3.38951 5.35057 1.75781H21.1498ZM3.58773 21.1523C3.65982 21.1606 5.79071 21.0473 8.07038 22.1871C8.71582 22.5098 9.39286 22.7699 10.088 22.9667C10.5837 24.0761 11.5995 25.5329 12.1111 28.2422H6.57235L6.32058 27.9904C4.8642 26.534 3.46047 23.4421 3.58773 21.1523Z" fill="#5C86B6"/>
<path d="M12.3607 12.3633H14.1185V14.1211H12.3607V12.3633Z" fill="#5C86B6"/>
</svg>
