<?xml version="1.0" encoding="UTF-8" standalone="no"?>
<svg
   xmlns:dc="http://purl.org/dc/elements/1.1/"
   xmlns:cc="http://creativecommons.org/ns#"
   xmlns:rdf="http://www.w3.org/1999/02/22-rdf-syntax-ns#"
   xmlns:svg="http://www.w3.org/2000/svg"
   xmlns="http://www.w3.org/2000/svg"
   viewBox="0 0 161.33333 114.66667"
   height="114.66667"
   width="161.33333"
   xml:space="preserve"
   id="svg2"
   version="1.1"><metadata
     id="metadata8"><rdf:RDF><cc:Work
         rdf:about=""><dc:format>image/svg+xml</dc:format><dc:type
           rdf:resource="http://purl.org/dc/dcmitype/StillImage" /></cc:Work></rdf:RDF></metadata><defs
     id="defs6" /><g
     transform="matrix(1.3333333,0,0,-1.3333333,0,114.66667)"
     id="g10"><g
       transform="scale(0.1)"
       id="g12"><path
         id="path14"
         style="fill:#fefefe;fill-opacity:1;fill-rule:evenodd;stroke:none"
         d="M 30.1719,709.836 C 119.117,615.309 218.82,529.383 306.625,432.887 227.262,345.664 113.723,244.551 30.1719,155.938 -47.9648,73.0742 58.9688,-65.6758 169.68,45.207 L 432.328,308.16 c 24.442,24.469 87.461,71.801 87.461,124.727 0,52.558 -61.965,99.226 -86.262,123.523 L 170.879,819.359 C 64.8594,925.484 -51.8789,797.02 30.1719,709.836 Z m 682.8051,0 C 801.922,615.309 901.621,529.383 989.43,432.887 910.063,345.664 796.527,244.551 712.973,155.938 634.84,73.0742 741.773,-65.6758 852.484,45.207 L 1115.13,308.16 c 24.44,24.469 87.46,71.801 87.46,124.727 0,52.558 -61.96,99.226 -86.26,123.523 L 853.684,819.359 C 747.664,925.484 630.926,797.02 712.977,709.836 Z m -341.403,0 C 460.52,615.309 560.219,529.383 648.027,432.887 568.66,345.664 455.121,244.551 371.57,155.938 293.438,73.0742 400.371,-65.6758 511.082,45.207 L 773.73,308.16 c 24.442,24.469 87.458,71.801 87.461,124.727 0,52.558 -61.964,99.226 -86.261,123.523 L 512.281,819.359 C 406.262,925.484 289.523,797.02 371.574,709.836" /></g></g></svg>