<?xml version="1.0" encoding="UTF-8" standalone="no"?>
<svg
   xmlns:dc="http://purl.org/dc/elements/1.1/"
   xmlns:cc="http://creativecommons.org/ns#"
   xmlns:rdf="http://www.w3.org/1999/02/22-rdf-syntax-ns#"
   xmlns:svg="http://www.w3.org/2000/svg"
   xmlns="http://www.w3.org/2000/svg"
   viewBox="0 0 13.333333 17.333332"
   height="17.333332"
   width="13.333333"
   xml:space="preserve"
   id="svg2"
   version="1.1"><metadata
     id="metadata8"><rdf:RDF><cc:Work
         rdf:about=""><dc:format>image/svg+xml</dc:format><dc:type
           rdf:resource="http://purl.org/dc/dcmitype/StillImage" /></cc:Work></rdf:RDF></metadata><defs
     id="defs6" /><g
     transform="matrix(1.3333333,0,0,-1.3333333,0,17.333333)"
     id="g10"><g
       transform="scale(0.1)"
       id="g12"><path
         id="path14"
         style="fill:#ffffff;fill-opacity:1;fill-rule:evenodd;stroke:none"
         d="M 6.53516,99.8555 V 2.50781 c 0,-1.20703 0.6914,-2.234372 1.89453,-2.234372 H 87.4063 c 1.1015,0 1.9531,0.859372 1.9531,2.144532 V 117.945 c 0,1.727 -0.9766,2.118 -2.4063,2.118 H 26.6953 c -2.2344,0 -15.6484,-14.665 -18.14061,-17.157 -1.125,-1.129 -2.01953,-1.73 -2.01953,-3.0505 z M 53.4141,18.2891 c 4.9257,0 10.0664,-0.9414 10.0547,1.9453 -0.0118,2.8945 -4.7461,1.9453 -10.0547,1.9453 -3.0547,0 -3.043,-3.8906 0,-3.8906 z m -31.8086,41.207 c 4.6211,0 21.3476,-0.8242 22.8203,0.8164 0.5039,0.5625 0.6719,3.1133 -1.9141,3.1133 H 21.5625 c -2.8086,0 -2.8008,-3.9297 0.043,-3.9297 z m 31.7187,0 h 20.9024 c 2.8437,0 2.9453,3.9609 -0.0899,3.9609 H 53.3242 c -2.8437,0 -2.9101,-3.9609 0,-3.9609 z M 53.4141,38.875 h 20.7226 c 3.043,0 2.9492,3.9727 0,3.9727 H 53.3242 c -2.8476,0 -3.0469,-3.9727 0.0899,-3.9727 z m 0,30.9102 h 20.6992 c 3.0234,0 3.0781,3.9648 0.0234,3.9648 H 53.3242 c -2.8984,0 -2.9804,-3.9648 0.0899,-3.9648 z m 0,-41.2032 c 7.0312,0 13.875,0 20.7226,0 3.1524,0 2.9375,3.9688 0.1797,3.9688 H 53.2109 c -2.6054,0 -2.9453,-3.9688 0.2032,-3.9688 z m -31.625,41.2032 h 20.7226 c 2.961,0 2.9492,3.9648 0,3.9648 H 21.6055 c -2.7774,0 -3.1055,-3.9648 0.1836,-3.9648 z m 12.9023,28.3945 h 39.4453 c 3.0274,0 2.9844,3.8903 0,3.8903 H 34.6016 c -2.9493,0 -3.1172,-3.8903 0.0898,-3.8903 z M 21.7891,49.1992 h 52.3476 c 3.0156,0 3.0664,3.9414 -0.0937,3.9414 H 21.7891 c -3.0938,0 -3.1641,-3.9414 0,-3.9414 z m -0.0899,30.8789 h 52.4805 c 2.8633,0 3.1484,3.9727 -0.2266,3.9727 h -52.164 c -3.1875,0 -2.961,-3.9727 -0.0899,-3.9727 z M 40.9023,33.4609 c 0.0508,-1.2773 0.1602,-10.8125 -0.121,-11.2382 -0.168,-0.1368 -17.1602,-0.1914 -17.3438,0.0273 -0.0195,0.0273 -0.5078,16.3945 0.0781,16.6094 0.8203,0.1015 16.8125,-0.0078 18.9961,0.0156 2.6836,0.0234 2.9453,3.207 0.6602,3.918 -0.4844,0.1484 -17.711,0.0547 -19.1133,0.0547 -6.3242,0 -4.625,-0.125 -4.582,-22.2539 0.0078,-2.9336 2.5429,-2.3047 5.4023,-2.3047 2.0938,0 17.8086,-0.3477 18.9102,0.2968 1.6718,0.9805 0.9492,10.8243 0.9257,14.3711 -0.0195,2.9375 -3.6992,2.5743 -3.8125,0.5039 z M 95.6563,116.113 95.6641,4.24609 C 91.3594,3.625 93.293,0.273438 95.0391,0.273438 c 2.0625,0 4.6093,-0.488282 4.6093,2.234372 V 117.852 c 0,4.55 -9.8242,1.714 -5.7109,-1.282 0.5625,-0.41 0.9688,-0.343 1.7188,-0.457 z M 23.4102,112.25 c -1.0235,-1.02 -9.6993,-9.492 -9.8399,-10.121 h 10.9219 l 0.0234,10.996 c -0.4922,-0.18 -0.5937,-0.652 -1.1054,-0.875 z M 10.5742,99.293 c -0.1406,-1.7578 -0.0156,-5.3438 -0.0156,-7.1641 0,-13.5039 -0.1055,-87.60546 0.0664,-87.78906 0.0117,-0.01171 70.7344,-0.38281 74.6406,-0.0664 0.0899,0.32812 0.1641,111.22256 0,111.82856 H 28.6328 L 28.5195,99.3008 10.5742,99.293" /></g></g></svg>