<?xml version="1.0" encoding="UTF-8" standalone="no"?>
<svg
   xmlns:dc="http://purl.org/dc/elements/1.1/"
   xmlns:cc="http://creativecommons.org/ns#"
   xmlns:rdf="http://www.w3.org/1999/02/22-rdf-syntax-ns#"
   xmlns:svg="http://www.w3.org/2000/svg"
   xmlns="http://www.w3.org/2000/svg"
   viewBox="0 0 17.333332 17.333332"
   height="17.333332"
   width="17.333332"
   xml:space="preserve"
   id="svg2"
   version="1.1"><metadata
     id="metadata8"><rdf:RDF><cc:Work
         rdf:about=""><dc:format>image/svg+xml</dc:format><dc:type
           rdf:resource="http://purl.org/dc/dcmitype/StillImage" /></cc:Work></rdf:RDF></metadata><defs
     id="defs6" /><g
     transform="matrix(1.3333333,0,0,-1.3333333,0,17.333333)"
     id="g10"><g
       transform="scale(0.1)"
       id="g12"><path
         id="path14"
         style="fill:#ffffff;fill-opacity:1;fill-rule:evenodd;stroke:none"
         d="m 69.6445,65.6094 3.9297,4.0429 13.0117,-13.1289 c 0.4571,-0.457 0.8711,-0.8086 1.2813,-1.3007 2.1836,-2.6172 14.4138,-14.8633 17.0118,-17.4571 l 6.57,-6.5586 c 0.981,-1.0273 2.215,-2.9101 3.922,-4.0547 -0.543,-0.8046 -3.375,-3.7578 -4.219,-3.9843 L 87.7578,46.9102 c -0.9648,0.957 -1.4961,1.7382 -2.4609,2.6992 L 74.8047,60.2188 c -1.3828,1.8085 -4.0078,3.6718 -5.1602,5.3906 z M 8.44141,10.0352 H 58.3906 V 5.81641 H 8.44141 Z m 5.86329,8.914 H 51.3516 V 14.7266 H 14.3047 Z m -4.45314,3.9844 v -8.207 H 3.98438 V 1.36328 H 63.0781 V 14.7266 H 56.043 v 8.207 c 0,0.543 -0.1641,0.7031 -0.7032,0.7031 H 10.5547 c -0.543,0 -0.70314,-0.1601 -0.70314,-0.7031 z M 27.3828,71.2969 52.2344,46.5586 49.3008,43.5117 24.4453,68.2461 Z M 51.4141,53.8281 34.6484,70.4766 68.8828,104.594 c 1.0391,-0.321 1.5547,-1.203 2.2266,-1.875 2.0976,-2.094 13.8203,-13.6135 14.4804,-14.5979 z m 16.7656,58.1519 2.9219,3.055 24.8632,-24.7459 -3.0507,-3.1602 z m -6.332,0.118 3.9882,-4.102 L 31.4844,73.5234 27.4961,77.625 18,68.2461 49.1836,36.9453 l 9.4961,9.3789 -4.0977,4.2227 c 0.9805,1.4375 4.4414,4.5586 5.8594,5.9765 1.0469,1.0508 5.1484,5.5352 6.1524,5.8008 0.3046,-1.1328 10.0546,-10.3984 11.0859,-11.4258 0.6289,-0.625 0.7461,-0.9101 1.2891,-1.5273 0.457,-0.5195 0.9023,-0.9063 1.4023,-1.4063 l 9.8398,-9.8593 c 2.3594,-2.8242 8.3047,-8.5235 11.1521,-11.3594 l 4.102,-4.3398 c 1.39,-1.3946 4.773,-4.4454 5.687,-5.8047 l 10.606,10.4922 -37.4689,38.1523 c -0.0313,0.0352 -0.0782,0.0898 -0.1094,0.1289 -1.875,2.2539 -6.0742,5.7227 -7.2656,7.5039 l 11.8984,12.0156 4.2266,-4.0976 9.4919,9.3789 -31.3044,31.1832 -9.3789,-9.261" /></g></g></svg>