<?xml version="1.0" encoding="UTF-8" standalone="no"?>
<svg
   xmlns:dc="http://purl.org/dc/elements/1.1/"
   xmlns:cc="http://creativecommons.org/ns#"
   xmlns:rdf="http://www.w3.org/1999/02/22-rdf-syntax-ns#"
   xmlns:svg="http://www.w3.org/2000/svg"
   xmlns="http://www.w3.org/2000/svg"
   viewBox="0 0 17.333332 17.333332"
   height="17.333332"
   width="17.333332"
   xml:space="preserve"
   id="svg2"
   version="1.1"><metadata
     id="metadata8"><rdf:RDF><cc:Work
         rdf:about=""><dc:format>image/svg+xml</dc:format><dc:type
           rdf:resource="http://purl.org/dc/dcmitype/StillImage" /></cc:Work></rdf:RDF></metadata><defs
     id="defs6" /><g
     transform="matrix(1.3333333,0,0,-1.3333333,0,17.333333)"
     id="g10"><g
       transform="scale(0.1)"
       id="g12"><path
         id="path14"
         style="fill:#ffffff;fill-opacity:1;fill-rule:evenodd;stroke:none"
         d="m 92.1602,29.0859 c -0.3282,1.5 2.3242,3.5469 2.9648,4.2071 1.8203,1.8828 2.8438,-0.0196 4.4336,-1.25 20.8244,-16.0782 6.3824,-4.7969 20.7544,-15.2383 1.621,-1.1719 2.332,-2.1758 2.167,-5.2109 -0.23,-4.22661 -4.867,-6.27349 -8.679,-4.21489 -3.606,1.9414 -13.735,13.60939 -18.1174,17.88669 -0.8555,0.8282 -3.2539,2.6055 -3.5234,3.8203 z M 46.8867,87.0586 c -1.4883,0.7695 -1.0859,1.4922 -3.5976,1.3047 -3.8828,-0.2852 -3.1407,-4.6172 1.1484,-4.0547 1.7539,0.2305 2.4375,0.9687 2.4492,2.75 z m 5.9375,1.1016 C 48.082,87.7969 50.625,83.8281 54.25,84.25 c 3.1211,0.3633 4.1992,4.3359 -1.4258,3.9102 z M 66.5664,56.543 c -5.0078,0.0273 -3.4805,-1.1875 -3.6875,6.6523 -0.0625,2.4141 0.6328,8.793 -3.1914,6.9102 -1.5742,-0.7735 -1.0039,-7.4102 -0.9844,-9.6485 0.0117,-1.8672 0.4766,-3.7304 -1.25,-4.0468 -4.7812,-0.8789 -1.5078,5.1718 -3.1836,7.3164 -0.7812,1 -2.9179,0.7773 -3.3945,-0.5899 -0.4336,-1.25 -0.0742,-3.7109 -0.1484,-5.0937 -0.0899,-1.8438 -2.1289,-2.1407 -3.3789,-1.4063 -1.0704,0.6289 -0.4649,3.1289 -0.4219,4.5039 0.039,1.2149 -0.0547,9.0196 -0.3711,9.9571 -0.5,1.4961 -2.6875,1.5703 -3.4219,0.4687 -1.082,-1.6445 -0.289,-12.4297 -0.4844,-14.9219 -0.1211,-1.4687 0.0469,-3.4687 1.2188,-4 1.3945,-0.6367 17.5547,-0.3203 20.3242,-0.289 2.0586,0.0234 9.0117,-0.3907 10.0469,0.6211 0.9883,0.9609 0.7695,3.1406 -1.2852,3.2773 -3.8984,0.2656 -1.457,4.5742 -2.0859,8.1172 -0.2266,1.2734 -1.5117,2.6992 -3.1563,1.6523 -1.957,-1.25 -0.7148,-6.8554 -1.1445,-9.4804 z m 13.7969,19.539 c 0.5664,-1.4961 0.2031,-14.789 0.1953,-17.6875 -0.0117,-8.8047 1.4922,-9.9648 -7.7891,-9.8281 -5.9726,0.082 -12.0195,-0.0234 -18.0039,-0.0117 -3.5117,0 -14.9922,-0.8672 -16.8125,0.918 -1.8281,1.8007 -1.0898,13.4414 -1.0898,16.9765 0,10.2617 -1.3047,9.9492 2.9805,9.7461 7.0195,-0.332 37.746,0.5899 40.5195,-0.1133 z M 40.0781,92.207 c 2.6328,0.5352 10.7617,0.0821 14,0.0664 4.6914,-0.0234 9.3711,0 14.0586,0 3.875,0 10.6211,1 12.0899,-2.0781 0.6992,-1.457 0.4297,-4.7734 0.3984,-6.6015 -0.0664,-3.8243 0.4492,-3.0704 -3.7656,-3.2032 L 63.125,80.4844 c -1.918,0.1953 -4.7695,-0.1055 -6.8164,-0.1289 -2.0078,-0.0274 -12.5039,-0.0703 -13.7969,0.0664 -2.1211,0.2265 -5.0937,-0.8321 -5.5664,1.125 -0.2695,1.1328 -0.2578,5.5195 -0.1367,6.8164 0.1836,2.1797 1.2734,3.4336 3.2695,3.8437 z m 44.7266,-9.6406 c 0.4453,3.875 -0.0117,8.5156 -1.9883,11.0742 -2.1328,2.7617 -5.9805,2.7735 -10.3945,2.8321 -8.7383,0.1171 -17.3555,-0.2422 -26.0547,-0.0664 -4.4844,0.0898 -7.6445,0.5078 -10.8906,-1.9258 -2.6758,-2.0117 -2.8946,-6.1602 -2.7813,-10.3711 0.1172,-4.1211 -0.3906,-9.375 -0.0195,-13.1992 0.1953,-2.0157 -0.1055,-4.5235 -0.082,-6.6836 0.2031,-14.586 -1.375,-20.6094 13.2578,-19.9805 8.3047,0.3516 17.2539,0.1055 25.539,-0.0508 12.0703,-0.2187 13.2071,2.7266 13.5274,12.8438 0.0312,1.1992 -0.1953,2.0781 -0.1953,3.2422 0,1.1054 0.1992,1.9414 0.1523,3.0781 -0.2344,6.3867 -0.1094,12.8125 -0.0703,19.207 z M 44,111.844 c -2.5937,-0.906 -4.7187,-1.938 -6.9414,-3.172 C 21.207,99.8359 7.85547,77.1992 18.6328,52.4375 27.5586,31.9219 51.2578,21.5352 72.6836,28.6523 90.7148,34.6367 107.195,54.2773 101.719,79.8086 98.3477,95.5352 86.3008,107.805 72.5,112.301 c -3.3711,1.101 -9.7148,2.39 -13.457,2.012 -1.2578,-0.125 -2.8516,-1.211 -2.1797,-2.774 0.7148,-1.676 6.2031,-1.344 8.5078,-1.746 8.0469,-1.418 15.1445,-5.238 20.6758,-10.1758 1.9062,-1.6953 7.4961,-8.6055 8.6445,-11.9219 0.8984,-2.5781 2.0391,-4.4765 2.8203,-7.4648 C 99.6875,71.9414 98.457,61.0586 95.2461,53.9063 91.3242,45.1758 83.0586,37.3359 74.4492,33.5703 69.5625,31.4258 63.2109,30.2031 57.1641,30.4336 c -7.211,0.2891 -10.1563,1.7734 -16.3672,4.2344 -3.0899,1.2187 -9.2656,6.289 -11.6758,8.8945 -5.7539,6.2227 -11.6523,18.3008 -10.0664,30.4922 1.8203,14.0469 6.6875,20.2851 14.0898,27.0433 3.4766,3.179 7.9102,5.168 13.2344,7.343 3.0899,1.262 2.1914,5 -2.3789,3.403 z m 10.332,6.246 C 82.0703,120.789 104.371,99.6016 106.504,74.832 108.918,46.8594 88.2461,24.9453 63.2344,22.6289 35.3398,20.043 13.3203,40.918 11.0313,65.7656 8.44531,93.9336 29.2852,115.645 54.332,118.09 Z M 6.76953,73.6523 v -6.7617 c 0.28125,-0.6484 1.30078,-8.2383 1.80078,-10.1211 1.40235,-5.3086 1.58199,-4.6406 3.19529,-8.625 1.6407,-4.0625 7.1485,-12.2461 9.6719,-14.1562 5.3789,-4.0625 6.9844,-6.75 13.6992,-9.9727 6.2891,-3.0195 10.5586,-4.5781 18.4453,-5.3437 7.9414,-0.7617 13.7305,-0.2071 20.8164,2.0898 8.6993,2.8086 8.7735,4.2344 12.1524,5.6836 2.0859,0.8867 2.7695,-0.8476 3.7109,-1.8008 2.8047,-2.8593 5.9375,-5.9843 8.8828,-8.7734 0.543,-0.5156 0.8399,-1.0859 1.3825,-1.5352 1.661,-1.3789 2.875,-2.957 4.457,-4.45699 1.063,-1.01172 2.059,-1.88282 3.102,-2.90235 3.824,-3.6914 7.879,-6.273435 13.246,-3.64843 3.004,1.46484 4.805,4.60937 5.434,7.68747 0,4.5469 -1.446,7.3047 -5.243,10.0821 -3.886,2.8437 -16.449,12.3593 -18.335,13.5507 -1.012,0.5274 -1.118,0.9688 -1.793,1.4649 -0.739,0.539 -1.391,0.4883 -1.9106,1.3672 0.0781,0.832 2.8086,4.4336 3.4456,5.4883 7.14,11.7421 8.883,22.8203 7.004,36.4648 -0.707,5.1484 -2.512,9.3008 -4.442,13.5781 -3.14,6.9688 -10.2732,15.6253 -16.4764,19.5233 -1.8515,1.156 -3.582,2.34 -5.414,3.496 -8.9336,5.621 -22.7891,7.321 -33.2696,5.59 -6.289,-1.039 -8.3398,-1.832 -14.082,-4.254 C 27.293,113.605 15.6797,101.984 11.7852,92.9727 6.84766,81.5547 7.30078,75.0391 6.76953,73.6523" /></g></g></svg>