<?xml version="1.0" encoding="UTF-8" standalone="no"?>
<svg
   xmlns:dc="http://purl.org/dc/elements/1.1/"
   xmlns:cc="http://creativecommons.org/ns#"
   xmlns:rdf="http://www.w3.org/1999/02/22-rdf-syntax-ns#"
   xmlns:svg="http://www.w3.org/2000/svg"
   xmlns="http://www.w3.org/2000/svg"
   viewBox="0 0 17.333332 17.333332"
   height="17.333332"
   width="17.333332"
   xml:space="preserve"
   id="svg2"
   version="1.1"><metadata
     id="metadata8"><rdf:RDF><cc:Work
         rdf:about=""><dc:format>image/svg+xml</dc:format><dc:type
           rdf:resource="http://purl.org/dc/dcmitype/StillImage" /></cc:Work></rdf:RDF></metadata><defs
     id="defs6" /><g
     transform="matrix(1.3333333,0,0,-1.3333333,0,17.333333)"
     id="g10"><g
       transform="scale(0.1)"
       id="g12"><path
         id="path14"
         style="fill:#ffffff;fill-opacity:1;fill-rule:evenodd;stroke:none"
         d="M 64.8906,79.2422 C 82.3164,80.6406 98.8203,67.8125 100.313,49.1055 101.816,30.2891 87.3789,15.1211 70.3945,13.7617 51.418,12.2461 36.3789,26.5156 34.9023,43.6172 c -0.621,7.1836 1.0938,14.2109 4.6875,20.0351 1.1602,1.879 2.2735,3.1524 3.4532,4.6836 1.8008,2.3438 5.8281,5.543 9.1992,7.2383 3.9375,1.9766 7.5117,3.2539 12.6484,3.668 z m -7.0859,23.0118 c 0.0547,-0.34 0.0976,-1.078 0.2266,-1.375 l 1.207,-0.215 2.2578,-0.055 c 0.2031,1.231 0.9922,3.477 -0.5234,3.93 -0.5938,0.176 -1.8321,0.063 -2.3711,-0.164 -0.9453,-0.395 -0.75,-1.074 -0.7969,-2.121 z M 108.305,67.5625 C 108,66.6055 108.043,65.875 108.281,64.7266 l 0.293,-0.8399 c 3.656,-0.0429 3.457,0.3203 3.524,3.7774 -1.379,0.1054 -2.575,0.25 -3.793,-0.1016 z m -0.153,-17.9297 c 0.192,-1.3047 1.34,-1.4258 2.688,-1.1992 1.324,0.2227 1.426,1.1758 1.226,2.5898 -0.203,1.4961 -1.324,1.4493 -2.8,1.3438 -1.297,-0.0859 -1.289,-1.5156 -1.114,-2.7344 z M 23.1719,63.9844 c 4.3047,-0.2578 4.3867,-0.4219 3.6054,3.8515 -3.1718,-0.0312 -4.0468,-0.1914 -3.6054,-3.8515 z m 0.3047,-11.8242 c -0.3633,-0.7383 -0.7227,-2.4922 -0.0391,-3.3594 0.6953,-0.8945 2.4258,-0.2383 3.6484,-0.1992 0.0039,1.2031 0.1016,2.6914 -0.2656,3.5468 -1,0.2344 -2.3515,0.2539 -3.3437,0.0118 z m -0.2774,7.7617 c -0.289,-0.7539 -0.2578,-3.0196 0.4024,-3.543 0.6484,-0.5195 2.5937,-0.4062 3.1367,0.1641 0.5898,0.625 0.5156,2.8164 -0.1524,3.3633 -0.4726,0.3906 -2.9609,0.1523 -3.3867,0.0156 z m 88.6408,0.0234 c -1.067,0.2969 -2.711,0.5195 -3.348,-0.3359 -0.523,-0.6914 -0.769,-2.5313 -0.062,-3.2305 0.543,-0.5273 3.086,-0.2851 3.437,0.0391 0.524,0.4883 0.153,3.0508 -0.027,3.5273 z M 69.5781,108.051 c -0.4883,0.25 -3.8047,1.461 -3.9648,-0.969 -0.0547,-0.809 -0.0313,-5.445 0.1914,-5.84 0.3281,-0.582 3.6875,-1.66 3.7851,1.043 0.043,1.278 0.2461,4.875 -0.0117,5.766 z m 5.0196,4.234 c -1.2227,-0.347 -1.3672,-1.14 -1.2461,-2.422 0.1211,-1.269 0.0507,-2.578 0.0507,-3.851 0.004,-3.805 -0.8671,-5.887 2.6641,-5.367 1.4844,0.214 1.2539,1.281 1.2266,2.714 -0.0274,1.297 -0.0352,2.59 -0.0274,3.887 0.0078,2.629 0.918,6.055 -2.6679,5.039 z M 66.3516,50.2109 c 2.3632,0.7891 4.4101,-0.7773 4.9062,-2.5468 0.6211,-2.2383 -0.8164,-4.168 -2.5078,-4.6836 -5,-1.5352 -7.0547,5.6758 -2.3984,7.2304 z m 0.3867,4.0704 c -10.2617,-1.254 -8.4063,-16.6446 1.8242,-15.3399 3.9219,0.5 7.2852,4.0859 6.6758,8.6758 -0.5039,3.7812 -4.0742,7.2031 -8.5,6.6641 z m 41.9337,23.3242 c 0.406,-0.3516 1.723,-0.2149 2.367,-0.168 1.152,0.0898 0.809,0.5781 1.051,1.5703 0.246,1.0078 1.836,1.7969 2.543,2.5625 2.527,2.7461 1.265,8.6094 -3.957,9.3985 -3.934,0.5937 -2.34,3.5664 -0.981,3.871 1.028,0.2344 1.231,-0.2656 1.66,-0.7148 0.922,-0.9609 2.524,-1.1523 4.231,-0.8203 0.137,1.9648 -0.625,3.1367 -1.637,3.9414 -1.574,1.2539 -1.683,1.0703 -2.304,3.3199 -0.684,0.161 -1.563,0.403 -2.415,0.18 -0.98,-0.254 -0.66,-0.668 -1.082,-1.5546 -0.589,-1.2461 -1.785,-1.75 -2.609,-2.6992 -2.008,-2.3086 -1.277,-6.1602 0.566,-7.793 1.805,-1.6015 7.383,-1.9844 5.125,-4.6094 -2.402,-2.7812 -2.687,3.0977 -7.226,0.3633 -0.016,-1.0039 0.555,-1.2343 0.976,-2.0078 0.575,-1.0625 0.231,-0.914 1.247,-1.5781 2.445,-1.5899 1.703,-1.8281 2.121,-2.8516 0.187,-0.4492 0.011,-0.1758 0.324,-0.4101 z M 24.6602,90.5781 c 0.0898,0.543 -0.043,0.7735 0.1718,1.0938 1.6368,-1.5156 3.2422,-1.9531 1.6563,-6.0938 -1.457,-0.0273 -3.2969,0.2032 -3.8516,1.8321 -0.8086,2.3632 0.4571,2.4961 2.0235,3.1679 z m -9.2149,0.0547 c 0.1758,-1.0117 1.7539,-2.0586 2.3789,-2.9062 3,-4.086 -0.7929,-5.7657 1.3164,-7.875 1.125,-1.1133 2.8086,0.2851 3.6914,0.7382 4.4571,2.293 5.2891,-1.996 7.6016,-1.0781 2.8867,1.1446 -0.3906,4.6758 1.5703,7.6328 1.3672,2.0625 1.8555,1.8868 2.4492,2.8555 1.0157,1.6602 -0.3164,2.5938 -1.8086,2.8047 -7.125,1.0156 -4.2031,5.3711 -7.1406,5.8398 -2.6992,0.4297 -2.1719,-2.4726 -3.707,-4.1172 -2.6524,-2.8359 -6.8867,-0.7226 -6.3516,-3.8945 z m -3.7617,-3 c -0.9219,7.7149 5.1836,14.1012 11.8789,14.8552 7.9883,0.899 14.25,-5.1091 14.9531,-12.0778 C 39.3047,82.6367 33.4141,76.3203 26.5703,75.6133 18.5938,74.793 12.5078,80.7148 11.6836,87.6328 Z m -4.02344,3.2344 v -2.7891 c 0.25,-0.6797 0.4375,-2.4961 0.71484,-3.4375 0.32031,-1.0781 0.69141,-2.039 1.20313,-3.039 1.00777,-1.9649 1.85547,-3.6797 3.37497,-5.1172 1.8164,-1.7188 2.3711,-2.2305 5.125,-3.3594 14.8711,-6.082 28.8907,7.9375 23.0625,22.707 -1.8125,4.582 -4.1054,6.602 -8.2461,8.734 -1.6015,0.829 -4.5507,1.977 -6.6406,1.938 -3.1992,-0.059 -4.6328,-0.074 -7.3125,-1.168 C 13.8867,103.273 10.2656,99.6641 8.49219,94.3984 8.14063,93.3594 7.92969,91.5508 7.66016,90.8672 Z M 54.1953,105.129 c -0.832,7.84 5.207,14.062 12.086,14.773 4.5937,0.473 7.2929,-1.433 10.039,-3.203 1.9805,-1.269 4.3516,-6 4.6797,-8.918 0.875,-7.8044 -5.2734,-14.1169 -12.125,-14.7693 -4.5234,-0.4336 -7.2148,1.3828 -9.9844,3.2578 -1.1797,0.8008 -2.164,2.3868 -2.9922,3.7227 -0.8086,1.3008 -1.5117,3.3128 -1.7031,5.1368 z m 15.3086,18.734 h -4.0117 c -2.6914,-1.242 -4.8164,0.289 -11.0039,-6.008 -2.1133,-2.148 -2.2969,-2.933 -3.082,-5.402 -0.8321,-2.629 -1.504,-3.976 -1.2266,-6.996 0.4766,-5.121 2.2617,-8.3828 5.3281,-11.6875 1.9727,-2.125 7.7266,-4.9922 12.0469,-4.875 1.3906,0.043 5.9687,0.9024 7.0156,1.4571 3.9219,2.0742 6.4336,4.4843 8.6758,8.289 1.2422,2.1094 1.2734,4.0394 1.7461,6.7344 0.7461,4.27 -2.2695,10.387 -4.1563,12.66 -0.5664,0.68 -1.4765,1.18 -2.2539,1.985 -0.9882,1.027 -3.9843,2.437 -5.4922,2.996 -1.0273,0.382 -2.8671,0.531 -3.5859,0.847 z m 38.6171,-21.535 c 4.563,0.844 7.594,-0.715 10.207,-2.8202 0.621,-0.5 1.332,-0.918 1.652,-1.7031 0.86,-2.1133 2.434,-2.7813 3.219,-6.8516 1.547,-8.0117 -4.402,-14.2343 -11.019,-15.25 -6.77,-1.039 -14.5394,4.0664 -15.4183,11.2266 -1.0508,8.5664 4.2773,14.0973 11.3593,15.3983 z M 127.48,87.3867 v 3.4375 c -0.886,2.1289 0.063,4.4024 -3.761,9.125 -1.461,1.8048 0.129,0.3048 -2.051,2.1918 -2.957,2.562 -7.207,4.496 -12.566,4.394 -4.465,-0.078 -9.8247,-3.371 -11.6762,-5.457 -7.4141,-8.3436 -5.8867,-19.4491 2.3555,-26.1288 0.9917,-0.8008 1.2737,-1.082 2.6207,-1.6211 7.559,-3.0156 13.766,-2.0547 19.371,2.8672 1.372,1.2031 2.692,2.8828 3.77,4.711 2.082,3.5507 1.297,4.7968 1.937,6.4804 z M 79.2891,36.9102 C 79.1758,36.0391 78.3789,35.1641 77.5,35.2188 c -0.8633,0.0507 -1.2578,0.8398 -2.332,1.0117 -1.9453,0.3086 -4.2891,-0.9805 -5.043,-1.875 -0.8672,-1.0352 -0.5156,-1.3789 -0.9805,-2.5586 -0.3125,-0.793 -1.625,-1.0235 -2.3867,-0.4727 -0.9648,0.7031 0.0547,2.3867 -2.7422,3.9727 -4.8086,2.7187 -5.2617,-1.9727 -7.414,0.3711 -0.9063,0.9883 -0.3047,1.2539 0.2812,2.0312 1.1094,1.4727 0.2539,4.0664 -0.6758,5.3399 -2.0078,2.7578 -3.6211,0.9804 -4.0117,2.7304 -0.3203,1.4453 0.2539,1.8633 1.4141,2.0938 1.1679,0.2265 1.5039,0.5976 2.1133,1.2539 1.0195,1.1016 2.0234,3.4648 1.2695,5.3164 -0.3438,0.8359 -1.4024,1.3359 -0.9609,2.3008 0.2539,0.5586 1.2578,1.3789 2.25,0.9531 0.8007,-0.3477 2.0898,-1.7891 5.0703,-0.2969 2.6132,1.3125 2.3867,3.4063 2.8398,4.043 0.5234,0.7305 2.0508,0.6172 2.5195,-0.0625 0.4532,-0.6445 0.3282,-1.5703 0.9727,-2.3789 0.8906,-1.1211 2.7695,-2.1992 4.9453,-1.9219 1.3164,0.1641 1.7383,0.8438 2.3789,1.0274 0.9922,0.2812 1.3203,-0.6758 2.332,-0.9766 -0.5664,-2.5117 -2.914,-1.6523 -1.0195,-5.5703 0.3594,-0.75 0.7578,-2.0703 1.2695,-2.625 0.8204,-0.8867 1.8907,-0.5586 3.086,-0.8438 0.5625,-1.0117 0.7812,-2.539 -0.7774,-2.8945 -1.6718,-0.3789 -1.9687,-0.6484 -2.7226,-1.6875 -2.668,-3.6445 -0.1719,-5.9492 0.1133,-6.5898 z m 2.8867,3.9961 c 1.3633,0.7968 3.543,-0.1836 4.457,1.5039 0.6133,1.1367 0.1836,3.7851 0.25,5.2773 0.0938,2.1367 0.211,3.793 -1.6914,4.3711 -1.3828,0.4219 -4.9062,-0.3242 -2.5195,2.0898 3.1523,3.1914 1.1211,3.3672 -2.1094,6.711 -0.6406,0.664 -2.0469,2.4648 -3.5742,2.3047 -1.7149,-0.1836 -2.1016,-2.3594 -3.668,-1.9532 -0.9219,0.875 0.082,2.8516 -1.293,4.0196 -1.082,0.9179 -2.8867,0.6015 -4.4492,0.5468 -1.5312,-0.0546 -3.6718,0.4063 -4.8242,-0.5468 -1.1914,-0.9922 -0.5742,-2.793 -1.0937,-4.1797 -1.9766,-0.3438 -2.0664,2.0625 -4.3047,1.8047 -1.668,-0.1875 -2.668,-1.9766 -3.4688,-2.8985 -0.7617,-0.875 -2.7148,-2.1328 -2.9297,-3.457 -0.3906,-2.4023 2.25,-2.3047 2.0938,-4.2148 -1.2344,-1.1016 -2.7422,0.1171 -4.1094,-1.3399 -1.0312,-1.0976 -0.6289,-3.0586 -0.6094,-4.668 0.0196,-1.6289 -0.3632,-3.8007 0.6602,-4.8007 1.1601,-1.1328 2.9961,-0.168 4.1758,-1.1211 0.3164,-1.7774 -2.3907,-1.918 -1.961,-4.25 0.2383,-1.2578 2.2383,-2.6758 2.9688,-3.4024 0.8281,-0.8281 2.0039,-2.664 3.5273,-2.8437 2.1524,-0.2539 2.3047,2.2422 4.1094,1.9961 1.0195,-1.0821 0.0234,-3.0508 1.3398,-4.1367 1.043,-0.8594 3.4297,-0.5 4.9493,-0.4727 1.5468,0.0273 3.9023,-0.3164 4.6679,0.7539 1.0782,1.5039 -0.1679,4.25 2.4883,2.8008 1.8203,-0.5 3.0078,-1.4024 4.4063,0.2031 0.4609,0.5352 0.8007,1.0586 1.2812,1.5469 1.3789,1.3984 3.8789,3.2656 3.3242,4.9687 -0.5351,1.6524 -2.6601,1.1836 -2.0937,3.3868 z M 64.4453,71.4219 c 3.6211,0.3945 8.0235,-0.043 11.2578,-1.1094 7.461,-2.457 9.9571,-5.8633 13.6836,-11.5898 3.5781,-5.4922 1.9531,-7.3555 2.7227,-9.8243 1.207,-3.8593 -0.3946,-1.8945 0.0898,-3.5625 0.1563,-0.539 0.2891,-0.1836 0.2149,-1.2929 C 91.8984,36.1016 86.875,28.6719 80.2109,24.8008 77.3477,23.1367 74.5039,22.2148 70.7578,21.6992 59.957,20.2227 51.3477,25.0078 45.832,34.0781 c -5.8203,9.5625 -4.0898,19.8282 2.3946,28.3555 3.2734,4.3008 8.2343,8.1133 16.2187,8.9883 z M 38.6953,44.8633 C 39.7461,29.1328 52.332,16.6133 69.3398,17.582 84.8672,18.4688 97.3906,31.5898 96.5352,48.2227 95.2344,73.4492 63.418,85.1406 46.2266,66.0273 40.9141,60.125 38.1328,53.2969 38.6953,44.8633 Z M 58.957,3.85938 h 1.8516 c 0.9961,0.6914 1.1914,0.69531 1.0742,2.47265 -0.3867,5.78517 1.1406,3.2461 5.336,3.35938 1.5429,0.04297 5.1601,0.72269 5.8085,-0.54297 0.9258,-1.80078 -0.7929,-3.875 1.5079,-5.28906 h 1.8086 c 1.1132,0.82421 1.0703,1.35546 0.996,3.71484 -0.1562,5.14458 0.9688,3.24608 7.1915,6.37498 5.0468,2.5391 9.2343,6.4102 12.2851,10.3242 1.8438,2.3672 3.7886,5.5977 4.8826,8.5547 0.903,2.4453 1.664,4.0899 2.082,6.9219 1.258,8.6133 0.453,15.4531 -3.226,22.8984 -1.2581,2.5469 -3.3167,6.336 -5.4027,8.2032 -0.7187,0.6445 -1.6093,1.5156 -2.2226,2.1953 -1.5938,1.7539 -7.7734,6.2383 -10.6836,7.3437 -4.2695,1.6211 -10.1367,3.0196 -15.2031,2.918 -7.5703,-0.1445 -14.4297,-2.5859 -20.5664,-6.75 -3.2422,-2.2031 -6.9453,-5.8398 -9.0039,-9.0195 -7.4336,-11.5039 -8.5899,-22.3672 -3.7696,-35.5118 1.0508,-2.8554 3.4141,-6.121 5.2071,-8.4101 2.2578,-2.875 2.9726,-3.4805 5.5468,-5.7539 0.4766,-0.4219 0.6836,-0.4727 1.2539,-0.875 3.1368,-2.2227 5.3164,-3.2735 8.7579,-4.8477 0.6562,-0.3008 2.8476,-0.9609 3.1601,-1.2539 0.9258,-0.8672 -0.0117,-2.55857 0.1367,-3.76561 0.3203,-2.60937 -0.2773,-2.19921 1.1914,-3.26171" /></g></g></svg>