<?xml version="1.0" encoding="UTF-8" standalone="no"?>
<svg
   xmlns:dc="http://purl.org/dc/elements/1.1/"
   xmlns:cc="http://creativecommons.org/ns#"
   xmlns:rdf="http://www.w3.org/1999/02/22-rdf-syntax-ns#"
   xmlns:svg="http://www.w3.org/2000/svg"
   xmlns="http://www.w3.org/2000/svg"
   viewBox="0 0 30.666668 33.333332"
   height="33.333332"
   width="30.666668"
   xml:space="preserve"
   id="svg2"
   version="1.1"><metadata
     id="metadata8"><rdf:RDF><cc:Work
         rdf:about=""><dc:format>image/svg+xml</dc:format><dc:type
           rdf:resource="http://purl.org/dc/dcmitype/StillImage" /></cc:Work></rdf:RDF></metadata><defs
     id="defs6" /><g
     transform="matrix(1.3333333,0,0,-1.3333333,0,33.333333)"
     id="g10"><g
       transform="scale(0.1)"
       id="g12"><path
         id="path14"
         style="fill:#4c062b;fill-opacity:1;fill-rule:evenodd;stroke:none"
         d="M 208.805,181.945 C 236.672,139.734 228.906,82.3438 190.109,48.4609 148.477,12.1055 84.9219,15.332 47.0547,56.5469 -2.53125,110.531 18.8438,197.328 87.9219,222.625 132.758,239.047 182.727,221.43 208.805,181.945 Z m -98.18,-10.468 c 19.273,0 34.898,-15.625 34.898,-34.899 0,-6.437 -1.75,-12.473 -4.789,-17.652 l 30.524,-27.1096 c 1.656,-1.4766 1.805,-4.0391 0.336,-5.6992 l -4.828,-5.4375 c -1.477,-1.6602 -4.039,-1.8086 -5.703,-0.3359 l -30.821,27.3752 c -5.586,-3.813 -12.344,-6.035 -19.617,-6.035 -19.2734,0 -34.8984,15.625 -34.8984,34.894 0,19.274 15.625,34.899 34.8984,34.899 z m 0,-10.43 c 13.508,0 24.469,-10.953 24.469,-24.469 0,-13.512 -10.961,-24.465 -24.469,-24.465 -13.5156,0 -24.4687,10.953 -24.4687,24.465 0,13.516 10.9531,24.469 24.4687,24.469 z m -56.1797,59.984 c 12.3125,9.059 27.9844,16.559 42.4375,19.746 5.1872,1.145 4.0232,0.582 4.7972,2.52 2.679,6.633 12.547,7.937 16.343,0.754 4.727,-8.949 -7.226,-18.414 -14.984,-9.848 -3.2421,-0.344 -8.2031,-1.984 -11.7421,-3.015 -11.9531,-3.485 -25.7891,-11.129 -35.75,-19.04 C 33.7969,194.879 19.125,169.965 14.5703,144.375 6.70313,100.156 26.2656,55.1602 65.9844,31.8594 106.375,8.16406 158.594,12.4492 194.758,42.7227 c 2.195,1.8398 3.555,3.5039 5.953,2.6601 2.477,-0.875 3.414,-3.832 2.328,-5.668 C 190.438,28.1992 174.797,19.6016 158.586,14.4297 108.727,-1.48047 52.9063,17.6523 24.1953,61.3281 -10.8125,114.582 4.10938,184 54.4453,221.031 Z M 54.0469,71.5586 C 25.2266,107.793 28.875,163.297 68.3438,194.691 104.523,223.469 160.016,219.742 191.367,180.398 220.148,144.266 216.586,88.6406 177.219,57.3359 140.938,28.4805 85.4375,32.0938 54.0469,71.5586 Z M 48.5,65.4844 C 28.25,90.8359 22.6797,120.492 30.2813,150.973 c 4.539,18.175 16.4687,36.625 31.8125,49.125 39.7892,32.425 100.2192,28.679 134.9922,-13.844 14.289,-17.481 21.203,-38.695 21.359,-60.086 C 218.281,97.832 206.125,70.1484 183.164,51.6836 172.25,42.8945 160.188,36.9766 148.492,33.7148 112.508,23.6797 71.9531,36.1133 48.5,65.4844" /></g></g></svg>