<?xml version="1.0" encoding="UTF-8" standalone="no"?>
<svg
   xmlns:dc="http://purl.org/dc/elements/1.1/"
   xmlns:cc="http://creativecommons.org/ns#"
   xmlns:rdf="http://www.w3.org/1999/02/22-rdf-syntax-ns#"
   xmlns:svg="http://www.w3.org/2000/svg"
   xmlns="http://www.w3.org/2000/svg"
   viewBox="0 0 1334.6667 1336"
   height="1336"
   width="1334.6667"
   xml:space="preserve"
   id="svg2"
   version="1.1"><metadata
     id="metadata8"><rdf:RDF><cc:Work
         rdf:about=""><dc:format>image/svg+xml</dc:format><dc:type
           rdf:resource="http://purl.org/dc/dcmitype/StillImage" /></cc:Work></rdf:RDF></metadata><defs
     id="defs6" /><g
     transform="matrix(1.3333333,0,0,-1.3333333,0,1336)"
     id="g10"><g
       transform="scale(0.1)"
       id="g12"><path
         id="path14"
         style="fill:#fefefe;fill-opacity:1;fill-rule:evenodd;stroke:none"
         d="M 2768.98,6212.19 V 3813.7 c 42.58,-78.74 27.85,-106.49 95.72,-174.47 71.94,-72.04 94.77,-52.14 179.84,-95.71 h 3931.18 c 41.84,24.34 103.46,25.9 173.22,100.21 67.99,72.45 49.28,93.38 91.18,175.59 v 2393.09 c -42.46,82.52 -32.01,114.21 -100.39,178.68 -72.18,68.09 -93.04,49.5 -175.49,91.38 h -3925.2 c -78.09,-42.46 -106.97,-28.4 -174.32,-95.74 -67.26,-67.26 -53.34,-96.3 -95.74,-174.54 z M 805.305,4867.96 c -32.879,987.41 191.343,1643.75 687.215,2459.32 198.57,326.6 573.36,711.86 871.02,959.22 1427.1,1186.02 3359.62,1212.41 4957.96,241.12 149.43,-90.8 160.92,-107.02 300.73,-219.38 171.55,-137.87 389.73,-348.14 537.08,-513.14 286.4,-320.73 435.67,-548.95 632.43,-947.86 266.1,-539.49 396.74,-1001.53 417.35,-1689.25 9.88,-329.9 -14,-663.28 -67.47,-980.29 -72.58,-430.27 -297.8,-932.02 -517.39,-1311.45 -147.84,-255.45 -153.56,-246.75 -321.63,-468.29 -75.99,-100.18 -168.33,-193.28 -249.81,-280.49 -143.22,-153.31 -246.88,-242.29 -403,-377.07 -79.08,-68.27 -214.26,-177.6 -302.79,-227.34 -56.36,-31.65 -106.6,-65.69 -161.73,-98.36 -109.86,-65.11 -218.86,-124.5 -343.72,-186.22 C 6301.34,961.422 5837.57,831.543 5147.88,810.867 4156.35,781.148 3513.44,999.918 2693.01,1498.28 c -142.71,86.69 -169.22,113.81 -300.74,219.38 -388.82,312.11 -727.21,685.77 -983.29,1117.27 -65.49,110.35 -124.05,217.22 -186.25,343.68 -267.957,544.73 -394.339,995.93 -417.425,1689.35 z M 52.7852,4299.05 C 206.398,3219.44 692.563,2284.64 1407.79,1533.45 c 153.6,-161.33 290.33,-272.97 454.58,-415.28 54.84,-47.52 112.91,-86.91 171.02,-129.443 l 168.47,-121.094 c 54.67,-40.25 118.47,-79.309 182.12,-117.922 C 2917.73,425.938 3461.04,210.16 4087.16,92.2266 5416.27,-158.137 6832.09,166.039 7931.54,948.977 l 621.23,528.433 c 155.64,158.52 399.16,439.72 526.44,623.44 436.77,630.43 710.04,1244.59 853.36,2017.58 15.7,84.68 55.16,466.08 69.73,500.54 v 787.97 c -45.15,107.01 -14.28,825.51 -510.94,1829.85 C 9165.69,7895.36 8746.05,8404.98 8195.68,8871.3 7526.5,9438.28 6654.45,9822.8 5781.84,9958.36 5116.94,10061.7 4360.11,10029.9 3711.62,9848.48 3093.74,9675.62 2596.37,9438.54 2089.35,9080.69 1617.24,8747.48 1243.37,8341.45 902.719,7877.39 585.383,7445.08 284.98,6789.81 153.195,6236.9 -22.8125,5498.46 -18.043,5037.06 52.7852,4299.05 Z M 3038.16,6233.68 c -45.41,-25.64 -59.91,-78.51 -19.08,-119.18 l 1898.8,-1058.41 c 54.7,-31.13 80.17,-54.73 146.04,-17.22 625.51,356.26 1275.19,700.5 1899.16,1057.42 42.46,24.29 70.94,69.18 35.37,117.26 -39.75,53.7 -94.52,22.29 -139.41,-3.78 -589.98,-327.47 -1189.44,-649.74 -1774.01,-985.86 -66.36,-38.16 -64.74,-53.95 -131.17,-15.61 -577.9,327.02 -1188.37,678.42 -1774.41,985.64 -39.6,20.76 -91.31,67.98 -141.29,39.74" /></g></g></svg>