<?xml version="1.0" encoding="UTF-8" standalone="no"?>
<svg
   xmlns:dc="http://purl.org/dc/elements/1.1/"
   xmlns:cc="http://creativecommons.org/ns#"
   xmlns:rdf="http://www.w3.org/1999/02/22-rdf-syntax-ns#"
   xmlns:svg="http://www.w3.org/2000/svg"
   xmlns="http://www.w3.org/2000/svg"
   viewBox="0 0 16 17.333332"
   height="17.333332"
   width="16"
   xml:space="preserve"
   id="svg2"
   version="1.1"><metadata
     id="metadata8"><rdf:RDF><cc:Work
         rdf:about=""><dc:format>image/svg+xml</dc:format><dc:type
           rdf:resource="http://purl.org/dc/dcmitype/StillImage" /></cc:Work></rdf:RDF></metadata><defs
     id="defs6" /><g
     transform="matrix(1.3333333,0,0,-1.3333333,0,17.333333)"
     id="g10"><g
       transform="scale(0.1)"
       id="g12"><path
         id="path14"
         style="fill:#ffffff;fill-opacity:1;fill-rule:evenodd;stroke:none"
         d="m 71.2656,47.3828 h -3.7461 c 0,4.832 0.3672,3.75 4.6836,3.75 -0.3437,-1.4726 -0.9375,-1.5273 -0.9375,-3.75 z M 33.0625,99.1797 h 3.9883 v 3.9803 h -3.9883 z m -7.9687,0 h 3.9882 v 3.9803 h -3.9882 z m -8.2032,0.7031 c 0,-0.543 0.1641,-0.7031 0.7032,-0.7031 h 3.5195 V 103.16 H 16.8906 Z M 8.92578,99.1797 H 13.1406 V 103.16 H 8.92578 Z M 47.125,29.8047 c 0,-7.0274 7.9688,-5.0117 7.9688,-1.1719 0,6.6524 -7.9688,5.2227 -7.9688,1.1719 z m 19.9219,-0.4688 c 0,-5.5937 7.9375,-5.5 8.125,-0.207 0.1914,5.2969 -8.125,5.5625 -8.125,0.207 z M 59.082,73.1641 c -1.2304,0.3281 -1.7226,1.3281 -3.0507,1.6406 -0.6016,-1.1367 -1.4024,-2.2305 -2.1055,-3.2852 8.0078,-5.3632 6.3867,-5.3476 10.6836,-2.4804 0.8711,0.5781 2.7539,2.0195 3.6133,2.25 -0.2227,0.9375 -1.5664,2.6992 -2.1133,3.5156 -1.3242,-0.3125 -1.8164,-1.3125 -3.043,-1.6406 v 4.2148 H 59.082 Z M 8.92578,91.2109 H 37.0508 v 3.9844 H 8.92578 Z m 0,23.4371 v -3.515 H 44.5508 c 1.039,0 0.7031,1.094 0.7031,3.515 0,0.54 -0.168,0.704 -0.7031,0.704 H 9.625 c -0.53906,0 -0.69922,-0.164 -0.69922,-0.704 z M 47.125,97.0703 c 0,0.6602 0.1836,0.9766 0.5156,1.3555 1.7383,1.9842 4.375,-0.4141 2.9258,-2.4453 -1.082,-1.5157 -3.4414,-0.4063 -3.4414,1.0898 z m 7.7383,2.1094 c 2.8555,-0.2383 2.8555,-3.75 0,-3.9844 0.2265,2.7735 0.4219,0.6797 0,3.9844 z m -6.332,-7.9688 c 3.1054,0 2.7109,0.586 3.5195,0.586 0.789,0 0.3633,-0.586 3.7461,-0.586 4.875,0 7.957,7.793 2.3398,11.2461 -2.5898,1.59 -5.9453,0.117 -6.0859,0.117 -0.8086,0 -0.4141,0.586 -3.5195,0.586 -3.0704,0 -5.461,-2.984 -5.5352,-5.8827 -0.0742,-3.0156 2.543,-6.0664 5.5352,-6.0664 z m 45,-27.1875 c 1.3828,-2.0664 1.4648,-1.5976 2.4804,-2.9101 0.9141,-1.1875 1.7071,-1.8125 2.6406,-2.9883 l 4.0547,-4.3789 c 1.633,-2.0508 5.195,-5.582 6.691,-7.3711 1.727,-2.0625 3.59,-3.9648 3.59,-7.6641 V 5.19531 h 4.215 V 38.2422 c 0,5.3008 -2.699,8.9648 -6.039,12.2422 -0.672,0.6601 -0.82,0.9804 -1.406,1.6406 l -10.3127,11.25 c -0.8281,0.8906 -1.8672,2.3984 -3.1015,3.2266 C 95.9961,66.0781 95.625,65.6992 95.1055,65.2617 94.6328,64.8711 93.957,64.3086 93.5313,64.0234 Z M 5.17188,89.1016 v 28.1214 c 0,2.507 2.07031,3.988 4.6914,3.988 H 60.4844 c 2.4883,0 4.4531,-1.551 4.4531,-3.516 V 88.6328 c 0,-1.4648 -1.8164,-3.2812 -3.2773,-3.2812 H 8.45703 c -1.72656,0 -3.28515,1.914 -3.28515,3.75 z M 0.957031,116.758 V 89.5703 c 0,-4.5976 3.507809,-8.4375 7.968749,-8.4375 H 60.9531 c 4.4883,0 8.2032,3.582 8.2032,7.9688 v 27.8904 c 0,2.992 -1.6836,5.985 -4.2071,7.278 -0.6836,0.347 -2.0312,0.925 -3.0586,0.925 H 8.22266 c -3.40625,0 -7.265629,-3.644 -7.265629,-8.437 z M 58.3789,51.1328 h 5.3906 c -0.0937,-1.125 -0.4726,-2.543 -0.4726,-3.75 h -4.4531 c 0,0.711 -0.2852,3.3438 -0.4649,3.75 z m -8.6719,0 c 5.5,0 4.5547,0.2695 4.7383,-1.5859 0.0781,-0.7578 0.1797,-1.0938 0.1797,-2.1641 h -3.9844 c -0.1758,0.7578 -0.6836,3.1836 -0.9336,3.75 z m 23.9024,4.2188 h -5.1563 c 0,1.207 0.3789,2.625 0.4727,3.75 h 5.3867 c -0.0312,-1.4571 -0.668,-2.2969 -0.7031,-3.75 z m -16.1719,3.75 h 7.2656 c 0,-1.211 -0.375,-2.625 -0.4687,-3.75 h -6.3242 c -0.0274,1.1445 -0.4414,2.5937 -0.4727,3.75 z m -9.6094,0 h 5.3946 c 0.0898,-1.125 0.4648,-2.543 0.4648,-3.75 h -5.1562 c -0.0313,1.4531 -0.6602,2.2812 -0.7032,3.75 z m 25.0782,46.6404 c 0,-0.906 0.75,-0.734 1.621,-0.722 l 7.7032,-0.036 c 2.2656,-0.367 4.7383,-2.66 4.7383,-5.3356 V 97.3008 H 73.6094 c -1.0391,0 -0.7031,-1.0938 -0.7031,-3.5117 0,-0.5391 0.164,-0.7032 0.7031,-0.7032 H 86.9688 V 49.7266 c -0.3868,0.2812 -1.1875,1.3125 -1.6954,1.8164 -0.6406,0.6328 -1.1132,1.2031 -1.8125,1.707 -1.8164,1.3008 -2.7851,1.3984 -5.8632,1.3984 l 3.0976,12.4063 c 2.9492,0.0391 2.5235,-0.7813 2.5235,4.2344 -5.5313,0 -5.6172,0.5507 -6.5625,-3.2813 -0.3868,-1.5625 -0.8086,-3.125 -1.168,-4.6875 -2.6563,0 -29.4102,0.1914 -30.6602,-0.0469 -2.9531,-0.5625 -1.3633,-4.0703 -0.6093,-7.0781 l 3.1367,-12.1015 c 0.7187,-1.2891 2.2812,-0.9336 4.2226,-0.9297 6.875,0 13.7539,0 20.625,0 0.4453,-0.8438 0.6211,-0.9493 1.1719,-1.6407 0.4961,-0.6289 0.9688,-0.8711 1.1719,-1.6406 -0.6563,-0.4375 -0.9883,-0.7031 -2.1055,-0.7031 H 46.8945 v -3.9844 h 26.7149 c 1.7344,0 2.7031,0.9375 3.75,1.6406 1,-0.6679 1.5195,-1.6601 2.4023,-2.5234 l 4.6446,-5.2109 c 0.7539,-1.4844 -1.8243,-5.9297 1.289,-13.6993 0.6524,-1.625 1.9961,-2.4101 -1.1289,-4.9921 C 83.6055,9.62109 81.8633,9.17969 80.1719,9.17969 H 41.9688 c -3.9454,0 -6.7969,2.57031 -6.7969,5.62501 v 2.3437 h 45.9375 v 4.2188 H 35.1719 v 55.3086 c 0,1.043 -1.0899,0.7031 -3.5156,0.7031 -0.5391,0 -0.7032,-0.1601 -0.7032,-0.7031 v -61.168 c 0,-3.0039 1.1992,-5.54686 2.75,-7.09374 1.543,-1.53906 3.6914,-3.21875 6.625,-3.21875 h 41.4844 c 1.7188,0 3.4063,0.72266 4.4609,1.39844 1.4532,0.92578 2.0821,2.01953 3.2774,2.82031 0.4922,-0.74218 3.625,-3.53125 4.4531,-3.75 0.8008,1.19922 2.1094,2.41797 2.3399,3.28125 -11.7774,7.88669 -7.2657,18.67189 -7.2657,20.39059 0,1.3047 -2.1133,2.9102 -3.3164,4.4141 -1.1679,1.4688 -2.4258,2.6445 -3.6445,4.0938 -1.2461,1.4765 -2.3125,2.7031 -3.6484,4.082 -0.4649,0.4844 -0.4649,0.5703 -0.8399,1.039 -0.7812,0.9727 -4.0508,3.5586 -1.3867,6.4727 0.4141,0.4492 1.8164,1.2266 2.5234,1.2266 1.9024,0 3.8711,-2.1211 4.9571,-3.4805 0.539,-0.6797 0.6718,-0.8711 1.3125,-1.5039 l 4.0976,-4.332 c 0.582,-0.6641 0.7383,-0.9805 1.4063,-1.6407 0.5039,-0.5 0.9531,-0.8906 1.4062,-1.4062 0.5469,-0.6211 0.6641,-0.9024 1.2891,-1.5274 0.5156,-0.5117 0.9297,-0.875 1.414,-1.4023 L 101.5,27.9297 c 0.684,0.1797 2.977,2.4844 3.047,2.5781 -0.352,0.5274 -0.902,1.0938 -1.371,1.6758 l -9.2307,9.9844 c -3.5508,3.5117 -2.7578,2.6484 -2.7578,6.8554 v 44.7657 c 0,4.9882 0.3867,7.7499 -1.7305,10.9219 -3.7656,5.66 -9.4179,4.547 -16.5507,4.547 v -3.516" /></g></g></svg>