<?xml version="1.0" encoding="UTF-8" standalone="no"?>
<svg
   xmlns:dc="http://purl.org/dc/elements/1.1/"
   xmlns:cc="http://creativecommons.org/ns#"
   xmlns:rdf="http://www.w3.org/1999/02/22-rdf-syntax-ns#"
   xmlns:svg="http://www.w3.org/2000/svg"
   xmlns="http://www.w3.org/2000/svg"
   viewBox="0 0 160 161.33333"
   height="161.33333"
   width="160"
   xml:space="preserve"
   id="svg2"
   version="1.1"><metadata
     id="metadata8"><rdf:RDF><cc:Work
         rdf:about=""><dc:format>image/svg+xml</dc:format><dc:type
           rdf:resource="http://purl.org/dc/dcmitype/StillImage" /></cc:Work></rdf:RDF></metadata><defs
     id="defs6" /><g
     transform="matrix(1.3333333,0,0,-1.3333333,0,161.33333)"
     id="g10"><g
       transform="scale(0.1)"
       id="g12"><path
         id="path14"
         style="fill:#fefefe;fill-opacity:1;fill-rule:evenodd;stroke:none"
         d="m 562.363,1161.21 c 172.742,11.73 319.211,-59.61 408.098,-142.61 13.566,-12.66 22.633,-20.248 35.079,-34.6 85.24,-98.266 136.59,-199.242 146.06,-339.152 C 1163.31,471.629 1092.15,325.191 1008.91,236.027 963.922,187.824 911.707,143.113 851.59,114.863 782.957,82.6172 723.031,60.8516 636.008,54.9531 461.969,43.1563 315.898,114.004 226.359,197.578 185.535,235.684 135.344,290.82 105.195,354.906 35.3125,503.453 20.9805,652.406 81.957,810.133 c 39.039,100.965 97.195,170.887 178.145,237.077 79.117,64.7 194.91,106.72 302.261,114 z M 512.504,843.156 c -8.031,-13.429 -3.277,-91.574 -3.277,-113.554 l -64.481,0.125 c -10.906,-1.528 -1.949,0.863 -6.949,-2.946 L 437.656,611.41 c 7.739,-5.504 23.918,-2.699 33.547,-2.699 12.676,0 25.352,0 38.024,0 l 1.554,-349.848 139.981,2.657 0.304,349.402 97.715,0.051 10.778,117.992 -107.153,0.019 c -3.492,18.7 -4.449,85.75 6.032,97.438 13.039,14.531 76.566,8.297 99.894,8.297 l 1.234,122.414 c -75.921,0 -178.589,12.504 -223.824,-46.426 -12.554,-16.348 -25.23,-41.828 -23.238,-67.551 z M 339.82,66.3398 C 633.434,-69.2891 999.785,41.5313 1140.9,351.156 c 86.91,190.684 77.97,435.117 -53.45,604.34 -41.47,53.394 -50.09,66.094 -102.391,111.274 C 836.25,1195.3 626.328,1238.57 437.719,1186.42 292.125,1146.16 197.797,1069.32 107.043,953.109 -91.3125,653.645 -8.78906,227.367 339.82,66.3398" /></g></g></svg>