<?xml version="1.0" encoding="UTF-8" standalone="no"?>
<svg
   xmlns:dc="http://purl.org/dc/elements/1.1/"
   xmlns:cc="http://creativecommons.org/ns#"
   xmlns:rdf="http://www.w3.org/1999/02/22-rdf-syntax-ns#"
   xmlns:svg="http://www.w3.org/2000/svg"
   xmlns="http://www.w3.org/2000/svg"
   viewBox="0 0 161.33333 161.33333"
   height="161.33333"
   width="161.33333"
   xml:space="preserve"
   id="svg2"
   version="1.1"><metadata
     id="metadata8"><rdf:RDF><cc:Work
         rdf:about=""><dc:format>image/svg+xml</dc:format><dc:type
           rdf:resource="http://purl.org/dc/dcmitype/StillImage" /></cc:Work></rdf:RDF></metadata><defs
     id="defs6" /><g
     transform="matrix(1.3333333,0,0,-1.3333333,0,161.33333)"
     id="g10"><g
       transform="scale(0.1)"
       id="g12"><path
         id="path14"
         style="fill:#fefefe;fill-opacity:1;fill-rule:evenodd;stroke:none"
         d="m 638.832,655.961 -0.039,49.297 H 524.055 l 0.004,-386.086 h 114.597 c 0.141,59.398 0.164,118.797 0.141,178.191 -0.024,59.137 7.683,108.469 68.785,110.867 62.766,2.461 68.965,-52.152 68.93,-108.464 -0.032,-60.2 0,-120.399 0,-180.594 h 119.086 c 0,59.398 0,118.797 0,178.191 0,58.813 5.336,109.34 -21.203,157.082 -38.657,69.547 -147.329,86.567 -214.907,25.457 -7.742,-7.004 -13.937,-17.379 -20.656,-23.941 z m -69.434,505.249 c 172.739,11.73 319.207,-59.61 408.098,-142.61 13.563,-12.66 22.634,-20.248 35.074,-34.6 85.25,-98.266 136.59,-199.242 146.06,-339.152 C 1170.34,471.629 1099.18,325.191 1015.95,236.027 970.953,187.824 918.738,143.113 858.621,114.863 789.988,82.6172 730.063,60.8516 643.039,54.9531 469,43.1563 322.93,114.004 233.391,197.578 192.566,235.684 142.375,290.82 112.227,354.906 42.3438,503.453 28.0117,652.406 88.9883,810.133 128.027,911.098 186.188,981.02 267.133,1047.21 c 79.117,64.7 194.91,106.72 302.265,114 z M 346.852,66.3398 C 640.465,-69.2891 1006.82,41.5313 1147.94,351.156 c 86.9,190.684 77.96,435.117 -53.46,604.34 -41.47,53.394 -50.09,66.094 -102.394,111.274 C 843.281,1195.3 633.359,1238.57 444.75,1186.42 299.156,1146.16 204.828,1069.32 114.074,953.109 -84.2813,653.645 -1.75781,227.367 346.852,66.3398 Z M 372.68,896.137 C 279.047,873.5 313.277,736.152 404.141,757.789 c 33.601,8 62.277,41.16 51.988,85.816 -7.566,32.829 -41.422,62.696 -83.449,52.532 z m -44.535,-576.965 119.707,0.082 -0.024,385.629 -118.66,0.398 -1.023,-386.109" /></g></g></svg>