<?xml version="1.0" encoding="UTF-8" standalone="no"?>
<svg
   xmlns:dc="http://purl.org/dc/elements/1.1/"
   xmlns:cc="http://creativecommons.org/ns#"
   xmlns:rdf="http://www.w3.org/1999/02/22-rdf-syntax-ns#"
   xmlns:svg="http://www.w3.org/2000/svg"
   xmlns="http://www.w3.org/2000/svg"
   viewBox="0 0 161.33333 160"
   height="160"
   width="161.33333"
   xml:space="preserve"
   id="svg2"
   version="1.1"><metadata
     id="metadata8"><rdf:RDF><cc:Work
         rdf:about=""><dc:format>image/svg+xml</dc:format><dc:type
           rdf:resource="http://purl.org/dc/dcmitype/StillImage" /></cc:Work></rdf:RDF></metadata><defs
     id="defs6" /><g
     transform="matrix(1.3333333,0,0,-1.3333333,0,160)"
     id="g10"><g
       transform="scale(0.1)"
       id="g12"><path
         id="path14"
         style="fill:#fefefe;fill-opacity:1;fill-rule:evenodd;stroke:none"
         d="m 567.734,1152.64 c 172.739,11.73 319.207,-59.61 408.098,-142.62 13.563,-12.657 22.633,-20.243 35.078,-34.594 85.24,-98.262 136.59,-199.242 146.05,-339.153 C 1168.68,463.059 1097.52,316.617 1014.28,227.457 969.289,179.254 917.074,134.543 856.957,106.289 788.324,74.043 728.398,52.2773 641.375,46.3789 467.336,34.582 321.266,105.43 231.727,189.004 190.902,227.113 140.711,282.25 110.563,346.332 40.6797,494.879 26.3477,643.832 87.3281,801.559 126.363,902.527 184.523,972.445 265.469,1038.64 c 79.117,64.7 194.91,106.71 302.265,114 z M 496.117,858.418 c 42.168,1.687 85.539,1.016 127.985,1.016 140.468,0.004 233.023,14.203 239.144,-150.098 1.586,-42.609 1.004,-85.77 1.004,-128.453 0,-140.738 14.047,-232.988 -150.098,-239.153 -49.226,-1.847 -210.957,-2.636 -255.148,2.192 -92.527,10.098 -109.625,70.996 -112.457,146.914 -1.586,42.609 -0.996,85.769 -0.996,128.449 -0.004,142.281 -13.899,232.547 150.566,239.133 z m 3.801,-267.934 c -4.898,60.856 40.754,110.18 95.824,114.649 60.328,4.898 109.766,-40.988 114.235,-96.082 4.89,-60.324 -41.364,-109.582 -95.918,-114.012 -61.481,-4.988 -109.7,40.215 -114.141,95.445 z m 266.395,-9.601 c 11.64,95.492 -59.723,170.601 -141.27,180.476 -96.984,11.746 -170.902,-58.957 -181.398,-141.117 -12.266,-96.008 59.062,-171.219 141.441,-181.527 95.836,-11.988 171.105,59.148 181.227,142.168 z M 494.641,915.539 c -89.305,-3.586 -165.5,-26.57 -194.922,-123.148 -17.645,-57.918 -12.903,-235.633 -10.239,-305.133 1.883,-49.102 8.168,-90.785 31.461,-125.481 19.219,-28.621 48.379,-53.652 91.653,-66.875 57.816,-17.668 235.273,-12.855 304.594,-10.261 90.3,3.375 164.468,29.367 192.921,123.117 17.567,57.855 12.864,234.379 10.262,303.691 -3.414,90.91 -28.816,165.153 -123.168,193.813 -57.515,17.468 -233.961,13.027 -302.562,10.277 z M 345.188,57.7695 C 638.801,-77.8633 1005.15,32.957 1146.27,342.582 c 86.91,190.684 77.97,435.117 -53.45,604.34 -41.48,53.398 -50.09,66.088 -102.394,111.268 C 841.617,1186.73 631.695,1229.99 443.09,1177.84 297.492,1137.59 203.164,1060.75 112.41,944.535 -85.9453,645.074 -3.42188,218.797 345.188,57.7695" /></g></g></svg>