<?xml version="1.0" encoding="UTF-8" standalone="no"?>
<svg
   xmlns:dc="http://purl.org/dc/elements/1.1/"
   xmlns:cc="http://creativecommons.org/ns#"
   xmlns:rdf="http://www.w3.org/1999/02/22-rdf-syntax-ns#"
   xmlns:svg="http://www.w3.org/2000/svg"
   xmlns="http://www.w3.org/2000/svg"
   viewBox="0 0 1334.6667 1334.6667"
   height="1334.6667"
   width="1334.6667"
   xml:space="preserve"
   id="svg2"
   version="1.1"><metadata
     id="metadata8"><rdf:RDF><cc:Work
         rdf:about=""><dc:format>image/svg+xml</dc:format><dc:type
           rdf:resource="http://purl.org/dc/dcmitype/StillImage" /></cc:Work></rdf:RDF></metadata><defs
     id="defs6" /><g
     transform="matrix(1.3333333,0,0,-1.3333333,0,1334.6667)"
     id="g10"><g
       transform="scale(0.1)"
       id="g12"><path
         id="path14"
         style="fill:#ffffff;fill-opacity:1;fill-rule:evenodd;stroke:none"
         d="m 808.148,4860.75 c -32.875,987.41 191.348,1643.75 687.222,2459.32 198.57,326.6 573.36,711.86 871.01,959.22 1427.11,1186.02 3359.63,1212.41 4957.97,241.12 149.43,-90.8 160.92,-107.02 300.73,-219.38 171.55,-137.87 389.73,-348.14 537.07,-513.14 286.41,-320.73 435.67,-548.94 632.43,-947.86 266.11,-539.49 396.75,-1001.53 417.35,-1689.24 9.89,-329.9 -13.99,-663.29 -67.47,-980.3 -72.57,-430.27 -297.79,-932.02 -517.39,-1311.45 -147.83,-255.45 -153.56,-246.75 -321.62,-468.29 -76,-100.18 -168.34,-193.27 -249.82,-280.48 -143.22,-153.32 -246.88,-242.3 -403,-377.07 -79.07,-68.27 -214.25,-177.61 -302.79,-227.34 -56.35,-31.65 -106.6,-65.7 -161.72,-98.36 C 7078.26,1342.39 6969.26,1283 6844.4,1221.28 6304.19,954.219 5840.41,824.34 5150.72,803.66 4159.2,773.945 3516.29,992.715 2695.85,1491.07 c -142.71,86.7 -169.22,113.82 -300.74,219.38 -388.81,312.11 -727.21,685.77 -983.27,1117.27 -65.51,110.35 -124.05,217.22 -186.27,343.69 -267.945,544.73 -394.328,995.93 -417.414,1689.34 z M 3956.33,6818.52 c -384.25,-602.46 -135.32,-1231.77 185.26,-1804.08 283.72,-506.45 548.63,-1035.67 852.82,-1528.64 35.16,34.65 794.6,1409.14 841.53,1500.34 349.72,679.83 660.72,1340.43 57.76,2024.67 -545.81,619.35 -1506.55,483.22 -1937.37,-192.29 z M 2653.04,3132.07 c 570.32,-674 4032.88,-732.66 4704.6,-5.57 122.47,132.58 57.99,281 -66.33,384.73 -333.8,278.54 -1173,397.82 -1612.54,431.44 -27.52,2.11 -116.89,3 -137.04,7 314.13,-22.37 645.77,-74.94 937.93,-171.14 249.66,-82.2 669.05,-288.7 351.84,-538.86 -641.26,-505.73 -3181.31,-473.2 -3684.14,30.29 -264.47,264.82 213.56,453 438.17,523.5 142.33,44.67 296.46,77.38 451.35,102.23 77.47,12.44 454.52,67.57 491.6,59.57 -225.27,11.71 -904.37,-102.86 -1118.19,-155.19 -251.21,-61.48 -591.13,-166.9 -756.92,-359.57 -82.8,-96.21 -82.08,-211.81 -0.33,-308.43 z m 2296.19,3562.36 c -276.96,-31.26 -504.44,-268.63 -476.01,-579.96 25.6,-280.38 270.69,-517.52 585.62,-482.71 271.82,30.04 495.76,279.25 464.34,587.05 -27.69,271.25 -269.86,509.94 -573.95,475.62 z M 55.6328,4291.85 C 209.242,3212.23 695.41,2277.44 1410.64,1526.25 c 153.6,-161.34 290.32,-272.98 454.58,-415.29 54.84,-47.51 112.91,-86.91 171.01,-129.44 l 168.48,-121.094 c 54.67,-40.25 118.47,-79.309 182.12,-117.922 C 2920.58,418.734 3463.88,202.957 4090.01,85.0234 5419.12,-165.34 6834.94,158.836 7934.38,941.773 l 621.24,528.427 c 155.64,158.52 399.16,439.72 526.43,623.44 436.77,630.43 710.04,1244.59 853.36,2017.58 15.71,84.68 55.16,466.08 69.69,500.54 v 787.97 c -45.11,107.01 -14.23,825.51 -510.9,1829.85 -325.67,658.57 -745.3,1168.19 -1295.68,1634.51 -669.17,566.98 -1541.23,951.5 -2413.83,1087.06 -664.9,103.35 -1421.73,71.55 -2070.22,-109.88 C 3096.58,9668.41 2599.22,9431.33 2092.2,9073.48 1620.08,8740.27 1246.21,8334.24 905.566,7870.18 588.23,7437.87 287.824,6782.6 156.039,6229.69 -19.9648,5491.25 -15.1992,5029.86 55.6328,4291.85" /></g></g></svg>