<?xml version="1.0" encoding="UTF-8" standalone="no"?>
<svg
   xmlns:dc="http://purl.org/dc/elements/1.1/"
   xmlns:cc="http://creativecommons.org/ns#"
   xmlns:rdf="http://www.w3.org/1999/02/22-rdf-syntax-ns#"
   xmlns:svg="http://www.w3.org/2000/svg"
   xmlns="http://www.w3.org/2000/svg"
   viewBox="0 0 33.333332 32"
   height="32"
   width="33.333332"
   xml:space="preserve"
   id="svg2"
   version="1.1"><metadata
     id="metadata8"><rdf:RDF><cc:Work
         rdf:about=""><dc:format>image/svg+xml</dc:format><dc:type
           rdf:resource="http://purl.org/dc/dcmitype/StillImage" /></cc:Work></rdf:RDF></metadata><defs
     id="defs6" /><g
     transform="matrix(1.3333333,0,0,-1.3333333,0,32)"
     id="g10"><g
       transform="scale(0.1)"
       id="g12"><path
         id="path14"
         style="fill:#4c062b;fill-opacity:1;fill-rule:evenodd;stroke:none"
         d="M 145.734,7.56641 C 196.813,15.6328 234.773,61.0586 233.602,113.703 232.336,170.184 186.086,215.926 128.875,216.094 53.9531,216.309 3.17969,140.336 31.7031,70.7617 50.2188,25.5977 97.9609,0.0273438 145.734,7.56641 Z M 9.82813,97.1328 c 1.64847,-15.543 6.78907,-32.543 14.35157,-45.6484 2.7109,-4.7031 2.3281,-3.4336 1.4062,-5.3594 -3.164,-6.5937 2.6563,-14.9414 10.6954,-12.8516 10.0156,2.5938 8.9218,18.1407 -2.8985,18.0977 -1.9765,2.6797 -4.1562,7.5508 -5.8125,10.9375 -5.6094,11.4258 -9.3828,27.1367 -10.2812,40.1094 -1.961,28.32 6.7343,56.566 22.9062,77.645 27.9453,36.433 75.3987,52.675 120.3677,38.761 45.734,-14.152 78.492,-56.515 80.578,-104.683 0.117,-2.918 -0.196,-5.098 2.093,-6.325 2.368,-1.265 5.243,0.067 5.883,2.149 0,17.453 -4.289,35.18 -11.562,50.98 -22.367,48.606 -75.282,77.547 -128.047,69.11 C 45.1797,219.766 3.07031,160.648 9.82813,97.1328 Z M 122.359,200.473 C 75.1484,197.25 35.7734,156.23 39.2891,104.789 42.5078,57.6484 83.5781,18.3281 134.883,21.793 c 47.117,3.1836 86.648,44.2226 83.133,95.516 -3.235,47.273 -44.219,86.671 -95.657,83.164 z M 120.07,150.449 75.75,150.363 75.6875,72.2773 c 3.8906,-0.6367 45.0785,0.4805 49.6565,-0.246 4.664,-0.7383 41.695,-6.961 43.015,-6.7266 l 13.188,82.1873 c -9.547,1.059 -58.125,10.004 -60.422,9.477 z m 3.063,58.399 C 90.0313,206.652 63.8125,190.414 46.0469,163.656 35.4531,147.703 29.75,125.988 30.8906,105.789 33.8516,53.3984 78.3359,10.3711 134.406,13.4414 c 23.047,1.2617 43.828,10.668 60.078,25.3008 21.274,19.6523 33.782,47.9141 31.899,77.9728 -0.899,14.305 -4.735,27.48 -10.344,38.558 -17.234,34.079 -54.57,56.118 -92.906,53.575" /></g></g></svg>