<?xml version="1.0" encoding="UTF-8" standalone="no"?>
<svg
   xmlns:dc="http://purl.org/dc/elements/1.1/"
   xmlns:cc="http://creativecommons.org/ns#"
   xmlns:rdf="http://www.w3.org/1999/02/22-rdf-syntax-ns#"
   xmlns:svg="http://www.w3.org/2000/svg"
   xmlns="http://www.w3.org/2000/svg"
   viewBox="0 0 1334.6667 1336"
   height="1336"
   width="1334.6667"
   xml:space="preserve"
   id="svg2"
   version="1.1"><metadata
     id="metadata8"><rdf:RDF><cc:Work
         rdf:about=""><dc:format>image/svg+xml</dc:format><dc:type
           rdf:resource="http://purl.org/dc/dcmitype/StillImage" /></cc:Work></rdf:RDF></metadata><defs
     id="defs6" /><g
     transform="matrix(1.3333333,0,0,-1.3333333,0,1336)"
     id="g10"><g
       transform="scale(0.1)"
       id="g12"><path
         id="path14"
         style="fill:#ffffff;fill-opacity:1;fill-rule:evenodd;stroke:none"
         d="m 805.98,4867.96 c -32.878,987.41 191.344,1643.75 687.22,2459.32 198.57,326.6 573.36,711.86 871.01,959.22 1427.11,1186.02 3359.63,1212.41 4957.97,241.12 149.43,-90.8 160.92,-107.02 300.73,-219.38 171.55,-137.87 389.73,-348.14 537.07,-513.14 286.41,-320.73 435.67,-548.95 632.43,-947.86 266.11,-539.49 396.75,-1001.53 417.35,-1689.25 9.89,-329.9 -13.99,-663.28 -67.47,-980.29 -72.57,-430.27 -297.79,-932.02 -517.39,-1311.45 -147.83,-255.45 -153.56,-246.75 -321.62,-468.29 -76,-100.18 -168.34,-193.28 -249.82,-280.49 -143.22,-153.31 -246.88,-242.29 -403,-377.07 -79.07,-68.27 -214.25,-177.6 -302.79,-227.34 -56.35,-31.65 -106.6,-65.69 -161.72,-98.36 -109.86,-65.11 -218.86,-124.5 -343.72,-186.22 C 6302.02,961.422 5838.24,831.543 5148.55,810.867 4157.03,781.148 3514.12,999.918 2693.68,1498.28 c -142.71,86.69 -169.22,113.81 -300.74,219.38 -388.81,312.11 -727.21,685.77 -983.28,1117.27 -65.5,110.35 -124.05,217.22 -186.26,343.68 -267.951,544.73 -394.334,995.93 -417.42,1689.35 z M 3654.96,7161.55 C 3457.1,7146.32 3317.03,7119.16 3214.53,7006.03 2072.2,5745.18 4025.84,3626.79 5187.99,3142.97 c 212.38,-88.41 666.1,-274.34 915.15,-274.49 289.74,-0.18 648.4,173.73 828.26,371.02 153.65,168.52 224.89,421.13 220.96,668.84 -2.09,131.68 -24.82,138.89 -108.19,190.72 -126.81,78.86 -638.13,344.24 -780.39,409.63 -252.91,116.26 -273.56,42.08 -370.39,-101.42 -43.69,-64.75 -85.55,-111.13 -128.75,-170.94 L 5633,4067.89 c -47.9,-58.42 -74.02,-120.72 -188.5,-68.64 -228.82,104.09 -552.27,298.59 -736.41,454.04 -265.28,223.95 -487.98,517.3 -665.55,824.18 -109.63,189.46 -1.2,180.41 126.44,374.68 51.59,78.52 210.4,239.14 170.03,411.58 -14.36,61.32 -59.14,152.95 -83.79,216.44 -62.29,160.42 -275.45,767.37 -357.62,842.54 -59.84,54.75 -146.7,46.22 -242.64,38.84 z M 53.4609,4299.05 C 207.074,3219.44 693.238,2284.64 1408.47,1533.45 c 153.6,-161.33 290.32,-272.97 454.58,-415.28 54.84,-47.52 112.91,-86.91 171.01,-129.443 l 168.48,-121.094 c 54.66,-40.25 118.47,-79.309 182.12,-117.922 C 2918.41,425.938 3461.71,210.16 4087.84,92.2266 5416.95,-158.137 6832.77,166.039 7932.21,948.977 l 621.24,528.433 c 155.64,158.52 399.16,439.72 526.44,623.44 436.76,630.43 710.04,1244.59 853.36,2017.58 15.7,84.68 55.16,466.08 69.65,500.54 v 787.97 c -45.07,107.01 -14.2,825.51 -510.86,1829.85 C 9166.36,7895.36 8746.73,8404.98 8196.35,8871.3 7527.18,9438.28 6655.12,9822.8 5782.52,9958.36 5117.62,10061.7 4360.79,10029.9 3712.3,9848.48 3094.41,9675.62 2597.05,9438.54 2090.03,9080.69 1617.91,8747.48 1244.04,8341.45 903.398,7877.39 586.059,7445.08 285.656,6789.81 153.871,6236.9 -22.1367,5498.46 -17.3672,5037.06 53.4609,4299.05" /></g></g></svg>