<?xml version="1.0" encoding="UTF-8" standalone="no"?>
<svg
   xmlns:dc="http://purl.org/dc/elements/1.1/"
   xmlns:cc="http://creativecommons.org/ns#"
   xmlns:rdf="http://www.w3.org/1999/02/22-rdf-syntax-ns#"
   xmlns:svg="http://www.w3.org/2000/svg"
   xmlns="http://www.w3.org/2000/svg"
   viewBox="0 0 33.333332 32"
   height="32"
   width="33.333332"
   xml:space="preserve"
   id="svg2"
   version="1.1"><metadata
     id="metadata8"><rdf:RDF><cc:Work
         rdf:about=""><dc:format>image/svg+xml</dc:format><dc:type
           rdf:resource="http://purl.org/dc/dcmitype/StillImage" /></cc:Work></rdf:RDF></metadata><defs
     id="defs6" /><g
     transform="matrix(1.3333333,0,0,-1.3333333,0,32)"
     id="g10"><g
       transform="scale(0.1)"
       id="g12"><path
         id="path14"
         style="fill:#4c062b;fill-opacity:1;fill-rule:evenodd;stroke:none"
         d="M 105.344,7.56641 C 54.2813,15.6328 16.3125,61.0586 17.4922,113.703 c 1.25,56.481 47.5,102.223 104.7108,102.391 74.938,0.215 125.703,-75.758 97.18,-145.3323 C 200.867,25.5977 153.125,0.0273438 105.344,7.56641 Z m 47.351,77.74609 c 0,2.582 3.625,4.0469 5.571,1.9492 2.937,-3.1797 -2.11,-7.6172 -4.821,-4.2969 -0.601,0.7305 -0.75,1.3282 -0.75,2.3477 z M 98.3281,105.336 c 0,3.305 1.7269,6.309 4.2109,8.215 3.633,2.785 9.43,2.402 12.492,-0.66 2.883,-2.891 3.313,-4.532 3.313,-8.418 0,-5.1917 -6.969,-11.598 -14.039,-8.1722 -3.532,1.7109 -5.9769,5.0742 -5.9769,9.0352 z m 37.9689,24.336 c 0,0.016 0.297,1.246 0.336,1.383 0.898,3.289 4.844,5.89 8.914,4.242 2.562,-1.035 4.039,-3.473 4.039,-6.492 0,-3.219 -2.898,-6.332 -7.086,-6.219 -3.453,0.094 -6.203,3.238 -6.203,7.086 z m -51.4376,20.535 c 0,1.57 1.25,3.297 2.1094,4.106 2.414,2.234 6.2343,2.191 8.8125,-0.09 1.5703,-1.391 2.0234,-3.121 2.0234,-5.223 0.0078,-5.348 -7.3281,-8.215 -11.1719,-4.105 -1.7578,1.867 -1.7734,3.214 -1.7734,5.312 z m -7.0703,1.383 v -4.317 c 0.3203,-0.5 0.3281,-2.421 1.8593,-4.867 0.8672,-1.379 1.7657,-2.527 3.0391,-3.519 3.4297,-2.664 5.7266,-3.008 10.1172,-3.004 0.1328,-0.574 0.5391,-1.528 0.7891,-2.145 l 2.3125,-5.968 c 0.5468,-1.36 1.0625,-2.688 1.6093,-4.09 l 1.5,-4.024 c -1.4297,-0.383 -3.8047,-3.242 -4.7578,-4.554 -0.3984,-0.551 -0.8672,-1.313 -1.1719,-1.938 -3.1015,-6.371 -2.2421,-13.109 2.211,-18.8046 3.8672,-4.9571 11.6871,-7.3242 17.8591,-5.4024 2.602,0.8086 5.891,2.5821 7.649,4.6016 l 1.39,1.7148 c 3.493,4.6758 4.43,12.0666 2.016,16.6216 0.742,0.644 1.594,1.175 2.422,1.726 2.008,1.332 5.695,4.086 7.422,5 3.047,-1.601 3.586,-3.098 9.32,-3.105 l 6.383,-22.0902 c -0.297,-0.4063 -1.133,-0.8672 -1.977,-1.9922 -1.961,-2.6211 -2.773,-5.8281 -1.828,-9.2344 0.797,-2.8828 2.867,-5.1953 5.469,-6.4375 l 2.703,-0.9219 c 0.023,0.0313 0.086,-0.0312 0.117,-0.0546 h 3.453 c 0.391,0.25 6.032,1.0937 7.922,6.75 l 0.539,1.7109 v 3.6211 l -0.367,1.1914 c -0.383,1.2656 -0.625,1.7305 -1.391,2.9219 -0.664,1.0351 -1.929,2.1953 -3.023,2.8476 -0.758,0.4532 -1.156,0.6485 -1.977,0.9571 -0.445,0.164 -0.734,0.2578 -1.187,0.3554 -0.305,0.0664 -0.969,0.125 -1.195,0.1914 -0.672,0.1836 -0.469,0.1016 -0.696,0.8633 l -3.57,12.3007 c -0.461,1.609 -0.867,2.934 -1.328,4.547 l -1.32,4.371 c 0.789,0.527 2.195,1.496 2.804,2.199 2.703,3.106 3.985,6.086 3.758,10.922 -0.117,2.547 -1.555,5.531 -2.805,7.035 -9.703,11.735 -26.945,2.535 -24.343,-11.058 0.101,-0.532 0.109,-0.539 0.234,-0.973 l 0.281,-0.758 c 0,0.024 0.032,-0.082 0.055,-0.117 l -9.844,-6.73 -2.89,2.105 c -2.086,1.309 -4.836,2.211 -7.454,2.387 -1.101,0.074 -3.367,0.277 -4.32,-0.176 -0.062,0.691 -4.844,12.801 -5.43,14.25 -0.2808,0.699 -0.4761,1.375 -0.7886,1.973 1.5856,1.031 3.1246,2.812 4.0316,4.597 4.804,9.446 -2.289,19.961 -11.4457,19.91 -3.5547,-0.019 -4.5312,-0.289 -6.9609,-1.496 -3.3047,-1.636 -5.7422,-4.746 -6.7578,-8.265 z M 241.258,97.1328 c -1.649,-15.543 -6.789,-32.543 -14.352,-45.6484 -2.711,-4.7031 -2.328,-3.4336 -1.406,-5.3594 3.164,-6.5937 -2.656,-14.9414 -10.695,-12.8516 -10.008,2.5938 -8.922,18.1407 2.898,18.0977 1.977,2.6797 4.156,7.5508 5.82,10.9375 5.61,11.4258 9.375,27.1367 10.274,40.1094 1.961,28.32 -6.734,56.566 -22.906,77.645 -27.946,36.433 -75.407,52.675 -120.3676,38.761 C 44.7969,204.672 12.0313,162.309 9.95313,114.141 c -0.125,-2.918 0.19527,-5.098 -2.09375,-6.325 -2.375,-1.265 -5.25,0.067 -5.89063,2.149 0,17.453 4.28906,35.18 11.56255,50.98 22.3671,48.606 75.289,77.547 128.0467,69.11 64.328,-10.289 106.438,-69.407 99.68,-132.9222 z M 128.719,200.473 c 47.219,-3.223 86.601,-44.243 83.086,-95.684 -3.227,-47.1406 -44.297,-86.4609 -95.602,-82.996 -47.1092,3.1836 -86.6405,44.2226 -83.1327,95.516 3.2344,47.273 44.2188,86.671 95.6487,83.164 z m -0.758,8.375 c 33.094,-2.196 59.312,-18.434 77.078,-45.192 10.594,-15.953 16.297,-37.668 15.149,-57.867 C 217.234,53.3984 172.75,10.3711 116.68,13.4414 93.625,14.7031 72.8594,24.1094 56.6094,38.7422 35.3281,58.3945 22.8203,86.6563 24.7031,116.715 c 0.8985,14.305 4.7422,27.48 10.3438,38.558 17.2344,34.079 54.5703,56.118 92.9141,53.575" /></g></g></svg>