<?xml version="1.0" encoding="UTF-8" standalone="no"?>
<svg
   xmlns:dc="http://purl.org/dc/elements/1.1/"
   xmlns:cc="http://creativecommons.org/ns#"
   xmlns:rdf="http://www.w3.org/1999/02/22-rdf-syntax-ns#"
   xmlns:svg="http://www.w3.org/2000/svg"
   xmlns="http://www.w3.org/2000/svg"
   viewBox="0 0 33.333332 32"
   height="32"
   width="33.333332"
   xml:space="preserve"
   id="svg2"
   version="1.1"><metadata
     id="metadata8"><rdf:RDF><cc:Work
         rdf:about=""><dc:format>image/svg+xml</dc:format><dc:type
           rdf:resource="http://purl.org/dc/dcmitype/StillImage" /></cc:Work></rdf:RDF></metadata><defs
     id="defs6" /><g
     transform="matrix(1.3333333,0,0,-1.3333333,0,32)"
     id="g10"><g
       transform="scale(0.1)"
       id="g12"><path
         id="path14"
         style="fill:#4c062b;fill-opacity:1;fill-rule:evenodd;stroke:none"
         d="M 112.852,7.56641 C 61.7813,15.6328 23.8203,61.0586 24.9922,113.703 26.25,170.184 72.5,215.926 129.711,216.094 204.641,216.309 255.414,140.336 226.891,70.7617 208.375,25.5977 160.633,0.0273438 112.852,7.56641 Z m 52.039,69.48829 17.82,-0.0195 c 0.195,0.8125 0.055,15.1171 0.055,17.2382 v 34.5856 c 0,5.731 0.156,11.688 -0.008,17.391 l -17.867,0.016 z m -27.93,0.0742 c 0.164,-0.2383 0.234,-0.1523 0.953,-0.1445 0.383,0.0039 0.766,0 1.149,0 2.164,0 15.023,-0.0977 15.773,0.0469 0.18,0.8046 0.055,30.9067 0.055,34.2227 0,1.109 0.132,3.969 -0.047,4.879 l -17.36,0.058 c -0.406,-0.015 -0.367,-0.027 -0.531,-0.152 z M 79.9844,77.1875 C 80.0859,76.9492 79.8906,76.9883 80.9063,77 c 3.0312,0.043 15.6484,-0.1133 16.9375,0.0313 0.1953,0.8007 0.0546,35.3827 0.0546,39.0387 0,1.602 0.1563,4.164 -0.0312,5.645 -0.9375,0.16 -14.125,0.023 -16.8516,0.047 -0.6797,0.008 -0.8437,0.093 -1.0547,-0.199 z M 141.07,164.086 c -0.304,-0.25 -33.172,-14.32 -36,-15.477 -1.601,-0.656 -3.672,-1.75 -5.2262,-2.211 l 1.0472,-2.57 41.304,17.641 2.961,-6.918 c 0.36,0.269 7.149,9.484 8.11,10.73 l 2.656,3.59 -17.781,2.141 z M 66.2734,66.7734 192.648,66.7539 192.672,70.6602 66.2813,70.707 Z m 42.7426,10.2696 17.836,-0.0078 0.054,56.9418 -17.875,0.007 z m 139.75,20.0898 c -1.649,-15.543 -6.797,-32.543 -14.352,-45.6484 -2.711,-4.7031 -2.328,-3.4336 -1.414,-5.3594 3.172,-6.5937 -2.656,-14.9414 -10.687,-12.8516 -10.016,2.5899 -8.922,18.1407 2.898,18.0977 1.969,2.6797 4.148,7.5508 5.812,10.9375 5.61,11.4258 9.383,27.1367 10.282,40.1094 1.961,28.32 -6.735,56.566 -22.914,77.645 -27.938,36.433 -75.399,52.675 -120.3597,38.761 -45.7344,-14.152 -78.5,-56.515 -80.5782,-104.683 -0.125,-2.918 0.1953,-5.098 -2.0937,-6.325 -2.3672,-1.265 -5.25,0.067 -5.89065,2.149 0,17.453 4.29685,35.18 11.56255,50.98 22.375,48.606 75.289,77.547 128.0467,69.11 64.328,-10.289 106.438,-69.407 99.688,-132.9222 z M 136.227,200.473 c 47.218,-3.223 86.593,-44.243 83.078,-95.684 -3.219,-47.1406 -44.297,-86.4609 -95.602,-82.996 -47.1092,3.1836 -86.6405,44.2226 -83.1249,95.516 3.2344,47.273 44.2188,86.671 95.6489,83.164 z m -0.766,8.375 c 33.094,-2.196 59.32,-18.434 77.086,-45.192 10.594,-15.953 16.289,-37.668 15.148,-57.867 C 224.734,53.3984 180.25,10.3711 124.188,13.4414 101.133,14.7031 80.3594,24.1094 64.1094,38.7422 42.8281,58.3945 30.3203,86.6563 32.2031,116.715 c 0.9063,14.305 4.7422,27.48 10.3438,38.558 17.2422,34.079 54.5781,56.118 92.9141,53.575" /></g></g></svg>