<?xml version="1.0" encoding="UTF-8" standalone="no"?>
<svg
   xmlns:dc="http://purl.org/dc/elements/1.1/"
   xmlns:cc="http://creativecommons.org/ns#"
   xmlns:rdf="http://www.w3.org/1999/02/22-rdf-syntax-ns#"
   xmlns:svg="http://www.w3.org/2000/svg"
   xmlns="http://www.w3.org/2000/svg"
   viewBox="0 0 388 512"
   height="512"
   width="388"
   xml:space="preserve"
   id="svg2"
   version="1.1"><metadata
     id="metadata8"><rdf:RDF><cc:Work
         rdf:about=""><dc:format>image/svg+xml</dc:format><dc:type
           rdf:resource="http://purl.org/dc/dcmitype/StillImage" /></cc:Work></rdf:RDF></metadata><defs
     id="defs6" /><g
     transform="matrix(1.3333333,0,0,-1.3333333,0,512)"
     id="g10"><g
       transform="scale(0.1)"
       id="g12"><path
         id="path14"
         style="fill:#fefefe;fill-opacity:1;fill-rule:evenodd;stroke:none"
         d="m 1067.05,3417.8 c 49.47,33.22 144.82,-31.14 177.25,-67.07 47.85,-53.01 39.39,-134.35 39.4,-207.73 v -990.96 c 0,-81.84 -37.49,-423.06 63.28,-432.77 91.43,-8.82 71.2,107.89 71.2,172.88 0,82.58 0,165.16 0,247.74 0,142.28 41.78,308.34 222.88,266.02 158.09,-36.93 137.85,-215.55 137.85,-355.89 0,-46.01 -5.95,-213.5 2.25,-245.9 13.94,-55.15 133.31,-71.52 132.57,31.8 -0.94,130.16 -30.69,350.41 57.32,438.24 113.87,113.64 278.19,24.23 287.16,-107.66 5.53,-81.17 7.54,-153.96 7.54,-240.35 0,-63.18 -3.87,-188.33 94.39,-143.27 104.14,47.76 -38.1,249.25 118.91,376.68 127.51,103.48 258.39,-17.43 280.56,-152.16 16.08,-97.64 1.3,-376.96 1.3,-494.15 0,-217.42 24.38,-790.695 -38.17,-950.488 -91.01,-232.492 -278.59,-428.41 -561.55,-428.231 -218.59,0.137 -804.92,-27.226 -966,24.762 -248.206,80.109 -340.487,269.555 -466.944,523.34 -99.719,200.129 -225.07,463.957 -337.308,651.237 -58.309,97.29 -119.086,222.47 -169.79,325.67 -35.324,71.9 -87.093,100.24 -17.003,151.67 53.39,39.18 110.484,68.08 176.171,66.79 136.211,-2.67 224.387,-87.43 299.418,-192.05 25.536,-35.61 232.793,-317.75 250.258,-109.31 23.961,285.98 0.442,691.59 0.442,990.73 0,165.15 -0.02,330.32 0,495.48 0.031,225.32 -34.235,240.2 136.616,354.95 z m -406.421,222.68 c -62.938,-66.4 -185.332,-320.81 -127.031,-410.53 21.75,-33.47 61.468,-41.5 92.254,-25.73 47.414,24.3 29.875,58.45 37.148,100.34 12.531,72.15 32.484,141.62 74.84,205.3 77.836,117.04 210.297,195.33 361.93,194.89 169.68,-0.49 266.8,-63.68 368.52,-188.34 36.65,-44.91 73.6,-138.55 77.65,-198.79 2.33,-34.8 -1.67,-89 30.78,-108.32 31.74,-18.88 76.8,-17.77 97.78,17.25 51.5,85.94 -51.79,338.63 -121.95,408.09 -254.46,251.94 -620.784,291.9 -891.921,5.84 z M 1260.55,0.0820313 h 997.77 C 2260.38,8.35938 2413.71,44.2539 2431.45,50.8438 c 41.78,15.5273 108.27,52.0512 142.25,80.7542 109.01,92.066 128.63,112.07 210.68,233.89 143.26,212.684 111.89,504.664 111.89,778.582 0,148.97 0,297.93 0,446.9 0,115.55 13.2,341.2 -0.82,443.46 -14.97,109.3 -72.94,213.51 -179.73,265.99 -177.75,87.36 -330.43,-39.64 -337.93,-38.48 -22.78,26.13 -28.41,69.82 -80.91,120.42 -42.71,41.15 -67.07,52.38 -125.79,72.58 -163.93,56.38 -255.48,-68.71 -294.12,-74.76 -76.03,85.74 -65.22,111.01 -188.33,154.03 -129.65,45.3 -175.66,-5.66 -268.92,-42.73 -6.27,169.46 22.33,746.9 -16.25,853.86 -83.52,231.55 -391.3,292.67 -538.743,93.56 -116.938,-157.92 -69.684,-577.63 -69.684,-798.67 0,-289.32 1.734,-579.17 -0.168,-868.43 -57.801,23.32 -101.625,180 -308.996,232.16 -157.008,39.49 -286.774,-15.13 -396.7735,-111.52 -72.5391,-63.56 -110.0078,-58.66 -57.9024,-167.7 28.9961,-60.67 62.3985,-117.02 91.4419,-175.79 59.628,-120.68 125.773,-235.13 183.894,-352.96 C 403.898,998.594 559.914,662.672 673.797,487.52 765.465,346.535 758.063,308.156 896.293,173.063 931.105,139.039 1013.62,88.9023 1058.95,66.5352 1083.9,54.2227 1257.81,10.7656 1260.55,0.0820313" /></g></g></svg>