<?xml version="1.0" encoding="UTF-8" standalone="no"?>
<svg
   xmlns:dc="http://purl.org/dc/elements/1.1/"
   xmlns:cc="http://creativecommons.org/ns#"
   xmlns:rdf="http://www.w3.org/1999/02/22-rdf-syntax-ns#"
   xmlns:svg="http://www.w3.org/2000/svg"
   xmlns="http://www.w3.org/2000/svg"
   viewBox="0 0 161.33333 161.33333"
   height="161.33333"
   width="161.33333"
   xml:space="preserve"
   id="svg2"
   version="1.1"><metadata
     id="metadata8"><rdf:RDF><cc:Work
         rdf:about=""><dc:format>image/svg+xml</dc:format><dc:type
           rdf:resource="http://purl.org/dc/dcmitype/StillImage" /></cc:Work></rdf:RDF></metadata><defs
     id="defs6" /><g
     transform="matrix(1.3333333,0,0,-1.3333333,0,161.33333)"
     id="g10"><g
       transform="scale(0.1)"
       id="g12"><path
         id="path14"
         style="fill:#fefefe;fill-opacity:1;fill-rule:evenodd;stroke:none"
         d="m 847.277,781.215 c 5.461,7.691 9.141,7.601 15.989,13.187 11.632,9.5 33.797,40.504 32.718,53.004 -0.058,0.711 -1.043,0.668 -1.457,1.117 -8.57,-6.781 -33.797,-16.98 -43.496,-20.445 -38.363,-13.691 -33.843,-8.031 -46.019,2.61 C 733.906,892.809 582.676,851.246 602,704.375 c -56.402,-0.07 -111.191,21.184 -153.668,43.234 -65.301,33.895 -94.656,78.965 -107.391,87.098 -13.449,-32.25 -21.863,-57.156 -10.714,-97.23 10.972,-39.45 29.011,-47.883 43.445,-64.805 2.344,-2.746 1.387,-1.602 3.582,-4.809 -23.27,1.16 -34.559,6.981 -52.445,14.508 -2.918,-32.633 13.164,-64.5 28.964,-82.094 19.442,-21.644 32.247,-30.906 68.629,-42.402 -14.476,-6.434 -35.648,-4.535 -52.867,-2.77 8.914,-42.179 53.281,-77.636 94.367,-84.773 8,-1.387 14.45,-1.699 19.821,-6.273 -38.766,-15.055 -64.063,-55.582 -180.371,-48.985 l 2.898,-3.043 c 0.434,-0.394 0.984,-0.953 1.477,-1.363 l 6.195,-4.012 c 173.648,-98.332 397.359,-40.84 490.422,132.203 37.336,69.418 43.246,107.18 47.949,194.774 18.973,15.633 49.465,42.469 60.48,64.453 -21.253,-5.219 -39.445,-15.594 -65.496,-16.871 z M 570.898,1161.21 c 172.739,11.73 319.211,-59.61 408.098,-142.61 13.567,-12.66 22.634,-20.248 35.074,-34.6 85.25,-98.266 136.6,-199.242 146.06,-339.152 C 1171.84,471.629 1100.68,325.191 1017.45,236.027 972.453,187.824 920.238,143.113 860.121,114.863 791.488,82.6172 731.563,60.8516 644.539,54.9531 470.5,43.1563 324.434,114.004 234.895,197.578 194.07,235.684 143.879,290.82 113.727,354.906 43.8477,503.453 29.5117,652.406 90.4922,810.133 129.527,911.098 187.688,981.02 268.637,1047.21 c 79.117,64.7 194.91,106.72 302.261,114 z M 348.352,66.3398 C 641.965,-69.2891 1008.32,41.5313 1149.44,351.156 c 86.9,190.684 77.96,435.117 -53.46,604.34 -41.47,53.394 -50.09,66.094 -102.39,111.274 C 844.785,1195.3 634.859,1238.57 446.254,1186.42 300.656,1146.16 206.328,1069.32 115.574,953.109 -82.7773,653.645 -0.253906,227.367 348.352,66.3398" /></g></g></svg>