<svg width="30" height="30" viewBox="0 0 30 30" fill="none" xmlns="http://www.w3.org/2000/svg">
<g clip-path="url(#clip0)">
<path d="M28.3889 15.4768C28.1334 14.7052 28.1827 15.0618 28.1827 13.3399C28.1827 11.7474 27.5626 10.2502 26.4363 9.12415C26.2747 8.96233 26.1509 8.76228 26.0788 8.54485L25.4896 6.77834C25.3315 6.30386 25.0609 5.86578 24.7071 5.51193C23.9131 4.71794 23.4757 3.66211 23.4757 2.53922V0.878906C23.4757 0.393448 23.082 0 22.5968 0C22.1113 0 21.7179 0.393448 21.7179 0.878906V2.53899C21.7179 4.13155 22.3379 5.62866 23.464 6.75476C23.6259 6.91658 23.7494 7.11662 23.8218 7.33406L24.4109 9.10057C24.5691 9.57504 24.8396 10.0131 25.1935 10.367C25.9875 11.161 26.4248 12.2168 26.4248 13.3397C26.4248 15.1948 26.3786 14.9982 26.721 16.0311C27.0733 17.0879 26.9211 18.2256 26.3029 19.1531L26.2807 19.1865C26.2793 19.1885 26.2777 19.1906 26.2763 19.1927C25.4361 20.4529 25.4835 21.6268 25.4835 22.0722C25.4835 23.2443 24.9014 24.332 23.9259 24.982C23.1328 25.5109 22.6593 26.3958 22.6593 27.3489V29.1211C22.6593 29.6066 23.0527 30 23.5382 30C24.0234 30 24.4171 29.6066 24.4171 29.1211V27.3489C24.4171 26.9847 24.5979 26.6467 24.901 26.4445C26.3665 25.4679 27.2413 23.8335 27.2413 22.0722C27.2413 21.7742 27.1861 20.9969 27.7389 20.1677L27.7606 20.135C27.7622 20.1327 27.7638 20.1304 27.7654 20.1281C28.6867 18.7459 28.9137 17.0499 28.3889 15.4768Z" fill="#5C86B6"/>
<path d="M7.53429 0C7.04883 0 6.65538 0.393448 6.65538 0.878906V2.53899C6.65538 3.66188 6.21799 4.71771 5.424 5.51193C5.07015 5.86578 4.79961 6.30363 4.64145 6.77834L4.05231 8.54462C3.97998 8.76205 3.85638 8.9621 3.69457 9.12392C2.56847 10.25 1.94843 11.7474 1.94843 13.3397C1.94843 15.0618 1.99764 14.7052 1.74197 15.4768C1.21715 17.0499 1.44443 18.7459 2.36568 20.1281C2.36705 20.1304 2.36865 20.1327 2.37026 20.135L2.392 20.1677C2.94475 20.9969 2.88982 21.7742 2.88982 22.0722C2.88982 23.8335 3.7646 25.4679 5.22991 26.4445C5.53294 26.6467 5.71399 26.9847 5.71399 27.3489V29.1211C5.71399 29.6066 6.10744 30 6.5929 30C7.07813 30 7.4718 29.6066 7.4718 29.1211V27.3489C7.4718 26.3958 6.99825 25.5109 6.20494 24.982C5.22968 24.332 4.64763 23.2443 4.64763 22.0722C4.64763 21.6268 4.69478 20.4531 3.85455 19.1927C3.85318 19.1906 3.85181 19.1885 3.85043 19.1865L3.82823 19.1533C3.21002 18.2256 3.05759 17.0879 3.41007 16.0313C3.75224 14.9982 3.70601 15.195 3.70601 13.3399C3.70601 12.217 4.1434 11.1612 4.93739 10.367C5.29125 10.0131 5.56201 9.57527 5.71994 9.10057L6.30908 7.33429C6.38141 7.11685 6.50523 6.91681 6.66683 6.75499C7.79292 5.62889 8.41319 4.13155 8.41319 2.53922V0.878906C8.41319 0.393448 8.01975 0 7.53429 0V0Z" fill="#5C86B6"/>
<path d="M18.8313 20.7111C17.2394 20.7111 15.9444 19.4161 15.9444 17.8242V16.8828C15.9444 16.3974 15.5509 16.0039 15.0655 16.0039C14.5803 16.0039 14.1866 16.3974 14.1866 16.8828V17.8242C14.1866 19.4161 12.8916 20.7111 11.2999 20.7111C10.8145 20.7111 10.421 21.1045 10.421 21.59C10.421 22.0752 10.8145 22.4689 11.2999 22.4689C12.3903 22.4689 13.3933 22.0901 14.1866 21.4586V29.1211C14.1866 29.6066 14.5803 30 15.0655 30C15.5509 30 15.9444 29.6066 15.9444 29.1211V21.4586C16.7377 22.0901 17.7409 22.4687 18.8313 22.4687C19.3165 22.4687 19.7102 22.0752 19.7102 21.5898C19.7102 21.1045 19.3165 20.7111 18.8313 20.7111Z" fill="#5C86B6"/>
<path d="M12.7918 10.1388C12.8321 10.1596 14.1866 10.6666 14.1866 12.1758C14.1866 12.6613 14.5802 13.0547 15.0655 13.0547C15.5509 13.0547 15.9444 12.6613 15.9444 12.1758C15.9444 10.8108 17.0213 10.2976 17.3392 10.1388C17.7738 9.92316 17.9514 9.39559 17.7358 8.96094C17.5198 8.52607 16.9924 8.34846 16.5578 8.56429C16.1682 8.7577 15.604 9.03602 15.0657 9.69542C14.5269 9.03533 13.9611 8.75678 13.5739 8.56429C13.1392 8.34846 12.6116 8.52584 12.3958 8.96071C12.1797 9.39536 12.3571 9.92293 12.7918 10.1388Z" fill="#5C86B6"/>
</g>
<defs>
<clipPath id="clip0">
<rect width="30" height="30" fill="white"/>
</clipPath>
</defs>
</svg>
