<svg width="30" height="30" viewBox="0 0 30 30" fill="none" xmlns="http://www.w3.org/2000/svg">
<g clip-path="url(#clip0)">
<path fill-rule="evenodd" clip-rule="evenodd" d="M24.3751 1.10211C24.4907 0.631188 24.2027 0.155638 23.7318 0.0399699C23.2609 -0.0756982 22.7853 0.21236 22.6696 0.683286C22.477 1.46785 22.323 2.21021 22.2021 2.91552C17.1718 1.77762 12.6708 1.74964 7.78683 2.83064C7.66824 2.15068 7.51897 1.43642 7.33405 0.683227C7.21839 0.212301 6.74272 -0.0756397 6.27191 0.0399113C5.80098 0.155638 5.51298 0.63113 5.62859 1.10211C7.11606 7.1597 6.18691 10.4087 5.28838 13.5507C4.5534 16.1209 3.79336 18.7785 4.50106 22.6965C4.86645 24.7194 5.21802 26.2844 6.71538 29.4799C6.86471 29.7986 7.18092 29.9856 7.51101 29.9856C7.63575 29.9856 7.76254 29.9588 7.88301 29.9024C8.32209 29.6967 8.51128 29.1739 8.30552 28.7348C6.89515 25.7249 6.58022 24.3277 6.22918 22.3844C6.15132 21.9534 6.09337 21.5401 6.05246 21.1418L14.1239 24.5393C14.1239 24.5401 14.1238 24.5408 14.1238 24.5415V29.1074C14.1238 29.5923 14.5169 29.9854 15.0018 29.9854C15.4867 29.9854 15.8799 29.5923 15.8799 29.1074V24.5415C15.8799 24.5398 15.8796 24.5382 15.8796 24.5365L23.956 21.0939C23.9149 21.5069 23.8554 21.9361 23.7744 22.3844C23.4234 24.3277 23.1085 25.7249 21.6981 28.7348C21.4923 29.1739 21.6815 29.6967 22.1206 29.9024C22.2411 29.9588 22.3678 29.9856 22.4926 29.9856C22.8227 29.9856 23.139 29.7986 23.2882 29.4799C24.7857 26.2844 25.1372 24.7194 25.5025 22.6965C26.2102 18.7785 25.4502 16.1209 24.7152 13.5507C23.8168 10.4087 22.8876 7.1597 24.3751 1.10211ZM14.9997 23.0025L5.98344 19.2073C6.02325 18.0094 6.21519 16.9376 6.46935 15.8988C9.08359 16.8847 12.0238 17.4049 15.0019 17.4049C17.9825 17.4049 20.9197 16.8855 23.5345 15.8993C23.7851 16.9236 23.9755 17.9802 24.0188 19.1581L14.9997 23.0025ZM21.9607 4.66219C21.5319 8.80428 22.3159 11.5477 23.0268 14.0335C23.0421 14.0871 23.0574 14.1406 23.0727 14.1941C20.6155 15.1457 17.8337 15.6487 15.0018 15.6487C12.1724 15.6487 9.38757 15.1453 6.93091 14.194C6.94619 14.1406 6.96147 14.0871 6.97681 14.0335C7.69265 11.5302 8.48312 8.766 8.03403 4.57491C12.7531 3.51265 17.0907 3.54174 21.9607 4.66219Z" fill="#5C86B6"/>
<path fill-rule="evenodd" clip-rule="evenodd" d="M1.51539 6.2335C1.17254 5.89059 0.616558 5.89059 0.273651 6.2335C-0.0692551 6.5764 -0.0692551 7.13233 0.273651 7.47523L1.87351 9.07515L0.257144 10.6915C-0.0857624 11.0343 -0.0857624 11.5903 0.257144 11.9332C0.428597 12.1046 0.65326 12.1904 0.877982 12.1904C1.10264 12.1904 1.32742 12.1046 1.49882 11.9332L3.73608 9.69599C3.90075 9.53133 3.99329 9.30801 3.99329 9.07515C3.99329 8.84229 3.90075 8.61898 3.73608 8.45431L1.51539 6.2335Z" fill="#5C86B6"/>
<path fill-rule="evenodd" clip-rule="evenodd" d="M29.7428 10.6913L28.1264 9.07491L29.7263 7.47499C30.0692 7.13208 30.0692 6.57616 29.7263 6.23325C29.3834 5.89035 28.8275 5.89035 28.4846 6.23325L26.2638 8.45401C26.0991 8.61867 26.0066 8.84199 26.0066 9.07485C26.0066 9.30777 26.0991 9.53102 26.2638 9.69569L28.5011 11.9329C28.6725 12.1043 28.8972 12.1901 29.1219 12.1901C29.3466 12.1901 29.5713 12.1044 29.7427 11.9329C30.0857 11.5901 30.0857 11.0342 29.7428 10.6913Z" fill="#5C86B6"/>
<path fill-rule="evenodd" clip-rule="evenodd" d="M15.0018 13.8293C15.4854 13.8293 15.8798 13.4349 15.8798 12.9513C15.8798 12.4677 15.4854 12.0732 15.0018 12.0732C14.5182 12.0732 14.1237 12.4677 14.1237 12.9513C14.1237 13.4349 14.5182 13.8293 15.0018 13.8293Z" fill="#5C86B6"/>
</g>
<defs>
<clipPath id="clip0">
<rect width="30" height="30" fill="white"/>
</clipPath>
</defs>
</svg>
