<svg width="30" height="30" viewBox="0 0 30 30" fill="none" xmlns="http://www.w3.org/2000/svg">
<g clip-path="url(#clip0)">
<path d="M23.32 18.3091C23.316 18.3024 23.3119 18.2957 23.3076 18.2891C22.1928 16.5672 21.6036 14.5721 21.6036 12.5195C21.6036 11.0884 21.8868 9.69454 22.4455 8.37648C23.4801 5.93434 24.0047 3.35126 24.0047 0.698791C24.0047 0.312849 23.6917 0 23.3059 0C22.92 0 22.6071 0.312849 22.6071 0.698791C22.6071 2.59559 22.3171 4.45395 21.7458 6.24398C17.3689 4.8016 12.6312 4.80153 8.25432 6.2437C7.68292 4.45367 7.39299 2.59545 7.39299 0.698791C7.39299 0.312849 7.08007 0 6.6942 0C6.30833 0 5.99541 0.312849 5.99541 0.698791C5.99541 3.35112 6.51999 5.93427 7.55462 8.37662C8.11324 9.69454 8.39646 11.0885 8.39646 12.5196C8.39646 14.5721 7.80717 16.5672 6.69246 18.2892C6.68819 18.2958 6.68407 18.3024 6.68009 18.3091C5.42688 20.2536 4.76477 22.5039 4.76477 24.8183V25.4465V29.3014C4.76477 29.6873 5.07769 30.0001 5.46356 30.0001C5.84943 30.0001 6.16235 29.6873 6.16235 29.3014V25.758C7.18021 24.9626 9.02802 24.9952 10.6941 25.8703C11.6046 26.3483 12.3801 27.0304 12.8974 27.804V29.3014C12.8974 29.6873 13.2103 30.0001 13.5962 30.0001C13.982 30.0001 14.295 29.6873 14.295 29.3014V28.3242C14.7643 28.3355 15.2351 28.3355 15.7044 28.3242V29.3014C15.7044 29.6873 16.0173 30.0001 16.4032 30.0001C16.7891 30.0001 17.102 29.6873 17.102 29.3014V27.8041C17.619 27.0308 18.3948 26.3487 19.3059 25.8703C20.9721 24.9953 22.8198 24.9626 23.8376 25.7581V29.3014C23.8376 29.6874 24.1506 30.0002 24.5364 30.0002C24.9223 30.0002 25.2352 29.6874 25.2352 29.3014V25.4465V24.8183C25.2352 22.5039 24.573 20.2535 23.32 18.3091ZM9.79404 12.5195C9.79404 10.9 9.4735 9.32257 8.84145 7.83128C8.80308 7.74065 8.76668 7.64945 8.72985 7.5584C12.7995 6.22651 17.2005 6.22651 21.2701 7.55868C21.2333 7.64959 21.197 7.74065 21.1587 7.83114C20.5266 9.32257 20.206 10.9 20.206 12.5195C20.206 14.8345 20.8685 17.0852 22.122 19.0295C22.1221 19.0296 22.1222 19.0298 22.1223 19.03C19.8415 19.893 17.4494 20.3317 14.9999 20.3317C12.5504 20.3317 10.1585 19.8931 7.87767 19.03C7.87774 19.0299 7.87788 19.0297 7.87795 19.0295C9.13165 17.0852 9.79404 14.8346 9.79404 12.5195ZM18.6562 24.6328C17.5845 25.1955 16.6595 25.9979 16.0159 26.9167C15.3401 26.9413 14.6594 26.9413 13.9836 26.9167C13.3398 25.9976 12.4149 25.1952 11.344 24.6329C9.564 23.698 7.62918 23.5475 6.18478 24.1473C6.26976 22.7962 6.61098 21.481 7.18958 20.2639C9.68677 21.2362 12.3112 21.7293 15 21.7293C17.6889 21.7293 20.3133 21.2361 22.8106 20.2638C23.3892 21.481 23.7304 22.7962 23.8153 24.1473C22.3709 23.5475 20.4361 23.6979 18.6562 24.6328Z" fill="#5C86B6"/>
<path d="M14.9999 16.3568C15.3762 16.3568 15.6812 16.0517 15.6812 15.6755C15.6812 15.2992 15.3762 14.9941 14.9999 14.9941C14.6236 14.9941 14.3186 15.2992 14.3186 15.6755C14.3186 16.0517 14.6236 16.3568 14.9999 16.3568Z" fill="#5C86B6"/>
</g>
<defs>
<clipPath id="clip0">
<rect width="30" height="30" fill="white"/>
</clipPath>
</defs>
</svg>
