<?xml version="1.0" encoding="utf-8"?>
<!-- Generator: Adobe Illustrator 23.0.5, SVG Export Plug-In . SVG Version: 6.00 Build 0)  -->
<svg version="1.1"
	 id="svg2" xmlns:cc="http://creativecommons.org/ns#" xmlns:dc="http://purl.org/dc/elements/1.1/" xmlns:rdf="http://www.w3.org/1999/02/22-rdf-syntax-ns#" xmlns:svg="http://www.w3.org/2000/svg"
	 xmlns="http://www.w3.org/2000/svg" xmlns:xlink="http://www.w3.org/1999/xlink" x="0px" y="0px" viewBox="0 0 406.7 152"
	 style="enable-background:new 0 0 406.7 152;" xml:space="preserve">
<style type="text/css">
	.st0{fill:#FFFFFF;}
	.st1{fill:#F2CB05;}
</style>
<g id="g10" transform="matrix(1.3333333,0,0,-1.3333333,0,152)">
	<g id="g12" transform="scale(0.1)">
		<path id="path14" class="st0" d="M682.2,310.2V11.6h-47.8v685.5h163c85,0,147.8-15.7,188.5-47.2c40.5-31.4,60.8-78.6,60.8-141.8
			c0-45.9-12-84.8-36.3-116.3c-24.2-31.5-61-54.2-110.2-68l185.9-312.2H1029L852.3,310.2H682.2z M682.2,351.4H813
			c57.8,0,102.6,13,134.4,38.9c31.8,25.8,47.8,64,47.8,114.4c0,52.5-15.7,90.6-46.9,114.4c-31.2,23.8-82.1,35.7-152.6,35.7H682.2
			V351.4z M1780.8,355.1c0-108.8-27.2-194.9-81.4-258.2C1645,33.7,1570,2,1474.4,2c-95.4,0-170.2,31.7-224.7,94.9
			c-54.2,63.4-81.4,149.8-81.4,259.1c0,109.1,27.4,195.1,82.2,257.6c54.9,62.7,129.8,94.1,224.7,94.1c95.7,0,170.6-31.5,224.5-94.4
			C1753.8,550.2,1780.8,464.1,1780.8,355.1L1780.8,355.1z M1220.3,355.3c0-98.2,21.9-174.1,65.6-227.7
			c43.7-53.6,106.6-80.5,188.5-80.5c82.4,0,145.5,26.6,189,79.7c43.7,53.3,65.4,129.3,65.4,228.5c0,98.7-21.8,174.6-65.4,227.2
			c-43.5,52.6-106.3,79-188.2,79c-81.4,0-144.3-26.6-188.5-79.7C1242.4,528.6,1220.3,453.2,1220.3,355.3L1220.3,355.3z
			 M2514.5,355.1c0-108.8-27.2-194.9-81.4-258.2C2378.6,33.7,2303.6,2,2208.1,2c-95.4,0-170.3,31.7-224.7,94.9
			c-54.2,63.4-81.4,149.8-81.4,259.1c0,109.1,27.4,195.1,82.2,257.6c54.9,62.7,129.8,94.1,224.7,94.1c95.7,0,170.6-31.5,224.5-94.4
			C2487.4,550.2,2514.5,464.1,2514.5,355.1z M1954,355.3c0-98.2,21.9-174.1,65.6-227.7c43.7-53.6,106.6-80.5,188.5-80.5
			c82.4,0,145.4,26.6,189,79.7c43.7,53.3,65.4,129.3,65.4,228.5c0,98.7-21.8,174.6-65.4,227.2c-43.5,52.6-106.3,79-188.2,79
			c-81.4,0-144.3-26.6-188.5-79.7C1976,528.6,1954,453.2,1954,355.3L1954,355.3z M2719.9,11.6h-47.8v685.5h375.5v-44.2h-327.7V362
			h309.5v-44.2h-309.5V11.6"/>
		<path id="path16" class="st1" d="M330.5,664.4c-85.9,0-153.6-27.5-202.9-82.6c-49.4-55.2-74.1-130.6-74.1-226.3
			c0-98.1,23.4-174.1,69.9-228.2c46.6-54.2,113-81.3,199.5-81.3c57.6,0,110.4,7.4,158.4,22.1V26C436.1,10,379.7,2,311.8,2
			c-96.2,0-172,31-227.4,93.3C29.2,157.5,1.6,244.4,1.6,355.9c0,69.8,13.1,131.2,39.5,184.3c26.4,53.1,64.5,94.1,113.9,123
			c49.6,29,107.2,43.4,172.8,43.4c66.9,0,126.7-12.3,179.5-36.8L488,627C438.1,651.9,385.6,664.4,330.5,664.4z M1145.7,984.4
			L1.6,680.7c332.6,138.2,471.3,195.9,602.8,249.1l-44.5,99l140.2,62.9l47.1-104.9c91,36.1,203.6,80.2,380.2,149.7l1911.9-401.1
			L1145.7,984.4"/>
	</g>
</g>
</svg>
