<?xml version="1.0" encoding="UTF-8" standalone="no"?>
<svg
   xmlns:dc="http://purl.org/dc/elements/1.1/"
   xmlns:cc="http://creativecommons.org/ns#"
   xmlns:rdf="http://www.w3.org/1999/02/22-rdf-syntax-ns#"
   xmlns:svg="http://www.w3.org/2000/svg"
   xmlns="http://www.w3.org/2000/svg"
   viewBox="0 0 406.66666 152"
   height="152"
   width="406.66666"
   xml:space="preserve"
   id="svg2"
   version="1.1"><metadata
     id="metadata8"><rdf:RDF><cc:Work
         rdf:about=""><dc:format>image/svg+xml</dc:format><dc:type
           rdf:resource="http://purl.org/dc/dcmitype/StillImage" /></cc:Work></rdf:RDF></metadata><defs
     id="defs6" /><g
     transform="matrix(1.3333333,0,0,-1.3333333,0,152)"
     id="g10"><g
       transform="scale(0.1)"
       id="g12"><path
         id="path14"
         style="fill:#222222;fill-opacity:1;fill-rule:nonzero;stroke:none"
         d="M 682.234,310.152 V 11.582 h -47.843 v 685.469 h 163.047 c 84.964,0 147.847,-15.684 188.488,-47.203 40.484,-31.364 60.804,-78.567 60.804,-141.766 0,-45.922 -12,-84.805 -36.32,-116.328 -24.164,-31.52 -60.969,-54.238 -110.246,-68 L 1086.09,11.582 h -57.13 l -176.64,298.57 z m 0,41.282 h 130.723 c 57.762,0 102.563,12.961 134.406,38.882 31.84,25.762 47.844,64.004 47.844,114.407 0,52.48 -15.684,90.558 -46.883,114.402 -31.203,23.844 -82.082,35.684 -152.644,35.684 H 682.234 Z m 1098.606,3.679 c 0,-108.804 -27.2,-194.886 -81.45,-258.2497 -54.4,-63.1992 -129.44,-94.88283 -224.97,-94.88283 -95.36,0 -170.24,31.68363 -224.65,94.88283 -54.24,63.3637 -81.44,149.7657 -81.44,259.0507 0,109.125 27.36,195.051 82.24,257.609 54.89,62.723 129.77,94.086 224.66,94.086 95.68,0 170.56,-31.523 224.48,-94.406 54.08,-63.043 81.13,-149.125 81.13,-258.09 z m -560.51,0.16 c 0,-98.242 21.92,-174.085 65.6,-227.687 43.69,-53.6016 106.57,-80.4844 188.49,-80.4844 82.4,0 145.45,26.5625 188.97,79.6834 43.68,53.281 65.45,129.285 65.45,228.488 0,98.727 -21.77,174.571 -65.45,227.211 -43.52,52.641 -106.25,79.043 -188.16,79.043 -81.45,0 -144.33,-26.562 -188.5,-79.683 -44.32,-53.281 -66.4,-128.645 -66.4,-226.571 z m 1294.13,-0.16 c 0,-108.804 -27.19,-194.886 -81.44,-258.2497 -54.4,-63.1992 -129.44,-94.88283 -224.97,-94.88283 -95.36,0 -170.25,31.68363 -224.65,94.88283 -54.24,63.3637 -81.44,149.7657 -81.44,259.0507 0,109.125 27.36,195.051 82.24,257.609 54.89,62.723 129.77,94.086 224.66,94.086 95.68,0 170.56,-31.523 224.48,-94.406 54.08,-63.043 81.12,-149.125 81.12,-258.09 z m -560.5,0.16 c 0,-98.242 21.92,-174.085 65.61,-227.687 43.68,-53.6016 106.56,-80.4844 188.48,-80.4844 82.4,0 145.45,26.5625 188.97,79.6834 43.68,53.281 65.44,129.285 65.44,228.488 0,98.727 -21.76,174.571 -65.44,227.211 -43.52,52.641 -106.25,79.043 -188.16,79.043 -81.45,0 -144.33,-26.562 -188.5,-79.683 -44.32,-53.281 -66.4,-128.645 -66.4,-226.571 z M 2719.91,11.582 h -47.84 v 685.469 h 375.54 v -44.164 h -327.7 V 361.996 h 309.45 V 317.832 H 2719.91 V 11.582" /><path
         id="path16"
         style="fill:#f2cb05;fill-opacity:1;fill-rule:nonzero;stroke:none"
         d="m 330.539,664.406 c -85.926,0 -153.609,-27.519 -202.887,-82.562 -49.4411,-55.203 -74.0856,-130.567 -74.0856,-226.25 0,-98.082 23.3633,-174.086 69.9216,-228.168 46.563,-54.2424 112.969,-81.2854 199.532,-81.2854 57.601,0 110.402,7.3633 158.402,22.0821 V 25.9805 C 436.145,9.98438 379.66,1.98047 311.816,1.98047 215.652,1.98047 139.813,33.0234 84.4492,95.2656 29.2461,157.508 1.56641,244.391 1.56641,355.914 c 0,69.766 13.11719,131.203 39.51949,184.328 26.4024,53.121 64.4841,94.082 113.9261,123.043 49.601,28.961 107.203,43.363 172.808,43.363 66.879,0 126.723,-12.32 179.528,-36.8 L 487.984,626.965 C 438.063,651.93 385.582,664.406 330.539,664.406 Z M 1145.73,984.355 1.57031,680.668 C 334.18,818.828 472.891,876.609 604.402,929.754 l -44.453,99.026 140.227,62.95 47.074,-104.871 c 91.047,36.071 203.641,80.231 380.24,149.691 L 3039.43,735.457 1145.73,984.355" /></g></g></svg>