<svg width="3036" height="616" viewBox="0 0 3036 616" xmlns="http://www.w3.org/2000/svg">
  <title>
    Roofart Logo (with 1,5x margins)
  </title>
  <g fill="none" fill-rule="evenodd">
    <path d="M2980.5 301h5.2c6 0 11-2 11-7 0-4-3.3-7-10-7-3 0-5 .3-6.2.6V301zm-.3 25.7h-11v-46c4.4-.7 10.5-1.5 18.2-1.5 9 0 13 1.4 16 3.6 3 2 5 5.4 5 10 0 5.5-4.3 9.2-9.8 11v.4c4.6 1.4 7 5 8.3 11.3 1.4 7 2.5 9.6 3.4 11.2H2999c-1.5-1.6-2.4-5.6-3.8-11.2-1-4.8-3.8-7-9.8-7h-5.2v18.2zm7.2-60.8c-20.4 0-36.2 16.6-36.2 36.8 0 20.6 15.8 37 36.8 37 20.4.2 36-16.4 36-36.7 0-20.4-15.6-37-36.3-37h-.3zm.6-9.3c26.7 0 48 20.2 48 46 0 26-21.3 46.6-48.3 46.6-27 0-48.5-20.6-48.5-46.5 0-26 21.5-46 48.5-46h.3zM2700.8 10.7h335l-.8 1.5-50 80.3c-2.2 2.2-7.8 7-14.4 7.5h-103.8v237.3c-1 4.4-4.2 11.5-13 12h-64.2c-13-.8-15.3-15.5-15.3-15.5V100h-146l49-78.7c3-3.4 10.5-10.6 23.5-10.6M2504.8 237.7s65.3 57 96.2 111.4h-111.6c-7 0-11-4-13.3-7-6.4-16-25.3-55-63.7-83.5h-141.7v78.2c-2 10.5-10.2 12-13.7 12.4h-64.4c-9.5-.4-12.4-6.7-13.3-11.2v-143c3-20.4 24-19.4 24-19.4v-.2h243.2c6.7-.3 42-3.5 41.7-38-.4-38-44-39-44-39v.4c-.3 0-.4-.2-.6-.3H2180l-1 .5 49-79.3 1.7-2.5c5.2-6 13-6.6 13-6.6h194.6S2582 8 2582 128.6c0 0 4.5 89.3-77.2 109M1937.8 35.4c-3-4.2-8.3-10-8.3-10-5.4-5.2-12.7-11.3-21.6-16.2-15-9-27-8.7-27-8.7h-.5-.2c-13.6.6-24.4 6.7-27 8.3-9.3 5-17 11.3-22.5 16.7-.4.3-7 7.5-9.5 11.5l-195 314.3c86-7 154 5.3 195 15-16.4-10.4-25.8-19-31-25-46.3-50-3-125.5-3-125.5l2.8-4.4v-.6L1872 54l1.6-2s2.8-3 7-2.8c4.2.2 6.8 2.6 8.4 5.6l81.2 155.7v.6l2.7 4.5s28.5 49.7 14.6 95v.2c-2.7 13.5-14 26.7-18.3 31.3 0 0-10.5 10.5-24.6 22.6 41.4-9.4 107.2-20.2 189.2-13.7L1937.8 35.3" fill="#39AB47"/>
    <path d="M1963.7 279.5c-1.4 22.6-11.2 88-80.8 94-16.5 2-28.4.6-28.4.6-12.2-.8-24.8-3.7-37.7-9.2 0 0 30.8 9.3 64.3 1.3 25-4 42-19.2 52-31.8l.7-1s1.5-1.5 3.6-4.7c5-7 7.3-12.2 7.3-12.2 9-18 19.5-49 9.8-87.4 0 0 4.2 9.7 7.5 24 0 .5 0 1 .2 1.7.6 4.6 1.8 15.6 1.2 24.8" fill="#39AB47"/>
    <path d="M1679.6 92.3c-1.4 2-5 6-11 6.3h-180.2v77h138.4l-.6 1L1580 252l-1.2 1.7c-1.4 2-5 6-11 6.3h-80v75.7c-.3 2-2.4 13.2-15 13.5h-63.4c-13-.3-13.5-13.7-13.5-14v-302c-.6-19.8 19.3-22.3 23.4-22.6H1729l-49.4 81.7M1136 268c22.8 0 42-1.2 57.8-3.5 15.8-2.2 28.5-6.6 38.3-13.2 10-6.5 17-15.6 21.3-27 4.4-11.7 6.6-26.7 6.6-45.3 0-18.6-2.3-33.7-6.7-45.3-4.3-11.5-11.4-20.5-21.2-26.8-9.7-6.5-22.5-10.8-38.2-13-15.8-2.3-35-3.4-57.8-3.4-22.8 0-42 1-57.8 3.3-15.7 2.2-28.5 6.5-38.3 13-9.8 6.2-17 15.2-21.3 26.7-4.4 11.6-6.6 26.7-6.6 45.3 0 18.6 2.3 33.6 6.7 45.2 4.4 11.5 11.5 20.6 21.2 27 9.7 6.7 22.5 11 38.2 13.3 15.8 2.3 35 3.4 57.8 3.4m0-267.4c71.2 0 124.7 14.3 160.4 43C1332.2 72 1350 117.2 1350 179c0 62-17.7 107.3-53.3 136-35.7 28.5-89.2 42.8-160.7 42.8-71.8 0-125.4-14.3-160.8-43C939.7 286.4 922 241 922 179c0-61.7 17.8-107 53.4-135.5 35.6-28.6 89-43 160.6-43M663 268c22.8 0 42-1.2 57.8-3.5 15.8-2.2 28.5-6.6 38.3-13.2 10-6.5 17-15.6 21.3-27 4.4-11.7 6.6-26.7 6.6-45.3 0-18.6-2.3-33.7-6.7-45.3C776 122.2 769 113.2 759 107c-9.7-6.5-22.4-10.8-38.2-13-15.8-2.3-35-3.4-57.8-3.4-22.7 0-42 1-57.8 3.3-15.7 2.2-28.5 6.5-38.3 13-9.8 6.2-17 15.2-21.3 26.7-4.4 11.6-6.6 26.7-6.6 45.3 0 18.6 2.3 33.6 6.7 45.2 4.4 11.5 11.5 20.6 21.2 27 9.7 6.7 22.5 11 38.2 13.3 15.8 2.3 35 3.4 57.8 3.4M663 .5c71.2 0 124.7 14.3 160.4 43C859.2 72 877 117.2 877 179c0 62-17.7 107.3-53.3 136-35.6 28.5-89.2 42.8-160.7 42.8-71.8 0-125.4-14.3-160.8-43C466.7 286.4 449 241 449 179c0-61.7 17.8-107 53.4-135.5C538 15 591.4.5 663 .5M325.8 237.7S391 294.7 422 349H310.4c-7 0-11-4-13.3-7-6.4-16-25.3-55-63.7-83.5H91.6v78.2c-2 10.5-10.2 12-13.6 12.4H13.5C4 348.7 1.2 342.4.3 338v-143c3-20.4 24-19.4 24-19.4v-.2h243.2c6.7-.3 42-3.5 41.7-38-.4-38-44-39-44-39v.4c-.3 0-.4-.2-.6-.3H1l-1 .5 49-79.3 1.7-2.5c5.2-6 13-6.6 13-6.6h194.6S403 8 403 128.6c0 0 4.5 89.3-77.2 109" fill="#007444"/>
    <path d="M2229 597c0-3-2.7-6-10.7-6l7-10c19.4 1 23.6 6.4 23.6 13.5 0 14.6-17.3 20.8-40.8 21.5l.4-11c14.5-.6 20.3-3.6 20.3-8zm-527-90.3l-1.5-36.3h-.7c-5.2 12.5-9.8 24-15.6 36.3l-7.5 16h26l-.7-16zm1.7 35.4h-36l-14.4 30.8h-28l64-122h30.4l12 122h-26.5l-1.5-30.7zm88.3-43.7c-14.7 0-26.5 17.2-26.5 38 0 11.2 5.2 18 15.6 18 6.4 0 10.8-3 14.8-6l10.6 16c-7 5-16.4 10.7-31 10.7-20.4 0-36-14-36-38.2 0-32.2 24-59 54.3-59 11.5 0 20 5.5 24.7 11.3l-14 15.3c-3.8-4-7.2-6-12.4-6zm71.3 0c-12.3 0-23 16.2-23 38 0 11.2 4.2 18 12.7 18 12.5 0 23.3-16.2 23.3-38 0-11.3-4.5-18-13-18zm-13 76.7c-21.6 0-35.8-15.2-35.8-38.2 0-36 26.3-59 51.7-59 21.4 0 35.7 15 35.7 38 0 36-26.3 59.2-51.8 59.2zm112.8-76.4c-5.6 0-13.5 3-18.8 11.6l-7 35.2c2.7 6 7.3 8.6 12 8.6 12.8 0 24.7-16.8 24.7-39 0-11.3-4.4-16.4-11-16.4zm-12 76.4c-7.8 0-14.7-4-18.7-11h-.4l-2.7 18-4.7 25.2h-25.4l25.4-127.3h20.7l.2 10.6h.5c8.4-7.7 18.6-13 28-13 16.5 0 26 12.2 26 34 0 35.5-23.7 63.4-49 63.4zm104.2-77.7c-8.8 0-18 7-22 20.6h33.5c.6-2 1-4.4 1-7 0-7.5-3.2-13.7-12.5-13.7zm-24 36.3c-.8 15.6 8.5 22 20.6 22 5.8 0 12.5-3.2 17-6.4l9 16c-7.4 5.3-18.7 9.8-33 9.8-22.3 0-37.8-15-37.8-39.7 0-34.4 26.8-57.6 51.3-57.6 22 0 30.2 15.5 30.2 34.8 0 8.8-3.4 18.3-5 21h-52.3zm119.6-33.5c-8.2 0-15.8 6-23 19l-10.5 53.8h-25.5l18.2-93h20.7l-1 18h.6c7.3-11.5 17.7-20 28.3-20 4.6 0 7.6.6 9.6 1.7l-8.3 22c-2.5-1.2-6.3-1.4-9.2-1.4zM2184 573h-25.4l18.6-93h25.3l-18.4 93zm10.7-106.7c-7 0-13.8-4-13.8-12.3 0-8.2 7-15 15.7-15 7 0 13.8 4.2 13.8 12.2 0 8.7-7 15-15.8 15zm53 30.8c-7 0-11.8 4-11.8 8.8 0 5.8 7.8 8.6 15.2 13 11 6 19.3 13.2 19.3 26 0 18-16 30.4-38.3 30.4-11.3 0-25.5-6.4-33-18l14.6-12.3c6.5 7.8 13.2 11.6 20 11.6 7 0 13-3.8 13-8.8 0-5.4-5.7-8-16-14-10.5-5.7-18.7-14-18.7-25.5 0-17.6 16-30.3 35.8-30.3 12.7 0 22.7 6.2 30.3 14.2l-13.8 13.2c-4.5-4.7-10-8.4-16.4-8.4zm86.6 76l.4-12.6h-.8c-8.4 8-19 14.8-30.2 14.8-15.2 0-21.7-8.4-21.7-24 0-4 .6-8.4 1.6-13l11.5-58h25.4l-10.8 54.8c-1 3.7-1.5 6.3-1.5 8.8 0 6.3 3.4 9.5 9.4 9.5 5.4 0 11-3.6 18.4-12l12-61h25.4l-18.3 92.8h-20.7zm70-22.7c0 3.3 1.8 4.4 3.7 4.4 1 0 1.6 0 3.3-.4l-.7 19c-3.2 1-7.7 2-13.6 2-13.2 0-18.6-7-18.6-18 0-3.5.4-7 1.3-11.6l20.6-103.8h25.5l-21 105c-.4 1.8-.4 2.6-.4 3.5zm135-51.4c-13 0-24.8 17-24.8 39.2 0 11.2 4 16.2 10.8 16.2 6 0 13.4-3 19.7-13.6l6.5-33c-3-6-8-8.8-12.3-8.8zm3.8 74.2l.5-12.2h-.5c-8.4 8.8-19.2 14.4-29 14.4-16 0-26-12.2-26-34 0-35.4 24-63.3 49.4-63.3 8.3 0 15.2 4.5 18.8 11.2h.5l2.3-17.7 5.5-29.7h25.5l-26.2 131.2H2543h.2zm95.7 0l.4-12.6h-.6c-8.4 8-19 14.8-30.2 14.8-15.2 0-21.7-8.4-21.7-24 0-4 .5-8.4 1.5-13l11.5-58h25.3l-10.8 54.8c-1 3.7-1.5 6.3-1.5 8.8 0 6.3 3.4 9.5 9.3 9.5 5.4 0 11.2-3.6 18.4-12l12-61h25.4l-18.2 92.8h-20.7zm98.8-72.7c-8.2 0-15.8 6-23 19l-10.5 53.8h-25.5l18.3-93h20.6l-1 18h.6c7.3-11.5 17.7-20 28.3-20 4.6 0 7.6.6 9.7 1.7l-8.4 22c-2.4-1.2-6.2-1.4-9-1.4zm60.2-1.4c-12.8 0-24.7 17-24.7 39.2 0 11.2 4 16.2 10.8 16.2 6 0 13.8-3 19.7-13.6l6.5-33c-3-6-8-8.8-12.3-8.8zm4 74.2l.3-12.2h-.6c-8.3 8.8-19 14.4-28.8 14.4-16.2 0-26-12.2-26-34 0-35.4 23.8-63.3 49.3-63.3 8.2 0 16.4 4.7 20 12h.3l4-9.8h20.4l-18.4 92.8h-20.7zm96.8-74.2c-5.7 0-13.6 3-19 11.6l-7 35c2.8 6.2 7.4 8.8 12 8.8 13 0 24.8-16.8 24.8-39 0-11.3-4.3-16.4-10.8-16.4zm-12 76.4c-8.4 0-16-4.7-19.6-12.2h-.5l-4 10h-21l26.2-131.2h25.4l-6 29.7-4.7 17.4h.4c8.2-6.7 17.7-11 26.8-11 16.4 0 26 12 26 34 0 35.4-23.8 63.3-49 63.3zm78.6-2.2h-25.4l18.6-93h25.3l-18.4 93zm10.7-106.7c-7 0-13.8-4-13.8-12.3 0-8.2 7-15 15.8-15 7 0 13.7 4.2 13.7 12.2 0 8.7-7 15-15.8 15zm39.2 80.6c-.4 1.8-.4 2.6-.4 3.5 0 3.3 1.6 4.4 3.5 4.4 1.2 0 1.8 0 3.4-.4l-.7 19c-3 1-7.6 2-13.6 2-13 0-18.5-7-18.5-18 0-3.5.4-7 1.3-11.6l20.7-103.8h25.4l-21 105z" fill="#2E3735"/>
  </g>
</svg>