<?xml version="1.0" standalone="no"?>
<!DOCTYPE svg PUBLIC "-//W3C//DTD SVG 20010904//EN"
 "http://www.w3.org/TR/2001/REC-SVG-20010904/DTD/svg10.dtd">
<svg version="1.0" xmlns="http://www.w3.org/2000/svg"
 width="1025.000000pt" height="1025.000000pt" viewBox="0 0 1025.000000 1025.000000"
 preserveAspectRatio="xMidYMid meet">
<metadata>
Created by potrace 1.11, written by Peter Selinger 2001-2013
</metadata>
<g transform="translate(0.000000,1025.000000) scale(0.100000,-0.100000)"
fill="#000000" stroke="none">
<path d="M3124 7981 c-1248 -1249 -2284 -2285 -2302 -2303 l-32 -34 1685
-1684 c927 -927 1689 -1686 1694 -1688 9 -3 961 941 961 953 0 4 -556 562
-1235 1241 -679 679 -1235 1236 -1235 1239 0 3 780 786 1733 1740 952 954
1770 1773 1817 1820 l84 85 -451 450 -451 450 -2268 -2269z"/>
<path d="M5598 7527 c-255 -255 -469 -472 -477 -481 -13 -16 97 -129 1225
-1257 l1239 -1239 -1815 -1815 c-998 -998 -1816 -1818 -1818 -1823 -3 -10 886
-898 897 -895 4 1 1041 1036 2304 2299 l2297 2298 -1689 1688 c-929 928 -1691
1688 -1694 1688 -3 0 -214 -209 -469 -463z"/>
</g>
</svg>
