<svg version="1" xmlns="http://www.w3.org/2000/svg" width="106.667" height="106.667" viewBox="0 0 80 80"><path d="M30.5 2.6C26.1 4.1 22 6.7 22 8c0 .6 1 1.4 2.3 1.9 2.5 1 8.7 6.4 8.7 7.5 0 1.2 7.3 7.6 8.7 7.6.6 0 1.8.6 2.5 1.2.7.7 2.9 1.4 4.8 1.5l3.5.2L49 26c-1.9-1-4.3-2.6-5.3-3.7-2.6-2.7-12.9-16.5-12.5-16.7 1.1-.8 7.5-3 9-3.1 1-.1 2.1-.5 2.5-.9 1.1-1.1-8.3-.4-12.2 1z"/><path d="M37 7.2c1.3 1.3 3.1 2.4 4 2.5 5.3.6 6.6.9 7.2 1.8.5.7.8.6.8 0 0-1.3 15.5-1.3 18.3-.1 3.4 1.6.7-2.2-2.8-3.9-2.7-1.2-6-1.5-14.7-1.3-6.2.2-12.2-.1-13.3-.6-1.7-.7-1.6-.5.5 1.6z"/><path d="M37.8 11.3c.8.9 2.9 2.2 4.8 2.9 3.4 1.2 4.5 2.8 2.2 2.8-1.3.1 5.9 4.3 7.7 4.5.6.1 1.2.3 1.5.4 2.5 1.2 12.4 0 14.2-1.7.4-.4-2.8-.8-7-1-4.2-.1-8.6-.4-9.7-.7-1.1-.2-2.8-.4-3.8-.4-1-.1-1.6-.5-1.3-.9.6-1 23-.7 24.8.4.7.4.4-.2-.6-1.4-2.4-2.7-8.4-4.4-13.6-3.9-2.1.2-4.4-.1-5-.7-.7-.7-1-.7-1 .1 0 1.5-10.4.4-13.4-1.4-.6-.4-.5.1.2 1zm-15.5 3.9c-1.8 2.2-3.3 4.6-3.3 5.2 0 .7-2.5 3.6-5.6 6.4-5 4.7-5.5 5.5-4.2 7 1.4 1.7 1.4 3.9.3 10.2-1.4 7.5 0 10.1 5.7 10.7 5.2.6 6.2.8 7.7 1.7.9.6 1.2.5.7-.2-.7-1.2.5-1 5.1.8 1.9.7 3 1.7 2.6 2.3-.3.6-.1.7.5.3 1.4-.9 7.4 4.3 6.5 5.7-.4.6-.1.7.6.3.8-.5 1.4 0 1.8 1.3.3 1.1.9 1.8 1.4 1.5.5-.3.9.1.9.8 0 .7 1.8 2.6 4 4.1 2.2 1.6 4 3.2 4 3.7s.7.6 1.7.3c.9-.4 1.4-.2 1.1.3-.4.5 1.3 1 3.5 1.2l4.2.2-3.5-2.1c-3.5-2.2-7.8-6.3-13.8-13.5-1.8-2.1-4.9-4.8-6.8-6L34 55.3l3.7-2.4c5-3.3 5.4-5.3.6-2.8-6.1 3.1-22.1 2-25-1.8-1-1.2-.9-2.3.3-5.2.9-2 1.6-5.5 1.7-7.9 0-2.3.5-4.2 1-4.2.4 0 .5-.5.2-1.1-.9-1.3 2.4-5.1 3.8-4.2.5.3.7.1.3-.5-.3-.6-.2-1.3.4-1.7.5-.3 1-.1 1 .5 0 .7.6.8 1.9.1 1-.6 2.1-.8 2.4-.5.3.3 1.1.3 1.7-.1.8-.5.3-1.7-1.6-3.6-2.7-2.8-2.7-2.9-.9-4.9 1.1-1.2 1.5-2.4.9-2.9-.5-.5-2.2.8-4.1 3.1z"/></svg>